<?xml version="1.0" encoding="utf-8" standalone="no"?>
<!DOCTYPE svg PUBLIC "-//W3C//DTD SVG 1.1//EN"
  "http://www.w3.org/Graphics/SVG/1.1/DTD/svg11.dtd">
<!-- Created with matplotlib (http://matplotlib.org/) -->
<svg height="864pt" version="1.1" viewBox="0 0 216 864" width="216pt" xmlns="http://www.w3.org/2000/svg" xmlns:xlink="http://www.w3.org/1999/xlink">
 <defs>
  <style type="text/css">
*{stroke-linecap:butt;stroke-linejoin:round;}
  </style>
 </defs>
 <g id="figure_1">
  <g id="patch_1">
   <path d="
M0 864.9
L216 864.9
L216 0
L0 0
z
" style="fill:#ffffff;"/>
  </g>
  <g id="axes_1">
   <g id="patch_2">
    <path d="
M34.128 127.977
L200.016 127.977
L200.016 7.7841
L34.128 7.7841
z
" style="fill:#ffffff;"/>
   </g>
   <g id="line2d_1">
    <path clip-path="url(#p506309635e)" d="
M39.6576 117.349
L45.1872 115.57
L50.7168 112.801
L56.2464 109.311
L61.776 105.443
L67.3056 101.575
L72.8352 98.0848
L78.3648 95.3152
L83.8944 93.5369
L89.424 92.9239
L94.9536 93.5362
L100.483 95.3137
L106.013 98.0824
L111.542 101.571
L117.072 105.439
L122.602 109.306
L128.131 112.794
L133.661 115.562
L139.19 117.338
L144.72 117.95
L150.25 117.335
L155.779 115.556
L161.309 112.785
L166.838 109.294
L172.368 105.425
L177.898 101.556
L183.427 98.066
L188.957 95.2966
L194.486 93.519
L200.016 92.9072" style="fill:none;stroke:#0000ff;stroke-linecap:square;"/>
   </g>
   <g id="line2d_2">
    <path clip-path="url(#p506309635e)" d="
M39.6576 116.123
L45.1872 110.788
L50.7168 102.478
L56.2464 92.0079
L61.776 80.401
L67.3056 68.7942
L72.8352 58.3234
L78.3648 50.0134
L83.8944 44.6779
L89.424 42.8389
L94.9536 44.6764
L100.483 50.0106
L106.013 58.3194
L111.542 68.7891
L117.072 80.3954
L122.602 92.0017
L128.131 102.472
L133.661 110.782
L139.19 116.118
L144.72 117.957
L150.25 116.121
L155.779 110.787
L161.309 102.48
L166.838 92.0115
L172.368 80.4073
L177.898 68.8026
L183.427 58.3342
L188.957 50.0263
L194.486 44.6926
L200.016 42.855" style="fill:none;stroke:#008000;stroke-linecap:square;"/>
   </g>
   <g id="patch_3">
    <path d="
M34.128 7.7841
L200.016 7.7841" style="fill:none;stroke:#000000;stroke-linecap:square;stroke-linejoin:miter;"/>
   </g>
   <g id="patch_4">
    <path d="
M200.016 127.977
L200.016 7.7841" style="fill:none;stroke:#000000;stroke-linecap:square;stroke-linejoin:miter;"/>
   </g>
   <g id="patch_5">
    <path d="
M34.128 127.977
L200.016 127.977" style="fill:none;stroke:#000000;stroke-linecap:square;stroke-linejoin:miter;"/>
   </g>
   <g id="patch_6">
    <path d="
M34.128 127.977
L34.128 7.7841" style="fill:none;stroke:#000000;stroke-linecap:square;stroke-linejoin:miter;"/>
   </g>
   <g id="matplotlib.axis_1">
    <g id="xtick_1">
     <g id="line2d_3">
      <defs>
       <path d="
M0 0
L0 -4" id="m93b0483c22" style="stroke:#000000;stroke-width:0.5;"/>
      </defs>
      <g>
       <use style="stroke:#000000;stroke-width:0.5;" x="34.128" xlink:href="#m93b0483c22" y="127.97738347"/>
      </g>
     </g>
     <g id="line2d_4">
      <defs>
       <path d="
M0 0
L0 4" id="m741efc42ff" style="stroke:#000000;stroke-width:0.5;"/>
      </defs>
      <g>
       <use style="stroke:#000000;stroke-width:0.5;" x="34.128" xlink:href="#m741efc42ff" y="7.7841"/>
      </g>
     </g>
     <g id="text_1">
      <!-- 0 -->
      <defs>
       <path d="
M31.7812 66.4062
Q24.1719 66.4062 20.3281 58.9062
Q16.5 51.4219 16.5 36.375
Q16.5 21.3906 20.3281 13.8906
Q24.1719 6.39062 31.7812 6.39062
Q39.4531 6.39062 43.2812 13.8906
Q47.125 21.3906 47.125 36.375
Q47.125 51.4219 43.2812 58.9062
Q39.4531 66.4062 31.7812 66.4062
M31.7812 74.2188
Q44.0469 74.2188 50.5156 64.5156
Q56.9844 54.8281 56.9844 36.375
Q56.9844 17.9688 50.5156 8.26562
Q44.0469 -1.42188 31.7812 -1.42188
Q19.5312 -1.42188 13.0625 8.26562
Q6.59375 17.9688 6.59375 36.375
Q6.59375 54.8281 13.0625 64.5156
Q19.5312 74.2188 31.7812 74.2188" id="BitstreamVeraSans-Roman-30"/>
      </defs>
      <g transform="translate(31.1045625 141.09550847)scale(0.12 -0.12)">
       <use xlink:href="#BitstreamVeraSans-Roman-30"/>
      </g>
     </g>
    </g>
    <g id="xtick_2">
     <g id="line2d_5">
      <g>
       <use style="stroke:#000000;stroke-width:0.5;" x="89.424" xlink:href="#m93b0483c22" y="127.97738347"/>
      </g>
     </g>
     <g id="line2d_6">
      <g>
       <use style="stroke:#000000;stroke-width:0.5;" x="89.424" xlink:href="#m741efc42ff" y="7.7841"/>
      </g>
     </g>
     <g id="text_2">
      <!-- 1 -->
      <defs>
       <path d="
M12.4062 8.29688
L28.5156 8.29688
L28.5156 63.9219
L10.9844 60.4062
L10.9844 69.3906
L28.4219 72.9062
L38.2812 72.9062
L38.2812 8.29688
L54.3906 8.29688
L54.3906 0
L12.4062 0
z
" id="BitstreamVeraSans-Roman-31"/>
      </defs>
      <g transform="translate(86.819625 141.09550847)scale(0.12 -0.12)">
       <use xlink:href="#BitstreamVeraSans-Roman-31"/>
      </g>
     </g>
    </g>
    <g id="xtick_3">
     <g id="line2d_7">
      <g>
       <use style="stroke:#000000;stroke-width:0.5;" x="144.72" xlink:href="#m93b0483c22" y="127.97738347"/>
      </g>
     </g>
     <g id="line2d_8">
      <g>
       <use style="stroke:#000000;stroke-width:0.5;" x="144.72" xlink:href="#m741efc42ff" y="7.7841"/>
      </g>
     </g>
     <g id="text_3">
      <!-- 2 -->
      <defs>
       <path d="
M19.1875 8.29688
L53.6094 8.29688
L53.6094 0
L7.32812 0
L7.32812 8.29688
Q12.9375 14.1094 22.625 23.8906
Q32.3281 33.6875 34.8125 36.5312
Q39.5469 41.8438 41.4219 45.5312
Q43.3125 49.2188 43.3125 52.7812
Q43.3125 58.5938 39.2344 62.25
Q35.1562 65.9219 28.6094 65.9219
Q23.9688 65.9219 18.8125 64.3125
Q13.6719 62.7031 7.8125 59.4219
L7.8125 69.3906
Q13.7656 71.7812 18.9375 73
Q24.125 74.2188 28.4219 74.2188
Q39.75 74.2188 46.4844 68.5469
Q53.2188 62.8906 53.2188 53.4219
Q53.2188 48.9219 51.5312 44.8906
Q49.8594 40.875 45.4062 35.4062
Q44.1875 33.9844 37.6406 27.2188
Q31.1094 20.4531 19.1875 8.29688" id="BitstreamVeraSans-Roman-32"/>
      </defs>
      <g transform="translate(141.943125 141.09550847)scale(0.12 -0.12)">
       <use xlink:href="#BitstreamVeraSans-Roman-32"/>
      </g>
     </g>
    </g>
    <g id="xtick_4">
     <g id="line2d_9">
      <g>
       <use style="stroke:#000000;stroke-width:0.5;" x="200.016" xlink:href="#m93b0483c22" y="127.97738347"/>
      </g>
     </g>
     <g id="line2d_10">
      <g>
       <use style="stroke:#000000;stroke-width:0.5;" x="200.016" xlink:href="#m741efc42ff" y="7.7841"/>
      </g>
     </g>
     <g id="text_4">
      <!-- 3 -->
      <defs>
       <path d="
M40.5781 39.3125
Q47.6562 37.7969 51.625 33
Q55.6094 28.2188 55.6094 21.1875
Q55.6094 10.4062 48.1875 4.48438
Q40.7656 -1.42188 27.0938 -1.42188
Q22.5156 -1.42188 17.6562 -0.515625
Q12.7969 0.390625 7.625 2.20312
L7.625 11.7188
Q11.7188 9.32812 16.5938 8.10938
Q21.4844 6.89062 26.8125 6.89062
Q36.0781 6.89062 40.9375 10.5469
Q45.7969 14.2031 45.7969 21.1875
Q45.7969 27.6406 41.2812 31.2656
Q36.7656 34.9062 28.7188 34.9062
L20.2188 34.9062
L20.2188 43.0156
L29.1094 43.0156
Q36.375 43.0156 40.2344 45.9219
Q44.0938 48.8281 44.0938 54.2969
Q44.0938 59.9062 40.1094 62.9062
Q36.1406 65.9219 28.7188 65.9219
Q24.6562 65.9219 20.0156 65.0312
Q15.375 64.1562 9.8125 62.3125
L9.8125 71.0938
Q15.4375 72.6562 20.3438 73.4375
Q25.25 74.2188 29.5938 74.2188
Q40.8281 74.2188 47.3594 69.1094
Q53.9062 64.0156 53.9062 55.3281
Q53.9062 49.2656 50.4375 45.0938
Q46.9688 40.9219 40.5781 39.3125" id="BitstreamVeraSans-Roman-33"/>
      </defs>
      <g transform="translate(197.1369375 141.09550847)scale(0.12 -0.12)">
       <use xlink:href="#BitstreamVeraSans-Roman-33"/>
      </g>
     </g>
    </g>
   </g>
   <g id="matplotlib.axis_2">
    <g id="ytick_1">
     <g id="line2d_11">
      <defs>
       <path d="
M0 0
L4 0" id="m728421d6d4" style="stroke:#000000;stroke-width:0.5;"/>
      </defs>
      <g>
       <use style="stroke:#000000;stroke-width:0.5;" x="34.128" xlink:href="#m728421d6d4" y="117.961276515"/>
      </g>
     </g>
     <g id="line2d_12">
      <defs>
       <path d="
M0 0
L-4 0" id="mcb0005524f" style="stroke:#000000;stroke-width:0.5;"/>
      </defs>
      <g>
       <use style="stroke:#000000;stroke-width:0.5;" x="200.016" xlink:href="#mcb0005524f" y="117.961276515"/>
      </g>
     </g>
     <g id="text_5">
      <!-- 0.0 -->
      <defs>
       <path d="
M10.6875 12.4062
L21 12.4062
L21 0
L10.6875 0
z
" id="BitstreamVeraSans-Roman-2e"/>
      </defs>
      <g transform="translate(12.632375 121.272526515)scale(0.12 -0.12)">
       <use xlink:href="#BitstreamVeraSans-Roman-30"/>
       <use x="63.623046875" xlink:href="#BitstreamVeraSans-Roman-2e"/>
       <use x="95.41015625" xlink:href="#BitstreamVeraSans-Roman-30"/>
      </g>
     </g>
    </g>
    <g id="ytick_2">
     <g id="line2d_13">
      <g>
       <use style="stroke:#000000;stroke-width:0.5;" x="34.128" xlink:href="#m728421d6d4" y="67.8807417352"/>
      </g>
     </g>
     <g id="line2d_14">
      <g>
       <use style="stroke:#000000;stroke-width:0.5;" x="200.016" xlink:href="#mcb0005524f" y="67.8807417352"/>
      </g>
     </g>
     <g id="text_6">
      <!-- 0.5 -->
      <defs>
       <path d="
M10.7969 72.9062
L49.5156 72.9062
L49.5156 64.5938
L19.8281 64.5938
L19.8281 46.7344
Q21.9688 47.4688 24.1094 47.8281
Q26.2656 48.1875 28.4219 48.1875
Q40.625 48.1875 47.75 41.5
Q54.8906 34.8125 54.8906 23.3906
Q54.8906 11.625 47.5625 5.09375
Q40.2344 -1.42188 26.9062 -1.42188
Q22.3125 -1.42188 17.5469 -0.640625
Q12.7969 0.140625 7.71875 1.70312
L7.71875 11.625
Q12.1094 9.23438 16.7969 8.0625
Q21.4844 6.89062 26.7031 6.89062
Q35.1562 6.89062 40.0781 11.3281
Q45.0156 15.7656 45.0156 23.3906
Q45.0156 31 40.0781 35.4375
Q35.1562 39.8906 26.7031 39.8906
Q22.75 39.8906 18.8125 39.0156
Q14.8906 38.1406 10.7969 36.2812
z
" id="BitstreamVeraSans-Roman-35"/>
      </defs>
      <g transform="translate(12.883625 71.1919917352)scale(0.12 -0.12)">
       <use xlink:href="#BitstreamVeraSans-Roman-30"/>
       <use x="63.623046875" xlink:href="#BitstreamVeraSans-Roman-2e"/>
       <use x="95.41015625" xlink:href="#BitstreamVeraSans-Roman-35"/>
      </g>
     </g>
    </g>
    <g id="ytick_3">
     <g id="line2d_15">
      <g>
       <use style="stroke:#000000;stroke-width:0.5;" x="34.128" xlink:href="#m728421d6d4" y="17.8002069559"/>
      </g>
     </g>
     <g id="line2d_16">
      <g>
       <use style="stroke:#000000;stroke-width:0.5;" x="200.016" xlink:href="#mcb0005524f" y="17.8002069559"/>
      </g>
     </g>
     <g id="text_7">
      <!-- 1.0 -->
      <g transform="translate(13.15925 21.1114569559)scale(0.12 -0.12)">
       <use xlink:href="#BitstreamVeraSans-Roman-31"/>
       <use x="63.623046875" xlink:href="#BitstreamVeraSans-Roman-2e"/>
       <use x="95.41015625" xlink:href="#BitstreamVeraSans-Roman-30"/>
      </g>
     </g>
    </g>
   </g>
  </g>
  <g id="axes_2">
   <g id="patch_7">
    <path d="
M34.128 264.637
L200.016 264.637
L200.016 144.444
L34.128 144.444
z
" style="fill:#ffffff;"/>
   </g>
   <g id="line2d_17">
    <path clip-path="url(#pe765c7e649)" d="
M39.6576 254.01
L45.1872 252.249
L50.7168 249.55
L56.2464 246.224
L61.776 242.637
L67.3056 239.15
L72.8352 236.071
L78.3648 233.612
L83.8944 231.875
L89.424 230.846
L94.9536 230.418
L100.483 230.423
L106.013 230.673
L111.542 230.992
L117.072 231.25
L122.602 231.371
L128.131 231.338
L133.661 231.181
L139.19 230.955
L144.72 230.725
L150.25 230.541
L155.779 230.431
L161.309 230.398
L166.838 230.422
L172.368 230.471
L177.898 230.514
L183.427 230.527
L188.957 230.502
L194.486 230.447
L200.016 230.38" style="fill:none;stroke:#0000ff;stroke-linecap:square;"/>
   </g>
   <g id="line2d_18">
    <path clip-path="url(#pe765c7e649)" d="
M39.6576 252.786
L45.1872 247.497
L50.7168 239.37
L56.2464 229.317
L61.776 218.413
L67.3056 207.722
L72.8352 198.157
L78.3648 190.363
L83.8944 184.655
L89.424 181.021
L94.9536 179.179
L100.483 178.667
L106.013 178.955
L111.542 179.554
L117.072 180.087
L122.602 180.338
L128.131 180.25
L133.661 179.894
L139.19 179.417
L144.72 178.978
L150.25 178.702
L155.779 178.65
L161.309 178.807
L166.838 179.099
L172.368 179.422
L177.898 179.675
L183.427 179.786
L188.957 179.735
L194.486 179.547
L200.016 179.286" style="fill:none;stroke:#008000;stroke-linecap:square;"/>
   </g>
   <g id="patch_8">
    <path d="
M34.128 144.444
L200.016 144.444" style="fill:none;stroke:#000000;stroke-linecap:square;stroke-linejoin:miter;"/>
   </g>
   <g id="patch_9">
    <path d="
M200.016 264.637
L200.016 144.444" style="fill:none;stroke:#000000;stroke-linecap:square;stroke-linejoin:miter;"/>
   </g>
   <g id="patch_10">
    <path d="
M34.128 264.637
L200.016 264.637" style="fill:none;stroke:#000000;stroke-linecap:square;stroke-linejoin:miter;"/>
   </g>
   <g id="patch_11">
    <path d="
M34.128 264.637
L34.128 144.444" style="fill:none;stroke:#000000;stroke-linecap:square;stroke-linejoin:miter;"/>
   </g>
   <g id="matplotlib.axis_3">
    <g id="xtick_5">
     <g id="line2d_19">
      <g>
       <use style="stroke:#000000;stroke-width:0.5;" x="34.128" xlink:href="#m93b0483c22" y="264.637146776"/>
      </g>
     </g>
     <g id="line2d_20">
      <g>
       <use style="stroke:#000000;stroke-width:0.5;" x="34.128" xlink:href="#m741efc42ff" y="144.443863306"/>
      </g>
     </g>
     <g id="text_8">
      <!-- 0 -->
      <g transform="translate(31.1045625 277.755271776)scale(0.12 -0.12)">
       <use xlink:href="#BitstreamVeraSans-Roman-30"/>
      </g>
     </g>
    </g>
    <g id="xtick_6">
     <g id="line2d_21">
      <g>
       <use style="stroke:#000000;stroke-width:0.5;" x="89.424" xlink:href="#m93b0483c22" y="264.637146776"/>
      </g>
     </g>
     <g id="line2d_22">
      <g>
       <use style="stroke:#000000;stroke-width:0.5;" x="89.424" xlink:href="#m741efc42ff" y="144.443863306"/>
      </g>
     </g>
     <g id="text_9">
      <!-- 1 -->
      <g transform="translate(86.819625 277.755271776)scale(0.12 -0.12)">
       <use xlink:href="#BitstreamVeraSans-Roman-31"/>
      </g>
     </g>
    </g>
    <g id="xtick_7">
     <g id="line2d_23">
      <g>
       <use style="stroke:#000000;stroke-width:0.5;" x="144.72" xlink:href="#m93b0483c22" y="264.637146776"/>
      </g>
     </g>
     <g id="line2d_24">
      <g>
       <use style="stroke:#000000;stroke-width:0.5;" x="144.72" xlink:href="#m741efc42ff" y="144.443863306"/>
      </g>
     </g>
     <g id="text_10">
      <!-- 2 -->
      <g transform="translate(141.943125 277.755271776)scale(0.12 -0.12)">
       <use xlink:href="#BitstreamVeraSans-Roman-32"/>
      </g>
     </g>
    </g>
    <g id="xtick_8">
     <g id="line2d_25">
      <g>
       <use style="stroke:#000000;stroke-width:0.5;" x="200.016" xlink:href="#m93b0483c22" y="264.637146776"/>
      </g>
     </g>
     <g id="line2d_26">
      <g>
       <use style="stroke:#000000;stroke-width:0.5;" x="200.016" xlink:href="#m741efc42ff" y="144.443863306"/>
      </g>
     </g>
     <g id="text_11">
      <!-- 3 -->
      <g transform="translate(197.1369375 277.755271776)scale(0.12 -0.12)">
       <use xlink:href="#BitstreamVeraSans-Roman-33"/>
      </g>
     </g>
    </g>
   </g>
   <g id="matplotlib.axis_4">
    <g id="ytick_4">
     <g id="line2d_27">
      <g>
       <use style="stroke:#000000;stroke-width:0.5;" x="34.128" xlink:href="#m728421d6d4" y="254.62103982"/>
      </g>
     </g>
     <g id="line2d_28">
      <g>
       <use style="stroke:#000000;stroke-width:0.5;" x="200.016" xlink:href="#mcb0005524f" y="254.62103982"/>
      </g>
     </g>
     <g id="text_12">
      <!-- 0.0 -->
      <g transform="translate(12.632375 257.93228982)scale(0.12 -0.12)">
       <use xlink:href="#BitstreamVeraSans-Roman-30"/>
       <use x="63.623046875" xlink:href="#BitstreamVeraSans-Roman-2e"/>
       <use x="95.41015625" xlink:href="#BitstreamVeraSans-Roman-30"/>
      </g>
     </g>
    </g>
    <g id="ytick_5">
     <g id="line2d_29">
      <g>
       <use style="stroke:#000000;stroke-width:0.5;" x="34.128" xlink:href="#m728421d6d4" y="204.540505041"/>
      </g>
     </g>
     <g id="line2d_30">
      <g>
       <use style="stroke:#000000;stroke-width:0.5;" x="200.016" xlink:href="#mcb0005524f" y="204.540505041"/>
      </g>
     </g>
     <g id="text_13">
      <!-- 0.5 -->
      <g transform="translate(12.883625 207.851755041)scale(0.12 -0.12)">
       <use xlink:href="#BitstreamVeraSans-Roman-30"/>
       <use x="63.623046875" xlink:href="#BitstreamVeraSans-Roman-2e"/>
       <use x="95.41015625" xlink:href="#BitstreamVeraSans-Roman-35"/>
      </g>
     </g>
    </g>
    <g id="ytick_6">
     <g id="line2d_31">
      <g>
       <use style="stroke:#000000;stroke-width:0.5;" x="34.128" xlink:href="#m728421d6d4" y="154.459970262"/>
      </g>
     </g>
     <g id="line2d_32">
      <g>
       <use style="stroke:#000000;stroke-width:0.5;" x="200.016" xlink:href="#mcb0005524f" y="154.459970262"/>
      </g>
     </g>
     <g id="text_14">
      <!-- 1.0 -->
      <g transform="translate(13.15925 157.771220262)scale(0.12 -0.12)">
       <use xlink:href="#BitstreamVeraSans-Roman-31"/>
       <use x="63.623046875" xlink:href="#BitstreamVeraSans-Roman-2e"/>
       <use x="95.41015625" xlink:href="#BitstreamVeraSans-Roman-30"/>
      </g>
     </g>
    </g>
   </g>
  </g>
  <g id="axes_3">
   <g id="patch_12">
    <path d="
M34.128 401.297
L200.016 401.297
L200.016 281.104
L34.128 281.104
z
" style="fill:#ffffff;"/>
   </g>
   <g id="line2d_33">
    <path clip-path="url(#p116ddff8bf)" d="
M39.6576 390.671
L45.1872 388.932
L50.7168 386.317
L56.2464 383.183
L61.776 379.922
L67.3056 376.88
L72.8352 374.308
L78.3648 372.337
L83.8944 370.979
L89.424 370.16
L94.9536 369.755
L100.483 369.627
L106.013 369.655
L111.542 369.747
L117.072 369.846
L122.602 369.922
L128.131 369.966
L133.661 369.981
L139.19 369.973
L144.72 369.952
L150.25 369.923
L155.779 369.891
L161.309 369.858
L166.838 369.827
L172.368 369.797
L177.898 369.768
L183.427 369.74
L188.957 369.714
L194.486 369.688
L200.016 369.663" style="fill:none;stroke:#0000ff;stroke-linecap:square;"/>
   </g>
   <g id="line2d_34">
    <path clip-path="url(#p116ddff8bf)" d="
M39.6576 389.448
L45.1872 384.196
L50.7168 376.209
L56.2464 366.466
L61.776 356.052
L67.3056 345.961
L72.8352 336.952
L78.3648 329.48
L83.8944 323.692
L89.424 319.489
L94.9536 316.624
L100.483 314.787
L106.013 313.674
L111.542 313.038
L117.072 312.695
L122.602 312.522
L128.131 312.445
L133.661 312.422
L139.19 312.427
L144.72 312.449
L150.25 312.478
L155.779 312.51
L161.309 312.542
L166.838 312.574
L172.368 312.604
L177.898 312.633
L183.427 312.66
L188.957 312.687
L194.486 312.712
L200.016 312.737" style="fill:none;stroke:#008000;stroke-linecap:square;"/>
   </g>
   <g id="patch_13">
    <path d="
M34.128 281.104
L200.016 281.104" style="fill:none;stroke:#000000;stroke-linecap:square;stroke-linejoin:miter;"/>
   </g>
   <g id="patch_14">
    <path d="
M200.016 401.297
L200.016 281.104" style="fill:none;stroke:#000000;stroke-linecap:square;stroke-linejoin:miter;"/>
   </g>
   <g id="patch_15">
    <path d="
M34.128 401.297
L200.016 401.297" style="fill:none;stroke:#000000;stroke-linecap:square;stroke-linejoin:miter;"/>
   </g>
   <g id="patch_16">
    <path d="
M34.128 401.297
L34.128 281.104" style="fill:none;stroke:#000000;stroke-linecap:square;stroke-linejoin:miter;"/>
   </g>
   <g id="matplotlib.axis_5">
    <g id="xtick_9">
     <g id="line2d_35">
      <g>
       <use style="stroke:#000000;stroke-width:0.5;" x="34.128" xlink:href="#m93b0483c22" y="401.296910082"/>
      </g>
     </g>
     <g id="line2d_36">
      <g>
       <use style="stroke:#000000;stroke-width:0.5;" x="34.128" xlink:href="#m741efc42ff" y="281.103626612"/>
      </g>
     </g>
     <g id="text_15">
      <!-- 0 -->
      <g transform="translate(31.1045625 414.415035082)scale(0.12 -0.12)">
       <use xlink:href="#BitstreamVeraSans-Roman-30"/>
      </g>
     </g>
    </g>
    <g id="xtick_10">
     <g id="line2d_37">
      <g>
       <use style="stroke:#000000;stroke-width:0.5;" x="89.424" xlink:href="#m93b0483c22" y="401.296910082"/>
      </g>
     </g>
     <g id="line2d_38">
      <g>
       <use style="stroke:#000000;stroke-width:0.5;" x="89.424" xlink:href="#m741efc42ff" y="281.103626612"/>
      </g>
     </g>
     <g id="text_16">
      <!-- 1 -->
      <g transform="translate(86.819625 414.415035082)scale(0.12 -0.12)">
       <use xlink:href="#BitstreamVeraSans-Roman-31"/>
      </g>
     </g>
    </g>
    <g id="xtick_11">
     <g id="line2d_39">
      <g>
       <use style="stroke:#000000;stroke-width:0.5;" x="144.72" xlink:href="#m93b0483c22" y="401.296910082"/>
      </g>
     </g>
     <g id="line2d_40">
      <g>
       <use style="stroke:#000000;stroke-width:0.5;" x="144.72" xlink:href="#m741efc42ff" y="281.103626612"/>
      </g>
     </g>
     <g id="text_17">
      <!-- 2 -->
      <g transform="translate(141.943125 414.415035082)scale(0.12 -0.12)">
       <use xlink:href="#BitstreamVeraSans-Roman-32"/>
      </g>
     </g>
    </g>
    <g id="xtick_12">
     <g id="line2d_41">
      <g>
       <use style="stroke:#000000;stroke-width:0.5;" x="200.016" xlink:href="#m93b0483c22" y="401.296910082"/>
      </g>
     </g>
     <g id="line2d_42">
      <g>
       <use style="stroke:#000000;stroke-width:0.5;" x="200.016" xlink:href="#m741efc42ff" y="281.103626612"/>
      </g>
     </g>
     <g id="text_18">
      <!-- 3 -->
      <g transform="translate(197.1369375 414.415035082)scale(0.12 -0.12)">
       <use xlink:href="#BitstreamVeraSans-Roman-33"/>
      </g>
     </g>
    </g>
   </g>
   <g id="matplotlib.axis_6">
    <g id="ytick_7">
     <g id="line2d_43">
      <g>
       <use style="stroke:#000000;stroke-width:0.5;" x="34.128" xlink:href="#m728421d6d4" y="391.280803126"/>
      </g>
     </g>
     <g id="line2d_44">
      <g>
       <use style="stroke:#000000;stroke-width:0.5;" x="200.016" xlink:href="#mcb0005524f" y="391.280803126"/>
      </g>
     </g>
     <g id="text_19">
      <!-- 0.0 -->
      <g transform="translate(12.632375 394.592053126)scale(0.12 -0.12)">
       <use xlink:href="#BitstreamVeraSans-Roman-30"/>
       <use x="63.623046875" xlink:href="#BitstreamVeraSans-Roman-2e"/>
       <use x="95.41015625" xlink:href="#BitstreamVeraSans-Roman-30"/>
      </g>
     </g>
    </g>
    <g id="ytick_8">
     <g id="line2d_45">
      <g>
       <use style="stroke:#000000;stroke-width:0.5;" x="34.128" xlink:href="#m728421d6d4" y="341.200268347"/>
      </g>
     </g>
     <g id="line2d_46">
      <g>
       <use style="stroke:#000000;stroke-width:0.5;" x="200.016" xlink:href="#mcb0005524f" y="341.200268347"/>
      </g>
     </g>
     <g id="text_20">
      <!-- 0.5 -->
      <g transform="translate(12.883625 344.511518347)scale(0.12 -0.12)">
       <use xlink:href="#BitstreamVeraSans-Roman-30"/>
       <use x="63.623046875" xlink:href="#BitstreamVeraSans-Roman-2e"/>
       <use x="95.41015625" xlink:href="#BitstreamVeraSans-Roman-35"/>
      </g>
     </g>
    </g>
    <g id="ytick_9">
     <g id="line2d_47">
      <g>
       <use style="stroke:#000000;stroke-width:0.5;" x="34.128" xlink:href="#m728421d6d4" y="291.119733568"/>
      </g>
     </g>
     <g id="line2d_48">
      <g>
       <use style="stroke:#000000;stroke-width:0.5;" x="200.016" xlink:href="#mcb0005524f" y="291.119733568"/>
      </g>
     </g>
     <g id="text_21">
      <!-- 1.0 -->
      <g transform="translate(13.15925 294.430983568)scale(0.12 -0.12)">
       <use xlink:href="#BitstreamVeraSans-Roman-31"/>
       <use x="63.623046875" xlink:href="#BitstreamVeraSans-Roman-2e"/>
       <use x="95.41015625" xlink:href="#BitstreamVeraSans-Roman-30"/>
      </g>
     </g>
    </g>
   </g>
  </g>
  <g id="axes_4">
   <g id="patch_17">
    <path d="
M34.128 537.957
L200.016 537.957
L200.016 417.763
L34.128 417.763
z
" style="fill:#ffffff;"/>
   </g>
   <g id="line2d_49">
    <path clip-path="url(#p502b081a33)" d="
M39.6576 527.331
L45.1872 525.603
L50.7168 523.031
L56.2464 519.998
L61.776 516.914
L67.3056 514.13
L72.8352 511.886
L78.3648 510.284
L83.8944 509.307
L89.424 508.851
L94.9536 508.769
L100.483 508.913
L106.013 509.158
L111.542 509.417
L117.072 509.638
L122.602 509.799
L128.131 509.899
L133.661 509.945
L139.19 509.952
L144.72 509.93
L150.25 509.892
L155.779 509.844
L161.309 509.791
L166.838 509.738
L172.368 509.684
L177.898 509.632
L183.427 509.581
L188.957 509.532
L194.486 509.485
L200.016 509.44" style="fill:none;stroke:#0000ff;stroke-linecap:square;"/>
   </g>
   <g id="line2d_50">
    <path clip-path="url(#p502b081a33)" d="
M39.6576 526.108
L45.1872 520.855
L50.7168 512.86
L56.2464 503.093
L61.776 492.62
L67.3056 482.415
L72.8352 473.22
L78.3648 465.481
L83.8944 459.35
L89.424 454.755
L94.9536 451.481
L100.483 449.253
L106.013 447.799
L111.542 446.887
L117.072 446.339
L122.602 446.025
L128.131 445.86
L133.661 445.788
L139.19 445.772
L144.72 445.791
L150.25 445.828
L155.779 445.876
L161.309 445.929
L166.838 445.983
L172.368 446.036
L177.898 446.088
L183.427 446.139
L188.957 446.188
L194.486 446.235
L200.016 446.28" style="fill:none;stroke:#008000;stroke-linecap:square;"/>
   </g>
   <g id="patch_18">
    <path d="
M34.128 417.763
L200.016 417.763" style="fill:none;stroke:#000000;stroke-linecap:square;stroke-linejoin:miter;"/>
   </g>
   <g id="patch_19">
    <path d="
M200.016 537.957
L200.016 417.763" style="fill:none;stroke:#000000;stroke-linecap:square;stroke-linejoin:miter;"/>
   </g>
   <g id="patch_20">
    <path d="
M34.128 537.957
L200.016 537.957" style="fill:none;stroke:#000000;stroke-linecap:square;stroke-linejoin:miter;"/>
   </g>
   <g id="patch_21">
    <path d="
M34.128 537.957
L34.128 417.763" style="fill:none;stroke:#000000;stroke-linecap:square;stroke-linejoin:miter;"/>
   </g>
   <g id="matplotlib.axis_7">
    <g id="xtick_13">
     <g id="line2d_51">
      <g>
       <use style="stroke:#000000;stroke-width:0.5;" x="34.128" xlink:href="#m93b0483c22" y="537.956673388"/>
      </g>
     </g>
     <g id="line2d_52">
      <g>
       <use style="stroke:#000000;stroke-width:0.5;" x="34.128" xlink:href="#m741efc42ff" y="417.763389918"/>
      </g>
     </g>
     <g id="text_22">
      <!-- 0 -->
      <g transform="translate(31.1045625 551.074798388)scale(0.12 -0.12)">
       <use xlink:href="#BitstreamVeraSans-Roman-30"/>
      </g>
     </g>
    </g>
    <g id="xtick_14">
     <g id="line2d_53">
      <g>
       <use style="stroke:#000000;stroke-width:0.5;" x="89.424" xlink:href="#m93b0483c22" y="537.956673388"/>
      </g>
     </g>
     <g id="line2d_54">
      <g>
       <use style="stroke:#000000;stroke-width:0.5;" x="89.424" xlink:href="#m741efc42ff" y="417.763389918"/>
      </g>
     </g>
     <g id="text_23">
      <!-- 1 -->
      <g transform="translate(86.819625 551.074798388)scale(0.12 -0.12)">
       <use xlink:href="#BitstreamVeraSans-Roman-31"/>
      </g>
     </g>
    </g>
    <g id="xtick_15">
     <g id="line2d_55">
      <g>
       <use style="stroke:#000000;stroke-width:0.5;" x="144.72" xlink:href="#m93b0483c22" y="537.956673388"/>
      </g>
     </g>
     <g id="line2d_56">
      <g>
       <use style="stroke:#000000;stroke-width:0.5;" x="144.72" xlink:href="#m741efc42ff" y="417.763389918"/>
      </g>
     </g>
     <g id="text_24">
      <!-- 2 -->
      <g transform="translate(141.943125 551.074798388)scale(0.12 -0.12)">
       <use xlink:href="#BitstreamVeraSans-Roman-32"/>
      </g>
     </g>
    </g>
    <g id="xtick_16">
     <g id="line2d_57">
      <g>
       <use style="stroke:#000000;stroke-width:0.5;" x="200.016" xlink:href="#m93b0483c22" y="537.956673388"/>
      </g>
     </g>
     <g id="line2d_58">
      <g>
       <use style="stroke:#000000;stroke-width:0.5;" x="200.016" xlink:href="#m741efc42ff" y="417.763389918"/>
      </g>
     </g>
     <g id="text_25">
      <!-- 3 -->
      <g transform="translate(197.1369375 551.074798388)scale(0.12 -0.12)">
       <use xlink:href="#BitstreamVeraSans-Roman-33"/>
      </g>
     </g>
    </g>
   </g>
   <g id="matplotlib.axis_8">
    <g id="ytick_10">
     <g id="line2d_59">
      <g>
       <use style="stroke:#000000;stroke-width:0.5;" x="34.128" xlink:href="#m728421d6d4" y="527.940566432"/>
      </g>
     </g>
     <g id="line2d_60">
      <g>
       <use style="stroke:#000000;stroke-width:0.5;" x="200.016" xlink:href="#mcb0005524f" y="527.940566432"/>
      </g>
     </g>
     <g id="text_26">
      <!-- 0.0 -->
      <g transform="translate(12.632375 531.251816432)scale(0.12 -0.12)">
       <use xlink:href="#BitstreamVeraSans-Roman-30"/>
       <use x="63.623046875" xlink:href="#BitstreamVeraSans-Roman-2e"/>
       <use x="95.41015625" xlink:href="#BitstreamVeraSans-Roman-30"/>
      </g>
     </g>
    </g>
    <g id="ytick_11">
     <g id="line2d_61">
      <g>
       <use style="stroke:#000000;stroke-width:0.5;" x="34.128" xlink:href="#m728421d6d4" y="477.860031653"/>
      </g>
     </g>
     <g id="line2d_62">
      <g>
       <use style="stroke:#000000;stroke-width:0.5;" x="200.016" xlink:href="#mcb0005524f" y="477.860031653"/>
      </g>
     </g>
     <g id="text_27">
      <!-- 0.5 -->
      <g transform="translate(12.883625 481.171281653)scale(0.12 -0.12)">
       <use xlink:href="#BitstreamVeraSans-Roman-30"/>
       <use x="63.623046875" xlink:href="#BitstreamVeraSans-Roman-2e"/>
       <use x="95.41015625" xlink:href="#BitstreamVeraSans-Roman-35"/>
      </g>
     </g>
    </g>
    <g id="ytick_12">
     <g id="line2d_63">
      <g>
       <use style="stroke:#000000;stroke-width:0.5;" x="34.128" xlink:href="#m728421d6d4" y="427.779496874"/>
      </g>
     </g>
     <g id="line2d_64">
      <g>
       <use style="stroke:#000000;stroke-width:0.5;" x="200.016" xlink:href="#mcb0005524f" y="427.779496874"/>
      </g>
     </g>
     <g id="text_28">
      <!-- 1.0 -->
      <g transform="translate(13.15925 431.090746874)scale(0.12 -0.12)">
       <use xlink:href="#BitstreamVeraSans-Roman-31"/>
       <use x="63.623046875" xlink:href="#BitstreamVeraSans-Roman-2e"/>
       <use x="95.41015625" xlink:href="#BitstreamVeraSans-Roman-30"/>
      </g>
     </g>
    </g>
   </g>
  </g>
  <g id="axes_5">
   <g id="patch_22">
    <path d="
M34.128 674.616
L200.016 674.616
L200.016 554.423
L34.128 554.423
z
" style="fill:#ffffff;"/>
   </g>
   <g id="line2d_65">
    <path clip-path="url(#p8e0a8463d4)" d="
M39.6576 663.992
L45.1872 662.281
L50.7168 659.777
L56.2464 656.906
L61.776 654.11
L67.3056 651.755
L72.8352 650.062
L78.3648 649.097
L83.8944 648.79
L89.424 648.985
L94.9536 649.493
L100.483 650.137
L106.013 650.782
L111.542 651.34
L117.072 651.77
L122.602 652.066
L128.131 652.243
L133.661 652.324
L139.19 652.337
L144.72 652.302
L150.25 652.239
L155.779 652.159
L161.309 652.072
L166.838 651.982
L172.368 651.893
L177.898 651.807
L183.427 651.722
L188.957 651.642
L194.486 651.564
L200.016 651.489" style="fill:none;stroke:#0000ff;stroke-linecap:square;"/>
   </g>
   <g id="line2d_66">
    <path clip-path="url(#p8e0a8463d4)" d="
M39.6576 662.767
L45.1872 657.501
L50.7168 649.456
L56.2464 639.566
L61.776 628.863
L67.3056 618.302
L72.8352 608.623
L78.3648 600.294
L83.8944 593.51
L89.424 588.249
L94.9536 584.345
L100.483 581.561
L106.013 579.651
L111.542 578.389
L117.072 577.591
L122.602 577.115
L128.131 576.855
L133.661 576.738
L139.19 576.711
L144.72 576.74
L150.25 576.802
L155.779 576.88
L161.309 576.968
L166.838 577.057
L172.368 577.146
L177.898 577.233
L183.427 577.317
L188.957 577.398
L194.486 577.476
L200.016 577.55" style="fill:none;stroke:#008000;stroke-linecap:square;"/>
   </g>
   <g id="patch_23">
    <path d="
M34.128 554.423
L200.016 554.423" style="fill:none;stroke:#000000;stroke-linecap:square;stroke-linejoin:miter;"/>
   </g>
   <g id="patch_24">
    <path d="
M200.016 674.616
L200.016 554.423" style="fill:none;stroke:#000000;stroke-linecap:square;stroke-linejoin:miter;"/>
   </g>
   <g id="patch_25">
    <path d="
M34.128 674.616
L200.016 674.616" style="fill:none;stroke:#000000;stroke-linecap:square;stroke-linejoin:miter;"/>
   </g>
   <g id="patch_26">
    <path d="
M34.128 674.616
L34.128 554.423" style="fill:none;stroke:#000000;stroke-linecap:square;stroke-linejoin:miter;"/>
   </g>
   <g id="matplotlib.axis_9">
    <g id="xtick_17">
     <g id="line2d_67">
      <g>
       <use style="stroke:#000000;stroke-width:0.5;" x="34.128" xlink:href="#m93b0483c22" y="674.616436694"/>
      </g>
     </g>
     <g id="line2d_68">
      <g>
       <use style="stroke:#000000;stroke-width:0.5;" x="34.128" xlink:href="#m741efc42ff" y="554.423153224"/>
      </g>
     </g>
     <g id="text_29">
      <!-- 0 -->
      <g transform="translate(31.1045625 687.734561694)scale(0.12 -0.12)">
       <use xlink:href="#BitstreamVeraSans-Roman-30"/>
      </g>
     </g>
    </g>
    <g id="xtick_18">
     <g id="line2d_69">
      <g>
       <use style="stroke:#000000;stroke-width:0.5;" x="89.424" xlink:href="#m93b0483c22" y="674.616436694"/>
      </g>
     </g>
     <g id="line2d_70">
      <g>
       <use style="stroke:#000000;stroke-width:0.5;" x="89.424" xlink:href="#m741efc42ff" y="554.423153224"/>
      </g>
     </g>
     <g id="text_30">
      <!-- 1 -->
      <g transform="translate(86.819625 687.734561694)scale(0.12 -0.12)">
       <use xlink:href="#BitstreamVeraSans-Roman-31"/>
      </g>
     </g>
    </g>
    <g id="xtick_19">
     <g id="line2d_71">
      <g>
       <use style="stroke:#000000;stroke-width:0.5;" x="144.72" xlink:href="#m93b0483c22" y="674.616436694"/>
      </g>
     </g>
     <g id="line2d_72">
      <g>
       <use style="stroke:#000000;stroke-width:0.5;" x="144.72" xlink:href="#m741efc42ff" y="554.423153224"/>
      </g>
     </g>
     <g id="text_31">
      <!-- 2 -->
      <g transform="translate(141.943125 687.734561694)scale(0.12 -0.12)">
       <use xlink:href="#BitstreamVeraSans-Roman-32"/>
      </g>
     </g>
    </g>
    <g id="xtick_20">
     <g id="line2d_73">
      <g>
       <use style="stroke:#000000;stroke-width:0.5;" x="200.016" xlink:href="#m93b0483c22" y="674.616436694"/>
      </g>
     </g>
     <g id="line2d_74">
      <g>
       <use style="stroke:#000000;stroke-width:0.5;" x="200.016" xlink:href="#m741efc42ff" y="554.423153224"/>
      </g>
     </g>
     <g id="text_32">
      <!-- 3 -->
      <g transform="translate(197.1369375 687.734561694)scale(0.12 -0.12)">
       <use xlink:href="#BitstreamVeraSans-Roman-33"/>
      </g>
     </g>
    </g>
   </g>
   <g id="matplotlib.axis_10">
    <g id="ytick_13">
     <g id="line2d_75">
      <g>
       <use style="stroke:#000000;stroke-width:0.5;" x="34.128" xlink:href="#m728421d6d4" y="664.600329738"/>
      </g>
     </g>
     <g id="line2d_76">
      <g>
       <use style="stroke:#000000;stroke-width:0.5;" x="200.016" xlink:href="#mcb0005524f" y="664.600329738"/>
      </g>
     </g>
     <g id="text_33">
      <!-- 0.0 -->
      <g transform="translate(12.632375 667.911579738)scale(0.12 -0.12)">
       <use xlink:href="#BitstreamVeraSans-Roman-30"/>
       <use x="63.623046875" xlink:href="#BitstreamVeraSans-Roman-2e"/>
       <use x="95.41015625" xlink:href="#BitstreamVeraSans-Roman-30"/>
      </g>
     </g>
    </g>
    <g id="ytick_14">
     <g id="line2d_77">
      <g>
       <use style="stroke:#000000;stroke-width:0.5;" x="34.128" xlink:href="#m728421d6d4" y="614.519794959"/>
      </g>
     </g>
     <g id="line2d_78">
      <g>
       <use style="stroke:#000000;stroke-width:0.5;" x="200.016" xlink:href="#mcb0005524f" y="614.519794959"/>
      </g>
     </g>
     <g id="text_34">
      <!-- 0.5 -->
      <g transform="translate(12.883625 617.831044959)scale(0.12 -0.12)">
       <use xlink:href="#BitstreamVeraSans-Roman-30"/>
       <use x="63.623046875" xlink:href="#BitstreamVeraSans-Roman-2e"/>
       <use x="95.41015625" xlink:href="#BitstreamVeraSans-Roman-35"/>
      </g>
     </g>
    </g>
    <g id="ytick_15">
     <g id="line2d_79">
      <g>
       <use style="stroke:#000000;stroke-width:0.5;" x="34.128" xlink:href="#m728421d6d4" y="564.43926018"/>
      </g>
     </g>
     <g id="line2d_80">
      <g>
       <use style="stroke:#000000;stroke-width:0.5;" x="200.016" xlink:href="#mcb0005524f" y="564.43926018"/>
      </g>
     </g>
     <g id="text_35">
      <!-- 1.0 -->
      <g transform="translate(13.15925 567.75051018)scale(0.12 -0.12)">
       <use xlink:href="#BitstreamVeraSans-Roman-31"/>
       <use x="63.623046875" xlink:href="#BitstreamVeraSans-Roman-2e"/>
       <use x="95.41015625" xlink:href="#BitstreamVeraSans-Roman-30"/>
      </g>
     </g>
    </g>
   </g>
  </g>
  <g id="axes_6">
   <g id="patch_27">
    <path d="
M34.128 811.276
L200.016 811.276
L200.016 691.083
L34.128 691.083
z
" style="fill:#ffffff;"/>
   </g>
   <g id="line2d_81">
    <path clip-path="url(#pa045f8790e)" d="
M39.6576 800.653
L45.1872 798.956
L50.7168 796.508
L56.2464 793.771
L61.776 791.214
L67.3056 789.21
L72.8352 787.969
L78.3648 787.521
L83.8944 787.754
L89.424 788.466
L94.9536 789.433
L100.483 790.457
L106.013 791.394
L111.542 792.16
L117.072 792.727
L122.602 793.102
L128.131 793.318
L133.661 793.41
L139.19 793.416
L144.72 793.366
L150.25 793.283
L155.779 793.182
L161.309 793.074
L166.838 792.964
L172.368 792.857
L177.898 792.752
L183.427 792.652
L188.957 792.557
L194.486 792.465
L200.016 792.377" style="fill:none;stroke:#0000ff;stroke-linecap:square;"/>
   </g>
   <g id="line2d_82">
    <path clip-path="url(#pa045f8790e)" d="
M39.6576 799.426
L45.1872 794.148
L50.7168 786.052
L56.2464 776.041
L61.776 765.119
L67.3056 754.229
L72.8352 744.121
L78.3648 735.29
L83.8944 727.971
L89.424 722.189
L94.9536 717.812
L100.483 714.631
L106.013 712.41
L111.542 710.923
L117.072 709.976
L122.602 709.411
L128.131 709.107
L133.661 708.975
L139.19 708.953
L144.72 708.996
L150.25 709.078
L155.779 709.178
L161.309 709.286
L166.838 709.395
L172.368 709.503
L177.898 709.607
L183.427 709.707
L188.957 709.803
L194.486 709.894
L200.016 709.982" style="fill:none;stroke:#008000;stroke-linecap:square;"/>
   </g>
   <g id="patch_28">
    <path d="
M34.128 691.083
L200.016 691.083" style="fill:none;stroke:#000000;stroke-linecap:square;stroke-linejoin:miter;"/>
   </g>
   <g id="patch_29">
    <path d="
M200.016 811.276
L200.016 691.083" style="fill:none;stroke:#000000;stroke-linecap:square;stroke-linejoin:miter;"/>
   </g>
   <g id="patch_30">
    <path d="
M34.128 811.276
L200.016 811.276" style="fill:none;stroke:#000000;stroke-linecap:square;stroke-linejoin:miter;"/>
   </g>
   <g id="patch_31">
    <path d="
M34.128 811.276
L34.128 691.083" style="fill:none;stroke:#000000;stroke-linecap:square;stroke-linejoin:miter;"/>
   </g>
   <g id="matplotlib.axis_11">
    <g id="xtick_21">
     <g id="line2d_83">
      <g>
       <use style="stroke:#000000;stroke-width:0.5;" x="34.128" xlink:href="#m93b0483c22" y="811.2762"/>
      </g>
     </g>
     <g id="line2d_84">
      <g>
       <use style="stroke:#000000;stroke-width:0.5;" x="34.128" xlink:href="#m741efc42ff" y="691.08291653"/>
      </g>
     </g>
     <g id="text_36">
      <!-- 0 -->
      <g transform="translate(31.1045625 824.394325)scale(0.12 -0.12)">
       <use xlink:href="#BitstreamVeraSans-Roman-30"/>
      </g>
     </g>
    </g>
    <g id="xtick_22">
     <g id="line2d_85">
      <g>
       <use style="stroke:#000000;stroke-width:0.5;" x="89.424" xlink:href="#m93b0483c22" y="811.2762"/>
      </g>
     </g>
     <g id="line2d_86">
      <g>
       <use style="stroke:#000000;stroke-width:0.5;" x="89.424" xlink:href="#m741efc42ff" y="691.08291653"/>
      </g>
     </g>
     <g id="text_37">
      <!-- 1 -->
      <g transform="translate(86.819625 824.394325)scale(0.12 -0.12)">
       <use xlink:href="#BitstreamVeraSans-Roman-31"/>
      </g>
     </g>
    </g>
    <g id="xtick_23">
     <g id="line2d_87">
      <g>
       <use style="stroke:#000000;stroke-width:0.5;" x="144.72" xlink:href="#m93b0483c22" y="811.2762"/>
      </g>
     </g>
     <g id="line2d_88">
      <g>
       <use style="stroke:#000000;stroke-width:0.5;" x="144.72" xlink:href="#m741efc42ff" y="691.08291653"/>
      </g>
     </g>
     <g id="text_38">
      <!-- 2 -->
      <g transform="translate(141.943125 824.394325)scale(0.12 -0.12)">
       <use xlink:href="#BitstreamVeraSans-Roman-32"/>
      </g>
     </g>
    </g>
    <g id="xtick_24">
     <g id="line2d_89">
      <g>
       <use style="stroke:#000000;stroke-width:0.5;" x="200.016" xlink:href="#m93b0483c22" y="811.2762"/>
      </g>
     </g>
     <g id="line2d_90">
      <g>
       <use style="stroke:#000000;stroke-width:0.5;" x="200.016" xlink:href="#m741efc42ff" y="691.08291653"/>
      </g>
     </g>
     <g id="text_39">
      <!-- 3 -->
      <g transform="translate(197.1369375 824.394325)scale(0.12 -0.12)">
       <use xlink:href="#BitstreamVeraSans-Roman-33"/>
      </g>
     </g>
    </g>
   </g>
   <g id="matplotlib.axis_12">
    <g id="ytick_16">
     <g id="line2d_91">
      <g>
       <use style="stroke:#000000;stroke-width:0.5;" x="34.128" xlink:href="#m728421d6d4" y="801.260093044"/>
      </g>
     </g>
     <g id="line2d_92">
      <g>
       <use style="stroke:#000000;stroke-width:0.5;" x="200.016" xlink:href="#mcb0005524f" y="801.260093044"/>
      </g>
     </g>
     <g id="text_40">
      <!-- 0.0 -->
      <g transform="translate(12.632375 804.571343044)scale(0.12 -0.12)">
       <use xlink:href="#BitstreamVeraSans-Roman-30"/>
       <use x="63.623046875" xlink:href="#BitstreamVeraSans-Roman-2e"/>
       <use x="95.41015625" xlink:href="#BitstreamVeraSans-Roman-30"/>
      </g>
     </g>
    </g>
    <g id="ytick_17">
     <g id="line2d_93">
      <g>
       <use style="stroke:#000000;stroke-width:0.5;" x="34.128" xlink:href="#m728421d6d4" y="751.179558265"/>
      </g>
     </g>
     <g id="line2d_94">
      <g>
       <use style="stroke:#000000;stroke-width:0.5;" x="200.016" xlink:href="#mcb0005524f" y="751.179558265"/>
      </g>
     </g>
     <g id="text_41">
      <!-- 0.5 -->
      <g transform="translate(12.883625 754.490808265)scale(0.12 -0.12)">
       <use xlink:href="#BitstreamVeraSans-Roman-30"/>
       <use x="63.623046875" xlink:href="#BitstreamVeraSans-Roman-2e"/>
       <use x="95.41015625" xlink:href="#BitstreamVeraSans-Roman-35"/>
      </g>
     </g>
    </g>
    <g id="ytick_18">
     <g id="line2d_95">
      <g>
       <use style="stroke:#000000;stroke-width:0.5;" x="34.128" xlink:href="#m728421d6d4" y="701.099023485"/>
      </g>
     </g>
     <g id="line2d_96">
      <g>
       <use style="stroke:#000000;stroke-width:0.5;" x="200.016" xlink:href="#mcb0005524f" y="701.099023485"/>
      </g>
     </g>
     <g id="text_42">
      <!-- 1.0 -->
      <g transform="translate(13.15925 704.410273485)scale(0.12 -0.12)">
       <use xlink:href="#BitstreamVeraSans-Roman-31"/>
       <use x="63.623046875" xlink:href="#BitstreamVeraSans-Roman-2e"/>
       <use x="95.41015625" xlink:href="#BitstreamVeraSans-Roman-30"/>
      </g>
     </g>
    </g>
   </g>
   <g id="legend_1">
    <g id="patch_32">
     <path d="
M48.942 855.952
L185.202 855.952
L185.202 830.496
L48.942 830.496
z
" style="fill:#ffffff;stroke:#000000;stroke-linejoin:miter;"/>
    </g>
    <g id="line2d_97">
     <path d="
M59.022 842.157
L79.182 842.157" style="fill:none;stroke:#0000ff;stroke-linecap:square;"/>
    </g>
    <g id="line2d_98"/>
    <g id="text_43">
     <!-- x -->
     <defs>
      <path d="
M54.8906 54.6875
L35.1094 28.0781
L55.9062 0
L45.3125 0
L29.3906 21.4844
L13.4844 0
L2.875 0
L24.125 28.6094
L4.6875 54.6875
L15.2812 54.6875
L29.7812 35.2031
L44.2812 54.6875
z
" id="BitstreamVeraSans-Roman-78"/>
     </defs>
     <g transform="translate(95.022 847.197278347)scale(0.144 -0.144)">
      <use xlink:href="#BitstreamVeraSans-Roman-78"/>
     </g>
    </g>
    <g id="line2d_99">
     <path d="
M135.779 842.157
L155.939 842.157" style="fill:none;stroke:#008000;stroke-linecap:square;"/>
    </g>
    <g id="line2d_100"/>
    <g id="text_44">
     <!-- y -->
     <defs>
      <path d="
M32.1719 -5.07812
Q28.375 -14.8438 24.75 -17.8125
Q21.1406 -20.7969 15.0938 -20.7969
L7.90625 -20.7969
L7.90625 -13.2812
L13.1875 -13.2812
Q16.8906 -13.2812 18.9375 -11.5156
Q21 -9.76562 23.4844 -3.21875
L25.0938 0.875
L2.98438 54.6875
L12.5 54.6875
L29.5938 11.9219
L46.6875 54.6875
L56.2031 54.6875
z
" id="BitstreamVeraSans-Roman-79"/>
     </defs>
     <g transform="translate(171.7785 847.197278347)scale(0.144 -0.144)">
      <use xlink:href="#BitstreamVeraSans-Roman-79"/>
     </g>
    </g>
   </g>
  </g>
 </g>
 <defs>
  <clipPath id="pa045f8790e">
   <rect height="120.19328347" width="165.888" x="34.128" y="691.08291653"/>
  </clipPath>
  <clipPath id="p506309635e">
   <rect height="120.19328347" width="165.888" x="34.128" y="7.7841"/>
  </clipPath>
  <clipPath id="p116ddff8bf">
   <rect height="120.19328347" width="165.888" x="34.128" y="281.103626612"/>
  </clipPath>
  <clipPath id="p8e0a8463d4">
   <rect height="120.19328347" width="165.888" x="34.128" y="554.423153224"/>
  </clipPath>
  <clipPath id="p502b081a33">
   <rect height="120.19328347" width="165.888" x="34.128" y="417.763389918"/>
  </clipPath>
  <clipPath id="pe765c7e649">
   <rect height="120.19328347" width="165.888" x="34.128" y="144.443863306"/>
  </clipPath>
 </defs>
</svg>
