<?xml version="1.0" encoding="utf-8" standalone="no"?>
<!DOCTYPE svg PUBLIC "-//W3C//DTD SVG 1.1//EN"
  "http://www.w3.org/Graphics/SVG/1.1/DTD/svg11.dtd">
<!-- Created with matplotlib (http://matplotlib.org/) -->
<svg height="862pt" version="1.1" viewBox="0 0 720 862" width="720pt" xmlns="http://www.w3.org/2000/svg" xmlns:xlink="http://www.w3.org/1999/xlink">
 <defs>
  <style type="text/css">
*{stroke-linecap:butt;stroke-linejoin:round;stroke-miterlimit:100000;}
  </style>
 </defs>
 <g id="figure_1">
  <g id="patch_1">
   <path d="M 0 862.2 
L 720 862.2 
L 720 0 
L 0 0 
z
" style="fill:#ffffff;"/>
  </g>
  <g id="axes_1">
   <g id="patch_2">
    <path d="M 36.085 267.38 
L 343.9575 267.38 
L 343.9575 12.96 
L 36.085 12.96 
z
" style="fill:#ffffff;"/>
   </g>
   <g id="line2d_1">
    <path clip-path="url(#p6addac5357)" d="M 82.265875 83.766226 
L 90.228095 74.578889 
L 98.190315 66.718922 
L 106.152534 60.114156 
L 114.114754 54.661834 
L 122.076974 50.237395 
L 130.039194 46.710034 
L 138.001414 43.944467 
L 145.963634 41.812967 
L 153.925853 40.197633 
L 161.888073 38.993677 
L 169.850293 38.111245 
L 177.812513 37.475195 
L 185.774733 37.024345 
L 193.736953 36.710196 
L 201.699172 36.494952 
L 209.661392 36.349979 
L 217.623612 36.253996 
L 225.585832 36.191581 
L 233.548052 36.151686 
L 241.510272 36.126653 
L 249.472491 36.111223 
L 257.434711 36.101897 
L 265.396931 36.09637 
L 273.359151 36.093144 
L 281.321371 36.091306 
L 289.283591 36.090277 
L 297.24581 36.089712 
L 305.20803 36.089409 
L 313.17025 36.089251 
" style="fill:none;stroke:#0000ff;stroke-linecap:square;stroke-width:2.0;"/>
   </g>
   <g id="line2d_2">
    <path clip-path="url(#p6addac5357)" d="M 82.265875 85.824308 
L 90.228095 76.433878 
L 98.190315 68.341685 
L 106.152534 61.494978 
L 114.114754 55.804933 
L 122.076974 51.159905 
L 130.039194 47.436025 
L 138.001414 44.502233 
L 145.963634 42.231411 
L 153.925853 40.504464 
L 161.888073 39.213749 
L 169.850293 38.265547 
L 177.812513 37.581086 
L 185.774733 37.095652 
L 193.736953 36.757153 
L 201.699172 36.525227 
L 209.661392 36.369151 
L 217.623612 36.265873 
L 225.585832 36.198793 
L 233.548052 36.155994 
L 241.510272 36.129169 
L 249.472491 36.112678 
L 257.434711 36.102713 
L 265.396931 36.096812 
L 273.359151 36.093386 
L 281.321371 36.091433 
L 289.283591 36.090344 
L 297.24581 36.089747 
L 305.20803 36.089427 
L 313.17025 36.08926 
" style="fill:none;stroke:#008000;stroke-linecap:square;stroke-width:2.0;"/>
   </g>
   <g id="patch_3">
    <path d="M 36.085 12.96 
L 343.9575 12.96 
" style="fill:none;stroke:#000000;stroke-linecap:square;stroke-linejoin:miter;"/>
   </g>
   <g id="patch_4">
    <path d="M 343.9575 267.38 
L 343.9575 12.96 
" style="fill:none;stroke:#000000;stroke-linecap:square;stroke-linejoin:miter;"/>
   </g>
   <g id="patch_5">
    <path d="M 36.085 267.38 
L 343.9575 267.38 
" style="fill:none;stroke:#000000;stroke-linecap:square;stroke-linejoin:miter;"/>
   </g>
   <g id="patch_6">
    <path d="M 36.085 267.38 
L 36.085 12.96 
" style="fill:none;stroke:#000000;stroke-linecap:square;stroke-linejoin:miter;"/>
   </g>
   <g id="matplotlib.axis_1">
    <g id="xtick_1">
     <g id="line2d_3">
      <defs>
       <path d="M 0 0 
L 0 -4 
" id="m767bfb7a6a" style="stroke:#000000;stroke-width:0.5;"/>
      </defs>
      <g>
       <use style="stroke:#000000;stroke-width:0.5;" x="36.085" xlink:href="#m767bfb7a6a" y="267.3799999999999"/>
      </g>
     </g>
     <g id="line2d_4">
      <defs>
       <path d="M 0 0 
L 0 4 
" id="mcf1ce91740" style="stroke:#000000;stroke-width:0.5;"/>
      </defs>
      <g>
       <use style="stroke:#000000;stroke-width:0.5;" x="36.085" xlink:href="#mcf1ce91740" y="12.960000000000036"/>
      </g>
     </g>
     <g id="text_1">
      <!-- 0.5 -->
      <defs>
       <path d="M 31.78125 66.40625 
Q 24.171875 66.40625 20.328125 58.90625 
Q 16.5 51.421875 16.5 36.375 
Q 16.5 21.390625 20.328125 13.890625 
Q 24.171875 6.390625 31.78125 6.390625 
Q 39.453125 6.390625 43.28125 13.890625 
Q 47.125 21.390625 47.125 36.375 
Q 47.125 51.421875 43.28125 58.90625 
Q 39.453125 66.40625 31.78125 66.40625 
M 31.78125 74.21875 
Q 44.046875 74.21875 50.515625 64.515625 
Q 56.984375 54.828125 56.984375 36.375 
Q 56.984375 17.96875 50.515625 8.265625 
Q 44.046875 -1.421875 31.78125 -1.421875 
Q 19.53125 -1.421875 13.0625 8.265625 
Q 6.59375 17.96875 6.59375 36.375 
Q 6.59375 54.828125 13.0625 64.515625 
Q 19.53125 74.21875 31.78125 74.21875 
" id="BitstreamVeraSans-Roman-30"/>
       <path d="M 10.6875 12.40625 
L 21 12.40625 
L 21 0 
L 10.6875 0 
z
" id="BitstreamVeraSans-Roman-2e"/>
       <path d="M 10.796875 72.90625 
L 49.515625 72.90625 
L 49.515625 64.59375 
L 19.828125 64.59375 
L 19.828125 46.734375 
Q 21.96875 47.46875 24.109375 47.828125 
Q 26.265625 48.1875 28.421875 48.1875 
Q 40.625 48.1875 47.75 41.5 
Q 54.890625 34.8125 54.890625 23.390625 
Q 54.890625 11.625 47.5625 5.09375 
Q 40.234375 -1.421875 26.90625 -1.421875 
Q 22.3125 -1.421875 17.546875 -0.640625 
Q 12.796875 0.140625 7.71875 1.703125 
L 7.71875 11.625 
Q 12.109375 9.234375 16.796875 8.0625 
Q 21.484375 6.890625 26.703125 6.890625 
Q 35.15625 6.890625 40.078125 11.328125 
Q 45.015625 15.765625 45.015625 23.390625 
Q 45.015625 31 40.078125 35.4375 
Q 35.15625 39.890625 26.703125 39.890625 
Q 22.75 39.890625 18.8125 39.015625 
Q 14.890625 38.140625 10.796875 36.28125 
z
" id="BitstreamVeraSans-Roman-35"/>
      </defs>
      <g transform="translate(26.543125000000003 280.49812499999985)scale(0.12 -0.12)">
       <use xlink:href="#BitstreamVeraSans-Roman-30"/>
       <use x="63.623046875" xlink:href="#BitstreamVeraSans-Roman-2e"/>
       <use x="95.41015625" xlink:href="#BitstreamVeraSans-Roman-35"/>
      </g>
     </g>
    </g>
    <g id="xtick_2">
     <g id="line2d_5">
      <g>
       <use style="stroke:#000000;stroke-width:0.5;" x="113.053125" xlink:href="#m767bfb7a6a" y="267.3799999999999"/>
      </g>
     </g>
     <g id="line2d_6">
      <g>
       <use style="stroke:#000000;stroke-width:0.5;" x="113.053125" xlink:href="#mcf1ce91740" y="12.960000000000036"/>
      </g>
     </g>
     <g id="text_2">
      <!-- 1.0 -->
      <defs>
       <path d="M 12.40625 8.296875 
L 28.515625 8.296875 
L 28.515625 63.921875 
L 10.984375 60.40625 
L 10.984375 69.390625 
L 28.421875 72.90625 
L 38.28125 72.90625 
L 38.28125 8.296875 
L 54.390625 8.296875 
L 54.390625 0 
L 12.40625 0 
z
" id="BitstreamVeraSans-Roman-31"/>
      </defs>
      <g transform="translate(103.51124999999999 280.49812499999985)scale(0.12 -0.12)">
       <use xlink:href="#BitstreamVeraSans-Roman-31"/>
       <use x="63.623046875" xlink:href="#BitstreamVeraSans-Roman-2e"/>
       <use x="95.41015625" xlink:href="#BitstreamVeraSans-Roman-30"/>
      </g>
     </g>
    </g>
    <g id="xtick_3">
     <g id="line2d_7">
      <g>
       <use style="stroke:#000000;stroke-width:0.5;" x="190.02125" xlink:href="#m767bfb7a6a" y="267.3799999999999"/>
      </g>
     </g>
     <g id="line2d_8">
      <g>
       <use style="stroke:#000000;stroke-width:0.5;" x="190.02125" xlink:href="#mcf1ce91740" y="12.960000000000036"/>
      </g>
     </g>
     <g id="text_3">
      <!-- 1.5 -->
      <g transform="translate(180.479375 280.49812499999985)scale(0.12 -0.12)">
       <use xlink:href="#BitstreamVeraSans-Roman-31"/>
       <use x="63.623046875" xlink:href="#BitstreamVeraSans-Roman-2e"/>
       <use x="95.41015625" xlink:href="#BitstreamVeraSans-Roman-35"/>
      </g>
     </g>
    </g>
    <g id="xtick_4">
     <g id="line2d_9">
      <g>
       <use style="stroke:#000000;stroke-width:0.5;" x="266.989375" xlink:href="#m767bfb7a6a" y="267.3799999999999"/>
      </g>
     </g>
     <g id="line2d_10">
      <g>
       <use style="stroke:#000000;stroke-width:0.5;" x="266.989375" xlink:href="#mcf1ce91740" y="12.960000000000036"/>
      </g>
     </g>
     <g id="text_4">
      <!-- 2.0 -->
      <defs>
       <path d="M 19.1875 8.296875 
L 53.609375 8.296875 
L 53.609375 0 
L 7.328125 0 
L 7.328125 8.296875 
Q 12.9375 14.109375 22.625 23.890625 
Q 32.328125 33.6875 34.8125 36.53125 
Q 39.546875 41.84375 41.421875 45.53125 
Q 43.3125 49.21875 43.3125 52.78125 
Q 43.3125 58.59375 39.234375 62.25 
Q 35.15625 65.921875 28.609375 65.921875 
Q 23.96875 65.921875 18.8125 64.3125 
Q 13.671875 62.703125 7.8125 59.421875 
L 7.8125 69.390625 
Q 13.765625 71.78125 18.9375 73 
Q 24.125 74.21875 28.421875 74.21875 
Q 39.75 74.21875 46.484375 68.546875 
Q 53.21875 62.890625 53.21875 53.421875 
Q 53.21875 48.921875 51.53125 44.890625 
Q 49.859375 40.875 45.40625 35.40625 
Q 44.1875 33.984375 37.640625 27.21875 
Q 31.109375 20.453125 19.1875 8.296875 
" id="BitstreamVeraSans-Roman-32"/>
      </defs>
      <g transform="translate(257.4475 280.49812499999985)scale(0.12 -0.12)">
       <use xlink:href="#BitstreamVeraSans-Roman-32"/>
       <use x="63.623046875" xlink:href="#BitstreamVeraSans-Roman-2e"/>
       <use x="95.41015625" xlink:href="#BitstreamVeraSans-Roman-30"/>
      </g>
     </g>
    </g>
    <g id="xtick_5">
     <g id="line2d_11">
      <g>
       <use style="stroke:#000000;stroke-width:0.5;" x="343.9575" xlink:href="#m767bfb7a6a" y="267.3799999999999"/>
      </g>
     </g>
     <g id="line2d_12">
      <g>
       <use style="stroke:#000000;stroke-width:0.5;" x="343.9575" xlink:href="#mcf1ce91740" y="12.960000000000036"/>
      </g>
     </g>
     <g id="text_5">
      <!-- 2.5 -->
      <g transform="translate(334.415625 280.49812499999985)scale(0.12 -0.12)">
       <use xlink:href="#BitstreamVeraSans-Roman-32"/>
       <use x="63.623046875" xlink:href="#BitstreamVeraSans-Roman-2e"/>
       <use x="95.41015625" xlink:href="#BitstreamVeraSans-Roman-35"/>
      </g>
     </g>
    </g>
   </g>
   <g id="matplotlib.axis_2">
    <g id="ytick_1">
     <g id="line2d_13">
      <defs>
       <path d="M 0 0 
L 4 0 
" id="mfed7159bf7" style="stroke:#000000;stroke-width:0.5;"/>
      </defs>
      <g>
       <use style="stroke:#000000;stroke-width:0.5;" x="36.085" xlink:href="#mfed7159bf7" y="267.3799999999999"/>
      </g>
     </g>
     <g id="line2d_14">
      <defs>
       <path d="M 0 0 
L -4 0 
" id="ma1bd2680af" style="stroke:#000000;stroke-width:0.5;"/>
      </defs>
      <g>
       <use style="stroke:#000000;stroke-width:0.5;" x="343.9575" xlink:href="#ma1bd2680af" y="267.3799999999999"/>
      </g>
     </g>
     <g id="text_6">
      <!-- 0.0 -->
      <g transform="translate(13.001250000000002 270.69124999999985)scale(0.12 -0.12)">
       <use xlink:href="#BitstreamVeraSans-Roman-30"/>
       <use x="63.623046875" xlink:href="#BitstreamVeraSans-Roman-2e"/>
       <use x="95.41015625" xlink:href="#BitstreamVeraSans-Roman-30"/>
      </g>
     </g>
    </g>
    <g id="ytick_2">
     <g id="line2d_15">
      <g>
       <use style="stroke:#000000;stroke-width:0.5;" x="36.085" xlink:href="#mfed7159bf7" y="151.7345454545454"/>
      </g>
     </g>
     <g id="line2d_16">
      <g>
       <use style="stroke:#000000;stroke-width:0.5;" x="343.9575" xlink:href="#ma1bd2680af" y="151.7345454545454"/>
      </g>
     </g>
     <g id="text_7">
      <!-- 0.5 -->
      <g transform="translate(13.001250000000002 155.04579545454533)scale(0.12 -0.12)">
       <use xlink:href="#BitstreamVeraSans-Roman-30"/>
       <use x="63.623046875" xlink:href="#BitstreamVeraSans-Roman-2e"/>
       <use x="95.41015625" xlink:href="#BitstreamVeraSans-Roman-35"/>
      </g>
     </g>
    </g>
    <g id="ytick_3">
     <g id="line2d_17">
      <g>
       <use style="stroke:#000000;stroke-width:0.5;" x="36.085" xlink:href="#mfed7159bf7" y="36.08909090909094"/>
      </g>
     </g>
     <g id="line2d_18">
      <g>
       <use style="stroke:#000000;stroke-width:0.5;" x="343.9575" xlink:href="#ma1bd2680af" y="36.08909090909094"/>
      </g>
     </g>
     <g id="text_8">
      <!-- 1.0 -->
      <g transform="translate(13.001250000000002 39.400340909090914)scale(0.12 -0.12)">
       <use xlink:href="#BitstreamVeraSans-Roman-31"/>
       <use x="63.623046875" xlink:href="#BitstreamVeraSans-Roman-2e"/>
       <use x="95.41015625" xlink:href="#BitstreamVeraSans-Roman-30"/>
      </g>
     </g>
    </g>
   </g>
   <g id="text_9">
    <!-- 0.841 meV -->
    <defs>
     <path id="BitstreamVeraSans-Roman-20"/>
     <path d="M 37.796875 64.3125 
L 12.890625 25.390625 
L 37.796875 25.390625 
z
M 35.203125 72.90625 
L 47.609375 72.90625 
L 47.609375 25.390625 
L 58.015625 25.390625 
L 58.015625 17.1875 
L 47.609375 17.1875 
L 47.609375 0 
L 37.796875 0 
L 37.796875 17.1875 
L 4.890625 17.1875 
L 4.890625 26.703125 
z
" id="BitstreamVeraSans-Roman-34"/>
     <path d="M 52 44.1875 
Q 55.375 50.25 60.0625 53.125 
Q 64.75 56 71.09375 56 
Q 79.640625 56 84.28125 50.015625 
Q 88.921875 44.046875 88.921875 33.015625 
L 88.921875 0 
L 79.890625 0 
L 79.890625 32.71875 
Q 79.890625 40.578125 77.09375 44.375 
Q 74.3125 48.1875 68.609375 48.1875 
Q 61.625 48.1875 57.5625 43.546875 
Q 53.515625 38.921875 53.515625 30.90625 
L 53.515625 0 
L 44.484375 0 
L 44.484375 32.71875 
Q 44.484375 40.625 41.703125 44.40625 
Q 38.921875 48.1875 33.109375 48.1875 
Q 26.21875 48.1875 22.15625 43.53125 
Q 18.109375 38.875 18.109375 30.90625 
L 18.109375 0 
L 9.078125 0 
L 9.078125 54.6875 
L 18.109375 54.6875 
L 18.109375 46.1875 
Q 21.1875 51.21875 25.484375 53.609375 
Q 29.78125 56 35.6875 56 
Q 41.65625 56 45.828125 52.96875 
Q 50 49.953125 52 44.1875 
" id="BitstreamVeraSans-Roman-6d"/>
     <path d="M 31.78125 34.625 
Q 24.75 34.625 20.71875 30.859375 
Q 16.703125 27.09375 16.703125 20.515625 
Q 16.703125 13.921875 20.71875 10.15625 
Q 24.75 6.390625 31.78125 6.390625 
Q 38.8125 6.390625 42.859375 10.171875 
Q 46.921875 13.96875 46.921875 20.515625 
Q 46.921875 27.09375 42.890625 30.859375 
Q 38.875 34.625 31.78125 34.625 
M 21.921875 38.8125 
Q 15.578125 40.375 12.03125 44.71875 
Q 8.5 49.078125 8.5 55.328125 
Q 8.5 64.0625 14.71875 69.140625 
Q 20.953125 74.21875 31.78125 74.21875 
Q 42.671875 74.21875 48.875 69.140625 
Q 55.078125 64.0625 55.078125 55.328125 
Q 55.078125 49.078125 51.53125 44.71875 
Q 48 40.375 41.703125 38.8125 
Q 48.828125 37.15625 52.796875 32.3125 
Q 56.78125 27.484375 56.78125 20.515625 
Q 56.78125 9.90625 50.3125 4.234375 
Q 43.84375 -1.421875 31.78125 -1.421875 
Q 19.734375 -1.421875 13.25 4.234375 
Q 6.78125 9.90625 6.78125 20.515625 
Q 6.78125 27.484375 10.78125 32.3125 
Q 14.796875 37.15625 21.921875 38.8125 
M 18.3125 54.390625 
Q 18.3125 48.734375 21.84375 45.5625 
Q 25.390625 42.390625 31.78125 42.390625 
Q 38.140625 42.390625 41.71875 45.5625 
Q 45.3125 48.734375 45.3125 54.390625 
Q 45.3125 60.0625 41.71875 63.234375 
Q 38.140625 66.40625 31.78125 66.40625 
Q 25.390625 66.40625 21.84375 63.234375 
Q 18.3125 60.0625 18.3125 54.390625 
" id="BitstreamVeraSans-Roman-38"/>
     <path d="M 28.609375 0 
L 0.78125 72.90625 
L 11.078125 72.90625 
L 34.1875 11.53125 
L 57.328125 72.90625 
L 67.578125 72.90625 
L 39.796875 0 
z
" id="BitstreamVeraSans-Roman-56"/>
     <path d="M 56.203125 29.59375 
L 56.203125 25.203125 
L 14.890625 25.203125 
Q 15.484375 15.921875 20.484375 11.0625 
Q 25.484375 6.203125 34.421875 6.203125 
Q 39.59375 6.203125 44.453125 7.46875 
Q 49.3125 8.734375 54.109375 11.28125 
L 54.109375 2.78125 
Q 49.265625 0.734375 44.1875 -0.34375 
Q 39.109375 -1.421875 33.890625 -1.421875 
Q 20.796875 -1.421875 13.15625 6.1875 
Q 5.515625 13.8125 5.515625 26.8125 
Q 5.515625 40.234375 12.765625 48.109375 
Q 20.015625 56 32.328125 56 
Q 43.359375 56 49.78125 48.890625 
Q 56.203125 41.796875 56.203125 29.59375 
M 47.21875 32.234375 
Q 47.125 39.59375 43.09375 43.984375 
Q 39.0625 48.390625 32.421875 48.390625 
Q 24.90625 48.390625 20.390625 44.140625 
Q 15.875 39.890625 15.1875 32.171875 
z
" id="BitstreamVeraSans-Roman-65"/>
    </defs>
    <g transform="translate(266.989375 221.12181818181807)scale(0.08 -0.08)">
     <use xlink:href="#BitstreamVeraSans-Roman-30"/>
     <use x="63.623046875" xlink:href="#BitstreamVeraSans-Roman-2e"/>
     <use x="95.41015625" xlink:href="#BitstreamVeraSans-Roman-38"/>
     <use x="159.033203125" xlink:href="#BitstreamVeraSans-Roman-34"/>
     <use x="222.65625" xlink:href="#BitstreamVeraSans-Roman-31"/>
     <use x="286.279296875" xlink:href="#BitstreamVeraSans-Roman-20"/>
     <use x="318.06640625" xlink:href="#BitstreamVeraSans-Roman-6d"/>
     <use x="415.478515625" xlink:href="#BitstreamVeraSans-Roman-65"/>
     <use x="477.001953125" xlink:href="#BitstreamVeraSans-Roman-56"/>
    </g>
   </g>
   <g id="legend_1">
    <g id="line2d_19">
     <path d="M 45.685 23.43875 
L 56.885 23.43875 
" style="fill:none;stroke:#0000ff;stroke-linecap:square;stroke-width:2.0;"/>
    </g>
    <g id="line2d_20"/>
    <g id="text_10">
     <!-- P300 -->
     <defs>
      <path d="M 19.671875 64.796875 
L 19.671875 37.40625 
L 32.078125 37.40625 
Q 38.96875 37.40625 42.71875 40.96875 
Q 46.484375 44.53125 46.484375 51.125 
Q 46.484375 57.671875 42.71875 61.234375 
Q 38.96875 64.796875 32.078125 64.796875 
z
M 9.8125 72.90625 
L 32.078125 72.90625 
Q 44.34375 72.90625 50.609375 67.359375 
Q 56.890625 61.8125 56.890625 51.125 
Q 56.890625 40.328125 50.609375 34.8125 
Q 44.34375 29.296875 32.078125 29.296875 
L 19.671875 29.296875 
L 19.671875 0 
L 9.8125 0 
z
" id="BitstreamVeraSans-Roman-50"/>
      <path d="M 40.578125 39.3125 
Q 47.65625 37.796875 51.625 33 
Q 55.609375 28.21875 55.609375 21.1875 
Q 55.609375 10.40625 48.1875 4.484375 
Q 40.765625 -1.421875 27.09375 -1.421875 
Q 22.515625 -1.421875 17.65625 -0.515625 
Q 12.796875 0.390625 7.625 2.203125 
L 7.625 11.71875 
Q 11.71875 9.328125 16.59375 8.109375 
Q 21.484375 6.890625 26.8125 6.890625 
Q 36.078125 6.890625 40.9375 10.546875 
Q 45.796875 14.203125 45.796875 21.1875 
Q 45.796875 27.640625 41.28125 31.265625 
Q 36.765625 34.90625 28.71875 34.90625 
L 20.21875 34.90625 
L 20.21875 43.015625 
L 29.109375 43.015625 
Q 36.375 43.015625 40.234375 45.921875 
Q 44.09375 48.828125 44.09375 54.296875 
Q 44.09375 59.90625 40.109375 62.90625 
Q 36.140625 65.921875 28.71875 65.921875 
Q 24.65625 65.921875 20.015625 65.03125 
Q 15.375 64.15625 9.8125 62.3125 
L 9.8125 71.09375 
Q 15.4375 72.65625 20.34375 73.4375 
Q 25.25 74.21875 29.59375 74.21875 
Q 40.828125 74.21875 47.359375 69.109375 
Q 53.90625 64.015625 53.90625 55.328125 
Q 53.90625 49.265625 50.4375 45.09375 
Q 46.96875 40.921875 40.578125 39.3125 
" id="BitstreamVeraSans-Roman-33"/>
     </defs>
     <g transform="translate(65.685 26.238749999999982)scale(0.08 -0.08)">
      <use xlink:href="#BitstreamVeraSans-Roman-50"/>
      <use x="60.302734375" xlink:href="#BitstreamVeraSans-Roman-33"/>
      <use x="123.92578125" xlink:href="#BitstreamVeraSans-Roman-30"/>
      <use x="187.548828125" xlink:href="#BitstreamVeraSans-Roman-30"/>
     </g>
    </g>
    <g id="line2d_21">
     <path d="M 45.685 35.18125 
L 56.885 35.18125 
" style="fill:none;stroke:#008000;stroke-linecap:square;stroke-width:2.0;"/>
    </g>
    <g id="line2d_22"/>
    <g id="text_11">
     <!-- N300 -->
     <defs>
      <path d="M 9.8125 72.90625 
L 23.09375 72.90625 
L 55.421875 11.921875 
L 55.421875 72.90625 
L 64.984375 72.90625 
L 64.984375 0 
L 51.703125 0 
L 19.390625 60.984375 
L 19.390625 0 
L 9.8125 0 
z
" id="BitstreamVeraSans-Roman-4e"/>
     </defs>
     <g transform="translate(65.685 37.98124999999993)scale(0.08 -0.08)">
      <use xlink:href="#BitstreamVeraSans-Roman-4e"/>
      <use x="74.8046875" xlink:href="#BitstreamVeraSans-Roman-33"/>
      <use x="138.427734375" xlink:href="#BitstreamVeraSans-Roman-30"/>
      <use x="202.05078125" xlink:href="#BitstreamVeraSans-Roman-30"/>
     </g>
    </g>
   </g>
  </g>
  <g id="axes_2">
   <g id="patch_7">
    <path d="M 389.605 267.38 
L 697.4775 267.38 
L 697.4775 12.96 
L 389.605 12.96 
z
" style="fill:#ffffff;"/>
   </g>
   <g id="line2d_23">
    <path clip-path="url(#p95e3250b16)" d="M 435.785875 84.153097 
L 443.748095 74.971486 
L 451.710315 67.098905 
L 459.672534 60.46705 
L 467.634754 54.976834 
L 475.596974 50.509244 
L 483.559194 46.936708 
L 491.521414 44.12806 
L 499.483634 41.957479 
L 507.445853 40.308386 
L 515.408073 39.076471 
L 523.370293 38.171688 
L 531.332513 37.518326 
L 539.294733 37.054575 
L 547.256953 36.730908 
L 555.219172 36.50885 
L 563.181392 36.35915 
L 571.143612 36.259961 
L 579.105832 36.195381 
L 587.068052 36.154077 
L 595.030272 36.128133 
L 602.992491 36.112125 
L 610.954711 36.102437 
L 618.916931 36.096681 
L 626.879151 36.093325 
L 634.841371 36.091409 
L 642.803591 36.090336 
L 650.76581 36.089744 
L 658.72803 36.089428 
L 666.69025 36.08926 
" style="fill:none;stroke:#0000ff;stroke-linecap:square;stroke-width:2.0;"/>
   </g>
   <g id="line2d_24">
    <path clip-path="url(#p95e3250b16)" d="M 435.785875 87.590385 
L 443.748095 78.273695 
L 451.710315 70.19265 
L 459.672534 63.297474 
L 467.634754 57.508764 
L 475.596974 52.725517 
L 483.559194 48.836561 
L 491.521414 45.724069 
L 499.483634 43.272421 
L 507.445853 41.37141 
L 515.408073 39.9201 
L 523.370293 38.829122 
L 531.332513 38.021804 
L 539.294733 37.43358 
L 547.256953 37.011477 
L 555.219172 36.713139 
L 563.181392 36.505515 
L 571.143612 36.363139 
L 579.105832 36.266978 
L 587.068052 36.202996 
L 595.030272 36.161048 
L 602.992491 36.133962 
L 610.954711 36.116687 
L 618.916931 36.10585 
L 626.879151 36.099142 
L 634.841371 36.09504 
L 642.803591 36.09257 
L 650.76581 36.091103 
L 658.72803 36.09024 
L 666.69025 36.08974 
" style="fill:none;stroke:#008000;stroke-linecap:square;stroke-width:2.0;"/>
   </g>
   <g id="patch_8">
    <path d="M 389.605 12.96 
L 697.4775 12.96 
" style="fill:none;stroke:#000000;stroke-linecap:square;stroke-linejoin:miter;"/>
   </g>
   <g id="patch_9">
    <path d="M 697.4775 267.38 
L 697.4775 12.96 
" style="fill:none;stroke:#000000;stroke-linecap:square;stroke-linejoin:miter;"/>
   </g>
   <g id="patch_10">
    <path d="M 389.605 267.38 
L 697.4775 267.38 
" style="fill:none;stroke:#000000;stroke-linecap:square;stroke-linejoin:miter;"/>
   </g>
   <g id="patch_11">
    <path d="M 389.605 267.38 
L 389.605 12.96 
" style="fill:none;stroke:#000000;stroke-linecap:square;stroke-linejoin:miter;"/>
   </g>
   <g id="matplotlib.axis_3">
    <g id="xtick_6">
     <g id="line2d_25">
      <g>
       <use style="stroke:#000000;stroke-width:0.5;" x="389.605" xlink:href="#m767bfb7a6a" y="267.3799999999999"/>
      </g>
     </g>
     <g id="line2d_26">
      <g>
       <use style="stroke:#000000;stroke-width:0.5;" x="389.605" xlink:href="#mcf1ce91740" y="12.960000000000036"/>
      </g>
     </g>
     <g id="text_12">
      <!-- 0.5 -->
      <g transform="translate(380.063125 280.49812499999985)scale(0.12 -0.12)">
       <use xlink:href="#BitstreamVeraSans-Roman-30"/>
       <use x="63.623046875" xlink:href="#BitstreamVeraSans-Roman-2e"/>
       <use x="95.41015625" xlink:href="#BitstreamVeraSans-Roman-35"/>
      </g>
     </g>
    </g>
    <g id="xtick_7">
     <g id="line2d_27">
      <g>
       <use style="stroke:#000000;stroke-width:0.5;" x="466.57312500000006" xlink:href="#m767bfb7a6a" y="267.3799999999999"/>
      </g>
     </g>
     <g id="line2d_28">
      <g>
       <use style="stroke:#000000;stroke-width:0.5;" x="466.57312500000006" xlink:href="#mcf1ce91740" y="12.960000000000036"/>
      </g>
     </g>
     <g id="text_13">
      <!-- 1.0 -->
      <g transform="translate(457.03125000000006 280.49812499999985)scale(0.12 -0.12)">
       <use xlink:href="#BitstreamVeraSans-Roman-31"/>
       <use x="63.623046875" xlink:href="#BitstreamVeraSans-Roman-2e"/>
       <use x="95.41015625" xlink:href="#BitstreamVeraSans-Roman-30"/>
      </g>
     </g>
    </g>
    <g id="xtick_8">
     <g id="line2d_29">
      <g>
       <use style="stroke:#000000;stroke-width:0.5;" x="543.5412500000001" xlink:href="#m767bfb7a6a" y="267.3799999999999"/>
      </g>
     </g>
     <g id="line2d_30">
      <g>
       <use style="stroke:#000000;stroke-width:0.5;" x="543.5412500000001" xlink:href="#mcf1ce91740" y="12.960000000000036"/>
      </g>
     </g>
     <g id="text_14">
      <!-- 1.5 -->
      <g transform="translate(533.9993750000001 280.49812499999985)scale(0.12 -0.12)">
       <use xlink:href="#BitstreamVeraSans-Roman-31"/>
       <use x="63.623046875" xlink:href="#BitstreamVeraSans-Roman-2e"/>
       <use x="95.41015625" xlink:href="#BitstreamVeraSans-Roman-35"/>
      </g>
     </g>
    </g>
    <g id="xtick_9">
     <g id="line2d_31">
      <g>
       <use style="stroke:#000000;stroke-width:0.5;" x="620.5093750000001" xlink:href="#m767bfb7a6a" y="267.3799999999999"/>
      </g>
     </g>
     <g id="line2d_32">
      <g>
       <use style="stroke:#000000;stroke-width:0.5;" x="620.5093750000001" xlink:href="#mcf1ce91740" y="12.960000000000036"/>
      </g>
     </g>
     <g id="text_15">
      <!-- 2.0 -->
      <g transform="translate(610.9675000000001 280.49812499999985)scale(0.12 -0.12)">
       <use xlink:href="#BitstreamVeraSans-Roman-32"/>
       <use x="63.623046875" xlink:href="#BitstreamVeraSans-Roman-2e"/>
       <use x="95.41015625" xlink:href="#BitstreamVeraSans-Roman-30"/>
      </g>
     </g>
    </g>
    <g id="xtick_10">
     <g id="line2d_33">
      <g>
       <use style="stroke:#000000;stroke-width:0.5;" x="697.4775000000001" xlink:href="#m767bfb7a6a" y="267.3799999999999"/>
      </g>
     </g>
     <g id="line2d_34">
      <g>
       <use style="stroke:#000000;stroke-width:0.5;" x="697.4775000000001" xlink:href="#mcf1ce91740" y="12.960000000000036"/>
      </g>
     </g>
     <g id="text_16">
      <!-- 2.5 -->
      <g transform="translate(687.9356250000001 280.49812499999985)scale(0.12 -0.12)">
       <use xlink:href="#BitstreamVeraSans-Roman-32"/>
       <use x="63.623046875" xlink:href="#BitstreamVeraSans-Roman-2e"/>
       <use x="95.41015625" xlink:href="#BitstreamVeraSans-Roman-35"/>
      </g>
     </g>
    </g>
   </g>
   <g id="matplotlib.axis_4">
    <g id="ytick_4">
     <g id="line2d_35">
      <g>
       <use style="stroke:#000000;stroke-width:0.5;" x="389.605" xlink:href="#mfed7159bf7" y="267.3799999999999"/>
      </g>
     </g>
     <g id="line2d_36">
      <g>
       <use style="stroke:#000000;stroke-width:0.5;" x="697.4775000000001" xlink:href="#ma1bd2680af" y="267.3799999999999"/>
      </g>
     </g>
     <g id="text_17">
      <!-- 0.0 -->
      <g transform="translate(366.52125 270.69124999999985)scale(0.12 -0.12)">
       <use xlink:href="#BitstreamVeraSans-Roman-30"/>
       <use x="63.623046875" xlink:href="#BitstreamVeraSans-Roman-2e"/>
       <use x="95.41015625" xlink:href="#BitstreamVeraSans-Roman-30"/>
      </g>
     </g>
    </g>
    <g id="ytick_5">
     <g id="line2d_37">
      <g>
       <use style="stroke:#000000;stroke-width:0.5;" x="389.605" xlink:href="#mfed7159bf7" y="151.7345454545454"/>
      </g>
     </g>
     <g id="line2d_38">
      <g>
       <use style="stroke:#000000;stroke-width:0.5;" x="697.4775000000001" xlink:href="#ma1bd2680af" y="151.7345454545454"/>
      </g>
     </g>
     <g id="text_18">
      <!-- 0.5 -->
      <g transform="translate(366.52125 155.04579545454533)scale(0.12 -0.12)">
       <use xlink:href="#BitstreamVeraSans-Roman-30"/>
       <use x="63.623046875" xlink:href="#BitstreamVeraSans-Roman-2e"/>
       <use x="95.41015625" xlink:href="#BitstreamVeraSans-Roman-35"/>
      </g>
     </g>
    </g>
    <g id="ytick_6">
     <g id="line2d_39">
      <g>
       <use style="stroke:#000000;stroke-width:0.5;" x="389.605" xlink:href="#mfed7159bf7" y="36.08909090909094"/>
      </g>
     </g>
     <g id="line2d_40">
      <g>
       <use style="stroke:#000000;stroke-width:0.5;" x="697.4775000000001" xlink:href="#ma1bd2680af" y="36.08909090909094"/>
      </g>
     </g>
     <g id="text_19">
      <!-- 1.0 -->
      <g transform="translate(366.52125 39.400340909090914)scale(0.12 -0.12)">
       <use xlink:href="#BitstreamVeraSans-Roman-31"/>
       <use x="63.623046875" xlink:href="#BitstreamVeraSans-Roman-2e"/>
       <use x="95.41015625" xlink:href="#BitstreamVeraSans-Roman-30"/>
      </g>
     </g>
    </g>
   </g>
   <g id="text_20">
    <!-- 0.961 meV -->
    <defs>
     <path d="M 10.984375 1.515625 
L 10.984375 10.5 
Q 14.703125 8.734375 18.5 7.8125 
Q 22.3125 6.890625 25.984375 6.890625 
Q 35.75 6.890625 40.890625 13.453125 
Q 46.046875 20.015625 46.78125 33.40625 
Q 43.953125 29.203125 39.59375 26.953125 
Q 35.25 24.703125 29.984375 24.703125 
Q 19.046875 24.703125 12.671875 31.3125 
Q 6.296875 37.9375 6.296875 49.421875 
Q 6.296875 60.640625 12.9375 67.421875 
Q 19.578125 74.21875 30.609375 74.21875 
Q 43.265625 74.21875 49.921875 64.515625 
Q 56.59375 54.828125 56.59375 36.375 
Q 56.59375 19.140625 48.40625 8.859375 
Q 40.234375 -1.421875 26.421875 -1.421875 
Q 22.703125 -1.421875 18.890625 -0.6875 
Q 15.09375 0.046875 10.984375 1.515625 
M 30.609375 32.421875 
Q 37.25 32.421875 41.125 36.953125 
Q 45.015625 41.5 45.015625 49.421875 
Q 45.015625 57.28125 41.125 61.84375 
Q 37.25 66.40625 30.609375 66.40625 
Q 23.96875 66.40625 20.09375 61.84375 
Q 16.21875 57.28125 16.21875 49.421875 
Q 16.21875 41.5 20.09375 36.953125 
Q 23.96875 32.421875 30.609375 32.421875 
" id="BitstreamVeraSans-Roman-39"/>
     <path d="M 33.015625 40.375 
Q 26.375 40.375 22.484375 35.828125 
Q 18.609375 31.296875 18.609375 23.390625 
Q 18.609375 15.53125 22.484375 10.953125 
Q 26.375 6.390625 33.015625 6.390625 
Q 39.65625 6.390625 43.53125 10.953125 
Q 47.40625 15.53125 47.40625 23.390625 
Q 47.40625 31.296875 43.53125 35.828125 
Q 39.65625 40.375 33.015625 40.375 
M 52.59375 71.296875 
L 52.59375 62.3125 
Q 48.875 64.0625 45.09375 64.984375 
Q 41.3125 65.921875 37.59375 65.921875 
Q 27.828125 65.921875 22.671875 59.328125 
Q 17.53125 52.734375 16.796875 39.40625 
Q 19.671875 43.65625 24.015625 45.921875 
Q 28.375 48.1875 33.59375 48.1875 
Q 44.578125 48.1875 50.953125 41.515625 
Q 57.328125 34.859375 57.328125 23.390625 
Q 57.328125 12.15625 50.6875 5.359375 
Q 44.046875 -1.421875 33.015625 -1.421875 
Q 20.359375 -1.421875 13.671875 8.265625 
Q 6.984375 17.96875 6.984375 36.375 
Q 6.984375 53.65625 15.1875 63.9375 
Q 23.390625 74.21875 37.203125 74.21875 
Q 40.921875 74.21875 44.703125 73.484375 
Q 48.484375 72.75 52.59375 71.296875 
" id="BitstreamVeraSans-Roman-36"/>
    </defs>
    <g transform="translate(620.5093750000001 221.12181818181807)scale(0.08 -0.08)">
     <use xlink:href="#BitstreamVeraSans-Roman-30"/>
     <use x="63.623046875" xlink:href="#BitstreamVeraSans-Roman-2e"/>
     <use x="95.41015625" xlink:href="#BitstreamVeraSans-Roman-39"/>
     <use x="159.033203125" xlink:href="#BitstreamVeraSans-Roman-36"/>
     <use x="222.65625" xlink:href="#BitstreamVeraSans-Roman-31"/>
     <use x="286.279296875" xlink:href="#BitstreamVeraSans-Roman-20"/>
     <use x="318.06640625" xlink:href="#BitstreamVeraSans-Roman-6d"/>
     <use x="415.478515625" xlink:href="#BitstreamVeraSans-Roman-65"/>
     <use x="477.001953125" xlink:href="#BitstreamVeraSans-Roman-56"/>
    </g>
   </g>
   <g id="legend_2">
    <g id="line2d_41">
     <path d="M 399.205 23.43875 
L 410.405 23.43875 
" style="fill:none;stroke:#0000ff;stroke-linecap:square;stroke-width:2.0;"/>
    </g>
    <g id="line2d_42"/>
    <g id="text_21">
     <!-- P300 -->
     <g transform="translate(419.205 26.238749999999982)scale(0.08 -0.08)">
      <use xlink:href="#BitstreamVeraSans-Roman-50"/>
      <use x="60.302734375" xlink:href="#BitstreamVeraSans-Roman-33"/>
      <use x="123.92578125" xlink:href="#BitstreamVeraSans-Roman-30"/>
      <use x="187.548828125" xlink:href="#BitstreamVeraSans-Roman-30"/>
     </g>
    </g>
    <g id="line2d_43">
     <path d="M 399.205 35.18125 
L 410.405 35.18125 
" style="fill:none;stroke:#008000;stroke-linecap:square;stroke-width:2.0;"/>
    </g>
    <g id="line2d_44"/>
    <g id="text_22">
     <!-- N300 -->
     <g transform="translate(419.205 37.98124999999993)scale(0.08 -0.08)">
      <use xlink:href="#BitstreamVeraSans-Roman-4e"/>
      <use x="74.8046875" xlink:href="#BitstreamVeraSans-Roman-33"/>
      <use x="138.427734375" xlink:href="#BitstreamVeraSans-Roman-30"/>
      <use x="202.05078125" xlink:href="#BitstreamVeraSans-Roman-30"/>
     </g>
    </g>
   </g>
  </g>
  <g id="axes_3">
   <g id="patch_12">
    <path d="M 36.085 550.46 
L 343.9575 550.46 
L 343.9575 296.04 
L 36.085 296.04 
z
" style="fill:#ffffff;"/>
   </g>
   <g id="line2d_45">
    <path clip-path="url(#p2ac464591b)" d="M 82.265875 367.751873 
L 90.228095 358.618689 
L 98.190315 350.769368 
L 106.152534 344.136822 
L 114.114754 338.625246 
L 122.076974 334.119138 
L 130.039194 330.496236 
L 138.001414 327.630291 
L 145.963634 325.399927 
L 153.925853 323.692281 
L 161.888073 322.406014 
L 169.850293 321.452368 
L 177.812513 320.7568 
L 185.774733 320.25732 
L 193.736953 319.90453 
L 201.699172 319.659084 
L 209.661392 319.491069 
L 217.623612 319.377782 
L 225.585832 319.302572 
L 233.548052 319.253354 
L 241.510272 319.221634 
L 249.472491 319.201457 
L 257.434711 319.188809 
L 265.396931 319.180987 
L 273.359151 319.1762 
L 281.321371 319.173305 
L 289.283591 319.171571 
L 297.24581 319.170542 
L 305.20803 319.169935 
L 313.17025 319.169581 
" style="fill:none;stroke:#0000ff;stroke-linecap:square;stroke-width:2.0;"/>
   </g>
   <g id="line2d_46">
    <path clip-path="url(#p2ac464591b)" d="M 82.265875 373.256916 
L 90.228095 364.222065 
L 98.190315 356.352723 
L 106.152534 349.589208 
L 114.114754 343.848579 
L 122.076974 339.033272 
L 130.039194 335.039086 
L 138.001414 331.760011 
L 145.963634 329.093781 
L 153.925853 326.944857 
L 161.888073 325.22684 
L 169.850293 323.863127 
L 177.812513 322.787675 
L 185.774733 321.944838 
L 193.736953 321.287741 
L 201.699172 320.777994 
L 209.661392 320.384615 
L 217.623612 320.082369 
L 225.585832 319.851337 
L 233.548052 319.675611 
L 241.510272 319.542688 
L 249.472491 319.442751 
L 257.434711 319.368055 
L 265.396931 319.312629 
L 273.359151 319.271798 
L 281.321371 319.241961 
L 289.283591 319.22034 
L 297.24581 319.204806 
L 305.20803 319.193751 
L 313.17025 319.185956 
" style="fill:none;stroke:#008000;stroke-linecap:square;stroke-width:2.0;"/>
   </g>
   <g id="patch_13">
    <path d="M 36.085 296.04 
L 343.9575 296.04 
" style="fill:none;stroke:#000000;stroke-linecap:square;stroke-linejoin:miter;"/>
   </g>
   <g id="patch_14">
    <path d="M 343.9575 550.46 
L 343.9575 296.04 
" style="fill:none;stroke:#000000;stroke-linecap:square;stroke-linejoin:miter;"/>
   </g>
   <g id="patch_15">
    <path d="M 36.085 550.46 
L 343.9575 550.46 
" style="fill:none;stroke:#000000;stroke-linecap:square;stroke-linejoin:miter;"/>
   </g>
   <g id="patch_16">
    <path d="M 36.085 550.46 
L 36.085 296.04 
" style="fill:none;stroke:#000000;stroke-linecap:square;stroke-linejoin:miter;"/>
   </g>
   <g id="matplotlib.axis_5">
    <g id="xtick_11">
     <g id="line2d_47">
      <g>
       <use style="stroke:#000000;stroke-width:0.5;" x="36.085" xlink:href="#m767bfb7a6a" y="550.4599999999998"/>
      </g>
     </g>
     <g id="line2d_48">
      <g>
       <use style="stroke:#000000;stroke-width:0.5;" x="36.085" xlink:href="#mcf1ce91740" y="296.04"/>
      </g>
     </g>
     <g id="text_23">
      <!-- 0.5 -->
      <g transform="translate(26.543125000000003 563.5781249999999)scale(0.12 -0.12)">
       <use xlink:href="#BitstreamVeraSans-Roman-30"/>
       <use x="63.623046875" xlink:href="#BitstreamVeraSans-Roman-2e"/>
       <use x="95.41015625" xlink:href="#BitstreamVeraSans-Roman-35"/>
      </g>
     </g>
    </g>
    <g id="xtick_12">
     <g id="line2d_49">
      <g>
       <use style="stroke:#000000;stroke-width:0.5;" x="113.053125" xlink:href="#m767bfb7a6a" y="550.4599999999998"/>
      </g>
     </g>
     <g id="line2d_50">
      <g>
       <use style="stroke:#000000;stroke-width:0.5;" x="113.053125" xlink:href="#mcf1ce91740" y="296.04"/>
      </g>
     </g>
     <g id="text_24">
      <!-- 1.0 -->
      <g transform="translate(103.51124999999999 563.5781249999999)scale(0.12 -0.12)">
       <use xlink:href="#BitstreamVeraSans-Roman-31"/>
       <use x="63.623046875" xlink:href="#BitstreamVeraSans-Roman-2e"/>
       <use x="95.41015625" xlink:href="#BitstreamVeraSans-Roman-30"/>
      </g>
     </g>
    </g>
    <g id="xtick_13">
     <g id="line2d_51">
      <g>
       <use style="stroke:#000000;stroke-width:0.5;" x="190.02125" xlink:href="#m767bfb7a6a" y="550.4599999999998"/>
      </g>
     </g>
     <g id="line2d_52">
      <g>
       <use style="stroke:#000000;stroke-width:0.5;" x="190.02125" xlink:href="#mcf1ce91740" y="296.04"/>
      </g>
     </g>
     <g id="text_25">
      <!-- 1.5 -->
      <g transform="translate(180.479375 563.5781249999999)scale(0.12 -0.12)">
       <use xlink:href="#BitstreamVeraSans-Roman-31"/>
       <use x="63.623046875" xlink:href="#BitstreamVeraSans-Roman-2e"/>
       <use x="95.41015625" xlink:href="#BitstreamVeraSans-Roman-35"/>
      </g>
     </g>
    </g>
    <g id="xtick_14">
     <g id="line2d_53">
      <g>
       <use style="stroke:#000000;stroke-width:0.5;" x="266.989375" xlink:href="#m767bfb7a6a" y="550.4599999999998"/>
      </g>
     </g>
     <g id="line2d_54">
      <g>
       <use style="stroke:#000000;stroke-width:0.5;" x="266.989375" xlink:href="#mcf1ce91740" y="296.04"/>
      </g>
     </g>
     <g id="text_26">
      <!-- 2.0 -->
      <g transform="translate(257.4475 563.5781249999999)scale(0.12 -0.12)">
       <use xlink:href="#BitstreamVeraSans-Roman-32"/>
       <use x="63.623046875" xlink:href="#BitstreamVeraSans-Roman-2e"/>
       <use x="95.41015625" xlink:href="#BitstreamVeraSans-Roman-30"/>
      </g>
     </g>
    </g>
    <g id="xtick_15">
     <g id="line2d_55">
      <g>
       <use style="stroke:#000000;stroke-width:0.5;" x="343.9575" xlink:href="#m767bfb7a6a" y="550.4599999999998"/>
      </g>
     </g>
     <g id="line2d_56">
      <g>
       <use style="stroke:#000000;stroke-width:0.5;" x="343.9575" xlink:href="#mcf1ce91740" y="296.04"/>
      </g>
     </g>
     <g id="text_27">
      <!-- 2.5 -->
      <g transform="translate(334.415625 563.5781249999999)scale(0.12 -0.12)">
       <use xlink:href="#BitstreamVeraSans-Roman-32"/>
       <use x="63.623046875" xlink:href="#BitstreamVeraSans-Roman-2e"/>
       <use x="95.41015625" xlink:href="#BitstreamVeraSans-Roman-35"/>
      </g>
     </g>
    </g>
   </g>
   <g id="matplotlib.axis_6">
    <g id="ytick_7">
     <g id="line2d_57">
      <g>
       <use style="stroke:#000000;stroke-width:0.5;" x="36.085" xlink:href="#mfed7159bf7" y="550.4599999999998"/>
      </g>
     </g>
     <g id="line2d_58">
      <g>
       <use style="stroke:#000000;stroke-width:0.5;" x="343.9575" xlink:href="#ma1bd2680af" y="550.4599999999998"/>
      </g>
     </g>
     <g id="text_28">
      <!-- 0.0 -->
      <g transform="translate(13.001250000000002 553.7712499999998)scale(0.12 -0.12)">
       <use xlink:href="#BitstreamVeraSans-Roman-30"/>
       <use x="63.623046875" xlink:href="#BitstreamVeraSans-Roman-2e"/>
       <use x="95.41015625" xlink:href="#BitstreamVeraSans-Roman-30"/>
      </g>
     </g>
    </g>
    <g id="ytick_8">
     <g id="line2d_59">
      <g>
       <use style="stroke:#000000;stroke-width:0.5;" x="36.085" xlink:href="#mfed7159bf7" y="434.8145454545454"/>
      </g>
     </g>
     <g id="line2d_60">
      <g>
       <use style="stroke:#000000;stroke-width:0.5;" x="343.9575" xlink:href="#ma1bd2680af" y="434.8145454545454"/>
      </g>
     </g>
     <g id="text_29">
      <!-- 0.5 -->
      <g transform="translate(13.001250000000002 438.12579545454537)scale(0.12 -0.12)">
       <use xlink:href="#BitstreamVeraSans-Roman-30"/>
       <use x="63.623046875" xlink:href="#BitstreamVeraSans-Roman-2e"/>
       <use x="95.41015625" xlink:href="#BitstreamVeraSans-Roman-35"/>
      </g>
     </g>
    </g>
    <g id="ytick_9">
     <g id="line2d_61">
      <g>
       <use style="stroke:#000000;stroke-width:0.5;" x="36.085" xlink:href="#mfed7159bf7" y="319.1690909090909"/>
      </g>
     </g>
     <g id="line2d_62">
      <g>
       <use style="stroke:#000000;stroke-width:0.5;" x="343.9575" xlink:href="#ma1bd2680af" y="319.1690909090909"/>
      </g>
     </g>
     <g id="text_30">
      <!-- 1.0 -->
      <g transform="translate(13.001250000000002 322.48034090909096)scale(0.12 -0.12)">
       <use xlink:href="#BitstreamVeraSans-Roman-31"/>
       <use x="63.623046875" xlink:href="#BitstreamVeraSans-Roman-2e"/>
       <use x="95.41015625" xlink:href="#BitstreamVeraSans-Roman-30"/>
      </g>
     </g>
    </g>
   </g>
   <g id="text_31">
    <!-- 1.121 meV -->
    <g transform="translate(266.989375 504.2018181818181)scale(0.08 -0.08)">
     <use xlink:href="#BitstreamVeraSans-Roman-31"/>
     <use x="63.623046875" xlink:href="#BitstreamVeraSans-Roman-2e"/>
     <use x="95.41015625" xlink:href="#BitstreamVeraSans-Roman-31"/>
     <use x="159.033203125" xlink:href="#BitstreamVeraSans-Roman-32"/>
     <use x="222.65625" xlink:href="#BitstreamVeraSans-Roman-31"/>
     <use x="286.279296875" xlink:href="#BitstreamVeraSans-Roman-20"/>
     <use x="318.06640625" xlink:href="#BitstreamVeraSans-Roman-6d"/>
     <use x="415.478515625" xlink:href="#BitstreamVeraSans-Roman-65"/>
     <use x="477.001953125" xlink:href="#BitstreamVeraSans-Roman-56"/>
    </g>
   </g>
   <g id="legend_3">
    <g id="line2d_63">
     <path d="M 45.685 306.51875 
L 56.885 306.51875 
" style="fill:none;stroke:#0000ff;stroke-linecap:square;stroke-width:2.0;"/>
    </g>
    <g id="line2d_64"/>
    <g id="text_32">
     <!-- P300 -->
     <g transform="translate(65.685 309.31875)scale(0.08 -0.08)">
      <use xlink:href="#BitstreamVeraSans-Roman-50"/>
      <use x="60.302734375" xlink:href="#BitstreamVeraSans-Roman-33"/>
      <use x="123.92578125" xlink:href="#BitstreamVeraSans-Roman-30"/>
      <use x="187.548828125" xlink:href="#BitstreamVeraSans-Roman-30"/>
     </g>
    </g>
    <g id="line2d_65">
     <path d="M 45.685 318.26125 
L 56.885 318.26125 
" style="fill:none;stroke:#008000;stroke-linecap:square;stroke-width:2.0;"/>
    </g>
    <g id="line2d_66"/>
    <g id="text_33">
     <!-- N300 -->
     <g transform="translate(65.685 321.06125)scale(0.08 -0.08)">
      <use xlink:href="#BitstreamVeraSans-Roman-4e"/>
      <use x="74.8046875" xlink:href="#BitstreamVeraSans-Roman-33"/>
      <use x="138.427734375" xlink:href="#BitstreamVeraSans-Roman-30"/>
      <use x="202.05078125" xlink:href="#BitstreamVeraSans-Roman-30"/>
     </g>
    </g>
   </g>
  </g>
  <g id="axes_4">
   <g id="patch_17">
    <path d="M 389.605 550.46 
L 697.4775 550.46 
L 697.4775 296.04 
L 389.605 296.04 
z
" style="fill:#ffffff;"/>
   </g>
   <g id="line2d_67">
    <path clip-path="url(#p65eeb99a71)" d="M 435.785875 368.355867 
L 443.748095 359.336459 
L 451.710315 351.576485 
L 459.672534 345.00433 
L 467.634754 339.523248 
L 475.596974 335.019876 
L 483.559194 331.373407 
L 491.521414 328.462963 
L 499.483634 326.172559 
L 507.445853 324.394114 
L 515.408073 323.031467 
L 523.370293 321.999873 
L 531.332513 321.228422 
L 539.294733 320.657504 
L 547.256953 320.239303 
L 555.219172 319.935496 
L 563.181392 319.716487 
L 571.143612 319.55946 
L 579.105832 319.447373 
L 587.068052 319.367579 
L 595.030272 319.310783 
L 602.992491 319.270384 
L 610.954711 319.241592 
L 618.916931 319.221027 
L 626.879151 319.206305 
L 634.841371 319.195742 
L 642.803591 319.188149 
L 650.76581 319.182688 
L 658.72803 319.178761 
L 666.69025 319.175941 
" style="fill:none;stroke:#0000ff;stroke-linecap:square;stroke-width:2.0;"/>
   </g>
   <g id="line2d_68">
    <path clip-path="url(#p65eeb99a71)" d="M 435.785875 376.759131 
L 443.748095 368.35816 
L 451.710315 361.079335 
L 459.672534 354.836415 
L 467.634754 349.528123 
L 475.596974 345.041524 
L 483.559194 341.263492 
L 491.521414 338.086208 
L 499.483634 335.409878 
L 507.445853 333.146921 
L 515.408073 331.222409 
L 523.370293 329.574177 
L 531.332513 328.151943 
L 539.294733 326.916317 
L 547.256953 325.836602 
L 555.219172 324.889356 
L 563.181392 324.05681 
L 571.143612 323.325113 
L 579.105832 322.683376 
L 587.068052 322.122632 
L 595.030272 321.635193 
L 602.992491 321.214068 
L 610.954711 320.852836 
L 618.916931 320.545323 
L 626.879151 320.285649 
L 634.841371 320.068206 
L 642.803591 319.887663 
L 650.76581 319.739048 
L 658.72803 319.617765 
L 666.69025 319.519631 
" style="fill:none;stroke:#008000;stroke-linecap:square;stroke-width:2.0;"/>
   </g>
   <g id="patch_18">
    <path d="M 389.605 296.04 
L 697.4775 296.04 
" style="fill:none;stroke:#000000;stroke-linecap:square;stroke-linejoin:miter;"/>
   </g>
   <g id="patch_19">
    <path d="M 697.4775 550.46 
L 697.4775 296.04 
" style="fill:none;stroke:#000000;stroke-linecap:square;stroke-linejoin:miter;"/>
   </g>
   <g id="patch_20">
    <path d="M 389.605 550.46 
L 697.4775 550.46 
" style="fill:none;stroke:#000000;stroke-linecap:square;stroke-linejoin:miter;"/>
   </g>
   <g id="patch_21">
    <path d="M 389.605 550.46 
L 389.605 296.04 
" style="fill:none;stroke:#000000;stroke-linecap:square;stroke-linejoin:miter;"/>
   </g>
   <g id="matplotlib.axis_7">
    <g id="xtick_16">
     <g id="line2d_69">
      <g>
       <use style="stroke:#000000;stroke-width:0.5;" x="389.605" xlink:href="#m767bfb7a6a" y="550.4599999999998"/>
      </g>
     </g>
     <g id="line2d_70">
      <g>
       <use style="stroke:#000000;stroke-width:0.5;" x="389.605" xlink:href="#mcf1ce91740" y="296.04"/>
      </g>
     </g>
     <g id="text_34">
      <!-- 0.5 -->
      <g transform="translate(380.063125 563.5781249999999)scale(0.12 -0.12)">
       <use xlink:href="#BitstreamVeraSans-Roman-30"/>
       <use x="63.623046875" xlink:href="#BitstreamVeraSans-Roman-2e"/>
       <use x="95.41015625" xlink:href="#BitstreamVeraSans-Roman-35"/>
      </g>
     </g>
    </g>
    <g id="xtick_17">
     <g id="line2d_71">
      <g>
       <use style="stroke:#000000;stroke-width:0.5;" x="466.57312500000006" xlink:href="#m767bfb7a6a" y="550.4599999999998"/>
      </g>
     </g>
     <g id="line2d_72">
      <g>
       <use style="stroke:#000000;stroke-width:0.5;" x="466.57312500000006" xlink:href="#mcf1ce91740" y="296.04"/>
      </g>
     </g>
     <g id="text_35">
      <!-- 1.0 -->
      <g transform="translate(457.03125000000006 563.5781249999999)scale(0.12 -0.12)">
       <use xlink:href="#BitstreamVeraSans-Roman-31"/>
       <use x="63.623046875" xlink:href="#BitstreamVeraSans-Roman-2e"/>
       <use x="95.41015625" xlink:href="#BitstreamVeraSans-Roman-30"/>
      </g>
     </g>
    </g>
    <g id="xtick_18">
     <g id="line2d_73">
      <g>
       <use style="stroke:#000000;stroke-width:0.5;" x="543.5412500000001" xlink:href="#m767bfb7a6a" y="550.4599999999998"/>
      </g>
     </g>
     <g id="line2d_74">
      <g>
       <use style="stroke:#000000;stroke-width:0.5;" x="543.5412500000001" xlink:href="#mcf1ce91740" y="296.04"/>
      </g>
     </g>
     <g id="text_36">
      <!-- 1.5 -->
      <g transform="translate(533.9993750000001 563.5781249999999)scale(0.12 -0.12)">
       <use xlink:href="#BitstreamVeraSans-Roman-31"/>
       <use x="63.623046875" xlink:href="#BitstreamVeraSans-Roman-2e"/>
       <use x="95.41015625" xlink:href="#BitstreamVeraSans-Roman-35"/>
      </g>
     </g>
    </g>
    <g id="xtick_19">
     <g id="line2d_75">
      <g>
       <use style="stroke:#000000;stroke-width:0.5;" x="620.5093750000001" xlink:href="#m767bfb7a6a" y="550.4599999999998"/>
      </g>
     </g>
     <g id="line2d_76">
      <g>
       <use style="stroke:#000000;stroke-width:0.5;" x="620.5093750000001" xlink:href="#mcf1ce91740" y="296.04"/>
      </g>
     </g>
     <g id="text_37">
      <!-- 2.0 -->
      <g transform="translate(610.9675000000001 563.5781249999999)scale(0.12 -0.12)">
       <use xlink:href="#BitstreamVeraSans-Roman-32"/>
       <use x="63.623046875" xlink:href="#BitstreamVeraSans-Roman-2e"/>
       <use x="95.41015625" xlink:href="#BitstreamVeraSans-Roman-30"/>
      </g>
     </g>
    </g>
    <g id="xtick_20">
     <g id="line2d_77">
      <g>
       <use style="stroke:#000000;stroke-width:0.5;" x="697.4775000000001" xlink:href="#m767bfb7a6a" y="550.4599999999998"/>
      </g>
     </g>
     <g id="line2d_78">
      <g>
       <use style="stroke:#000000;stroke-width:0.5;" x="697.4775000000001" xlink:href="#mcf1ce91740" y="296.04"/>
      </g>
     </g>
     <g id="text_38">
      <!-- 2.5 -->
      <g transform="translate(687.9356250000001 563.5781249999999)scale(0.12 -0.12)">
       <use xlink:href="#BitstreamVeraSans-Roman-32"/>
       <use x="63.623046875" xlink:href="#BitstreamVeraSans-Roman-2e"/>
       <use x="95.41015625" xlink:href="#BitstreamVeraSans-Roman-35"/>
      </g>
     </g>
    </g>
   </g>
   <g id="matplotlib.axis_8">
    <g id="ytick_10">
     <g id="line2d_79">
      <g>
       <use style="stroke:#000000;stroke-width:0.5;" x="389.605" xlink:href="#mfed7159bf7" y="550.4599999999998"/>
      </g>
     </g>
     <g id="line2d_80">
      <g>
       <use style="stroke:#000000;stroke-width:0.5;" x="697.4775000000001" xlink:href="#ma1bd2680af" y="550.4599999999998"/>
      </g>
     </g>
     <g id="text_39">
      <!-- 0.0 -->
      <g transform="translate(366.52125 553.7712499999998)scale(0.12 -0.12)">
       <use xlink:href="#BitstreamVeraSans-Roman-30"/>
       <use x="63.623046875" xlink:href="#BitstreamVeraSans-Roman-2e"/>
       <use x="95.41015625" xlink:href="#BitstreamVeraSans-Roman-30"/>
      </g>
     </g>
    </g>
    <g id="ytick_11">
     <g id="line2d_81">
      <g>
       <use style="stroke:#000000;stroke-width:0.5;" x="389.605" xlink:href="#mfed7159bf7" y="434.8145454545454"/>
      </g>
     </g>
     <g id="line2d_82">
      <g>
       <use style="stroke:#000000;stroke-width:0.5;" x="697.4775000000001" xlink:href="#ma1bd2680af" y="434.8145454545454"/>
      </g>
     </g>
     <g id="text_40">
      <!-- 0.5 -->
      <g transform="translate(366.52125 438.12579545454537)scale(0.12 -0.12)">
       <use xlink:href="#BitstreamVeraSans-Roman-30"/>
       <use x="63.623046875" xlink:href="#BitstreamVeraSans-Roman-2e"/>
       <use x="95.41015625" xlink:href="#BitstreamVeraSans-Roman-35"/>
      </g>
     </g>
    </g>
    <g id="ytick_12">
     <g id="line2d_83">
      <g>
       <use style="stroke:#000000;stroke-width:0.5;" x="389.605" xlink:href="#mfed7159bf7" y="319.1690909090909"/>
      </g>
     </g>
     <g id="line2d_84">
      <g>
       <use style="stroke:#000000;stroke-width:0.5;" x="697.4775000000001" xlink:href="#ma1bd2680af" y="319.1690909090909"/>
      </g>
     </g>
     <g id="text_41">
      <!-- 1.0 -->
      <g transform="translate(366.52125 322.48034090909096)scale(0.12 -0.12)">
       <use xlink:href="#BitstreamVeraSans-Roman-31"/>
       <use x="63.623046875" xlink:href="#BitstreamVeraSans-Roman-2e"/>
       <use x="95.41015625" xlink:href="#BitstreamVeraSans-Roman-30"/>
      </g>
     </g>
    </g>
   </g>
   <g id="text_42">
    <!-- 1.345 meV -->
    <g transform="translate(620.5093750000001 504.2018181818181)scale(0.08 -0.08)">
     <use xlink:href="#BitstreamVeraSans-Roman-31"/>
     <use x="63.623046875" xlink:href="#BitstreamVeraSans-Roman-2e"/>
     <use x="95.41015625" xlink:href="#BitstreamVeraSans-Roman-33"/>
     <use x="159.033203125" xlink:href="#BitstreamVeraSans-Roman-34"/>
     <use x="222.65625" xlink:href="#BitstreamVeraSans-Roman-35"/>
     <use x="286.279296875" xlink:href="#BitstreamVeraSans-Roman-20"/>
     <use x="318.06640625" xlink:href="#BitstreamVeraSans-Roman-6d"/>
     <use x="415.478515625" xlink:href="#BitstreamVeraSans-Roman-65"/>
     <use x="477.001953125" xlink:href="#BitstreamVeraSans-Roman-56"/>
    </g>
   </g>
   <g id="legend_4">
    <g id="line2d_85">
     <path d="M 399.205 306.51875 
L 410.405 306.51875 
" style="fill:none;stroke:#0000ff;stroke-linecap:square;stroke-width:2.0;"/>
    </g>
    <g id="line2d_86"/>
    <g id="text_43">
     <!-- P300 -->
     <g transform="translate(419.205 309.31875)scale(0.08 -0.08)">
      <use xlink:href="#BitstreamVeraSans-Roman-50"/>
      <use x="60.302734375" xlink:href="#BitstreamVeraSans-Roman-33"/>
      <use x="123.92578125" xlink:href="#BitstreamVeraSans-Roman-30"/>
      <use x="187.548828125" xlink:href="#BitstreamVeraSans-Roman-30"/>
     </g>
    </g>
    <g id="line2d_87">
     <path d="M 399.205 318.26125 
L 410.405 318.26125 
" style="fill:none;stroke:#008000;stroke-linecap:square;stroke-width:2.0;"/>
    </g>
    <g id="line2d_88"/>
    <g id="text_44">
     <!-- N300 -->
     <g transform="translate(419.205 321.06125)scale(0.08 -0.08)">
      <use xlink:href="#BitstreamVeraSans-Roman-4e"/>
      <use x="74.8046875" xlink:href="#BitstreamVeraSans-Roman-33"/>
      <use x="138.427734375" xlink:href="#BitstreamVeraSans-Roman-30"/>
      <use x="202.05078125" xlink:href="#BitstreamVeraSans-Roman-30"/>
     </g>
    </g>
   </g>
  </g>
  <g id="axes_5">
   <g id="patch_22">
    <path d="M 36.085 833.54 
L 343.9575 833.54 
L 343.9575 579.12 
L 36.085 579.12 
z
" style="fill:#ffffff;"/>
   </g>
   <g id="line2d_89">
    <path clip-path="url(#pd195448ad4)" d="M 82.265875 651.967317 
L 90.228095 643.146338 
L 98.190315 635.567826 
L 106.152534 629.152696 
L 114.114754 623.797805 
L 122.076974 619.385726 
L 130.039194 615.795708 
L 138.001414 612.907768 
L 145.963634 610.609245 
L 153.925853 608.796131 
L 161.888073 607.376779 
L 169.850293 606.272162 
L 177.812513 605.415764 
L 185.774733 604.752831 
L 193.736953 604.239204 
L 201.699172 603.8399 
L 209.661392 603.527866 
L 217.623612 603.282217 
L 225.585832 603.087236 
L 233.548052 602.931146 
L 241.510272 602.805157 
L 249.472491 602.702714 
L 257.434711 602.618973 
L 265.396931 602.550255 
L 273.359151 602.493725 
L 281.321371 602.447205 
L 289.283591 602.408961 
L 297.24581 602.377589 
L 305.20803 602.351932 
L 313.17025 602.331028 
" style="fill:none;stroke:#0000ff;stroke-linecap:square;stroke-width:2.0;"/>
   </g>
   <g id="line2d_90">
    <path clip-path="url(#pd195448ad4)" d="M 82.265875 664.297775 
L 90.228095 657.064482 
L 98.190315 650.980943 
L 106.152534 645.92612 
L 114.114754 641.764872 
L 122.076974 638.353054 
L 130.039194 635.551348 
L 138.001414 633.228903 
L 145.963634 631.269154 
L 153.925853 629.572857 
L 161.888073 628.057864 
L 169.850293 626.660038 
L 177.812513 625.331641 
L 185.774733 624.039528 
L 193.736953 622.762697 
L 201.699172 621.490321 
L 209.661392 620.219276 
L 217.623612 618.95195 
L 225.585832 617.694511 
L 233.548052 616.45539 
L 241.510272 615.243957 
L 249.472491 614.069658 
L 257.434711 612.941214 
L 265.396931 611.866297 
L 273.359151 610.851131 
L 281.321371 609.900405 
L 289.283591 609.017273 
L 297.24581 608.203401 
L 305.20803 607.459084 
L 313.17025 606.78341 
" style="fill:none;stroke:#008000;stroke-linecap:square;stroke-width:2.0;"/>
   </g>
   <g id="patch_23">
    <path d="M 36.085 579.12 
L 343.9575 579.12 
" style="fill:none;stroke:#000000;stroke-linecap:square;stroke-linejoin:miter;"/>
   </g>
   <g id="patch_24">
    <path d="M 343.9575 833.54 
L 343.9575 579.12 
" style="fill:none;stroke:#000000;stroke-linecap:square;stroke-linejoin:miter;"/>
   </g>
   <g id="patch_25">
    <path d="M 36.085 833.54 
L 343.9575 833.54 
" style="fill:none;stroke:#000000;stroke-linecap:square;stroke-linejoin:miter;"/>
   </g>
   <g id="patch_26">
    <path d="M 36.085 833.54 
L 36.085 579.12 
" style="fill:none;stroke:#000000;stroke-linecap:square;stroke-linejoin:miter;"/>
   </g>
   <g id="matplotlib.axis_9">
    <g id="xtick_21">
     <g id="line2d_91">
      <g>
       <use style="stroke:#000000;stroke-width:0.5;" x="36.085" xlink:href="#m767bfb7a6a" y="833.54"/>
      </g>
     </g>
     <g id="line2d_92">
      <g>
       <use style="stroke:#000000;stroke-width:0.5;" x="36.085" xlink:href="#mcf1ce91740" y="579.12"/>
      </g>
     </g>
     <g id="text_45">
      <!-- 0.5 -->
      <g transform="translate(26.543125000000003 846.6581249999999)scale(0.12 -0.12)">
       <use xlink:href="#BitstreamVeraSans-Roman-30"/>
       <use x="63.623046875" xlink:href="#BitstreamVeraSans-Roman-2e"/>
       <use x="95.41015625" xlink:href="#BitstreamVeraSans-Roman-35"/>
      </g>
     </g>
    </g>
    <g id="xtick_22">
     <g id="line2d_93">
      <g>
       <use style="stroke:#000000;stroke-width:0.5;" x="113.053125" xlink:href="#m767bfb7a6a" y="833.54"/>
      </g>
     </g>
     <g id="line2d_94">
      <g>
       <use style="stroke:#000000;stroke-width:0.5;" x="113.053125" xlink:href="#mcf1ce91740" y="579.12"/>
      </g>
     </g>
     <g id="text_46">
      <!-- 1.0 -->
      <g transform="translate(103.51124999999999 846.6581249999999)scale(0.12 -0.12)">
       <use xlink:href="#BitstreamVeraSans-Roman-31"/>
       <use x="63.623046875" xlink:href="#BitstreamVeraSans-Roman-2e"/>
       <use x="95.41015625" xlink:href="#BitstreamVeraSans-Roman-30"/>
      </g>
     </g>
    </g>
    <g id="xtick_23">
     <g id="line2d_95">
      <g>
       <use style="stroke:#000000;stroke-width:0.5;" x="190.02125" xlink:href="#m767bfb7a6a" y="833.54"/>
      </g>
     </g>
     <g id="line2d_96">
      <g>
       <use style="stroke:#000000;stroke-width:0.5;" x="190.02125" xlink:href="#mcf1ce91740" y="579.12"/>
      </g>
     </g>
     <g id="text_47">
      <!-- 1.5 -->
      <g transform="translate(180.479375 846.6581249999999)scale(0.12 -0.12)">
       <use xlink:href="#BitstreamVeraSans-Roman-31"/>
       <use x="63.623046875" xlink:href="#BitstreamVeraSans-Roman-2e"/>
       <use x="95.41015625" xlink:href="#BitstreamVeraSans-Roman-35"/>
      </g>
     </g>
    </g>
    <g id="xtick_24">
     <g id="line2d_97">
      <g>
       <use style="stroke:#000000;stroke-width:0.5;" x="266.989375" xlink:href="#m767bfb7a6a" y="833.54"/>
      </g>
     </g>
     <g id="line2d_98">
      <g>
       <use style="stroke:#000000;stroke-width:0.5;" x="266.989375" xlink:href="#mcf1ce91740" y="579.12"/>
      </g>
     </g>
     <g id="text_48">
      <!-- 2.0 -->
      <g transform="translate(257.4475 846.6581249999999)scale(0.12 -0.12)">
       <use xlink:href="#BitstreamVeraSans-Roman-32"/>
       <use x="63.623046875" xlink:href="#BitstreamVeraSans-Roman-2e"/>
       <use x="95.41015625" xlink:href="#BitstreamVeraSans-Roman-30"/>
      </g>
     </g>
    </g>
    <g id="xtick_25">
     <g id="line2d_99">
      <g>
       <use style="stroke:#000000;stroke-width:0.5;" x="343.9575" xlink:href="#m767bfb7a6a" y="833.54"/>
      </g>
     </g>
     <g id="line2d_100">
      <g>
       <use style="stroke:#000000;stroke-width:0.5;" x="343.9575" xlink:href="#mcf1ce91740" y="579.12"/>
      </g>
     </g>
     <g id="text_49">
      <!-- 2.5 -->
      <g transform="translate(334.415625 846.6581249999999)scale(0.12 -0.12)">
       <use xlink:href="#BitstreamVeraSans-Roman-32"/>
       <use x="63.623046875" xlink:href="#BitstreamVeraSans-Roman-2e"/>
       <use x="95.41015625" xlink:href="#BitstreamVeraSans-Roman-35"/>
      </g>
     </g>
    </g>
   </g>
   <g id="matplotlib.axis_10">
    <g id="ytick_13">
     <g id="line2d_101">
      <g>
       <use style="stroke:#000000;stroke-width:0.5;" x="36.085" xlink:href="#mfed7159bf7" y="833.54"/>
      </g>
     </g>
     <g id="line2d_102">
      <g>
       <use style="stroke:#000000;stroke-width:0.5;" x="343.9575" xlink:href="#ma1bd2680af" y="833.54"/>
      </g>
     </g>
     <g id="text_50">
      <!-- 0.0 -->
      <g transform="translate(13.001250000000002 836.8512499999999)scale(0.12 -0.12)">
       <use xlink:href="#BitstreamVeraSans-Roman-30"/>
       <use x="63.623046875" xlink:href="#BitstreamVeraSans-Roman-2e"/>
       <use x="95.41015625" xlink:href="#BitstreamVeraSans-Roman-30"/>
      </g>
     </g>
    </g>
    <g id="ytick_14">
     <g id="line2d_103">
      <g>
       <use style="stroke:#000000;stroke-width:0.5;" x="36.085" xlink:href="#mfed7159bf7" y="717.8945454545454"/>
      </g>
     </g>
     <g id="line2d_104">
      <g>
       <use style="stroke:#000000;stroke-width:0.5;" x="343.9575" xlink:href="#ma1bd2680af" y="717.8945454545454"/>
      </g>
     </g>
     <g id="text_51">
      <!-- 0.5 -->
      <g transform="translate(13.001250000000002 721.2057954545454)scale(0.12 -0.12)">
       <use xlink:href="#BitstreamVeraSans-Roman-30"/>
       <use x="63.623046875" xlink:href="#BitstreamVeraSans-Roman-2e"/>
       <use x="95.41015625" xlink:href="#BitstreamVeraSans-Roman-35"/>
      </g>
     </g>
    </g>
    <g id="ytick_15">
     <g id="line2d_105">
      <g>
       <use style="stroke:#000000;stroke-width:0.5;" x="36.085" xlink:href="#mfed7159bf7" y="602.2490909090909"/>
      </g>
     </g>
     <g id="line2d_106">
      <g>
       <use style="stroke:#000000;stroke-width:0.5;" x="343.9575" xlink:href="#ma1bd2680af" y="602.2490909090909"/>
      </g>
     </g>
     <g id="text_52">
      <!-- 1.0 -->
      <g transform="translate(13.001250000000002 605.5603409090909)scale(0.12 -0.12)">
       <use xlink:href="#BitstreamVeraSans-Roman-31"/>
       <use x="63.623046875" xlink:href="#BitstreamVeraSans-Roman-2e"/>
       <use x="95.41015625" xlink:href="#BitstreamVeraSans-Roman-30"/>
      </g>
     </g>
    </g>
   </g>
   <g id="text_53">
    <!-- 1.682 meV -->
    <g transform="translate(266.989375 787.2818181818182)scale(0.08 -0.08)">
     <use xlink:href="#BitstreamVeraSans-Roman-31"/>
     <use x="63.623046875" xlink:href="#BitstreamVeraSans-Roman-2e"/>
     <use x="95.41015625" xlink:href="#BitstreamVeraSans-Roman-36"/>
     <use x="159.033203125" xlink:href="#BitstreamVeraSans-Roman-38"/>
     <use x="222.65625" xlink:href="#BitstreamVeraSans-Roman-32"/>
     <use x="286.279296875" xlink:href="#BitstreamVeraSans-Roman-20"/>
     <use x="318.06640625" xlink:href="#BitstreamVeraSans-Roman-6d"/>
     <use x="415.478515625" xlink:href="#BitstreamVeraSans-Roman-65"/>
     <use x="477.001953125" xlink:href="#BitstreamVeraSans-Roman-56"/>
    </g>
   </g>
   <g id="legend_5">
    <g id="line2d_107">
     <path d="M 45.685 589.59875 
L 56.885 589.59875 
" style="fill:none;stroke:#0000ff;stroke-linecap:square;stroke-width:2.0;"/>
    </g>
    <g id="line2d_108"/>
    <g id="text_54">
     <!-- P300 -->
     <g transform="translate(65.685 592.3987500000001)scale(0.08 -0.08)">
      <use xlink:href="#BitstreamVeraSans-Roman-50"/>
      <use x="60.302734375" xlink:href="#BitstreamVeraSans-Roman-33"/>
      <use x="123.92578125" xlink:href="#BitstreamVeraSans-Roman-30"/>
      <use x="187.548828125" xlink:href="#BitstreamVeraSans-Roman-30"/>
     </g>
    </g>
    <g id="line2d_109">
     <path d="M 45.685 601.34125 
L 56.885 601.34125 
" style="fill:none;stroke:#008000;stroke-linecap:square;stroke-width:2.0;"/>
    </g>
    <g id="line2d_110"/>
    <g id="text_55">
     <!-- N300 -->
     <g transform="translate(65.685 604.14125)scale(0.08 -0.08)">
      <use xlink:href="#BitstreamVeraSans-Roman-4e"/>
      <use x="74.8046875" xlink:href="#BitstreamVeraSans-Roman-33"/>
      <use x="138.427734375" xlink:href="#BitstreamVeraSans-Roman-30"/>
      <use x="202.05078125" xlink:href="#BitstreamVeraSans-Roman-30"/>
     </g>
    </g>
   </g>
  </g>
 </g>
 <defs>
  <clipPath id="p2ac464591b">
   <rect height="254.4199999999998" width="307.8725" x="36.085" y="296.0400000000001"/>
  </clipPath>
  <clipPath id="p95e3250b16">
   <rect height="254.41999999999985" width="307.87250000000006" x="389.605" y="12.960000000000036"/>
  </clipPath>
  <clipPath id="pd195448ad4">
   <rect height="254.41999999999993" width="307.8725" x="36.085" y="579.12"/>
  </clipPath>
  <clipPath id="p65eeb99a71">
   <rect height="254.4199999999998" width="307.87250000000006" x="389.605" y="296.0400000000001"/>
  </clipPath>
  <clipPath id="p6addac5357">
   <rect height="254.41999999999985" width="307.8725" x="36.085" y="12.960000000000036"/>
  </clipPath>
 </defs>
</svg>
