<?xml version="1.0" encoding="utf-8" standalone="no"?>
<!DOCTYPE svg PUBLIC "-//W3C//DTD SVG 1.1//EN"
  "http://www.w3.org/Graphics/SVG/1.1/DTD/svg11.dtd">
<!-- Created with matplotlib (http://matplotlib.org/) -->
<svg height="864pt" version="1.1" viewBox="0 0 216 864" width="216pt" xmlns="http://www.w3.org/2000/svg" xmlns:xlink="http://www.w3.org/1999/xlink">
 <defs>
  <style type="text/css">
*{stroke-linecap:butt;stroke-linejoin:round;}
  </style>
 </defs>
 <g id="figure_1">
  <g id="patch_1">
   <path d="
M0 864.9
L216 864.9
L216 0
L0 0
z
" style="fill:#ffffff;"/>
  </g>
  <g id="axes_1">
   <g id="patch_2">
    <path d="
M34.128 127.072
L200.016 127.072
L200.016 7.7841
L34.128 7.7841
z
" style="fill:#ffffff;"/>
   </g>
   <g id="line2d_1">
    <path clip-path="url(#p8d00302a0f)" d="
M39.6576 125.745
L45.1872 121.895
L50.7168 115.898
L56.2464 108.342
L61.776 99.9659
L67.3056 91.5898
L72.8352 84.0335
L78.3648 78.0368
L83.8944 74.1865
L89.424 72.8595
L94.9536 74.1858
L100.483 78.0353
L106.013 84.0313
L111.542 91.5867
L117.072 99.9618
L122.602 108.337
L128.131 115.892
L133.661 121.887
L139.19 125.735
L144.72 127.06
L150.25 125.732
L155.779 121.881
L161.309 115.883
L166.838 108.326
L172.368 99.949
L177.898 91.5726
L183.427 84.0165
L188.957 78.0204
L194.486 74.1712
L200.016 72.8457" style="fill:none;stroke:#0000ff;stroke-linecap:square;"/>
   </g>
   <g id="line2d_2">
    <path clip-path="url(#p8d00302a0f)" d="
M39.6576 125.745
L45.1872 121.894
L50.7168 115.896
L56.2464 108.338
L61.776 99.9605
L67.3056 91.5826
L72.8352 84.0244
L78.3648 78.026
L83.8944 74.1743
L89.424 72.8463
L94.9536 74.1719
L100.483 78.0213
L106.013 84.0177
L111.542 91.574
L117.072 99.9505
L122.602 108.327
L128.131 115.884
L133.661 121.882
L139.19 125.733
L144.72 127.06
L150.25 125.735
L155.779 121.885
L161.309 115.89
L166.838 108.334
L172.368 99.9588
L177.898 91.5834
L183.427 84.028
L188.957 78.0323
L194.486 74.1833
L200.016 72.8577" style="fill:none;stroke:#008000;stroke-linecap:square;"/>
   </g>
   <g id="patch_3">
    <path d="
M34.128 7.7841
L200.016 7.7841" style="fill:none;stroke:#000000;stroke-linecap:square;stroke-linejoin:miter;"/>
   </g>
   <g id="patch_4">
    <path d="
M200.016 127.072
L200.016 7.7841" style="fill:none;stroke:#000000;stroke-linecap:square;stroke-linejoin:miter;"/>
   </g>
   <g id="patch_5">
    <path d="
M34.128 127.072
L200.016 127.072" style="fill:none;stroke:#000000;stroke-linecap:square;stroke-linejoin:miter;"/>
   </g>
   <g id="patch_6">
    <path d="
M34.128 127.072
L34.128 7.7841" style="fill:none;stroke:#000000;stroke-linecap:square;stroke-linejoin:miter;"/>
   </g>
   <g id="matplotlib.axis_1">
    <g id="xtick_1">
     <g id="line2d_3">
      <defs>
       <path d="
M0 0
L0 -4" id="m93b0483c22" style="stroke:#000000;stroke-width:0.5;"/>
      </defs>
      <g>
       <use style="stroke:#000000;stroke-width:0.5;" x="34.128" xlink:href="#m93b0483c22" y="127.07172902"/>
      </g>
     </g>
     <g id="line2d_4">
      <defs>
       <path d="
M0 0
L0 4" id="m741efc42ff" style="stroke:#000000;stroke-width:0.5;"/>
      </defs>
      <g>
       <use style="stroke:#000000;stroke-width:0.5;" x="34.128" xlink:href="#m741efc42ff" y="7.7841"/>
      </g>
     </g>
     <g id="text_1">
      <!-- 0 -->
      <defs>
       <path d="
M31.7812 66.4062
Q24.1719 66.4062 20.3281 58.9062
Q16.5 51.4219 16.5 36.375
Q16.5 21.3906 20.3281 13.8906
Q24.1719 6.39062 31.7812 6.39062
Q39.4531 6.39062 43.2812 13.8906
Q47.125 21.3906 47.125 36.375
Q47.125 51.4219 43.2812 58.9062
Q39.4531 66.4062 31.7812 66.4062
M31.7812 74.2188
Q44.0469 74.2188 50.5156 64.5156
Q56.9844 54.8281 56.9844 36.375
Q56.9844 17.9688 50.5156 8.26562
Q44.0469 -1.42188 31.7812 -1.42188
Q19.5312 -1.42188 13.0625 8.26562
Q6.59375 17.9688 6.59375 36.375
Q6.59375 54.8281 13.0625 64.5156
Q19.5312 74.2188 31.7812 74.2188" id="BitstreamVeraSans-Roman-30"/>
      </defs>
      <g transform="translate(31.1045625 140.18985402)scale(0.12 -0.12)">
       <use xlink:href="#BitstreamVeraSans-Roman-30"/>
      </g>
     </g>
    </g>
    <g id="xtick_2">
     <g id="line2d_5">
      <g>
       <use style="stroke:#000000;stroke-width:0.5;" x="89.424" xlink:href="#m93b0483c22" y="127.07172902"/>
      </g>
     </g>
     <g id="line2d_6">
      <g>
       <use style="stroke:#000000;stroke-width:0.5;" x="89.424" xlink:href="#m741efc42ff" y="7.7841"/>
      </g>
     </g>
     <g id="text_2">
      <!-- 1 -->
      <defs>
       <path d="
M12.4062 8.29688
L28.5156 8.29688
L28.5156 63.9219
L10.9844 60.4062
L10.9844 69.3906
L28.4219 72.9062
L38.2812 72.9062
L38.2812 8.29688
L54.3906 8.29688
L54.3906 0
L12.4062 0
z
" id="BitstreamVeraSans-Roman-31"/>
      </defs>
      <g transform="translate(86.819625 140.18985402)scale(0.12 -0.12)">
       <use xlink:href="#BitstreamVeraSans-Roman-31"/>
      </g>
     </g>
    </g>
    <g id="xtick_3">
     <g id="line2d_7">
      <g>
       <use style="stroke:#000000;stroke-width:0.5;" x="144.72" xlink:href="#m93b0483c22" y="127.07172902"/>
      </g>
     </g>
     <g id="line2d_8">
      <g>
       <use style="stroke:#000000;stroke-width:0.5;" x="144.72" xlink:href="#m741efc42ff" y="7.7841"/>
      </g>
     </g>
     <g id="text_3">
      <!-- 2 -->
      <defs>
       <path d="
M19.1875 8.29688
L53.6094 8.29688
L53.6094 0
L7.32812 0
L7.32812 8.29688
Q12.9375 14.1094 22.625 23.8906
Q32.3281 33.6875 34.8125 36.5312
Q39.5469 41.8438 41.4219 45.5312
Q43.3125 49.2188 43.3125 52.7812
Q43.3125 58.5938 39.2344 62.25
Q35.1562 65.9219 28.6094 65.9219
Q23.9688 65.9219 18.8125 64.3125
Q13.6719 62.7031 7.8125 59.4219
L7.8125 69.3906
Q13.7656 71.7812 18.9375 73
Q24.125 74.2188 28.4219 74.2188
Q39.75 74.2188 46.4844 68.5469
Q53.2188 62.8906 53.2188 53.4219
Q53.2188 48.9219 51.5312 44.8906
Q49.8594 40.875 45.4062 35.4062
Q44.1875 33.9844 37.6406 27.2188
Q31.1094 20.4531 19.1875 8.29688" id="BitstreamVeraSans-Roman-32"/>
      </defs>
      <g transform="translate(141.943125 140.18985402)scale(0.12 -0.12)">
       <use xlink:href="#BitstreamVeraSans-Roman-32"/>
      </g>
     </g>
    </g>
    <g id="xtick_4">
     <g id="line2d_9">
      <g>
       <use style="stroke:#000000;stroke-width:0.5;" x="200.016" xlink:href="#m93b0483c22" y="127.07172902"/>
      </g>
     </g>
     <g id="line2d_10">
      <g>
       <use style="stroke:#000000;stroke-width:0.5;" x="200.016" xlink:href="#m741efc42ff" y="7.7841"/>
      </g>
     </g>
     <g id="text_4">
      <!-- 3 -->
      <defs>
       <path d="
M40.5781 39.3125
Q47.6562 37.7969 51.625 33
Q55.6094 28.2188 55.6094 21.1875
Q55.6094 10.4062 48.1875 4.48438
Q40.7656 -1.42188 27.0938 -1.42188
Q22.5156 -1.42188 17.6562 -0.515625
Q12.7969 0.390625 7.625 2.20312
L7.625 11.7188
Q11.7188 9.32812 16.5938 8.10938
Q21.4844 6.89062 26.8125 6.89062
Q36.0781 6.89062 40.9375 10.5469
Q45.7969 14.2031 45.7969 21.1875
Q45.7969 27.6406 41.2812 31.2656
Q36.7656 34.9062 28.7188 34.9062
L20.2188 34.9062
L20.2188 43.0156
L29.1094 43.0156
Q36.375 43.0156 40.2344 45.9219
Q44.0938 48.8281 44.0938 54.2969
Q44.0938 59.9062 40.1094 62.9062
Q36.1406 65.9219 28.7188 65.9219
Q24.6562 65.9219 20.0156 65.0312
Q15.375 64.1562 9.8125 62.3125
L9.8125 71.0938
Q15.4375 72.6562 20.3438 73.4375
Q25.25 74.2188 29.5938 74.2188
Q40.8281 74.2188 47.3594 69.1094
Q53.9062 64.0156 53.9062 55.3281
Q53.9062 49.2656 50.4375 45.0938
Q46.9688 40.9219 40.5781 39.3125" id="BitstreamVeraSans-Roman-33"/>
      </defs>
      <g transform="translate(197.1369375 140.18985402)scale(0.12 -0.12)">
       <use xlink:href="#BitstreamVeraSans-Roman-33"/>
      </g>
     </g>
    </g>
   </g>
   <g id="matplotlib.axis_2">
    <g id="ytick_1">
     <g id="line2d_11">
      <defs>
       <path d="
M0 0
L4 0" id="m728421d6d4" style="stroke:#000000;stroke-width:0.5;"/>
      </defs>
      <g>
       <use style="stroke:#000000;stroke-width:0.5;" x="34.128" xlink:href="#m728421d6d4" y="127.07172902"/>
      </g>
     </g>
     <g id="line2d_12">
      <defs>
       <path d="
M0 0
L-4 0" id="mcb0005524f" style="stroke:#000000;stroke-width:0.5;"/>
      </defs>
      <g>
       <use style="stroke:#000000;stroke-width:0.5;" x="200.016" xlink:href="#mcb0005524f" y="127.07172902"/>
      </g>
     </g>
     <g id="text_5">
      <!-- 0.0 -->
      <defs>
       <path d="
M10.6875 12.4062
L21 12.4062
L21 0
L10.6875 0
z
" id="BitstreamVeraSans-Roman-2e"/>
      </defs>
      <g transform="translate(12.632375 130.38297902)scale(0.12 -0.12)">
       <use xlink:href="#BitstreamVeraSans-Roman-30"/>
       <use x="63.623046875" xlink:href="#BitstreamVeraSans-Roman-2e"/>
       <use x="95.41015625" xlink:href="#BitstreamVeraSans-Roman-30"/>
      </g>
     </g>
    </g>
    <g id="ytick_2">
     <g id="line2d_13">
      <g>
       <use style="stroke:#000000;stroke-width:0.5;" x="34.128" xlink:href="#m728421d6d4" y="72.8500794656"/>
      </g>
     </g>
     <g id="line2d_14">
      <g>
       <use style="stroke:#000000;stroke-width:0.5;" x="200.016" xlink:href="#mcb0005524f" y="72.8500794656"/>
      </g>
     </g>
     <g id="text_6">
      <!-- 0.5 -->
      <defs>
       <path d="
M10.7969 72.9062
L49.5156 72.9062
L49.5156 64.5938
L19.8281 64.5938
L19.8281 46.7344
Q21.9688 47.4688 24.1094 47.8281
Q26.2656 48.1875 28.4219 48.1875
Q40.625 48.1875 47.75 41.5
Q54.8906 34.8125 54.8906 23.3906
Q54.8906 11.625 47.5625 5.09375
Q40.2344 -1.42188 26.9062 -1.42188
Q22.3125 -1.42188 17.5469 -0.640625
Q12.7969 0.140625 7.71875 1.70312
L7.71875 11.625
Q12.1094 9.23438 16.7969 8.0625
Q21.4844 6.89062 26.7031 6.89062
Q35.1562 6.89062 40.0781 11.3281
Q45.0156 15.7656 45.0156 23.3906
Q45.0156 31 40.0781 35.4375
Q35.1562 39.8906 26.7031 39.8906
Q22.75 39.8906 18.8125 39.0156
Q14.8906 38.1406 10.7969 36.2812
z
" id="BitstreamVeraSans-Roman-35"/>
      </defs>
      <g transform="translate(12.883625 76.1613294656)scale(0.12 -0.12)">
       <use xlink:href="#BitstreamVeraSans-Roman-30"/>
       <use x="63.623046875" xlink:href="#BitstreamVeraSans-Roman-2e"/>
       <use x="95.41015625" xlink:href="#BitstreamVeraSans-Roman-35"/>
      </g>
     </g>
    </g>
    <g id="ytick_3">
     <g id="line2d_15">
      <g>
       <use style="stroke:#000000;stroke-width:0.5;" x="34.128" xlink:href="#m728421d6d4" y="18.6284299109"/>
      </g>
     </g>
     <g id="line2d_16">
      <g>
       <use style="stroke:#000000;stroke-width:0.5;" x="200.016" xlink:href="#mcb0005524f" y="18.6284299109"/>
      </g>
     </g>
     <g id="text_7">
      <!-- 1.0 -->
      <g transform="translate(13.15925 21.9396799109)scale(0.12 -0.12)">
       <use xlink:href="#BitstreamVeraSans-Roman-31"/>
       <use x="63.623046875" xlink:href="#BitstreamVeraSans-Roman-2e"/>
       <use x="95.41015625" xlink:href="#BitstreamVeraSans-Roman-30"/>
      </g>
     </g>
    </g>
   </g>
  </g>
  <g id="axes_2">
   <g id="patch_7">
    <path d="
M34.128 262.702
L200.016 262.702
L200.016 143.414
L34.128 143.414
z
" style="fill:#ffffff;"/>
   </g>
   <g id="line2d_17">
    <path clip-path="url(#p3071ab0c1d)" d="
M39.6576 261.378
L45.1872 257.565
L50.7168 251.715
L56.2464 244.501
L61.776 236.708
L67.3056 229.116
L72.8352 222.389
L78.3648 216.991
L83.8944 213.141
L89.424 210.815
L94.9536 209.788
L100.483 209.706
L106.013 210.165
L111.542 210.793
L117.072 211.31
L122.602 211.554
L128.131 211.487
L133.661 211.169
L139.19 210.718
L144.72 210.265
L150.25 209.916
L155.779 209.728
L161.309 209.701
L166.838 209.791
L172.368 209.927
L177.898 210.04
L183.427 210.079
L188.957 210.027
L194.486 209.902
L200.016 209.745" style="fill:none;stroke:#0000ff;stroke-linecap:square;"/>
   </g>
   <g id="line2d_18">
    <path clip-path="url(#p3071ab0c1d)" d="
M39.6576 261.377
L45.1872 257.559
L50.7168 251.687
L56.2464 244.418
L61.776 236.521
L67.3056 228.763
L72.8352 221.8
L78.3648 216.098
L83.8944 211.887
L89.424 209.165
L94.9536 207.733
L100.483 207.266
L106.013 207.389
L111.542 207.754
L117.072 208.093
L122.602 208.252
L128.131 208.188
L133.661 207.951
L139.19 207.641
L144.72 207.369
L150.25 207.22
L155.779 207.233
L161.309 207.394
L166.838 207.646
L172.368 207.913
L177.898 208.119
L183.427 208.215
L188.957 208.185
L194.486 208.047
L200.016 207.849" style="fill:none;stroke:#008000;stroke-linecap:square;"/>
   </g>
   <g id="patch_8">
    <path d="
M34.128 143.414
L200.016 143.414" style="fill:none;stroke:#000000;stroke-linecap:square;stroke-linejoin:miter;"/>
   </g>
   <g id="patch_9">
    <path d="
M200.016 262.702
L200.016 143.414" style="fill:none;stroke:#000000;stroke-linecap:square;stroke-linejoin:miter;"/>
   </g>
   <g id="patch_10">
    <path d="
M34.128 262.702
L200.016 262.702" style="fill:none;stroke:#000000;stroke-linecap:square;stroke-linejoin:miter;"/>
   </g>
   <g id="patch_11">
    <path d="
M34.128 262.702
L34.128 143.414" style="fill:none;stroke:#000000;stroke-linecap:square;stroke-linejoin:miter;"/>
   </g>
   <g id="matplotlib.axis_3">
    <g id="xtick_5">
     <g id="line2d_19">
      <g>
       <use style="stroke:#000000;stroke-width:0.5;" x="34.128" xlink:href="#m93b0483c22" y="262.701763216"/>
      </g>
     </g>
     <g id="line2d_20">
      <g>
       <use style="stroke:#000000;stroke-width:0.5;" x="34.128" xlink:href="#m741efc42ff" y="143.414134196"/>
      </g>
     </g>
     <g id="text_8">
      <!-- 0 -->
      <g transform="translate(31.1045625 275.819888216)scale(0.12 -0.12)">
       <use xlink:href="#BitstreamVeraSans-Roman-30"/>
      </g>
     </g>
    </g>
    <g id="xtick_6">
     <g id="line2d_21">
      <g>
       <use style="stroke:#000000;stroke-width:0.5;" x="89.424" xlink:href="#m93b0483c22" y="262.701763216"/>
      </g>
     </g>
     <g id="line2d_22">
      <g>
       <use style="stroke:#000000;stroke-width:0.5;" x="89.424" xlink:href="#m741efc42ff" y="143.414134196"/>
      </g>
     </g>
     <g id="text_9">
      <!-- 1 -->
      <g transform="translate(86.819625 275.819888216)scale(0.12 -0.12)">
       <use xlink:href="#BitstreamVeraSans-Roman-31"/>
      </g>
     </g>
    </g>
    <g id="xtick_7">
     <g id="line2d_23">
      <g>
       <use style="stroke:#000000;stroke-width:0.5;" x="144.72" xlink:href="#m93b0483c22" y="262.701763216"/>
      </g>
     </g>
     <g id="line2d_24">
      <g>
       <use style="stroke:#000000;stroke-width:0.5;" x="144.72" xlink:href="#m741efc42ff" y="143.414134196"/>
      </g>
     </g>
     <g id="text_10">
      <!-- 2 -->
      <g transform="translate(141.943125 275.819888216)scale(0.12 -0.12)">
       <use xlink:href="#BitstreamVeraSans-Roman-32"/>
      </g>
     </g>
    </g>
    <g id="xtick_8">
     <g id="line2d_25">
      <g>
       <use style="stroke:#000000;stroke-width:0.5;" x="200.016" xlink:href="#m93b0483c22" y="262.701763216"/>
      </g>
     </g>
     <g id="line2d_26">
      <g>
       <use style="stroke:#000000;stroke-width:0.5;" x="200.016" xlink:href="#m741efc42ff" y="143.414134196"/>
      </g>
     </g>
     <g id="text_11">
      <!-- 3 -->
      <g transform="translate(197.1369375 275.819888216)scale(0.12 -0.12)">
       <use xlink:href="#BitstreamVeraSans-Roman-33"/>
      </g>
     </g>
    </g>
   </g>
   <g id="matplotlib.axis_4">
    <g id="ytick_4">
     <g id="line2d_27">
      <g>
       <use style="stroke:#000000;stroke-width:0.5;" x="34.128" xlink:href="#m728421d6d4" y="262.701763216"/>
      </g>
     </g>
     <g id="line2d_28">
      <g>
       <use style="stroke:#000000;stroke-width:0.5;" x="200.016" xlink:href="#mcb0005524f" y="262.701763216"/>
      </g>
     </g>
     <g id="text_12">
      <!-- 0.0 -->
      <g transform="translate(12.632375 266.013013216)scale(0.12 -0.12)">
       <use xlink:href="#BitstreamVeraSans-Roman-30"/>
       <use x="63.623046875" xlink:href="#BitstreamVeraSans-Roman-2e"/>
       <use x="95.41015625" xlink:href="#BitstreamVeraSans-Roman-30"/>
      </g>
     </g>
    </g>
    <g id="ytick_5">
     <g id="line2d_29">
      <g>
       <use style="stroke:#000000;stroke-width:0.5;" x="34.128" xlink:href="#m728421d6d4" y="208.480113662"/>
      </g>
     </g>
     <g id="line2d_30">
      <g>
       <use style="stroke:#000000;stroke-width:0.5;" x="200.016" xlink:href="#mcb0005524f" y="208.480113662"/>
      </g>
     </g>
     <g id="text_13">
      <!-- 0.5 -->
      <g transform="translate(12.883625 211.791363662)scale(0.12 -0.12)">
       <use xlink:href="#BitstreamVeraSans-Roman-30"/>
       <use x="63.623046875" xlink:href="#BitstreamVeraSans-Roman-2e"/>
       <use x="95.41015625" xlink:href="#BitstreamVeraSans-Roman-35"/>
      </g>
     </g>
    </g>
    <g id="ytick_6">
     <g id="line2d_31">
      <g>
       <use style="stroke:#000000;stroke-width:0.5;" x="34.128" xlink:href="#m728421d6d4" y="154.258464107"/>
      </g>
     </g>
     <g id="line2d_32">
      <g>
       <use style="stroke:#000000;stroke-width:0.5;" x="200.016" xlink:href="#mcb0005524f" y="154.258464107"/>
      </g>
     </g>
     <g id="text_14">
      <!-- 1.0 -->
      <g transform="translate(13.15925 157.569714107)scale(0.12 -0.12)">
       <use xlink:href="#BitstreamVeraSans-Roman-31"/>
       <use x="63.623046875" xlink:href="#BitstreamVeraSans-Roman-2e"/>
       <use x="95.41015625" xlink:href="#BitstreamVeraSans-Roman-30"/>
      </g>
     </g>
    </g>
   </g>
  </g>
  <g id="axes_3">
   <g id="patch_12">
    <path d="
M34.128 398.332
L200.016 398.332
L200.016 279.044
L34.128 279.044
z
" style="fill:#ffffff;"/>
   </g>
   <g id="line2d_33">
    <path clip-path="url(#p2ef9f37599)" d="
M39.6576 397.011
L45.1872 393.239
L50.7168 387.551
L56.2464 380.705
L61.776 373.53
L67.3056 366.771
L72.8352 360.973
L78.3648 356.431
L83.8944 353.192
L89.424 351.117
L94.9536 349.96
L100.483 349.441
L106.013 349.306
L111.542 349.361
L117.072 349.478
L122.602 349.587
L128.131 349.658
L133.661 349.687
L139.19 349.683
L144.72 349.655
L150.25 349.615
L155.779 349.568
L161.309 349.52
L166.838 349.473
L172.368 349.427
L177.898 349.384
L183.427 349.342
L188.957 349.301
L194.486 349.262
L200.016 349.224" style="fill:none;stroke:#0000ff;stroke-linecap:square;"/>
   </g>
   <g id="line2d_34">
    <path clip-path="url(#p2ef9f37599)" d="
M39.6576 397.009
L45.1872 393.212
L50.7168 387.421
L56.2464 380.327
L61.776 372.695
L67.3056 365.235
L72.8352 358.495
L78.3648 352.814
L83.8944 348.315
L89.424 344.952
L94.9536 342.569
L100.483 340.96
L106.013 339.921
L111.542 339.276
L117.072 338.894
L122.602 338.68
L128.131 338.574
L133.661 338.535
L139.19 338.538
L144.72 338.565
L150.25 338.606
L155.779 338.652
L161.309 338.7
L166.838 338.747
L172.368 338.793
L177.898 338.837
L183.427 338.879
L188.957 338.919
L194.486 338.959
L200.016 338.997" style="fill:none;stroke:#008000;stroke-linecap:square;"/>
   </g>
   <g id="patch_13">
    <path d="
M34.128 279.044
L200.016 279.044" style="fill:none;stroke:#000000;stroke-linecap:square;stroke-linejoin:miter;"/>
   </g>
   <g id="patch_14">
    <path d="
M200.016 398.332
L200.016 279.044" style="fill:none;stroke:#000000;stroke-linecap:square;stroke-linejoin:miter;"/>
   </g>
   <g id="patch_15">
    <path d="
M34.128 398.332
L200.016 398.332" style="fill:none;stroke:#000000;stroke-linecap:square;stroke-linejoin:miter;"/>
   </g>
   <g id="patch_16">
    <path d="
M34.128 398.332
L34.128 279.044" style="fill:none;stroke:#000000;stroke-linecap:square;stroke-linejoin:miter;"/>
   </g>
   <g id="matplotlib.axis_5">
    <g id="xtick_9">
     <g id="line2d_35">
      <g>
       <use style="stroke:#000000;stroke-width:0.5;" x="34.128" xlink:href="#m93b0483c22" y="398.331797412"/>
      </g>
     </g>
     <g id="line2d_36">
      <g>
       <use style="stroke:#000000;stroke-width:0.5;" x="34.128" xlink:href="#m741efc42ff" y="279.044168392"/>
      </g>
     </g>
     <g id="text_15">
      <!-- 0 -->
      <g transform="translate(31.1045625 411.449922412)scale(0.12 -0.12)">
       <use xlink:href="#BitstreamVeraSans-Roman-30"/>
      </g>
     </g>
    </g>
    <g id="xtick_10">
     <g id="line2d_37">
      <g>
       <use style="stroke:#000000;stroke-width:0.5;" x="89.424" xlink:href="#m93b0483c22" y="398.331797412"/>
      </g>
     </g>
     <g id="line2d_38">
      <g>
       <use style="stroke:#000000;stroke-width:0.5;" x="89.424" xlink:href="#m741efc42ff" y="279.044168392"/>
      </g>
     </g>
     <g id="text_16">
      <!-- 1 -->
      <g transform="translate(86.819625 411.449922412)scale(0.12 -0.12)">
       <use xlink:href="#BitstreamVeraSans-Roman-31"/>
      </g>
     </g>
    </g>
    <g id="xtick_11">
     <g id="line2d_39">
      <g>
       <use style="stroke:#000000;stroke-width:0.5;" x="144.72" xlink:href="#m93b0483c22" y="398.331797412"/>
      </g>
     </g>
     <g id="line2d_40">
      <g>
       <use style="stroke:#000000;stroke-width:0.5;" x="144.72" xlink:href="#m741efc42ff" y="279.044168392"/>
      </g>
     </g>
     <g id="text_17">
      <!-- 2 -->
      <g transform="translate(141.943125 411.449922412)scale(0.12 -0.12)">
       <use xlink:href="#BitstreamVeraSans-Roman-32"/>
      </g>
     </g>
    </g>
    <g id="xtick_12">
     <g id="line2d_41">
      <g>
       <use style="stroke:#000000;stroke-width:0.5;" x="200.016" xlink:href="#m93b0483c22" y="398.331797412"/>
      </g>
     </g>
     <g id="line2d_42">
      <g>
       <use style="stroke:#000000;stroke-width:0.5;" x="200.016" xlink:href="#m741efc42ff" y="279.044168392"/>
      </g>
     </g>
     <g id="text_18">
      <!-- 3 -->
      <g transform="translate(197.1369375 411.449922412)scale(0.12 -0.12)">
       <use xlink:href="#BitstreamVeraSans-Roman-33"/>
      </g>
     </g>
    </g>
   </g>
   <g id="matplotlib.axis_6">
    <g id="ytick_7">
     <g id="line2d_43">
      <g>
       <use style="stroke:#000000;stroke-width:0.5;" x="34.128" xlink:href="#m728421d6d4" y="398.331797412"/>
      </g>
     </g>
     <g id="line2d_44">
      <g>
       <use style="stroke:#000000;stroke-width:0.5;" x="200.016" xlink:href="#mcb0005524f" y="398.331797412"/>
      </g>
     </g>
     <g id="text_19">
      <!-- 0.0 -->
      <g transform="translate(12.632375 401.643047412)scale(0.12 -0.12)">
       <use xlink:href="#BitstreamVeraSans-Roman-30"/>
       <use x="63.623046875" xlink:href="#BitstreamVeraSans-Roman-2e"/>
       <use x="95.41015625" xlink:href="#BitstreamVeraSans-Roman-30"/>
      </g>
     </g>
    </g>
    <g id="ytick_8">
     <g id="line2d_45">
      <g>
       <use style="stroke:#000000;stroke-width:0.5;" x="34.128" xlink:href="#m728421d6d4" y="344.110147857"/>
      </g>
     </g>
     <g id="line2d_46">
      <g>
       <use style="stroke:#000000;stroke-width:0.5;" x="200.016" xlink:href="#mcb0005524f" y="344.110147857"/>
      </g>
     </g>
     <g id="text_20">
      <!-- 0.5 -->
      <g transform="translate(12.883625 347.421397857)scale(0.12 -0.12)">
       <use xlink:href="#BitstreamVeraSans-Roman-30"/>
       <use x="63.623046875" xlink:href="#BitstreamVeraSans-Roman-2e"/>
       <use x="95.41015625" xlink:href="#BitstreamVeraSans-Roman-35"/>
      </g>
     </g>
    </g>
    <g id="ytick_9">
     <g id="line2d_47">
      <g>
       <use style="stroke:#000000;stroke-width:0.5;" x="34.128" xlink:href="#m728421d6d4" y="289.888498303"/>
      </g>
     </g>
     <g id="line2d_48">
      <g>
       <use style="stroke:#000000;stroke-width:0.5;" x="200.016" xlink:href="#mcb0005524f" y="289.888498303"/>
      </g>
     </g>
     <g id="text_21">
      <!-- 1.0 -->
      <g transform="translate(13.15925 293.199748303)scale(0.12 -0.12)">
       <use xlink:href="#BitstreamVeraSans-Roman-31"/>
       <use x="63.623046875" xlink:href="#BitstreamVeraSans-Roman-2e"/>
       <use x="95.41015625" xlink:href="#BitstreamVeraSans-Roman-30"/>
      </g>
     </g>
    </g>
   </g>
  </g>
  <g id="axes_4">
   <g id="patch_17">
    <path d="
M34.128 533.962
L200.016 533.962
L200.016 414.674
L34.128 414.674
z
" style="fill:#ffffff;"/>
   </g>
   <g id="line2d_49">
    <path clip-path="url(#p30cf9bd428)" d="
M39.6576 532.642
L45.1872 528.888
L50.7168 523.268
L56.2464 516.582
L61.776 509.687
L67.3056 503.334
L72.8352 498.046
L78.3648 494.074
L83.8944 491.42
L89.424 489.9
L94.9536 489.238
L100.483 489.14
L106.013 489.349
L111.542 489.676
L117.072 490.002
L122.602 490.266
L128.131 490.445
L133.661 490.544
L139.19 490.578
L144.72 490.565
L150.25 490.519
L155.779 490.454
L161.309 490.378
L166.838 490.297
L172.368 490.215
L177.898 490.133
L183.427 490.052
L188.957 489.974
L194.486 489.899
L200.016 489.826" style="fill:none;stroke:#0000ff;stroke-linecap:square;"/>
   </g>
   <g id="line2d_50">
    <path clip-path="url(#p30cf9bd428)" d="
M39.6576 532.638
L45.1872 528.834
L50.7168 523.013
L56.2464 515.842
L61.776 508.059
L67.3056 500.35
L72.8352 493.253
L78.3648 487.11
L83.8944 482.068
L89.424 478.118
L94.9536 475.147
L100.483 472.989
L106.013 471.472
L111.542 470.437
L117.072 469.756
L122.602 469.328
L128.131 469.078
L133.661 468.95
L139.19 468.907
L144.72 468.917
L150.25 468.962
L155.779 469.027
L161.309 469.103
L166.838 469.184
L172.368 469.266
L177.898 469.348
L183.427 469.428
L188.957 469.506
L194.486 469.582
L200.016 469.655" style="fill:none;stroke:#008000;stroke-linecap:square;"/>
   </g>
   <g id="patch_18">
    <path d="
M34.128 414.674
L200.016 414.674" style="fill:none;stroke:#000000;stroke-linecap:square;stroke-linejoin:miter;"/>
   </g>
   <g id="patch_19">
    <path d="
M200.016 533.962
L200.016 414.674" style="fill:none;stroke:#000000;stroke-linecap:square;stroke-linejoin:miter;"/>
   </g>
   <g id="patch_20">
    <path d="
M34.128 533.962
L200.016 533.962" style="fill:none;stroke:#000000;stroke-linecap:square;stroke-linejoin:miter;"/>
   </g>
   <g id="patch_21">
    <path d="
M34.128 533.962
L34.128 414.674" style="fill:none;stroke:#000000;stroke-linecap:square;stroke-linejoin:miter;"/>
   </g>
   <g id="matplotlib.axis_7">
    <g id="xtick_13">
     <g id="line2d_51">
      <g>
       <use style="stroke:#000000;stroke-width:0.5;" x="34.128" xlink:href="#m93b0483c22" y="533.961831608"/>
      </g>
     </g>
     <g id="line2d_52">
      <g>
       <use style="stroke:#000000;stroke-width:0.5;" x="34.128" xlink:href="#m741efc42ff" y="414.674202588"/>
      </g>
     </g>
     <g id="text_22">
      <!-- 0 -->
      <g transform="translate(31.1045625 547.079956608)scale(0.12 -0.12)">
       <use xlink:href="#BitstreamVeraSans-Roman-30"/>
      </g>
     </g>
    </g>
    <g id="xtick_14">
     <g id="line2d_53">
      <g>
       <use style="stroke:#000000;stroke-width:0.5;" x="89.424" xlink:href="#m93b0483c22" y="533.961831608"/>
      </g>
     </g>
     <g id="line2d_54">
      <g>
       <use style="stroke:#000000;stroke-width:0.5;" x="89.424" xlink:href="#m741efc42ff" y="414.674202588"/>
      </g>
     </g>
     <g id="text_23">
      <!-- 1 -->
      <g transform="translate(86.819625 547.079956608)scale(0.12 -0.12)">
       <use xlink:href="#BitstreamVeraSans-Roman-31"/>
      </g>
     </g>
    </g>
    <g id="xtick_15">
     <g id="line2d_55">
      <g>
       <use style="stroke:#000000;stroke-width:0.5;" x="144.72" xlink:href="#m93b0483c22" y="533.961831608"/>
      </g>
     </g>
     <g id="line2d_56">
      <g>
       <use style="stroke:#000000;stroke-width:0.5;" x="144.72" xlink:href="#m741efc42ff" y="414.674202588"/>
      </g>
     </g>
     <g id="text_24">
      <!-- 2 -->
      <g transform="translate(141.943125 547.079956608)scale(0.12 -0.12)">
       <use xlink:href="#BitstreamVeraSans-Roman-32"/>
      </g>
     </g>
    </g>
    <g id="xtick_16">
     <g id="line2d_57">
      <g>
       <use style="stroke:#000000;stroke-width:0.5;" x="200.016" xlink:href="#m93b0483c22" y="533.961831608"/>
      </g>
     </g>
     <g id="line2d_58">
      <g>
       <use style="stroke:#000000;stroke-width:0.5;" x="200.016" xlink:href="#m741efc42ff" y="414.674202588"/>
      </g>
     </g>
     <g id="text_25">
      <!-- 3 -->
      <g transform="translate(197.1369375 547.079956608)scale(0.12 -0.12)">
       <use xlink:href="#BitstreamVeraSans-Roman-33"/>
      </g>
     </g>
    </g>
   </g>
   <g id="matplotlib.axis_8">
    <g id="ytick_10">
     <g id="line2d_59">
      <g>
       <use style="stroke:#000000;stroke-width:0.5;" x="34.128" xlink:href="#m728421d6d4" y="533.961831608"/>
      </g>
     </g>
     <g id="line2d_60">
      <g>
       <use style="stroke:#000000;stroke-width:0.5;" x="200.016" xlink:href="#mcb0005524f" y="533.961831608"/>
      </g>
     </g>
     <g id="text_26">
      <!-- 0.0 -->
      <g transform="translate(12.632375 537.273081608)scale(0.12 -0.12)">
       <use xlink:href="#BitstreamVeraSans-Roman-30"/>
       <use x="63.623046875" xlink:href="#BitstreamVeraSans-Roman-2e"/>
       <use x="95.41015625" xlink:href="#BitstreamVeraSans-Roman-30"/>
      </g>
     </g>
    </g>
    <g id="ytick_11">
     <g id="line2d_61">
      <g>
       <use style="stroke:#000000;stroke-width:0.5;" x="34.128" xlink:href="#m728421d6d4" y="479.740182053"/>
      </g>
     </g>
     <g id="line2d_62">
      <g>
       <use style="stroke:#000000;stroke-width:0.5;" x="200.016" xlink:href="#mcb0005524f" y="479.740182053"/>
      </g>
     </g>
     <g id="text_27">
      <!-- 0.5 -->
      <g transform="translate(12.883625 483.051432053)scale(0.12 -0.12)">
       <use xlink:href="#BitstreamVeraSans-Roman-30"/>
       <use x="63.623046875" xlink:href="#BitstreamVeraSans-Roman-2e"/>
       <use x="95.41015625" xlink:href="#BitstreamVeraSans-Roman-35"/>
      </g>
     </g>
    </g>
    <g id="ytick_12">
     <g id="line2d_63">
      <g>
       <use style="stroke:#000000;stroke-width:0.5;" x="34.128" xlink:href="#m728421d6d4" y="425.518532499"/>
      </g>
     </g>
     <g id="line2d_64">
      <g>
       <use style="stroke:#000000;stroke-width:0.5;" x="200.016" xlink:href="#mcb0005524f" y="425.518532499"/>
      </g>
     </g>
     <g id="text_28">
      <!-- 1.0 -->
      <g transform="translate(13.15925 428.829782499)scale(0.12 -0.12)">
       <use xlink:href="#BitstreamVeraSans-Roman-31"/>
       <use x="63.623046875" xlink:href="#BitstreamVeraSans-Roman-2e"/>
       <use x="95.41015625" xlink:href="#BitstreamVeraSans-Roman-30"/>
      </g>
     </g>
    </g>
   </g>
  </g>
  <g id="axes_5">
   <g id="patch_22">
    <path d="
M34.128 669.592
L200.016 669.592
L200.016 550.304
L34.128 550.304
z
" style="fill:#ffffff;"/>
   </g>
   <g id="line2d_65">
    <path clip-path="url(#p82e833d59a)" d="
M39.6576 668.274
L45.1872 664.545
L50.7168 659.027
L56.2464 652.585
L61.776 646.128
L67.3056 640.429
L72.8352 635.993
L78.3648 633.02
L83.8944 631.438
L89.424 630.99
L94.9536 631.332
L100.483 632.123
L106.013 633.081
L111.542 634.011
L117.072 634.797
L122.602 635.395
L128.131 635.802
L133.661 636.044
L139.19 636.155
L144.72 636.17
L150.25 636.117
L155.779 636.022
L161.309 635.9
L166.838 635.765
L172.368 635.622
L177.898 635.478
L183.427 635.334
L188.957 635.194
L194.486 635.056
L200.016 634.923" style="fill:none;stroke:#0000ff;stroke-linecap:square;"/>
   </g>
   <g id="line2d_66">
    <path clip-path="url(#p82e833d59a)" d="
M39.6576 668.267
L45.1872 664.442
L50.7168 658.538
L56.2464 651.165
L61.776 643.008
L67.3056 634.722
L72.8352 626.846
L78.3648 619.756
L83.8944 613.661
L89.424 608.624
L94.9536 604.604
L100.483 601.497
L106.013 599.168
L111.542 597.476
L117.072 596.291
L122.602 595.498
L128.131 595.001
L133.661 594.72
L139.19 594.594
L144.72 594.574
L150.25 594.624
L155.779 594.719
L161.309 594.84
L166.838 594.976
L172.368 595.118
L177.898 595.263
L183.427 595.406
L188.957 595.547
L194.486 595.684
L200.016 595.817" style="fill:none;stroke:#008000;stroke-linecap:square;"/>
   </g>
   <g id="patch_23">
    <path d="
M34.128 550.304
L200.016 550.304" style="fill:none;stroke:#000000;stroke-linecap:square;stroke-linejoin:miter;"/>
   </g>
   <g id="patch_24">
    <path d="
M200.016 669.592
L200.016 550.304" style="fill:none;stroke:#000000;stroke-linecap:square;stroke-linejoin:miter;"/>
   </g>
   <g id="patch_25">
    <path d="
M34.128 669.592
L200.016 669.592" style="fill:none;stroke:#000000;stroke-linecap:square;stroke-linejoin:miter;"/>
   </g>
   <g id="patch_26">
    <path d="
M34.128 669.592
L34.128 550.304" style="fill:none;stroke:#000000;stroke-linecap:square;stroke-linejoin:miter;"/>
   </g>
   <g id="matplotlib.axis_9">
    <g id="xtick_17">
     <g id="line2d_67">
      <g>
       <use style="stroke:#000000;stroke-width:0.5;" x="34.128" xlink:href="#m93b0483c22" y="669.591865804"/>
      </g>
     </g>
     <g id="line2d_68">
      <g>
       <use style="stroke:#000000;stroke-width:0.5;" x="34.128" xlink:href="#m741efc42ff" y="550.304236784"/>
      </g>
     </g>
     <g id="text_29">
      <!-- 0 -->
      <g transform="translate(31.1045625 682.709990804)scale(0.12 -0.12)">
       <use xlink:href="#BitstreamVeraSans-Roman-30"/>
      </g>
     </g>
    </g>
    <g id="xtick_18">
     <g id="line2d_69">
      <g>
       <use style="stroke:#000000;stroke-width:0.5;" x="89.424" xlink:href="#m93b0483c22" y="669.591865804"/>
      </g>
     </g>
     <g id="line2d_70">
      <g>
       <use style="stroke:#000000;stroke-width:0.5;" x="89.424" xlink:href="#m741efc42ff" y="550.304236784"/>
      </g>
     </g>
     <g id="text_30">
      <!-- 1 -->
      <g transform="translate(86.819625 682.709990804)scale(0.12 -0.12)">
       <use xlink:href="#BitstreamVeraSans-Roman-31"/>
      </g>
     </g>
    </g>
    <g id="xtick_19">
     <g id="line2d_71">
      <g>
       <use style="stroke:#000000;stroke-width:0.5;" x="144.72" xlink:href="#m93b0483c22" y="669.591865804"/>
      </g>
     </g>
     <g id="line2d_72">
      <g>
       <use style="stroke:#000000;stroke-width:0.5;" x="144.72" xlink:href="#m741efc42ff" y="550.304236784"/>
      </g>
     </g>
     <g id="text_31">
      <!-- 2 -->
      <g transform="translate(141.943125 682.709990804)scale(0.12 -0.12)">
       <use xlink:href="#BitstreamVeraSans-Roman-32"/>
      </g>
     </g>
    </g>
    <g id="xtick_20">
     <g id="line2d_73">
      <g>
       <use style="stroke:#000000;stroke-width:0.5;" x="200.016" xlink:href="#m93b0483c22" y="669.591865804"/>
      </g>
     </g>
     <g id="line2d_74">
      <g>
       <use style="stroke:#000000;stroke-width:0.5;" x="200.016" xlink:href="#m741efc42ff" y="550.304236784"/>
      </g>
     </g>
     <g id="text_32">
      <!-- 3 -->
      <g transform="translate(197.1369375 682.709990804)scale(0.12 -0.12)">
       <use xlink:href="#BitstreamVeraSans-Roman-33"/>
      </g>
     </g>
    </g>
   </g>
   <g id="matplotlib.axis_10">
    <g id="ytick_13">
     <g id="line2d_75">
      <g>
       <use style="stroke:#000000;stroke-width:0.5;" x="34.128" xlink:href="#m728421d6d4" y="669.591865804"/>
      </g>
     </g>
     <g id="line2d_76">
      <g>
       <use style="stroke:#000000;stroke-width:0.5;" x="200.016" xlink:href="#mcb0005524f" y="669.591865804"/>
      </g>
     </g>
     <g id="text_33">
      <!-- 0.0 -->
      <g transform="translate(12.632375 672.903115804)scale(0.12 -0.12)">
       <use xlink:href="#BitstreamVeraSans-Roman-30"/>
       <use x="63.623046875" xlink:href="#BitstreamVeraSans-Roman-2e"/>
       <use x="95.41015625" xlink:href="#BitstreamVeraSans-Roman-30"/>
      </g>
     </g>
    </g>
    <g id="ytick_14">
     <g id="line2d_77">
      <g>
       <use style="stroke:#000000;stroke-width:0.5;" x="34.128" xlink:href="#m728421d6d4" y="615.370216249"/>
      </g>
     </g>
     <g id="line2d_78">
      <g>
       <use style="stroke:#000000;stroke-width:0.5;" x="200.016" xlink:href="#mcb0005524f" y="615.370216249"/>
      </g>
     </g>
     <g id="text_34">
      <!-- 0.5 -->
      <g transform="translate(12.883625 618.681466249)scale(0.12 -0.12)">
       <use xlink:href="#BitstreamVeraSans-Roman-30"/>
       <use x="63.623046875" xlink:href="#BitstreamVeraSans-Roman-2e"/>
       <use x="95.41015625" xlink:href="#BitstreamVeraSans-Roman-35"/>
      </g>
     </g>
    </g>
    <g id="ytick_15">
     <g id="line2d_79">
      <g>
       <use style="stroke:#000000;stroke-width:0.5;" x="34.128" xlink:href="#m728421d6d4" y="561.148566695"/>
      </g>
     </g>
     <g id="line2d_80">
      <g>
       <use style="stroke:#000000;stroke-width:0.5;" x="200.016" xlink:href="#mcb0005524f" y="561.148566695"/>
      </g>
     </g>
     <g id="text_35">
      <!-- 1.0 -->
      <g transform="translate(13.15925 564.459816695)scale(0.12 -0.12)">
       <use xlink:href="#BitstreamVeraSans-Roman-31"/>
       <use x="63.623046875" xlink:href="#BitstreamVeraSans-Roman-2e"/>
       <use x="95.41015625" xlink:href="#BitstreamVeraSans-Roman-30"/>
      </g>
     </g>
    </g>
   </g>
  </g>
  <g id="axes_6">
   <g id="patch_27">
    <path d="
M34.128 805.222
L200.016 805.222
L200.016 685.934
L34.128 685.934
z
" style="fill:#ffffff;"/>
   </g>
   <g id="line2d_81">
    <path clip-path="url(#pfc8e00859a)" d="
M39.6576 803.905
L45.1872 800.197
L50.7168 794.763
L56.2464 788.521
L61.776 782.427
L67.3056 777.274
L72.8352 773.558
L78.3648 771.437
L83.8944 770.782
L89.424 771.269
L94.9536 772.498
L100.483 774.082
L106.013 775.716
L111.542 777.19
L117.072 778.397
L122.602 779.304
L128.131 779.926
L133.661 780.308
L139.19 780.501
L144.72 780.555
L150.25 780.513
L155.779 780.406
L161.309 780.26
L166.838 780.091
L172.368 779.91
L177.898 779.725
L183.427 779.539
L188.957 779.357
L194.486 779.18
L200.016 779.007" style="fill:none;stroke:#0000ff;stroke-linecap:square;"/>
   </g>
   <g id="line2d_82">
    <path clip-path="url(#pfc8e00859a)" d="
M39.6576 803.896
L45.1872 800.052
L50.7168 794.071
L56.2464 786.511
L61.776 778.012
L67.3056 769.205
L72.8352 760.633
L78.3648 752.708
L83.8944 745.691
L89.424 739.714
L94.9536 734.793
L100.483 730.873
L106.013 727.849
L111.542 725.595
L117.072 723.975
L122.602 722.864
L128.131 722.145
L133.661 721.721
L139.19 721.51
L144.72 721.449
L150.25 721.489
L155.779 721.595
L161.309 721.741
L166.838 721.91
L172.368 722.091
L177.898 722.276
L183.427 722.461
L188.957 722.643
L194.486 722.821
L200.016 722.994" style="fill:none;stroke:#008000;stroke-linecap:square;"/>
   </g>
   <g id="patch_28">
    <path d="
M34.128 685.934
L200.016 685.934" style="fill:none;stroke:#000000;stroke-linecap:square;stroke-linejoin:miter;"/>
   </g>
   <g id="patch_29">
    <path d="
M200.016 805.222
L200.016 685.934" style="fill:none;stroke:#000000;stroke-linecap:square;stroke-linejoin:miter;"/>
   </g>
   <g id="patch_30">
    <path d="
M34.128 805.222
L200.016 805.222" style="fill:none;stroke:#000000;stroke-linecap:square;stroke-linejoin:miter;"/>
   </g>
   <g id="patch_31">
    <path d="
M34.128 805.222
L34.128 685.934" style="fill:none;stroke:#000000;stroke-linecap:square;stroke-linejoin:miter;"/>
   </g>
   <g id="matplotlib.axis_11">
    <g id="xtick_21">
     <g id="line2d_83">
      <g>
       <use style="stroke:#000000;stroke-width:0.5;" x="34.128" xlink:href="#m93b0483c22" y="805.2219"/>
      </g>
     </g>
     <g id="line2d_84">
      <g>
       <use style="stroke:#000000;stroke-width:0.5;" x="34.128" xlink:href="#m741efc42ff" y="685.93427098"/>
      </g>
     </g>
     <g id="text_36">
      <!-- 0 -->
      <g transform="translate(31.1045625 818.340025)scale(0.12 -0.12)">
       <use xlink:href="#BitstreamVeraSans-Roman-30"/>
      </g>
     </g>
    </g>
    <g id="xtick_22">
     <g id="line2d_85">
      <g>
       <use style="stroke:#000000;stroke-width:0.5;" x="89.424" xlink:href="#m93b0483c22" y="805.2219"/>
      </g>
     </g>
     <g id="line2d_86">
      <g>
       <use style="stroke:#000000;stroke-width:0.5;" x="89.424" xlink:href="#m741efc42ff" y="685.93427098"/>
      </g>
     </g>
     <g id="text_37">
      <!-- 1 -->
      <g transform="translate(86.819625 818.340025)scale(0.12 -0.12)">
       <use xlink:href="#BitstreamVeraSans-Roman-31"/>
      </g>
     </g>
    </g>
    <g id="xtick_23">
     <g id="line2d_87">
      <g>
       <use style="stroke:#000000;stroke-width:0.5;" x="144.72" xlink:href="#m93b0483c22" y="805.2219"/>
      </g>
     </g>
     <g id="line2d_88">
      <g>
       <use style="stroke:#000000;stroke-width:0.5;" x="144.72" xlink:href="#m741efc42ff" y="685.93427098"/>
      </g>
     </g>
     <g id="text_38">
      <!-- 2 -->
      <g transform="translate(141.943125 818.340025)scale(0.12 -0.12)">
       <use xlink:href="#BitstreamVeraSans-Roman-32"/>
      </g>
     </g>
    </g>
    <g id="xtick_24">
     <g id="line2d_89">
      <g>
       <use style="stroke:#000000;stroke-width:0.5;" x="200.016" xlink:href="#m93b0483c22" y="805.2219"/>
      </g>
     </g>
     <g id="line2d_90">
      <g>
       <use style="stroke:#000000;stroke-width:0.5;" x="200.016" xlink:href="#m741efc42ff" y="685.93427098"/>
      </g>
     </g>
     <g id="text_39">
      <!-- 3 -->
      <g transform="translate(197.1369375 818.340025)scale(0.12 -0.12)">
       <use xlink:href="#BitstreamVeraSans-Roman-33"/>
      </g>
     </g>
    </g>
   </g>
   <g id="matplotlib.axis_12">
    <g id="ytick_16">
     <g id="line2d_91">
      <g>
       <use style="stroke:#000000;stroke-width:0.5;" x="34.128" xlink:href="#m728421d6d4" y="805.2219"/>
      </g>
     </g>
     <g id="line2d_92">
      <g>
       <use style="stroke:#000000;stroke-width:0.5;" x="200.016" xlink:href="#mcb0005524f" y="805.2219"/>
      </g>
     </g>
     <g id="text_40">
      <!-- 0.0 -->
      <g transform="translate(12.632375 808.53315)scale(0.12 -0.12)">
       <use xlink:href="#BitstreamVeraSans-Roman-30"/>
       <use x="63.623046875" xlink:href="#BitstreamVeraSans-Roman-2e"/>
       <use x="95.41015625" xlink:href="#BitstreamVeraSans-Roman-30"/>
      </g>
     </g>
    </g>
    <g id="ytick_17">
     <g id="line2d_93">
      <g>
       <use style="stroke:#000000;stroke-width:0.5;" x="34.128" xlink:href="#m728421d6d4" y="751.000250445"/>
      </g>
     </g>
     <g id="line2d_94">
      <g>
       <use style="stroke:#000000;stroke-width:0.5;" x="200.016" xlink:href="#mcb0005524f" y="751.000250445"/>
      </g>
     </g>
     <g id="text_41">
      <!-- 0.5 -->
      <g transform="translate(12.883625 754.311500445)scale(0.12 -0.12)">
       <use xlink:href="#BitstreamVeraSans-Roman-30"/>
       <use x="63.623046875" xlink:href="#BitstreamVeraSans-Roman-2e"/>
       <use x="95.41015625" xlink:href="#BitstreamVeraSans-Roman-35"/>
      </g>
     </g>
    </g>
    <g id="ytick_18">
     <g id="line2d_95">
      <g>
       <use style="stroke:#000000;stroke-width:0.5;" x="34.128" xlink:href="#m728421d6d4" y="696.778600891"/>
      </g>
     </g>
     <g id="line2d_96">
      <g>
       <use style="stroke:#000000;stroke-width:0.5;" x="200.016" xlink:href="#mcb0005524f" y="696.778600891"/>
      </g>
     </g>
     <g id="text_42">
      <!-- 1.0 -->
      <g transform="translate(13.15925 700.089850891)scale(0.12 -0.12)">
       <use xlink:href="#BitstreamVeraSans-Roman-31"/>
       <use x="63.623046875" xlink:href="#BitstreamVeraSans-Roman-2e"/>
       <use x="95.41015625" xlink:href="#BitstreamVeraSans-Roman-30"/>
      </g>
     </g>
    </g>
   </g>
   <g id="legend_1">
    <g id="patch_32">
     <path d="
M48.942 849.807
L185.202 849.807
L185.202 824.351
L48.942 824.351
z
" style="fill:#ffffff;stroke:#000000;stroke-linejoin:miter;"/>
    </g>
    <g id="line2d_97">
     <path d="
M59.022 836.012
L79.182 836.012" style="fill:none;stroke:#0000ff;stroke-linecap:square;"/>
    </g>
    <g id="line2d_98"/>
    <g id="text_43">
     <!-- x -->
     <defs>
      <path d="
M54.8906 54.6875
L35.1094 28.0781
L55.9062 0
L45.3125 0
L29.3906 21.4844
L13.4844 0
L2.875 0
L24.125 28.6094
L4.6875 54.6875
L15.2812 54.6875
L29.7812 35.2031
L44.2812 54.6875
z
" id="BitstreamVeraSans-Roman-78"/>
     </defs>
     <g transform="translate(95.022 841.052412902)scale(0.144 -0.144)">
      <use xlink:href="#BitstreamVeraSans-Roman-78"/>
     </g>
    </g>
    <g id="line2d_99">
     <path d="
M135.779 836.012
L155.939 836.012" style="fill:none;stroke:#008000;stroke-linecap:square;"/>
    </g>
    <g id="line2d_100"/>
    <g id="text_44">
     <!-- y -->
     <defs>
      <path d="
M32.1719 -5.07812
Q28.375 -14.8438 24.75 -17.8125
Q21.1406 -20.7969 15.0938 -20.7969
L7.90625 -20.7969
L7.90625 -13.2812
L13.1875 -13.2812
Q16.8906 -13.2812 18.9375 -11.5156
Q21 -9.76562 23.4844 -3.21875
L25.0938 0.875
L2.98438 54.6875
L12.5 54.6875
L29.5938 11.9219
L46.6875 54.6875
L56.2031 54.6875
z
" id="BitstreamVeraSans-Roman-79"/>
     </defs>
     <g transform="translate(171.7785 841.052412902)scale(0.144 -0.144)">
      <use xlink:href="#BitstreamVeraSans-Roman-79"/>
     </g>
    </g>
   </g>
  </g>
 </g>
 <defs>
  <clipPath id="p2ef9f37599">
   <rect height="119.28762902" width="165.888" x="34.128" y="279.044168392"/>
  </clipPath>
  <clipPath id="p30cf9bd428">
   <rect height="119.28762902" width="165.888" x="34.128" y="414.674202588"/>
  </clipPath>
  <clipPath id="p8d00302a0f">
   <rect height="119.28762902" width="165.888" x="34.128" y="7.7841"/>
  </clipPath>
  <clipPath id="p82e833d59a">
   <rect height="119.28762902" width="165.888" x="34.128" y="550.304236784"/>
  </clipPath>
  <clipPath id="p3071ab0c1d">
   <rect height="119.28762902" width="165.888" x="34.128" y="143.414134196"/>
  </clipPath>
  <clipPath id="pfc8e00859a">
   <rect height="119.28762902" width="165.888" x="34.128" y="685.93427098"/>
  </clipPath>
 </defs>
</svg>
