<?xml version="1.0" encoding="utf-8" standalone="no"?>
<!DOCTYPE svg PUBLIC "-//W3C//DTD SVG 1.1//EN"
  "http://www.w3.org/Graphics/SVG/1.1/DTD/svg11.dtd">
<!-- Created with matplotlib (http://matplotlib.org/) -->
<svg height="378pt" version="1.1" viewBox="0 0 504 378" width="504pt" xmlns="http://www.w3.org/2000/svg" xmlns:xlink="http://www.w3.org/1999/xlink">
 <defs>
  <style type="text/css">
*{stroke-linecap:butt;stroke-linejoin:round;stroke-miterlimit:100000;}
  </style>
 </defs>
 <g id="figure_1">
  <g id="patch_1">
   <path d="M 0 378 
L 504 378 
L 504 0 
L 0 0 
z
" style="fill:#ffffff;"/>
  </g>
  <g id="axes_1">
   <g id="patch_2">
    <path d="M 100.8 321.3 
L 453.6 321.3 
L 453.6 37.8 
L 100.8 37.8 
z
" style="fill:#ffffff;"/>
   </g>
   <g id="line2d_1">
    <path clip-path="url(#pefff8b1715)" d="M 141.372 321.3 
L 154.224 321.3 
L 169.596 321.3 
L 188.244 321.3 
L 211.932 232.062712 
L 242.172 207.350847 
L 282.492 178.520339 
L 338.94 133.215254 
L 423.864 67.316949 
" style="fill:none;stroke:#0000ff;stroke-linecap:square;stroke-width:1.5;"/>
    <defs>
     <path d="M 0 5 
C 1.326016 5 2.597899 4.473168 3.535534 3.535534 
C 4.473168 2.597899 5 1.326016 5 0 
C 5 -1.326016 4.473168 -2.597899 3.535534 -3.535534 
C 2.597899 -4.473168 1.326016 -5 0 -5 
C -1.326016 -5 -2.597899 -4.473168 -3.535534 -3.535534 
C -4.473168 -2.597899 -5 -1.326016 -5 0 
C -5 1.326016 -4.473168 2.597899 -3.535534 3.535534 
C -2.597899 4.473168 -1.326016 5 0 5 
z
" id="ma28413ae3b" style="stroke:#000000;stroke-width:0.5;"/>
    </defs>
    <g clip-path="url(#pefff8b1715)">
     <use style="fill:#0000ff;stroke:#000000;stroke-width:0.5;" x="141.372" xlink:href="#ma28413ae3b" y="321.3"/>
     <use style="fill:#0000ff;stroke:#000000;stroke-width:0.5;" x="154.224" xlink:href="#ma28413ae3b" y="321.3"/>
     <use style="fill:#0000ff;stroke:#000000;stroke-width:0.5;" x="169.596" xlink:href="#ma28413ae3b" y="321.3"/>
     <use style="fill:#0000ff;stroke:#000000;stroke-width:0.5;" x="188.24400000000003" xlink:href="#ma28413ae3b" y="321.3"/>
     <use style="fill:#0000ff;stroke:#000000;stroke-width:0.5;" x="211.93199999999996" xlink:href="#ma28413ae3b" y="232.0627118644068"/>
     <use style="fill:#0000ff;stroke:#000000;stroke-width:0.5;" x="242.17200000000003" xlink:href="#ma28413ae3b" y="207.35084745762714"/>
     <use style="fill:#0000ff;stroke:#000000;stroke-width:0.5;" x="282.49199999999996" xlink:href="#ma28413ae3b" y="178.52033898305083"/>
     <use style="fill:#0000ff;stroke:#000000;stroke-width:0.5;" x="338.94" xlink:href="#ma28413ae3b" y="133.21525423728815"/>
     <use style="fill:#0000ff;stroke:#000000;stroke-width:0.5;" x="423.8639999999999" xlink:href="#ma28413ae3b" y="67.31694915254238"/>
    </g>
   </g>
   <g id="patch_3">
    <path d="M 100.8 37.8 
L 453.6 37.8 
" style="fill:none;stroke:#000000;stroke-linecap:square;stroke-linejoin:miter;stroke-width:1.5;"/>
   </g>
   <g id="patch_4">
    <path d="M 453.6 321.3 
L 453.6 37.8 
" style="fill:none;stroke:#000000;stroke-linecap:square;stroke-linejoin:miter;stroke-width:1.5;"/>
   </g>
   <g id="patch_5">
    <path d="M 100.8 321.3 
L 453.6 321.3 
" style="fill:none;stroke:#000000;stroke-linecap:square;stroke-linejoin:miter;stroke-width:1.5;"/>
   </g>
   <g id="patch_6">
    <path d="M 100.8 321.3 
L 100.8 37.8 
" style="fill:none;stroke:#000000;stroke-linecap:square;stroke-linejoin:miter;stroke-width:1.5;"/>
   </g>
   <g id="matplotlib.axis_1">
    <g id="xtick_1">
     <g id="line2d_2">
      <defs>
       <path d="M 0 0 
L 0 -10 
" id="mb4156fae75" style="stroke:#000000;stroke-width:1.5;"/>
      </defs>
      <g>
       <use style="stroke:#000000;stroke-width:1.5;" x="100.80000000000001" xlink:href="#mb4156fae75" y="321.3"/>
      </g>
     </g>
     <g id="line2d_3">
      <defs>
       <path d="M 0 0 
L 0 10 
" id="mf0ff343867" style="stroke:#000000;stroke-width:1.5;"/>
      </defs>
      <g>
       <use style="stroke:#000000;stroke-width:1.5;" x="100.80000000000001" xlink:href="#mf0ff343867" y="37.80000000000001"/>
      </g>
     </g>
     <g id="text_1">
      <!-- 0.0004 -->
      <defs>
       <path d="M 31.78125 66.40625 
Q 24.171875 66.40625 20.328125 58.90625 
Q 16.5 51.421875 16.5 36.375 
Q 16.5 21.390625 20.328125 13.890625 
Q 24.171875 6.390625 31.78125 6.390625 
Q 39.453125 6.390625 43.28125 13.890625 
Q 47.125 21.390625 47.125 36.375 
Q 47.125 51.421875 43.28125 58.90625 
Q 39.453125 66.40625 31.78125 66.40625 
M 31.78125 74.21875 
Q 44.046875 74.21875 50.515625 64.515625 
Q 56.984375 54.828125 56.984375 36.375 
Q 56.984375 17.96875 50.515625 8.265625 
Q 44.046875 -1.421875 31.78125 -1.421875 
Q 19.53125 -1.421875 13.0625 8.265625 
Q 6.59375 17.96875 6.59375 36.375 
Q 6.59375 54.828125 13.0625 64.515625 
Q 19.53125 74.21875 31.78125 74.21875 
" id="BitstreamVeraSans-Roman-30"/>
       <path d="M 10.6875 12.40625 
L 21 12.40625 
L 21 0 
L 10.6875 0 
z
" id="BitstreamVeraSans-Roman-2e"/>
       <path d="M 37.796875 64.3125 
L 12.890625 25.390625 
L 37.796875 25.390625 
z
M 35.203125 72.90625 
L 47.609375 72.90625 
L 47.609375 25.390625 
L 58.015625 25.390625 
L 58.015625 17.1875 
L 47.609375 17.1875 
L 47.609375 0 
L 37.796875 0 
L 37.796875 17.1875 
L 4.890625 17.1875 
L 4.890625 26.703125 
z
" id="BitstreamVeraSans-Roman-34"/>
      </defs>
      <g transform="translate(79.80562500000002 334.418125)scale(0.12 -0.12)">
       <use xlink:href="#BitstreamVeraSans-Roman-30"/>
       <use x="63.623046875" xlink:href="#BitstreamVeraSans-Roman-2e"/>
       <use x="95.41015625" xlink:href="#BitstreamVeraSans-Roman-30"/>
       <use x="159.033203125" xlink:href="#BitstreamVeraSans-Roman-30"/>
       <use x="222.65625" xlink:href="#BitstreamVeraSans-Roman-30"/>
       <use x="286.279296875" xlink:href="#BitstreamVeraSans-Roman-34"/>
      </g>
     </g>
    </g>
    <g id="xtick_2">
     <g id="line2d_4">
      <g>
       <use style="stroke:#000000;stroke-width:1.5;" x="151.2" xlink:href="#mb4156fae75" y="321.3"/>
      </g>
     </g>
     <g id="line2d_5">
      <g>
       <use style="stroke:#000000;stroke-width:1.5;" x="151.2" xlink:href="#mf0ff343867" y="37.80000000000001"/>
      </g>
     </g>
     <g id="text_2">
      <!-- 0.0006 -->
      <defs>
       <path d="M 33.015625 40.375 
Q 26.375 40.375 22.484375 35.828125 
Q 18.609375 31.296875 18.609375 23.390625 
Q 18.609375 15.53125 22.484375 10.953125 
Q 26.375 6.390625 33.015625 6.390625 
Q 39.65625 6.390625 43.53125 10.953125 
Q 47.40625 15.53125 47.40625 23.390625 
Q 47.40625 31.296875 43.53125 35.828125 
Q 39.65625 40.375 33.015625 40.375 
M 52.59375 71.296875 
L 52.59375 62.3125 
Q 48.875 64.0625 45.09375 64.984375 
Q 41.3125 65.921875 37.59375 65.921875 
Q 27.828125 65.921875 22.671875 59.328125 
Q 17.53125 52.734375 16.796875 39.40625 
Q 19.671875 43.65625 24.015625 45.921875 
Q 28.375 48.1875 33.59375 48.1875 
Q 44.578125 48.1875 50.953125 41.515625 
Q 57.328125 34.859375 57.328125 23.390625 
Q 57.328125 12.15625 50.6875 5.359375 
Q 44.046875 -1.421875 33.015625 -1.421875 
Q 20.359375 -1.421875 13.671875 8.265625 
Q 6.984375 17.96875 6.984375 36.375 
Q 6.984375 53.65625 15.1875 63.9375 
Q 23.390625 74.21875 37.203125 74.21875 
Q 40.921875 74.21875 44.703125 73.484375 
Q 48.484375 72.75 52.59375 71.296875 
" id="BitstreamVeraSans-Roman-36"/>
      </defs>
      <g transform="translate(130.205625 334.418125)scale(0.12 -0.12)">
       <use xlink:href="#BitstreamVeraSans-Roman-30"/>
       <use x="63.623046875" xlink:href="#BitstreamVeraSans-Roman-2e"/>
       <use x="95.41015625" xlink:href="#BitstreamVeraSans-Roman-30"/>
       <use x="159.033203125" xlink:href="#BitstreamVeraSans-Roman-30"/>
       <use x="222.65625" xlink:href="#BitstreamVeraSans-Roman-30"/>
       <use x="286.279296875" xlink:href="#BitstreamVeraSans-Roman-36"/>
      </g>
     </g>
    </g>
    <g id="xtick_3">
     <g id="line2d_6">
      <g>
       <use style="stroke:#000000;stroke-width:1.5;" x="201.60000000000002" xlink:href="#mb4156fae75" y="321.3"/>
      </g>
     </g>
     <g id="line2d_7">
      <g>
       <use style="stroke:#000000;stroke-width:1.5;" x="201.60000000000002" xlink:href="#mf0ff343867" y="37.80000000000001"/>
      </g>
     </g>
     <g id="text_3">
      <!-- 0.0008 -->
      <defs>
       <path d="M 31.78125 34.625 
Q 24.75 34.625 20.71875 30.859375 
Q 16.703125 27.09375 16.703125 20.515625 
Q 16.703125 13.921875 20.71875 10.15625 
Q 24.75 6.390625 31.78125 6.390625 
Q 38.8125 6.390625 42.859375 10.171875 
Q 46.921875 13.96875 46.921875 20.515625 
Q 46.921875 27.09375 42.890625 30.859375 
Q 38.875 34.625 31.78125 34.625 
M 21.921875 38.8125 
Q 15.578125 40.375 12.03125 44.71875 
Q 8.5 49.078125 8.5 55.328125 
Q 8.5 64.0625 14.71875 69.140625 
Q 20.953125 74.21875 31.78125 74.21875 
Q 42.671875 74.21875 48.875 69.140625 
Q 55.078125 64.0625 55.078125 55.328125 
Q 55.078125 49.078125 51.53125 44.71875 
Q 48 40.375 41.703125 38.8125 
Q 48.828125 37.15625 52.796875 32.3125 
Q 56.78125 27.484375 56.78125 20.515625 
Q 56.78125 9.90625 50.3125 4.234375 
Q 43.84375 -1.421875 31.78125 -1.421875 
Q 19.734375 -1.421875 13.25 4.234375 
Q 6.78125 9.90625 6.78125 20.515625 
Q 6.78125 27.484375 10.78125 32.3125 
Q 14.796875 37.15625 21.921875 38.8125 
M 18.3125 54.390625 
Q 18.3125 48.734375 21.84375 45.5625 
Q 25.390625 42.390625 31.78125 42.390625 
Q 38.140625 42.390625 41.71875 45.5625 
Q 45.3125 48.734375 45.3125 54.390625 
Q 45.3125 60.0625 41.71875 63.234375 
Q 38.140625 66.40625 31.78125 66.40625 
Q 25.390625 66.40625 21.84375 63.234375 
Q 18.3125 60.0625 18.3125 54.390625 
" id="BitstreamVeraSans-Roman-38"/>
      </defs>
      <g transform="translate(180.60562500000003 334.418125)scale(0.12 -0.12)">
       <use xlink:href="#BitstreamVeraSans-Roman-30"/>
       <use x="63.623046875" xlink:href="#BitstreamVeraSans-Roman-2e"/>
       <use x="95.41015625" xlink:href="#BitstreamVeraSans-Roman-30"/>
       <use x="159.033203125" xlink:href="#BitstreamVeraSans-Roman-30"/>
       <use x="222.65625" xlink:href="#BitstreamVeraSans-Roman-30"/>
       <use x="286.279296875" xlink:href="#BitstreamVeraSans-Roman-38"/>
      </g>
     </g>
    </g>
    <g id="xtick_4">
     <g id="line2d_8">
      <g>
       <use style="stroke:#000000;stroke-width:1.5;" x="252.0" xlink:href="#mb4156fae75" y="321.3"/>
      </g>
     </g>
     <g id="line2d_9">
      <g>
       <use style="stroke:#000000;stroke-width:1.5;" x="252.0" xlink:href="#mf0ff343867" y="37.80000000000001"/>
      </g>
     </g>
     <g id="text_4">
      <!-- 0.0010 -->
      <defs>
       <path d="M 12.40625 8.296875 
L 28.515625 8.296875 
L 28.515625 63.921875 
L 10.984375 60.40625 
L 10.984375 69.390625 
L 28.421875 72.90625 
L 38.28125 72.90625 
L 38.28125 8.296875 
L 54.390625 8.296875 
L 54.390625 0 
L 12.40625 0 
z
" id="BitstreamVeraSans-Roman-31"/>
      </defs>
      <g transform="translate(231.005625 334.418125)scale(0.12 -0.12)">
       <use xlink:href="#BitstreamVeraSans-Roman-30"/>
       <use x="63.623046875" xlink:href="#BitstreamVeraSans-Roman-2e"/>
       <use x="95.41015625" xlink:href="#BitstreamVeraSans-Roman-30"/>
       <use x="159.033203125" xlink:href="#BitstreamVeraSans-Roman-30"/>
       <use x="222.65625" xlink:href="#BitstreamVeraSans-Roman-31"/>
       <use x="286.279296875" xlink:href="#BitstreamVeraSans-Roman-30"/>
      </g>
     </g>
    </g>
    <g id="xtick_5">
     <g id="line2d_10">
      <g>
       <use style="stroke:#000000;stroke-width:1.5;" x="302.4" xlink:href="#mb4156fae75" y="321.3"/>
      </g>
     </g>
     <g id="line2d_11">
      <g>
       <use style="stroke:#000000;stroke-width:1.5;" x="302.4" xlink:href="#mf0ff343867" y="37.80000000000001"/>
      </g>
     </g>
     <g id="text_5">
      <!-- 0.0012 -->
      <defs>
       <path d="M 19.1875 8.296875 
L 53.609375 8.296875 
L 53.609375 0 
L 7.328125 0 
L 7.328125 8.296875 
Q 12.9375 14.109375 22.625 23.890625 
Q 32.328125 33.6875 34.8125 36.53125 
Q 39.546875 41.84375 41.421875 45.53125 
Q 43.3125 49.21875 43.3125 52.78125 
Q 43.3125 58.59375 39.234375 62.25 
Q 35.15625 65.921875 28.609375 65.921875 
Q 23.96875 65.921875 18.8125 64.3125 
Q 13.671875 62.703125 7.8125 59.421875 
L 7.8125 69.390625 
Q 13.765625 71.78125 18.9375 73 
Q 24.125 74.21875 28.421875 74.21875 
Q 39.75 74.21875 46.484375 68.546875 
Q 53.21875 62.890625 53.21875 53.421875 
Q 53.21875 48.921875 51.53125 44.890625 
Q 49.859375 40.875 45.40625 35.40625 
Q 44.1875 33.984375 37.640625 27.21875 
Q 31.109375 20.453125 19.1875 8.296875 
" id="BitstreamVeraSans-Roman-32"/>
      </defs>
      <g transform="translate(281.405625 334.418125)scale(0.12 -0.12)">
       <use xlink:href="#BitstreamVeraSans-Roman-30"/>
       <use x="63.623046875" xlink:href="#BitstreamVeraSans-Roman-2e"/>
       <use x="95.41015625" xlink:href="#BitstreamVeraSans-Roman-30"/>
       <use x="159.033203125" xlink:href="#BitstreamVeraSans-Roman-30"/>
       <use x="222.65625" xlink:href="#BitstreamVeraSans-Roman-31"/>
       <use x="286.279296875" xlink:href="#BitstreamVeraSans-Roman-32"/>
      </g>
     </g>
    </g>
    <g id="xtick_6">
     <g id="line2d_12">
      <g>
       <use style="stroke:#000000;stroke-width:1.5;" x="352.79999999999995" xlink:href="#mb4156fae75" y="321.3"/>
      </g>
     </g>
     <g id="line2d_13">
      <g>
       <use style="stroke:#000000;stroke-width:1.5;" x="352.79999999999995" xlink:href="#mf0ff343867" y="37.80000000000001"/>
      </g>
     </g>
     <g id="text_6">
      <!-- 0.0014 -->
      <g transform="translate(331.80562499999996 334.418125)scale(0.12 -0.12)">
       <use xlink:href="#BitstreamVeraSans-Roman-30"/>
       <use x="63.623046875" xlink:href="#BitstreamVeraSans-Roman-2e"/>
       <use x="95.41015625" xlink:href="#BitstreamVeraSans-Roman-30"/>
       <use x="159.033203125" xlink:href="#BitstreamVeraSans-Roman-30"/>
       <use x="222.65625" xlink:href="#BitstreamVeraSans-Roman-31"/>
       <use x="286.279296875" xlink:href="#BitstreamVeraSans-Roman-34"/>
      </g>
     </g>
    </g>
    <g id="xtick_7">
     <g id="line2d_14">
      <g>
       <use style="stroke:#000000;stroke-width:1.5;" x="403.2" xlink:href="#mb4156fae75" y="321.3"/>
      </g>
     </g>
     <g id="line2d_15">
      <g>
       <use style="stroke:#000000;stroke-width:1.5;" x="403.2" xlink:href="#mf0ff343867" y="37.80000000000001"/>
      </g>
     </g>
     <g id="text_7">
      <!-- 0.0016 -->
      <g transform="translate(382.205625 334.418125)scale(0.12 -0.12)">
       <use xlink:href="#BitstreamVeraSans-Roman-30"/>
       <use x="63.623046875" xlink:href="#BitstreamVeraSans-Roman-2e"/>
       <use x="95.41015625" xlink:href="#BitstreamVeraSans-Roman-30"/>
       <use x="159.033203125" xlink:href="#BitstreamVeraSans-Roman-30"/>
       <use x="222.65625" xlink:href="#BitstreamVeraSans-Roman-31"/>
       <use x="286.279296875" xlink:href="#BitstreamVeraSans-Roman-36"/>
      </g>
     </g>
    </g>
    <g id="xtick_8">
     <g id="line2d_16">
      <g>
       <use style="stroke:#000000;stroke-width:1.5;" x="453.5999999999999" xlink:href="#mb4156fae75" y="321.3"/>
      </g>
     </g>
     <g id="line2d_17">
      <g>
       <use style="stroke:#000000;stroke-width:1.5;" x="453.5999999999999" xlink:href="#mf0ff343867" y="37.80000000000001"/>
      </g>
     </g>
     <g id="text_8">
      <!-- 0.0018 -->
      <g transform="translate(432.6056249999999 334.418125)scale(0.12 -0.12)">
       <use xlink:href="#BitstreamVeraSans-Roman-30"/>
       <use x="63.623046875" xlink:href="#BitstreamVeraSans-Roman-2e"/>
       <use x="95.41015625" xlink:href="#BitstreamVeraSans-Roman-30"/>
       <use x="159.033203125" xlink:href="#BitstreamVeraSans-Roman-30"/>
       <use x="222.65625" xlink:href="#BitstreamVeraSans-Roman-31"/>
       <use x="286.279296875" xlink:href="#BitstreamVeraSans-Roman-38"/>
      </g>
     </g>
    </g>
    <g id="text_9">
     <!-- $\hbar \omega_c$ -->
     <defs>
      <path d="M 50 40 
L 54.40625 45.40625 
Q 58.796875 43.90625 61.1875 39.203125 
Q 63.59375 34.5 63.59375 28.5 
Q 63.59375 25.296875 62.796875 21.796875 
Q 60.09375 10.703125 53.75 4.84375 
Q 47.40625 -1 40.59375 -1 
Q 36.90625 -1 34.296875 1.296875 
Q 31.703125 3.59375 30.90625 7.703125 
Q 28.09375 3.59375 24.390625 1.296875 
Q 20.703125 -1 17 -1 
Q 11.59375 -1 8.296875 2.390625 
Q 5 5.796875 5 12.796875 
Q 5 18.703125 7.546875 25.390625 
Q 10.09375 32.09375 15.140625 37.84375 
Q 20.203125 43.59375 26.40625 45.40625 
L 28 40 
L 27.703125 38.59375 
Q 23.703125 36.90625 20.640625 33.703125 
Q 17.59375 30.5 16.046875 26.890625 
Q 14.5 23.296875 13.75 20.09375 
Q 13 16.90625 13 14.203125 
Q 13 10 14.703125 8.046875 
Q 16.40625 6.09375 18.796875 6.09375 
Q 21.796875 6.09375 25.1875 10.140625 
Q 28.59375 14.203125 30.703125 22.296875 
L 33.296875 32.5 
L 41.09375 35.5 
L 41.59375 34.796875 
L 38.5 22.296875 
Q 37.40625 17.90625 37.40625 14.296875 
Q 37.40625 10.203125 38.84375 8.140625 
Q 40.296875 6.09375 42.40625 6.09375 
Q 45.796875 6.09375 49.296875 9.6875 
Q 52.796875 13.296875 54.796875 21.296875 
Q 55.59375 24.296875 55.59375 27.203125 
Q 55.59375 35.296875 49.703125 38.59375 
z
" id="STIXNonUnicode-Italic-e1f0"/>
      <path d="M 50.296875 37.09375 
L 44.59375 31.703125 
L 43 31.703125 
Q 41.59375 39.203125 33.5 39.203125 
Q 27.09375 39.203125 21.046875 33.09375 
Q 15 27 15 16.90625 
Q 15 11.796875 17.84375 8.9375 
Q 20.703125 6.09375 25.296875 6.09375 
Q 33.40625 6.09375 40.796875 16.59375 
L 46.40625 13.203125 
Q 36.796875 -1 22.90625 -1 
Q 15.5 -1 11.09375 3.203125 
Q 6.703125 7.40625 6.703125 15 
Q 6.703125 28 15.890625 37.140625 
Q 25.09375 46.296875 35.703125 46.296875 
Q 41.203125 46.296875 45.140625 44 
Q 49.09375 41.703125 50.296875 37.09375 
" id="STIXGeneral-Italic-1d624"/>
      <path d="M 46.5 11.796875 
L 47.796875 10.5 
Q 43.203125 4 40.09375 1.546875 
Q 37 -0.90625 33.203125 -0.90625 
Q 31.203125 -0.90625 30 0.25 
Q 28.796875 1.40625 28.796875 3.296875 
Q 28.796875 5 30.796875 12.5 
L 36.296875 33.203125 
Q 37 36 37 36.5 
Q 37 39 34.203125 39 
Q 31.5 39 27.25 35 
Q 23 31 19 25 
Q 15.90625 20.203125 14.09375 15.640625 
Q 12.296875 11.09375 9.40625 0 
L 1.90625 0 
L 15.09375 50 
L 8.796875 50 
L 10.296875 55.40625 
L 16.5 55.40625 
Q 17.796875 60.40625 17.796875 61.59375 
Q 17.796875 62.796875 16.5 63.4375 
Q 15.203125 64.09375 13.703125 64.09375 
L 11 64.09375 
L 11 65.59375 
Q 18.59375 66.5 26.703125 68.296875 
L 27.40625 67.703125 
L 24.09375 55.40625 
L 40 55.40625 
L 38.5 50 
L 22.59375 50 
L 15.296875 23 
Q 28.296875 44.09375 38.296875 44.09375 
Q 41.59375 44.09375 43.1875 42.25 
Q 44.796875 40.40625 44.796875 37.40625 
Q 44.796875 33.09375 40 18.09375 
Q 36.703125 8 36.703125 5.59375 
Q 36.703125 3.796875 38.296875 3.796875 
Q 39.5 3.796875 40.953125 5.25 
Q 42.40625 6.703125 46.5 11.796875 
" id="STIXGeneral-Italic-127"/>
     </defs>
     <g transform="translate(266.544 352.8555)scale(0.144 -0.144)">
      <use transform="translate(0.0 0.703125)" xlink:href="#STIXGeneral-Italic-127"/>
      <use transform="translate(49.9999847412 0.703125)" xlink:href="#STIXNonUnicode-Italic-e1f0"/>
      <use transform="translate(113.792664795 -12.8859375)scale(0.7)" xlink:href="#STIXGeneral-Italic-1d624"/>
     </g>
    </g>
   </g>
   <g id="matplotlib.axis_2">
    <g id="ytick_1">
     <g id="line2d_18">
      <defs>
       <path d="M 0 0 
L 10 0 
" id="m95c54c9af0" style="stroke:#000000;stroke-width:1.5;"/>
      </defs>
      <g>
       <use style="stroke:#000000;stroke-width:1.5;" x="100.80000000000001" xlink:href="#m95c54c9af0" y="321.3"/>
      </g>
     </g>
     <g id="line2d_19">
      <defs>
       <path d="M 0 0 
L -10 0 
" id="m33817322c7" style="stroke:#000000;stroke-width:1.5;"/>
      </defs>
      <g>
       <use style="stroke:#000000;stroke-width:1.5;" x="453.59999999999997" xlink:href="#m33817322c7" y="321.3"/>
      </g>
     </g>
     <g id="text_10">
      <!-- 0.0 -->
      <g transform="translate(77.71625000000002 324.61125)scale(0.12 -0.12)">
       <use xlink:href="#BitstreamVeraSans-Roman-30"/>
       <use x="63.623046875" xlink:href="#BitstreamVeraSans-Roman-2e"/>
       <use x="95.41015625" xlink:href="#BitstreamVeraSans-Roman-30"/>
      </g>
     </g>
    </g>
    <g id="ytick_2">
     <g id="line2d_20">
      <g>
       <use style="stroke:#000000;stroke-width:1.5;" x="100.80000000000001" xlink:href="#m95c54c9af0" y="280.8"/>
      </g>
     </g>
     <g id="line2d_21">
      <g>
       <use style="stroke:#000000;stroke-width:1.5;" x="453.59999999999997" xlink:href="#m33817322c7" y="280.8"/>
      </g>
     </g>
     <g id="text_11">
      <!-- 0.5 -->
      <defs>
       <path d="M 10.796875 72.90625 
L 49.515625 72.90625 
L 49.515625 64.59375 
L 19.828125 64.59375 
L 19.828125 46.734375 
Q 21.96875 47.46875 24.109375 47.828125 
Q 26.265625 48.1875 28.421875 48.1875 
Q 40.625 48.1875 47.75 41.5 
Q 54.890625 34.8125 54.890625 23.390625 
Q 54.890625 11.625 47.5625 5.09375 
Q 40.234375 -1.421875 26.90625 -1.421875 
Q 22.3125 -1.421875 17.546875 -0.640625 
Q 12.796875 0.140625 7.71875 1.703125 
L 7.71875 11.625 
Q 12.109375 9.234375 16.796875 8.0625 
Q 21.484375 6.890625 26.703125 6.890625 
Q 35.15625 6.890625 40.078125 11.328125 
Q 45.015625 15.765625 45.015625 23.390625 
Q 45.015625 31 40.078125 35.4375 
Q 35.15625 39.890625 26.703125 39.890625 
Q 22.75 39.890625 18.8125 39.015625 
Q 14.890625 38.140625 10.796875 36.28125 
z
" id="BitstreamVeraSans-Roman-35"/>
      </defs>
      <g transform="translate(77.71625000000002 284.11125)scale(0.12 -0.12)">
       <use xlink:href="#BitstreamVeraSans-Roman-30"/>
       <use x="63.623046875" xlink:href="#BitstreamVeraSans-Roman-2e"/>
       <use x="95.41015625" xlink:href="#BitstreamVeraSans-Roman-35"/>
      </g>
     </g>
    </g>
    <g id="ytick_3">
     <g id="line2d_22">
      <g>
       <use style="stroke:#000000;stroke-width:1.5;" x="100.80000000000001" xlink:href="#m95c54c9af0" y="240.3"/>
      </g>
     </g>
     <g id="line2d_23">
      <g>
       <use style="stroke:#000000;stroke-width:1.5;" x="453.59999999999997" xlink:href="#m33817322c7" y="240.3"/>
      </g>
     </g>
     <g id="text_12">
      <!-- 1.0 -->
      <g transform="translate(77.71625000000002 243.61124999999998)scale(0.12 -0.12)">
       <use xlink:href="#BitstreamVeraSans-Roman-31"/>
       <use x="63.623046875" xlink:href="#BitstreamVeraSans-Roman-2e"/>
       <use x="95.41015625" xlink:href="#BitstreamVeraSans-Roman-30"/>
      </g>
     </g>
    </g>
    <g id="ytick_4">
     <g id="line2d_24">
      <g>
       <use style="stroke:#000000;stroke-width:1.5;" x="100.80000000000001" xlink:href="#m95c54c9af0" y="199.8"/>
      </g>
     </g>
     <g id="line2d_25">
      <g>
       <use style="stroke:#000000;stroke-width:1.5;" x="453.59999999999997" xlink:href="#m33817322c7" y="199.8"/>
      </g>
     </g>
     <g id="text_13">
      <!-- 1.5 -->
      <g transform="translate(77.71625000000002 203.11124999999998)scale(0.12 -0.12)">
       <use xlink:href="#BitstreamVeraSans-Roman-31"/>
       <use x="63.623046875" xlink:href="#BitstreamVeraSans-Roman-2e"/>
       <use x="95.41015625" xlink:href="#BitstreamVeraSans-Roman-35"/>
      </g>
     </g>
    </g>
    <g id="ytick_5">
     <g id="line2d_26">
      <g>
       <use style="stroke:#000000;stroke-width:1.5;" x="100.80000000000001" xlink:href="#m95c54c9af0" y="159.3"/>
      </g>
     </g>
     <g id="line2d_27">
      <g>
       <use style="stroke:#000000;stroke-width:1.5;" x="453.59999999999997" xlink:href="#m33817322c7" y="159.3"/>
      </g>
     </g>
     <g id="text_14">
      <!-- 2.0 -->
      <g transform="translate(77.71625000000002 162.61124999999998)scale(0.12 -0.12)">
       <use xlink:href="#BitstreamVeraSans-Roman-32"/>
       <use x="63.623046875" xlink:href="#BitstreamVeraSans-Roman-2e"/>
       <use x="95.41015625" xlink:href="#BitstreamVeraSans-Roman-30"/>
      </g>
     </g>
    </g>
    <g id="ytick_6">
     <g id="line2d_28">
      <g>
       <use style="stroke:#000000;stroke-width:1.5;" x="100.80000000000001" xlink:href="#m95c54c9af0" y="118.80000000000001"/>
      </g>
     </g>
     <g id="line2d_29">
      <g>
       <use style="stroke:#000000;stroke-width:1.5;" x="453.59999999999997" xlink:href="#m33817322c7" y="118.80000000000001"/>
      </g>
     </g>
     <g id="text_15">
      <!-- 2.5 -->
      <g transform="translate(77.71625000000002 122.11125000000001)scale(0.12 -0.12)">
       <use xlink:href="#BitstreamVeraSans-Roman-32"/>
       <use x="63.623046875" xlink:href="#BitstreamVeraSans-Roman-2e"/>
       <use x="95.41015625" xlink:href="#BitstreamVeraSans-Roman-35"/>
      </g>
     </g>
    </g>
    <g id="ytick_7">
     <g id="line2d_30">
      <g>
       <use style="stroke:#000000;stroke-width:1.5;" x="100.80000000000001" xlink:href="#m95c54c9af0" y="78.30000000000001"/>
      </g>
     </g>
     <g id="line2d_31">
      <g>
       <use style="stroke:#000000;stroke-width:1.5;" x="453.59999999999997" xlink:href="#m33817322c7" y="78.30000000000001"/>
      </g>
     </g>
     <g id="text_16">
      <!-- 3.0 -->
      <defs>
       <path d="M 40.578125 39.3125 
Q 47.65625 37.796875 51.625 33 
Q 55.609375 28.21875 55.609375 21.1875 
Q 55.609375 10.40625 48.1875 4.484375 
Q 40.765625 -1.421875 27.09375 -1.421875 
Q 22.515625 -1.421875 17.65625 -0.515625 
Q 12.796875 0.390625 7.625 2.203125 
L 7.625 11.71875 
Q 11.71875 9.328125 16.59375 8.109375 
Q 21.484375 6.890625 26.8125 6.890625 
Q 36.078125 6.890625 40.9375 10.546875 
Q 45.796875 14.203125 45.796875 21.1875 
Q 45.796875 27.640625 41.28125 31.265625 
Q 36.765625 34.90625 28.71875 34.90625 
L 20.21875 34.90625 
L 20.21875 43.015625 
L 29.109375 43.015625 
Q 36.375 43.015625 40.234375 45.921875 
Q 44.09375 48.828125 44.09375 54.296875 
Q 44.09375 59.90625 40.109375 62.90625 
Q 36.140625 65.921875 28.71875 65.921875 
Q 24.65625 65.921875 20.015625 65.03125 
Q 15.375 64.15625 9.8125 62.3125 
L 9.8125 71.09375 
Q 15.4375 72.65625 20.34375 73.4375 
Q 25.25 74.21875 29.59375 74.21875 
Q 40.828125 74.21875 47.359375 69.109375 
Q 53.90625 64.015625 53.90625 55.328125 
Q 53.90625 49.265625 50.4375 45.09375 
Q 46.96875 40.921875 40.578125 39.3125 
" id="BitstreamVeraSans-Roman-33"/>
      </defs>
      <g transform="translate(77.71625000000002 81.61124999999998)scale(0.12 -0.12)">
       <use xlink:href="#BitstreamVeraSans-Roman-33"/>
       <use x="63.623046875" xlink:href="#BitstreamVeraSans-Roman-2e"/>
       <use x="95.41015625" xlink:href="#BitstreamVeraSans-Roman-30"/>
      </g>
     </g>
    </g>
    <g id="ytick_8">
     <g id="line2d_32">
      <g>
       <use style="stroke:#000000;stroke-width:1.5;" x="100.80000000000001" xlink:href="#m95c54c9af0" y="37.80000000000001"/>
      </g>
     </g>
     <g id="line2d_33">
      <g>
       <use style="stroke:#000000;stroke-width:1.5;" x="453.59999999999997" xlink:href="#m33817322c7" y="37.80000000000001"/>
      </g>
     </g>
     <g id="text_17">
      <!-- 3.5 -->
      <g transform="translate(77.71625000000002 41.111249999999984)scale(0.12 -0.12)">
       <use xlink:href="#BitstreamVeraSans-Roman-33"/>
       <use x="63.623046875" xlink:href="#BitstreamVeraSans-Roman-2e"/>
       <use x="95.41015625" xlink:href="#BitstreamVeraSans-Roman-35"/>
      </g>
     </g>
    </g>
    <g id="text_18">
     <!-- $\theta_T$ -->
     <defs>
      <path d="M 51.09375 49 
Q 51.09375 38 47.140625 26.5 
Q 43.203125 15 36 7 
Q 28.796875 -1 20.59375 -1 
Q 13.40625 -1 9.953125 4.25 
Q 6.5 9.5 6.5 18.40625 
Q 6.5 24.59375 8.640625 32.84375 
Q 10.796875 41.09375 14.546875 49.140625 
Q 18.296875 57.203125 24.546875 62.75 
Q 30.796875 68.296875 37.90625 68.296875 
Q 44.703125 68.296875 47.890625 62.9375 
Q 51.09375 57.59375 51.09375 49 
M 17.296875 37.296875 
L 41.90625 37.296875 
Q 43.203125 43.5 43.203125 48.5 
Q 43.203125 61.203125 36 61.203125 
Q 30.5 61.203125 25.390625 54.09375 
Q 20.296875 47 17.296875 37.296875 
M 40.203125 30.203125 
L 15.59375 30.203125 
Q 14.40625 24.296875 14.40625 19.296875 
Q 14.40625 6.09375 22.296875 6.09375 
Q 27.796875 6.09375 32.4375 12.84375 
Q 37.09375 19.59375 40.203125 30.203125 
" id="STIXNonUnicode-Italic-e1df"/>
      <path d="M 74.796875 66.203125 
L 73.90625 58.796875 
L 49.40625 58.796875 
L 34.703125 0 
L 26 0 
L 40.59375 58.796875 
L 16.09375 58.796875 
L 19 66.203125 
z
" id="STIXGeneral-Italic-1d61b"/>
     </defs>
     <g transform="translate(69.72150000000002 186.606)rotate(-90.0)scale(0.144 -0.144)">
      <use transform="translate(0.0 0.703125)" xlink:href="#STIXNonUnicode-Italic-e1df"/>
      <use transform="translate(52.5926831055 -12.8859375)scale(0.7)" xlink:href="#STIXGeneral-Italic-1d61b"/>
     </g>
    </g>
   </g>
  </g>
 </g>
 <defs>
  <clipPath id="pefff8b1715">
   <rect height="283.5" width="352.79999999999995" x="100.80000000000001" y="37.80000000000001"/>
  </clipPath>
 </defs>
</svg>
