<?xml version="1.0" encoding="utf-8" standalone="no"?>
<!DOCTYPE svg PUBLIC "-//W3C//DTD SVG 1.1//EN"
  "http://www.w3.org/Graphics/SVG/1.1/DTD/svg11.dtd">
<!-- Created with matplotlib (http://matplotlib.org/) -->
<svg height="862pt" version="1.1" viewBox="0 0 633 862" width="633pt" xmlns="http://www.w3.org/2000/svg" xmlns:xlink="http://www.w3.org/1999/xlink">
 <defs>
  <style type="text/css">
*{stroke-linecap:butt;stroke-linejoin:round;stroke-miterlimit:100000;}
  </style>
 </defs>
 <g id="figure_1">
  <g id="patch_1">
   <path d="M 0 862.2 
L 633.6 862.2 
L 633.6 0 
L 0 0 
z
" style="fill:#ffffff;"/>
  </g>
  <g id="axes_1">
   <g id="patch_2">
    <path d="M 31.7548 196.61 
L 307.7316 196.61 
L 307.7316 12.96 
L 31.7548 12.96 
z
" style="fill:#ffffff;"/>
   </g>
   <g id="line2d_1">
    <path clip-path="url(#pdb8b736697)" d="M 31.7548 196.61 
L 38.831128 192.320893 
L 45.907456 180.134147 
L 52.983785 161.85811 
L 60.060113 139.925618 
L 67.136441 116.90407 
L 74.212769 95.083104 
L 81.289097 76.131852 
L 88.365426 60.919891 
L 95.441754 49.563628 
L 102.518082 41.647415 
L 109.59441 36.481241 
L 116.670738 33.322809 
L 123.747067 31.512716 
L 130.823395 30.540698 
L 137.899723 30.051915 
L 144.976051 29.821977 
L 152.052379 29.720931 
L 159.128708 29.679486 
L 166.205036 29.663668 
L 173.281364 29.658061 
L 180.357692 29.656219 
L 187.434021 29.655661 
L 194.510349 29.655506 
L 201.586677 29.655466 
L 208.663005 29.655457 
L 215.739333 29.655455 
L 222.815662 29.655455 
L 229.89199 29.655455 
L 236.968318 29.655455 
L 244.044646 29.655455 
L 251.120974 29.655455 
L 258.197303 29.655455 
L 265.273631 29.655455 
L 272.349959 29.655455 
L 279.426287 29.655455 
L 286.502615 29.655455 
L 293.578944 29.655455 
L 300.655272 29.655455 
L 307.7316 29.655455 
" style="fill:none;stroke:#0000ff;stroke-linecap:square;stroke-width:2.0;"/>
   </g>
   <g id="line2d_2">
    <path clip-path="url(#pdb8b736697)" d="M 31.7548 196.61 
L 38.831128 192.348253 
L 45.907456 180.259048 
L 52.983785 162.144847 
L 60.060113 140.358328 
L 67.136441 117.375736 
L 74.212769 95.470722 
L 81.289097 76.381459 
L 88.365426 61.047485 
L 95.441754 49.616451 
L 102.518082 41.665292 
L 109.59441 36.486387 
L 116.670738 33.323999 
L 123.747067 31.512942 
L 130.823395 30.540729 
L 137.899723 30.051923 
L 144.976051 29.821985 
L 152.052379 29.720928 
L 159.128708 29.679485 
L 166.205036 29.663666 
L 173.281364 29.658061 
L 180.357692 29.65622 
L 187.434021 29.655662 
L 194.510349 29.655506 
L 201.586677 29.655466 
L 208.663005 29.655457 
L 215.739333 29.655455 
L 222.815662 29.655455 
L 229.89199 29.655455 
L 236.968318 29.655455 
L 244.044646 29.655455 
L 251.120974 29.655455 
L 258.197303 29.655455 
L 265.273631 29.655455 
L 272.349959 29.655455 
L 279.426287 29.655455 
L 286.502615 29.655455 
L 293.578944 29.655455 
L 300.655272 29.655455 
L 307.7316 29.655455 
" style="fill:none;stroke:#008000;stroke-linecap:square;stroke-width:2.0;"/>
   </g>
   <g id="patch_3">
    <path d="M 31.7548 12.96 
L 307.7316 12.96 
" style="fill:none;stroke:#000000;stroke-linecap:square;stroke-linejoin:miter;"/>
   </g>
   <g id="patch_4">
    <path d="M 307.7316 196.61 
L 307.7316 12.96 
" style="fill:none;stroke:#000000;stroke-linecap:square;stroke-linejoin:miter;"/>
   </g>
   <g id="patch_5">
    <path d="M 31.7548 196.61 
L 307.7316 196.61 
" style="fill:none;stroke:#000000;stroke-linecap:square;stroke-linejoin:miter;"/>
   </g>
   <g id="patch_6">
    <path d="M 31.7548 196.61 
L 31.7548 12.96 
" style="fill:none;stroke:#000000;stroke-linecap:square;stroke-linejoin:miter;"/>
   </g>
   <g id="matplotlib.axis_1">
    <g id="xtick_1">
     <g id="line2d_3">
      <defs>
       <path d="M 0 0 
L 0 -4 
" id="m713eca043b" style="stroke:#000000;stroke-width:0.5;"/>
      </defs>
      <g>
       <use style="stroke:#000000;stroke-width:0.5;" x="31.7548" xlink:href="#m713eca043b" y="196.6099999999999"/>
      </g>
     </g>
     <g id="line2d_4">
      <defs>
       <path d="M 0 0 
L 0 4 
" id="m7f3416d623" style="stroke:#000000;stroke-width:0.5;"/>
      </defs>
      <g>
       <use style="stroke:#000000;stroke-width:0.5;" x="31.7548" xlink:href="#m7f3416d623" y="12.960000000000036"/>
      </g>
     </g>
     <g id="text_1">
      <!-- 0 -->
      <defs>
       <path d="M 31.78125 66.40625 
Q 24.171875 66.40625 20.328125 58.90625 
Q 16.5 51.421875 16.5 36.375 
Q 16.5 21.390625 20.328125 13.890625 
Q 24.171875 6.390625 31.78125 6.390625 
Q 39.453125 6.390625 43.28125 13.890625 
Q 47.125 21.390625 47.125 36.375 
Q 47.125 51.421875 43.28125 58.90625 
Q 39.453125 66.40625 31.78125 66.40625 
M 31.78125 74.21875 
Q 44.046875 74.21875 50.515625 64.515625 
Q 56.984375 54.828125 56.984375 36.375 
Q 56.984375 17.96875 50.515625 8.265625 
Q 44.046875 -1.421875 31.78125 -1.421875 
Q 19.53125 -1.421875 13.0625 8.265625 
Q 6.59375 17.96875 6.59375 36.375 
Q 6.59375 54.828125 13.0625 64.515625 
Q 19.53125 74.21875 31.78125 74.21875 
" id="BitstreamVeraSans-Roman-30"/>
      </defs>
      <g transform="translate(27.9373 209.72812499999986)scale(0.12 -0.12)">
       <use xlink:href="#BitstreamVeraSans-Roman-30"/>
      </g>
     </g>
    </g>
    <g id="xtick_2">
     <g id="line2d_5">
      <g>
       <use style="stroke:#000000;stroke-width:0.5;" x="100.749" xlink:href="#m713eca043b" y="196.6099999999999"/>
      </g>
     </g>
     <g id="line2d_6">
      <g>
       <use style="stroke:#000000;stroke-width:0.5;" x="100.749" xlink:href="#m7f3416d623" y="12.960000000000036"/>
      </g>
     </g>
     <g id="text_2">
      <!-- 1 -->
      <defs>
       <path d="M 12.40625 8.296875 
L 28.515625 8.296875 
L 28.515625 63.921875 
L 10.984375 60.40625 
L 10.984375 69.390625 
L 28.421875 72.90625 
L 38.28125 72.90625 
L 38.28125 8.296875 
L 54.390625 8.296875 
L 54.390625 0 
L 12.40625 0 
z
" id="BitstreamVeraSans-Roman-31"/>
      </defs>
      <g transform="translate(96.9315 209.72812499999986)scale(0.12 -0.12)">
       <use xlink:href="#BitstreamVeraSans-Roman-31"/>
      </g>
     </g>
    </g>
    <g id="xtick_3">
     <g id="line2d_7">
      <g>
       <use style="stroke:#000000;stroke-width:0.5;" x="169.74319999999997" xlink:href="#m713eca043b" y="196.6099999999999"/>
      </g>
     </g>
     <g id="line2d_8">
      <g>
       <use style="stroke:#000000;stroke-width:0.5;" x="169.74319999999997" xlink:href="#m7f3416d623" y="12.960000000000036"/>
      </g>
     </g>
     <g id="text_3">
      <!-- 2 -->
      <defs>
       <path d="M 19.1875 8.296875 
L 53.609375 8.296875 
L 53.609375 0 
L 7.328125 0 
L 7.328125 8.296875 
Q 12.9375 14.109375 22.625 23.890625 
Q 32.328125 33.6875 34.8125 36.53125 
Q 39.546875 41.84375 41.421875 45.53125 
Q 43.3125 49.21875 43.3125 52.78125 
Q 43.3125 58.59375 39.234375 62.25 
Q 35.15625 65.921875 28.609375 65.921875 
Q 23.96875 65.921875 18.8125 64.3125 
Q 13.671875 62.703125 7.8125 59.421875 
L 7.8125 69.390625 
Q 13.765625 71.78125 18.9375 73 
Q 24.125 74.21875 28.421875 74.21875 
Q 39.75 74.21875 46.484375 68.546875 
Q 53.21875 62.890625 53.21875 53.421875 
Q 53.21875 48.921875 51.53125 44.890625 
Q 49.859375 40.875 45.40625 35.40625 
Q 44.1875 33.984375 37.640625 27.21875 
Q 31.109375 20.453125 19.1875 8.296875 
" id="BitstreamVeraSans-Roman-32"/>
      </defs>
      <g transform="translate(165.92569999999998 209.72812499999986)scale(0.12 -0.12)">
       <use xlink:href="#BitstreamVeraSans-Roman-32"/>
      </g>
     </g>
    </g>
    <g id="xtick_4">
     <g id="line2d_9">
      <g>
       <use style="stroke:#000000;stroke-width:0.5;" x="238.73739999999998" xlink:href="#m713eca043b" y="196.6099999999999"/>
      </g>
     </g>
     <g id="line2d_10">
      <g>
       <use style="stroke:#000000;stroke-width:0.5;" x="238.73739999999998" xlink:href="#m7f3416d623" y="12.960000000000036"/>
      </g>
     </g>
     <g id="text_4">
      <!-- 3 -->
      <defs>
       <path d="M 40.578125 39.3125 
Q 47.65625 37.796875 51.625 33 
Q 55.609375 28.21875 55.609375 21.1875 
Q 55.609375 10.40625 48.1875 4.484375 
Q 40.765625 -1.421875 27.09375 -1.421875 
Q 22.515625 -1.421875 17.65625 -0.515625 
Q 12.796875 0.390625 7.625 2.203125 
L 7.625 11.71875 
Q 11.71875 9.328125 16.59375 8.109375 
Q 21.484375 6.890625 26.8125 6.890625 
Q 36.078125 6.890625 40.9375 10.546875 
Q 45.796875 14.203125 45.796875 21.1875 
Q 45.796875 27.640625 41.28125 31.265625 
Q 36.765625 34.90625 28.71875 34.90625 
L 20.21875 34.90625 
L 20.21875 43.015625 
L 29.109375 43.015625 
Q 36.375 43.015625 40.234375 45.921875 
Q 44.09375 48.828125 44.09375 54.296875 
Q 44.09375 59.90625 40.109375 62.90625 
Q 36.140625 65.921875 28.71875 65.921875 
Q 24.65625 65.921875 20.015625 65.03125 
Q 15.375 64.15625 9.8125 62.3125 
L 9.8125 71.09375 
Q 15.4375 72.65625 20.34375 73.4375 
Q 25.25 74.21875 29.59375 74.21875 
Q 40.828125 74.21875 47.359375 69.109375 
Q 53.90625 64.015625 53.90625 55.328125 
Q 53.90625 49.265625 50.4375 45.09375 
Q 46.96875 40.921875 40.578125 39.3125 
" id="BitstreamVeraSans-Roman-33"/>
      </defs>
      <g transform="translate(234.91989999999998 209.72812499999986)scale(0.12 -0.12)">
       <use xlink:href="#BitstreamVeraSans-Roman-33"/>
      </g>
     </g>
    </g>
    <g id="xtick_5">
     <g id="line2d_11">
      <g>
       <use style="stroke:#000000;stroke-width:0.5;" x="307.73159999999996" xlink:href="#m713eca043b" y="196.6099999999999"/>
      </g>
     </g>
     <g id="line2d_12">
      <g>
       <use style="stroke:#000000;stroke-width:0.5;" x="307.73159999999996" xlink:href="#m7f3416d623" y="12.960000000000036"/>
      </g>
     </g>
     <g id="text_5">
      <!-- 4 -->
      <defs>
       <path d="M 37.796875 64.3125 
L 12.890625 25.390625 
L 37.796875 25.390625 
z
M 35.203125 72.90625 
L 47.609375 72.90625 
L 47.609375 25.390625 
L 58.015625 25.390625 
L 58.015625 17.1875 
L 47.609375 17.1875 
L 47.609375 0 
L 37.796875 0 
L 37.796875 17.1875 
L 4.890625 17.1875 
L 4.890625 26.703125 
z
" id="BitstreamVeraSans-Roman-34"/>
      </defs>
      <g transform="translate(303.91409999999996 209.72812499999986)scale(0.12 -0.12)">
       <use xlink:href="#BitstreamVeraSans-Roman-34"/>
      </g>
     </g>
    </g>
   </g>
   <g id="matplotlib.axis_2">
    <g id="ytick_1">
     <g id="line2d_13">
      <defs>
       <path d="M 0 0 
L 4 0 
" id="m7f7efe40df" style="stroke:#000000;stroke-width:0.5;"/>
      </defs>
      <g>
       <use style="stroke:#000000;stroke-width:0.5;" x="31.7548" xlink:href="#m7f7efe40df" y="196.6099999999999"/>
      </g>
     </g>
     <g id="line2d_14">
      <defs>
       <path d="M 0 0 
L -4 0 
" id="m81f8d3ba75" style="stroke:#000000;stroke-width:0.5;"/>
      </defs>
      <g>
       <use style="stroke:#000000;stroke-width:0.5;" x="307.73159999999996" xlink:href="#m81f8d3ba75" y="196.6099999999999"/>
      </g>
     </g>
     <g id="text_6">
      <!-- 0.0 -->
      <defs>
       <path d="M 10.6875 12.40625 
L 21 12.40625 
L 21 0 
L 10.6875 0 
z
" id="BitstreamVeraSans-Roman-2e"/>
      </defs>
      <g transform="translate(8.671050000000001 199.92124999999987)scale(0.12 -0.12)">
       <use xlink:href="#BitstreamVeraSans-Roman-30"/>
       <use x="63.623046875" xlink:href="#BitstreamVeraSans-Roman-2e"/>
       <use x="95.41015625" xlink:href="#BitstreamVeraSans-Roman-30"/>
      </g>
     </g>
    </g>
    <g id="ytick_2">
     <g id="line2d_15">
      <g>
       <use style="stroke:#000000;stroke-width:0.5;" x="31.7548" xlink:href="#m7f7efe40df" y="113.13272727272724"/>
      </g>
     </g>
     <g id="line2d_16">
      <g>
       <use style="stroke:#000000;stroke-width:0.5;" x="307.73159999999996" xlink:href="#m81f8d3ba75" y="113.13272727272724"/>
      </g>
     </g>
     <g id="text_7">
      <!-- 0.5 -->
      <defs>
       <path d="M 10.796875 72.90625 
L 49.515625 72.90625 
L 49.515625 64.59375 
L 19.828125 64.59375 
L 19.828125 46.734375 
Q 21.96875 47.46875 24.109375 47.828125 
Q 26.265625 48.1875 28.421875 48.1875 
Q 40.625 48.1875 47.75 41.5 
Q 54.890625 34.8125 54.890625 23.390625 
Q 54.890625 11.625 47.5625 5.09375 
Q 40.234375 -1.421875 26.90625 -1.421875 
Q 22.3125 -1.421875 17.546875 -0.640625 
Q 12.796875 0.140625 7.71875 1.703125 
L 7.71875 11.625 
Q 12.109375 9.234375 16.796875 8.0625 
Q 21.484375 6.890625 26.703125 6.890625 
Q 35.15625 6.890625 40.078125 11.328125 
Q 45.015625 15.765625 45.015625 23.390625 
Q 45.015625 31 40.078125 35.4375 
Q 35.15625 39.890625 26.703125 39.890625 
Q 22.75 39.890625 18.8125 39.015625 
Q 14.890625 38.140625 10.796875 36.28125 
z
" id="BitstreamVeraSans-Roman-35"/>
      </defs>
      <g transform="translate(8.671050000000001 116.44397727272724)scale(0.12 -0.12)">
       <use xlink:href="#BitstreamVeraSans-Roman-30"/>
       <use x="63.623046875" xlink:href="#BitstreamVeraSans-Roman-2e"/>
       <use x="95.41015625" xlink:href="#BitstreamVeraSans-Roman-35"/>
      </g>
     </g>
    </g>
    <g id="ytick_3">
     <g id="line2d_17">
      <g>
       <use style="stroke:#000000;stroke-width:0.5;" x="31.7548" xlink:href="#m7f7efe40df" y="29.655454545454575"/>
      </g>
     </g>
     <g id="line2d_18">
      <g>
       <use style="stroke:#000000;stroke-width:0.5;" x="307.73159999999996" xlink:href="#m81f8d3ba75" y="29.655454545454575"/>
      </g>
     </g>
     <g id="text_8">
      <!-- 1.0 -->
      <g transform="translate(8.671050000000001 32.96670454545449)scale(0.12 -0.12)">
       <use xlink:href="#BitstreamVeraSans-Roman-31"/>
       <use x="63.623046875" xlink:href="#BitstreamVeraSans-Roman-2e"/>
       <use x="95.41015625" xlink:href="#BitstreamVeraSans-Roman-30"/>
      </g>
     </g>
    </g>
   </g>
   <g id="text_9">
    <!-- 0.56 meV -->
    <defs>
     <path d="M 56.203125 29.59375 
L 56.203125 25.203125 
L 14.890625 25.203125 
Q 15.484375 15.921875 20.484375 11.0625 
Q 25.484375 6.203125 34.421875 6.203125 
Q 39.59375 6.203125 44.453125 7.46875 
Q 49.3125 8.734375 54.109375 11.28125 
L 54.109375 2.78125 
Q 49.265625 0.734375 44.1875 -0.34375 
Q 39.109375 -1.421875 33.890625 -1.421875 
Q 20.796875 -1.421875 13.15625 6.1875 
Q 5.515625 13.8125 5.515625 26.8125 
Q 5.515625 40.234375 12.765625 48.109375 
Q 20.015625 56 32.328125 56 
Q 43.359375 56 49.78125 48.890625 
Q 56.203125 41.796875 56.203125 29.59375 
M 47.21875 32.234375 
Q 47.125 39.59375 43.09375 43.984375 
Q 39.0625 48.390625 32.421875 48.390625 
Q 24.90625 48.390625 20.390625 44.140625 
Q 15.875 39.890625 15.1875 32.171875 
z
" id="BitstreamVeraSans-Roman-65"/>
     <path id="BitstreamVeraSans-Roman-20"/>
     <path d="M 33.015625 40.375 
Q 26.375 40.375 22.484375 35.828125 
Q 18.609375 31.296875 18.609375 23.390625 
Q 18.609375 15.53125 22.484375 10.953125 
Q 26.375 6.390625 33.015625 6.390625 
Q 39.65625 6.390625 43.53125 10.953125 
Q 47.40625 15.53125 47.40625 23.390625 
Q 47.40625 31.296875 43.53125 35.828125 
Q 39.65625 40.375 33.015625 40.375 
M 52.59375 71.296875 
L 52.59375 62.3125 
Q 48.875 64.0625 45.09375 64.984375 
Q 41.3125 65.921875 37.59375 65.921875 
Q 27.828125 65.921875 22.671875 59.328125 
Q 17.53125 52.734375 16.796875 39.40625 
Q 19.671875 43.65625 24.015625 45.921875 
Q 28.375 48.1875 33.59375 48.1875 
Q 44.578125 48.1875 50.953125 41.515625 
Q 57.328125 34.859375 57.328125 23.390625 
Q 57.328125 12.15625 50.6875 5.359375 
Q 44.046875 -1.421875 33.015625 -1.421875 
Q 20.359375 -1.421875 13.671875 8.265625 
Q 6.984375 17.96875 6.984375 36.375 
Q 6.984375 53.65625 15.1875 63.9375 
Q 23.390625 74.21875 37.203125 74.21875 
Q 40.921875 74.21875 44.703125 73.484375 
Q 48.484375 72.75 52.59375 71.296875 
" id="BitstreamVeraSans-Roman-36"/>
     <path d="M 28.609375 0 
L 0.78125 72.90625 
L 11.078125 72.90625 
L 34.1875 11.53125 
L 57.328125 72.90625 
L 67.578125 72.90625 
L 39.796875 0 
z
" id="BitstreamVeraSans-Roman-56"/>
     <path d="M 52 44.1875 
Q 55.375 50.25 60.0625 53.125 
Q 64.75 56 71.09375 56 
Q 79.640625 56 84.28125 50.015625 
Q 88.921875 44.046875 88.921875 33.015625 
L 88.921875 0 
L 79.890625 0 
L 79.890625 32.71875 
Q 79.890625 40.578125 77.09375 44.375 
Q 74.3125 48.1875 68.609375 48.1875 
Q 61.625 48.1875 57.5625 43.546875 
Q 53.515625 38.921875 53.515625 30.90625 
L 53.515625 0 
L 44.484375 0 
L 44.484375 32.71875 
Q 44.484375 40.625 41.703125 44.40625 
Q 38.921875 48.1875 33.109375 48.1875 
Q 26.21875 48.1875 22.15625 43.53125 
Q 18.109375 38.875 18.109375 30.90625 
L 18.109375 0 
L 9.078125 0 
L 9.078125 54.6875 
L 18.109375 54.6875 
L 18.109375 46.1875 
Q 21.1875 51.21875 25.484375 53.609375 
Q 29.78125 56 35.6875 56 
Q 41.65625 56 45.828125 52.96875 
Q 50 49.953125 52 44.1875 
" id="BitstreamVeraSans-Roman-6d"/>
    </defs>
    <g transform="translate(169.74319999999997 163.21909090909082)scale(0.08 -0.08)">
     <use xlink:href="#BitstreamVeraSans-Roman-30"/>
     <use x="63.623046875" xlink:href="#BitstreamVeraSans-Roman-2e"/>
     <use x="95.41015625" xlink:href="#BitstreamVeraSans-Roman-35"/>
     <use x="159.033203125" xlink:href="#BitstreamVeraSans-Roman-36"/>
     <use x="222.65625" xlink:href="#BitstreamVeraSans-Roman-20"/>
     <use x="254.443359375" xlink:href="#BitstreamVeraSans-Roman-6d"/>
     <use x="351.85546875" xlink:href="#BitstreamVeraSans-Roman-65"/>
     <use x="413.37890625" xlink:href="#BitstreamVeraSans-Roman-56"/>
    </g>
   </g>
   <g id="legend_1">
    <g id="line2d_19">
     <path d="M 41.3548 23.43875 
L 52.5548 23.43875 
" style="fill:none;stroke:#0000ff;stroke-linecap:square;stroke-width:2.0;"/>
    </g>
    <g id="line2d_20"/>
    <g id="text_10">
     <!-- P300 -->
     <defs>
      <path d="M 19.671875 64.796875 
L 19.671875 37.40625 
L 32.078125 37.40625 
Q 38.96875 37.40625 42.71875 40.96875 
Q 46.484375 44.53125 46.484375 51.125 
Q 46.484375 57.671875 42.71875 61.234375 
Q 38.96875 64.796875 32.078125 64.796875 
z
M 9.8125 72.90625 
L 32.078125 72.90625 
Q 44.34375 72.90625 50.609375 67.359375 
Q 56.890625 61.8125 56.890625 51.125 
Q 56.890625 40.328125 50.609375 34.8125 
Q 44.34375 29.296875 32.078125 29.296875 
L 19.671875 29.296875 
L 19.671875 0 
L 9.8125 0 
z
" id="BitstreamVeraSans-Roman-50"/>
     </defs>
     <g transform="translate(61.354800000000004 26.238749999999982)scale(0.08 -0.08)">
      <use xlink:href="#BitstreamVeraSans-Roman-50"/>
      <use x="60.302734375" xlink:href="#BitstreamVeraSans-Roman-33"/>
      <use x="123.92578125" xlink:href="#BitstreamVeraSans-Roman-30"/>
      <use x="187.548828125" xlink:href="#BitstreamVeraSans-Roman-30"/>
     </g>
    </g>
    <g id="line2d_21">
     <path d="M 41.3548 35.18125 
L 52.5548 35.18125 
" style="fill:none;stroke:#008000;stroke-linecap:square;stroke-width:2.0;"/>
    </g>
    <g id="line2d_22"/>
    <g id="text_11">
     <!-- N300 -->
     <defs>
      <path d="M 9.8125 72.90625 
L 23.09375 72.90625 
L 55.421875 11.921875 
L 55.421875 72.90625 
L 64.984375 72.90625 
L 64.984375 0 
L 51.703125 0 
L 19.390625 60.984375 
L 19.390625 0 
L 9.8125 0 
z
" id="BitstreamVeraSans-Roman-4e"/>
     </defs>
     <g transform="translate(61.354800000000004 37.98124999999993)scale(0.08 -0.08)">
      <use xlink:href="#BitstreamVeraSans-Roman-4e"/>
      <use x="74.8046875" xlink:href="#BitstreamVeraSans-Roman-33"/>
      <use x="138.427734375" xlink:href="#BitstreamVeraSans-Roman-30"/>
      <use x="202.05078125" xlink:href="#BitstreamVeraSans-Roman-30"/>
     </g>
    </g>
   </g>
  </g>
  <g id="axes_2">
   <g id="patch_7">
    <path d="M 342.8524 196.61 
L 618.8292 196.61 
L 618.8292 12.96 
L 342.8524 12.96 
z
" style="fill:#ffffff;"/>
   </g>
   <g id="line2d_23">
    <path clip-path="url(#p3c4cc232d7)" d="M 342.8524 196.61 
L 349.928728 192.306432 
L 357.005056 180.095471 
L 364.081385 161.839034 
L 371.157713 140.011516 
L 378.234041 117.147919 
L 385.310369 95.443604 
L 392.386697 76.503002 
L 399.463026 61.210537 
L 406.539354 49.746117 
L 413.615682 41.742014 
L 420.69201 36.522716 
L 427.768338 33.338372 
L 434.844667 31.517781 
L 441.920995 30.542214 
L 448.997323 30.05232 
L 456.073651 29.82207 
L 463.149979 29.720944 
L 470.226308 29.67949 
L 477.302636 29.663665 
L 484.378964 29.65806 
L 491.455292 29.656219 
L 498.531621 29.655661 
L 505.607949 29.655506 
L 512.684277 29.655466 
L 519.760605 29.655457 
L 526.836933 29.655455 
L 533.913262 29.655455 
L 540.98959 29.655455 
L 548.065918 29.655455 
L 555.142246 29.655455 
L 562.218574 29.655455 
L 569.294903 29.655455 
L 576.371231 29.655455 
L 583.447559 29.655455 
L 590.523887 29.655455 
L 597.600215 29.655455 
L 604.676544 29.655455 
L 611.752872 29.655455 
L 618.8292 29.655455 
" style="fill:none;stroke:#0000ff;stroke-linecap:square;stroke-width:2.0;"/>
   </g>
   <g id="line2d_24">
    <path clip-path="url(#p3c4cc232d7)" d="M 342.8524 196.61 
L 349.928728 192.352878 
L 357.005056 180.308482 
L 364.081385 162.366181 
L 371.157713 140.942611 
L 378.234041 118.424764 
L 385.310369 96.863117 
L 392.386697 77.817336 
L 399.463026 62.24254 
L 406.539354 50.442358 
L 413.615682 42.149682 
L 420.69201 36.731657 
L 427.768338 33.432583 
L 434.844667 31.555506 
L 441.920995 30.555559 
L 448.997323 30.056547 
L 456.073651 29.823274 
L 463.149979 29.721248 
L 470.226308 29.679548 
L 477.302636 29.663679 
L 484.378964 29.658063 
L 491.455292 29.656221 
L 498.531621 29.655661 
L 505.607949 29.655506 
L 512.684277 29.655466 
L 519.760605 29.655457 
L 526.836933 29.655455 
L 533.913262 29.655455 
L 540.98959 29.655455 
L 548.065918 29.655455 
L 555.142246 29.655455 
L 562.218574 29.655455 
L 569.294903 29.655455 
L 576.371231 29.655455 
L 583.447559 29.655455 
L 590.523887 29.655455 
L 597.600215 29.655455 
L 604.676544 29.655455 
L 611.752872 29.655455 
L 618.8292 29.655455 
" style="fill:none;stroke:#008000;stroke-linecap:square;stroke-width:2.0;"/>
   </g>
   <g id="patch_8">
    <path d="M 342.8524 12.96 
L 618.8292 12.96 
" style="fill:none;stroke:#000000;stroke-linecap:square;stroke-linejoin:miter;"/>
   </g>
   <g id="patch_9">
    <path d="M 618.8292 196.61 
L 618.8292 12.96 
" style="fill:none;stroke:#000000;stroke-linecap:square;stroke-linejoin:miter;"/>
   </g>
   <g id="patch_10">
    <path d="M 342.8524 196.61 
L 618.8292 196.61 
" style="fill:none;stroke:#000000;stroke-linecap:square;stroke-linejoin:miter;"/>
   </g>
   <g id="patch_11">
    <path d="M 342.8524 196.61 
L 342.8524 12.96 
" style="fill:none;stroke:#000000;stroke-linecap:square;stroke-linejoin:miter;"/>
   </g>
   <g id="matplotlib.axis_3">
    <g id="xtick_6">
     <g id="line2d_25">
      <g>
       <use style="stroke:#000000;stroke-width:0.5;" x="342.85240000000005" xlink:href="#m713eca043b" y="196.6099999999999"/>
      </g>
     </g>
     <g id="line2d_26">
      <g>
       <use style="stroke:#000000;stroke-width:0.5;" x="342.85240000000005" xlink:href="#m7f3416d623" y="12.960000000000036"/>
      </g>
     </g>
     <g id="text_12">
      <!-- 0 -->
      <g transform="translate(339.03490000000005 209.72812499999986)scale(0.12 -0.12)">
       <use xlink:href="#BitstreamVeraSans-Roman-30"/>
      </g>
     </g>
    </g>
    <g id="xtick_7">
     <g id="line2d_27">
      <g>
       <use style="stroke:#000000;stroke-width:0.5;" x="411.8466" xlink:href="#m713eca043b" y="196.6099999999999"/>
      </g>
     </g>
     <g id="line2d_28">
      <g>
       <use style="stroke:#000000;stroke-width:0.5;" x="411.8466" xlink:href="#m7f3416d623" y="12.960000000000036"/>
      </g>
     </g>
     <g id="text_13">
      <!-- 1 -->
      <g transform="translate(408.0291 209.72812499999986)scale(0.12 -0.12)">
       <use xlink:href="#BitstreamVeraSans-Roman-31"/>
      </g>
     </g>
    </g>
    <g id="xtick_8">
     <g id="line2d_29">
      <g>
       <use style="stroke:#000000;stroke-width:0.5;" x="480.84080000000006" xlink:href="#m713eca043b" y="196.6099999999999"/>
      </g>
     </g>
     <g id="line2d_30">
      <g>
       <use style="stroke:#000000;stroke-width:0.5;" x="480.84080000000006" xlink:href="#m7f3416d623" y="12.960000000000036"/>
      </g>
     </g>
     <g id="text_14">
      <!-- 2 -->
      <g transform="translate(477.02330000000006 209.72812499999986)scale(0.12 -0.12)">
       <use xlink:href="#BitstreamVeraSans-Roman-32"/>
      </g>
     </g>
    </g>
    <g id="xtick_9">
     <g id="line2d_31">
      <g>
       <use style="stroke:#000000;stroke-width:0.5;" x="549.835" xlink:href="#m713eca043b" y="196.6099999999999"/>
      </g>
     </g>
     <g id="line2d_32">
      <g>
       <use style="stroke:#000000;stroke-width:0.5;" x="549.835" xlink:href="#m7f3416d623" y="12.960000000000036"/>
      </g>
     </g>
     <g id="text_15">
      <!-- 3 -->
      <g transform="translate(546.0175 209.72812499999986)scale(0.12 -0.12)">
       <use xlink:href="#BitstreamVeraSans-Roman-33"/>
      </g>
     </g>
    </g>
    <g id="xtick_10">
     <g id="line2d_33">
      <g>
       <use style="stroke:#000000;stroke-width:0.5;" x="618.8292" xlink:href="#m713eca043b" y="196.6099999999999"/>
      </g>
     </g>
     <g id="line2d_34">
      <g>
       <use style="stroke:#000000;stroke-width:0.5;" x="618.8292" xlink:href="#m7f3416d623" y="12.960000000000036"/>
      </g>
     </g>
     <g id="text_16">
      <!-- 4 -->
      <g transform="translate(615.0117 209.72812499999986)scale(0.12 -0.12)">
       <use xlink:href="#BitstreamVeraSans-Roman-34"/>
      </g>
     </g>
    </g>
   </g>
   <g id="matplotlib.axis_4">
    <g id="ytick_4">
     <g id="line2d_35">
      <g>
       <use style="stroke:#000000;stroke-width:0.5;" x="342.85240000000005" xlink:href="#m7f7efe40df" y="196.6099999999999"/>
      </g>
     </g>
     <g id="line2d_36">
      <g>
       <use style="stroke:#000000;stroke-width:0.5;" x="618.8292" xlink:href="#m81f8d3ba75" y="196.6099999999999"/>
      </g>
     </g>
     <g id="text_17">
      <!-- 0.0 -->
      <g transform="translate(319.76865000000004 199.92124999999987)scale(0.12 -0.12)">
       <use xlink:href="#BitstreamVeraSans-Roman-30"/>
       <use x="63.623046875" xlink:href="#BitstreamVeraSans-Roman-2e"/>
       <use x="95.41015625" xlink:href="#BitstreamVeraSans-Roman-30"/>
      </g>
     </g>
    </g>
    <g id="ytick_5">
     <g id="line2d_37">
      <g>
       <use style="stroke:#000000;stroke-width:0.5;" x="342.85240000000005" xlink:href="#m7f7efe40df" y="113.13272727272724"/>
      </g>
     </g>
     <g id="line2d_38">
      <g>
       <use style="stroke:#000000;stroke-width:0.5;" x="618.8292" xlink:href="#m81f8d3ba75" y="113.13272727272724"/>
      </g>
     </g>
     <g id="text_18">
      <!-- 0.5 -->
      <g transform="translate(319.76865000000004 116.44397727272724)scale(0.12 -0.12)">
       <use xlink:href="#BitstreamVeraSans-Roman-30"/>
       <use x="63.623046875" xlink:href="#BitstreamVeraSans-Roman-2e"/>
       <use x="95.41015625" xlink:href="#BitstreamVeraSans-Roman-35"/>
      </g>
     </g>
    </g>
    <g id="ytick_6">
     <g id="line2d_39">
      <g>
       <use style="stroke:#000000;stroke-width:0.5;" x="342.85240000000005" xlink:href="#m7f7efe40df" y="29.655454545454575"/>
      </g>
     </g>
     <g id="line2d_40">
      <g>
       <use style="stroke:#000000;stroke-width:0.5;" x="618.8292" xlink:href="#m81f8d3ba75" y="29.655454545454575"/>
      </g>
     </g>
     <g id="text_19">
      <!-- 1.0 -->
      <g transform="translate(319.76865000000004 32.96670454545449)scale(0.12 -0.12)">
       <use xlink:href="#BitstreamVeraSans-Roman-31"/>
       <use x="63.623046875" xlink:href="#BitstreamVeraSans-Roman-2e"/>
       <use x="95.41015625" xlink:href="#BitstreamVeraSans-Roman-30"/>
      </g>
     </g>
    </g>
   </g>
   <g id="text_20">
    <!-- 0.71 meV -->
    <defs>
     <path d="M 8.203125 72.90625 
L 55.078125 72.90625 
L 55.078125 68.703125 
L 28.609375 0 
L 18.3125 0 
L 43.21875 64.59375 
L 8.203125 64.59375 
z
" id="BitstreamVeraSans-Roman-37"/>
    </defs>
    <g transform="translate(480.84080000000006 163.21909090909082)scale(0.08 -0.08)">
     <use xlink:href="#BitstreamVeraSans-Roman-30"/>
     <use x="63.623046875" xlink:href="#BitstreamVeraSans-Roman-2e"/>
     <use x="95.41015625" xlink:href="#BitstreamVeraSans-Roman-37"/>
     <use x="159.033203125" xlink:href="#BitstreamVeraSans-Roman-31"/>
     <use x="222.65625" xlink:href="#BitstreamVeraSans-Roman-20"/>
     <use x="254.443359375" xlink:href="#BitstreamVeraSans-Roman-6d"/>
     <use x="351.85546875" xlink:href="#BitstreamVeraSans-Roman-65"/>
     <use x="413.37890625" xlink:href="#BitstreamVeraSans-Roman-56"/>
    </g>
   </g>
   <g id="legend_2">
    <g id="line2d_41">
     <path d="M 352.4524 23.43875 
L 363.6524 23.43875 
" style="fill:none;stroke:#0000ff;stroke-linecap:square;stroke-width:2.0;"/>
    </g>
    <g id="line2d_42"/>
    <g id="text_21">
     <!-- P300 -->
     <g transform="translate(372.4524 26.238749999999982)scale(0.08 -0.08)">
      <use xlink:href="#BitstreamVeraSans-Roman-50"/>
      <use x="60.302734375" xlink:href="#BitstreamVeraSans-Roman-33"/>
      <use x="123.92578125" xlink:href="#BitstreamVeraSans-Roman-30"/>
      <use x="187.548828125" xlink:href="#BitstreamVeraSans-Roman-30"/>
     </g>
    </g>
    <g id="line2d_43">
     <path d="M 352.4524 35.18125 
L 363.6524 35.18125 
" style="fill:none;stroke:#008000;stroke-linecap:square;stroke-width:2.0;"/>
    </g>
    <g id="line2d_44"/>
    <g id="text_22">
     <!-- N300 -->
     <g transform="translate(372.4524 37.98124999999993)scale(0.08 -0.08)">
      <use xlink:href="#BitstreamVeraSans-Roman-4e"/>
      <use x="74.8046875" xlink:href="#BitstreamVeraSans-Roman-33"/>
      <use x="138.427734375" xlink:href="#BitstreamVeraSans-Roman-30"/>
      <use x="202.05078125" xlink:href="#BitstreamVeraSans-Roman-30"/>
     </g>
    </g>
   </g>
  </g>
  <g id="axes_3">
   <g id="patch_12">
    <path d="M 31.7548 408.92 
L 307.7316 408.92 
L 307.7316 225.27 
L 31.7548 225.27 
z
" style="fill:#ffffff;"/>
   </g>
   <g id="line2d_45">
    <path clip-path="url(#pa8ee47b582)" d="M 31.7548 408.92 
L 38.831128 404.58669 
L 45.907456 392.311706 
L 52.983785 374.02805 
L 60.060113 352.295021 
L 67.136441 329.672693 
L 74.212769 308.281374 
L 81.289097 289.591134 
L 88.365426 274.386808 
L 95.441754 262.840598 
L 102.518082 254.65297 
L 109.59441 249.232021 
L 116.670738 245.882849 
L 123.747067 243.951349 
L 130.823395 242.911334 
L 137.899723 242.388286 
L 144.976051 242.142584 
L 152.052379 242.034927 
L 159.128708 241.990887 
L 166.205036 241.974126 
L 173.281364 241.968202 
L 180.357692 241.96626 
L 187.434021 241.965672 
L 194.510349 241.965509 
L 201.586677 241.965467 
L 208.663005 241.965457 
L 215.739333 241.965455 
L 222.815662 241.965455 
L 229.89199 241.965455 
L 236.968318 241.965455 
L 244.044646 241.965455 
L 251.120974 241.965455 
L 258.197303 241.965455 
L 265.273631 241.965455 
L 272.349959 241.965455 
L 279.426287 241.965455 
L 286.502615 241.965455 
L 293.578944 241.965455 
L 300.655272 241.965455 
L 307.7316 241.965455 
" style="fill:none;stroke:#0000ff;stroke-linecap:square;stroke-width:2.0;"/>
   </g>
   <g id="line2d_46">
    <path clip-path="url(#pa8ee47b582)" d="M 31.7548 408.92 
L 38.831128 404.653176 
L 45.907456 392.623751 
L 52.983785 374.849305 
L 60.060113 353.90343 
L 67.136441 332.224578 
L 74.212769 311.700379 
L 81.289097 293.56395 
L 88.365426 278.45994 
L 95.441754 266.570133 
L 102.518082 257.729356 
L 109.59441 251.534248 
L 116.670738 247.454522 
L 123.747067 244.935291 
L 130.823395 243.478383 
L 137.899723 242.690371 
L 144.976051 242.291779 
L 152.052379 242.103398 
L 159.128708 242.020159 
L 166.205036 241.985802 
L 173.281364 241.972555 
L 180.357692 241.967779 
L 187.434021 241.966168 
L 194.510349 241.96566 
L 201.586677 241.96551 
L 208.663005 241.965469 
L 215.739333 241.965458 
L 222.815662 241.965455 
L 229.89199 241.965455 
L 236.968318 241.965455 
L 244.044646 241.965455 
L 251.120974 241.965455 
L 258.197303 241.965455 
L 265.273631 241.965455 
L 272.349959 241.965455 
L 279.426287 241.965455 
L 286.502615 241.965455 
L 293.578944 241.965455 
L 300.655272 241.965455 
L 307.7316 241.965455 
" style="fill:none;stroke:#008000;stroke-linecap:square;stroke-width:2.0;"/>
   </g>
   <g id="patch_13">
    <path d="M 31.7548 225.27 
L 307.7316 225.27 
" style="fill:none;stroke:#000000;stroke-linecap:square;stroke-linejoin:miter;"/>
   </g>
   <g id="patch_14">
    <path d="M 307.7316 408.92 
L 307.7316 225.27 
" style="fill:none;stroke:#000000;stroke-linecap:square;stroke-linejoin:miter;"/>
   </g>
   <g id="patch_15">
    <path d="M 31.7548 408.92 
L 307.7316 408.92 
" style="fill:none;stroke:#000000;stroke-linecap:square;stroke-linejoin:miter;"/>
   </g>
   <g id="patch_16">
    <path d="M 31.7548 408.92 
L 31.7548 225.27 
" style="fill:none;stroke:#000000;stroke-linecap:square;stroke-linejoin:miter;"/>
   </g>
   <g id="matplotlib.axis_5">
    <g id="xtick_11">
     <g id="line2d_47">
      <g>
       <use style="stroke:#000000;stroke-width:0.5;" x="31.7548" xlink:href="#m713eca043b" y="408.9199999999999"/>
      </g>
     </g>
     <g id="line2d_48">
      <g>
       <use style="stroke:#000000;stroke-width:0.5;" x="31.7548" xlink:href="#m7f3416d623" y="225.26999999999998"/>
      </g>
     </g>
     <g id="text_23">
      <!-- 0 -->
      <g transform="translate(27.9373 422.0381249999999)scale(0.12 -0.12)">
       <use xlink:href="#BitstreamVeraSans-Roman-30"/>
      </g>
     </g>
    </g>
    <g id="xtick_12">
     <g id="line2d_49">
      <g>
       <use style="stroke:#000000;stroke-width:0.5;" x="100.749" xlink:href="#m713eca043b" y="408.9199999999999"/>
      </g>
     </g>
     <g id="line2d_50">
      <g>
       <use style="stroke:#000000;stroke-width:0.5;" x="100.749" xlink:href="#m7f3416d623" y="225.26999999999998"/>
      </g>
     </g>
     <g id="text_24">
      <!-- 1 -->
      <g transform="translate(96.9315 422.0381249999999)scale(0.12 -0.12)">
       <use xlink:href="#BitstreamVeraSans-Roman-31"/>
      </g>
     </g>
    </g>
    <g id="xtick_13">
     <g id="line2d_51">
      <g>
       <use style="stroke:#000000;stroke-width:0.5;" x="169.74319999999997" xlink:href="#m713eca043b" y="408.9199999999999"/>
      </g>
     </g>
     <g id="line2d_52">
      <g>
       <use style="stroke:#000000;stroke-width:0.5;" x="169.74319999999997" xlink:href="#m7f3416d623" y="225.26999999999998"/>
      </g>
     </g>
     <g id="text_25">
      <!-- 2 -->
      <g transform="translate(165.92569999999998 422.0381249999999)scale(0.12 -0.12)">
       <use xlink:href="#BitstreamVeraSans-Roman-32"/>
      </g>
     </g>
    </g>
    <g id="xtick_14">
     <g id="line2d_53">
      <g>
       <use style="stroke:#000000;stroke-width:0.5;" x="238.73739999999998" xlink:href="#m713eca043b" y="408.9199999999999"/>
      </g>
     </g>
     <g id="line2d_54">
      <g>
       <use style="stroke:#000000;stroke-width:0.5;" x="238.73739999999998" xlink:href="#m7f3416d623" y="225.26999999999998"/>
      </g>
     </g>
     <g id="text_26">
      <!-- 3 -->
      <g transform="translate(234.91989999999998 422.0381249999999)scale(0.12 -0.12)">
       <use xlink:href="#BitstreamVeraSans-Roman-33"/>
      </g>
     </g>
    </g>
    <g id="xtick_15">
     <g id="line2d_55">
      <g>
       <use style="stroke:#000000;stroke-width:0.5;" x="307.73159999999996" xlink:href="#m713eca043b" y="408.9199999999999"/>
      </g>
     </g>
     <g id="line2d_56">
      <g>
       <use style="stroke:#000000;stroke-width:0.5;" x="307.73159999999996" xlink:href="#m7f3416d623" y="225.26999999999998"/>
      </g>
     </g>
     <g id="text_27">
      <!-- 4 -->
      <g transform="translate(303.91409999999996 422.0381249999999)scale(0.12 -0.12)">
       <use xlink:href="#BitstreamVeraSans-Roman-34"/>
      </g>
     </g>
    </g>
   </g>
   <g id="matplotlib.axis_6">
    <g id="ytick_7">
     <g id="line2d_57">
      <g>
       <use style="stroke:#000000;stroke-width:0.5;" x="31.7548" xlink:href="#m7f7efe40df" y="408.9199999999999"/>
      </g>
     </g>
     <g id="line2d_58">
      <g>
       <use style="stroke:#000000;stroke-width:0.5;" x="307.73159999999996" xlink:href="#m81f8d3ba75" y="408.9199999999999"/>
      </g>
     </g>
     <g id="text_28">
      <!-- 0.0 -->
      <g transform="translate(8.671050000000001 412.2312499999999)scale(0.12 -0.12)">
       <use xlink:href="#BitstreamVeraSans-Roman-30"/>
       <use x="63.623046875" xlink:href="#BitstreamVeraSans-Roman-2e"/>
       <use x="95.41015625" xlink:href="#BitstreamVeraSans-Roman-30"/>
      </g>
     </g>
    </g>
    <g id="ytick_8">
     <g id="line2d_59">
      <g>
       <use style="stroke:#000000;stroke-width:0.5;" x="31.7548" xlink:href="#m7f7efe40df" y="325.4427272727272"/>
      </g>
     </g>
     <g id="line2d_60">
      <g>
       <use style="stroke:#000000;stroke-width:0.5;" x="307.73159999999996" xlink:href="#m81f8d3ba75" y="325.4427272727272"/>
      </g>
     </g>
     <g id="text_29">
      <!-- 0.5 -->
      <g transform="translate(8.671050000000001 328.7539772727272)scale(0.12 -0.12)">
       <use xlink:href="#BitstreamVeraSans-Roman-30"/>
       <use x="63.623046875" xlink:href="#BitstreamVeraSans-Roman-2e"/>
       <use x="95.41015625" xlink:href="#BitstreamVeraSans-Roman-35"/>
      </g>
     </g>
    </g>
    <g id="ytick_9">
     <g id="line2d_61">
      <g>
       <use style="stroke:#000000;stroke-width:0.5;" x="31.7548" xlink:href="#m7f7efe40df" y="241.96545454545452"/>
      </g>
     </g>
     <g id="line2d_62">
      <g>
       <use style="stroke:#000000;stroke-width:0.5;" x="307.73159999999996" xlink:href="#m81f8d3ba75" y="241.96545454545452"/>
      </g>
     </g>
     <g id="text_30">
      <!-- 1.0 -->
      <g transform="translate(8.671050000000001 245.27670454545444)scale(0.12 -0.12)">
       <use xlink:href="#BitstreamVeraSans-Roman-31"/>
       <use x="63.623046875" xlink:href="#BitstreamVeraSans-Roman-2e"/>
       <use x="95.41015625" xlink:href="#BitstreamVeraSans-Roman-30"/>
      </g>
     </g>
    </g>
   </g>
   <g id="text_31">
    <!-- 0.9 meV -->
    <defs>
     <path d="M 10.984375 1.515625 
L 10.984375 10.5 
Q 14.703125 8.734375 18.5 7.8125 
Q 22.3125 6.890625 25.984375 6.890625 
Q 35.75 6.890625 40.890625 13.453125 
Q 46.046875 20.015625 46.78125 33.40625 
Q 43.953125 29.203125 39.59375 26.953125 
Q 35.25 24.703125 29.984375 24.703125 
Q 19.046875 24.703125 12.671875 31.3125 
Q 6.296875 37.9375 6.296875 49.421875 
Q 6.296875 60.640625 12.9375 67.421875 
Q 19.578125 74.21875 30.609375 74.21875 
Q 43.265625 74.21875 49.921875 64.515625 
Q 56.59375 54.828125 56.59375 36.375 
Q 56.59375 19.140625 48.40625 8.859375 
Q 40.234375 -1.421875 26.421875 -1.421875 
Q 22.703125 -1.421875 18.890625 -0.6875 
Q 15.09375 0.046875 10.984375 1.515625 
M 30.609375 32.421875 
Q 37.25 32.421875 41.125 36.953125 
Q 45.015625 41.5 45.015625 49.421875 
Q 45.015625 57.28125 41.125 61.84375 
Q 37.25 66.40625 30.609375 66.40625 
Q 23.96875 66.40625 20.09375 61.84375 
Q 16.21875 57.28125 16.21875 49.421875 
Q 16.21875 41.5 20.09375 36.953125 
Q 23.96875 32.421875 30.609375 32.421875 
" id="BitstreamVeraSans-Roman-39"/>
    </defs>
    <g transform="translate(169.74319999999997 375.5290909090908)scale(0.08 -0.08)">
     <use xlink:href="#BitstreamVeraSans-Roman-30"/>
     <use x="63.623046875" xlink:href="#BitstreamVeraSans-Roman-2e"/>
     <use x="95.41015625" xlink:href="#BitstreamVeraSans-Roman-39"/>
     <use x="159.033203125" xlink:href="#BitstreamVeraSans-Roman-20"/>
     <use x="190.8203125" xlink:href="#BitstreamVeraSans-Roman-6d"/>
     <use x="288.232421875" xlink:href="#BitstreamVeraSans-Roman-65"/>
     <use x="349.755859375" xlink:href="#BitstreamVeraSans-Roman-56"/>
    </g>
   </g>
   <g id="legend_3">
    <g id="line2d_63">
     <path d="M 41.3548 235.74875 
L 52.5548 235.74875 
" style="fill:none;stroke:#0000ff;stroke-linecap:square;stroke-width:2.0;"/>
    </g>
    <g id="line2d_64"/>
    <g id="text_32">
     <!-- P300 -->
     <g transform="translate(61.354800000000004 238.54874999999993)scale(0.08 -0.08)">
      <use xlink:href="#BitstreamVeraSans-Roman-50"/>
      <use x="60.302734375" xlink:href="#BitstreamVeraSans-Roman-33"/>
      <use x="123.92578125" xlink:href="#BitstreamVeraSans-Roman-30"/>
      <use x="187.548828125" xlink:href="#BitstreamVeraSans-Roman-30"/>
     </g>
    </g>
    <g id="line2d_65">
     <path d="M 41.3548 247.49125 
L 52.5548 247.49125 
" style="fill:none;stroke:#008000;stroke-linecap:square;stroke-width:2.0;"/>
    </g>
    <g id="line2d_66"/>
    <g id="text_33">
     <!-- N300 -->
     <g transform="translate(61.354800000000004 250.29124999999988)scale(0.08 -0.08)">
      <use xlink:href="#BitstreamVeraSans-Roman-4e"/>
      <use x="74.8046875" xlink:href="#BitstreamVeraSans-Roman-33"/>
      <use x="138.427734375" xlink:href="#BitstreamVeraSans-Roman-30"/>
      <use x="202.05078125" xlink:href="#BitstreamVeraSans-Roman-30"/>
     </g>
    </g>
   </g>
  </g>
  <g id="axes_4">
   <g id="patch_17">
    <path d="M 342.8524 408.92 
L 618.8292 408.92 
L 618.8292 225.27 
L 342.8524 225.27 
z
" style="fill:#ffffff;"/>
   </g>
   <g id="line2d_67">
    <path clip-path="url(#p27a2540b09)" d="M 342.8524 408.92 
L 349.928728 404.565301 
L 357.005056 392.240067 
L 364.081385 373.916314 
L 371.157713 352.20366 
L 378.234041 329.693616 
L 385.310369 308.492814 
L 392.386697 290.012803 
L 399.463026 274.966868 
L 406.539354 263.479371 
L 413.615682 255.24869 
L 420.69201 249.716459 
L 427.768338 246.233027 
L 434.844667 244.179579 
L 441.920995 243.047024 
L 448.997323 242.462608 
L 456.073651 242.180386 
L 463.149979 242.052836 
L 470.226308 241.99885 
L 477.302636 241.977457 
L 484.378964 241.969517 
L 491.455292 241.966749 
L 498.531621 241.965844 
L 505.607949 241.965566 
L 512.684277 241.965485 
L 519.760605 241.965462 
L 526.836933 241.965457 
L 533.913262 241.965455 
L 540.98959 241.965455 
L 548.065918 241.965455 
L 555.142246 241.965455 
L 562.218574 241.965455 
L 569.294903 241.965455 
L 576.371231 241.965455 
L 583.447559 241.965455 
L 590.523887 241.965455 
L 597.600215 241.965455 
L 604.676544 241.965455 
L 611.752872 241.965455 
L 618.8292 241.965455 
" style="fill:none;stroke:#0000ff;stroke-linecap:square;stroke-width:2.0;"/>
   </g>
   <g id="line2d_68">
    <path clip-path="url(#p27a2540b09)" d="M 342.8524 408.92 
L 349.928728 404.634169 
L 357.005056 392.575097 
L 364.081385 374.839171 
L 371.157713 354.103985 
L 378.234041 332.883739 
L 385.310369 313.054053 
L 392.386697 295.723778 
L 399.463026 281.345036 
L 406.539354 269.915038 
L 413.615682 261.168174 
L 420.69201 254.7134 
L 427.768338 250.124935 
L 434.844667 246.989291 
L 441.920995 244.934766 
L 448.997323 243.647178 
L 456.073651 242.876848 
L 463.149979 242.437526 
L 470.226308 242.198924 
L 477.302636 242.075613 
L 484.378964 242.015014 
L 491.455292 241.986698 
L 498.531621 241.974126 
L 505.607949 241.968824 
L 512.684277 241.9667 
L 519.760605 241.965893 
L 526.836933 241.965601 
L 533.913262 241.965501 
L 540.98959 241.965469 
L 548.065918 241.965459 
L 555.142246 241.965456 
L 562.218574 241.965455 
L 569.294903 241.965455 
L 576.371231 241.965455 
L 583.447559 241.965455 
L 590.523887 241.965455 
L 597.600215 241.965455 
L 604.676544 241.965455 
L 611.752872 241.965455 
L 618.8292 241.965455 
" style="fill:none;stroke:#008000;stroke-linecap:square;stroke-width:2.0;"/>
   </g>
   <g id="patch_18">
    <path d="M 342.8524 225.27 
L 618.8292 225.27 
" style="fill:none;stroke:#000000;stroke-linecap:square;stroke-linejoin:miter;"/>
   </g>
   <g id="patch_19">
    <path d="M 618.8292 408.92 
L 618.8292 225.27 
" style="fill:none;stroke:#000000;stroke-linecap:square;stroke-linejoin:miter;"/>
   </g>
   <g id="patch_20">
    <path d="M 342.8524 408.92 
L 618.8292 408.92 
" style="fill:none;stroke:#000000;stroke-linecap:square;stroke-linejoin:miter;"/>
   </g>
   <g id="patch_21">
    <path d="M 342.8524 408.92 
L 342.8524 225.27 
" style="fill:none;stroke:#000000;stroke-linecap:square;stroke-linejoin:miter;"/>
   </g>
   <g id="matplotlib.axis_7">
    <g id="xtick_16">
     <g id="line2d_69">
      <g>
       <use style="stroke:#000000;stroke-width:0.5;" x="342.85240000000005" xlink:href="#m713eca043b" y="408.9199999999999"/>
      </g>
     </g>
     <g id="line2d_70">
      <g>
       <use style="stroke:#000000;stroke-width:0.5;" x="342.85240000000005" xlink:href="#m7f3416d623" y="225.26999999999998"/>
      </g>
     </g>
     <g id="text_34">
      <!-- 0 -->
      <g transform="translate(339.03490000000005 422.0381249999999)scale(0.12 -0.12)">
       <use xlink:href="#BitstreamVeraSans-Roman-30"/>
      </g>
     </g>
    </g>
    <g id="xtick_17">
     <g id="line2d_71">
      <g>
       <use style="stroke:#000000;stroke-width:0.5;" x="411.8466" xlink:href="#m713eca043b" y="408.9199999999999"/>
      </g>
     </g>
     <g id="line2d_72">
      <g>
       <use style="stroke:#000000;stroke-width:0.5;" x="411.8466" xlink:href="#m7f3416d623" y="225.26999999999998"/>
      </g>
     </g>
     <g id="text_35">
      <!-- 1 -->
      <g transform="translate(408.0291 422.0381249999999)scale(0.12 -0.12)">
       <use xlink:href="#BitstreamVeraSans-Roman-31"/>
      </g>
     </g>
    </g>
    <g id="xtick_18">
     <g id="line2d_73">
      <g>
       <use style="stroke:#000000;stroke-width:0.5;" x="480.84080000000006" xlink:href="#m713eca043b" y="408.9199999999999"/>
      </g>
     </g>
     <g id="line2d_74">
      <g>
       <use style="stroke:#000000;stroke-width:0.5;" x="480.84080000000006" xlink:href="#m7f3416d623" y="225.26999999999998"/>
      </g>
     </g>
     <g id="text_36">
      <!-- 2 -->
      <g transform="translate(477.02330000000006 422.0381249999999)scale(0.12 -0.12)">
       <use xlink:href="#BitstreamVeraSans-Roman-32"/>
      </g>
     </g>
    </g>
    <g id="xtick_19">
     <g id="line2d_75">
      <g>
       <use style="stroke:#000000;stroke-width:0.5;" x="549.835" xlink:href="#m713eca043b" y="408.9199999999999"/>
      </g>
     </g>
     <g id="line2d_76">
      <g>
       <use style="stroke:#000000;stroke-width:0.5;" x="549.835" xlink:href="#m7f3416d623" y="225.26999999999998"/>
      </g>
     </g>
     <g id="text_37">
      <!-- 3 -->
      <g transform="translate(546.0175 422.0381249999999)scale(0.12 -0.12)">
       <use xlink:href="#BitstreamVeraSans-Roman-33"/>
      </g>
     </g>
    </g>
    <g id="xtick_20">
     <g id="line2d_77">
      <g>
       <use style="stroke:#000000;stroke-width:0.5;" x="618.8292" xlink:href="#m713eca043b" y="408.9199999999999"/>
      </g>
     </g>
     <g id="line2d_78">
      <g>
       <use style="stroke:#000000;stroke-width:0.5;" x="618.8292" xlink:href="#m7f3416d623" y="225.26999999999998"/>
      </g>
     </g>
     <g id="text_38">
      <!-- 4 -->
      <g transform="translate(615.0117 422.0381249999999)scale(0.12 -0.12)">
       <use xlink:href="#BitstreamVeraSans-Roman-34"/>
      </g>
     </g>
    </g>
   </g>
   <g id="matplotlib.axis_8">
    <g id="ytick_10">
     <g id="line2d_79">
      <g>
       <use style="stroke:#000000;stroke-width:0.5;" x="342.85240000000005" xlink:href="#m7f7efe40df" y="408.9199999999999"/>
      </g>
     </g>
     <g id="line2d_80">
      <g>
       <use style="stroke:#000000;stroke-width:0.5;" x="618.8292" xlink:href="#m81f8d3ba75" y="408.9199999999999"/>
      </g>
     </g>
     <g id="text_39">
      <!-- 0.0 -->
      <g transform="translate(319.76865000000004 412.2312499999999)scale(0.12 -0.12)">
       <use xlink:href="#BitstreamVeraSans-Roman-30"/>
       <use x="63.623046875" xlink:href="#BitstreamVeraSans-Roman-2e"/>
       <use x="95.41015625" xlink:href="#BitstreamVeraSans-Roman-30"/>
      </g>
     </g>
    </g>
    <g id="ytick_11">
     <g id="line2d_81">
      <g>
       <use style="stroke:#000000;stroke-width:0.5;" x="342.85240000000005" xlink:href="#m7f7efe40df" y="325.4427272727272"/>
      </g>
     </g>
     <g id="line2d_82">
      <g>
       <use style="stroke:#000000;stroke-width:0.5;" x="618.8292" xlink:href="#m81f8d3ba75" y="325.4427272727272"/>
      </g>
     </g>
     <g id="text_40">
      <!-- 0.5 -->
      <g transform="translate(319.76865000000004 328.7539772727272)scale(0.12 -0.12)">
       <use xlink:href="#BitstreamVeraSans-Roman-30"/>
       <use x="63.623046875" xlink:href="#BitstreamVeraSans-Roman-2e"/>
       <use x="95.41015625" xlink:href="#BitstreamVeraSans-Roman-35"/>
      </g>
     </g>
    </g>
    <g id="ytick_12">
     <g id="line2d_83">
      <g>
       <use style="stroke:#000000;stroke-width:0.5;" x="342.85240000000005" xlink:href="#m7f7efe40df" y="241.96545454545452"/>
      </g>
     </g>
     <g id="line2d_84">
      <g>
       <use style="stroke:#000000;stroke-width:0.5;" x="618.8292" xlink:href="#m81f8d3ba75" y="241.96545454545452"/>
      </g>
     </g>
     <g id="text_41">
      <!-- 1.0 -->
      <g transform="translate(319.76865000000004 245.27670454545444)scale(0.12 -0.12)">
       <use xlink:href="#BitstreamVeraSans-Roman-31"/>
       <use x="63.623046875" xlink:href="#BitstreamVeraSans-Roman-2e"/>
       <use x="95.41015625" xlink:href="#BitstreamVeraSans-Roman-30"/>
      </g>
     </g>
    </g>
   </g>
   <g id="text_42">
    <!-- 1.0 meV -->
    <g transform="translate(480.84080000000006 375.5290909090908)scale(0.08 -0.08)">
     <use xlink:href="#BitstreamVeraSans-Roman-31"/>
     <use x="63.623046875" xlink:href="#BitstreamVeraSans-Roman-2e"/>
     <use x="95.41015625" xlink:href="#BitstreamVeraSans-Roman-30"/>
     <use x="159.033203125" xlink:href="#BitstreamVeraSans-Roman-20"/>
     <use x="190.8203125" xlink:href="#BitstreamVeraSans-Roman-6d"/>
     <use x="288.232421875" xlink:href="#BitstreamVeraSans-Roman-65"/>
     <use x="349.755859375" xlink:href="#BitstreamVeraSans-Roman-56"/>
    </g>
   </g>
   <g id="legend_4">
    <g id="line2d_85">
     <path d="M 352.4524 235.74875 
L 363.6524 235.74875 
" style="fill:none;stroke:#0000ff;stroke-linecap:square;stroke-width:2.0;"/>
    </g>
    <g id="line2d_86"/>
    <g id="text_43">
     <!-- P300 -->
     <g transform="translate(372.4524 238.54874999999993)scale(0.08 -0.08)">
      <use xlink:href="#BitstreamVeraSans-Roman-50"/>
      <use x="60.302734375" xlink:href="#BitstreamVeraSans-Roman-33"/>
      <use x="123.92578125" xlink:href="#BitstreamVeraSans-Roman-30"/>
      <use x="187.548828125" xlink:href="#BitstreamVeraSans-Roman-30"/>
     </g>
    </g>
    <g id="line2d_87">
     <path d="M 352.4524 247.49125 
L 363.6524 247.49125 
" style="fill:none;stroke:#008000;stroke-linecap:square;stroke-width:2.0;"/>
    </g>
    <g id="line2d_88"/>
    <g id="text_44">
     <!-- N300 -->
     <g transform="translate(372.4524 250.29124999999988)scale(0.08 -0.08)">
      <use xlink:href="#BitstreamVeraSans-Roman-4e"/>
      <use x="74.8046875" xlink:href="#BitstreamVeraSans-Roman-33"/>
      <use x="138.427734375" xlink:href="#BitstreamVeraSans-Roman-30"/>
      <use x="202.05078125" xlink:href="#BitstreamVeraSans-Roman-30"/>
     </g>
    </g>
   </g>
  </g>
  <g id="axes_5">
   <g id="patch_22">
    <path d="M 31.7548 621.23 
L 307.7316 621.23 
L 307.7316 437.58 
L 31.7548 437.58 
z
" style="fill:#ffffff;"/>
   </g>
   <g id="line2d_89">
    <path clip-path="url(#p5b3de99f9c)" d="M 31.7548 621.23 
L 38.831128 616.835623 
L 45.907456 604.413048 
L 52.983785 585.99497 
L 60.060113 564.269393 
L 67.136441 541.888587 
L 74.212769 520.963054 
L 81.289097 502.838986 
L 88.365426 488.128941 
L 95.441754 476.865892 
L 102.518082 468.702247 
L 109.59441 463.090563 
L 116.670738 459.430921 
L 123.747067 457.164669 
L 130.823395 455.83017 
L 137.899723 455.081205 
L 144.976051 454.679073 
L 152.052379 454.471655 
L 159.128708 454.368291 
L 166.205036 454.318331 
L 173.281364 454.294797 
L 180.357692 454.283969 
L 187.434021 454.279108 
L 194.510349 454.276978 
L 201.586677 454.276071 
L 208.663005 454.275695 
L 215.739333 454.275546 
L 222.815662 454.275488 
L 229.89199 454.275466 
L 236.968318 454.275458 
L 244.044646 454.275456 
L 251.120974 454.275455 
L 258.197303 454.275455 
L 265.273631 454.275455 
L 272.349959 454.275455 
L 279.426287 454.275455 
L 286.502615 454.275455 
L 293.578944 454.275455 
L 300.655272 454.275455 
L 307.7316 454.275455 
" style="fill:none;stroke:#0000ff;stroke-linecap:square;stroke-width:2.0;"/>
   </g>
   <g id="line2d_90">
    <path clip-path="url(#p5b3de99f9c)" d="M 31.7548 621.23 
L 38.831128 616.888486 
L 45.907456 604.711789 
L 52.983785 586.934318 
L 60.060113 566.418662 
L 67.136441 545.835002 
L 74.212769 527.105576 
L 81.289097 511.229941 
L 88.365426 498.42112 
L 95.441754 488.376847 
L 102.518082 480.568697 
L 109.59441 474.452333 
L 116.670738 469.590385 
L 123.747067 465.6859 
L 130.823395 462.558921 
L 137.899723 460.099452 
L 144.976051 458.224053 
L 152.052379 456.849813 
L 159.128708 455.886876 
L 166.205036 455.243165 
L 173.281364 454.832873 
L 180.357692 454.583456 
L 187.434021 454.438748 
L 194.510349 454.358549 
L 201.586677 454.316053 
L 208.663005 454.294507 
L 215.739333 454.284045 
L 222.815662 454.279177 
L 229.89199 454.277005 
L 236.968318 454.276076 
L 244.044646 454.275694 
L 251.120974 454.275543 
L 258.197303 454.275486 
L 265.273631 454.275465 
L 272.349959 454.275458 
L 279.426287 454.275456 
L 286.502615 454.275455 
L 293.578944 454.275455 
L 300.655272 454.275455 
L 307.7316 454.275455 
" style="fill:none;stroke:#008000;stroke-linecap:square;stroke-width:2.0;"/>
   </g>
   <g id="patch_23">
    <path d="M 31.7548 437.58 
L 307.7316 437.58 
" style="fill:none;stroke:#000000;stroke-linecap:square;stroke-linejoin:miter;"/>
   </g>
   <g id="patch_24">
    <path d="M 307.7316 621.23 
L 307.7316 437.58 
" style="fill:none;stroke:#000000;stroke-linecap:square;stroke-linejoin:miter;"/>
   </g>
   <g id="patch_25">
    <path d="M 31.7548 621.23 
L 307.7316 621.23 
" style="fill:none;stroke:#000000;stroke-linecap:square;stroke-linejoin:miter;"/>
   </g>
   <g id="patch_26">
    <path d="M 31.7548 621.23 
L 31.7548 437.58 
" style="fill:none;stroke:#000000;stroke-linecap:square;stroke-linejoin:miter;"/>
   </g>
   <g id="matplotlib.axis_9">
    <g id="xtick_21">
     <g id="line2d_91">
      <g>
       <use style="stroke:#000000;stroke-width:0.5;" x="31.7548" xlink:href="#m713eca043b" y="621.23"/>
      </g>
     </g>
     <g id="line2d_92">
      <g>
       <use style="stroke:#000000;stroke-width:0.5;" x="31.7548" xlink:href="#m7f3416d623" y="437.58"/>
      </g>
     </g>
     <g id="text_45">
      <!-- 0 -->
      <g transform="translate(27.9373 634.348125)scale(0.12 -0.12)">
       <use xlink:href="#BitstreamVeraSans-Roman-30"/>
      </g>
     </g>
    </g>
    <g id="xtick_22">
     <g id="line2d_93">
      <g>
       <use style="stroke:#000000;stroke-width:0.5;" x="100.749" xlink:href="#m713eca043b" y="621.23"/>
      </g>
     </g>
     <g id="line2d_94">
      <g>
       <use style="stroke:#000000;stroke-width:0.5;" x="100.749" xlink:href="#m7f3416d623" y="437.58"/>
      </g>
     </g>
     <g id="text_46">
      <!-- 1 -->
      <g transform="translate(96.9315 634.348125)scale(0.12 -0.12)">
       <use xlink:href="#BitstreamVeraSans-Roman-31"/>
      </g>
     </g>
    </g>
    <g id="xtick_23">
     <g id="line2d_95">
      <g>
       <use style="stroke:#000000;stroke-width:0.5;" x="169.74319999999997" xlink:href="#m713eca043b" y="621.23"/>
      </g>
     </g>
     <g id="line2d_96">
      <g>
       <use style="stroke:#000000;stroke-width:0.5;" x="169.74319999999997" xlink:href="#m7f3416d623" y="437.58"/>
      </g>
     </g>
     <g id="text_47">
      <!-- 2 -->
      <g transform="translate(165.92569999999998 634.348125)scale(0.12 -0.12)">
       <use xlink:href="#BitstreamVeraSans-Roman-32"/>
      </g>
     </g>
    </g>
    <g id="xtick_24">
     <g id="line2d_97">
      <g>
       <use style="stroke:#000000;stroke-width:0.5;" x="238.73739999999998" xlink:href="#m713eca043b" y="621.23"/>
      </g>
     </g>
     <g id="line2d_98">
      <g>
       <use style="stroke:#000000;stroke-width:0.5;" x="238.73739999999998" xlink:href="#m7f3416d623" y="437.58"/>
      </g>
     </g>
     <g id="text_48">
      <!-- 3 -->
      <g transform="translate(234.91989999999998 634.348125)scale(0.12 -0.12)">
       <use xlink:href="#BitstreamVeraSans-Roman-33"/>
      </g>
     </g>
    </g>
    <g id="xtick_25">
     <g id="line2d_99">
      <g>
       <use style="stroke:#000000;stroke-width:0.5;" x="307.73159999999996" xlink:href="#m713eca043b" y="621.23"/>
      </g>
     </g>
     <g id="line2d_100">
      <g>
       <use style="stroke:#000000;stroke-width:0.5;" x="307.73159999999996" xlink:href="#m7f3416d623" y="437.58"/>
      </g>
     </g>
     <g id="text_49">
      <!-- 4 -->
      <g transform="translate(303.91409999999996 634.348125)scale(0.12 -0.12)">
       <use xlink:href="#BitstreamVeraSans-Roman-34"/>
      </g>
     </g>
    </g>
   </g>
   <g id="matplotlib.axis_10">
    <g id="ytick_13">
     <g id="line2d_101">
      <g>
       <use style="stroke:#000000;stroke-width:0.5;" x="31.7548" xlink:href="#m7f7efe40df" y="621.23"/>
      </g>
     </g>
     <g id="line2d_102">
      <g>
       <use style="stroke:#000000;stroke-width:0.5;" x="307.73159999999996" xlink:href="#m81f8d3ba75" y="621.23"/>
      </g>
     </g>
     <g id="text_50">
      <!-- 0.0 -->
      <g transform="translate(8.671050000000001 624.54125)scale(0.12 -0.12)">
       <use xlink:href="#BitstreamVeraSans-Roman-30"/>
       <use x="63.623046875" xlink:href="#BitstreamVeraSans-Roman-2e"/>
       <use x="95.41015625" xlink:href="#BitstreamVeraSans-Roman-30"/>
      </g>
     </g>
    </g>
    <g id="ytick_14">
     <g id="line2d_103">
      <g>
       <use style="stroke:#000000;stroke-width:0.5;" x="31.7548" xlink:href="#m7f7efe40df" y="537.7527272727273"/>
      </g>
     </g>
     <g id="line2d_104">
      <g>
       <use style="stroke:#000000;stroke-width:0.5;" x="307.73159999999996" xlink:href="#m81f8d3ba75" y="537.7527272727273"/>
      </g>
     </g>
     <g id="text_51">
      <!-- 0.5 -->
      <g transform="translate(8.671050000000001 541.0639772727272)scale(0.12 -0.12)">
       <use xlink:href="#BitstreamVeraSans-Roman-30"/>
       <use x="63.623046875" xlink:href="#BitstreamVeraSans-Roman-2e"/>
       <use x="95.41015625" xlink:href="#BitstreamVeraSans-Roman-35"/>
      </g>
     </g>
    </g>
    <g id="ytick_15">
     <g id="line2d_105">
      <g>
       <use style="stroke:#000000;stroke-width:0.5;" x="31.7548" xlink:href="#m7f7efe40df" y="454.2754545454545"/>
      </g>
     </g>
     <g id="line2d_106">
      <g>
       <use style="stroke:#000000;stroke-width:0.5;" x="307.73159999999996" xlink:href="#m81f8d3ba75" y="454.2754545454545"/>
      </g>
     </g>
     <g id="text_52">
      <!-- 1.0 -->
      <g transform="translate(8.671050000000001 457.5867045454545)scale(0.12 -0.12)">
       <use xlink:href="#BitstreamVeraSans-Roman-31"/>
       <use x="63.623046875" xlink:href="#BitstreamVeraSans-Roman-2e"/>
       <use x="95.41015625" xlink:href="#BitstreamVeraSans-Roman-30"/>
      </g>
     </g>
    </g>
   </g>
   <g id="text_53">
    <!-- 1.15 meV -->
    <g transform="translate(169.74319999999997 587.8390909090909)scale(0.08 -0.08)">
     <use xlink:href="#BitstreamVeraSans-Roman-31"/>
     <use x="63.623046875" xlink:href="#BitstreamVeraSans-Roman-2e"/>
     <use x="95.41015625" xlink:href="#BitstreamVeraSans-Roman-31"/>
     <use x="159.033203125" xlink:href="#BitstreamVeraSans-Roman-35"/>
     <use x="222.65625" xlink:href="#BitstreamVeraSans-Roman-20"/>
     <use x="254.443359375" xlink:href="#BitstreamVeraSans-Roman-6d"/>
     <use x="351.85546875" xlink:href="#BitstreamVeraSans-Roman-65"/>
     <use x="413.37890625" xlink:href="#BitstreamVeraSans-Roman-56"/>
    </g>
   </g>
   <g id="legend_5">
    <g id="line2d_107">
     <path d="M 41.3548 448.05875 
L 52.5548 448.05875 
" style="fill:none;stroke:#0000ff;stroke-linecap:square;stroke-width:2.0;"/>
    </g>
    <g id="line2d_108"/>
    <g id="text_54">
     <!-- P300 -->
     <g transform="translate(61.354800000000004 450.85875)scale(0.08 -0.08)">
      <use xlink:href="#BitstreamVeraSans-Roman-50"/>
      <use x="60.302734375" xlink:href="#BitstreamVeraSans-Roman-33"/>
      <use x="123.92578125" xlink:href="#BitstreamVeraSans-Roman-30"/>
      <use x="187.548828125" xlink:href="#BitstreamVeraSans-Roman-30"/>
     </g>
    </g>
    <g id="line2d_109">
     <path d="M 41.3548 459.80125 
L 52.5548 459.80125 
" style="fill:none;stroke:#008000;stroke-linecap:square;stroke-width:2.0;"/>
    </g>
    <g id="line2d_110"/>
    <g id="text_55">
     <!-- N300 -->
     <g transform="translate(61.354800000000004 462.60125)scale(0.08 -0.08)">
      <use xlink:href="#BitstreamVeraSans-Roman-4e"/>
      <use x="74.8046875" xlink:href="#BitstreamVeraSans-Roman-33"/>
      <use x="138.427734375" xlink:href="#BitstreamVeraSans-Roman-30"/>
      <use x="202.05078125" xlink:href="#BitstreamVeraSans-Roman-30"/>
     </g>
    </g>
   </g>
  </g>
  <g id="axes_6">
   <g id="patch_27">
    <path d="M 342.8524 621.23 
L 618.8292 621.23 
L 618.8292 437.58 
L 342.8524 437.58 
z
" style="fill:#ffffff;"/>
   </g>
   <g id="line2d_111">
    <path clip-path="url(#pf4378cba9f)" d="M 342.8524 621.23 
L 349.928728 616.786902 
L 357.005056 604.241532 
L 364.081385 585.689684 
L 371.157713 563.902193 
L 378.234041 541.599647 
L 385.310369 520.909495 
L 392.386697 503.141957 
L 399.463026 488.823413 
L 406.539354 477.894144 
L 413.615682 469.938963 
L 420.69201 464.386182 
L 427.768338 460.652284 
L 434.844667 458.220501 
L 441.920995 456.678166 
L 448.997323 455.719661 
L 456.073651 455.132834 
L 463.149979 454.777723 
L 470.226308 454.565032 
L 477.302636 454.439209 
L 484.378964 454.365975 
L 491.455292 454.324219 
L 498.531621 454.300999 
L 505.607949 454.288446 
L 512.684277 454.281865 
L 519.760605 454.278521 
L 526.836933 454.276877 
L 533.913262 454.276094 
L 540.98959 454.275734 
L 548.065918 454.275573 
L 555.142246 454.275503 
L 562.218574 454.275474 
L 569.294903 454.275462 
L 576.371231 454.275457 
L 583.447559 454.275456 
L 590.523887 454.275455 
L 597.600215 454.275455 
L 604.676544 454.275455 
L 611.752872 454.275455 
L 618.8292 454.275455 
" style="fill:none;stroke:#0000ff;stroke-linecap:square;stroke-width:2.0;"/>
   </g>
   <g id="line2d_112">
    <path clip-path="url(#pf4378cba9f)" d="M 342.8524 621.23 
L 349.928728 616.79354 
L 357.005056 604.394603 
L 364.081385 586.436152 
L 371.157713 566.003461 
L 378.234041 545.963081 
L 385.310369 528.330143 
L 392.386697 514.059138 
L 399.463026 503.185234 
L 406.539354 495.147733 
L 413.615682 489.137834 
L 420.69201 484.367611 
L 427.768338 480.235504 
L 434.844667 476.383266 
L 441.920995 472.678589 
L 448.997323 469.147482 
L 456.073651 465.894178 
L 463.149979 463.031469 
L 470.226308 460.635282 
L 477.302636 458.727659 
L 484.378964 457.280873 
L 491.455292 456.233127 
L 498.531621 455.506906 
L 505.607949 455.024073 
L 512.684277 454.715564 
L 519.760605 454.525819 
L 526.836933 454.413339 
L 533.913262 454.349001 
L 540.98959 454.313463 
L 548.065918 454.294492 
L 555.142246 454.284698 
L 562.218574 454.279807 
L 569.294903 454.277442 
L 576.371231 454.276335 
L 583.447559 454.275833 
L 590.523887 454.275612 
L 597.600215 454.275518 
L 604.676544 454.27548 
L 611.752872 454.275464 
L 618.8292 454.275458 
" style="fill:none;stroke:#008000;stroke-linecap:square;stroke-width:2.0;"/>
   </g>
   <g id="patch_28">
    <path d="M 342.8524 437.58 
L 618.8292 437.58 
" style="fill:none;stroke:#000000;stroke-linecap:square;stroke-linejoin:miter;"/>
   </g>
   <g id="patch_29">
    <path d="M 618.8292 621.23 
L 618.8292 437.58 
" style="fill:none;stroke:#000000;stroke-linecap:square;stroke-linejoin:miter;"/>
   </g>
   <g id="patch_30">
    <path d="M 342.8524 621.23 
L 618.8292 621.23 
" style="fill:none;stroke:#000000;stroke-linecap:square;stroke-linejoin:miter;"/>
   </g>
   <g id="patch_31">
    <path d="M 342.8524 621.23 
L 342.8524 437.58 
" style="fill:none;stroke:#000000;stroke-linecap:square;stroke-linejoin:miter;"/>
   </g>
   <g id="matplotlib.axis_11">
    <g id="xtick_26">
     <g id="line2d_113">
      <g>
       <use style="stroke:#000000;stroke-width:0.5;" x="342.85240000000005" xlink:href="#m713eca043b" y="621.23"/>
      </g>
     </g>
     <g id="line2d_114">
      <g>
       <use style="stroke:#000000;stroke-width:0.5;" x="342.85240000000005" xlink:href="#m7f3416d623" y="437.58"/>
      </g>
     </g>
     <g id="text_56">
      <!-- 0 -->
      <g transform="translate(339.03490000000005 634.348125)scale(0.12 -0.12)">
       <use xlink:href="#BitstreamVeraSans-Roman-30"/>
      </g>
     </g>
    </g>
    <g id="xtick_27">
     <g id="line2d_115">
      <g>
       <use style="stroke:#000000;stroke-width:0.5;" x="411.8466" xlink:href="#m713eca043b" y="621.23"/>
      </g>
     </g>
     <g id="line2d_116">
      <g>
       <use style="stroke:#000000;stroke-width:0.5;" x="411.8466" xlink:href="#m7f3416d623" y="437.58"/>
      </g>
     </g>
     <g id="text_57">
      <!-- 1 -->
      <g transform="translate(408.0291 634.348125)scale(0.12 -0.12)">
       <use xlink:href="#BitstreamVeraSans-Roman-31"/>
      </g>
     </g>
    </g>
    <g id="xtick_28">
     <g id="line2d_117">
      <g>
       <use style="stroke:#000000;stroke-width:0.5;" x="480.84080000000006" xlink:href="#m713eca043b" y="621.23"/>
      </g>
     </g>
     <g id="line2d_118">
      <g>
       <use style="stroke:#000000;stroke-width:0.5;" x="480.84080000000006" xlink:href="#m7f3416d623" y="437.58"/>
      </g>
     </g>
     <g id="text_58">
      <!-- 2 -->
      <g transform="translate(477.02330000000006 634.348125)scale(0.12 -0.12)">
       <use xlink:href="#BitstreamVeraSans-Roman-32"/>
      </g>
     </g>
    </g>
    <g id="xtick_29">
     <g id="line2d_119">
      <g>
       <use style="stroke:#000000;stroke-width:0.5;" x="549.835" xlink:href="#m713eca043b" y="621.23"/>
      </g>
     </g>
     <g id="line2d_120">
      <g>
       <use style="stroke:#000000;stroke-width:0.5;" x="549.835" xlink:href="#m7f3416d623" y="437.58"/>
      </g>
     </g>
     <g id="text_59">
      <!-- 3 -->
      <g transform="translate(546.0175 634.348125)scale(0.12 -0.12)">
       <use xlink:href="#BitstreamVeraSans-Roman-33"/>
      </g>
     </g>
    </g>
    <g id="xtick_30">
     <g id="line2d_121">
      <g>
       <use style="stroke:#000000;stroke-width:0.5;" x="618.8292" xlink:href="#m713eca043b" y="621.23"/>
      </g>
     </g>
     <g id="line2d_122">
      <g>
       <use style="stroke:#000000;stroke-width:0.5;" x="618.8292" xlink:href="#m7f3416d623" y="437.58"/>
      </g>
     </g>
     <g id="text_60">
      <!-- 4 -->
      <g transform="translate(615.0117 634.348125)scale(0.12 -0.12)">
       <use xlink:href="#BitstreamVeraSans-Roman-34"/>
      </g>
     </g>
    </g>
   </g>
   <g id="matplotlib.axis_12">
    <g id="ytick_16">
     <g id="line2d_123">
      <g>
       <use style="stroke:#000000;stroke-width:0.5;" x="342.85240000000005" xlink:href="#m7f7efe40df" y="621.23"/>
      </g>
     </g>
     <g id="line2d_124">
      <g>
       <use style="stroke:#000000;stroke-width:0.5;" x="618.8292" xlink:href="#m81f8d3ba75" y="621.23"/>
      </g>
     </g>
     <g id="text_61">
      <!-- 0.0 -->
      <g transform="translate(319.76865000000004 624.54125)scale(0.12 -0.12)">
       <use xlink:href="#BitstreamVeraSans-Roman-30"/>
       <use x="63.623046875" xlink:href="#BitstreamVeraSans-Roman-2e"/>
       <use x="95.41015625" xlink:href="#BitstreamVeraSans-Roman-30"/>
      </g>
     </g>
    </g>
    <g id="ytick_17">
     <g id="line2d_125">
      <g>
       <use style="stroke:#000000;stroke-width:0.5;" x="342.85240000000005" xlink:href="#m7f7efe40df" y="537.7527272727273"/>
      </g>
     </g>
     <g id="line2d_126">
      <g>
       <use style="stroke:#000000;stroke-width:0.5;" x="618.8292" xlink:href="#m81f8d3ba75" y="537.7527272727273"/>
      </g>
     </g>
     <g id="text_62">
      <!-- 0.5 -->
      <g transform="translate(319.76865000000004 541.0639772727272)scale(0.12 -0.12)">
       <use xlink:href="#BitstreamVeraSans-Roman-30"/>
       <use x="63.623046875" xlink:href="#BitstreamVeraSans-Roman-2e"/>
       <use x="95.41015625" xlink:href="#BitstreamVeraSans-Roman-35"/>
      </g>
     </g>
    </g>
    <g id="ytick_18">
     <g id="line2d_127">
      <g>
       <use style="stroke:#000000;stroke-width:0.5;" x="342.85240000000005" xlink:href="#m7f7efe40df" y="454.2754545454545"/>
      </g>
     </g>
     <g id="line2d_128">
      <g>
       <use style="stroke:#000000;stroke-width:0.5;" x="618.8292" xlink:href="#m81f8d3ba75" y="454.2754545454545"/>
      </g>
     </g>
     <g id="text_63">
      <!-- 1.0 -->
      <g transform="translate(319.76865000000004 457.5867045454545)scale(0.12 -0.12)">
       <use xlink:href="#BitstreamVeraSans-Roman-31"/>
       <use x="63.623046875" xlink:href="#BitstreamVeraSans-Roman-2e"/>
       <use x="95.41015625" xlink:href="#BitstreamVeraSans-Roman-30"/>
      </g>
     </g>
    </g>
   </g>
   <g id="text_64">
    <!-- 1.3 meV -->
    <g transform="translate(480.84080000000006 587.8390909090909)scale(0.08 -0.08)">
     <use xlink:href="#BitstreamVeraSans-Roman-31"/>
     <use x="63.623046875" xlink:href="#BitstreamVeraSans-Roman-2e"/>
     <use x="95.41015625" xlink:href="#BitstreamVeraSans-Roman-33"/>
     <use x="159.033203125" xlink:href="#BitstreamVeraSans-Roman-20"/>
     <use x="190.8203125" xlink:href="#BitstreamVeraSans-Roman-6d"/>
     <use x="288.232421875" xlink:href="#BitstreamVeraSans-Roman-65"/>
     <use x="349.755859375" xlink:href="#BitstreamVeraSans-Roman-56"/>
    </g>
   </g>
   <g id="legend_6">
    <g id="line2d_129">
     <path d="M 352.4524 448.05875 
L 363.6524 448.05875 
" style="fill:none;stroke:#0000ff;stroke-linecap:square;stroke-width:2.0;"/>
    </g>
    <g id="line2d_130"/>
    <g id="text_65">
     <!-- P300 -->
     <g transform="translate(372.4524 450.85875)scale(0.08 -0.08)">
      <use xlink:href="#BitstreamVeraSans-Roman-50"/>
      <use x="60.302734375" xlink:href="#BitstreamVeraSans-Roman-33"/>
      <use x="123.92578125" xlink:href="#BitstreamVeraSans-Roman-30"/>
      <use x="187.548828125" xlink:href="#BitstreamVeraSans-Roman-30"/>
     </g>
    </g>
    <g id="line2d_131">
     <path d="M 352.4524 459.80125 
L 363.6524 459.80125 
" style="fill:none;stroke:#008000;stroke-linecap:square;stroke-width:2.0;"/>
    </g>
    <g id="line2d_132"/>
    <g id="text_66">
     <!-- N300 -->
     <g transform="translate(372.4524 462.60125)scale(0.08 -0.08)">
      <use xlink:href="#BitstreamVeraSans-Roman-4e"/>
      <use x="74.8046875" xlink:href="#BitstreamVeraSans-Roman-33"/>
      <use x="138.427734375" xlink:href="#BitstreamVeraSans-Roman-30"/>
      <use x="202.05078125" xlink:href="#BitstreamVeraSans-Roman-30"/>
     </g>
    </g>
   </g>
  </g>
  <g id="axes_7">
   <g id="patch_32">
    <path d="M 31.7548 833.54 
L 307.7316 833.54 
L 307.7316 649.89 
L 31.7548 649.89 
z
" style="fill:#ffffff;"/>
   </g>
   <g id="line2d_133">
    <path clip-path="url(#pab2c313bdf)" d="M 31.7548 833.54 
L 38.831128 829.039903 
L 45.907456 816.348085 
L 52.983785 797.627053 
L 60.060113 775.732704 
L 67.136441 753.456709 
L 74.212769 732.956915 
L 81.289097 715.51711 
L 88.365426 701.594018 
L 95.441754 691.044863 
L 102.518082 683.384203 
L 109.59441 678.001952 
L 116.670738 674.308682 
L 123.747067 671.808076 
L 130.823395 670.120958 
L 137.899723 668.977642 
L 144.976051 668.196716 
L 152.052379 667.659957 
L 159.128708 667.291005 
L 166.205036 667.039524 
L 173.281364 666.870888 
L 180.357692 666.760328 
L 187.434021 666.689756 
L 194.510349 666.645992 
L 201.586677 666.619648 
L 208.663005 666.604256 
L 215.739333 666.595523 
L 222.815662 666.590708 
L 229.89199 666.588127 
L 236.968318 666.58678 
L 244.044646 666.586096 
L 251.120974 666.585758 
L 258.197303 666.585594 
L 265.273631 666.585517 
L 272.349959 666.585482 
L 279.426287 666.585466 
L 286.502615 666.58546 
L 293.578944 666.585457 
L 300.655272 666.585455 
L 307.7316 666.585455 
" style="fill:none;stroke:#0000ff;stroke-linecap:square;stroke-width:2.0;"/>
   </g>
   <g id="line2d_134">
    <path clip-path="url(#pab2c313bdf)" d="M 31.7548 833.54 
L 38.831128 828.969093 
L 45.907456 816.243349 
L 52.983785 797.969868 
L 60.060113 777.494619 
L 67.136441 757.908988 
L 74.212769 741.348519 
L 81.289097 728.744484 
L 88.365426 719.989301 
L 95.441754 714.305272 
L 102.518082 710.641726 
L 109.59441 707.983642 
L 116.670738 705.535893 
L 123.747067 702.79462 
L 130.823395 699.540518 
L 137.899723 695.78484 
L 144.976051 691.691764 
L 152.052379 687.500317 
L 159.128708 683.455981 
L 166.205036 679.76245 
L 173.281364 676.555573 
L 180.357692 673.897885 
L 187.434021 671.788191 
L 194.510349 670.179296 
L 201.586677 668.997467 
L 208.663005 668.159462 
L 215.739333 667.58481 
L 222.815662 667.20313 
L 229.89199 666.957279 
L 236.968318 666.803541 
L 244.044646 666.71013 
L 251.120974 666.654945 
L 258.197303 666.623227 
L 265.273631 666.605482 
L 272.349959 666.595815 
L 279.426287 666.590685 
L 286.502615 666.588032 
L 293.578944 666.586694 
L 300.655272 666.586037 
L 307.7316 666.585721 
" style="fill:none;stroke:#008000;stroke-linecap:square;stroke-width:2.0;"/>
   </g>
   <g id="patch_33">
    <path d="M 31.7548 649.89 
L 307.7316 649.89 
" style="fill:none;stroke:#000000;stroke-linecap:square;stroke-linejoin:miter;"/>
   </g>
   <g id="patch_34">
    <path d="M 307.7316 833.54 
L 307.7316 649.89 
" style="fill:none;stroke:#000000;stroke-linecap:square;stroke-linejoin:miter;"/>
   </g>
   <g id="patch_35">
    <path d="M 31.7548 833.54 
L 307.7316 833.54 
" style="fill:none;stroke:#000000;stroke-linecap:square;stroke-linejoin:miter;"/>
   </g>
   <g id="patch_36">
    <path d="M 31.7548 833.54 
L 31.7548 649.89 
" style="fill:none;stroke:#000000;stroke-linecap:square;stroke-linejoin:miter;"/>
   </g>
   <g id="matplotlib.axis_13">
    <g id="xtick_31">
     <g id="line2d_135">
      <g>
       <use style="stroke:#000000;stroke-width:0.5;" x="31.7548" xlink:href="#m713eca043b" y="833.5400000000001"/>
      </g>
     </g>
     <g id="line2d_136">
      <g>
       <use style="stroke:#000000;stroke-width:0.5;" x="31.7548" xlink:href="#m7f3416d623" y="649.8900000000001"/>
      </g>
     </g>
     <g id="text_67">
      <!-- 0 -->
      <g transform="translate(27.9373 846.658125)scale(0.12 -0.12)">
       <use xlink:href="#BitstreamVeraSans-Roman-30"/>
      </g>
     </g>
    </g>
    <g id="xtick_32">
     <g id="line2d_137">
      <g>
       <use style="stroke:#000000;stroke-width:0.5;" x="100.749" xlink:href="#m713eca043b" y="833.5400000000001"/>
      </g>
     </g>
     <g id="line2d_138">
      <g>
       <use style="stroke:#000000;stroke-width:0.5;" x="100.749" xlink:href="#m7f3416d623" y="649.8900000000001"/>
      </g>
     </g>
     <g id="text_68">
      <!-- 1 -->
      <g transform="translate(96.9315 846.658125)scale(0.12 -0.12)">
       <use xlink:href="#BitstreamVeraSans-Roman-31"/>
      </g>
     </g>
    </g>
    <g id="xtick_33">
     <g id="line2d_139">
      <g>
       <use style="stroke:#000000;stroke-width:0.5;" x="169.74319999999997" xlink:href="#m713eca043b" y="833.5400000000001"/>
      </g>
     </g>
     <g id="line2d_140">
      <g>
       <use style="stroke:#000000;stroke-width:0.5;" x="169.74319999999997" xlink:href="#m7f3416d623" y="649.8900000000001"/>
      </g>
     </g>
     <g id="text_69">
      <!-- 2 -->
      <g transform="translate(165.92569999999998 846.658125)scale(0.12 -0.12)">
       <use xlink:href="#BitstreamVeraSans-Roman-32"/>
      </g>
     </g>
    </g>
    <g id="xtick_34">
     <g id="line2d_141">
      <g>
       <use style="stroke:#000000;stroke-width:0.5;" x="238.73739999999998" xlink:href="#m713eca043b" y="833.5400000000001"/>
      </g>
     </g>
     <g id="line2d_142">
      <g>
       <use style="stroke:#000000;stroke-width:0.5;" x="238.73739999999998" xlink:href="#m7f3416d623" y="649.8900000000001"/>
      </g>
     </g>
     <g id="text_70">
      <!-- 3 -->
      <g transform="translate(234.91989999999998 846.658125)scale(0.12 -0.12)">
       <use xlink:href="#BitstreamVeraSans-Roman-33"/>
      </g>
     </g>
    </g>
    <g id="xtick_35">
     <g id="line2d_143">
      <g>
       <use style="stroke:#000000;stroke-width:0.5;" x="307.73159999999996" xlink:href="#m713eca043b" y="833.5400000000001"/>
      </g>
     </g>
     <g id="line2d_144">
      <g>
       <use style="stroke:#000000;stroke-width:0.5;" x="307.73159999999996" xlink:href="#m7f3416d623" y="649.8900000000001"/>
      </g>
     </g>
     <g id="text_71">
      <!-- 4 -->
      <g transform="translate(303.91409999999996 846.658125)scale(0.12 -0.12)">
       <use xlink:href="#BitstreamVeraSans-Roman-34"/>
      </g>
     </g>
    </g>
   </g>
   <g id="matplotlib.axis_14">
    <g id="ytick_19">
     <g id="line2d_145">
      <g>
       <use style="stroke:#000000;stroke-width:0.5;" x="31.7548" xlink:href="#m7f7efe40df" y="833.5400000000001"/>
      </g>
     </g>
     <g id="line2d_146">
      <g>
       <use style="stroke:#000000;stroke-width:0.5;" x="307.73159999999996" xlink:href="#m81f8d3ba75" y="833.5400000000001"/>
      </g>
     </g>
     <g id="text_72">
      <!-- 0.0 -->
      <g transform="translate(8.671050000000001 836.85125)scale(0.12 -0.12)">
       <use xlink:href="#BitstreamVeraSans-Roman-30"/>
       <use x="63.623046875" xlink:href="#BitstreamVeraSans-Roman-2e"/>
       <use x="95.41015625" xlink:href="#BitstreamVeraSans-Roman-30"/>
      </g>
     </g>
    </g>
    <g id="ytick_20">
     <g id="line2d_147">
      <g>
       <use style="stroke:#000000;stroke-width:0.5;" x="31.7548" xlink:href="#m7f7efe40df" y="750.0627272727273"/>
      </g>
     </g>
     <g id="line2d_148">
      <g>
       <use style="stroke:#000000;stroke-width:0.5;" x="307.73159999999996" xlink:href="#m81f8d3ba75" y="750.0627272727273"/>
      </g>
     </g>
     <g id="text_73">
      <!-- 0.5 -->
      <g transform="translate(8.671050000000001 753.3739772727273)scale(0.12 -0.12)">
       <use xlink:href="#BitstreamVeraSans-Roman-30"/>
       <use x="63.623046875" xlink:href="#BitstreamVeraSans-Roman-2e"/>
       <use x="95.41015625" xlink:href="#BitstreamVeraSans-Roman-35"/>
      </g>
     </g>
    </g>
    <g id="ytick_21">
     <g id="line2d_149">
      <g>
       <use style="stroke:#000000;stroke-width:0.5;" x="31.7548" xlink:href="#m7f7efe40df" y="666.5854545454546"/>
      </g>
     </g>
     <g id="line2d_150">
      <g>
       <use style="stroke:#000000;stroke-width:0.5;" x="307.73159999999996" xlink:href="#m81f8d3ba75" y="666.5854545454546"/>
      </g>
     </g>
     <g id="text_74">
      <!-- 1.0 -->
      <g transform="translate(8.671050000000001 669.8967045454546)scale(0.12 -0.12)">
       <use xlink:href="#BitstreamVeraSans-Roman-31"/>
       <use x="63.623046875" xlink:href="#BitstreamVeraSans-Roman-2e"/>
       <use x="95.41015625" xlink:href="#BitstreamVeraSans-Roman-30"/>
      </g>
     </g>
    </g>
   </g>
   <g id="text_75">
    <!-- 1.45 meV -->
    <g transform="translate(169.74319999999997 800.1490909090909)scale(0.08 -0.08)">
     <use xlink:href="#BitstreamVeraSans-Roman-31"/>
     <use x="63.623046875" xlink:href="#BitstreamVeraSans-Roman-2e"/>
     <use x="95.41015625" xlink:href="#BitstreamVeraSans-Roman-34"/>
     <use x="159.033203125" xlink:href="#BitstreamVeraSans-Roman-35"/>
     <use x="222.65625" xlink:href="#BitstreamVeraSans-Roman-20"/>
     <use x="254.443359375" xlink:href="#BitstreamVeraSans-Roman-6d"/>
     <use x="351.85546875" xlink:href="#BitstreamVeraSans-Roman-65"/>
     <use x="413.37890625" xlink:href="#BitstreamVeraSans-Roman-56"/>
    </g>
   </g>
   <g id="legend_7">
    <g id="line2d_151">
     <path d="M 41.3548 660.36875 
L 52.5548 660.36875 
" style="fill:none;stroke:#0000ff;stroke-linecap:square;stroke-width:2.0;"/>
    </g>
    <g id="line2d_152"/>
    <g id="text_76">
     <!-- P300 -->
     <g transform="translate(61.354800000000004 663.16875)scale(0.08 -0.08)">
      <use xlink:href="#BitstreamVeraSans-Roman-50"/>
      <use x="60.302734375" xlink:href="#BitstreamVeraSans-Roman-33"/>
      <use x="123.92578125" xlink:href="#BitstreamVeraSans-Roman-30"/>
      <use x="187.548828125" xlink:href="#BitstreamVeraSans-Roman-30"/>
     </g>
    </g>
    <g id="line2d_153">
     <path d="M 41.3548 672.11125 
L 52.5548 672.11125 
" style="fill:none;stroke:#008000;stroke-linecap:square;stroke-width:2.0;"/>
    </g>
    <g id="line2d_154"/>
    <g id="text_77">
     <!-- N300 -->
     <g transform="translate(61.354800000000004 674.91125)scale(0.08 -0.08)">
      <use xlink:href="#BitstreamVeraSans-Roman-4e"/>
      <use x="74.8046875" xlink:href="#BitstreamVeraSans-Roman-33"/>
      <use x="138.427734375" xlink:href="#BitstreamVeraSans-Roman-30"/>
      <use x="202.05078125" xlink:href="#BitstreamVeraSans-Roman-30"/>
     </g>
    </g>
   </g>
  </g>
  <g id="axes_8">
   <g id="patch_37">
    <path d="M 342.8524 833.54 
L 618.8292 833.54 
L 618.8292 649.89 
L 342.8524 649.89 
z
" style="fill:#ffffff;"/>
   </g>
   <g id="line2d_155">
    <path clip-path="url(#p675b70b1f0)" d="M 342.8524 833.54 
L 349.928728 828.975488 
L 357.005056 816.116499 
L 364.081385 797.19499 
L 371.157713 775.155376 
L 378.234041 752.863027 
L 385.310369 732.508504 
L 392.386697 715.35524 
L 399.463026 701.804043 
L 406.539354 691.63613 
L 413.615682 684.30259 
L 420.69201 679.151956 
L 427.768338 675.580923 
L 434.844667 673.10115 
L 441.920995 671.353427 
L 448.997323 670.092979 
L 456.073651 669.16192 
L 463.149979 668.462264 
L 470.226308 667.933195 
L 477.302636 667.535266 
L 484.378964 667.240379 
L 491.455292 667.026502 
L 498.531621 666.875281 
L 505.607949 666.771258 
L 512.684277 666.701686 
L 519.760605 666.656436 
L 526.836933 666.627796 
L 533.913262 666.610142 
L 540.98959 666.599532 
L 548.065918 666.59331 
L 555.142246 666.589746 
L 562.218574 666.587751 
L 569.294903 666.586659 
L 576.371231 666.586074 
L 583.447559 666.585767 
L 590.523887 666.585609 
L 597.600215 666.58553 
L 604.676544 666.58549 
L 611.752872 666.585471 
L 618.8292 666.585462 
" style="fill:none;stroke:#0000ff;stroke-linecap:square;stroke-width:2.0;"/>
   </g>
   <g id="line2d_156">
    <path clip-path="url(#p675b70b1f0)" d="M 342.8524 833.54 
L 349.928728 828.802617 
L 357.005056 815.667871 
L 364.081385 796.979513 
L 371.157713 776.377266 
L 378.234041 757.200968 
L 385.310369 741.704982 
L 392.386697 730.797644 
L 399.463026 724.22978 
L 406.539354 721.025116 
L 413.615682 719.930918 
L 420.69201 719.75567 
L 427.768338 719.558345 
L 434.844667 718.711827 
L 441.920995 716.888003 
L 448.997323 714.005382 
L 456.073651 710.164849 
L 463.149979 705.587576 
L 470.226308 700.559694 
L 477.302636 695.3838 
L 484.378964 690.339725 
L 491.455292 685.655695 
L 498.531621 681.491657 
L 505.607949 677.935299 
L 512.684277 675.00878 
L 519.760605 672.682654 
L 526.836933 670.892893 
L 533.913262 669.557323 
L 540.98959 668.589102 
L 548.065918 667.906232 
L 555.142246 667.437104 
L 562.218574 667.122849 
L 569.294903 666.917411 
L 576.371231 666.786251 
L 583.447559 666.704423 
L 590.523887 666.654512 
L 597.600215 666.624736 
L 604.676544 666.607354 
L 611.752872 666.597423 
L 618.8292 666.591868 
" style="fill:none;stroke:#008000;stroke-linecap:square;stroke-width:2.0;"/>
   </g>
   <g id="patch_38">
    <path d="M 342.8524 649.89 
L 618.8292 649.89 
" style="fill:none;stroke:#000000;stroke-linecap:square;stroke-linejoin:miter;"/>
   </g>
   <g id="patch_39">
    <path d="M 618.8292 833.54 
L 618.8292 649.89 
" style="fill:none;stroke:#000000;stroke-linecap:square;stroke-linejoin:miter;"/>
   </g>
   <g id="patch_40">
    <path d="M 342.8524 833.54 
L 618.8292 833.54 
" style="fill:none;stroke:#000000;stroke-linecap:square;stroke-linejoin:miter;"/>
   </g>
   <g id="patch_41">
    <path d="M 342.8524 833.54 
L 342.8524 649.89 
" style="fill:none;stroke:#000000;stroke-linecap:square;stroke-linejoin:miter;"/>
   </g>
   <g id="matplotlib.axis_15">
    <g id="xtick_36">
     <g id="line2d_157">
      <g>
       <use style="stroke:#000000;stroke-width:0.5;" x="342.85240000000005" xlink:href="#m713eca043b" y="833.5400000000001"/>
      </g>
     </g>
     <g id="line2d_158">
      <g>
       <use style="stroke:#000000;stroke-width:0.5;" x="342.85240000000005" xlink:href="#m7f3416d623" y="649.8900000000001"/>
      </g>
     </g>
     <g id="text_78">
      <!-- 0 -->
      <g transform="translate(339.03490000000005 846.658125)scale(0.12 -0.12)">
       <use xlink:href="#BitstreamVeraSans-Roman-30"/>
      </g>
     </g>
    </g>
    <g id="xtick_37">
     <g id="line2d_159">
      <g>
       <use style="stroke:#000000;stroke-width:0.5;" x="411.8466" xlink:href="#m713eca043b" y="833.5400000000001"/>
      </g>
     </g>
     <g id="line2d_160">
      <g>
       <use style="stroke:#000000;stroke-width:0.5;" x="411.8466" xlink:href="#m7f3416d623" y="649.8900000000001"/>
      </g>
     </g>
     <g id="text_79">
      <!-- 1 -->
      <g transform="translate(408.0291 846.658125)scale(0.12 -0.12)">
       <use xlink:href="#BitstreamVeraSans-Roman-31"/>
      </g>
     </g>
    </g>
    <g id="xtick_38">
     <g id="line2d_161">
      <g>
       <use style="stroke:#000000;stroke-width:0.5;" x="480.84080000000006" xlink:href="#m713eca043b" y="833.5400000000001"/>
      </g>
     </g>
     <g id="line2d_162">
      <g>
       <use style="stroke:#000000;stroke-width:0.5;" x="480.84080000000006" xlink:href="#m7f3416d623" y="649.8900000000001"/>
      </g>
     </g>
     <g id="text_80">
      <!-- 2 -->
      <g transform="translate(477.02330000000006 846.658125)scale(0.12 -0.12)">
       <use xlink:href="#BitstreamVeraSans-Roman-32"/>
      </g>
     </g>
    </g>
    <g id="xtick_39">
     <g id="line2d_163">
      <g>
       <use style="stroke:#000000;stroke-width:0.5;" x="549.835" xlink:href="#m713eca043b" y="833.5400000000001"/>
      </g>
     </g>
     <g id="line2d_164">
      <g>
       <use style="stroke:#000000;stroke-width:0.5;" x="549.835" xlink:href="#m7f3416d623" y="649.8900000000001"/>
      </g>
     </g>
     <g id="text_81">
      <!-- 3 -->
      <g transform="translate(546.0175 846.658125)scale(0.12 -0.12)">
       <use xlink:href="#BitstreamVeraSans-Roman-33"/>
      </g>
     </g>
    </g>
    <g id="xtick_40">
     <g id="line2d_165">
      <g>
       <use style="stroke:#000000;stroke-width:0.5;" x="618.8292" xlink:href="#m713eca043b" y="833.5400000000001"/>
      </g>
     </g>
     <g id="line2d_166">
      <g>
       <use style="stroke:#000000;stroke-width:0.5;" x="618.8292" xlink:href="#m7f3416d623" y="649.8900000000001"/>
      </g>
     </g>
     <g id="text_82">
      <!-- 4 -->
      <g transform="translate(615.0117 846.658125)scale(0.12 -0.12)">
       <use xlink:href="#BitstreamVeraSans-Roman-34"/>
      </g>
     </g>
    </g>
   </g>
   <g id="matplotlib.axis_16">
    <g id="ytick_22">
     <g id="line2d_167">
      <g>
       <use style="stroke:#000000;stroke-width:0.5;" x="342.85240000000005" xlink:href="#m7f7efe40df" y="833.5400000000001"/>
      </g>
     </g>
     <g id="line2d_168">
      <g>
       <use style="stroke:#000000;stroke-width:0.5;" x="618.8292" xlink:href="#m81f8d3ba75" y="833.5400000000001"/>
      </g>
     </g>
     <g id="text_83">
      <!-- 0.0 -->
      <g transform="translate(319.76865000000004 836.85125)scale(0.12 -0.12)">
       <use xlink:href="#BitstreamVeraSans-Roman-30"/>
       <use x="63.623046875" xlink:href="#BitstreamVeraSans-Roman-2e"/>
       <use x="95.41015625" xlink:href="#BitstreamVeraSans-Roman-30"/>
      </g>
     </g>
    </g>
    <g id="ytick_23">
     <g id="line2d_169">
      <g>
       <use style="stroke:#000000;stroke-width:0.5;" x="342.85240000000005" xlink:href="#m7f7efe40df" y="750.0627272727273"/>
      </g>
     </g>
     <g id="line2d_170">
      <g>
       <use style="stroke:#000000;stroke-width:0.5;" x="618.8292" xlink:href="#m81f8d3ba75" y="750.0627272727273"/>
      </g>
     </g>
     <g id="text_84">
      <!-- 0.5 -->
      <g transform="translate(319.76865000000004 753.3739772727273)scale(0.12 -0.12)">
       <use xlink:href="#BitstreamVeraSans-Roman-30"/>
       <use x="63.623046875" xlink:href="#BitstreamVeraSans-Roman-2e"/>
       <use x="95.41015625" xlink:href="#BitstreamVeraSans-Roman-35"/>
      </g>
     </g>
    </g>
    <g id="ytick_24">
     <g id="line2d_171">
      <g>
       <use style="stroke:#000000;stroke-width:0.5;" x="342.85240000000005" xlink:href="#m7f7efe40df" y="666.5854545454546"/>
      </g>
     </g>
     <g id="line2d_172">
      <g>
       <use style="stroke:#000000;stroke-width:0.5;" x="618.8292" xlink:href="#m81f8d3ba75" y="666.5854545454546"/>
      </g>
     </g>
     <g id="text_85">
      <!-- 1.0 -->
      <g transform="translate(319.76865000000004 669.8967045454546)scale(0.12 -0.12)">
       <use xlink:href="#BitstreamVeraSans-Roman-31"/>
       <use x="63.623046875" xlink:href="#BitstreamVeraSans-Roman-2e"/>
       <use x="95.41015625" xlink:href="#BitstreamVeraSans-Roman-30"/>
      </g>
     </g>
    </g>
   </g>
   <g id="text_86">
    <!-- 1.6 meV -->
    <g transform="translate(480.84080000000006 800.1490909090909)scale(0.08 -0.08)">
     <use xlink:href="#BitstreamVeraSans-Roman-31"/>
     <use x="63.623046875" xlink:href="#BitstreamVeraSans-Roman-2e"/>
     <use x="95.41015625" xlink:href="#BitstreamVeraSans-Roman-36"/>
     <use x="159.033203125" xlink:href="#BitstreamVeraSans-Roman-20"/>
     <use x="190.8203125" xlink:href="#BitstreamVeraSans-Roman-6d"/>
     <use x="288.232421875" xlink:href="#BitstreamVeraSans-Roman-65"/>
     <use x="349.755859375" xlink:href="#BitstreamVeraSans-Roman-56"/>
    </g>
   </g>
   <g id="legend_8">
    <g id="line2d_173">
     <path d="M 352.4524 660.36875 
L 363.6524 660.36875 
" style="fill:none;stroke:#0000ff;stroke-linecap:square;stroke-width:2.0;"/>
    </g>
    <g id="line2d_174"/>
    <g id="text_87">
     <!-- P300 -->
     <g transform="translate(372.4524 663.16875)scale(0.08 -0.08)">
      <use xlink:href="#BitstreamVeraSans-Roman-50"/>
      <use x="60.302734375" xlink:href="#BitstreamVeraSans-Roman-33"/>
      <use x="123.92578125" xlink:href="#BitstreamVeraSans-Roman-30"/>
      <use x="187.548828125" xlink:href="#BitstreamVeraSans-Roman-30"/>
     </g>
    </g>
    <g id="line2d_175">
     <path d="M 352.4524 672.11125 
L 363.6524 672.11125 
" style="fill:none;stroke:#008000;stroke-linecap:square;stroke-width:2.0;"/>
    </g>
    <g id="line2d_176"/>
    <g id="text_88">
     <!-- N300 -->
     <g transform="translate(372.4524 674.91125)scale(0.08 -0.08)">
      <use xlink:href="#BitstreamVeraSans-Roman-4e"/>
      <use x="74.8046875" xlink:href="#BitstreamVeraSans-Roman-33"/>
      <use x="138.427734375" xlink:href="#BitstreamVeraSans-Roman-30"/>
      <use x="202.05078125" xlink:href="#BitstreamVeraSans-Roman-30"/>
     </g>
    </g>
   </g>
  </g>
 </g>
 <defs>
  <clipPath id="p5b3de99f9c">
   <rect height="183.65000000000003" width="275.97679999999997" x="31.7548" y="437.58"/>
  </clipPath>
  <clipPath id="pf4378cba9f">
   <rect height="183.65000000000003" width="275.97679999999997" x="342.85240000000005" y="437.58"/>
  </clipPath>
  <clipPath id="pab2c313bdf">
   <rect height="183.65" width="275.97679999999997" x="31.7548" y="649.89"/>
  </clipPath>
  <clipPath id="pdb8b736697">
   <rect height="183.64999999999986" width="275.97679999999997" x="31.7548" y="12.960000000000036"/>
  </clipPath>
  <clipPath id="p675b70b1f0">
   <rect height="183.65" width="275.97679999999997" x="342.85240000000005" y="649.89"/>
  </clipPath>
  <clipPath id="pa8ee47b582">
   <rect height="183.64999999999992" width="275.97679999999997" x="31.7548" y="225.26999999999998"/>
  </clipPath>
  <clipPath id="p27a2540b09">
   <rect height="183.64999999999992" width="275.97679999999997" x="342.85240000000005" y="225.26999999999998"/>
  </clipPath>
  <clipPath id="p3c4cc232d7">
   <rect height="183.64999999999986" width="275.97679999999997" x="342.85240000000005" y="12.960000000000036"/>
  </clipPath>
 </defs>
</svg>
