<?xml version="1.0" encoding="utf-8" standalone="no"?>
<!DOCTYPE svg PUBLIC "-//W3C//DTD SVG 1.1//EN"
  "http://www.w3.org/Graphics/SVG/1.1/DTD/svg11.dtd">
<!-- Created with matplotlib (http://matplotlib.org/) -->
<svg height="378pt" version="1.1" viewBox="0 0 504 378" width="504pt" xmlns="http://www.w3.org/2000/svg" xmlns:xlink="http://www.w3.org/1999/xlink">
 <defs>
  <style type="text/css">
*{stroke-linecap:butt;stroke-linejoin:round;stroke-miterlimit:100000;}
  </style>
 </defs>
 <g id="figure_1">
  <g id="patch_1">
   <path d="M 0 378 
L 504 378 
L 504 0 
L 0 0 
z
" style="fill:#ffffff;"/>
  </g>
  <g id="axes_1">
   <g id="patch_2">
    <path d="M 59.085 326.34 
L 491.04 326.34 
L 491.04 12.96 
L 59.085 12.96 
z
" style="fill:#ffffff;"/>
   </g>
   <g id="line2d_1">
    <path clip-path="url(#pc9c0d7b667)" d="M 544.070206 326.34 
M 505 326.34 
L 503.551836 326.34 
L 498.456343 326.339999 
L 493.441039 326.339998 
L 488.431066 326.339993 
L 483.426414 326.339983 
L 478.41053 326.339957 
L 473.399986 326.339896 
L 468.394773 326.33975 
L 463.37839 326.339412 
L 458.367357 326.338649 
L 453.361664 326.336971 
L 448.435284 326.333434 
L 443.423746 326.325904 
L 438.409356 326.310397 
L 433.490458 326.279979 
L 428.568533 326.220905 
L 423.55366 326.106139 
L 418.625833 325.896048 
L 413.703193 325.515635 
L 408.696074 324.827961 
L 403.767594 323.658798 
L 398.84431 321.698231 
L 393.91809 318.502771 
L 388.997067 313.456142 
L 384.073126 305.762969 
L 379.146283 294.49605 
L 374.313644 279.054249 
L 369.389031 258.236154 
L 364.461551 232.209948 
L 359.628004 202.392245 
L 354.702799 169.580111 
L 349.863292 137.526902 
L 344.940388 107.929314 
L 340.103014 84.034204 
L 335.174406 66.063887 
L 330.339191 54.415452 
L 325.501011 47.562274 
L 320.659884 44.004178 
L 315.823816 42.385798 
L 310.984818 41.746652 
L 306.15088 41.529815 
L 301.31403 41.46742 
L 296.474285 41.452482 
L 291.631661 41.449581 
L 286.881448 41.449145 
L 282.048881 41.449094 
L 277.205531 41.449091 
L 272.454328 41.449091 
L 267.621053 41.449096 
L 262.863933 41.449155 
L 258.032829 41.44968 
L 253.277733 41.452947 
L 248.527553 41.469039 
L 243.774417 41.533909 
L 238.939769 41.759926 
L 234.188701 42.403831 
L 229.434711 44.004077 
L 224.685648 47.474252 
L 219.93368 54.096242 
L 215.264805 65.043758 
L 210.514796 81.834396 
L 205.761916 104.626469 
L 201.013973 132.580652 
L 196.348803 163.180038 
L 191.595079 195.04018 
L 186.931753 224.577733 
L 182.180066 251.000617 
L 177.510849 272.355924 
L 172.761226 289.255812 
L 168.093913 301.510438 
L 163.431382 310.197086 
L 158.765903 316.12417 
L 154.012659 320.091564 
L 149.349129 322.573557 
L 144.682685 324.119136 
L 140.021033 325.05801 
L 135.356485 325.615012 
L 130.773458 325.933672 
L 126.110744 326.119193 
L 121.445167 326.222304 
L 116.776743 326.278494 
L 112.204827 326.308085 
L 107.538288 326.323953 
L 102.960446 326.331984 
L 98.295819 326.336121 
L 93.712106 326.338134 
L 89.049416 326.339132 
L 84.467486 326.339598 
L 79.890206 326.339817 
L 75.309991 326.339918 
L 70.651141 326.339965 
L 66.065179 326.339985 
" style="fill:none;stroke:#0000ff;stroke-linecap:square;stroke-width:1.5;"/>
   </g>
   <g id="line2d_2">
    <path clip-path="url(#pc9c0d7b667)" d="M 544.070206 326.34 
M 505 326.34 
L 503.551836 326.34 
L 498.456343 326.339999 
L 493.441039 326.339997 
L 488.431066 326.339993 
L 483.426414 326.339983 
L 478.41053 326.339957 
L 473.399986 326.339896 
L 468.394773 326.33975 
L 463.37839 326.339412 
L 458.367357 326.338649 
L 453.361664 326.336969 
L 448.435284 326.333436 
L 443.423746 326.325905 
L 438.409356 326.310405 
L 433.490458 326.279977 
L 428.568533 326.220907 
L 423.55366 326.106149 
L 418.625833 325.89608 
L 413.703193 325.515842 
L 408.696074 324.828606 
L 403.767594 323.660715 
L 398.84431 321.703364 
L 393.91809 318.516992 
L 388.997067 313.492552 
L 384.073126 305.848758 
L 379.146283 294.682874 
L 374.313644 279.426694 
L 369.389031 258.924042 
L 364.461551 233.36195 
L 359.628004 204.122737 
L 354.702799 171.934369 
L 349.863292 140.370363 
L 344.940388 110.989342 
L 340.103014 86.943923 
L 335.174406 68.492651 
L 330.339191 56.19652 
L 325.501011 48.701802 
L 320.659884 44.635774 
L 315.823816 42.686764 
L 310.984818 41.868632 
L 306.15088 41.571308 
L 301.31403 41.479034 
L 296.474285 41.455082 
L 291.631661 41.450029 
L 286.881448 41.449203 
L 282.048881 41.449099 
L 277.205531 41.449091 
L 272.454328 41.449091 
L 267.621053 41.449102 
L 262.863933 41.449223 
L 258.032829 41.450212 
L 253.277733 41.455866 
L 248.527553 41.481534 
L 243.774417 41.57717 
L 238.939769 41.886294 
L 234.188701 42.709267 
L 229.434711 44.635697 
L 224.685648 48.603275 
L 219.93368 55.853575 
L 215.264805 67.429857 
L 210.514796 84.707602 
L 205.761916 107.688386 
L 201.013973 135.481247 
L 196.348803 165.645061 
L 191.595079 196.915826 
L 186.931753 225.875694 
L 182.180066 251.810359 
L 177.510849 272.821757 
L 172.761226 289.500409 
L 168.093913 301.630655 
L 163.431382 310.252124 
L 158.765903 316.147596 
L 154.012659 320.100871 
L 149.349129 322.577023 
L 144.682685 324.120382 
L 140.021033 325.058375 
L 135.356485 325.61518 
L 130.773458 325.933748 
L 126.110744 326.119166 
L 121.445167 326.222314 
L 116.776743 326.278493 
L 112.204827 326.308088 
L 107.538288 326.323952 
L 102.960446 326.331982 
L 98.295819 326.33612 
L 93.712106 326.338133 
L 89.049416 326.339131 
L 84.467486 326.339598 
L 79.890206 326.339817 
L 75.309991 326.339919 
L 70.651141 326.339965 
L 66.065179 326.339985 
" style="fill:none;stroke:#008000;stroke-linecap:square;stroke-width:1.5;"/>
   </g>
   <g id="line2d_3">
    <path clip-path="url(#pc9c0d7b667)" d="M 544.070206 326.34 
M 505 326.34 
L 503.551836 326.34 
L 498.456343 326.339999 
L 493.441039 326.339997 
L 488.431066 326.339993 
L 483.426414 326.339983 
L 478.41053 326.339957 
L 473.399986 326.339896 
L 468.394773 326.339749 
L 463.37839 326.339412 
L 458.367357 326.338649 
L 453.361664 326.336967 
L 448.435284 326.333434 
L 443.423746 326.325905 
L 438.409356 326.310404 
L 433.490458 326.279983 
L 428.568533 326.220917 
L 423.55366 326.106166 
L 418.625833 325.896109 
L 413.703193 325.51607 
L 408.696074 324.829413 
L 403.767594 323.663207 
L 398.84431 321.710814 
L 393.91809 318.537034 
L 388.997067 313.54434 
L 384.073126 305.972089 
L 379.146283 294.953862 
L 374.313644 279.966138 
L 369.389031 259.916805 
L 364.461551 235.020039 
L 359.628004 206.60557 
L 354.702799 175.30325 
L 349.863292 144.453391 
L 344.940388 115.422312 
L 340.103014 91.230306 
L 335.174406 72.165337 
L 330.339191 58.99062 
L 325.501011 50.578073 
L 320.659884 45.74168 
L 315.823816 43.25521 
L 310.984818 42.121156 
L 306.15088 41.66708 
L 301.31403 41.509585 
L 296.474285 41.463103 
L 291.631661 41.451712 
L 286.881448 41.449484 
L 282.048881 41.449133 
L 277.205531 41.449095 
L 272.454328 41.449095 
L 267.621053 41.449143 
L 262.863933 41.449547 
L 258.032829 41.452166 
L 253.277733 41.464751 
L 248.527553 41.514159 
L 243.774417 41.676601 
L 238.939769 42.146866 
L 234.188701 43.285188 
L 229.434711 45.74169 
L 224.685648 50.46403 
L 219.93368 58.614303 
L 215.264805 71.046349 
L 210.514796 88.948701 
L 205.761916 112.130492 
L 201.013973 139.649325 
L 196.348803 169.17338 
L 191.595079 199.603001 
L 186.931753 227.741085 
L 182.180066 252.979559 
L 177.510849 273.497584 
L 172.761226 289.855166 
L 168.093913 301.804395 
L 163.431382 310.331243 
L 158.765903 316.181132 
L 154.012659 320.113986 
L 149.349129 322.581927 
L 144.682685 324.122161 
L 140.021033 325.058987 
L 135.356485 325.615334 
L 130.773458 325.933795 
L 126.110744 326.119197 
L 121.445167 326.22232 
L 116.776743 326.2785 
L 112.204827 326.308085 
L 107.538288 326.323952 
L 102.960446 326.331983 
L 98.295819 326.336119 
L 93.712106 326.338134 
L 89.049416 326.339131 
L 84.467486 326.339597 
L 79.890206 326.339817 
L 75.309991 326.339919 
L 70.651141 326.339965 
L 66.065179 326.339985 
" style="fill:none;stroke:#ff0000;stroke-linecap:square;stroke-width:1.5;"/>
   </g>
   <g id="line2d_4">
    <path clip-path="url(#pc9c0d7b667)" d="M 544.070206 326.34 
M 505 326.34 
L 503.551836 326.34 
L 498.456343 326.339999 
L 493.441039 326.339998 
L 488.431066 326.339993 
L 483.426414 326.339983 
L 478.41053 326.339958 
L 473.399986 326.339896 
L 468.394773 326.339749 
L 463.37839 326.339411 
L 458.367357 326.338649 
L 453.361664 326.336968 
L 448.435284 326.333431 
L 443.423746 326.325897 
L 438.409356 326.310405 
L 433.490458 326.279978 
L 428.568533 326.220911 
L 423.55366 326.106164 
L 418.625833 325.896157 
L 413.703193 325.516262 
L 408.696074 324.830288 
L 403.767594 323.666376 
L 398.84431 321.720927 
L 393.91809 318.566825 
L 388.997067 313.623505 
L 384.073126 306.164963 
L 379.146283 295.381553 
L 374.313644 280.820396 
L 369.389031 261.482286 
L 364.461551 237.617909 
L 359.628004 210.473958 
L 354.702799 180.541279 
L 349.863292 150.822522 
L 344.940388 122.420801 
L 340.103014 98.146707 
L 335.174406 78.301852 
L 330.339191 63.889605 
L 325.501011 54.083474 
L 320.659884 47.981969 
L 315.823816 44.527813 
L 310.984818 42.759798 
L 306.15088 41.947895 
L 301.31403 41.616619 
L 296.474285 41.497992 
L 291.631661 41.461286 
L 286.881448 41.451732 
L 282.048881 41.449578 
L 277.205531 41.449208 
L 272.454328 41.449218 
L 267.621053 41.449658 
L 262.863933 41.452058 
L 258.032829 41.462993 
L 253.277733 41.502753 
L 248.527553 41.627307 
L 243.774417 41.96644 
L 238.939769 42.80295 
L 234.188701 44.572166 
L 229.434711 47.981935 
L 224.685648 53.945007 
L 219.93368 63.464341 
L 215.264805 77.106848 
L 210.514796 95.814096 
L 205.761916 119.158847 
L 201.013973 146.160143 
L 196.348803 174.660743 
L 191.595079 203.787071 
L 186.931753 230.660085 
L 182.180066 254.819603 
L 177.510849 274.565294 
L 172.761226 290.414913 
L 168.093913 302.076613 
L 163.431382 310.453013 
L 158.765903 316.231138 
L 154.012659 320.132571 
L 149.349129 322.588418 
L 144.682685 324.124247 
L 140.021033 325.059558 
L 135.356485 325.615484 
L 130.773458 325.933817 
L 126.110744 326.119185 
L 121.445167 326.222317 
L 116.776743 326.278496 
L 112.204827 326.308083 
L 107.538288 326.323952 
L 102.960446 326.331981 
L 98.295819 326.33612 
L 93.712106 326.338134 
L 89.049416 326.339131 
L 84.467486 326.339597 
L 79.890206 326.339817 
L 75.309991 326.339918 
L 70.651141 326.339965 
L 66.065179 326.339985 
" style="fill:none;stroke:#00bfbf;stroke-linecap:square;stroke-width:1.5;"/>
   </g>
   <g id="line2d_5">
    <path clip-path="url(#pc9c0d7b667)" d="M 544.070206 326.34 
M 505 326.34 
L 503.551836 326.34 
L 498.456343 326.339999 
L 493.441039 326.339997 
L 488.431066 326.339993 
L 483.426414 326.339983 
L 478.41053 326.339957 
L 473.399986 326.339896 
L 468.394773 326.339749 
L 463.37839 326.339412 
L 458.367357 326.33865 
L 453.361664 326.336968 
L 448.435284 326.333435 
L 443.423746 326.325899 
L 438.409356 326.310403 
L 433.490458 326.27998 
L 428.568533 326.220896 
L 423.55366 326.106151 
L 418.625833 325.896115 
L 413.703193 325.516186 
L 408.696074 324.830462 
L 403.767594 323.667955 
L 398.84431 321.727692 
L 393.91809 318.590107 
L 388.997067 313.691619 
L 384.073126 306.339417 
L 379.146283 295.779205 
L 374.313644 281.620794 
L 369.389031 262.949157 
L 364.461551 240.038258 
L 359.628004 214.058658 
L 354.702799 185.377236 
L 349.863292 156.72183 
L 344.940388 128.979724 
L 340.103014 104.771335 
L 335.174406 84.385635 
L 330.339191 68.980883 
L 325.501011 57.959305 
L 320.659884 50.660333 
L 315.823816 46.202911 
L 310.984818 43.703813 
L 306.15088 42.424705 
L 301.31403 41.831004 
L 296.474285 41.583122 
L 291.631661 41.490915 
L 286.881448 41.461 
L 282.048881 41.452242 
L 277.205531 41.450208 
L 272.454328 41.450276 
L 267.621053 41.452628 
L 262.863933 41.462185 
L 258.032829 41.495722 
L 253.277733 41.594081 
L 248.527553 41.851773 
L 243.774417 42.456027 
L 238.939769 43.768219 
L 234.188701 46.262869 
L 229.434711 50.660351 
L 224.685648 57.7985 
L 219.93368 68.514261 
L 215.264805 83.132041 
L 210.514796 102.409779 
L 205.761916 125.758987 
L 201.013973 152.19862 
L 196.348803 179.727771 
L 191.595079 207.657877 
L 186.931753 233.374651 
L 182.180066 256.541706 
L 177.510849 275.567839 
L 172.761226 290.938425 
L 168.093913 302.32689 
L 163.431382 310.560896 
L 158.765903 316.272877 
L 154.012659 320.146368 
L 149.349129 322.592339 
L 144.682685 324.125052 
L 140.021033 325.059662 
L 135.356485 325.615443 
L 130.773458 325.93378 
L 126.110744 326.119172 
L 121.445167 326.222304 
L 116.776743 326.278493 
L 112.204827 326.308081 
L 107.538288 326.32395 
L 102.960446 326.331981 
L 98.295819 326.336122 
L 93.712106 326.338133 
L 89.049416 326.339131 
L 84.467486 326.339597 
L 79.890206 326.339817 
L 75.309991 326.339918 
L 70.651141 326.339965 
L 66.065179 326.339985 
" style="fill:none;stroke:#bf00bf;stroke-linecap:square;stroke-width:1.5;"/>
   </g>
   <g id="line2d_6">
    <path clip-path="url(#pc9c0d7b667)" d="M 544.070206 326.34 
M 505 326.34 
L 503.551836 326.34 
L 498.456343 326.339999 
L 493.441039 326.339998 
L 488.431066 326.339993 
L 483.426414 326.339983 
L 478.41053 326.339957 
L 473.399986 326.339895 
L 468.394773 326.339749 
L 463.37839 326.339412 
L 458.367357 326.33865 
L 453.361664 326.336968 
L 448.435284 326.333433 
L 443.423746 326.325899 
L 438.409356 326.310398 
L 433.490458 326.279973 
L 428.568533 326.220884 
L 423.55366 326.106097 
L 418.625833 325.895964 
L 413.703193 325.515811 
L 408.696074 324.829791 
L 403.767594 323.667317 
L 398.84431 321.730109 
L 393.91809 318.605515 
L 388.997067 313.747338 
L 384.073126 306.495687 
L 379.146283 296.149798 
L 374.313644 282.376648 
L 369.389031 264.334137 
L 364.461551 242.310562 
L 359.628004 217.401878 
L 354.702799 189.87674 
L 349.863292 162.221256 
L 344.940388 135.147356 
L 340.103014 111.108501 
L 335.174406 90.362043 
L 330.339191 74.169366 
L 325.501011 62.103225 
L 320.659884 53.702155 
L 315.823816 48.251007 
L 310.984818 44.965689 
L 306.15088 43.133484 
L 301.31403 42.192473 
L 296.474285 41.749891 
L 291.631661 41.560531 
L 286.881448 41.488255 
L 282.048881 41.462733 
L 277.205531 41.455521 
L 272.454328 41.45579 
L 267.621053 41.463999 
L 262.863933 41.491405 
L 258.032829 41.571281 
L 253.277733 41.770918 
L 248.527553 42.227499 
L 243.774417 43.180744 
L 238.939769 45.054133 
L 234.188701 48.327107 
L 229.434711 53.701988 
L 224.685648 61.922977 
L 219.93368 73.669197 
L 215.264805 89.064916 
L 210.514796 108.733356 
L 205.761916 131.976632 
L 201.013973 157.83115 
L 196.348803 184.440449 
L 191.595079 211.265631 
L 186.931753 235.918884 
L 182.180066 258.165059 
L 177.510849 276.515027 
L 172.761226 291.429469 
L 168.093913 302.555922 
L 163.431382 310.653889 
L 158.765903 316.304427 
L 154.012659 320.154214 
L 149.349129 322.593023 
L 144.682685 324.124307 
L 140.021033 325.059013 
L 135.356485 325.615081 
L 130.773458 325.933618 
L 126.110744 326.119115 
L 121.445167 326.22229 
L 116.776743 326.278489 
L 112.204827 326.308078 
L 107.538288 326.323951 
L 102.960446 326.331982 
L 98.295819 326.336118 
L 93.712106 326.338134 
L 89.049416 326.339131 
L 84.467486 326.339598 
L 79.890206 326.339817 
L 75.309991 326.339918 
L 70.651141 326.339965 
L 66.065179 326.339985 
" style="fill:none;stroke:#bfbf00;stroke-linecap:square;stroke-width:1.5;"/>
   </g>
   <g id="line2d_7">
    <path clip-path="url(#pc9c0d7b667)" d="M 544.070206 326.34 
M 505 326.34 
L 503.551836 326.34 
L 498.456343 326.339999 
L 493.441039 326.339997 
L 488.431066 326.339993 
L 483.426414 326.339983 
L 478.41053 326.339957 
L 473.399986 326.339896 
L 468.394773 326.339749 
L 463.37839 326.339411 
L 458.367357 326.338648 
L 453.361664 326.336967 
L 448.435284 326.333433 
L 443.423746 326.325899 
L 438.409356 326.310398 
L 433.490458 326.279961 
L 428.568533 326.220869 
L 423.55366 326.106031 
L 418.625833 325.895788 
L 413.703193 325.515339 
L 408.696074 324.828664 
L 403.767594 323.665506 
L 398.84431 321.728887 
L 393.91809 318.61084 
L 388.997067 313.777044 
L 384.073126 306.590369 
L 379.146283 296.383486 
L 374.313644 282.859106 
L 369.389031 265.218359 
L 364.461551 243.754506 
L 359.628004 219.516535 
L 354.702799 192.713778 
L 349.863292 165.691914 
L 344.940388 139.062746 
L 340.103014 115.17773 
L 335.174406 94.271064 
L 330.339191 77.648486 
L 325.501011 64.973335 
L 320.659884 55.89559 
L 315.823816 49.802704 
L 310.984818 45.979697 
L 306.15088 43.744323 
L 301.31403 42.53095 
L 296.474285 41.922307 
L 291.631661 41.641827 
L 286.881448 41.525286 
L 282.048881 41.480045 
L 277.205531 41.465992 
L 272.454328 41.466539 
L 267.621053 41.482413 
L 262.863933 41.53063 
L 258.032829 41.658448 
L 253.277733 41.95231 
L 248.527553 42.577585 
L 243.774417 43.803653 
L 238.939769 46.085082 
L 234.188701 49.889513 
L 229.434711 55.895741 
L 224.685648 64.78092 
L 219.93368 77.128964 
L 215.264805 92.951616 
L 210.514796 112.800983 
L 205.761916 135.928069 
L 201.013973 161.388485 
L 196.348803 187.411523 
L 191.595079 213.545187 
L 186.931753 237.532947 
L 182.180066 259.200155 
L 177.510849 277.120085 
L 172.761226 291.74149 
L 168.093913 302.697654 
L 163.431382 310.707572 
L 158.765903 316.31931 
L 154.012659 320.155255 
L 149.349129 322.591158 
L 144.682685 324.122687 
L 140.021033 325.058083 
L 135.356485 325.614674 
L 130.773458 325.933471 
L 126.110744 326.119061 
L 121.445167 326.222272 
L 116.776743 326.278481 
L 112.204827 326.308075 
L 107.538288 326.323947 
L 102.960446 326.331981 
L 98.295819 326.336121 
L 93.712106 326.338134 
L 89.049416 326.339131 
L 84.467486 326.339598 
L 79.890206 326.339817 
L 75.309991 326.339918 
L 70.651141 326.339965 
L 66.065179 326.339985 
" style="fill:none;stroke:#000000;stroke-linecap:square;stroke-width:1.5;"/>
   </g>
   <g id="line2d_8">
    <path clip-path="url(#pc9c0d7b667)" d="M 544.070206 326.34 
M 505 326.34 
L 503.551836 326.34 
L 498.456343 326.339999 
L 493.441039 326.339997 
L 488.431066 326.339993 
L 483.426414 326.339983 
L 478.41053 326.339957 
L 473.399986 326.339896 
L 468.394773 326.339749 
L 463.37839 326.339411 
L 458.367357 326.338649 
L 453.361664 326.336967 
L 448.435284 326.333432 
L 443.423746 326.325899 
L 438.409356 326.310399 
L 433.490458 326.279963 
L 428.568533 326.220857 
L 423.55366 326.105935 
L 418.625833 325.895457 
L 413.703193 325.51439 
L 408.696074 324.826347 
L 403.767594 323.661086 
L 398.84431 321.723204 
L 393.91809 318.611299 
L 388.997067 313.806267 
L 384.073126 306.69881 
L 379.146283 296.662742 
L 374.313644 283.442002 
L 369.389031 266.285447 
L 364.461551 245.489494 
L 359.628004 222.044716 
L 354.702799 196.097887 
L 349.863292 169.833392 
L 344.940388 143.756079 
L 340.103014 120.098297 
L 335.174406 99.062407 
L 330.339191 81.993478 
L 325.501011 68.64553 
L 320.659884 58.789059 
L 315.823816 51.926906 
L 310.984818 47.431407 
L 306.15088 44.667135 
L 301.31403 43.076449 
L 296.474285 42.223205 
L 291.631661 41.798568 
L 286.881448 41.606133 
L 282.048881 41.523992 
L 277.205531 41.496055 
L 272.454328 41.497195 
L 267.621053 41.528524 
L 262.863933 41.61541 
L 258.032829 41.824837 
L 253.277733 42.266953 
L 248.527553 43.139696 
L 243.774417 44.742631 
L 238.939769 47.558591 
L 234.188701 52.026724 
L 229.434711 58.789006 
L 224.685648 68.44007 
L 219.93368 81.45306 
L 215.264805 97.720485 
L 210.514796 117.724591 
L 205.761916 140.66804 
L 201.013973 165.634812 
L 196.348803 190.954807 
L 191.595079 216.269835 
L 186.931753 239.470465 
L 182.180066 260.44859 
L 177.510849 277.851806 
L 172.761226 292.116755 
L 168.093913 302.864084 
L 163.431382 310.765553 
L 158.765903 316.330629 
L 154.012659 320.151487 
L 149.349129 322.58564 
L 144.682685 324.119021 
L 140.021033 325.056248 
L 135.356485 325.613902 
L 130.773458 325.933186 
L 126.110744 326.118981 
L 121.445167 326.222249 
L 116.776743 326.278482 
L 112.204827 326.308078 
L 107.538288 326.32395 
L 102.960446 326.331981 
L 98.295819 326.336119 
L 93.712106 326.338132 
L 89.049416 326.339131 
L 84.467486 326.339597 
L 79.890206 326.339817 
L 75.309991 326.339918 
L 70.651141 326.339965 
L 66.065179 326.339985 
" style="fill:none;stroke:#0000ff;stroke-linecap:square;stroke-width:1.5;"/>
   </g>
   <g id="line2d_9">
    <path clip-path="url(#pc9c0d7b667)" d="M 544.070206 326.34 
M 505 326.34 
L 503.551836 326.34 
L 498.456343 326.339999 
L 493.441039 326.339997 
L 488.431066 326.339993 
L 483.426414 326.339983 
L 478.41053 326.339958 
L 473.399986 326.339896 
L 468.394773 326.339749 
L 463.37839 326.339411 
L 458.367357 326.338649 
L 453.361664 326.336967 
L 448.435284 326.333433 
L 443.423746 326.3259 
L 438.409356 326.310399 
L 433.490458 326.279965 
L 428.568533 326.220833 
L 423.55366 326.105814 
L 418.625833 325.894865 
L 413.703193 325.512479 
L 408.696074 324.821452 
L 403.767594 323.651205 
L 398.84431 321.708747 
L 393.91809 318.601532 
L 388.997067 313.830768 
L 384.073126 306.823895 
L 379.146283 297.005365 
L 374.313644 284.165412 
L 369.389031 267.605889 
L 364.461551 247.621566 
L 359.628004 225.133762 
L 354.702799 200.213237 
L 349.863292 174.870518 
L 344.940388 149.490449 
L 340.103014 126.163811 
L 335.174406 105.056888 
L 330.339191 87.538972 
L 325.501011 73.456837 
L 320.659884 62.705599 
L 315.823816 54.919429 
L 310.984818 49.578094 
L 306.15088 46.114077 
L 301.31403 43.994976 
L 296.474285 42.776086 
L 291.631661 42.119331 
L 286.881448 41.794023 
L 282.048881 41.64123 
L 277.205531 41.584577 
L 272.454328 41.586962 
L 267.621053 41.650084 
L 262.863933 41.810515 
L 258.032829 42.161857 
L 253.277733 42.841119 
L 248.527553 44.082193 
L 243.774417 46.21167 
L 238.939769 49.73316 
L 234.188701 55.035325 
L 229.434711 62.705484 
L 224.685648 73.236232 
L 219.93368 86.976805 
L 215.264805 103.69466 
L 210.514796 123.802568 
L 205.761916 146.464321 
L 201.013973 170.801979 
L 196.348803 195.263385 
L 191.595079 219.592244 
L 186.931753 241.846222 
L 182.180066 261.989355 
L 177.510849 278.759335 
L 172.761226 292.579917 
L 168.093913 303.063259 
L 163.431382 310.826665 
L 158.765903 316.333262 
L 154.012659 320.13749 
L 149.349129 322.572527 
L 144.682685 324.110924 
L 140.021033 325.052373 
L 135.356485 325.612387 
L 130.773458 325.93271 
L 126.110744 326.118857 
L 121.445167 326.222238 
L 116.776743 326.278489 
L 112.204827 326.308081 
L 107.538288 326.323951 
L 102.960446 326.33198 
L 98.295819 326.336119 
L 93.712106 326.338132 
L 89.049416 326.339131 
L 84.467486 326.339597 
L 79.890206 326.339817 
L 75.309991 326.339918 
L 70.651141 326.339965 
L 66.065179 326.339985 
" style="fill:none;stroke:#008000;stroke-linecap:square;stroke-width:1.5;"/>
   </g>
   <g id="line2d_10">
    <path clip-path="url(#pc9c0d7b667)" d="M 544.070206 326.34 
M 505 326.34 
L 503.551836 326.34 
L 498.456343 326.339999 
L 493.441039 326.339997 
L 488.431066 326.339993 
L 483.426414 326.339983 
L 478.41053 326.339958 
L 473.399986 326.339896 
L 468.394773 326.339749 
L 463.37839 326.339411 
L 458.367357 326.338649 
L 453.361664 326.336967 
L 448.435284 326.333434 
L 443.423746 326.325907 
L 438.409356 326.310418 
L 433.490458 326.280008 
L 428.568533 326.220874 
L 423.55366 326.105591 
L 418.625833 325.893584 
L 413.703193 325.508035 
L 408.696074 324.810028 
L 403.767594 323.628813 
L 398.84431 321.675022 
L 393.91809 318.570006 
L 388.997067 313.844343 
L 384.073126 306.972787 
L 379.146283 297.442879 
L 374.313644 285.095399 
L 369.389031 269.290983 
L 364.461551 250.315033 
L 359.628004 229.001604 
L 354.702799 205.342845 
L 349.863292 181.144076 
L 344.940388 156.661705 
L 340.103014 133.825368 
L 335.174406 112.747678 
L 330.339191 94.810545 
L 325.501011 79.946847 
L 320.659884 68.181357 
L 315.823816 59.292509 
L 310.984818 52.888925 
L 306.15088 48.495426 
L 301.31403 45.62931 
L 296.474285 43.854922 
L 291.631661 42.815499 
L 286.881448 42.250596 
L 282.048881 41.958383 
L 277.205531 41.840888 
L 272.454328 41.845976 
L 267.621053 41.976178 
L 262.863933 42.280701 
L 258.032829 42.885989 
L 253.277733 43.953588 
L 248.527553 45.751563 
L 243.774417 48.623156 
L 238.939769 53.079953 
L 234.188701 59.42812 
L 229.434711 68.181428 
L 224.685648 79.709976 
L 219.93368 94.225734 
L 215.264805 111.369561 
L 210.514796 131.489897 
L 205.761916 153.720627 
L 201.013973 177.239176 
L 196.348803 200.630779 
L 191.595079 223.747759 
L 186.931753 244.840219 
L 182.180066 263.950475 
L 177.510849 279.923984 
L 172.761226 293.175054 
L 168.093913 303.311444 
L 163.431382 310.889676 
L 158.765903 316.317533 
L 154.012659 320.101871 
L 149.349129 322.542609 
L 144.682685 324.092551 
L 140.021033 325.043369 
L 135.356485 325.608851 
L 130.773458 325.931643 
L 126.110744 326.118696 
L 121.445167 326.222275 
L 116.776743 326.278527 
L 112.204827 326.308103 
L 107.538288 326.323959 
L 102.960446 326.331982 
L 98.295819 326.33612 
L 93.712106 326.338133 
L 89.049416 326.339131 
L 84.467486 326.339597 
L 79.890206 326.339817 
L 75.309991 326.339918 
L 70.651141 326.339965 
L 66.065179 326.339985 
" style="fill:none;stroke:#ff0000;stroke-linecap:square;stroke-width:1.5;"/>
   </g>
   <g id="line2d_11">
    <path clip-path="url(#pc9c0d7b667)" d="M 544.070206 326.34 
M 505 326.34 
L 503.551836 326.34 
L 498.456343 326.339999 
L 493.441039 326.339997 
L 488.431066 326.339993 
L 483.426414 326.339983 
L 478.41053 326.339957 
L 473.399986 326.339895 
L 468.394773 326.339749 
L 463.37839 326.339411 
L 458.367357 326.338648 
L 453.361664 326.336967 
L 448.435284 326.333439 
L 443.423746 326.32594 
L 438.409356 326.310536 
L 433.490458 326.280263 
L 428.568533 326.221114 
L 423.55366 326.104955 
L 418.625833 325.889552 
L 413.703193 325.495552 
L 408.696074 324.781067 
L 403.767594 323.576076 
L 398.84431 321.599727 
L 393.91809 318.49622 
L 388.997067 313.83911 
L 384.073126 307.166351 
L 379.146283 298.040346 
L 374.313644 286.356575 
L 369.389031 271.538143 
L 364.461551 253.847645 
L 359.628004 234.013298 
L 354.702799 211.937787 
L 349.863292 189.193493 
L 344.940388 165.903132 
L 340.103014 143.804135 
L 335.174406 122.945498 
L 330.339191 104.69499 
L 325.501011 89.06196 
L 320.659884 76.193436 
L 315.823816 66.016517 
L 310.984818 58.286945 
L 306.15088 52.649829 
L 301.31403 48.704765 
L 296.474285 46.057811 
L 291.631661 44.359802 
L 286.881448 43.342307 
L 282.048881 42.763444 
L 277.205531 42.512725 
L 272.454328 42.523908 
L 267.621053 42.800316 
L 262.863933 43.399324 
L 258.032829 44.480625 
L 253.277733 46.211594 
L 248.527553 48.879796 
L 243.774417 52.819544 
L 238.939769 58.524518 
L 234.188701 66.176045 
L 229.434711 76.193293 
L 224.685648 88.807779 
L 219.93368 104.090128 
L 215.264805 121.562235 
L 210.514796 141.517843 
L 205.761916 163.080525 
L 201.013973 185.500944 
L 196.348803 207.524705 
L 191.595079 229.119382 
L 186.931753 248.753037 
L 182.180066 266.551944 
L 177.510849 281.494826 
L 172.761226 293.987573 
L 168.093913 303.645718 
L 163.431382 310.957764 
L 158.765903 316.267785 
L 154.012659 320.02219 
L 149.349129 322.474833 
L 144.682685 324.048295 
L 140.021033 325.019793 
L 135.356485 325.598738 
L 130.773458 325.928336 
L 126.110744 326.118194 
L 121.445167 326.222527 
L 116.776743 326.278786 
L 112.204827 326.30823 
L 107.538288 326.324003 
L 102.960446 326.331991 
L 98.295819 326.33612 
L 93.712106 326.338132 
L 89.049416 326.33913 
L 84.467486 326.339597 
L 79.890206 326.339817 
L 75.309991 326.339918 
L 70.651141 326.339965 
L 66.065179 326.339985 
" style="fill:none;stroke:#00bfbf;stroke-linecap:square;stroke-width:1.5;"/>
   </g>
   <g id="line2d_12">
    <path clip-path="url(#pc9c0d7b667)" d="M 544.070206 326.34 
M 505 326.34 
L 503.551836 326.34 
L 498.456343 326.339999 
L 493.441039 326.339997 
L 488.431066 326.339993 
L 483.426414 326.339983 
L 478.41053 326.339958 
L 473.399986 326.339896 
L 468.394773 326.339748 
L 463.37839 326.339405 
L 458.367357 326.338639 
L 453.361664 326.336975 
L 448.435284 326.333532 
L 443.423746 326.326262 
L 438.409356 326.31123 
L 433.490458 326.281141 
L 428.568533 326.22092 
L 423.55366 326.099963 
L 418.625833 325.872384 
L 413.703193 325.454493 
L 408.696074 324.701561 
L 403.767594 323.450398 
L 398.84431 321.438937 
L 393.91809 318.351192 
L 388.997067 313.823117 
L 384.073126 307.474077 
L 379.146283 298.951688 
L 374.313644 288.202955 
L 369.389031 274.715989 
L 364.461551 258.713384 
L 359.628004 240.793088 
L 354.702799 220.772118 
L 349.863292 199.961294 
L 344.940388 178.347634 
L 340.103014 157.432895 
L 335.174406 137.187255 
L 330.339191 118.906263 
L 325.501011 102.642701 
L 320.659884 88.638138 
L 315.823816 76.958233 
L 310.984818 67.519046 
L 306.15088 60.124841 
L 301.31403 54.511271 
L 296.474285 50.388294 
L 291.631661 47.475025 
L 286.881448 45.553402 
L 282.048881 44.363208 
L 277.205531 43.815719 
L 272.454328 43.840632 
L 267.621053 44.441832 
L 262.863933 45.666081 
L 258.032829 47.692624 
L 253.277733 50.639537 
L 248.527553 54.771564 
L 243.774417 60.356504 
L 238.939769 67.819568 
L 234.188701 77.146668 
L 229.434711 88.638051 
L 224.685648 102.372493 
L 219.93368 118.288361 
L 215.264805 135.822332 
L 210.514796 155.240637 
L 205.761916 175.700577 
L 201.013973 196.557943 
L 196.348803 216.752238 
L 191.595079 236.364884 
L 186.931753 254.111814 
L 182.180066 270.198687 
L 177.510849 283.764827 
L 172.761226 295.207072 
L 168.093913 304.16862 
L 163.431382 311.065508 
L 158.765903 316.171791 
L 154.012659 319.860552 
L 149.349129 322.324234 
L 144.682685 323.938086 
L 140.021033 324.952222 
L 135.356485 325.563843 
L 130.773458 325.913496 
L 126.110744 326.113856 
L 121.445167 326.222366 
L 116.776743 326.27966 
L 112.204827 326.308968 
L 107.538288 326.324382 
L 102.960446 326.332128 
L 98.295819 326.336145 
L 93.712106 326.338126 
L 89.049416 326.339123 
L 84.467486 326.339594 
L 79.890206 326.339816 
L 75.309991 326.339918 
L 70.651141 326.339965 
L 66.065179 326.339985 
" style="fill:none;stroke:#bf00bf;stroke-linecap:square;stroke-width:1.5;"/>
   </g>
   <g id="line2d_13">
    <path clip-path="url(#pc9c0d7b667)" d="M 544.070206 326.34 
M 505 326.34 
L 503.551836 326.34 
L 498.456343 326.339999 
L 493.441039 326.339998 
L 488.431066 326.339993 
L 483.426414 326.339981 
L 478.41053 326.339951 
L 473.399986 326.33988 
L 468.394773 326.33973 
L 463.37839 326.339422 
L 458.367357 326.338792 
L 453.361664 326.337452 
L 448.435284 326.334524 
L 443.423746 326.327699 
L 438.409356 326.312043 
L 433.490458 326.278126 
L 428.568533 326.207172 
L 423.55366 326.062985 
L 418.625833 325.795256 
L 413.703193 325.317918 
L 408.696074 324.490682 
L 403.767594 323.173179 
L 398.84431 321.14186 
L 393.91809 318.14364 
L 388.997067 313.898753 
L 384.073126 308.124196 
L 379.146283 300.563886 
L 374.313644 291.207891 
L 369.389031 279.624071 
L 364.461551 265.980822 
L 359.628004 250.720011 
L 354.702799 233.578392 
L 349.863292 215.53977 
L 344.940388 196.434457 
L 340.103014 177.435018 
L 335.174406 158.376422 
L 330.339191 140.393807 
L 325.501011 123.538462 
L 320.659884 108.117252 
L 315.823816 94.340744 
L 310.984818 82.327073 
L 306.15088 72.110024 
L 301.31403 63.655631 
L 296.474285 56.880441 
L 291.631661 51.673672 
L 286.881448 47.973095 
L 282.048881 45.540433 
L 277.205531 44.377164 
L 272.454328 44.430776 
L 267.621053 45.705104 
L 262.863933 48.197294 
L 258.032829 52.077806 
L 253.277733 57.310906 
L 248.527553 64.065176 
L 243.774417 72.444293 
L 238.939769 82.725112 
L 234.188701 94.571507 
L 229.434711 108.117295 
L 224.685648 123.249979 
L 219.93368 139.770231 
L 215.264805 157.062634 
L 210.514796 175.406568 
L 205.761916 194.061337 
L 201.013973 212.56036 
L 196.348803 230.114883 
L 191.595079 246.940902 
L 186.931753 262.064321 
L 182.180066 275.766229 
L 177.510849 287.381925 
L 172.761226 297.286731 
L 168.093913 305.171661 
L 163.431382 311.37096 
L 158.765903 316.08316 
L 154.012659 319.595166 
L 149.349129 322.025801 
L 144.682685 323.680253 
L 140.021033 324.762415 
L 135.356485 325.441261 
L 130.773458 325.843185 
L 126.110744 326.079515 
L 121.445167 326.208908 
L 116.776743 326.276409 
L 112.204827 326.309576 
L 107.538288 326.325829 
L 102.960446 326.333265 
L 98.295819 326.336768 
L 93.712106 326.33838 
L 89.049416 326.339185 
L 84.467486 326.339587 
L 79.890206 326.339797 
L 75.309991 326.339905 
L 70.651141 326.339959 
L 66.065179 326.339983 
" style="fill:none;stroke:#bfbf00;stroke-linecap:square;stroke-width:1.5;"/>
   </g>
   <g id="line2d_14">
    <path clip-path="url(#pc9c0d7b667)" d="M 544.070206 326.34 
M 505 326.339996 
L 503.551836 326.339996 
L 498.456343 326.339991 
L 493.441039 326.339984 
L 488.431066 326.339977 
L 483.426414 326.339972 
L 478.41053 326.339977 
L 473.399986 326.339994 
L 468.394773 326.33999 
L 463.37839 326.339818 
L 458.367357 326.339039 
L 453.361664 326.336554 
L 448.435284 326.330122 
L 443.423746 326.314789 
L 438.409356 326.281797 
L 433.490458 326.217423 
L 428.568533 326.097889 
L 423.55366 325.882774 
L 418.625833 325.527102 
L 413.703193 324.956977 
L 408.696074 324.060564 
L 403.767594 322.750792 
L 398.84431 320.876415 
L 393.91809 318.279599 
L 388.997067 314.789059 
L 384.073126 310.228119 
L 379.146283 304.423948 
L 374.313644 297.359423 
L 369.389031 288.654853 
L 364.461551 278.33577 
L 359.628004 266.591717 
L 354.702799 253.032633 
L 349.863292 238.234569 
L 344.940388 221.848146 
L 340.103014 204.69853 
L 335.174406 186.497823 
L 330.339191 168.256592 
L 325.501011 150.059829 
L 320.659884 132.31638 
L 315.823816 115.420423 
L 310.984818 99.730429 
L 306.15088 85.551476 
L 301.31403 73.125366 
L 296.474285 62.628948 
L 291.631661 54.180076 
L 286.881448 47.942233 
L 282.048881 43.723163 
L 277.205531 41.669655 
L 272.454328 41.764806 
L 267.621053 44.011923 
L 262.863933 48.326187 
L 258.032829 54.849067 
L 253.277733 63.311911 
L 248.527553 73.743397 
L 243.774417 86.028812 
L 238.939769 100.266512 
L 234.188701 115.712384 
L 229.434711 132.316094 
L 224.685648 149.737655 
L 219.93368 167.603556 
L 215.264805 185.201967 
L 210.514796 202.811713 
L 205.761916 219.755557 
L 201.013973 235.730488 
L 196.348803 250.237076 
L 191.595079 263.639426 
L 186.931753 275.346141 
L 182.180066 285.748955 
L 177.510849 294.484569 
L 172.761226 301.940426 
L 168.093913 307.945337 
L 163.431382 312.772826 
L 158.765903 316.565095 
L 154.012659 319.518258 
L 149.349129 321.676457 
L 144.682685 323.242864 
L 140.021033 324.346261 
L 135.356485 325.099102 
L 130.773458 325.58811 
L 126.110744 325.90626 
L 121.445167 326.100645 
L 116.776743 326.21434 
L 112.204827 326.276836 
L 107.538288 326.310691 
L 102.960446 326.327271 
L 98.295819 326.33511 
L 93.712106 326.338353 
L 89.049416 326.339577 
L 84.467486 326.339934 
L 79.890206 326.339999 
L 75.309991 326.339989 
L 70.651141 326.339975 
L 66.065179 326.339972 
" style="fill:none;stroke:#000000;stroke-linecap:square;stroke-width:1.5;"/>
   </g>
   <g id="line2d_15">
    <path clip-path="url(#pc9c0d7b667)" d="M 544.070206 326.339991 
M 505 326.339617 
L 503.551836 326.339571 
L 498.456343 326.339314 
L 493.441039 326.338912 
L 488.431066 326.338267 
L 483.426414 326.33723 
L 478.41053 326.335561 
L 473.399986 326.332876 
L 468.394773 326.328572 
L 463.37839 326.321714 
L 458.367357 326.31087 
L 453.361664 326.29387 
L 448.435284 326.268003 
L 443.423746 326.227568 
L 438.409356 326.165735 
L 433.490458 326.073875 
L 428.568533 325.936468 
L 423.55366 325.728193 
L 418.625833 325.426006 
L 413.703193 324.985637 
L 408.696074 324.337793 
L 403.767594 323.429691 
L 398.84431 322.157305 
L 393.91809 320.403477 
L 388.997067 318.029092 
L 384.073126 314.876049 
L 379.146283 310.773181 
L 374.313644 305.649083 
L 369.389031 299.159763 
L 364.461551 291.249786 
L 359.628004 282.005295 
L 354.702799 271.063731 
L 349.863292 258.848207 
L 344.940388 245.042887 
L 340.103014 230.329503 
L 335.174406 214.458803 
L 330.339191 198.318542 
L 325.501011 182.002229 
L 320.659884 165.89431 
L 315.823816 150.374234 
L 310.984818 135.796955 
L 306.15088 122.477793 
L 301.31403 110.681093 
L 296.474285 100.617182 
L 291.631661 92.443543 
L 286.881448 86.363766 
L 282.048881 82.228058 
L 277.205531 80.207938 
L 272.454328 80.301589 
L 267.621053 82.51176 
L 262.863933 86.73915 
L 258.032829 93.09325 
L 253.277733 101.274888 
L 248.527553 111.270793 
L 243.774417 122.928666 
L 238.939769 136.297752 
L 234.188701 150.644187 
L 229.434711 165.894437 
L 224.685648 181.711901 
L 219.93368 197.736692 
L 215.264805 213.31981 
L 210.514796 228.69583 
L 205.761916 243.261221 
L 201.013973 256.756214 
L 196.348803 268.7763 
L 191.595079 279.645617 
L 186.931753 288.919304 
L 182.180066 296.954637 
L 177.510849 303.526094 
L 172.761226 308.987353 
L 168.093913 313.27435 
L 163.431382 316.642881 
L 158.765903 319.240757 
L 154.012659 321.240383 
L 149.349129 322.698515 
L 144.682685 323.767729 
L 140.021033 324.540686 
L 135.356485 325.092369 
L 130.773458 325.475674 
L 126.110744 325.749579 
L 121.445167 325.939386 
L 116.776743 326.069926 
L 112.204827 326.157734 
L 107.538288 326.218684 
L 102.960446 326.259147 
L 98.295819 326.286866 
L 93.712106 326.305016 
L 89.049416 326.317273 
L 84.467486 326.325181 
L 79.890206 326.330366 
L 75.309991 326.333748 
L 70.651141 326.335975 
L 66.065179 326.337382 
" style="fill:none;stroke:#0000ff;stroke-linecap:square;stroke-width:1.5;"/>
   </g>
   <g id="line2d_16">
    <path clip-path="url(#pc9c0d7b667)" d="M 544.070206 326.339999 
M 505 326.339926 
L 503.551836 326.339917 
L 498.456343 326.339869 
L 493.441039 326.339796 
L 488.431066 326.339686 
L 483.426414 326.339522 
L 478.41053 326.339283 
L 473.399986 326.338939 
L 468.394773 326.338456 
L 463.37839 326.337793 
L 458.367357 326.336911 
L 453.361664 326.335781 
L 448.435284 326.334428 
L 443.423746 326.332854 
L 438.409356 326.331222 
L 433.490458 326.329813 
L 428.568533 326.32898 
L 423.55366 326.329232 
L 418.625833 326.33102 
L 413.703193 326.33442 
L 408.696074 326.3385 
L 403.767594 326.339713 
L 398.84431 326.330281 
L 393.91809 326.294638 
L 388.997067 326.204822 
L 384.073126 326.014124 
L 379.146283 325.649121 
L 374.313644 325.015021 
L 369.389031 323.936701 
L 364.461551 322.21402 
L 359.628004 319.634501 
L 354.702799 315.783269 
L 349.863292 310.432031 
L 344.940388 302.987713 
L 340.103014 293.321645 
L 335.174406 280.73674 
L 330.339191 265.431142 
L 325.501011 247.125028 
L 320.659884 225.944751 
L 315.823816 202.269293 
L 310.984818 176.754013 
L 306.15088 150.323812 
L 301.31403 124.134684 
L 296.474285 99.498723 
L 291.631661 77.78254 
L 286.881448 60.553295 
L 282.048881 48.275212 
L 277.205531 42.106348 
L 272.454328 42.395071 
L 267.621053 49.132402 
L 262.863933 61.644974 
L 258.032829 79.568176 
L 253.277733 101.177717 
L 248.527553 125.510361 
L 243.774417 151.27113 
L 238.939769 177.687283 
L 234.188701 202.710489 
L 229.434711 225.944545 
L 224.685648 246.771334 
L 219.93368 264.828879 
L 215.264805 279.742228 
L 210.514796 292.132728 
L 205.761916 301.914659 
L 201.013973 309.401025 
L 196.348803 314.866884 
L 191.595079 318.877737 
L 186.931753 321.621371 
L 182.180066 323.501355 
L 177.510849 324.695766 
L 172.761226 325.450267 
L 168.093913 325.887079 
L 163.431382 326.130833 
L 158.765903 326.256555 
L 154.012659 326.314939 
L 149.349129 326.335958 
L 144.682685 326.339982 
L 140.021033 326.33745 
L 135.356485 326.333596 
L 130.773458 326.330667 
L 126.110744 326.329153 
L 121.445167 326.328989 
L 116.776743 326.329772 
L 112.204827 326.331059 
L 107.538288 326.332572 
L 102.960446 326.334036 
L 98.295819 326.335379 
L 93.712106 326.336494 
L 89.049416 326.337412 
L 84.467486 326.338115 
L 79.890206 326.338649 
L 75.309991 326.339046 
L 70.651141 326.33934 
L 66.065179 326.339545 
" style="fill:none;stroke:#008000;stroke-linecap:square;stroke-width:1.5;"/>
   </g>
   <g id="line2d_17">
    <path clip-path="url(#pc9c0d7b667)" d="M 58.741716 326.34 
L 142.346281 326.22993 
L 152.350246 325.995797 
L 158.781367 325.656654 
L 163.783349 325.204463 
L 168.070763 324.616003 
L 171.643607 323.928945 
L 175.216452 323.006268 
L 178.074728 322.055031 
L 180.933003 320.872377 
L 183.791279 319.413988 
L 185.934986 318.109636 
L 188.078693 316.599666 
L 190.2224 314.859845 
L 192.366106 312.864631 
L 194.509813 310.587385 
L 196.65352 308.00066 
L 198.797227 305.076548 
L 200.940933 301.787093 
L 203.08464 298.104784 
L 205.228347 294.003102 
L 207.372054 289.457134 
L 209.515761 284.444246 
L 211.659467 278.944794 
L 213.803174 272.942875 
L 216.66145 264.139751 
L 219.519726 254.411626 
L 222.378001 243.766207 
L 225.236277 232.233831 
L 228.094553 219.86986 
L 231.667397 203.37327 
L 235.954811 182.351025 
L 242.385931 149.416892 
L 248.817052 116.826818 
L 252.389896 99.834835 
L 255.248172 87.223459 
L 258.106448 75.7435 
L 260.250155 68.012128 
L 262.393861 61.132023 
L 264.537568 55.182917 
L 265.966706 51.769136 
L 267.395844 48.818639 
L 268.824982 46.347209 
L 270.25412 44.368151 
L 271.683258 42.89218 
L 273.112395 41.927318 
L 273.826964 41.638305 
L 274.541533 41.478824 
L 275.256102 41.449091 
L 275.970671 41.549147 
L 276.68524 41.778856 
L 277.399809 42.137904 
L 278.828947 43.24188 
L 280.258085 44.855062 
L 281.687223 46.968689 
L 283.11636 49.571336 
L 284.545498 52.649012 
L 285.974636 56.185289 
L 288.118343 62.308043 
L 290.26205 69.348064 
L 292.405757 77.224041 
L 294.549463 85.84688 
L 297.407739 98.340566 
L 300.980584 115.224416 
L 305.267997 136.715705 
L 317.415669 198.372419 
L 320.988514 215.171216 
L 324.561358 230.858622 
L 327.419634 242.489542 
L 330.27791 253.238536 
L 333.136186 263.072514 
L 335.994461 271.981313 
L 338.852737 279.9749 
L 340.996444 285.385171 
L 343.140151 290.312172 
L 345.283857 294.77614 
L 347.427564 298.800175 
L 349.571271 302.409526 
L 351.714978 305.630936 
L 353.858685 308.492035 
L 356.002391 311.020803 
L 358.146098 313.245096 
L 360.289805 315.192237 
L 362.433512 316.888687 
L 364.577218 318.359766 
L 367.435494 320.011852 
L 370.29377 321.35837 
L 373.152046 322.446859 
L 376.010321 323.319612 
L 379.583166 324.163225 
L 383.156011 324.78898 
L 387.443424 325.322694 
L 392.445407 325.730807 
L 398.876527 326.035082 
L 408.165923 326.23487 
L 424.601009 326.326769 
L 491.055919 326.34 
L 491.055919 326.34 
" style="fill:none;stroke:#ff0000;stroke-dasharray:6.000000,6.000000;stroke-dashoffset:0.0;stroke-width:3.0;"/>
   </g>
   <g id="patch_3">
    <path d="M 59.085 12.96 
L 491.04 12.96 
" style="fill:none;stroke:#000000;stroke-linecap:square;stroke-linejoin:miter;stroke-width:1.5;"/>
   </g>
   <g id="patch_4">
    <path d="M 491.04 326.34 
L 491.04 12.96 
" style="fill:none;stroke:#000000;stroke-linecap:square;stroke-linejoin:miter;stroke-width:1.5;"/>
   </g>
   <g id="patch_5">
    <path d="M 59.085 326.34 
L 491.04 326.34 
" style="fill:none;stroke:#000000;stroke-linecap:square;stroke-linejoin:miter;stroke-width:1.5;"/>
   </g>
   <g id="patch_6">
    <path d="M 59.085 326.34 
L 59.085 12.96 
" style="fill:none;stroke:#000000;stroke-linecap:square;stroke-linejoin:miter;stroke-width:1.5;"/>
   </g>
   <g id="matplotlib.axis_1">
    <g id="xtick_1">
     <g id="line2d_18">
      <defs>
       <path d="M 0 0 
L 0 -10 
" id="m8bf7677296" style="stroke:#000000;stroke-width:1.5;"/>
      </defs>
      <g>
       <use style="stroke:#000000;stroke-width:1.5;" x="102.28049999999999" xlink:href="#m8bf7677296" y="326.34000000000003"/>
      </g>
     </g>
     <g id="line2d_19">
      <defs>
       <path d="M 0 0 
L 0 10 
" id="mfb916b3a69" style="stroke:#000000;stroke-width:1.5;"/>
      </defs>
      <g>
       <use style="stroke:#000000;stroke-width:1.5;" x="102.28049999999999" xlink:href="#mfb916b3a69" y="12.960000000000036"/>
      </g>
     </g>
     <g id="text_1">
      <!-- −20 -->
      <defs>
       <path d="M 10.59375 35.5 
L 73.1875 35.5 
L 73.1875 27.203125 
L 10.59375 27.203125 
z
" id="BitstreamVeraSans-Roman-2212"/>
       <path d="M 19.1875 8.296875 
L 53.609375 8.296875 
L 53.609375 0 
L 7.328125 0 
L 7.328125 8.296875 
Q 12.9375 14.109375 22.625 23.890625 
Q 32.328125 33.6875 34.8125 36.53125 
Q 39.546875 41.84375 41.421875 45.53125 
Q 43.3125 49.21875 43.3125 52.78125 
Q 43.3125 58.59375 39.234375 62.25 
Q 35.15625 65.921875 28.609375 65.921875 
Q 23.96875 65.921875 18.8125 64.3125 
Q 13.671875 62.703125 7.8125 59.421875 
L 7.8125 69.390625 
Q 13.765625 71.78125 18.9375 73 
Q 24.125 74.21875 28.421875 74.21875 
Q 39.75 74.21875 46.484375 68.546875 
Q 53.21875 62.890625 53.21875 53.421875 
Q 53.21875 48.921875 51.53125 44.890625 
Q 49.859375 40.875 45.40625 35.40625 
Q 44.1875 33.984375 37.640625 27.21875 
Q 31.109375 20.453125 19.1875 8.296875 
" id="BitstreamVeraSans-Roman-32"/>
       <path d="M 31.78125 66.40625 
Q 24.171875 66.40625 20.328125 58.90625 
Q 16.5 51.421875 16.5 36.375 
Q 16.5 21.390625 20.328125 13.890625 
Q 24.171875 6.390625 31.78125 6.390625 
Q 39.453125 6.390625 43.28125 13.890625 
Q 47.125 21.390625 47.125 36.375 
Q 47.125 51.421875 43.28125 58.90625 
Q 39.453125 66.40625 31.78125 66.40625 
M 31.78125 74.21875 
Q 44.046875 74.21875 50.515625 64.515625 
Q 56.984375 54.828125 56.984375 36.375 
Q 56.984375 17.96875 50.515625 8.265625 
Q 44.046875 -1.421875 31.78125 -1.421875 
Q 19.53125 -1.421875 13.0625 8.265625 
Q 6.59375 17.96875 6.59375 36.375 
Q 6.59375 54.828125 13.0625 64.515625 
Q 19.53125 74.21875 31.78125 74.21875 
" id="BitstreamVeraSans-Roman-30"/>
      </defs>
      <g transform="translate(89.61768749999999 339.458125)scale(0.12 -0.12)">
       <use xlink:href="#BitstreamVeraSans-Roman-2212"/>
       <use x="83.7890625" xlink:href="#BitstreamVeraSans-Roman-32"/>
       <use x="147.412109375" xlink:href="#BitstreamVeraSans-Roman-30"/>
      </g>
     </g>
    </g>
    <g id="xtick_2">
     <g id="line2d_20">
      <g>
       <use style="stroke:#000000;stroke-width:1.5;" x="188.67149999999998" xlink:href="#m8bf7677296" y="326.34000000000003"/>
      </g>
     </g>
     <g id="line2d_21">
      <g>
       <use style="stroke:#000000;stroke-width:1.5;" x="188.67149999999998" xlink:href="#mfb916b3a69" y="12.960000000000036"/>
      </g>
     </g>
     <g id="text_2">
      <!-- −10 -->
      <defs>
       <path d="M 12.40625 8.296875 
L 28.515625 8.296875 
L 28.515625 63.921875 
L 10.984375 60.40625 
L 10.984375 69.390625 
L 28.421875 72.90625 
L 38.28125 72.90625 
L 38.28125 8.296875 
L 54.390625 8.296875 
L 54.390625 0 
L 12.40625 0 
z
" id="BitstreamVeraSans-Roman-31"/>
      </defs>
      <g transform="translate(176.00868749999998 339.458125)scale(0.12 -0.12)">
       <use xlink:href="#BitstreamVeraSans-Roman-2212"/>
       <use x="83.7890625" xlink:href="#BitstreamVeraSans-Roman-31"/>
       <use x="147.412109375" xlink:href="#BitstreamVeraSans-Roman-30"/>
      </g>
     </g>
    </g>
    <g id="xtick_3">
     <g id="line2d_22">
      <g>
       <use style="stroke:#000000;stroke-width:1.5;" x="275.0625" xlink:href="#m8bf7677296" y="326.34000000000003"/>
      </g>
     </g>
     <g id="line2d_23">
      <g>
       <use style="stroke:#000000;stroke-width:1.5;" x="275.0625" xlink:href="#mfb916b3a69" y="12.960000000000036"/>
      </g>
     </g>
     <g id="text_3">
      <!-- 0 -->
      <g transform="translate(271.245 339.458125)scale(0.12 -0.12)">
       <use xlink:href="#BitstreamVeraSans-Roman-30"/>
      </g>
     </g>
    </g>
    <g id="xtick_4">
     <g id="line2d_24">
      <g>
       <use style="stroke:#000000;stroke-width:1.5;" x="361.4535" xlink:href="#m8bf7677296" y="326.34000000000003"/>
      </g>
     </g>
     <g id="line2d_25">
      <g>
       <use style="stroke:#000000;stroke-width:1.5;" x="361.4535" xlink:href="#mfb916b3a69" y="12.960000000000036"/>
      </g>
     </g>
     <g id="text_4">
      <!-- 10 -->
      <g transform="translate(353.81850000000003 339.458125)scale(0.12 -0.12)">
       <use xlink:href="#BitstreamVeraSans-Roman-31"/>
       <use x="63.623046875" xlink:href="#BitstreamVeraSans-Roman-30"/>
      </g>
     </g>
    </g>
    <g id="xtick_5">
     <g id="line2d_26">
      <g>
       <use style="stroke:#000000;stroke-width:1.5;" x="447.84450000000004" xlink:href="#m8bf7677296" y="326.34000000000003"/>
      </g>
     </g>
     <g id="line2d_27">
      <g>
       <use style="stroke:#000000;stroke-width:1.5;" x="447.84450000000004" xlink:href="#mfb916b3a69" y="12.960000000000036"/>
      </g>
     </g>
     <g id="text_5">
      <!-- 20 -->
      <g transform="translate(440.20950000000005 339.458125)scale(0.12 -0.12)">
       <use xlink:href="#BitstreamVeraSans-Roman-32"/>
       <use x="63.623046875" xlink:href="#BitstreamVeraSans-Roman-30"/>
      </g>
     </g>
    </g>
    <g id="text_6">
     <!-- Detuning (meV) -->
     <defs>
      <path id="BitstreamVeraSans-Roman-20"/>
      <path d="M 54.890625 33.015625 
L 54.890625 0 
L 45.90625 0 
L 45.90625 32.71875 
Q 45.90625 40.484375 42.875 44.328125 
Q 39.84375 48.1875 33.796875 48.1875 
Q 26.515625 48.1875 22.3125 43.546875 
Q 18.109375 38.921875 18.109375 30.90625 
L 18.109375 0 
L 9.078125 0 
L 9.078125 54.6875 
L 18.109375 54.6875 
L 18.109375 46.1875 
Q 21.34375 51.125 25.703125 53.5625 
Q 30.078125 56 35.796875 56 
Q 45.21875 56 50.046875 50.171875 
Q 54.890625 44.34375 54.890625 33.015625 
" id="BitstreamVeraSans-Roman-6e"/>
      <path d="M 31 75.875 
Q 24.46875 64.65625 21.28125 53.65625 
Q 18.109375 42.671875 18.109375 31.390625 
Q 18.109375 20.125 21.3125 9.0625 
Q 24.515625 -2 31 -13.1875 
L 23.1875 -13.1875 
Q 15.875 -1.703125 12.234375 9.375 
Q 8.59375 20.453125 8.59375 31.390625 
Q 8.59375 42.28125 12.203125 53.3125 
Q 15.828125 64.359375 23.1875 75.875 
z
" id="BitstreamVeraSans-Roman-28"/>
      <path d="M 8.015625 75.875 
L 15.828125 75.875 
Q 23.140625 64.359375 26.78125 53.3125 
Q 30.421875 42.28125 30.421875 31.390625 
Q 30.421875 20.453125 26.78125 9.375 
Q 23.140625 -1.703125 15.828125 -13.1875 
L 8.015625 -13.1875 
Q 14.5 -2 17.703125 9.0625 
Q 20.90625 20.125 20.90625 31.390625 
Q 20.90625 42.671875 17.703125 53.65625 
Q 14.5 64.65625 8.015625 75.875 
" id="BitstreamVeraSans-Roman-29"/>
      <path d="M 19.671875 64.796875 
L 19.671875 8.109375 
L 31.59375 8.109375 
Q 46.6875 8.109375 53.6875 14.9375 
Q 60.6875 21.78125 60.6875 36.53125 
Q 60.6875 51.171875 53.6875 57.984375 
Q 46.6875 64.796875 31.59375 64.796875 
z
M 9.8125 72.90625 
L 30.078125 72.90625 
Q 51.265625 72.90625 61.171875 64.09375 
Q 71.09375 55.28125 71.09375 36.53125 
Q 71.09375 17.671875 61.125 8.828125 
Q 51.171875 0 30.078125 0 
L 9.8125 0 
z
" id="BitstreamVeraSans-Roman-44"/>
      <path d="M 9.421875 54.6875 
L 18.40625 54.6875 
L 18.40625 0 
L 9.421875 0 
z
M 9.421875 75.984375 
L 18.40625 75.984375 
L 18.40625 64.59375 
L 9.421875 64.59375 
z
" id="BitstreamVeraSans-Roman-69"/>
      <path d="M 28.609375 0 
L 0.78125 72.90625 
L 11.078125 72.90625 
L 34.1875 11.53125 
L 57.328125 72.90625 
L 67.578125 72.90625 
L 39.796875 0 
z
" id="BitstreamVeraSans-Roman-56"/>
      <path d="M 52 44.1875 
Q 55.375 50.25 60.0625 53.125 
Q 64.75 56 71.09375 56 
Q 79.640625 56 84.28125 50.015625 
Q 88.921875 44.046875 88.921875 33.015625 
L 88.921875 0 
L 79.890625 0 
L 79.890625 32.71875 
Q 79.890625 40.578125 77.09375 44.375 
Q 74.3125 48.1875 68.609375 48.1875 
Q 61.625 48.1875 57.5625 43.546875 
Q 53.515625 38.921875 53.515625 30.90625 
L 53.515625 0 
L 44.484375 0 
L 44.484375 32.71875 
Q 44.484375 40.625 41.703125 44.40625 
Q 38.921875 48.1875 33.109375 48.1875 
Q 26.21875 48.1875 22.15625 43.53125 
Q 18.109375 38.875 18.109375 30.90625 
L 18.109375 0 
L 9.078125 0 
L 9.078125 54.6875 
L 18.109375 54.6875 
L 18.109375 46.1875 
Q 21.1875 51.21875 25.484375 53.609375 
Q 29.78125 56 35.6875 56 
Q 41.65625 56 45.828125 52.96875 
Q 50 49.953125 52 44.1875 
" id="BitstreamVeraSans-Roman-6d"/>
      <path d="M 56.203125 29.59375 
L 56.203125 25.203125 
L 14.890625 25.203125 
Q 15.484375 15.921875 20.484375 11.0625 
Q 25.484375 6.203125 34.421875 6.203125 
Q 39.59375 6.203125 44.453125 7.46875 
Q 49.3125 8.734375 54.109375 11.28125 
L 54.109375 2.78125 
Q 49.265625 0.734375 44.1875 -0.34375 
Q 39.109375 -1.421875 33.890625 -1.421875 
Q 20.796875 -1.421875 13.15625 6.1875 
Q 5.515625 13.8125 5.515625 26.8125 
Q 5.515625 40.234375 12.765625 48.109375 
Q 20.015625 56 32.328125 56 
Q 43.359375 56 49.78125 48.890625 
Q 56.203125 41.796875 56.203125 29.59375 
M 47.21875 32.234375 
Q 47.125 39.59375 43.09375 43.984375 
Q 39.0625 48.390625 32.421875 48.390625 
Q 24.90625 48.390625 20.390625 44.140625 
Q 15.875 39.890625 15.1875 32.171875 
z
" id="BitstreamVeraSans-Roman-65"/>
      <path d="M 18.3125 70.21875 
L 18.3125 54.6875 
L 36.8125 54.6875 
L 36.8125 47.703125 
L 18.3125 47.703125 
L 18.3125 18.015625 
Q 18.3125 11.328125 20.140625 9.421875 
Q 21.96875 7.515625 27.59375 7.515625 
L 36.8125 7.515625 
L 36.8125 0 
L 27.59375 0 
Q 17.1875 0 13.234375 3.875 
Q 9.28125 7.765625 9.28125 18.015625 
L 9.28125 47.703125 
L 2.6875 47.703125 
L 2.6875 54.6875 
L 9.28125 54.6875 
L 9.28125 70.21875 
z
" id="BitstreamVeraSans-Roman-74"/>
      <path d="M 8.5 21.578125 
L 8.5 54.6875 
L 17.484375 54.6875 
L 17.484375 21.921875 
Q 17.484375 14.15625 20.5 10.265625 
Q 23.53125 6.390625 29.59375 6.390625 
Q 36.859375 6.390625 41.078125 11.03125 
Q 45.3125 15.671875 45.3125 23.6875 
L 45.3125 54.6875 
L 54.296875 54.6875 
L 54.296875 0 
L 45.3125 0 
L 45.3125 8.40625 
Q 42.046875 3.421875 37.71875 1 
Q 33.40625 -1.421875 27.6875 -1.421875 
Q 18.265625 -1.421875 13.375 4.4375 
Q 8.5 10.296875 8.5 21.578125 
" id="BitstreamVeraSans-Roman-75"/>
      <path d="M 45.40625 27.984375 
Q 45.40625 37.75 41.375 43.109375 
Q 37.359375 48.484375 30.078125 48.484375 
Q 22.859375 48.484375 18.828125 43.109375 
Q 14.796875 37.75 14.796875 27.984375 
Q 14.796875 18.265625 18.828125 12.890625 
Q 22.859375 7.515625 30.078125 7.515625 
Q 37.359375 7.515625 41.375 12.890625 
Q 45.40625 18.265625 45.40625 27.984375 
M 54.390625 6.78125 
Q 54.390625 -7.171875 48.1875 -13.984375 
Q 42 -20.796875 29.203125 -20.796875 
Q 24.46875 -20.796875 20.265625 -20.09375 
Q 16.0625 -19.390625 12.109375 -17.921875 
L 12.109375 -9.1875 
Q 16.0625 -11.328125 19.921875 -12.34375 
Q 23.78125 -13.375 27.78125 -13.375 
Q 36.625 -13.375 41.015625 -8.765625 
Q 45.40625 -4.15625 45.40625 5.171875 
L 45.40625 9.625 
Q 42.625 4.78125 38.28125 2.390625 
Q 33.9375 0 27.875 0 
Q 17.828125 0 11.671875 7.65625 
Q 5.515625 15.328125 5.515625 27.984375 
Q 5.515625 40.671875 11.671875 48.328125 
Q 17.828125 56 27.875 56 
Q 33.9375 56 38.28125 53.609375 
Q 42.625 51.21875 45.40625 46.390625 
L 45.40625 54.6875 
L 54.390625 54.6875 
z
" id="BitstreamVeraSans-Roman-67"/>
     </defs>
     <g transform="translate(195.434375 362.15062500000005)scale(0.2 -0.2)">
      <use xlink:href="#BitstreamVeraSans-Roman-44"/>
      <use x="77.001953125" xlink:href="#BitstreamVeraSans-Roman-65"/>
      <use x="138.525390625" xlink:href="#BitstreamVeraSans-Roman-74"/>
      <use x="177.734375" xlink:href="#BitstreamVeraSans-Roman-75"/>
      <use x="241.11328125" xlink:href="#BitstreamVeraSans-Roman-6e"/>
      <use x="304.4921875" xlink:href="#BitstreamVeraSans-Roman-69"/>
      <use x="332.275390625" xlink:href="#BitstreamVeraSans-Roman-6e"/>
      <use x="395.654296875" xlink:href="#BitstreamVeraSans-Roman-67"/>
      <use x="459.130859375" xlink:href="#BitstreamVeraSans-Roman-20"/>
      <use x="490.91796875" xlink:href="#BitstreamVeraSans-Roman-28"/>
      <use x="529.931640625" xlink:href="#BitstreamVeraSans-Roman-6d"/>
      <use x="627.34375" xlink:href="#BitstreamVeraSans-Roman-65"/>
      <use x="688.8671875" xlink:href="#BitstreamVeraSans-Roman-56"/>
      <use x="757.275390625" xlink:href="#BitstreamVeraSans-Roman-29"/>
     </g>
    </g>
   </g>
   <g id="matplotlib.axis_2">
    <g id="ytick_1">
     <g id="line2d_28">
      <defs>
       <path d="M 0 0 
L 10 0 
" id="m9dd3f9ac16" style="stroke:#000000;stroke-width:1.5;"/>
      </defs>
      <g>
       <use style="stroke:#000000;stroke-width:1.5;" x="59.085" xlink:href="#m9dd3f9ac16" y="326.34000000000003"/>
      </g>
     </g>
     <g id="line2d_29">
      <defs>
       <path d="M 0 0 
L -10 0 
" id="md2dfbef958" style="stroke:#000000;stroke-width:1.5;"/>
      </defs>
      <g>
       <use style="stroke:#000000;stroke-width:1.5;" x="491.04" xlink:href="#md2dfbef958" y="326.34000000000003"/>
      </g>
     </g>
     <g id="text_7">
      <!-- 0.0 -->
      <defs>
       <path d="M 10.6875 12.40625 
L 21 12.40625 
L 21 0 
L 10.6875 0 
z
" id="BitstreamVeraSans-Roman-2e"/>
      </defs>
      <g transform="translate(36.00125 329.65125)scale(0.12 -0.12)">
       <use xlink:href="#BitstreamVeraSans-Roman-30"/>
       <use x="63.623046875" xlink:href="#BitstreamVeraSans-Roman-2e"/>
       <use x="95.41015625" xlink:href="#BitstreamVeraSans-Roman-30"/>
      </g>
     </g>
    </g>
    <g id="ytick_2">
     <g id="line2d_30">
      <g>
       <use style="stroke:#000000;stroke-width:1.5;" x="59.085" xlink:href="#m9dd3f9ac16" y="269.3618181818182"/>
      </g>
     </g>
     <g id="line2d_31">
      <g>
       <use style="stroke:#000000;stroke-width:1.5;" x="491.04" xlink:href="#md2dfbef958" y="269.3618181818182"/>
      </g>
     </g>
     <g id="text_8">
      <!-- 0.2 -->
      <g transform="translate(36.00125 272.6730681818182)scale(0.12 -0.12)">
       <use xlink:href="#BitstreamVeraSans-Roman-30"/>
       <use x="63.623046875" xlink:href="#BitstreamVeraSans-Roman-2e"/>
       <use x="95.41015625" xlink:href="#BitstreamVeraSans-Roman-32"/>
      </g>
     </g>
    </g>
    <g id="ytick_3">
     <g id="line2d_32">
      <g>
       <use style="stroke:#000000;stroke-width:1.5;" x="59.085" xlink:href="#m9dd3f9ac16" y="212.3836363636364"/>
      </g>
     </g>
     <g id="line2d_33">
      <g>
       <use style="stroke:#000000;stroke-width:1.5;" x="491.04" xlink:href="#md2dfbef958" y="212.3836363636364"/>
      </g>
     </g>
     <g id="text_9">
      <!-- 0.4 -->
      <defs>
       <path d="M 37.796875 64.3125 
L 12.890625 25.390625 
L 37.796875 25.390625 
z
M 35.203125 72.90625 
L 47.609375 72.90625 
L 47.609375 25.390625 
L 58.015625 25.390625 
L 58.015625 17.1875 
L 47.609375 17.1875 
L 47.609375 0 
L 37.796875 0 
L 37.796875 17.1875 
L 4.890625 17.1875 
L 4.890625 26.703125 
z
" id="BitstreamVeraSans-Roman-34"/>
      </defs>
      <g transform="translate(36.00125 215.69488636363639)scale(0.12 -0.12)">
       <use xlink:href="#BitstreamVeraSans-Roman-30"/>
       <use x="63.623046875" xlink:href="#BitstreamVeraSans-Roman-2e"/>
       <use x="95.41015625" xlink:href="#BitstreamVeraSans-Roman-34"/>
      </g>
     </g>
    </g>
    <g id="ytick_4">
     <g id="line2d_34">
      <g>
       <use style="stroke:#000000;stroke-width:1.5;" x="59.085" xlink:href="#m9dd3f9ac16" y="155.40545454545457"/>
      </g>
     </g>
     <g id="line2d_35">
      <g>
       <use style="stroke:#000000;stroke-width:1.5;" x="491.04" xlink:href="#md2dfbef958" y="155.40545454545457"/>
      </g>
     </g>
     <g id="text_10">
      <!-- 0.6 -->
      <defs>
       <path d="M 33.015625 40.375 
Q 26.375 40.375 22.484375 35.828125 
Q 18.609375 31.296875 18.609375 23.390625 
Q 18.609375 15.53125 22.484375 10.953125 
Q 26.375 6.390625 33.015625 6.390625 
Q 39.65625 6.390625 43.53125 10.953125 
Q 47.40625 15.53125 47.40625 23.390625 
Q 47.40625 31.296875 43.53125 35.828125 
Q 39.65625 40.375 33.015625 40.375 
M 52.59375 71.296875 
L 52.59375 62.3125 
Q 48.875 64.0625 45.09375 64.984375 
Q 41.3125 65.921875 37.59375 65.921875 
Q 27.828125 65.921875 22.671875 59.328125 
Q 17.53125 52.734375 16.796875 39.40625 
Q 19.671875 43.65625 24.015625 45.921875 
Q 28.375 48.1875 33.59375 48.1875 
Q 44.578125 48.1875 50.953125 41.515625 
Q 57.328125 34.859375 57.328125 23.390625 
Q 57.328125 12.15625 50.6875 5.359375 
Q 44.046875 -1.421875 33.015625 -1.421875 
Q 20.359375 -1.421875 13.671875 8.265625 
Q 6.984375 17.96875 6.984375 36.375 
Q 6.984375 53.65625 15.1875 63.9375 
Q 23.390625 74.21875 37.203125 74.21875 
Q 40.921875 74.21875 44.703125 73.484375 
Q 48.484375 72.75 52.59375 71.296875 
" id="BitstreamVeraSans-Roman-36"/>
      </defs>
      <g transform="translate(36.00125 158.71670454545458)scale(0.12 -0.12)">
       <use xlink:href="#BitstreamVeraSans-Roman-30"/>
       <use x="63.623046875" xlink:href="#BitstreamVeraSans-Roman-2e"/>
       <use x="95.41015625" xlink:href="#BitstreamVeraSans-Roman-36"/>
      </g>
     </g>
    </g>
    <g id="ytick_5">
     <g id="line2d_36">
      <g>
       <use style="stroke:#000000;stroke-width:1.5;" x="59.085" xlink:href="#m9dd3f9ac16" y="98.42727272727276"/>
      </g>
     </g>
     <g id="line2d_37">
      <g>
       <use style="stroke:#000000;stroke-width:1.5;" x="491.04" xlink:href="#md2dfbef958" y="98.42727272727276"/>
      </g>
     </g>
     <g id="text_11">
      <!-- 0.8 -->
      <defs>
       <path d="M 31.78125 34.625 
Q 24.75 34.625 20.71875 30.859375 
Q 16.703125 27.09375 16.703125 20.515625 
Q 16.703125 13.921875 20.71875 10.15625 
Q 24.75 6.390625 31.78125 6.390625 
Q 38.8125 6.390625 42.859375 10.171875 
Q 46.921875 13.96875 46.921875 20.515625 
Q 46.921875 27.09375 42.890625 30.859375 
Q 38.875 34.625 31.78125 34.625 
M 21.921875 38.8125 
Q 15.578125 40.375 12.03125 44.71875 
Q 8.5 49.078125 8.5 55.328125 
Q 8.5 64.0625 14.71875 69.140625 
Q 20.953125 74.21875 31.78125 74.21875 
Q 42.671875 74.21875 48.875 69.140625 
Q 55.078125 64.0625 55.078125 55.328125 
Q 55.078125 49.078125 51.53125 44.71875 
Q 48 40.375 41.703125 38.8125 
Q 48.828125 37.15625 52.796875 32.3125 
Q 56.78125 27.484375 56.78125 20.515625 
Q 56.78125 9.90625 50.3125 4.234375 
Q 43.84375 -1.421875 31.78125 -1.421875 
Q 19.734375 -1.421875 13.25 4.234375 
Q 6.78125 9.90625 6.78125 20.515625 
Q 6.78125 27.484375 10.78125 32.3125 
Q 14.796875 37.15625 21.921875 38.8125 
M 18.3125 54.390625 
Q 18.3125 48.734375 21.84375 45.5625 
Q 25.390625 42.390625 31.78125 42.390625 
Q 38.140625 42.390625 41.71875 45.5625 
Q 45.3125 48.734375 45.3125 54.390625 
Q 45.3125 60.0625 41.71875 63.234375 
Q 38.140625 66.40625 31.78125 66.40625 
Q 25.390625 66.40625 21.84375 63.234375 
Q 18.3125 60.0625 18.3125 54.390625 
" id="BitstreamVeraSans-Roman-38"/>
      </defs>
      <g transform="translate(36.00125 101.73852272727271)scale(0.12 -0.12)">
       <use xlink:href="#BitstreamVeraSans-Roman-30"/>
       <use x="63.623046875" xlink:href="#BitstreamVeraSans-Roman-2e"/>
       <use x="95.41015625" xlink:href="#BitstreamVeraSans-Roman-38"/>
      </g>
     </g>
    </g>
    <g id="ytick_6">
     <g id="line2d_38">
      <g>
       <use style="stroke:#000000;stroke-width:1.5;" x="59.085" xlink:href="#m9dd3f9ac16" y="41.449090909090955"/>
      </g>
     </g>
     <g id="line2d_39">
      <g>
       <use style="stroke:#000000;stroke-width:1.5;" x="491.04" xlink:href="#md2dfbef958" y="41.449090909090955"/>
      </g>
     </g>
     <g id="text_12">
      <!-- 1.0 -->
      <g transform="translate(36.00125 44.76034090909093)scale(0.12 -0.12)">
       <use xlink:href="#BitstreamVeraSans-Roman-31"/>
       <use x="63.623046875" xlink:href="#BitstreamVeraSans-Roman-2e"/>
       <use x="95.41015625" xlink:href="#BitstreamVeraSans-Roman-30"/>
      </g>
     </g>
    </g>
    <g id="text_13">
     <!-- Occupation -->
     <defs>
      <path d="M 39.40625 66.21875 
Q 28.65625 66.21875 22.328125 58.203125 
Q 16.015625 50.203125 16.015625 36.375 
Q 16.015625 22.609375 22.328125 14.59375 
Q 28.65625 6.59375 39.40625 6.59375 
Q 50.140625 6.59375 56.421875 14.59375 
Q 62.703125 22.609375 62.703125 36.375 
Q 62.703125 50.203125 56.421875 58.203125 
Q 50.140625 66.21875 39.40625 66.21875 
M 39.40625 74.21875 
Q 54.734375 74.21875 63.90625 63.9375 
Q 73.09375 53.65625 73.09375 36.375 
Q 73.09375 19.140625 63.90625 8.859375 
Q 54.734375 -1.421875 39.40625 -1.421875 
Q 24.03125 -1.421875 14.8125 8.828125 
Q 5.609375 19.09375 5.609375 36.375 
Q 5.609375 53.65625 14.8125 63.9375 
Q 24.03125 74.21875 39.40625 74.21875 
" id="BitstreamVeraSans-Roman-4f"/>
      <path d="M 30.609375 48.390625 
Q 23.390625 48.390625 19.1875 42.75 
Q 14.984375 37.109375 14.984375 27.296875 
Q 14.984375 17.484375 19.15625 11.84375 
Q 23.34375 6.203125 30.609375 6.203125 
Q 37.796875 6.203125 41.984375 11.859375 
Q 46.1875 17.53125 46.1875 27.296875 
Q 46.1875 37.015625 41.984375 42.703125 
Q 37.796875 48.390625 30.609375 48.390625 
M 30.609375 56 
Q 42.328125 56 49.015625 48.375 
Q 55.71875 40.765625 55.71875 27.296875 
Q 55.71875 13.875 49.015625 6.21875 
Q 42.328125 -1.421875 30.609375 -1.421875 
Q 18.84375 -1.421875 12.171875 6.21875 
Q 5.515625 13.875 5.515625 27.296875 
Q 5.515625 40.765625 12.171875 48.375 
Q 18.84375 56 30.609375 56 
" id="BitstreamVeraSans-Roman-6f"/>
      <path d="M 34.28125 27.484375 
Q 23.390625 27.484375 19.1875 25 
Q 14.984375 22.515625 14.984375 16.5 
Q 14.984375 11.71875 18.140625 8.90625 
Q 21.296875 6.109375 26.703125 6.109375 
Q 34.1875 6.109375 38.703125 11.40625 
Q 43.21875 16.703125 43.21875 25.484375 
L 43.21875 27.484375 
z
M 52.203125 31.203125 
L 52.203125 0 
L 43.21875 0 
L 43.21875 8.296875 
Q 40.140625 3.328125 35.546875 0.953125 
Q 30.953125 -1.421875 24.3125 -1.421875 
Q 15.921875 -1.421875 10.953125 3.296875 
Q 6 8.015625 6 15.921875 
Q 6 25.140625 12.171875 29.828125 
Q 18.359375 34.515625 30.609375 34.515625 
L 43.21875 34.515625 
L 43.21875 35.40625 
Q 43.21875 41.609375 39.140625 45 
Q 35.0625 48.390625 27.6875 48.390625 
Q 23 48.390625 18.546875 47.265625 
Q 14.109375 46.140625 10.015625 43.890625 
L 10.015625 52.203125 
Q 14.9375 54.109375 19.578125 55.046875 
Q 24.21875 56 28.609375 56 
Q 40.484375 56 46.34375 49.84375 
Q 52.203125 43.703125 52.203125 31.203125 
" id="BitstreamVeraSans-Roman-61"/>
      <path d="M 18.109375 8.203125 
L 18.109375 -20.796875 
L 9.078125 -20.796875 
L 9.078125 54.6875 
L 18.109375 54.6875 
L 18.109375 46.390625 
Q 20.953125 51.265625 25.265625 53.625 
Q 29.59375 56 35.59375 56 
Q 45.5625 56 51.78125 48.09375 
Q 58.015625 40.1875 58.015625 27.296875 
Q 58.015625 14.40625 51.78125 6.484375 
Q 45.5625 -1.421875 35.59375 -1.421875 
Q 29.59375 -1.421875 25.265625 0.953125 
Q 20.953125 3.328125 18.109375 8.203125 
M 48.6875 27.296875 
Q 48.6875 37.203125 44.609375 42.84375 
Q 40.53125 48.484375 33.40625 48.484375 
Q 26.265625 48.484375 22.1875 42.84375 
Q 18.109375 37.203125 18.109375 27.296875 
Q 18.109375 17.390625 22.1875 11.75 
Q 26.265625 6.109375 33.40625 6.109375 
Q 40.53125 6.109375 44.609375 11.75 
Q 48.6875 17.390625 48.6875 27.296875 
" id="BitstreamVeraSans-Roman-70"/>
      <path d="M 48.78125 52.59375 
L 48.78125 44.1875 
Q 44.96875 46.296875 41.140625 47.34375 
Q 37.3125 48.390625 33.40625 48.390625 
Q 24.65625 48.390625 19.8125 42.84375 
Q 14.984375 37.3125 14.984375 27.296875 
Q 14.984375 17.28125 19.8125 11.734375 
Q 24.65625 6.203125 33.40625 6.203125 
Q 37.3125 6.203125 41.140625 7.25 
Q 44.96875 8.296875 48.78125 10.40625 
L 48.78125 2.09375 
Q 45.015625 0.34375 40.984375 -0.53125 
Q 36.96875 -1.421875 32.421875 -1.421875 
Q 20.0625 -1.421875 12.78125 6.34375 
Q 5.515625 14.109375 5.515625 27.296875 
Q 5.515625 40.671875 12.859375 48.328125 
Q 20.21875 56 33.015625 56 
Q 37.15625 56 41.109375 55.140625 
Q 45.0625 54.296875 48.78125 52.59375 
" id="BitstreamVeraSans-Roman-63"/>
     </defs>
     <g transform="translate(26.841874999999995 226.48750000000004)rotate(-90.0)scale(0.2 -0.2)">
      <use xlink:href="#BitstreamVeraSans-Roman-4f"/>
      <use x="78.7109375" xlink:href="#BitstreamVeraSans-Roman-63"/>
      <use x="133.69140625" xlink:href="#BitstreamVeraSans-Roman-63"/>
      <use x="188.671875" xlink:href="#BitstreamVeraSans-Roman-75"/>
      <use x="252.05078125" xlink:href="#BitstreamVeraSans-Roman-70"/>
      <use x="315.52734375" xlink:href="#BitstreamVeraSans-Roman-61"/>
      <use x="376.806640625" xlink:href="#BitstreamVeraSans-Roman-74"/>
      <use x="416.015625" xlink:href="#BitstreamVeraSans-Roman-69"/>
      <use x="443.798828125" xlink:href="#BitstreamVeraSans-Roman-6f"/>
      <use x="504.98046875" xlink:href="#BitstreamVeraSans-Roman-6e"/>
     </g>
    </g>
   </g>
   <g id="legend_1">
    <g id="line2d_40">
     <path d="M 377.88 28.678125 
L 394.68 28.678125 
" style="fill:none;stroke:#0000ff;stroke-linecap:square;stroke-width:1.5;"/>
    </g>
    <g id="line2d_41"/>
    <g id="text_14">
     <!-- 300000.0fs$^2$ -->
     <defs>
      <path d="M 40.578125 39.3125 
Q 47.65625 37.796875 51.625 33 
Q 55.609375 28.21875 55.609375 21.1875 
Q 55.609375 10.40625 48.1875 4.484375 
Q 40.765625 -1.421875 27.09375 -1.421875 
Q 22.515625 -1.421875 17.65625 -0.515625 
Q 12.796875 0.390625 7.625 2.203125 
L 7.625 11.71875 
Q 11.71875 9.328125 16.59375 8.109375 
Q 21.484375 6.890625 26.8125 6.890625 
Q 36.078125 6.890625 40.9375 10.546875 
Q 45.796875 14.203125 45.796875 21.1875 
Q 45.796875 27.640625 41.28125 31.265625 
Q 36.765625 34.90625 28.71875 34.90625 
L 20.21875 34.90625 
L 20.21875 43.015625 
L 29.109375 43.015625 
Q 36.375 43.015625 40.234375 45.921875 
Q 44.09375 48.828125 44.09375 54.296875 
Q 44.09375 59.90625 40.109375 62.90625 
Q 36.140625 65.921875 28.71875 65.921875 
Q 24.65625 65.921875 20.015625 65.03125 
Q 15.375 64.15625 9.8125 62.3125 
L 9.8125 71.09375 
Q 15.4375 72.65625 20.34375 73.4375 
Q 25.25 74.21875 29.59375 74.21875 
Q 40.828125 74.21875 47.359375 69.109375 
Q 53.90625 64.015625 53.90625 55.328125 
Q 53.90625 49.265625 50.4375 45.09375 
Q 46.96875 40.921875 40.578125 39.3125 
" id="BitstreamVeraSans-Roman-33"/>
      <path d="M 46.90625 7.09375 
L 44 0 
L 3.5 0 
L 3.5 2.09375 
L 21 23.5 
L 21 23.40625 
L 26.59375 30.203125 
Q 30.5 34.90625 32.09375 36.953125 
Q 33.703125 39 35.203125 41.953125 
Q 36.703125 44.90625 36.703125 47.5 
Q 36.703125 53.703125 33.34375 57.09375 
Q 30 60.5 24.203125 60.5 
Q 19.59375 60.5 15.75 56.703125 
Q 11.90625 52.90625 10.90625 45.90625 
L 3.703125 47.59375 
Q 5.296875 56.5 11.1875 62.046875 
Q 17.09375 67.59375 24.90625 67.59375 
Q 33.59375 67.59375 39.09375 62.1875 
Q 44.59375 56.796875 44.59375 49.09375 
Q 44.59375 43.5 42.5 39.453125 
Q 40.40625 35.40625 33.703125 27 
L 17.703125 7.09375 
z
" id="STIXGeneral-Regular-1d7e4"/>
      <path d="M 37.109375 75.984375 
L 37.109375 68.5 
L 28.515625 68.5 
Q 23.6875 68.5 21.796875 66.546875 
Q 19.921875 64.59375 19.921875 59.515625 
L 19.921875 54.6875 
L 34.71875 54.6875 
L 34.71875 47.703125 
L 19.921875 47.703125 
L 19.921875 0 
L 10.890625 0 
L 10.890625 47.703125 
L 2.296875 47.703125 
L 2.296875 54.6875 
L 10.890625 54.6875 
L 10.890625 58.5 
Q 10.890625 67.625 15.140625 71.796875 
Q 19.390625 75.984375 28.609375 75.984375 
z
" id="BitstreamVeraSans-Roman-66"/>
      <path d="M 44.28125 53.078125 
L 44.28125 44.578125 
Q 40.484375 46.53125 36.375 47.5 
Q 32.28125 48.484375 27.875 48.484375 
Q 21.1875 48.484375 17.84375 46.4375 
Q 14.5 44.390625 14.5 40.28125 
Q 14.5 37.15625 16.890625 35.375 
Q 19.28125 33.59375 26.515625 31.984375 
L 29.59375 31.296875 
Q 39.15625 29.25 43.1875 25.515625 
Q 47.21875 21.78125 47.21875 15.09375 
Q 47.21875 7.46875 41.1875 3.015625 
Q 35.15625 -1.421875 24.609375 -1.421875 
Q 20.21875 -1.421875 15.453125 -0.5625 
Q 10.6875 0.296875 5.421875 2 
L 5.421875 11.28125 
Q 10.40625 8.6875 15.234375 7.390625 
Q 20.0625 6.109375 24.8125 6.109375 
Q 31.15625 6.109375 34.5625 8.28125 
Q 37.984375 10.453125 37.984375 14.40625 
Q 37.984375 18.0625 35.515625 20.015625 
Q 33.0625 21.96875 24.703125 23.78125 
L 21.578125 24.515625 
Q 13.234375 26.265625 9.515625 29.90625 
Q 5.8125 33.546875 5.8125 39.890625 
Q 5.8125 47.609375 11.28125 51.796875 
Q 16.75 56 26.8125 56 
Q 31.78125 56 36.171875 55.265625 
Q 40.578125 54.546875 44.28125 53.078125 
" id="BitstreamVeraSans-Roman-73"/>
     </defs>
     <g transform="translate(407.88000000000005 32.87812500000001)scale(0.12 -0.12)">
      <use transform="translate(0.0 0.446875)" xlink:href="#BitstreamVeraSans-Roman-33"/>
      <use transform="translate(63.623046875 0.446875)" xlink:href="#BitstreamVeraSans-Roman-30"/>
      <use transform="translate(127.24609375 0.446875)" xlink:href="#BitstreamVeraSans-Roman-30"/>
      <use transform="translate(190.869140625 0.446875)" xlink:href="#BitstreamVeraSans-Roman-30"/>
      <use transform="translate(254.4921875 0.446875)" xlink:href="#BitstreamVeraSans-Roman-30"/>
      <use transform="translate(318.115234375 0.446875)" xlink:href="#BitstreamVeraSans-Roman-30"/>
      <use transform="translate(381.73828125 0.446875)" xlink:href="#BitstreamVeraSans-Roman-2e"/>
      <use transform="translate(413.525390625 0.446875)" xlink:href="#BitstreamVeraSans-Roman-30"/>
      <use transform="translate(477.1484375 0.446875)" xlink:href="#BitstreamVeraSans-Roman-66"/>
      <use transform="translate(512.353515625 0.446875)" xlink:href="#BitstreamVeraSans-Roman-73"/>
      <use transform="translate(565.245820312 36.684375)scale(0.7)" xlink:href="#STIXGeneral-Regular-1d7e4"/>
     </g>
    </g>
    <g id="line2d_42">
     <path d="M 377.88 43.291875 
L 394.68 43.291875 
" style="fill:none;stroke:#008000;stroke-linecap:square;stroke-width:1.5;"/>
    </g>
    <g id="line2d_43"/>
    <g id="text_15">
     <!-- 250000.0fs$^2$ -->
     <defs>
      <path d="M 10.796875 72.90625 
L 49.515625 72.90625 
L 49.515625 64.59375 
L 19.828125 64.59375 
L 19.828125 46.734375 
Q 21.96875 47.46875 24.109375 47.828125 
Q 26.265625 48.1875 28.421875 48.1875 
Q 40.625 48.1875 47.75 41.5 
Q 54.890625 34.8125 54.890625 23.390625 
Q 54.890625 11.625 47.5625 5.09375 
Q 40.234375 -1.421875 26.90625 -1.421875 
Q 22.3125 -1.421875 17.546875 -0.640625 
Q 12.796875 0.140625 7.71875 1.703125 
L 7.71875 11.625 
Q 12.109375 9.234375 16.796875 8.0625 
Q 21.484375 6.890625 26.703125 6.890625 
Q 35.15625 6.890625 40.078125 11.328125 
Q 45.015625 15.765625 45.015625 23.390625 
Q 45.015625 31 40.078125 35.4375 
Q 35.15625 39.890625 26.703125 39.890625 
Q 22.75 39.890625 18.8125 39.015625 
Q 14.890625 38.140625 10.796875 36.28125 
z
" id="BitstreamVeraSans-Roman-35"/>
     </defs>
     <g transform="translate(407.88000000000005 47.49187500000005)scale(0.12 -0.12)">
      <use transform="translate(0.0 0.446875)" xlink:href="#BitstreamVeraSans-Roman-32"/>
      <use transform="translate(63.623046875 0.446875)" xlink:href="#BitstreamVeraSans-Roman-35"/>
      <use transform="translate(127.24609375 0.446875)" xlink:href="#BitstreamVeraSans-Roman-30"/>
      <use transform="translate(190.869140625 0.446875)" xlink:href="#BitstreamVeraSans-Roman-30"/>
      <use transform="translate(254.4921875 0.446875)" xlink:href="#BitstreamVeraSans-Roman-30"/>
      <use transform="translate(318.115234375 0.446875)" xlink:href="#BitstreamVeraSans-Roman-30"/>
      <use transform="translate(381.73828125 0.446875)" xlink:href="#BitstreamVeraSans-Roman-2e"/>
      <use transform="translate(413.525390625 0.446875)" xlink:href="#BitstreamVeraSans-Roman-30"/>
      <use transform="translate(477.1484375 0.446875)" xlink:href="#BitstreamVeraSans-Roman-66"/>
      <use transform="translate(512.353515625 0.446875)" xlink:href="#BitstreamVeraSans-Roman-73"/>
      <use transform="translate(565.245820312 36.684375)scale(0.7)" xlink:href="#STIXGeneral-Regular-1d7e4"/>
     </g>
    </g>
    <g id="line2d_44">
     <path d="M 377.88 57.905625 
L 394.68 57.905625 
" style="fill:none;stroke:#ff0000;stroke-linecap:square;stroke-width:1.5;"/>
    </g>
    <g id="line2d_45"/>
    <g id="text_16">
     <!-- 200000.0fs$^2$ -->
     <g transform="translate(407.88000000000005 62.10562500000003)scale(0.12 -0.12)">
      <use transform="translate(0.0 0.446875)" xlink:href="#BitstreamVeraSans-Roman-32"/>
      <use transform="translate(63.623046875 0.446875)" xlink:href="#BitstreamVeraSans-Roman-30"/>
      <use transform="translate(127.24609375 0.446875)" xlink:href="#BitstreamVeraSans-Roman-30"/>
      <use transform="translate(190.869140625 0.446875)" xlink:href="#BitstreamVeraSans-Roman-30"/>
      <use transform="translate(254.4921875 0.446875)" xlink:href="#BitstreamVeraSans-Roman-30"/>
      <use transform="translate(318.115234375 0.446875)" xlink:href="#BitstreamVeraSans-Roman-30"/>
      <use transform="translate(381.73828125 0.446875)" xlink:href="#BitstreamVeraSans-Roman-2e"/>
      <use transform="translate(413.525390625 0.446875)" xlink:href="#BitstreamVeraSans-Roman-30"/>
      <use transform="translate(477.1484375 0.446875)" xlink:href="#BitstreamVeraSans-Roman-66"/>
      <use transform="translate(512.353515625 0.446875)" xlink:href="#BitstreamVeraSans-Roman-73"/>
      <use transform="translate(565.245820312 36.684375)scale(0.7)" xlink:href="#STIXGeneral-Regular-1d7e4"/>
     </g>
    </g>
    <g id="line2d_46">
     <path d="M 377.88 72.519375 
L 394.68 72.519375 
" style="fill:none;stroke:#00bfbf;stroke-linecap:square;stroke-width:1.5;"/>
    </g>
    <g id="line2d_47"/>
    <g id="text_17">
     <!-- 150000.0fs$^2$ -->
     <g transform="translate(407.88000000000005 76.71937500000001)scale(0.12 -0.12)">
      <use transform="translate(0.0 0.446875)" xlink:href="#BitstreamVeraSans-Roman-31"/>
      <use transform="translate(63.623046875 0.446875)" xlink:href="#BitstreamVeraSans-Roman-35"/>
      <use transform="translate(127.24609375 0.446875)" xlink:href="#BitstreamVeraSans-Roman-30"/>
      <use transform="translate(190.869140625 0.446875)" xlink:href="#BitstreamVeraSans-Roman-30"/>
      <use transform="translate(254.4921875 0.446875)" xlink:href="#BitstreamVeraSans-Roman-30"/>
      <use transform="translate(318.115234375 0.446875)" xlink:href="#BitstreamVeraSans-Roman-30"/>
      <use transform="translate(381.73828125 0.446875)" xlink:href="#BitstreamVeraSans-Roman-2e"/>
      <use transform="translate(413.525390625 0.446875)" xlink:href="#BitstreamVeraSans-Roman-30"/>
      <use transform="translate(477.1484375 0.446875)" xlink:href="#BitstreamVeraSans-Roman-66"/>
      <use transform="translate(512.353515625 0.446875)" xlink:href="#BitstreamVeraSans-Roman-73"/>
      <use transform="translate(565.245820312 36.684375)scale(0.7)" xlink:href="#STIXGeneral-Regular-1d7e4"/>
     </g>
    </g>
    <g id="line2d_48">
     <path d="M 377.88 87.133125 
L 394.68 87.133125 
" style="fill:none;stroke:#bf00bf;stroke-linecap:square;stroke-width:1.5;"/>
    </g>
    <g id="line2d_49"/>
    <g id="text_18">
     <!-- 120000.0fs$^2$ -->
     <g transform="translate(407.88000000000005 91.333125)scale(0.12 -0.12)">
      <use transform="translate(0.0 0.446875)" xlink:href="#BitstreamVeraSans-Roman-31"/>
      <use transform="translate(63.623046875 0.446875)" xlink:href="#BitstreamVeraSans-Roman-32"/>
      <use transform="translate(127.24609375 0.446875)" xlink:href="#BitstreamVeraSans-Roman-30"/>
      <use transform="translate(190.869140625 0.446875)" xlink:href="#BitstreamVeraSans-Roman-30"/>
      <use transform="translate(254.4921875 0.446875)" xlink:href="#BitstreamVeraSans-Roman-30"/>
      <use transform="translate(318.115234375 0.446875)" xlink:href="#BitstreamVeraSans-Roman-30"/>
      <use transform="translate(381.73828125 0.446875)" xlink:href="#BitstreamVeraSans-Roman-2e"/>
      <use transform="translate(413.525390625 0.446875)" xlink:href="#BitstreamVeraSans-Roman-30"/>
      <use transform="translate(477.1484375 0.446875)" xlink:href="#BitstreamVeraSans-Roman-66"/>
      <use transform="translate(512.353515625 0.446875)" xlink:href="#BitstreamVeraSans-Roman-73"/>
      <use transform="translate(565.245820312 36.684375)scale(0.7)" xlink:href="#STIXGeneral-Regular-1d7e4"/>
     </g>
    </g>
    <g id="line2d_50">
     <path d="M 377.88 101.746875 
L 394.68 101.746875 
" style="fill:none;stroke:#bfbf00;stroke-linecap:square;stroke-width:1.5;"/>
    </g>
    <g id="line2d_51"/>
    <g id="text_19">
     <!-- 100000.0fs$^2$ -->
     <g transform="translate(407.88000000000005 105.94687499999998)scale(0.12 -0.12)">
      <use transform="translate(0.0 0.446875)" xlink:href="#BitstreamVeraSans-Roman-31"/>
      <use transform="translate(63.623046875 0.446875)" xlink:href="#BitstreamVeraSans-Roman-30"/>
      <use transform="translate(127.24609375 0.446875)" xlink:href="#BitstreamVeraSans-Roman-30"/>
      <use transform="translate(190.869140625 0.446875)" xlink:href="#BitstreamVeraSans-Roman-30"/>
      <use transform="translate(254.4921875 0.446875)" xlink:href="#BitstreamVeraSans-Roman-30"/>
      <use transform="translate(318.115234375 0.446875)" xlink:href="#BitstreamVeraSans-Roman-30"/>
      <use transform="translate(381.73828125 0.446875)" xlink:href="#BitstreamVeraSans-Roman-2e"/>
      <use transform="translate(413.525390625 0.446875)" xlink:href="#BitstreamVeraSans-Roman-30"/>
      <use transform="translate(477.1484375 0.446875)" xlink:href="#BitstreamVeraSans-Roman-66"/>
      <use transform="translate(512.353515625 0.446875)" xlink:href="#BitstreamVeraSans-Roman-73"/>
      <use transform="translate(565.245820312 36.684375)scale(0.7)" xlink:href="#STIXGeneral-Regular-1d7e4"/>
     </g>
    </g>
    <g id="line2d_52">
     <path d="M 377.88 116.360625 
L 394.68 116.360625 
" style="fill:none;stroke:#000000;stroke-linecap:square;stroke-width:1.5;"/>
    </g>
    <g id="line2d_53"/>
    <g id="text_20">
     <!-- 90000.0fs$^2$ -->
     <defs>
      <path d="M 10.984375 1.515625 
L 10.984375 10.5 
Q 14.703125 8.734375 18.5 7.8125 
Q 22.3125 6.890625 25.984375 6.890625 
Q 35.75 6.890625 40.890625 13.453125 
Q 46.046875 20.015625 46.78125 33.40625 
Q 43.953125 29.203125 39.59375 26.953125 
Q 35.25 24.703125 29.984375 24.703125 
Q 19.046875 24.703125 12.671875 31.3125 
Q 6.296875 37.9375 6.296875 49.421875 
Q 6.296875 60.640625 12.9375 67.421875 
Q 19.578125 74.21875 30.609375 74.21875 
Q 43.265625 74.21875 49.921875 64.515625 
Q 56.59375 54.828125 56.59375 36.375 
Q 56.59375 19.140625 48.40625 8.859375 
Q 40.234375 -1.421875 26.421875 -1.421875 
Q 22.703125 -1.421875 18.890625 -0.6875 
Q 15.09375 0.046875 10.984375 1.515625 
M 30.609375 32.421875 
Q 37.25 32.421875 41.125 36.953125 
Q 45.015625 41.5 45.015625 49.421875 
Q 45.015625 57.28125 41.125 61.84375 
Q 37.25 66.40625 30.609375 66.40625 
Q 23.96875 66.40625 20.09375 61.84375 
Q 16.21875 57.28125 16.21875 49.421875 
Q 16.21875 41.5 20.09375 36.953125 
Q 23.96875 32.421875 30.609375 32.421875 
" id="BitstreamVeraSans-Roman-39"/>
     </defs>
     <g transform="translate(407.88000000000005 120.56062500000002)scale(0.12 -0.12)">
      <use transform="translate(0.0 0.446875)" xlink:href="#BitstreamVeraSans-Roman-39"/>
      <use transform="translate(63.623046875 0.446875)" xlink:href="#BitstreamVeraSans-Roman-30"/>
      <use transform="translate(127.24609375 0.446875)" xlink:href="#BitstreamVeraSans-Roman-30"/>
      <use transform="translate(190.869140625 0.446875)" xlink:href="#BitstreamVeraSans-Roman-30"/>
      <use transform="translate(254.4921875 0.446875)" xlink:href="#BitstreamVeraSans-Roman-30"/>
      <use transform="translate(318.115234375 0.446875)" xlink:href="#BitstreamVeraSans-Roman-2e"/>
      <use transform="translate(349.90234375 0.446875)" xlink:href="#BitstreamVeraSans-Roman-30"/>
      <use transform="translate(413.525390625 0.446875)" xlink:href="#BitstreamVeraSans-Roman-66"/>
      <use transform="translate(448.73046875 0.446875)" xlink:href="#BitstreamVeraSans-Roman-73"/>
      <use transform="translate(501.622773437 36.684375)scale(0.7)" xlink:href="#STIXGeneral-Regular-1d7e4"/>
     </g>
    </g>
    <g id="line2d_54">
     <path d="M 377.88 130.974375 
L 394.68 130.974375 
" style="fill:none;stroke:#0000ff;stroke-linecap:square;stroke-width:1.5;"/>
    </g>
    <g id="line2d_55"/>
    <g id="text_21">
     <!-- 80000.0fs$^2$ -->
     <g transform="translate(407.88000000000005 135.174375)scale(0.12 -0.12)">
      <use transform="translate(0.0 0.446875)" xlink:href="#BitstreamVeraSans-Roman-38"/>
      <use transform="translate(63.623046875 0.446875)" xlink:href="#BitstreamVeraSans-Roman-30"/>
      <use transform="translate(127.24609375 0.446875)" xlink:href="#BitstreamVeraSans-Roman-30"/>
      <use transform="translate(190.869140625 0.446875)" xlink:href="#BitstreamVeraSans-Roman-30"/>
      <use transform="translate(254.4921875 0.446875)" xlink:href="#BitstreamVeraSans-Roman-30"/>
      <use transform="translate(318.115234375 0.446875)" xlink:href="#BitstreamVeraSans-Roman-2e"/>
      <use transform="translate(349.90234375 0.446875)" xlink:href="#BitstreamVeraSans-Roman-30"/>
      <use transform="translate(413.525390625 0.446875)" xlink:href="#BitstreamVeraSans-Roman-66"/>
      <use transform="translate(448.73046875 0.446875)" xlink:href="#BitstreamVeraSans-Roman-73"/>
      <use transform="translate(501.622773437 36.684375)scale(0.7)" xlink:href="#STIXGeneral-Regular-1d7e4"/>
     </g>
    </g>
    <g id="line2d_56">
     <path d="M 377.88 145.588125 
L 394.68 145.588125 
" style="fill:none;stroke:#008000;stroke-linecap:square;stroke-width:1.5;"/>
    </g>
    <g id="line2d_57"/>
    <g id="text_22">
     <!-- 70000.0fs$^2$ -->
     <defs>
      <path d="M 8.203125 72.90625 
L 55.078125 72.90625 
L 55.078125 68.703125 
L 28.609375 0 
L 18.3125 0 
L 43.21875 64.59375 
L 8.203125 64.59375 
z
" id="BitstreamVeraSans-Roman-37"/>
     </defs>
     <g transform="translate(407.88000000000005 149.788125)scale(0.12 -0.12)">
      <use transform="translate(0.0 0.446875)" xlink:href="#BitstreamVeraSans-Roman-37"/>
      <use transform="translate(63.623046875 0.446875)" xlink:href="#BitstreamVeraSans-Roman-30"/>
      <use transform="translate(127.24609375 0.446875)" xlink:href="#BitstreamVeraSans-Roman-30"/>
      <use transform="translate(190.869140625 0.446875)" xlink:href="#BitstreamVeraSans-Roman-30"/>
      <use transform="translate(254.4921875 0.446875)" xlink:href="#BitstreamVeraSans-Roman-30"/>
      <use transform="translate(318.115234375 0.446875)" xlink:href="#BitstreamVeraSans-Roman-2e"/>
      <use transform="translate(349.90234375 0.446875)" xlink:href="#BitstreamVeraSans-Roman-30"/>
      <use transform="translate(413.525390625 0.446875)" xlink:href="#BitstreamVeraSans-Roman-66"/>
      <use transform="translate(448.73046875 0.446875)" xlink:href="#BitstreamVeraSans-Roman-73"/>
      <use transform="translate(501.622773437 36.684375)scale(0.7)" xlink:href="#STIXGeneral-Regular-1d7e4"/>
     </g>
    </g>
    <g id="line2d_58">
     <path d="M 377.88 160.201875 
L 394.68 160.201875 
" style="fill:none;stroke:#ff0000;stroke-linecap:square;stroke-width:1.5;"/>
    </g>
    <g id="line2d_59"/>
    <g id="text_23">
     <!-- 60000.0fs$^2$ -->
     <g transform="translate(407.88000000000005 164.401875)scale(0.12 -0.12)">
      <use transform="translate(0.0 0.446875)" xlink:href="#BitstreamVeraSans-Roman-36"/>
      <use transform="translate(63.623046875 0.446875)" xlink:href="#BitstreamVeraSans-Roman-30"/>
      <use transform="translate(127.24609375 0.446875)" xlink:href="#BitstreamVeraSans-Roman-30"/>
      <use transform="translate(190.869140625 0.446875)" xlink:href="#BitstreamVeraSans-Roman-30"/>
      <use transform="translate(254.4921875 0.446875)" xlink:href="#BitstreamVeraSans-Roman-30"/>
      <use transform="translate(318.115234375 0.446875)" xlink:href="#BitstreamVeraSans-Roman-2e"/>
      <use transform="translate(349.90234375 0.446875)" xlink:href="#BitstreamVeraSans-Roman-30"/>
      <use transform="translate(413.525390625 0.446875)" xlink:href="#BitstreamVeraSans-Roman-66"/>
      <use transform="translate(448.73046875 0.446875)" xlink:href="#BitstreamVeraSans-Roman-73"/>
      <use transform="translate(501.622773437 36.684375)scale(0.7)" xlink:href="#STIXGeneral-Regular-1d7e4"/>
     </g>
    </g>
    <g id="line2d_60">
     <path d="M 377.88 174.815625 
L 394.68 174.815625 
" style="fill:none;stroke:#00bfbf;stroke-linecap:square;stroke-width:1.5;"/>
    </g>
    <g id="line2d_61"/>
    <g id="text_24">
     <!-- 50000.0fs$^2$ -->
     <g transform="translate(407.88000000000005 179.015625)scale(0.12 -0.12)">
      <use transform="translate(0.0 0.446875)" xlink:href="#BitstreamVeraSans-Roman-35"/>
      <use transform="translate(63.623046875 0.446875)" xlink:href="#BitstreamVeraSans-Roman-30"/>
      <use transform="translate(127.24609375 0.446875)" xlink:href="#BitstreamVeraSans-Roman-30"/>
      <use transform="translate(190.869140625 0.446875)" xlink:href="#BitstreamVeraSans-Roman-30"/>
      <use transform="translate(254.4921875 0.446875)" xlink:href="#BitstreamVeraSans-Roman-30"/>
      <use transform="translate(318.115234375 0.446875)" xlink:href="#BitstreamVeraSans-Roman-2e"/>
      <use transform="translate(349.90234375 0.446875)" xlink:href="#BitstreamVeraSans-Roman-30"/>
      <use transform="translate(413.525390625 0.446875)" xlink:href="#BitstreamVeraSans-Roman-66"/>
      <use transform="translate(448.73046875 0.446875)" xlink:href="#BitstreamVeraSans-Roman-73"/>
      <use transform="translate(501.622773437 36.684375)scale(0.7)" xlink:href="#STIXGeneral-Regular-1d7e4"/>
     </g>
    </g>
    <g id="line2d_62">
     <path d="M 377.88 189.429375 
L 394.68 189.429375 
" style="fill:none;stroke:#bf00bf;stroke-linecap:square;stroke-width:1.5;"/>
    </g>
    <g id="line2d_63"/>
    <g id="text_25">
     <!-- 40000.0fs$^2$ -->
     <g transform="translate(407.88000000000005 193.629375)scale(0.12 -0.12)">
      <use transform="translate(0.0 0.446875)" xlink:href="#BitstreamVeraSans-Roman-34"/>
      <use transform="translate(63.623046875 0.446875)" xlink:href="#BitstreamVeraSans-Roman-30"/>
      <use transform="translate(127.24609375 0.446875)" xlink:href="#BitstreamVeraSans-Roman-30"/>
      <use transform="translate(190.869140625 0.446875)" xlink:href="#BitstreamVeraSans-Roman-30"/>
      <use transform="translate(254.4921875 0.446875)" xlink:href="#BitstreamVeraSans-Roman-30"/>
      <use transform="translate(318.115234375 0.446875)" xlink:href="#BitstreamVeraSans-Roman-2e"/>
      <use transform="translate(349.90234375 0.446875)" xlink:href="#BitstreamVeraSans-Roman-30"/>
      <use transform="translate(413.525390625 0.446875)" xlink:href="#BitstreamVeraSans-Roman-66"/>
      <use transform="translate(448.73046875 0.446875)" xlink:href="#BitstreamVeraSans-Roman-73"/>
      <use transform="translate(501.622773437 36.684375)scale(0.7)" xlink:href="#STIXGeneral-Regular-1d7e4"/>
     </g>
    </g>
    <g id="line2d_64">
     <path d="M 377.88 204.043125 
L 394.68 204.043125 
" style="fill:none;stroke:#bfbf00;stroke-linecap:square;stroke-width:1.5;"/>
    </g>
    <g id="line2d_65"/>
    <g id="text_26">
     <!-- 30000.0fs$^2$ -->
     <g transform="translate(407.88000000000005 208.24312500000002)scale(0.12 -0.12)">
      <use transform="translate(0.0 0.446875)" xlink:href="#BitstreamVeraSans-Roman-33"/>
      <use transform="translate(63.623046875 0.446875)" xlink:href="#BitstreamVeraSans-Roman-30"/>
      <use transform="translate(127.24609375 0.446875)" xlink:href="#BitstreamVeraSans-Roman-30"/>
      <use transform="translate(190.869140625 0.446875)" xlink:href="#BitstreamVeraSans-Roman-30"/>
      <use transform="translate(254.4921875 0.446875)" xlink:href="#BitstreamVeraSans-Roman-30"/>
      <use transform="translate(318.115234375 0.446875)" xlink:href="#BitstreamVeraSans-Roman-2e"/>
      <use transform="translate(349.90234375 0.446875)" xlink:href="#BitstreamVeraSans-Roman-30"/>
      <use transform="translate(413.525390625 0.446875)" xlink:href="#BitstreamVeraSans-Roman-66"/>
      <use transform="translate(448.73046875 0.446875)" xlink:href="#BitstreamVeraSans-Roman-73"/>
      <use transform="translate(501.622773437 36.684375)scale(0.7)" xlink:href="#STIXGeneral-Regular-1d7e4"/>
     </g>
    </g>
    <g id="line2d_66">
     <path d="M 377.88 218.656875 
L 394.68 218.656875 
" style="fill:none;stroke:#000000;stroke-linecap:square;stroke-width:1.5;"/>
    </g>
    <g id="line2d_67"/>
    <g id="text_27">
     <!-- 20000.0fs$^2$ -->
     <g transform="translate(407.88000000000005 222.85687500000003)scale(0.12 -0.12)">
      <use transform="translate(0.0 0.446875)" xlink:href="#BitstreamVeraSans-Roman-32"/>
      <use transform="translate(63.623046875 0.446875)" xlink:href="#BitstreamVeraSans-Roman-30"/>
      <use transform="translate(127.24609375 0.446875)" xlink:href="#BitstreamVeraSans-Roman-30"/>
      <use transform="translate(190.869140625 0.446875)" xlink:href="#BitstreamVeraSans-Roman-30"/>
      <use transform="translate(254.4921875 0.446875)" xlink:href="#BitstreamVeraSans-Roman-30"/>
      <use transform="translate(318.115234375 0.446875)" xlink:href="#BitstreamVeraSans-Roman-2e"/>
      <use transform="translate(349.90234375 0.446875)" xlink:href="#BitstreamVeraSans-Roman-30"/>
      <use transform="translate(413.525390625 0.446875)" xlink:href="#BitstreamVeraSans-Roman-66"/>
      <use transform="translate(448.73046875 0.446875)" xlink:href="#BitstreamVeraSans-Roman-73"/>
      <use transform="translate(501.622773437 36.684375)scale(0.7)" xlink:href="#STIXGeneral-Regular-1d7e4"/>
     </g>
    </g>
    <g id="line2d_68">
     <path d="M 377.88 233.270625 
L 394.68 233.270625 
" style="fill:none;stroke:#0000ff;stroke-linecap:square;stroke-width:1.5;"/>
    </g>
    <g id="line2d_69"/>
    <g id="text_28">
     <!-- 10000.0fs$^2$ -->
     <g transform="translate(407.88000000000005 237.47062500000004)scale(0.12 -0.12)">
      <use transform="translate(0.0 0.446875)" xlink:href="#BitstreamVeraSans-Roman-31"/>
      <use transform="translate(63.623046875 0.446875)" xlink:href="#BitstreamVeraSans-Roman-30"/>
      <use transform="translate(127.24609375 0.446875)" xlink:href="#BitstreamVeraSans-Roman-30"/>
      <use transform="translate(190.869140625 0.446875)" xlink:href="#BitstreamVeraSans-Roman-30"/>
      <use transform="translate(254.4921875 0.446875)" xlink:href="#BitstreamVeraSans-Roman-30"/>
      <use transform="translate(318.115234375 0.446875)" xlink:href="#BitstreamVeraSans-Roman-2e"/>
      <use transform="translate(349.90234375 0.446875)" xlink:href="#BitstreamVeraSans-Roman-30"/>
      <use transform="translate(413.525390625 0.446875)" xlink:href="#BitstreamVeraSans-Roman-66"/>
      <use transform="translate(448.73046875 0.446875)" xlink:href="#BitstreamVeraSans-Roman-73"/>
      <use transform="translate(501.622773437 36.684375)scale(0.7)" xlink:href="#STIXGeneral-Regular-1d7e4"/>
     </g>
    </g>
    <g id="line2d_70">
     <path d="M 377.88 247.884375 
L 394.68 247.884375 
" style="fill:none;stroke:#008000;stroke-linecap:square;stroke-width:1.5;"/>
    </g>
    <g id="line2d_71"/>
    <g id="text_29">
     <!-- 0.0fs$^2$ -->
     <g transform="translate(407.88000000000005 252.08437500000005)scale(0.12 -0.12)">
      <use transform="translate(0.0 0.446875)" xlink:href="#BitstreamVeraSans-Roman-30"/>
      <use transform="translate(63.623046875 0.446875)" xlink:href="#BitstreamVeraSans-Roman-2e"/>
      <use transform="translate(95.41015625 0.446875)" xlink:href="#BitstreamVeraSans-Roman-30"/>
      <use transform="translate(159.033203125 0.446875)" xlink:href="#BitstreamVeraSans-Roman-66"/>
      <use transform="translate(194.23828125 0.446875)" xlink:href="#BitstreamVeraSans-Roman-73"/>
      <use transform="translate(247.130585938 36.684375)scale(0.7)" xlink:href="#STIXGeneral-Regular-1d7e4"/>
     </g>
    </g>
    <g id="line2d_72">
     <path d="M 377.88 262.498125 
L 394.68 262.498125 
" style="fill:none;stroke:#ff0000;stroke-dasharray:6.000000,6.000000;stroke-dashoffset:0.0;stroke-width:3.0;"/>
    </g>
    <g id="line2d_73"/>
    <g id="text_30">
     <!-- laser -->
     <defs>
      <path d="M 41.109375 46.296875 
Q 39.59375 47.171875 37.8125 47.578125 
Q 36.03125 48 33.890625 48 
Q 26.265625 48 22.1875 43.046875 
Q 18.109375 38.09375 18.109375 28.8125 
L 18.109375 0 
L 9.078125 0 
L 9.078125 54.6875 
L 18.109375 54.6875 
L 18.109375 46.1875 
Q 20.953125 51.171875 25.484375 53.578125 
Q 30.03125 56 36.53125 56 
Q 37.453125 56 38.578125 55.875 
Q 39.703125 55.765625 41.0625 55.515625 
z
" id="BitstreamVeraSans-Roman-72"/>
      <path d="M 9.421875 75.984375 
L 18.40625 75.984375 
L 18.40625 0 
L 9.421875 0 
z
" id="BitstreamVeraSans-Roman-6c"/>
     </defs>
     <g transform="translate(407.88000000000005 266.69812500000006)scale(0.12 -0.12)">
      <use xlink:href="#BitstreamVeraSans-Roman-6c"/>
      <use x="27.783203125" xlink:href="#BitstreamVeraSans-Roman-61"/>
      <use x="89.0625" xlink:href="#BitstreamVeraSans-Roman-73"/>
      <use x="141.162109375" xlink:href="#BitstreamVeraSans-Roman-65"/>
      <use x="202.685546875" xlink:href="#BitstreamVeraSans-Roman-72"/>
     </g>
    </g>
   </g>
  </g>
 </g>
 <defs>
  <clipPath id="pc9c0d7b667">
   <rect height="313.38" width="431.95500000000004" x="59.085" y="12.960000000000036"/>
  </clipPath>
 </defs>
</svg>
