<?xml version="1.0" encoding="utf-8" standalone="no"?>
<!DOCTYPE svg PUBLIC "-//W3C//DTD SVG 1.1//EN"
  "http://www.w3.org/Graphics/SVG/1.1/DTD/svg11.dtd">
<!-- Created with matplotlib (http://matplotlib.org/) -->
<svg height="864pt" version="1.1" viewBox="0 0 216 864" width="216pt" xmlns="http://www.w3.org/2000/svg" xmlns:xlink="http://www.w3.org/1999/xlink">
 <defs>
  <style type="text/css">
*{stroke-linecap:butt;stroke-linejoin:round;}
  </style>
 </defs>
 <g id="figure_1">
  <g id="patch_1">
   <path d="
M0 864.9
L216 864.9
L216 0
L0 0
z
" style="fill:#ffffff;"/>
  </g>
  <g id="axes_1">
   <g id="patch_2">
    <path d="
M27 205.787
L194.4 205.787
L194.4 86.49
L27 86.49
z
" style="fill:#ffffff;"/>
   </g>
   <g id="line2d_1">
    <path clip-path="url(#p221d5070c3)" d="
M32.58 193.413
L38.16 186.354
L43.74 175.359
L49.32 161.505
L54.9 146.148
L60.48 130.791
L66.06 116.937
L71.64 105.943
L77.22 98.8839
L82.8 96.452
L88.38 98.8849
L93.96 105.944
L99.54 116.939
L105.12 130.794
L110.7 146.151
L116.28 161.508
L121.86 175.362
L127.44 186.356
L133.02 193.414
L138.6 195.845
L144.18 193.411
L149.76 186.351
L155.34 175.355
L160.92 161.5
L166.5 146.141
L172.08 130.783
L177.66 116.928
L183.24 105.933
L188.82 98.875
L194.4 96.4434" style="fill:none;stroke:#0000ff;stroke-linecap:square;"/>
   </g>
   <g id="line2d_2">
    <path clip-path="url(#p221d5070c3)" d="
M32.58 195.845
L38.16 195.845
L43.74 195.845
L49.32 195.845
L54.9 195.845
L60.48 195.845
L66.06 195.845
L71.64 195.845
L77.22 195.845
L82.8 195.845
L88.38 195.845
L93.96 195.845
L99.54 195.845
L105.12 195.845
L110.7 195.845
L116.28 195.845
L121.86 195.845
L127.44 195.845
L133.02 195.845
L138.6 195.845
L144.18 195.845
L149.76 195.845
L155.34 195.845
L160.92 195.845
L166.5 195.845
L172.08 195.845
L177.66 195.845
L183.24 195.845
L188.82 195.845
L194.4 195.845" style="fill:none;stroke:#008000;stroke-linecap:square;"/>
   </g>
   <g id="line2d_3">
    <path clip-path="url(#p221d5070c3)" d="
M32.58 193.413
L38.16 186.354
L43.74 175.359
L49.32 161.505
L54.9 146.148
L60.48 130.791
L66.06 116.937
L71.64 105.943
L77.22 98.8839
L82.8 96.452
L88.38 98.8849
L93.96 105.944
L99.54 116.939
L105.12 130.794
L110.7 146.151
L116.28 161.508
L121.86 175.362
L127.44 186.356
L133.02 193.414
L138.6 195.845
L144.18 193.411
L149.76 186.351
L155.34 175.355
L160.92 161.5
L166.5 146.141
L172.08 130.783
L177.66 116.928
L183.24 105.933
L188.82 98.875
L194.4 96.4434" style="fill:none;stroke:#ff0000;stroke-linecap:square;"/>
   </g>
   <g id="patch_3">
    <path d="
M27 86.49
L194.4 86.49" style="fill:none;stroke:#000000;stroke-linecap:square;stroke-linejoin:miter;"/>
   </g>
   <g id="patch_4">
    <path d="
M194.4 205.787
L194.4 86.49" style="fill:none;stroke:#000000;stroke-linecap:square;stroke-linejoin:miter;"/>
   </g>
   <g id="patch_5">
    <path d="
M27 205.787
L194.4 205.787" style="fill:none;stroke:#000000;stroke-linecap:square;stroke-linejoin:miter;"/>
   </g>
   <g id="patch_6">
    <path d="
M27 205.787
L27 86.49" style="fill:none;stroke:#000000;stroke-linecap:square;stroke-linejoin:miter;"/>
   </g>
   <g id="matplotlib.axis_1">
    <g id="xtick_1">
     <g id="line2d_4">
      <defs>
       <path d="
M0 0
L0 -4" id="m93b0483c22" style="stroke:#000000;stroke-width:0.5;"/>
      </defs>
      <g>
       <use style="stroke:#000000;stroke-width:0.5;" x="27.0" xlink:href="#m93b0483c22" y="205.786551724"/>
      </g>
     </g>
     <g id="line2d_5">
      <defs>
       <path d="
M0 0
L0 4" id="m741efc42ff" style="stroke:#000000;stroke-width:0.5;"/>
      </defs>
      <g>
       <use style="stroke:#000000;stroke-width:0.5;" x="27.0" xlink:href="#m741efc42ff" y="86.49"/>
      </g>
     </g>
     <g id="text_1">
      <!-- 0 -->
      <defs>
       <path d="
M31.7812 66.4062
Q24.1719 66.4062 20.3281 58.9062
Q16.5 51.4219 16.5 36.375
Q16.5 21.3906 20.3281 13.8906
Q24.1719 6.39062 31.7812 6.39062
Q39.4531 6.39062 43.2812 13.8906
Q47.125 21.3906 47.125 36.375
Q47.125 51.4219 43.2812 58.9062
Q39.4531 66.4062 31.7812 66.4062
M31.7812 74.2188
Q44.0469 74.2188 50.5156 64.5156
Q56.9844 54.8281 56.9844 36.375
Q56.9844 17.9688 50.5156 8.26562
Q44.0469 -1.42188 31.7812 -1.42188
Q19.5312 -1.42188 13.0625 8.26562
Q6.59375 17.9688 6.59375 36.375
Q6.59375 54.8281 13.0625 64.5156
Q19.5312 74.2188 31.7812 74.2188" id="BitstreamVeraSans-Roman-30"/>
      </defs>
      <g transform="translate(23.9765625 218.904676724)scale(0.12 -0.12)">
       <use xlink:href="#BitstreamVeraSans-Roman-30"/>
      </g>
     </g>
    </g>
    <g id="xtick_2">
     <g id="line2d_6">
      <g>
       <use style="stroke:#000000;stroke-width:0.5;" x="82.8" xlink:href="#m93b0483c22" y="205.786551724"/>
      </g>
     </g>
     <g id="line2d_7">
      <g>
       <use style="stroke:#000000;stroke-width:0.5;" x="82.8" xlink:href="#m741efc42ff" y="86.49"/>
      </g>
     </g>
     <g id="text_2">
      <!-- 1 -->
      <defs>
       <path d="
M12.4062 8.29688
L28.5156 8.29688
L28.5156 63.9219
L10.9844 60.4062
L10.9844 69.3906
L28.4219 72.9062
L38.2812 72.9062
L38.2812 8.29688
L54.3906 8.29688
L54.3906 0
L12.4062 0
z
" id="BitstreamVeraSans-Roman-31"/>
      </defs>
      <g transform="translate(80.195625 218.904676724)scale(0.12 -0.12)">
       <use xlink:href="#BitstreamVeraSans-Roman-31"/>
      </g>
     </g>
    </g>
    <g id="xtick_3">
     <g id="line2d_8">
      <g>
       <use style="stroke:#000000;stroke-width:0.5;" x="138.6" xlink:href="#m93b0483c22" y="205.786551724"/>
      </g>
     </g>
     <g id="line2d_9">
      <g>
       <use style="stroke:#000000;stroke-width:0.5;" x="138.6" xlink:href="#m741efc42ff" y="86.49"/>
      </g>
     </g>
     <g id="text_3">
      <!-- 2 -->
      <defs>
       <path d="
M19.1875 8.29688
L53.6094 8.29688
L53.6094 0
L7.32812 0
L7.32812 8.29688
Q12.9375 14.1094 22.625 23.8906
Q32.3281 33.6875 34.8125 36.5312
Q39.5469 41.8438 41.4219 45.5312
Q43.3125 49.2188 43.3125 52.7812
Q43.3125 58.5938 39.2344 62.25
Q35.1562 65.9219 28.6094 65.9219
Q23.9688 65.9219 18.8125 64.3125
Q13.6719 62.7031 7.8125 59.4219
L7.8125 69.3906
Q13.7656 71.7812 18.9375 73
Q24.125 74.2188 28.4219 74.2188
Q39.75 74.2188 46.4844 68.5469
Q53.2188 62.8906 53.2188 53.4219
Q53.2188 48.9219 51.5312 44.8906
Q49.8594 40.875 45.4062 35.4062
Q44.1875 33.9844 37.6406 27.2188
Q31.1094 20.4531 19.1875 8.29688" id="BitstreamVeraSans-Roman-32"/>
      </defs>
      <g transform="translate(135.823125 218.904676724)scale(0.12 -0.12)">
       <use xlink:href="#BitstreamVeraSans-Roman-32"/>
      </g>
     </g>
    </g>
    <g id="xtick_4">
     <g id="line2d_10">
      <g>
       <use style="stroke:#000000;stroke-width:0.5;" x="194.4" xlink:href="#m93b0483c22" y="205.786551724"/>
      </g>
     </g>
     <g id="line2d_11">
      <g>
       <use style="stroke:#000000;stroke-width:0.5;" x="194.4" xlink:href="#m741efc42ff" y="86.49"/>
      </g>
     </g>
     <g id="text_4">
      <!-- 3 -->
      <defs>
       <path d="
M40.5781 39.3125
Q47.6562 37.7969 51.625 33
Q55.6094 28.2188 55.6094 21.1875
Q55.6094 10.4062 48.1875 4.48438
Q40.7656 -1.42188 27.0938 -1.42188
Q22.5156 -1.42188 17.6562 -0.515625
Q12.7969 0.390625 7.625 2.20312
L7.625 11.7188
Q11.7188 9.32812 16.5938 8.10938
Q21.4844 6.89062 26.8125 6.89062
Q36.0781 6.89062 40.9375 10.5469
Q45.7969 14.2031 45.7969 21.1875
Q45.7969 27.6406 41.2812 31.2656
Q36.7656 34.9062 28.7188 34.9062
L20.2188 34.9062
L20.2188 43.0156
L29.1094 43.0156
Q36.375 43.0156 40.2344 45.9219
Q44.0938 48.8281 44.0938 54.2969
Q44.0938 59.9062 40.1094 62.9062
Q36.1406 65.9219 28.7188 65.9219
Q24.6562 65.9219 20.0156 65.0312
Q15.375 64.1562 9.8125 62.3125
L9.8125 71.0938
Q15.4375 72.6562 20.3438 73.4375
Q25.25 74.2188 29.5938 74.2188
Q40.8281 74.2188 47.3594 69.1094
Q53.9062 64.0156 53.9062 55.3281
Q53.9062 49.2656 50.4375 45.0938
Q46.9688 40.9219 40.5781 39.3125" id="BitstreamVeraSans-Roman-33"/>
      </defs>
      <g transform="translate(191.5209375 218.904676724)scale(0.12 -0.12)">
       <use xlink:href="#BitstreamVeraSans-Roman-33"/>
      </g>
     </g>
    </g>
    <g id="text_5">
     <!-- Pulse Area ($\pi$ Units) -->
     <defs>
      <path id="BitstreamVeraSans-Roman-20"/>
      <path d="
M54.8906 33.0156
L54.8906 0
L45.9062 0
L45.9062 32.7188
Q45.9062 40.4844 42.875 44.3281
Q39.8438 48.1875 33.7969 48.1875
Q26.5156 48.1875 22.3125 43.5469
Q18.1094 38.9219 18.1094 30.9062
L18.1094 0
L9.07812 0
L9.07812 54.6875
L18.1094 54.6875
L18.1094 46.1875
Q21.3438 51.125 25.7031 53.5625
Q30.0781 56 35.7969 56
Q45.2188 56 50.0469 50.1719
Q54.8906 44.3438 54.8906 33.0156" id="BitstreamVeraSans-Roman-6e"/>
      <path d="
M34.2812 27.4844
Q23.3906 27.4844 19.1875 25
Q14.9844 22.5156 14.9844 16.5
Q14.9844 11.7188 18.1406 8.90625
Q21.2969 6.10938 26.7031 6.10938
Q34.1875 6.10938 38.7031 11.4062
Q43.2188 16.7031 43.2188 25.4844
L43.2188 27.4844
z

M52.2031 31.2031
L52.2031 0
L43.2188 0
L43.2188 8.29688
Q40.1406 3.32812 35.5469 0.953125
Q30.9531 -1.42188 24.3125 -1.42188
Q15.9219 -1.42188 10.9531 3.29688
Q6 8.01562 6 15.9219
Q6 25.1406 12.1719 29.8281
Q18.3594 34.5156 30.6094 34.5156
L43.2188 34.5156
L43.2188 35.4062
Q43.2188 41.6094 39.1406 45
Q35.0625 48.3906 27.6875 48.3906
Q23 48.3906 18.5469 47.2656
Q14.1094 46.1406 10.0156 43.8906
L10.0156 52.2031
Q14.9375 54.1094 19.5781 55.0469
Q24.2188 56 28.6094 56
Q40.4844 56 46.3438 49.8438
Q52.2031 43.7031 52.2031 31.2031" id="BitstreamVeraSans-Roman-61"/>
      <path d="
M9.42188 75.9844
L18.4062 75.9844
L18.4062 0
L9.42188 0
z
" id="BitstreamVeraSans-Roman-6c"/>
      <path d="
M19.6719 64.7969
L19.6719 37.4062
L32.0781 37.4062
Q38.9688 37.4062 42.7188 40.9688
Q46.4844 44.5312 46.4844 51.125
Q46.4844 57.6719 42.7188 61.2344
Q38.9688 64.7969 32.0781 64.7969
z

M9.8125 72.9062
L32.0781 72.9062
Q44.3438 72.9062 50.6094 67.3594
Q56.8906 61.8125 56.8906 51.125
Q56.8906 40.3281 50.6094 34.8125
Q44.3438 29.2969 32.0781 29.2969
L19.6719 29.2969
L19.6719 0
L9.8125 0
z
" id="BitstreamVeraSans-Roman-50"/>
      <path d="
M8.01562 75.875
L15.8281 75.875
Q23.1406 64.3594 26.7812 53.3125
Q30.4219 42.2812 30.4219 31.3906
Q30.4219 20.4531 26.7812 9.375
Q23.1406 -1.70312 15.8281 -13.1875
L8.01562 -13.1875
Q14.5 -2 17.7031 9.0625
Q20.9062 20.125 20.9062 31.3906
Q20.9062 42.6719 17.7031 53.6562
Q14.5 64.6562 8.01562 75.875" id="BitstreamVeraSans-Roman-29"/>
      <path d="
M9.42188 54.6875
L18.4062 54.6875
L18.4062 0
L9.42188 0
z

M9.42188 75.9844
L18.4062 75.9844
L18.4062 64.5938
L9.42188 64.5938
z
" id="BitstreamVeraSans-Roman-69"/>
      <path d="
M10.1094 1.70312
Q10.1094 2.25 10.5 3.32812
Q13.2812 9.125 15.6875 14.7188
Q18.1094 20.3125 20.0312 25.6094
Q21.9688 30.9062 23.5781 36.9219
L17.1875 36.9219
Q13.5312 36.9219 10.3438 34.625
Q7.17188 32.3281 5.07812 28.8125
Q4.89062 28.4219 4.5 28.4219
L3.32812 28.4219
Q2.39062 28.4219 2.39062 29.3906
Q2.39062 29.5938 2.59375 29.9844
Q5.85938 35.5469 9.59375 39.3281
Q13.3281 43.1094 18.0156 43.1094
L54.2969 43.1094
Q55.3281 43.1094 56.0469 42.4219
Q56.7812 41.75 56.7812 40.5781
Q56.7812 39.1094 55.7344 38.0156
Q54.6875 36.9219 53.2188 36.9219
L40.4844 36.9219
Q38.875 29.0469 38.7188 21.5781
Q38.7188 11.9688 42.0938 4.20312
Q42.3906 3.60938 42.3906 2.98438
Q42.3906 1.90625 41.75 0.96875
Q41.1094 0.046875 40.1094 -0.53125
Q39.1094 -1.125 37.9844 -1.125
Q35.3594 -1.125 34.375 3.17188
Q33.4062 7.46875 33.4062 11.5312
Q33.4062 17.2344 34.375 22.5312
Q35.3594 27.8281 37.5 36.9219
L26.6094 36.9219
Q18.7031 4.89062 17.0938 1.60938
Q15.6719 -1.125 13.1875 -1.125
Q11.9688 -1.125 11.0312 -0.3125
Q10.1094 0.484375 10.1094 1.70312" id="Cmmi10-bc"/>
      <path d="
M34.1875 63.1875
L20.7969 26.9062
L47.6094 26.9062
z

M28.6094 72.9062
L39.7969 72.9062
L67.5781 0
L57.3281 0
L50.6875 18.7031
L17.8281 18.7031
L11.1875 0
L0.78125 0
z
" id="BitstreamVeraSans-Roman-41"/>
      <path d="
M31 75.875
Q24.4688 64.6562 21.2812 53.6562
Q18.1094 42.6719 18.1094 31.3906
Q18.1094 20.125 21.3125 9.0625
Q24.5156 -2 31 -13.1875
L23.1875 -13.1875
Q15.875 -1.70312 12.2344 9.375
Q8.59375 20.4531 8.59375 31.3906
Q8.59375 42.2812 12.2031 53.3125
Q15.8281 64.3594 23.1875 75.875
z
" id="BitstreamVeraSans-Roman-28"/>
      <path d="
M56.2031 29.5938
L56.2031 25.2031
L14.8906 25.2031
Q15.4844 15.9219 20.4844 11.0625
Q25.4844 6.20312 34.4219 6.20312
Q39.5938 6.20312 44.4531 7.46875
Q49.3125 8.73438 54.1094 11.2812
L54.1094 2.78125
Q49.2656 0.734375 44.1875 -0.34375
Q39.1094 -1.42188 33.8906 -1.42188
Q20.7969 -1.42188 13.1562 6.1875
Q5.51562 13.8125 5.51562 26.8125
Q5.51562 40.2344 12.7656 48.1094
Q20.0156 56 32.3281 56
Q43.3594 56 49.7812 48.8906
Q56.2031 41.7969 56.2031 29.5938
M47.2188 32.2344
Q47.125 39.5938 43.0938 43.9844
Q39.0625 48.3906 32.4219 48.3906
Q24.9062 48.3906 20.3906 44.1406
Q15.875 39.8906 15.1875 32.1719
z
" id="BitstreamVeraSans-Roman-65"/>
      <path d="
M18.3125 70.2188
L18.3125 54.6875
L36.8125 54.6875
L36.8125 47.7031
L18.3125 47.7031
L18.3125 18.0156
Q18.3125 11.3281 20.1406 9.42188
Q21.9688 7.51562 27.5938 7.51562
L36.8125 7.51562
L36.8125 0
L27.5938 0
Q17.1875 0 13.2344 3.875
Q9.28125 7.76562 9.28125 18.0156
L9.28125 47.7031
L2.6875 47.7031
L2.6875 54.6875
L9.28125 54.6875
L9.28125 70.2188
z
" id="BitstreamVeraSans-Roman-74"/>
      <path d="
M8.5 21.5781
L8.5 54.6875
L17.4844 54.6875
L17.4844 21.9219
Q17.4844 14.1562 20.5 10.2656
Q23.5312 6.39062 29.5938 6.39062
Q36.8594 6.39062 41.0781 11.0312
Q45.3125 15.6719 45.3125 23.6875
L45.3125 54.6875
L54.2969 54.6875
L54.2969 0
L45.3125 0
L45.3125 8.40625
Q42.0469 3.42188 37.7188 1
Q33.4062 -1.42188 27.6875 -1.42188
Q18.2656 -1.42188 13.375 4.4375
Q8.5 10.2969 8.5 21.5781" id="BitstreamVeraSans-Roman-75"/>
      <path d="
M41.1094 46.2969
Q39.5938 47.1719 37.8125 47.5781
Q36.0312 48 33.8906 48
Q26.2656 48 22.1875 43.0469
Q18.1094 38.0938 18.1094 28.8125
L18.1094 0
L9.07812 0
L9.07812 54.6875
L18.1094 54.6875
L18.1094 46.1875
Q20.9531 51.1719 25.4844 53.5781
Q30.0312 56 36.5312 56
Q37.4531 56 38.5781 55.875
Q39.7031 55.7656 41.0625 55.5156
z
" id="BitstreamVeraSans-Roman-72"/>
      <path d="
M44.2812 53.0781
L44.2812 44.5781
Q40.4844 46.5312 36.375 47.5
Q32.2812 48.4844 27.875 48.4844
Q21.1875 48.4844 17.8438 46.4375
Q14.5 44.3906 14.5 40.2812
Q14.5 37.1562 16.8906 35.375
Q19.2812 33.5938 26.5156 31.9844
L29.5938 31.2969
Q39.1562 29.25 43.1875 25.5156
Q47.2188 21.7812 47.2188 15.0938
Q47.2188 7.46875 41.1875 3.01562
Q35.1562 -1.42188 24.6094 -1.42188
Q20.2188 -1.42188 15.4531 -0.5625
Q10.6875 0.296875 5.42188 2
L5.42188 11.2812
Q10.4062 8.6875 15.2344 7.39062
Q20.0625 6.10938 24.8125 6.10938
Q31.1562 6.10938 34.5625 8.28125
Q37.9844 10.4531 37.9844 14.4062
Q37.9844 18.0625 35.5156 20.0156
Q33.0625 21.9688 24.7031 23.7812
L21.5781 24.5156
Q13.2344 26.2656 9.51562 29.9062
Q5.8125 33.5469 5.8125 39.8906
Q5.8125 47.6094 11.2812 51.7969
Q16.75 56 26.8125 56
Q31.7812 56 36.1719 55.2656
Q40.5781 54.5469 44.2812 53.0781" id="BitstreamVeraSans-Roman-73"/>
      <path d="
M8.6875 72.9062
L18.6094 72.9062
L18.6094 28.6094
Q18.6094 16.8906 22.8438 11.7344
Q27.0938 6.59375 36.625 6.59375
Q46.0938 6.59375 50.3438 11.7344
Q54.5938 16.8906 54.5938 28.6094
L54.5938 72.9062
L64.5 72.9062
L64.5 27.3906
Q64.5 13.1406 57.4375 5.85938
Q50.3906 -1.42188 36.625 -1.42188
Q22.7969 -1.42188 15.7344 5.85938
Q8.6875 13.1406 8.6875 27.3906
z
" id="BitstreamVeraSans-Roman-55"/>
     </defs>
     <g transform="translate(51.66 235.518426724)scale(0.12 -0.12)">
      <use transform="translate(0.0 0.015625)" xlink:href="#BitstreamVeraSans-Roman-50"/>
      <use transform="translate(60.302734375 0.015625)" xlink:href="#BitstreamVeraSans-Roman-75"/>
      <use transform="translate(123.681640625 0.015625)" xlink:href="#BitstreamVeraSans-Roman-6c"/>
      <use transform="translate(151.46484375 0.015625)" xlink:href="#BitstreamVeraSans-Roman-73"/>
      <use transform="translate(203.564453125 0.015625)" xlink:href="#BitstreamVeraSans-Roman-65"/>
      <use transform="translate(265.087890625 0.015625)" xlink:href="#BitstreamVeraSans-Roman-20"/>
      <use transform="translate(296.875 0.015625)" xlink:href="#BitstreamVeraSans-Roman-41"/>
      <use transform="translate(365.283203125 0.015625)" xlink:href="#BitstreamVeraSans-Roman-72"/>
      <use transform="translate(406.396484375 0.015625)" xlink:href="#BitstreamVeraSans-Roman-65"/>
      <use transform="translate(467.919921875 0.015625)" xlink:href="#BitstreamVeraSans-Roman-61"/>
      <use transform="translate(529.19921875 0.015625)" xlink:href="#BitstreamVeraSans-Roman-20"/>
      <use transform="translate(560.986328125 0.015625)" xlink:href="#BitstreamVeraSans-Roman-28"/>
      <use transform="translate(600.0 0.015625)" xlink:href="#Cmmi10-bc"/>
      <use transform="translate(656.982421875 0.015625)" xlink:href="#BitstreamVeraSans-Roman-20"/>
      <use transform="translate(688.76953125 0.015625)" xlink:href="#BitstreamVeraSans-Roman-55"/>
      <use transform="translate(761.962890625 0.015625)" xlink:href="#BitstreamVeraSans-Roman-6e"/>
      <use transform="translate(825.341796875 0.015625)" xlink:href="#BitstreamVeraSans-Roman-69"/>
      <use transform="translate(853.125 0.015625)" xlink:href="#BitstreamVeraSans-Roman-74"/>
      <use transform="translate(892.333984375 0.015625)" xlink:href="#BitstreamVeraSans-Roman-73"/>
      <use transform="translate(944.43359375 0.015625)" xlink:href="#BitstreamVeraSans-Roman-29"/>
     </g>
    </g>
   </g>
   <g id="matplotlib.axis_2">
    <g id="ytick_1">
     <g id="line2d_12">
      <defs>
       <path d="
M0 0
L4 0" id="m728421d6d4" style="stroke:#000000;stroke-width:0.5;"/>
      </defs>
      <g>
       <use style="stroke:#000000;stroke-width:0.5;" x="27.0" xlink:href="#m728421d6d4" y="195.845172414"/>
      </g>
     </g>
     <g id="line2d_13">
      <defs>
       <path d="
M0 0
L-4 0" id="mcb0005524f" style="stroke:#000000;stroke-width:0.5;"/>
      </defs>
      <g>
       <use style="stroke:#000000;stroke-width:0.5;" x="194.4" xlink:href="#mcb0005524f" y="195.845172414"/>
      </g>
     </g>
     <g id="text_6">
      <!-- 0.0 -->
      <defs>
       <path d="
M10.6875 12.4062
L21 12.4062
L21 0
L10.6875 0
z
" id="BitstreamVeraSans-Roman-2e"/>
      </defs>
      <g transform="translate(5.504375 199.156422414)scale(0.12 -0.12)">
       <use xlink:href="#BitstreamVeraSans-Roman-30"/>
       <use x="63.623046875" xlink:href="#BitstreamVeraSans-Roman-2e"/>
       <use x="95.41015625" xlink:href="#BitstreamVeraSans-Roman-30"/>
      </g>
     </g>
    </g>
    <g id="ytick_2">
     <g id="line2d_14">
      <g>
       <use style="stroke:#000000;stroke-width:0.5;" x="27.0" xlink:href="#m728421d6d4" y="146.138275862"/>
      </g>
     </g>
     <g id="line2d_15">
      <g>
       <use style="stroke:#000000;stroke-width:0.5;" x="194.4" xlink:href="#mcb0005524f" y="146.138275862"/>
      </g>
     </g>
     <g id="text_7">
      <!-- 0.5 -->
      <defs>
       <path d="
M10.7969 72.9062
L49.5156 72.9062
L49.5156 64.5938
L19.8281 64.5938
L19.8281 46.7344
Q21.9688 47.4688 24.1094 47.8281
Q26.2656 48.1875 28.4219 48.1875
Q40.625 48.1875 47.75 41.5
Q54.8906 34.8125 54.8906 23.3906
Q54.8906 11.625 47.5625 5.09375
Q40.2344 -1.42188 26.9062 -1.42188
Q22.3125 -1.42188 17.5469 -0.640625
Q12.7969 0.140625 7.71875 1.70312
L7.71875 11.625
Q12.1094 9.23438 16.7969 8.0625
Q21.4844 6.89062 26.7031 6.89062
Q35.1562 6.89062 40.0781 11.3281
Q45.0156 15.7656 45.0156 23.3906
Q45.0156 31 40.0781 35.4375
Q35.1562 39.8906 26.7031 39.8906
Q22.75 39.8906 18.8125 39.0156
Q14.8906 38.1406 10.7969 36.2812
z
" id="BitstreamVeraSans-Roman-35"/>
      </defs>
      <g transform="translate(5.755625 149.449525862)scale(0.12 -0.12)">
       <use xlink:href="#BitstreamVeraSans-Roman-30"/>
       <use x="63.623046875" xlink:href="#BitstreamVeraSans-Roman-2e"/>
       <use x="95.41015625" xlink:href="#BitstreamVeraSans-Roman-35"/>
      </g>
     </g>
    </g>
    <g id="ytick_3">
     <g id="line2d_16">
      <g>
       <use style="stroke:#000000;stroke-width:0.5;" x="27.0" xlink:href="#m728421d6d4" y="96.4313793103"/>
      </g>
     </g>
     <g id="line2d_17">
      <g>
       <use style="stroke:#000000;stroke-width:0.5;" x="194.4" xlink:href="#mcb0005524f" y="96.4313793103"/>
      </g>
     </g>
     <g id="text_8">
      <!-- 1.0 -->
      <g transform="translate(6.03125 99.7426293103)scale(0.12 -0.12)">
       <use xlink:href="#BitstreamVeraSans-Roman-31"/>
       <use x="63.623046875" xlink:href="#BitstreamVeraSans-Roman-2e"/>
       <use x="95.41015625" xlink:href="#BitstreamVeraSans-Roman-30"/>
      </g>
     </g>
    </g>
    <g id="text_9">
     <!-- Occupation -->
     <defs>
      <path d="
M39.4062 66.2188
Q28.6562 66.2188 22.3281 58.2031
Q16.0156 50.2031 16.0156 36.375
Q16.0156 22.6094 22.3281 14.5938
Q28.6562 6.59375 39.4062 6.59375
Q50.1406 6.59375 56.4219 14.5938
Q62.7031 22.6094 62.7031 36.375
Q62.7031 50.2031 56.4219 58.2031
Q50.1406 66.2188 39.4062 66.2188
M39.4062 74.2188
Q54.7344 74.2188 63.9062 63.9375
Q73.0938 53.6562 73.0938 36.375
Q73.0938 19.1406 63.9062 8.85938
Q54.7344 -1.42188 39.4062 -1.42188
Q24.0312 -1.42188 14.8125 8.82812
Q5.60938 19.0938 5.60938 36.375
Q5.60938 53.6562 14.8125 63.9375
Q24.0312 74.2188 39.4062 74.2188" id="BitstreamVeraSans-Roman-4f"/>
      <path d="
M30.6094 48.3906
Q23.3906 48.3906 19.1875 42.75
Q14.9844 37.1094 14.9844 27.2969
Q14.9844 17.4844 19.1562 11.8438
Q23.3438 6.20312 30.6094 6.20312
Q37.7969 6.20312 41.9844 11.8594
Q46.1875 17.5312 46.1875 27.2969
Q46.1875 37.0156 41.9844 42.7031
Q37.7969 48.3906 30.6094 48.3906
M30.6094 56
Q42.3281 56 49.0156 48.375
Q55.7188 40.7656 55.7188 27.2969
Q55.7188 13.875 49.0156 6.21875
Q42.3281 -1.42188 30.6094 -1.42188
Q18.8438 -1.42188 12.1719 6.21875
Q5.51562 13.875 5.51562 27.2969
Q5.51562 40.7656 12.1719 48.375
Q18.8438 56 30.6094 56" id="BitstreamVeraSans-Roman-6f"/>
      <path d="
M18.1094 8.20312
L18.1094 -20.7969
L9.07812 -20.7969
L9.07812 54.6875
L18.1094 54.6875
L18.1094 46.3906
Q20.9531 51.2656 25.2656 53.625
Q29.5938 56 35.5938 56
Q45.5625 56 51.7812 48.0938
Q58.0156 40.1875 58.0156 27.2969
Q58.0156 14.4062 51.7812 6.48438
Q45.5625 -1.42188 35.5938 -1.42188
Q29.5938 -1.42188 25.2656 0.953125
Q20.9531 3.32812 18.1094 8.20312
M48.6875 27.2969
Q48.6875 37.2031 44.6094 42.8438
Q40.5312 48.4844 33.4062 48.4844
Q26.2656 48.4844 22.1875 42.8438
Q18.1094 37.2031 18.1094 27.2969
Q18.1094 17.3906 22.1875 11.75
Q26.2656 6.10938 33.4062 6.10938
Q40.5312 6.10938 44.6094 11.75
Q48.6875 17.3906 48.6875 27.2969" id="BitstreamVeraSans-Roman-70"/>
      <path d="
M48.7812 52.5938
L48.7812 44.1875
Q44.9688 46.2969 41.1406 47.3438
Q37.3125 48.3906 33.4062 48.3906
Q24.6562 48.3906 19.8125 42.8438
Q14.9844 37.3125 14.9844 27.2969
Q14.9844 17.2812 19.8125 11.7344
Q24.6562 6.20312 33.4062 6.20312
Q37.3125 6.20312 41.1406 7.25
Q44.9688 8.29688 48.7812 10.4062
L48.7812 2.09375
Q45.0156 0.34375 40.9844 -0.53125
Q36.9688 -1.42188 32.4219 -1.42188
Q20.0625 -1.42188 12.7812 6.34375
Q5.51562 14.1094 5.51562 27.2969
Q5.51562 40.6719 12.8594 48.3281
Q20.2188 56 33.0156 56
Q37.1562 56 41.1094 55.1406
Q45.0625 54.2969 48.7812 52.5938" id="BitstreamVeraSans-Roman-63"/>
     </defs>
     <g transform="translate(-1.99125 179.395150862)rotate(-90.0)scale(0.12 -0.12)">
      <use xlink:href="#BitstreamVeraSans-Roman-4f"/>
      <use x="78.7109375" xlink:href="#BitstreamVeraSans-Roman-63"/>
      <use x="133.69140625" xlink:href="#BitstreamVeraSans-Roman-63"/>
      <use x="188.671875" xlink:href="#BitstreamVeraSans-Roman-75"/>
      <use x="252.05078125" xlink:href="#BitstreamVeraSans-Roman-70"/>
      <use x="315.52734375" xlink:href="#BitstreamVeraSans-Roman-61"/>
      <use x="376.806640625" xlink:href="#BitstreamVeraSans-Roman-74"/>
      <use x="416.015625" xlink:href="#BitstreamVeraSans-Roman-69"/>
      <use x="443.798828125" xlink:href="#BitstreamVeraSans-Roman-6f"/>
      <use x="504.98046875" xlink:href="#BitstreamVeraSans-Roman-6e"/>
     </g>
    </g>
   </g>
  </g>
  <g id="axes_2">
   <g id="patch_7">
    <path d="
M27 348.942
L194.4 348.942
L194.4 229.646
L27 229.646
z
" style="fill:#ffffff;"/>
   </g>
   <g id="line2d_18">
    <path clip-path="url(#pbccaa5801f)" d="
M32.58 337.18
L38.16 331.901
L43.74 323.703
L49.32 313.422
L54.9 302.105
L60.48 290.907
L66.06 280.969
L71.64 273.303
L77.22 268.691
L82.8 267.604
L88.38 270.153
L93.96 276.076
L99.54 284.771
L105.12 295.351
L110.7 306.738
L116.28 317.77
L121.86 327.324
L127.44 334.424
L133.02 338.348
L138.6 338.695
L144.18 335.43
L149.76 328.886
L155.34 319.729
L160.92 308.893
L166.5 297.483
L172.08 286.662
L177.66 277.533
L183.24 271.027
L188.82 267.806
L194.4 268.2" style="fill:none;stroke:#0000ff;stroke-linecap:square;"/>
   </g>
   <g id="line2d_19">
    <path clip-path="url(#pbccaa5801f)" d="
M32.58 338.289
L38.16 336.227
L43.74 333.023
L49.32 329.006
L54.9 324.583
L60.48 320.207
L66.06 316.323
L71.64 313.327
L77.22 311.525
L82.8 311.099
L88.38 312.094
L93.96 314.407
L99.54 317.804
L105.12 321.937
L110.7 326.385
L116.28 330.695
L121.86 334.428
L127.44 337.202
L133.02 338.736
L138.6 338.872
L144.18 337.596
L149.76 335.04
L155.34 331.463
L160.92 327.23
L166.5 322.773
L172.08 318.546
L177.66 314.98
L183.24 312.438
L188.82 311.181
L194.4 311.335" style="fill:none;stroke:#008000;stroke-linecap:square;"/>
   </g>
   <g id="line2d_20">
    <path clip-path="url(#pbccaa5801f)" d="
M32.58 336.468
L38.16 329.126
L43.74 317.725
L49.32 303.427
L54.9 287.688
L60.48 272.113
L66.06 258.291
L71.64 247.629
L77.22 241.215
L82.8 239.702
L88.38 243.245
L93.96 251.482
L99.54 263.574
L105.12 278.287
L110.7 294.122
L116.28 309.465
L121.86 322.751
L127.44 332.626
L133.02 338.083
L138.6 338.566
L144.18 334.025
L149.76 324.925
L155.34 312.191
L160.92 297.123
L166.5 281.255
L172.08 266.207
L177.66 253.512
L183.24 244.464
L188.82 239.986
L194.4 240.534" style="fill:none;stroke:#ff0000;stroke-linecap:square;"/>
   </g>
   <g id="patch_8">
    <path d="
M27 229.646
L194.4 229.646" style="fill:none;stroke:#000000;stroke-linecap:square;stroke-linejoin:miter;"/>
   </g>
   <g id="patch_9">
    <path d="
M194.4 348.942
L194.4 229.646" style="fill:none;stroke:#000000;stroke-linecap:square;stroke-linejoin:miter;"/>
   </g>
   <g id="patch_10">
    <path d="
M27 348.942
L194.4 348.942" style="fill:none;stroke:#000000;stroke-linecap:square;stroke-linejoin:miter;"/>
   </g>
   <g id="patch_11">
    <path d="
M27 348.942
L27 229.646" style="fill:none;stroke:#000000;stroke-linecap:square;stroke-linejoin:miter;"/>
   </g>
   <g id="matplotlib.axis_3">
    <g id="xtick_5">
     <g id="line2d_21">
      <g>
       <use style="stroke:#000000;stroke-width:0.5;" x="27.0" xlink:href="#m93b0483c22" y="348.942413793"/>
      </g>
     </g>
     <g id="line2d_22">
      <g>
       <use style="stroke:#000000;stroke-width:0.5;" x="27.0" xlink:href="#m741efc42ff" y="229.645862069"/>
      </g>
     </g>
     <g id="text_10">
      <!-- 0 -->
      <g transform="translate(23.9765625 362.060538793)scale(0.12 -0.12)">
       <use xlink:href="#BitstreamVeraSans-Roman-30"/>
      </g>
     </g>
    </g>
    <g id="xtick_6">
     <g id="line2d_23">
      <g>
       <use style="stroke:#000000;stroke-width:0.5;" x="82.8" xlink:href="#m93b0483c22" y="348.942413793"/>
      </g>
     </g>
     <g id="line2d_24">
      <g>
       <use style="stroke:#000000;stroke-width:0.5;" x="82.8" xlink:href="#m741efc42ff" y="229.645862069"/>
      </g>
     </g>
     <g id="text_11">
      <!-- 1 -->
      <g transform="translate(80.195625 362.060538793)scale(0.12 -0.12)">
       <use xlink:href="#BitstreamVeraSans-Roman-31"/>
      </g>
     </g>
    </g>
    <g id="xtick_7">
     <g id="line2d_25">
      <g>
       <use style="stroke:#000000;stroke-width:0.5;" x="138.6" xlink:href="#m93b0483c22" y="348.942413793"/>
      </g>
     </g>
     <g id="line2d_26">
      <g>
       <use style="stroke:#000000;stroke-width:0.5;" x="138.6" xlink:href="#m741efc42ff" y="229.645862069"/>
      </g>
     </g>
     <g id="text_12">
      <!-- 2 -->
      <g transform="translate(135.823125 362.060538793)scale(0.12 -0.12)">
       <use xlink:href="#BitstreamVeraSans-Roman-32"/>
      </g>
     </g>
    </g>
    <g id="xtick_8">
     <g id="line2d_27">
      <g>
       <use style="stroke:#000000;stroke-width:0.5;" x="194.4" xlink:href="#m93b0483c22" y="348.942413793"/>
      </g>
     </g>
     <g id="line2d_28">
      <g>
       <use style="stroke:#000000;stroke-width:0.5;" x="194.4" xlink:href="#m741efc42ff" y="229.645862069"/>
      </g>
     </g>
     <g id="text_13">
      <!-- 3 -->
      <g transform="translate(191.5209375 362.060538793)scale(0.12 -0.12)">
       <use xlink:href="#BitstreamVeraSans-Roman-33"/>
      </g>
     </g>
    </g>
    <g id="text_14">
     <!-- Pulse Area ($\pi$ Units) -->
     <g transform="translate(51.66 378.674288793)scale(0.12 -0.12)">
      <use transform="translate(0.0 0.015625)" xlink:href="#BitstreamVeraSans-Roman-50"/>
      <use transform="translate(60.302734375 0.015625)" xlink:href="#BitstreamVeraSans-Roman-75"/>
      <use transform="translate(123.681640625 0.015625)" xlink:href="#BitstreamVeraSans-Roman-6c"/>
      <use transform="translate(151.46484375 0.015625)" xlink:href="#BitstreamVeraSans-Roman-73"/>
      <use transform="translate(203.564453125 0.015625)" xlink:href="#BitstreamVeraSans-Roman-65"/>
      <use transform="translate(265.087890625 0.015625)" xlink:href="#BitstreamVeraSans-Roman-20"/>
      <use transform="translate(296.875 0.015625)" xlink:href="#BitstreamVeraSans-Roman-41"/>
      <use transform="translate(365.283203125 0.015625)" xlink:href="#BitstreamVeraSans-Roman-72"/>
      <use transform="translate(406.396484375 0.015625)" xlink:href="#BitstreamVeraSans-Roman-65"/>
      <use transform="translate(467.919921875 0.015625)" xlink:href="#BitstreamVeraSans-Roman-61"/>
      <use transform="translate(529.19921875 0.015625)" xlink:href="#BitstreamVeraSans-Roman-20"/>
      <use transform="translate(560.986328125 0.015625)" xlink:href="#BitstreamVeraSans-Roman-28"/>
      <use transform="translate(600.0 0.015625)" xlink:href="#Cmmi10-bc"/>
      <use transform="translate(656.982421875 0.015625)" xlink:href="#BitstreamVeraSans-Roman-20"/>
      <use transform="translate(688.76953125 0.015625)" xlink:href="#BitstreamVeraSans-Roman-55"/>
      <use transform="translate(761.962890625 0.015625)" xlink:href="#BitstreamVeraSans-Roman-6e"/>
      <use transform="translate(825.341796875 0.015625)" xlink:href="#BitstreamVeraSans-Roman-69"/>
      <use transform="translate(853.125 0.015625)" xlink:href="#BitstreamVeraSans-Roman-74"/>
      <use transform="translate(892.333984375 0.015625)" xlink:href="#BitstreamVeraSans-Roman-73"/>
      <use transform="translate(944.43359375 0.015625)" xlink:href="#BitstreamVeraSans-Roman-29"/>
     </g>
    </g>
   </g>
   <g id="matplotlib.axis_4">
    <g id="ytick_4">
     <g id="line2d_29">
      <g>
       <use style="stroke:#000000;stroke-width:0.5;" x="27.0" xlink:href="#m728421d6d4" y="339.001034483"/>
      </g>
     </g>
     <g id="line2d_30">
      <g>
       <use style="stroke:#000000;stroke-width:0.5;" x="194.4" xlink:href="#mcb0005524f" y="339.001034483"/>
      </g>
     </g>
     <g id="text_15">
      <!-- 0.0 -->
      <g transform="translate(5.504375 342.312284483)scale(0.12 -0.12)">
       <use xlink:href="#BitstreamVeraSans-Roman-30"/>
       <use x="63.623046875" xlink:href="#BitstreamVeraSans-Roman-2e"/>
       <use x="95.41015625" xlink:href="#BitstreamVeraSans-Roman-30"/>
      </g>
     </g>
    </g>
    <g id="ytick_5">
     <g id="line2d_31">
      <g>
       <use style="stroke:#000000;stroke-width:0.5;" x="27.0" xlink:href="#m728421d6d4" y="289.294137931"/>
      </g>
     </g>
     <g id="line2d_32">
      <g>
       <use style="stroke:#000000;stroke-width:0.5;" x="194.4" xlink:href="#mcb0005524f" y="289.294137931"/>
      </g>
     </g>
     <g id="text_16">
      <!-- 0.5 -->
      <g transform="translate(5.755625 292.605387931)scale(0.12 -0.12)">
       <use xlink:href="#BitstreamVeraSans-Roman-30"/>
       <use x="63.623046875" xlink:href="#BitstreamVeraSans-Roman-2e"/>
       <use x="95.41015625" xlink:href="#BitstreamVeraSans-Roman-35"/>
      </g>
     </g>
    </g>
    <g id="ytick_6">
     <g id="line2d_33">
      <g>
       <use style="stroke:#000000;stroke-width:0.5;" x="27.0" xlink:href="#m728421d6d4" y="239.587241379"/>
      </g>
     </g>
     <g id="line2d_34">
      <g>
       <use style="stroke:#000000;stroke-width:0.5;" x="194.4" xlink:href="#mcb0005524f" y="239.587241379"/>
      </g>
     </g>
     <g id="text_17">
      <!-- 1.0 -->
      <g transform="translate(6.03125 242.898491379)scale(0.12 -0.12)">
       <use xlink:href="#BitstreamVeraSans-Roman-31"/>
       <use x="63.623046875" xlink:href="#BitstreamVeraSans-Roman-2e"/>
       <use x="95.41015625" xlink:href="#BitstreamVeraSans-Roman-30"/>
      </g>
     </g>
    </g>
    <g id="text_18">
     <!-- Occupation -->
     <g transform="translate(-1.99125 322.551012931)rotate(-90.0)scale(0.12 -0.12)">
      <use xlink:href="#BitstreamVeraSans-Roman-4f"/>
      <use x="78.7109375" xlink:href="#BitstreamVeraSans-Roman-63"/>
      <use x="133.69140625" xlink:href="#BitstreamVeraSans-Roman-63"/>
      <use x="188.671875" xlink:href="#BitstreamVeraSans-Roman-75"/>
      <use x="252.05078125" xlink:href="#BitstreamVeraSans-Roman-70"/>
      <use x="315.52734375" xlink:href="#BitstreamVeraSans-Roman-61"/>
      <use x="376.806640625" xlink:href="#BitstreamVeraSans-Roman-74"/>
      <use x="416.015625" xlink:href="#BitstreamVeraSans-Roman-69"/>
      <use x="443.798828125" xlink:href="#BitstreamVeraSans-Roman-6f"/>
      <use x="504.98046875" xlink:href="#BitstreamVeraSans-Roman-6e"/>
     </g>
    </g>
   </g>
  </g>
  <g id="axes_3">
   <g id="patch_12">
    <path d="
M27 492.098
L194.4 492.098
L194.4 372.802
L27 372.802
z
" style="fill:#ffffff;"/>
   </g>
   <g id="line2d_35">
    <path clip-path="url(#pfffad55e87)" d="
M32.58 480.942
L38.16 477.424
L43.74 471.978
L49.32 465.179
L54.9 457.749
L60.48 450.474
L66.06 444.125
L71.64 439.376
L77.22 436.728
L82.8 436.464
L88.38 438.61
L93.96 442.939
L99.54 448.992
L105.12 456.129
L110.7 463.592
L116.28 470.591
L121.86 476.384
L127.44 480.357
L133.02 482.089
L138.6 481.396
L144.18 478.352
L149.76 473.28
L155.34 466.715
L160.92 459.355
L166.5 451.979
L172.08 445.369
L177.66 440.224
L183.24 437.09
L188.82 436.3
L194.4 437.936" style="fill:none;stroke:#0000ff;stroke-linecap:square;"/>
   </g>
   <g id="line2d_36">
    <path clip-path="url(#pfffad55e87)" d="
M32.58 480.739
L38.16 476.636
L43.74 470.282
L49.32 462.35
L54.9 453.681
L60.48 445.194
L66.06 437.787
L71.64 432.246
L77.22 429.157
L82.8 428.847
L88.38 431.35
L93.96 436.4
L99.54 443.462
L105.12 451.788
L110.7 460.495
L116.28 468.661
L121.86 475.42
L127.44 480.057
L133.02 482.08
L138.6 481.275
L144.18 477.727
L149.76 471.813
L155.34 464.158
L160.92 455.575
L166.5 446.973
L172.08 439.263
L177.66 433.262
L183.24 429.607
L188.82 428.685
L194.4 430.593" style="fill:none;stroke:#008000;stroke-linecap:square;"/>
   </g>
   <g id="line2d_37">
    <path clip-path="url(#pfffad55e87)" d="
M32.58 479.524
L38.16 471.903
L43.74 460.103
L49.32 445.372
L54.9 429.273
L60.48 413.511
L66.06 399.756
L71.64 389.465
L77.22 383.728
L82.8 383.154
L88.38 387.803
L93.96 397.182
L99.54 410.298
L105.12 425.76
L110.7 441.93
L116.28 457.095
L121.86 469.647
L127.44 478.257
L133.02 482.012
L138.6 480.514
L144.18 473.923
L149.76 462.935
L155.34 448.717
L160.92 432.774
L166.5 416.795
L172.08 402.475
L177.66 391.329
L183.24 384.54
L188.82 382.828
L194.4 386.372" style="fill:none;stroke:#ff0000;stroke-linecap:square;"/>
   </g>
   <g id="patch_13">
    <path d="
M27 372.802
L194.4 372.802" style="fill:none;stroke:#000000;stroke-linecap:square;stroke-linejoin:miter;"/>
   </g>
   <g id="patch_14">
    <path d="
M194.4 492.098
L194.4 372.802" style="fill:none;stroke:#000000;stroke-linecap:square;stroke-linejoin:miter;"/>
   </g>
   <g id="patch_15">
    <path d="
M27 492.098
L194.4 492.098" style="fill:none;stroke:#000000;stroke-linecap:square;stroke-linejoin:miter;"/>
   </g>
   <g id="patch_16">
    <path d="
M27 492.098
L27 372.802" style="fill:none;stroke:#000000;stroke-linecap:square;stroke-linejoin:miter;"/>
   </g>
   <g id="matplotlib.axis_5">
    <g id="xtick_9">
     <g id="line2d_38">
      <g>
       <use style="stroke:#000000;stroke-width:0.5;" x="27.0" xlink:href="#m93b0483c22" y="492.098275862"/>
      </g>
     </g>
     <g id="line2d_39">
      <g>
       <use style="stroke:#000000;stroke-width:0.5;" x="27.0" xlink:href="#m741efc42ff" y="372.801724138"/>
      </g>
     </g>
     <g id="text_19">
      <!-- 0 -->
      <g transform="translate(23.9765625 505.216400862)scale(0.12 -0.12)">
       <use xlink:href="#BitstreamVeraSans-Roman-30"/>
      </g>
     </g>
    </g>
    <g id="xtick_10">
     <g id="line2d_40">
      <g>
       <use style="stroke:#000000;stroke-width:0.5;" x="82.8" xlink:href="#m93b0483c22" y="492.098275862"/>
      </g>
     </g>
     <g id="line2d_41">
      <g>
       <use style="stroke:#000000;stroke-width:0.5;" x="82.8" xlink:href="#m741efc42ff" y="372.801724138"/>
      </g>
     </g>
     <g id="text_20">
      <!-- 1 -->
      <g transform="translate(80.195625 505.216400862)scale(0.12 -0.12)">
       <use xlink:href="#BitstreamVeraSans-Roman-31"/>
      </g>
     </g>
    </g>
    <g id="xtick_11">
     <g id="line2d_42">
      <g>
       <use style="stroke:#000000;stroke-width:0.5;" x="138.6" xlink:href="#m93b0483c22" y="492.098275862"/>
      </g>
     </g>
     <g id="line2d_43">
      <g>
       <use style="stroke:#000000;stroke-width:0.5;" x="138.6" xlink:href="#m741efc42ff" y="372.801724138"/>
      </g>
     </g>
     <g id="text_21">
      <!-- 2 -->
      <g transform="translate(135.823125 505.216400862)scale(0.12 -0.12)">
       <use xlink:href="#BitstreamVeraSans-Roman-32"/>
      </g>
     </g>
    </g>
    <g id="xtick_12">
     <g id="line2d_44">
      <g>
       <use style="stroke:#000000;stroke-width:0.5;" x="194.4" xlink:href="#m93b0483c22" y="492.098275862"/>
      </g>
     </g>
     <g id="line2d_45">
      <g>
       <use style="stroke:#000000;stroke-width:0.5;" x="194.4" xlink:href="#m741efc42ff" y="372.801724138"/>
      </g>
     </g>
     <g id="text_22">
      <!-- 3 -->
      <g transform="translate(191.5209375 505.216400862)scale(0.12 -0.12)">
       <use xlink:href="#BitstreamVeraSans-Roman-33"/>
      </g>
     </g>
    </g>
    <g id="text_23">
     <!-- Pulse Area ($\pi$ Units) -->
     <g transform="translate(51.66 521.830150862)scale(0.12 -0.12)">
      <use transform="translate(0.0 0.015625)" xlink:href="#BitstreamVeraSans-Roman-50"/>
      <use transform="translate(60.302734375 0.015625)" xlink:href="#BitstreamVeraSans-Roman-75"/>
      <use transform="translate(123.681640625 0.015625)" xlink:href="#BitstreamVeraSans-Roman-6c"/>
      <use transform="translate(151.46484375 0.015625)" xlink:href="#BitstreamVeraSans-Roman-73"/>
      <use transform="translate(203.564453125 0.015625)" xlink:href="#BitstreamVeraSans-Roman-65"/>
      <use transform="translate(265.087890625 0.015625)" xlink:href="#BitstreamVeraSans-Roman-20"/>
      <use transform="translate(296.875 0.015625)" xlink:href="#BitstreamVeraSans-Roman-41"/>
      <use transform="translate(365.283203125 0.015625)" xlink:href="#BitstreamVeraSans-Roman-72"/>
      <use transform="translate(406.396484375 0.015625)" xlink:href="#BitstreamVeraSans-Roman-65"/>
      <use transform="translate(467.919921875 0.015625)" xlink:href="#BitstreamVeraSans-Roman-61"/>
      <use transform="translate(529.19921875 0.015625)" xlink:href="#BitstreamVeraSans-Roman-20"/>
      <use transform="translate(560.986328125 0.015625)" xlink:href="#BitstreamVeraSans-Roman-28"/>
      <use transform="translate(600.0 0.015625)" xlink:href="#Cmmi10-bc"/>
      <use transform="translate(656.982421875 0.015625)" xlink:href="#BitstreamVeraSans-Roman-20"/>
      <use transform="translate(688.76953125 0.015625)" xlink:href="#BitstreamVeraSans-Roman-55"/>
      <use transform="translate(761.962890625 0.015625)" xlink:href="#BitstreamVeraSans-Roman-6e"/>
      <use transform="translate(825.341796875 0.015625)" xlink:href="#BitstreamVeraSans-Roman-69"/>
      <use transform="translate(853.125 0.015625)" xlink:href="#BitstreamVeraSans-Roman-74"/>
      <use transform="translate(892.333984375 0.015625)" xlink:href="#BitstreamVeraSans-Roman-73"/>
      <use transform="translate(944.43359375 0.015625)" xlink:href="#BitstreamVeraSans-Roman-29"/>
     </g>
    </g>
   </g>
   <g id="matplotlib.axis_6">
    <g id="ytick_7">
     <g id="line2d_46">
      <g>
       <use style="stroke:#000000;stroke-width:0.5;" x="27.0" xlink:href="#m728421d6d4" y="482.156896552"/>
      </g>
     </g>
     <g id="line2d_47">
      <g>
       <use style="stroke:#000000;stroke-width:0.5;" x="194.4" xlink:href="#mcb0005524f" y="482.156896552"/>
      </g>
     </g>
     <g id="text_24">
      <!-- 0.0 -->
      <g transform="translate(5.504375 485.468146552)scale(0.12 -0.12)">
       <use xlink:href="#BitstreamVeraSans-Roman-30"/>
       <use x="63.623046875" xlink:href="#BitstreamVeraSans-Roman-2e"/>
       <use x="95.41015625" xlink:href="#BitstreamVeraSans-Roman-30"/>
      </g>
     </g>
    </g>
    <g id="ytick_8">
     <g id="line2d_48">
      <g>
       <use style="stroke:#000000;stroke-width:0.5;" x="27.0" xlink:href="#m728421d6d4" y="432.45"/>
      </g>
     </g>
     <g id="line2d_49">
      <g>
       <use style="stroke:#000000;stroke-width:0.5;" x="194.4" xlink:href="#mcb0005524f" y="432.45"/>
      </g>
     </g>
     <g id="text_25">
      <!-- 0.5 -->
      <g transform="translate(5.755625 435.76125)scale(0.12 -0.12)">
       <use xlink:href="#BitstreamVeraSans-Roman-30"/>
       <use x="63.623046875" xlink:href="#BitstreamVeraSans-Roman-2e"/>
       <use x="95.41015625" xlink:href="#BitstreamVeraSans-Roman-35"/>
      </g>
     </g>
    </g>
    <g id="ytick_9">
     <g id="line2d_50">
      <g>
       <use style="stroke:#000000;stroke-width:0.5;" x="27.0" xlink:href="#m728421d6d4" y="382.743103448"/>
      </g>
     </g>
     <g id="line2d_51">
      <g>
       <use style="stroke:#000000;stroke-width:0.5;" x="194.4" xlink:href="#mcb0005524f" y="382.743103448"/>
      </g>
     </g>
     <g id="text_26">
      <!-- 1.0 -->
      <g transform="translate(6.03125 386.054353448)scale(0.12 -0.12)">
       <use xlink:href="#BitstreamVeraSans-Roman-31"/>
       <use x="63.623046875" xlink:href="#BitstreamVeraSans-Roman-2e"/>
       <use x="95.41015625" xlink:href="#BitstreamVeraSans-Roman-30"/>
      </g>
     </g>
    </g>
    <g id="text_27">
     <!-- Occupation -->
     <g transform="translate(-1.99125 465.706875)rotate(-90.0)scale(0.12 -0.12)">
      <use xlink:href="#BitstreamVeraSans-Roman-4f"/>
      <use x="78.7109375" xlink:href="#BitstreamVeraSans-Roman-63"/>
      <use x="133.69140625" xlink:href="#BitstreamVeraSans-Roman-63"/>
      <use x="188.671875" xlink:href="#BitstreamVeraSans-Roman-75"/>
      <use x="252.05078125" xlink:href="#BitstreamVeraSans-Roman-70"/>
      <use x="315.52734375" xlink:href="#BitstreamVeraSans-Roman-61"/>
      <use x="376.806640625" xlink:href="#BitstreamVeraSans-Roman-74"/>
      <use x="416.015625" xlink:href="#BitstreamVeraSans-Roman-69"/>
      <use x="443.798828125" xlink:href="#BitstreamVeraSans-Roman-6f"/>
      <use x="504.98046875" xlink:href="#BitstreamVeraSans-Roman-6e"/>
     </g>
    </g>
   </g>
  </g>
  <g id="axes_4">
   <g id="patch_17">
    <path d="
M27 635.254
L194.4 635.254
L194.4 515.958
L27 515.958
z
" style="fill:#ffffff;"/>
   </g>
   <g id="line2d_52">
    <path clip-path="url(#pd142038e8a)" d="
M32.58 624.703
L38.16 622.941
L43.74 620.221
L49.32 616.841
L54.9 613.173
L60.48 609.621
L66.06 606.576
L71.64 604.371
L77.22 603.251
L82.8 603.336
L88.38 604.62
L93.96 606.959
L99.54 610.097
L105.12 613.688
L110.7 617.338
L116.28 620.645
L121.86 623.245
L127.44 624.852
L133.02 625.289
L138.6 624.508
L144.18 622.596
L149.76 619.761
L155.34 616.316
L160.92 612.639
L166.5 609.135
L172.08 606.19
L177.66 604.126
L183.24 603.172
L188.82 603.432
L194.4 604.877" style="fill:none;stroke:#0000ff;stroke-linecap:square;"/>
   </g>
   <g id="line2d_53">
    <path clip-path="url(#pd142038e8a)" d="
M32.58 623.189
L38.16 617.052
L43.74 607.577
L49.32 595.805
L54.9 583.031
L60.48 570.66
L66.06 560.052
L71.64 552.374
L77.22 548.471
L82.8 548.771
L88.38 553.241
L93.96 561.39
L99.54 572.322
L105.12 584.834
L110.7 597.55
L116.28 609.073
L121.86 618.134
L127.44 623.737
L133.02 625.267
L138.6 622.555
L144.18 615.9
L149.76 606.033
L155.34 594.039
L160.92 581.239
L166.5 569.039
L172.08 558.782
L177.66 551.595
L183.24 548.27
L188.82 549.171
L194.4 554.2" style="fill:none;stroke:#008000;stroke-linecap:square;"/>
   </g>
   <g id="line2d_54">
    <path clip-path="url(#pd142038e8a)" d="
M32.58 622.58
L38.16 614.681
L43.74 602.485
L49.32 587.333
L54.9 570.892
L60.48 554.969
L66.06 541.315
L71.64 531.433
L77.22 526.409
L82.8 526.794
L88.38 532.548
L93.96 543.036
L99.54 557.106
L105.12 573.209
L110.7 589.575
L116.28 604.405
L121.86 616.066
L127.44 623.277
L133.02 625.244
L138.6 621.751
L144.18 613.182
L149.76 600.481
L155.34 585.042
L160.92 568.565
L166.5 552.861
L172.08 539.659
L177.66 530.409
L183.24 526.129
L188.82 527.29
L194.4 533.764" style="fill:none;stroke:#ff0000;stroke-linecap:square;"/>
   </g>
   <g id="patch_18">
    <path d="
M27 515.958
L194.4 515.958" style="fill:none;stroke:#000000;stroke-linecap:square;stroke-linejoin:miter;"/>
   </g>
   <g id="patch_19">
    <path d="
M194.4 635.254
L194.4 515.958" style="fill:none;stroke:#000000;stroke-linecap:square;stroke-linejoin:miter;"/>
   </g>
   <g id="patch_20">
    <path d="
M27 635.254
L194.4 635.254" style="fill:none;stroke:#000000;stroke-linecap:square;stroke-linejoin:miter;"/>
   </g>
   <g id="patch_21">
    <path d="
M27 635.254
L27 515.958" style="fill:none;stroke:#000000;stroke-linecap:square;stroke-linejoin:miter;"/>
   </g>
   <g id="matplotlib.axis_7">
    <g id="xtick_13">
     <g id="line2d_55">
      <g>
       <use style="stroke:#000000;stroke-width:0.5;" x="27.0" xlink:href="#m93b0483c22" y="635.254137931"/>
      </g>
     </g>
     <g id="line2d_56">
      <g>
       <use style="stroke:#000000;stroke-width:0.5;" x="27.0" xlink:href="#m741efc42ff" y="515.957586207"/>
      </g>
     </g>
     <g id="text_28">
      <!-- 0 -->
      <g transform="translate(23.9765625 648.372262931)scale(0.12 -0.12)">
       <use xlink:href="#BitstreamVeraSans-Roman-30"/>
      </g>
     </g>
    </g>
    <g id="xtick_14">
     <g id="line2d_57">
      <g>
       <use style="stroke:#000000;stroke-width:0.5;" x="82.8" xlink:href="#m93b0483c22" y="635.254137931"/>
      </g>
     </g>
     <g id="line2d_58">
      <g>
       <use style="stroke:#000000;stroke-width:0.5;" x="82.8" xlink:href="#m741efc42ff" y="515.957586207"/>
      </g>
     </g>
     <g id="text_29">
      <!-- 1 -->
      <g transform="translate(80.195625 648.372262931)scale(0.12 -0.12)">
       <use xlink:href="#BitstreamVeraSans-Roman-31"/>
      </g>
     </g>
    </g>
    <g id="xtick_15">
     <g id="line2d_59">
      <g>
       <use style="stroke:#000000;stroke-width:0.5;" x="138.6" xlink:href="#m93b0483c22" y="635.254137931"/>
      </g>
     </g>
     <g id="line2d_60">
      <g>
       <use style="stroke:#000000;stroke-width:0.5;" x="138.6" xlink:href="#m741efc42ff" y="515.957586207"/>
      </g>
     </g>
     <g id="text_30">
      <!-- 2 -->
      <g transform="translate(135.823125 648.372262931)scale(0.12 -0.12)">
       <use xlink:href="#BitstreamVeraSans-Roman-32"/>
      </g>
     </g>
    </g>
    <g id="xtick_16">
     <g id="line2d_61">
      <g>
       <use style="stroke:#000000;stroke-width:0.5;" x="194.4" xlink:href="#m93b0483c22" y="635.254137931"/>
      </g>
     </g>
     <g id="line2d_62">
      <g>
       <use style="stroke:#000000;stroke-width:0.5;" x="194.4" xlink:href="#m741efc42ff" y="515.957586207"/>
      </g>
     </g>
     <g id="text_31">
      <!-- 3 -->
      <g transform="translate(191.5209375 648.372262931)scale(0.12 -0.12)">
       <use xlink:href="#BitstreamVeraSans-Roman-33"/>
      </g>
     </g>
    </g>
    <g id="text_32">
     <!-- Pulse Area ($\pi$ Units) -->
     <g transform="translate(51.66 664.986012931)scale(0.12 -0.12)">
      <use transform="translate(0.0 0.015625)" xlink:href="#BitstreamVeraSans-Roman-50"/>
      <use transform="translate(60.302734375 0.015625)" xlink:href="#BitstreamVeraSans-Roman-75"/>
      <use transform="translate(123.681640625 0.015625)" xlink:href="#BitstreamVeraSans-Roman-6c"/>
      <use transform="translate(151.46484375 0.015625)" xlink:href="#BitstreamVeraSans-Roman-73"/>
      <use transform="translate(203.564453125 0.015625)" xlink:href="#BitstreamVeraSans-Roman-65"/>
      <use transform="translate(265.087890625 0.015625)" xlink:href="#BitstreamVeraSans-Roman-20"/>
      <use transform="translate(296.875 0.015625)" xlink:href="#BitstreamVeraSans-Roman-41"/>
      <use transform="translate(365.283203125 0.015625)" xlink:href="#BitstreamVeraSans-Roman-72"/>
      <use transform="translate(406.396484375 0.015625)" xlink:href="#BitstreamVeraSans-Roman-65"/>
      <use transform="translate(467.919921875 0.015625)" xlink:href="#BitstreamVeraSans-Roman-61"/>
      <use transform="translate(529.19921875 0.015625)" xlink:href="#BitstreamVeraSans-Roman-20"/>
      <use transform="translate(560.986328125 0.015625)" xlink:href="#BitstreamVeraSans-Roman-28"/>
      <use transform="translate(600.0 0.015625)" xlink:href="#Cmmi10-bc"/>
      <use transform="translate(656.982421875 0.015625)" xlink:href="#BitstreamVeraSans-Roman-20"/>
      <use transform="translate(688.76953125 0.015625)" xlink:href="#BitstreamVeraSans-Roman-55"/>
      <use transform="translate(761.962890625 0.015625)" xlink:href="#BitstreamVeraSans-Roman-6e"/>
      <use transform="translate(825.341796875 0.015625)" xlink:href="#BitstreamVeraSans-Roman-69"/>
      <use transform="translate(853.125 0.015625)" xlink:href="#BitstreamVeraSans-Roman-74"/>
      <use transform="translate(892.333984375 0.015625)" xlink:href="#BitstreamVeraSans-Roman-73"/>
      <use transform="translate(944.43359375 0.015625)" xlink:href="#BitstreamVeraSans-Roman-29"/>
     </g>
    </g>
   </g>
   <g id="matplotlib.axis_8">
    <g id="ytick_10">
     <g id="line2d_63">
      <g>
       <use style="stroke:#000000;stroke-width:0.5;" x="27.0" xlink:href="#m728421d6d4" y="625.312758621"/>
      </g>
     </g>
     <g id="line2d_64">
      <g>
       <use style="stroke:#000000;stroke-width:0.5;" x="194.4" xlink:href="#mcb0005524f" y="625.312758621"/>
      </g>
     </g>
     <g id="text_33">
      <!-- 0.0 -->
      <g transform="translate(5.504375 628.624008621)scale(0.12 -0.12)">
       <use xlink:href="#BitstreamVeraSans-Roman-30"/>
       <use x="63.623046875" xlink:href="#BitstreamVeraSans-Roman-2e"/>
       <use x="95.41015625" xlink:href="#BitstreamVeraSans-Roman-30"/>
      </g>
     </g>
    </g>
    <g id="ytick_11">
     <g id="line2d_65">
      <g>
       <use style="stroke:#000000;stroke-width:0.5;" x="27.0" xlink:href="#m728421d6d4" y="575.605862069"/>
      </g>
     </g>
     <g id="line2d_66">
      <g>
       <use style="stroke:#000000;stroke-width:0.5;" x="194.4" xlink:href="#mcb0005524f" y="575.605862069"/>
      </g>
     </g>
     <g id="text_34">
      <!-- 0.5 -->
      <g transform="translate(5.755625 578.917112069)scale(0.12 -0.12)">
       <use xlink:href="#BitstreamVeraSans-Roman-30"/>
       <use x="63.623046875" xlink:href="#BitstreamVeraSans-Roman-2e"/>
       <use x="95.41015625" xlink:href="#BitstreamVeraSans-Roman-35"/>
      </g>
     </g>
    </g>
    <g id="ytick_12">
     <g id="line2d_67">
      <g>
       <use style="stroke:#000000;stroke-width:0.5;" x="27.0" xlink:href="#m728421d6d4" y="525.898965517"/>
      </g>
     </g>
     <g id="line2d_68">
      <g>
       <use style="stroke:#000000;stroke-width:0.5;" x="194.4" xlink:href="#mcb0005524f" y="525.898965517"/>
      </g>
     </g>
     <g id="text_35">
      <!-- 1.0 -->
      <g transform="translate(6.03125 529.210215517)scale(0.12 -0.12)">
       <use xlink:href="#BitstreamVeraSans-Roman-31"/>
       <use x="63.623046875" xlink:href="#BitstreamVeraSans-Roman-2e"/>
       <use x="95.41015625" xlink:href="#BitstreamVeraSans-Roman-30"/>
      </g>
     </g>
    </g>
    <g id="text_36">
     <!-- Occupation -->
     <g transform="translate(-1.99125 608.862737069)rotate(-90.0)scale(0.12 -0.12)">
      <use xlink:href="#BitstreamVeraSans-Roman-4f"/>
      <use x="78.7109375" xlink:href="#BitstreamVeraSans-Roman-63"/>
      <use x="133.69140625" xlink:href="#BitstreamVeraSans-Roman-63"/>
      <use x="188.671875" xlink:href="#BitstreamVeraSans-Roman-75"/>
      <use x="252.05078125" xlink:href="#BitstreamVeraSans-Roman-70"/>
      <use x="315.52734375" xlink:href="#BitstreamVeraSans-Roman-61"/>
      <use x="376.806640625" xlink:href="#BitstreamVeraSans-Roman-74"/>
      <use x="416.015625" xlink:href="#BitstreamVeraSans-Roman-69"/>
      <use x="443.798828125" xlink:href="#BitstreamVeraSans-Roman-6f"/>
      <use x="504.98046875" xlink:href="#BitstreamVeraSans-Roman-6e"/>
     </g>
    </g>
   </g>
  </g>
  <g id="axes_5">
   <g id="patch_22">
    <path d="
M27 778.41
L194.4 778.41
L194.4 659.113
L27 659.113
z
" style="fill:#ffffff;"/>
   </g>
   <g id="line2d_69">
    <path clip-path="url(#pf0b86a3202)" d="
M32.58 768.469
L38.16 768.469
L43.74 768.469
L49.32 768.469
L54.9 768.469
L60.48 768.469
L66.06 768.469
L71.64 768.469
L77.22 768.469
L82.8 768.469
L88.38 768.469
L93.96 768.469
L99.54 768.469
L105.12 768.469
L110.7 768.469
L116.28 768.469
L121.86 768.469
L127.44 768.469
L133.02 768.469
L138.6 768.469
L144.18 768.469
L149.76 768.469
L155.34 768.469
L160.92 768.469
L166.5 768.469
L172.08 768.469
L177.66 768.469
L183.24 768.469
L188.82 768.469
L194.4 768.469" style="fill:none;stroke:#0000ff;stroke-linecap:square;"/>
   </g>
   <g id="line2d_70">
    <path clip-path="url(#pf0b86a3202)" d="
M32.58 765.635
L38.16 757.457
L43.74 744.867
L49.32 729.3
L54.9 712.532
L60.48 696.474
L66.06 682.957
L71.64 673.523
L77.22 669.247
L82.8 670.616
L88.38 677.475
L93.96 689.042
L99.54 703.997
L105.12 720.635
L110.7 737.06
L116.28 751.398
L121.86 762.016
L127.44 767.701
L133.02 767.807
L138.6 762.32
L144.18 751.867
L149.76 737.64
L155.34 721.259
L160.92 704.595
L166.5 689.545
L172.08 677.826
L177.66 670.776
L183.24 669.196
L188.82 673.268
L194.4 682.527" style="fill:none;stroke:#008000;stroke-linecap:square;"/>
   </g>
   <g id="line2d_71">
    <path clip-path="url(#pf0b86a3202)" d="
M32.58 765.635
L38.16 757.457
L43.74 744.867
L49.32 729.3
L54.9 712.532
L60.48 696.474
L66.06 682.957
L71.64 673.523
L77.22 669.247
L82.8 670.616
L88.38 677.475
L93.96 689.042
L99.54 703.997
L105.12 720.635
L110.7 737.06
L116.28 751.398
L121.86 762.016
L127.44 767.701
L133.02 767.807
L138.6 762.32
L144.18 751.867
L149.76 737.64
L155.34 721.259
L160.92 704.595
L166.5 689.545
L172.08 677.826
L177.66 670.776
L183.24 669.196
L188.82 673.268
L194.4 682.527" style="fill:none;stroke:#ff0000;stroke-linecap:square;"/>
   </g>
   <g id="patch_23">
    <path d="
M27 659.113
L194.4 659.113" style="fill:none;stroke:#000000;stroke-linecap:square;stroke-linejoin:miter;"/>
   </g>
   <g id="patch_24">
    <path d="
M194.4 778.41
L194.4 659.113" style="fill:none;stroke:#000000;stroke-linecap:square;stroke-linejoin:miter;"/>
   </g>
   <g id="patch_25">
    <path d="
M27 778.41
L194.4 778.41" style="fill:none;stroke:#000000;stroke-linecap:square;stroke-linejoin:miter;"/>
   </g>
   <g id="patch_26">
    <path d="
M27 778.41
L27 659.113" style="fill:none;stroke:#000000;stroke-linecap:square;stroke-linejoin:miter;"/>
   </g>
   <g id="matplotlib.axis_9">
    <g id="xtick_17">
     <g id="line2d_72">
      <g>
       <use style="stroke:#000000;stroke-width:0.5;" x="27.0" xlink:href="#m93b0483c22" y="778.41"/>
      </g>
     </g>
     <g id="line2d_73">
      <g>
       <use style="stroke:#000000;stroke-width:0.5;" x="27.0" xlink:href="#m741efc42ff" y="659.113448276"/>
      </g>
     </g>
     <g id="text_37">
      <!-- 0 -->
      <g transform="translate(23.9765625 791.528125)scale(0.12 -0.12)">
       <use xlink:href="#BitstreamVeraSans-Roman-30"/>
      </g>
     </g>
    </g>
    <g id="xtick_18">
     <g id="line2d_74">
      <g>
       <use style="stroke:#000000;stroke-width:0.5;" x="82.8" xlink:href="#m93b0483c22" y="778.41"/>
      </g>
     </g>
     <g id="line2d_75">
      <g>
       <use style="stroke:#000000;stroke-width:0.5;" x="82.8" xlink:href="#m741efc42ff" y="659.113448276"/>
      </g>
     </g>
     <g id="text_38">
      <!-- 1 -->
      <g transform="translate(80.195625 791.528125)scale(0.12 -0.12)">
       <use xlink:href="#BitstreamVeraSans-Roman-31"/>
      </g>
     </g>
    </g>
    <g id="xtick_19">
     <g id="line2d_76">
      <g>
       <use style="stroke:#000000;stroke-width:0.5;" x="138.6" xlink:href="#m93b0483c22" y="778.41"/>
      </g>
     </g>
     <g id="line2d_77">
      <g>
       <use style="stroke:#000000;stroke-width:0.5;" x="138.6" xlink:href="#m741efc42ff" y="659.113448276"/>
      </g>
     </g>
     <g id="text_39">
      <!-- 2 -->
      <g transform="translate(135.823125 791.528125)scale(0.12 -0.12)">
       <use xlink:href="#BitstreamVeraSans-Roman-32"/>
      </g>
     </g>
    </g>
    <g id="xtick_20">
     <g id="line2d_78">
      <g>
       <use style="stroke:#000000;stroke-width:0.5;" x="194.4" xlink:href="#m93b0483c22" y="778.41"/>
      </g>
     </g>
     <g id="line2d_79">
      <g>
       <use style="stroke:#000000;stroke-width:0.5;" x="194.4" xlink:href="#m741efc42ff" y="659.113448276"/>
      </g>
     </g>
     <g id="text_40">
      <!-- 3 -->
      <g transform="translate(191.5209375 791.528125)scale(0.12 -0.12)">
       <use xlink:href="#BitstreamVeraSans-Roman-33"/>
      </g>
     </g>
    </g>
    <g id="text_41">
     <!-- Pulse Area ($\pi$ Units) -->
     <g transform="translate(51.66 808.141875)scale(0.12 -0.12)">
      <use transform="translate(0.0 0.015625)" xlink:href="#BitstreamVeraSans-Roman-50"/>
      <use transform="translate(60.302734375 0.015625)" xlink:href="#BitstreamVeraSans-Roman-75"/>
      <use transform="translate(123.681640625 0.015625)" xlink:href="#BitstreamVeraSans-Roman-6c"/>
      <use transform="translate(151.46484375 0.015625)" xlink:href="#BitstreamVeraSans-Roman-73"/>
      <use transform="translate(203.564453125 0.015625)" xlink:href="#BitstreamVeraSans-Roman-65"/>
      <use transform="translate(265.087890625 0.015625)" xlink:href="#BitstreamVeraSans-Roman-20"/>
      <use transform="translate(296.875 0.015625)" xlink:href="#BitstreamVeraSans-Roman-41"/>
      <use transform="translate(365.283203125 0.015625)" xlink:href="#BitstreamVeraSans-Roman-72"/>
      <use transform="translate(406.396484375 0.015625)" xlink:href="#BitstreamVeraSans-Roman-65"/>
      <use transform="translate(467.919921875 0.015625)" xlink:href="#BitstreamVeraSans-Roman-61"/>
      <use transform="translate(529.19921875 0.015625)" xlink:href="#BitstreamVeraSans-Roman-20"/>
      <use transform="translate(560.986328125 0.015625)" xlink:href="#BitstreamVeraSans-Roman-28"/>
      <use transform="translate(600.0 0.015625)" xlink:href="#Cmmi10-bc"/>
      <use transform="translate(656.982421875 0.015625)" xlink:href="#BitstreamVeraSans-Roman-20"/>
      <use transform="translate(688.76953125 0.015625)" xlink:href="#BitstreamVeraSans-Roman-55"/>
      <use transform="translate(761.962890625 0.015625)" xlink:href="#BitstreamVeraSans-Roman-6e"/>
      <use transform="translate(825.341796875 0.015625)" xlink:href="#BitstreamVeraSans-Roman-69"/>
      <use transform="translate(853.125 0.015625)" xlink:href="#BitstreamVeraSans-Roman-74"/>
      <use transform="translate(892.333984375 0.015625)" xlink:href="#BitstreamVeraSans-Roman-73"/>
      <use transform="translate(944.43359375 0.015625)" xlink:href="#BitstreamVeraSans-Roman-29"/>
     </g>
    </g>
   </g>
   <g id="matplotlib.axis_10">
    <g id="ytick_13">
     <g id="line2d_80">
      <g>
       <use style="stroke:#000000;stroke-width:0.5;" x="27.0" xlink:href="#m728421d6d4" y="768.46862069"/>
      </g>
     </g>
     <g id="line2d_81">
      <g>
       <use style="stroke:#000000;stroke-width:0.5;" x="194.4" xlink:href="#mcb0005524f" y="768.46862069"/>
      </g>
     </g>
     <g id="text_42">
      <!-- 0.0 -->
      <g transform="translate(5.504375 771.77987069)scale(0.12 -0.12)">
       <use xlink:href="#BitstreamVeraSans-Roman-30"/>
       <use x="63.623046875" xlink:href="#BitstreamVeraSans-Roman-2e"/>
       <use x="95.41015625" xlink:href="#BitstreamVeraSans-Roman-30"/>
      </g>
     </g>
    </g>
    <g id="ytick_14">
     <g id="line2d_82">
      <g>
       <use style="stroke:#000000;stroke-width:0.5;" x="27.0" xlink:href="#m728421d6d4" y="718.761724138"/>
      </g>
     </g>
     <g id="line2d_83">
      <g>
       <use style="stroke:#000000;stroke-width:0.5;" x="194.4" xlink:href="#mcb0005524f" y="718.761724138"/>
      </g>
     </g>
     <g id="text_43">
      <!-- 0.5 -->
      <g transform="translate(5.755625 722.072974138)scale(0.12 -0.12)">
       <use xlink:href="#BitstreamVeraSans-Roman-30"/>
       <use x="63.623046875" xlink:href="#BitstreamVeraSans-Roman-2e"/>
       <use x="95.41015625" xlink:href="#BitstreamVeraSans-Roman-35"/>
      </g>
     </g>
    </g>
    <g id="ytick_15">
     <g id="line2d_84">
      <g>
       <use style="stroke:#000000;stroke-width:0.5;" x="27.0" xlink:href="#m728421d6d4" y="669.054827586"/>
      </g>
     </g>
     <g id="line2d_85">
      <g>
       <use style="stroke:#000000;stroke-width:0.5;" x="194.4" xlink:href="#mcb0005524f" y="669.054827586"/>
      </g>
     </g>
     <g id="text_44">
      <!-- 1.0 -->
      <g transform="translate(6.03125 672.366077586)scale(0.12 -0.12)">
       <use xlink:href="#BitstreamVeraSans-Roman-31"/>
       <use x="63.623046875" xlink:href="#BitstreamVeraSans-Roman-2e"/>
       <use x="95.41015625" xlink:href="#BitstreamVeraSans-Roman-30"/>
      </g>
     </g>
    </g>
    <g id="text_45">
     <!-- Occupation -->
     <g transform="translate(-1.99125 752.018599138)rotate(-90.0)scale(0.12 -0.12)">
      <use xlink:href="#BitstreamVeraSans-Roman-4f"/>
      <use x="78.7109375" xlink:href="#BitstreamVeraSans-Roman-63"/>
      <use x="133.69140625" xlink:href="#BitstreamVeraSans-Roman-63"/>
      <use x="188.671875" xlink:href="#BitstreamVeraSans-Roman-75"/>
      <use x="252.05078125" xlink:href="#BitstreamVeraSans-Roman-70"/>
      <use x="315.52734375" xlink:href="#BitstreamVeraSans-Roman-61"/>
      <use x="376.806640625" xlink:href="#BitstreamVeraSans-Roman-74"/>
      <use x="416.015625" xlink:href="#BitstreamVeraSans-Roman-69"/>
      <use x="443.798828125" xlink:href="#BitstreamVeraSans-Roman-6f"/>
      <use x="504.98046875" xlink:href="#BitstreamVeraSans-Roman-6e"/>
     </g>
    </g>
   </g>
   <g id="legend_1">
    <g id="patch_27">
     <path d="
M-17.7514 822.996
L239.151 822.996
L239.151 797.54
L-17.7514 797.54
z
" style="fill:#ffffff;stroke:#000000;stroke-linejoin:miter;"/>
    </g>
    <g id="line2d_86">
     <path d="
M-7.67137 809.201
M-1 809.201
L12.4886 809.201" style="fill:none;stroke:#0000ff;stroke-linecap:square;"/>
    </g>
    <g id="line2d_87"/>
    <g id="text_46">
     <!-- XX -->
     <defs>
      <path d="
M6.29688 72.9062
L16.8906 72.9062
L35.0156 45.7969
L53.2188 72.9062
L63.8125 72.9062
L40.375 37.8906
L65.375 0
L54.7812 0
L34.2812 31
L13.625 0
L2.98438 0
L29 38.9219
z
" id="BitstreamVeraSans-Roman-58"/>
     </defs>
     <g transform="translate(28.328625 814.241405172)scale(0.144 -0.144)">
      <use xlink:href="#BitstreamVeraSans-Roman-58"/>
      <use x="68.505859375" xlink:href="#BitstreamVeraSans-Roman-58"/>
     </g>
    </g>
    <g id="line2d_88">
     <path d="
M80.2969 809.201
L100.457 809.201" style="fill:none;stroke:#008000;stroke-linecap:square;"/>
    </g>
    <g id="line2d_89"/>
    <g id="text_47">
     <!-- YY -->
     <defs>
      <path d="
M-0.203125 72.9062
L10.4062 72.9062
L30.6094 42.9219
L50.6875 72.9062
L61.2812 72.9062
L35.5 34.7188
L35.5 0
L25.5938 0
L25.5938 34.7188
z
" id="BitstreamVeraSans-Roman-59"/>
     </defs>
     <g transform="translate(116.296875 814.241405172)scale(0.144 -0.144)">
      <use xlink:href="#BitstreamVeraSans-Roman-59"/>
      <use x="61.083984375" xlink:href="#BitstreamVeraSans-Roman-59"/>
     </g>
    </g>
    <g id="line2d_90">
     <path d="
M167.066 809.201
L187.226 809.201" style="fill:none;stroke:#ff0000;stroke-linecap:square;"/>
    </g>
    <g id="line2d_91"/>
    <g id="text_48">
     <!-- X+Y -->
     <defs>
      <path d="
M46 62.7031
L46 35.5
L73.1875 35.5
L73.1875 27.2031
L46 27.2031
L46 0
L37.7969 0
L37.7969 27.2031
L10.5938 27.2031
L10.5938 35.5
L37.7969 35.5
L37.7969 62.7031
z
" id="BitstreamVeraSans-Roman-2b"/>
     </defs>
     <g transform="translate(203.065875 814.241405172)scale(0.144 -0.144)">
      <use xlink:href="#BitstreamVeraSans-Roman-58"/>
      <use x="68.505859375" xlink:href="#BitstreamVeraSans-Roman-2b"/>
      <use x="152.294921875" xlink:href="#BitstreamVeraSans-Roman-59"/>
     </g>
    </g>
   </g>
  </g>
 </g>
 <defs>
  <clipPath id="pfffad55e87">
   <rect height="119.296551724" width="167.4" x="27.0" y="372.801724138"/>
  </clipPath>
  <clipPath id="pd142038e8a">
   <rect height="119.296551724" width="167.4" x="27.0" y="515.957586207"/>
  </clipPath>
  <clipPath id="pbccaa5801f">
   <rect height="119.296551724" width="167.4" x="27.0" y="229.645862069"/>
  </clipPath>
  <clipPath id="p221d5070c3">
   <rect height="119.296551724" width="167.4" x="27.0" y="86.49"/>
  </clipPath>
  <clipPath id="pf0b86a3202">
   <rect height="119.296551724" width="167.4" x="27.0" y="659.113448276"/>
  </clipPath>
 </defs>
</svg>
