<?xml version="1.0" encoding="UTF-8" standalone="no"?>
<!-- Created with matplotlib (http://matplotlib.org/) -->

<svg
   xmlns:dc="http://purl.org/dc/elements/1.1/"
   xmlns:cc="http://creativecommons.org/ns#"
   xmlns:rdf="http://www.w3.org/1999/02/22-rdf-syntax-ns#"
   xmlns:svg="http://www.w3.org/2000/svg"
   xmlns="http://www.w3.org/2000/svg"
   xmlns:xlink="http://www.w3.org/1999/xlink"
   xmlns:sodipodi="http://sodipodi.sourceforge.net/DTD/sodipodi-0.dtd"
   xmlns:inkscape="http://www.inkscape.org/namespaces/inkscape"
   height="432pt"
   version="1.1"
   viewBox="0 0 576 432"
   width="576pt"
   id="svg492"
   sodipodi:docname="Dot2_1162.861nm.svg"
   inkscape:version="0.92.4 (unknown)">
  <metadata
     id="metadata496">
    <rdf:RDF>
      <cc:Work
         rdf:about="">
        <dc:format>image/svg+xml</dc:format>
        <dc:type
           rdf:resource="http://purl.org/dc/dcmitype/StillImage" />
      </cc:Work>
    </rdf:RDF>
  </metadata>
  <sodipodi:namedview
     pagecolor="#ffffff"
     bordercolor="#666666"
     borderopacity="1"
     objecttolerance="10"
     gridtolerance="10"
     guidetolerance="10"
     inkscape:pageopacity="0"
     inkscape:pageshadow="2"
     inkscape:window-width="1920"
     inkscape:window-height="1028"
     id="namedview494"
     showgrid="false"
     inkscape:zoom="0.33463542"
     inkscape:cx="50.801556"
     inkscape:cy="288"
     inkscape:window-x="0"
     inkscape:window-y="0"
     inkscape:window-maximized="1"
     inkscape:current-layer="svg492" />
  <defs
     id="defs4">
    <style
       type="text/css"
       id="style2">
*{stroke-linecap:butt;stroke-linejoin:round;stroke-miterlimit:100000;}
  </style>
  </defs>
  <g
     id="figure_1"
     inkscape:export-xdpi="300"
     inkscape:export-ydpi="300">
    <g
       id="patch_1">
      <path
         d="M 0 432  L 576 432  L 576 0  L 0 0  z "
         style="fill:#ffffff;"
         id="path6" />
    </g>
    <g
       id="axes_1">
      <g
         id="patch_2">
        <path
           d="M 71.424 357.264  L 518.4 357.264  L 518.4 43.2  L 71.424 43.2  z "
           style="fill:#ffffff;"
           id="path9" />
      </g>
      <g
         id="line2d_1">
        <path
           clip-path="url(#p653a8f52af)"
           d="M 75.89376 323.806694  L 80.36352 303.419215  L 84.83328 273.905644  L 89.30304 240.628623  L 93.7728 208.943981  L 98.24256 183.011845  L 102.71232 165.145212  L 107.18208 155.777803  L 111.65184 153.903733  L 116.1216 157.725796  L 120.59136 165.265888  L 125.06112 174.785655  L 129.53088 184.983798  L 134.00064 195.014142  L 138.4704 204.402395  L 142.94016 212.931061  L 147.40992 220.535691  L 151.87968 227.230377  L 156.34944 233.062274  L 160.8192 238.087501  L 165.28896 242.360158  L 169.75872 245.928073  L 174.22848 248.831419  L 178.69824 251.102543  L 183.168 252.76625  L 187.63776 253.840339  L 192.10752 254.336313  L 196.57728 254.260331  L 201.04704 253.61433  L 205.5168 252.397339  L 209.98656 250.607005  L 214.45632 248.241179  L 218.92608 245.299717  L 223.39584 241.786208  L 227.8656 237.7097  L 232.33536 233.086243  L 236.80512 227.940194  L 241.27488 222.305043  L 245.74464 216.223788  L 250.2144 209.74879  L 254.68416 202.941058  L 259.15392 195.868755  L 263.62368 188.605594  L 268.09344 181.228364  L 272.5632 173.814909  L 277.03296 166.4413  L 281.50272 159.179783  L 285.97248 152.096535  L 290.44224 145.25007  L 294.912 138.690041  L 299.38176 132.456491  L 303.85152 126.579595  L 308.32128 121.079956  L 312.79104 115.969071  L 317.2608 111.250253  L 321.73056 106.919624  L 326.20032 102.967292  L 330.67008 99.378561  L 335.13984 96.135032  L 339.6096 93.215685  L 344.07936 90.597873  L 348.54912 88.258086  L 353.01888 86.172719  L 357.48864 84.31858  L 361.9584 82.6733  L 366.42816 81.215674  L 370.89792 79.925872  L 375.36768 78.785525  L 379.83744 77.777816  L 384.3072 76.887479  L 388.77696 76.100747  L 393.24672 75.405285  L 397.71648 74.7901  L 402.18624 74.245446  L 406.656 73.762721  L 411.12576 73.334371  L 415.59552 72.953734  L 420.06528 72.614998  L 424.53504 72.313062  L 429.0048 72.043495  L 433.47456 71.802425  L 437.94432 71.586476  L 442.41408 71.392691  L 446.88384 71.218491  L 451.3536 71.061638  L 455.82336 70.920179  L 460.29312 70.792399  L 464.76288 70.676782  L 469.23264 70.572007  L 473.7024 70.476919  L 478.17216 70.390509  L 482.64192 70.311877  L 487.11168 70.24022  L 491.58144 70.174826  L 496.0512 70.115079  L 500.52096 70.060438  L 504.99072 70.010409  L 509.46048 69.964541  L 513.93024 69.922434  L 518.4 69.883747  "
           style="fill:none;stroke:#0000ff;stroke-linecap:square;"
           id="path12" />
      </g>
      <g
         id="line2d_2">
        <path
           clip-path="url(#p653a8f52af)"
           d="M 75.89376 324.717789  L 80.36352 306.526551  L 84.83328 278.87341  L 89.30304 244.657353  L 93.7728 206.776505  L 98.24256 168.17879  L 102.71232 132.127021  L 107.18208 102.160153  L 111.65184 81.601058  L 116.1216 72.887703  L 120.59136 77.102621  L 125.06112 93.848893  L 129.53088 121.386102  L 134.00064 156.893532  L 138.4704 196.789555  L 142.94016 237.091723  L 147.40992 273.801326  L 151.87968 303.288864  L 156.34944 322.644864  L 160.8192 329.962419  L 165.28896 324.521003  L 169.75872 306.855553  L 174.22848 278.702475  L 178.69824 242.827876  L 183.168 202.755911  L 187.63776 162.421179  L 192.10752 125.784212  L 196.57728 96.441439  L 201.04704 77.273493  L 205.5168 70.162106  L 209.98656 75.806306  L 214.45632 93.653934  L 218.92608 121.956163  L 223.39584 157.938387  L 227.8656 198.074061  L 232.33536 238.428098  L 236.80512 275.044948  L 241.27488 304.334805  L 245.74464 323.426276  L 250.2144 330.447267  L 254.68416 324.708672  L 259.15392 306.771751  L 263.62368 278.393302  L 268.09344 242.353187  L 272.5632 202.182035  L 277.03296 161.815759  L 281.50272 125.20868  L 285.97248 95.947973  L 290.44224 76.900719  L 294.912 69.933299  L 299.38176 75.729207  L 303.85152 93.721366  L 308.32128 122.148167  L 312.79104 158.225526  L 317.2608 198.420415  L 321.73056 238.7953  L 326.20032 275.39621  L 330.67008 304.63746  L 335.13984 323.655169  L 339.6096 330.5859  L 344.07936 324.750391  L 348.54912 306.719602  L 353.01888 278.258487  L 357.48864 242.154588  L 361.9584 201.943283  L 366.42816 161.561769  L 370.89792 124.965479  L 375.36768 95.738024  L 379.83744 76.742108  L 384.3072 69.838365  L 388.77696 75.703313  L 393.24672 93.763035  L 397.71648 122.249599  L 402.18624 158.373682  L 406.656 198.598497  L 411.12576 238.984577  L 415.59552 275.577617  L 420.06528 304.794178  L 424.53504 323.773247  L 429.0048 330.655905  L 433.47456 324.767958  L 437.94432 306.685496  L 442.41408 278.178444  L 446.88384 242.038571  L 451.3536 201.803791  L 455.82336 161.413557  L 460.29312 124.823364  L 464.76288 95.615155  L 469.23264 76.649805  L 473.7024 69.784093  L 478.17216 75.690695  L 482.64192 93.791963  L 487.11168 122.3154  L 491.58144 158.468125  L 496.0512 198.711549  L 500.52096 239.10506  L 504.99072 275.693179  L 509.46048 304.893924  L 513.93024 323.84788  L 518.4 330.699518  "
           style="fill:none;stroke:#008000;stroke-linecap:square;"
           id="path15" />
      </g>
      <g
         id="line2d_3">
        <path
           clip-path="url(#p653a8f52af)"
           d="M 75.89376 324.090039  L 80.36352 304.293178  L 84.83328 274.995495  L 89.30304 240.70162  L 93.7728 206.025095  L 98.24256 174.723506  L 102.71232 149.131895  L 107.18208 130.071689  L 111.65184 117.140991  L 116.1216 109.194036  L 120.59136 104.822019  L 125.06112 102.707064  L 129.53088 101.812824  L 134.00064 101.432015  L 138.4704 101.145369  L 142.94016 100.743704  L 147.40992 100.150055  L 151.87968 99.359192  L 156.34944 98.398142  L 160.8192 97.303971  L 165.28896 96.113127  L 169.75872 94.857303  L 174.22848 93.562497  L 178.69824 92.249399  L 183.168 90.934175  L 187.63776 89.62931  L 192.10752 88.344364  L 196.57728 87.086621  L 201.04704 85.861635  L 205.5168 84.673658  L 209.98656 83.525986  L 214.45632 82.421241  L 218.92608 81.361554  L 223.39584 80.348709  L 227.8656 79.384229  L 232.33536 78.469409  L 236.80512 77.605339  L 241.27488 76.792872  L 245.74464 76.032595  L 250.2144 75.324779  L 254.68416 74.669343  L 259.15392 74.065815  L 263.62368 73.513305  L 268.09344 73.010504  L 272.5632 72.55569  L 277.03296 72.146767  L 281.50272 71.781306  L 285.97248 71.456617  L 290.44224 71.169805  L 294.912 70.917856  L 299.38176 70.697696  L 303.85152 70.50627  L 308.32128 70.340599  L 312.79104 70.197828  L 317.2608 70.075273  L 321.73056 69.970429  L 326.20032 69.881006  L 330.67008 69.804927  L 335.13984 69.74034  L 339.6096 69.685601  L 344.07936 69.639265  L 348.54912 69.60007  L 353.01888 69.566922  L 357.48864 69.538887  L 361.9584 69.515168  L 366.42816 69.495088  L 370.89792 69.478067  L 375.36768 69.463614  L 379.83744 69.451319  L 384.3072 69.440844  L 388.77696 69.431905  L 393.24672 69.424259  L 397.71648 69.417699  L 402.18624 69.412053  L 406.656 69.407186  L 411.12576 69.402986  L 415.59552 69.399353  L 420.06528 69.396196  L 424.53504 69.393442  L 429.0048 69.391037  L 433.47456 69.38894  L 437.94432 69.387107  L 442.41408 69.385496  L 446.88384 69.384071  L 451.3536 69.382811  L 455.82336 69.381703  L 460.29312 69.38073  L 464.76288 69.379865  L 469.23264 69.379088  L 473.7024 69.378393  L 478.17216 69.37778  L 482.64192 69.37724  L 487.11168 69.376756  L 491.58144 69.376313  L 496.0512 69.375912  L 500.52096 69.375559  L 504.99072 69.375251  L 509.46048 69.37497  L 513.93024 69.374706  L 518.4 69.374465  "
           style="fill:none;stroke:#ff0000;stroke-linecap:square;"
           id="path18" />
      </g>
      <g
         id="patch_3">
        <path
           d="M 71.424 43.2  L 518.4 43.2  "
           style="fill:none;stroke:#000000;stroke-linecap:square;stroke-linejoin:miter;"
           id="path21" />
      </g>
      <g
         id="patch_4">
        <path
           d="M 518.4 357.264  L 518.4 43.2  "
           style="fill:none;stroke:#000000;stroke-linecap:square;stroke-linejoin:miter;"
           id="path24" />
      </g>
      <g
         id="patch_5">
        <path
           d="M 71.424 357.264  L 518.4 357.264  "
           style="fill:none;stroke:#000000;stroke-linecap:square;stroke-linejoin:miter;"
           id="path27" />
      </g>
      <g
         id="patch_6">
        <path
           d="M 71.424 357.264  L 71.424 43.2  "
           style="fill:none;stroke:#000000;stroke-linecap:square;stroke-linejoin:miter;"
           id="path30" />
      </g>
      <g
         id="matplotlib.axis_1">
        <g
           id="xtick_1">
          <g
             id="line2d_4">
            <path
               clip-path="url(#p653a8f52af)"
               d="M 71.424 357.264  L 71.424 43.2  "
               style="fill:none;stroke:#000000;stroke-dasharray:1.000000,3.000000;stroke-dashoffset:0.0;stroke-width:0.5;"
               id="path33" />
          </g>
          <g
             id="line2d_5">
            <defs
               id="defs37">
              <path
                 d="M 0 0  L 0 -4  "
                 id="m9fcdc86d2d"
                 style="stroke:#000000;stroke-width:0.5;" />
            </defs>
            <g
               id="g41">
              <use
                 style="stroke:#000000;stroke-width:0.5;"
                 x="71.424"
                 xlink:href="#m9fcdc86d2d"
                 y="357.264"
                 id="use39" />
            </g>
          </g>
          <g
             id="line2d_6">
            <defs
               id="defs45">
              <path
                 d="M 0 0  L 0 4  "
                 id="mf6738e8876"
                 style="stroke:#000000;stroke-width:0.5;" />
            </defs>
            <g
               id="g49">
              <use
                 style="stroke:#000000;stroke-width:0.5;"
                 x="71.424"
                 xlink:href="#mf6738e8876"
                 y="43.19999999999999"
                 id="use47" />
            </g>
          </g>
          <g
             id="text_1">
            <!-- 0 -->
            <defs
               id="defs53">
              <path
                 d="M 31.78125 66.40625  Q 24.171875 66.40625 20.328125 58.90625  Q 16.5 51.421875 16.5 36.375  Q 16.5 21.390625 20.328125 13.890625  Q 24.171875 6.390625 31.78125 6.390625  Q 39.453125 6.390625 43.28125 13.890625  Q 47.125 21.390625 47.125 36.375  Q 47.125 51.421875 43.28125 58.90625  Q 39.453125 66.40625 31.78125 66.40625  M 31.78125 74.21875  Q 44.046875 74.21875 50.515625 64.515625  Q 56.984375 54.828125 56.984375 36.375  Q 56.984375 17.96875 50.515625 8.265625  Q 44.046875 -1.421875 31.78125 -1.421875  Q 19.53125 -1.421875 13.0625 8.265625  Q 6.59375 17.96875 6.59375 36.375  Q 6.59375 54.828125 13.0625 64.515625  Q 19.53125 74.21875 31.78125 74.21875  "
                 id="BitstreamVeraSans-Roman-30" />
            </defs>
            <g
               transform="translate(67.60650000000001 370.38212500000003)scale(0.12 -0.12)"
               id="g57">
              <use
                 xlink:href="#BitstreamVeraSans-Roman-30"
                 id="use55" />
            </g>
          </g>
        </g>
        <g
           id="xtick_2">
          <g
             id="line2d_7">
            <path
               clip-path="url(#p653a8f52af)"
               d="M 160.8192 357.264  L 160.8192 43.2  "
               style="fill:none;stroke:#000000;stroke-dasharray:1.000000,3.000000;stroke-dashoffset:0.0;stroke-width:0.5;"
               id="path61" />
          </g>
          <g
             id="line2d_8">
            <g
               id="g66">
              <use
                 style="stroke:#000000;stroke-width:0.5;"
                 x="160.81920000000002"
                 xlink:href="#m9fcdc86d2d"
                 y="357.264"
                 id="use64" />
            </g>
          </g>
          <g
             id="line2d_9">
            <g
               id="g71">
              <use
                 style="stroke:#000000;stroke-width:0.5;"
                 x="160.81920000000002"
                 xlink:href="#mf6738e8876"
                 y="43.19999999999999"
                 id="use69" />
            </g>
          </g>
          <g
             id="text_2">
            <!-- 2 -->
            <defs
               id="defs75">
              <path
                 d="M 19.1875 8.296875  L 53.609375 8.296875  L 53.609375 0  L 7.328125 0  L 7.328125 8.296875  Q 12.9375 14.109375 22.625 23.890625  Q 32.328125 33.6875 34.8125 36.53125  Q 39.546875 41.84375 41.421875 45.53125  Q 43.3125 49.21875 43.3125 52.78125  Q 43.3125 58.59375 39.234375 62.25  Q 35.15625 65.921875 28.609375 65.921875  Q 23.96875 65.921875 18.8125 64.3125  Q 13.671875 62.703125 7.8125 59.421875  L 7.8125 69.390625  Q 13.765625 71.78125 18.9375 73  Q 24.125 74.21875 28.421875 74.21875  Q 39.75 74.21875 46.484375 68.546875  Q 53.21875 62.890625 53.21875 53.421875  Q 53.21875 48.921875 51.53125 44.890625  Q 49.859375 40.875 45.40625 35.40625  Q 44.1875 33.984375 37.640625 27.21875  Q 31.109375 20.453125 19.1875 8.296875  "
                 id="BitstreamVeraSans-Roman-32" />
            </defs>
            <g
               transform="translate(157.00170000000003 370.38212500000003)scale(0.12 -0.12)"
               id="g79">
              <use
                 xlink:href="#BitstreamVeraSans-Roman-32"
                 id="use77" />
            </g>
          </g>
        </g>
        <g
           id="xtick_3">
          <g
             id="line2d_10">
            <path
               clip-path="url(#p653a8f52af)"
               d="M 250.2144 357.264  L 250.2144 43.2  "
               style="fill:none;stroke:#000000;stroke-dasharray:1.000000,3.000000;stroke-dashoffset:0.0;stroke-width:0.5;"
               id="path83" />
          </g>
          <g
             id="line2d_11">
            <g
               id="g88">
              <use
                 style="stroke:#000000;stroke-width:0.5;"
                 x="250.2144"
                 xlink:href="#m9fcdc86d2d"
                 y="357.264"
                 id="use86" />
            </g>
          </g>
          <g
             id="line2d_12">
            <g
               id="g93">
              <use
                 style="stroke:#000000;stroke-width:0.5;"
                 x="250.2144"
                 xlink:href="#mf6738e8876"
                 y="43.19999999999999"
                 id="use91" />
            </g>
          </g>
          <g
             id="text_3">
            <!-- 4 -->
            <defs
               id="defs97">
              <path
                 d="M 37.796875 64.3125  L 12.890625 25.390625  L 37.796875 25.390625  z M 35.203125 72.90625  L 47.609375 72.90625  L 47.609375 25.390625  L 58.015625 25.390625  L 58.015625 17.1875  L 47.609375 17.1875  L 47.609375 0  L 37.796875 0  L 37.796875 17.1875  L 4.890625 17.1875  L 4.890625 26.703125  z "
                 id="BitstreamVeraSans-Roman-34" />
            </defs>
            <g
               transform="translate(246.39690000000002 370.38212500000003)scale(0.12 -0.12)"
               id="g101">
              <use
                 xlink:href="#BitstreamVeraSans-Roman-34"
                 id="use99" />
            </g>
          </g>
        </g>
        <g
           id="xtick_4">
          <g
             id="line2d_13">
            <path
               clip-path="url(#p653a8f52af)"
               d="M 339.6096 357.264  L 339.6096 43.2  "
               style="fill:none;stroke:#000000;stroke-dasharray:1.000000,3.000000;stroke-dashoffset:0.0;stroke-width:0.5;"
               id="path105" />
          </g>
          <g
             id="line2d_14">
            <g
               id="g110">
              <use
                 style="stroke:#000000;stroke-width:0.5;"
                 x="339.6096"
                 xlink:href="#m9fcdc86d2d"
                 y="357.264"
                 id="use108" />
            </g>
          </g>
          <g
             id="line2d_15">
            <g
               id="g115">
              <use
                 style="stroke:#000000;stroke-width:0.5;"
                 x="339.6096"
                 xlink:href="#mf6738e8876"
                 y="43.19999999999999"
                 id="use113" />
            </g>
          </g>
          <g
             id="text_4">
            <!-- 6 -->
            <defs
               id="defs119">
              <path
                 d="M 33.015625 40.375  Q 26.375 40.375 22.484375 35.828125  Q 18.609375 31.296875 18.609375 23.390625  Q 18.609375 15.53125 22.484375 10.953125  Q 26.375 6.390625 33.015625 6.390625  Q 39.65625 6.390625 43.53125 10.953125  Q 47.40625 15.53125 47.40625 23.390625  Q 47.40625 31.296875 43.53125 35.828125  Q 39.65625 40.375 33.015625 40.375  M 52.59375 71.296875  L 52.59375 62.3125  Q 48.875 64.0625 45.09375 64.984375  Q 41.3125 65.921875 37.59375 65.921875  Q 27.828125 65.921875 22.671875 59.328125  Q 17.53125 52.734375 16.796875 39.40625  Q 19.671875 43.65625 24.015625 45.921875  Q 28.375 48.1875 33.59375 48.1875  Q 44.578125 48.1875 50.953125 41.515625  Q 57.328125 34.859375 57.328125 23.390625  Q 57.328125 12.15625 50.6875 5.359375  Q 44.046875 -1.421875 33.015625 -1.421875  Q 20.359375 -1.421875 13.671875 8.265625  Q 6.984375 17.96875 6.984375 36.375  Q 6.984375 53.65625 15.1875 63.9375  Q 23.390625 74.21875 37.203125 74.21875  Q 40.921875 74.21875 44.703125 73.484375  Q 48.484375 72.75 52.59375 71.296875  "
                 id="BitstreamVeraSans-Roman-36" />
            </defs>
            <g
               transform="translate(335.7921 370.38212500000003)scale(0.12 -0.12)"
               id="g123">
              <use
                 xlink:href="#BitstreamVeraSans-Roman-36"
                 id="use121" />
            </g>
          </g>
        </g>
        <g
           id="xtick_5">
          <g
             id="line2d_16">
            <path
               clip-path="url(#p653a8f52af)"
               d="M 429.0048 357.264  L 429.0048 43.2  "
               style="fill:none;stroke:#000000;stroke-dasharray:1.000000,3.000000;stroke-dashoffset:0.0;stroke-width:0.5;"
               id="path127" />
          </g>
          <g
             id="line2d_17">
            <g
               id="g132">
              <use
                 style="stroke:#000000;stroke-width:0.5;"
                 x="429.00480000000005"
                 xlink:href="#m9fcdc86d2d"
                 y="357.264"
                 id="use130" />
            </g>
          </g>
          <g
             id="line2d_18">
            <g
               id="g137">
              <use
                 style="stroke:#000000;stroke-width:0.5;"
                 x="429.00480000000005"
                 xlink:href="#mf6738e8876"
                 y="43.19999999999999"
                 id="use135" />
            </g>
          </g>
          <g
             id="text_5">
            <!-- 8 -->
            <defs
               id="defs141">
              <path
                 d="M 31.78125 34.625  Q 24.75 34.625 20.71875 30.859375  Q 16.703125 27.09375 16.703125 20.515625  Q 16.703125 13.921875 20.71875 10.15625  Q 24.75 6.390625 31.78125 6.390625  Q 38.8125 6.390625 42.859375 10.171875  Q 46.921875 13.96875 46.921875 20.515625  Q 46.921875 27.09375 42.890625 30.859375  Q 38.875 34.625 31.78125 34.625  M 21.921875 38.8125  Q 15.578125 40.375 12.03125 44.71875  Q 8.5 49.078125 8.5 55.328125  Q 8.5 64.0625 14.71875 69.140625  Q 20.953125 74.21875 31.78125 74.21875  Q 42.671875 74.21875 48.875 69.140625  Q 55.078125 64.0625 55.078125 55.328125  Q 55.078125 49.078125 51.53125 44.71875  Q 48 40.375 41.703125 38.8125  Q 48.828125 37.15625 52.796875 32.3125  Q 56.78125 27.484375 56.78125 20.515625  Q 56.78125 9.90625 50.3125 4.234375  Q 43.84375 -1.421875 31.78125 -1.421875  Q 19.734375 -1.421875 13.25 4.234375  Q 6.78125 9.90625 6.78125 20.515625  Q 6.78125 27.484375 10.78125 32.3125  Q 14.796875 37.15625 21.921875 38.8125  M 18.3125 54.390625  Q 18.3125 48.734375 21.84375 45.5625  Q 25.390625 42.390625 31.78125 42.390625  Q 38.140625 42.390625 41.71875 45.5625  Q 45.3125 48.734375 45.3125 54.390625  Q 45.3125 60.0625 41.71875 63.234375  Q 38.140625 66.40625 31.78125 66.40625  Q 25.390625 66.40625 21.84375 63.234375  Q 18.3125 60.0625 18.3125 54.390625  "
                 id="BitstreamVeraSans-Roman-38" />
            </defs>
            <g
               transform="translate(425.18730000000005 370.38212500000003)scale(0.12 -0.12)"
               id="g145">
              <use
                 xlink:href="#BitstreamVeraSans-Roman-38"
                 id="use143" />
            </g>
          </g>
        </g>
        <g
           id="xtick_6">
          <g
             id="line2d_19">
            <path
               clip-path="url(#p653a8f52af)"
               d="M 518.4 357.264  L 518.4 43.2  "
               style="fill:none;stroke:#000000;stroke-dasharray:1.000000,3.000000;stroke-dashoffset:0.0;stroke-width:0.5;"
               id="path149" />
          </g>
          <g
             id="line2d_20">
            <g
               id="g154">
              <use
                 style="stroke:#000000;stroke-width:0.5;"
                 x="518.4"
                 xlink:href="#m9fcdc86d2d"
                 y="357.264"
                 id="use152" />
            </g>
          </g>
          <g
             id="line2d_21">
            <g
               id="g159">
              <use
                 style="stroke:#000000;stroke-width:0.5;"
                 x="518.4"
                 xlink:href="#mf6738e8876"
                 y="43.19999999999999"
                 id="use157" />
            </g>
          </g>
          <g
             id="text_6">
            <!-- 10 -->
            <defs
               id="defs163">
              <path
                 d="M 12.40625 8.296875  L 28.515625 8.296875  L 28.515625 63.921875  L 10.984375 60.40625  L 10.984375 69.390625  L 28.421875 72.90625  L 38.28125 72.90625  L 38.28125 8.296875  L 54.390625 8.296875  L 54.390625 0  L 12.40625 0  z "
                 id="BitstreamVeraSans-Roman-31" />
            </defs>
            <g
               transform="translate(510.765 370.38212500000003)scale(0.12 -0.12)"
               id="g169">
              <use
                 xlink:href="#BitstreamVeraSans-Roman-31"
                 id="use165" />
              <use
                 x="63.623046875"
                 xlink:href="#BitstreamVeraSans-Roman-30"
                 id="use167" />
            </g>
          </g>
        </g>
        <g
           id="text_7">
          <!-- Pulse Area ($\pi$ Units) -->
          <defs
             id="defs189">
            <path
               id="BitstreamVeraSans-Roman-20" />
            <path
               d="M 54.890625 33.015625  L 54.890625 0  L 45.90625 0  L 45.90625 32.71875  Q 45.90625 40.484375 42.875 44.328125  Q 39.84375 48.1875 33.796875 48.1875  Q 26.515625 48.1875 22.3125 43.546875  Q 18.109375 38.921875 18.109375 30.90625  L 18.109375 0  L 9.078125 0  L 9.078125 54.6875  L 18.109375 54.6875  L 18.109375 46.1875  Q 21.34375 51.125 25.703125 53.5625  Q 30.078125 56 35.796875 56  Q 45.21875 56 50.046875 50.171875  Q 54.890625 44.34375 54.890625 33.015625  "
               id="BitstreamVeraSans-Roman-6e" />
            <path
               d="M 34.28125 27.484375  Q 23.390625 27.484375 19.1875 25  Q 14.984375 22.515625 14.984375 16.5  Q 14.984375 11.71875 18.140625 8.90625  Q 21.296875 6.109375 26.703125 6.109375  Q 34.1875 6.109375 38.703125 11.40625  Q 43.21875 16.703125 43.21875 25.484375  L 43.21875 27.484375  z M 52.203125 31.203125  L 52.203125 0  L 43.21875 0  L 43.21875 8.296875  Q 40.140625 3.328125 35.546875 0.953125  Q 30.953125 -1.421875 24.3125 -1.421875  Q 15.921875 -1.421875 10.953125 3.296875  Q 6 8.015625 6 15.921875  Q 6 25.140625 12.171875 29.828125  Q 18.359375 34.515625 30.609375 34.515625  L 43.21875 34.515625  L 43.21875 35.40625  Q 43.21875 41.609375 39.140625 45  Q 35.0625 48.390625 27.6875 48.390625  Q 23 48.390625 18.546875 47.265625  Q 14.109375 46.140625 10.015625 43.890625  L 10.015625 52.203125  Q 14.9375 54.109375 19.578125 55.046875  Q 24.21875 56 28.609375 56  Q 40.484375 56 46.34375 49.84375  Q 52.203125 43.703125 52.203125 31.203125  "
               id="BitstreamVeraSans-Roman-61" />
            <path
               d="M 9.421875 75.984375  L 18.40625 75.984375  L 18.40625 0  L 9.421875 0  z "
               id="BitstreamVeraSans-Roman-6c" />
            <path
               d="M 19.671875 64.796875  L 19.671875 37.40625  L 32.078125 37.40625  Q 38.96875 37.40625 42.71875 40.96875  Q 46.484375 44.53125 46.484375 51.125  Q 46.484375 57.671875 42.71875 61.234375  Q 38.96875 64.796875 32.078125 64.796875  z M 9.8125 72.90625  L 32.078125 72.90625  Q 44.34375 72.90625 50.609375 67.359375  Q 56.890625 61.8125 56.890625 51.125  Q 56.890625 40.328125 50.609375 34.8125  Q 44.34375 29.296875 32.078125 29.296875  L 19.671875 29.296875  L 19.671875 0  L 9.8125 0  z "
               id="BitstreamVeraSans-Roman-50" />
            <path
               d="M 8.015625 75.875  L 15.828125 75.875  Q 23.140625 64.359375 26.78125 53.3125  Q 30.421875 42.28125 30.421875 31.390625  Q 30.421875 20.453125 26.78125 9.375  Q 23.140625 -1.703125 15.828125 -13.1875  L 8.015625 -13.1875  Q 14.5 -2 17.703125 9.0625  Q 20.90625 20.125 20.90625 31.390625  Q 20.90625 42.671875 17.703125 53.65625  Q 14.5 64.65625 8.015625 75.875  "
               id="BitstreamVeraSans-Roman-29" />
            <path
               d="M 9.421875 54.6875  L 18.40625 54.6875  L 18.40625 0  L 9.421875 0  z M 9.421875 75.984375  L 18.40625 75.984375  L 18.40625 64.59375  L 9.421875 64.59375  z "
               id="BitstreamVeraSans-Roman-69" />
            <path
               d="M 10.109375 1.703125  Q 10.109375 2.25 10.5 3.328125  Q 13.28125 9.125 15.6875 14.71875  Q 18.109375 20.3125 20.03125 25.609375  Q 21.96875 30.90625 23.578125 36.921875  L 17.1875 36.921875  Q 13.53125 36.921875 10.34375 34.625  Q 7.171875 32.328125 5.078125 28.8125  Q 4.890625 28.421875 4.5 28.421875  L 3.328125 28.421875  Q 2.390625 28.421875 2.390625 29.390625  Q 2.390625 29.59375 2.59375 29.984375  Q 5.859375 35.546875 9.59375 39.328125  Q 13.328125 43.109375 18.015625 43.109375  L 54.296875 43.109375  Q 55.328125 43.109375 56.046875 42.421875  Q 56.78125 41.75 56.78125 40.578125  Q 56.78125 39.109375 55.734375 38.015625  Q 54.6875 36.921875 53.21875 36.921875  L 40.484375 36.921875  Q 38.875 29.046875 38.71875 21.578125  Q 38.71875 11.96875 42.09375 4.203125  Q 42.390625 3.609375 42.390625 2.984375  Q 42.390625 1.90625 41.75 0.96875  Q 41.109375 0.046875 40.109375 -0.53125  Q 39.109375 -1.125 37.984375 -1.125  Q 35.359375 -1.125 34.375 3.171875  Q 33.40625 7.46875 33.40625 11.53125  Q 33.40625 17.234375 34.375 22.53125  Q 35.359375 27.828125 37.5 36.921875  L 26.609375 36.921875  Q 18.703125 4.890625 17.09375 1.609375  Q 15.671875 -1.125 13.1875 -1.125  Q 11.96875 -1.125 11.03125 -0.3125  Q 10.109375 0.484375 10.109375 1.703125  "
               id="Cmmi10-bc" />
            <path
               d="M 34.1875 63.1875  L 20.796875 26.90625  L 47.609375 26.90625  z M 28.609375 72.90625  L 39.796875 72.90625  L 67.578125 0  L 57.328125 0  L 50.6875 18.703125  L 17.828125 18.703125  L 11.1875 0  L 0.78125 0  z "
               id="BitstreamVeraSans-Roman-41" />
            <path
               d="M 31 75.875  Q 24.46875 64.65625 21.28125 53.65625  Q 18.109375 42.671875 18.109375 31.390625  Q 18.109375 20.125 21.3125 9.0625  Q 24.515625 -2 31 -13.1875  L 23.1875 -13.1875  Q 15.875 -1.703125 12.234375 9.375  Q 8.59375 20.453125 8.59375 31.390625  Q 8.59375 42.28125 12.203125 53.3125  Q 15.828125 64.359375 23.1875 75.875  z "
               id="BitstreamVeraSans-Roman-28" />
            <path
               d="M 56.203125 29.59375  L 56.203125 25.203125  L 14.890625 25.203125  Q 15.484375 15.921875 20.484375 11.0625  Q 25.484375 6.203125 34.421875 6.203125  Q 39.59375 6.203125 44.453125 7.46875  Q 49.3125 8.734375 54.109375 11.28125  L 54.109375 2.78125  Q 49.265625 0.734375 44.1875 -0.34375  Q 39.109375 -1.421875 33.890625 -1.421875  Q 20.796875 -1.421875 13.15625 6.1875  Q 5.515625 13.8125 5.515625 26.8125  Q 5.515625 40.234375 12.765625 48.109375  Q 20.015625 56 32.328125 56  Q 43.359375 56 49.78125 48.890625  Q 56.203125 41.796875 56.203125 29.59375  M 47.21875 32.234375  Q 47.125 39.59375 43.09375 43.984375  Q 39.0625 48.390625 32.421875 48.390625  Q 24.90625 48.390625 20.390625 44.140625  Q 15.875 39.890625 15.1875 32.171875  z "
               id="BitstreamVeraSans-Roman-65" />
            <path
               d="M 18.3125 70.21875  L 18.3125 54.6875  L 36.8125 54.6875  L 36.8125 47.703125  L 18.3125 47.703125  L 18.3125 18.015625  Q 18.3125 11.328125 20.140625 9.421875  Q 21.96875 7.515625 27.59375 7.515625  L 36.8125 7.515625  L 36.8125 0  L 27.59375 0  Q 17.1875 0 13.234375 3.875  Q 9.28125 7.765625 9.28125 18.015625  L 9.28125 47.703125  L 2.6875 47.703125  L 2.6875 54.6875  L 9.28125 54.6875  L 9.28125 70.21875  z "
               id="BitstreamVeraSans-Roman-74" />
            <path
               d="M 8.5 21.578125  L 8.5 54.6875  L 17.484375 54.6875  L 17.484375 21.921875  Q 17.484375 14.15625 20.5 10.265625  Q 23.53125 6.390625 29.59375 6.390625  Q 36.859375 6.390625 41.078125 11.03125  Q 45.3125 15.671875 45.3125 23.6875  L 45.3125 54.6875  L 54.296875 54.6875  L 54.296875 0  L 45.3125 0  L 45.3125 8.40625  Q 42.046875 3.421875 37.71875 1  Q 33.40625 -1.421875 27.6875 -1.421875  Q 18.265625 -1.421875 13.375 4.4375  Q 8.5 10.296875 8.5 21.578125  "
               id="BitstreamVeraSans-Roman-75" />
            <path
               d="M 41.109375 46.296875  Q 39.59375 47.171875 37.8125 47.578125  Q 36.03125 48 33.890625 48  Q 26.265625 48 22.1875 43.046875  Q 18.109375 38.09375 18.109375 28.8125  L 18.109375 0  L 9.078125 0  L 9.078125 54.6875  L 18.109375 54.6875  L 18.109375 46.1875  Q 20.953125 51.171875 25.484375 53.578125  Q 30.03125 56 36.53125 56  Q 37.453125 56 38.578125 55.875  Q 39.703125 55.765625 41.0625 55.515625  z "
               id="BitstreamVeraSans-Roman-72" />
            <path
               d="M 44.28125 53.078125  L 44.28125 44.578125  Q 40.484375 46.53125 36.375 47.5  Q 32.28125 48.484375 27.875 48.484375  Q 21.1875 48.484375 17.84375 46.4375  Q 14.5 44.390625 14.5 40.28125  Q 14.5 37.15625 16.890625 35.375  Q 19.28125 33.59375 26.515625 31.984375  L 29.59375 31.296875  Q 39.15625 29.25 43.1875 25.515625  Q 47.21875 21.78125 47.21875 15.09375  Q 47.21875 7.46875 41.1875 3.015625  Q 35.15625 -1.421875 24.609375 -1.421875  Q 20.21875 -1.421875 15.453125 -0.5625  Q 10.6875 0.296875 5.421875 2  L 5.421875 11.28125  Q 10.40625 8.6875 15.234375 7.390625  Q 20.0625 6.109375 24.8125 6.109375  Q 31.15625 6.109375 34.5625 8.28125  Q 37.984375 10.453125 37.984375 14.40625  Q 37.984375 18.0625 35.515625 20.015625  Q 33.0625 21.96875 24.703125 23.78125  L 21.578125 24.515625  Q 13.234375 26.265625 9.515625 29.90625  Q 5.8125 33.546875 5.8125 39.890625  Q 5.8125 47.609375 11.28125 51.796875  Q 16.75 56 26.8125 56  Q 31.78125 56 36.171875 55.265625  Q 40.578125 54.546875 44.28125 53.078125  "
               id="BitstreamVeraSans-Roman-73" />
            <path
               d="M 8.6875 72.90625  L 18.609375 72.90625  L 18.609375 28.609375  Q 18.609375 16.890625 22.84375 11.734375  Q 27.09375 6.59375 36.625 6.59375  Q 46.09375 6.59375 50.34375 11.734375  Q 54.59375 16.890625 54.59375 28.609375  L 54.59375 72.90625  L 64.5 72.90625  L 64.5 27.390625  Q 64.5 13.140625 57.4375 5.859375  Q 50.390625 -1.421875 36.625 -1.421875  Q 22.796875 -1.421875 15.734375 5.859375  Q 8.6875 13.140625 8.6875 27.390625  z "
               id="BitstreamVeraSans-Roman-55" />
          </defs>
          <g
             transform="translate(235.87200000000004 386.995875)scale(0.12 -0.12)"
             id="g231">
            <use
               transform="translate(0.0 0.015625)"
               xlink:href="#BitstreamVeraSans-Roman-50"
               id="use191" />
            <use
               transform="translate(60.302734375 0.015625)"
               xlink:href="#BitstreamVeraSans-Roman-75"
               id="use193" />
            <use
               transform="translate(123.681640625 0.015625)"
               xlink:href="#BitstreamVeraSans-Roman-6c"
               id="use195" />
            <use
               transform="translate(151.46484375 0.015625)"
               xlink:href="#BitstreamVeraSans-Roman-73"
               id="use197" />
            <use
               transform="translate(203.564453125 0.015625)"
               xlink:href="#BitstreamVeraSans-Roman-65"
               id="use199" />
            <use
               transform="translate(265.087890625 0.015625)"
               xlink:href="#BitstreamVeraSans-Roman-20"
               id="use201" />
            <use
               transform="translate(296.875 0.015625)"
               xlink:href="#BitstreamVeraSans-Roman-41"
               id="use203" />
            <use
               transform="translate(365.283203125 0.015625)"
               xlink:href="#BitstreamVeraSans-Roman-72"
               id="use205" />
            <use
               transform="translate(406.396484375 0.015625)"
               xlink:href="#BitstreamVeraSans-Roman-65"
               id="use207" />
            <use
               transform="translate(467.919921875 0.015625)"
               xlink:href="#BitstreamVeraSans-Roman-61"
               id="use209" />
            <use
               transform="translate(529.19921875 0.015625)"
               xlink:href="#BitstreamVeraSans-Roman-20"
               id="use211" />
            <use
               transform="translate(560.986328125 0.015625)"
               xlink:href="#BitstreamVeraSans-Roman-28"
               id="use213" />
            <use
               transform="translate(600.0 0.015625)"
               xlink:href="#Cmmi10-bc"
               id="use215" />
            <use
               transform="translate(656.982421875 0.015625)"
               xlink:href="#BitstreamVeraSans-Roman-20"
               id="use217" />
            <use
               transform="translate(688.76953125 0.015625)"
               xlink:href="#BitstreamVeraSans-Roman-55"
               id="use219" />
            <use
               transform="translate(761.962890625 0.015625)"
               xlink:href="#BitstreamVeraSans-Roman-6e"
               id="use221" />
            <use
               transform="translate(825.341796875 0.015625)"
               xlink:href="#BitstreamVeraSans-Roman-69"
               id="use223" />
            <use
               transform="translate(853.125 0.015625)"
               xlink:href="#BitstreamVeraSans-Roman-74"
               id="use225" />
            <use
               transform="translate(892.333984375 0.015625)"
               xlink:href="#BitstreamVeraSans-Roman-73"
               id="use227" />
            <use
               transform="translate(944.43359375 0.015625)"
               xlink:href="#BitstreamVeraSans-Roman-29"
               id="use229" />
          </g>
        </g>
      </g>
      <g
         id="matplotlib.axis_2">
        <g
           id="ytick_1">
          <g
             id="line2d_22">
            <path
               clip-path="url(#p653a8f52af)"
               d="M 71.424 331.092  L 518.4 331.092  "
               style="fill:none;stroke:#000000;stroke-dasharray:1.000000,3.000000;stroke-dashoffset:0.0;stroke-width:0.5;"
               id="path235" />
          </g>
          <g
             id="line2d_23">
            <defs
               id="defs239">
              <path
                 d="M 0 0  L 4 0  "
                 id="mb8b495a2f0"
                 style="stroke:#000000;stroke-width:0.5;" />
            </defs>
            <g
               id="g243">
              <use
                 style="stroke:#000000;stroke-width:0.5;"
                 x="71.424"
                 xlink:href="#mb8b495a2f0"
                 y="331.09200000000004"
                 id="use241" />
            </g>
          </g>
          <g
             id="line2d_24">
            <defs
               id="defs247">
              <path
                 d="M 0 0  L -4 0  "
                 id="mba8bab7396"
                 style="stroke:#000000;stroke-width:0.5;" />
            </defs>
            <g
               id="g251">
              <use
                 style="stroke:#000000;stroke-width:0.5;"
                 x="518.4"
                 xlink:href="#mba8bab7396"
                 y="331.09200000000004"
                 id="use249" />
            </g>
          </g>
          <g
             id="text_8">
            <!-- 0.0 -->
            <defs
               id="defs255">
              <path
                 d="M 10.6875 12.40625  L 21 12.40625  L 21 0  L 10.6875 0  z "
                 id="BitstreamVeraSans-Roman-2e" />
            </defs>
            <g
               transform="translate(48.34025000000001 334.40325)scale(0.12 -0.12)"
               id="g263">
              <use
                 xlink:href="#BitstreamVeraSans-Roman-30"
                 id="use257" />
              <use
                 x="63.623046875"
                 xlink:href="#BitstreamVeraSans-Roman-2e"
                 id="use259" />
              <use
                 x="95.41015625"
                 xlink:href="#BitstreamVeraSans-Roman-30"
                 id="use261" />
            </g>
          </g>
        </g>
        <g
           id="ytick_2">
          <g
             id="line2d_25">
            <path
               clip-path="url(#p653a8f52af)"
               d="M 71.424 278.748  L 518.4 278.748  "
               style="fill:none;stroke:#000000;stroke-dasharray:1.000000,3.000000;stroke-dashoffset:0.0;stroke-width:0.5;"
               id="path267" />
          </g>
          <g
             id="line2d_26">
            <g
               id="g272">
              <use
                 style="stroke:#000000;stroke-width:0.5;"
                 x="71.424"
                 xlink:href="#mb8b495a2f0"
                 y="278.74800000000005"
                 id="use270" />
            </g>
          </g>
          <g
             id="line2d_27">
            <g
               id="g277">
              <use
                 style="stroke:#000000;stroke-width:0.5;"
                 x="518.4"
                 xlink:href="#mba8bab7396"
                 y="278.74800000000005"
                 id="use275" />
            </g>
          </g>
          <g
             id="text_9">
            <!-- 0.2 -->
            <g
               transform="translate(48.34025000000001 282.05925)scale(0.12 -0.12)"
               id="g286">
              <use
                 xlink:href="#BitstreamVeraSans-Roman-30"
                 id="use280" />
              <use
                 x="63.623046875"
                 xlink:href="#BitstreamVeraSans-Roman-2e"
                 id="use282" />
              <use
                 x="95.41015625"
                 xlink:href="#BitstreamVeraSans-Roman-32"
                 id="use284" />
            </g>
          </g>
        </g>
        <g
           id="ytick_3">
          <g
             id="line2d_28">
            <path
               clip-path="url(#p653a8f52af)"
               d="M 71.424 226.404  L 518.4 226.404  "
               style="fill:none;stroke:#000000;stroke-dasharray:1.000000,3.000000;stroke-dashoffset:0.0;stroke-width:0.5;"
               id="path290" />
          </g>
          <g
             id="line2d_29">
            <g
               id="g295">
              <use
                 style="stroke:#000000;stroke-width:0.5;"
                 x="71.424"
                 xlink:href="#mb8b495a2f0"
                 y="226.40400000000005"
                 id="use293" />
            </g>
          </g>
          <g
             id="line2d_30">
            <g
               id="g300">
              <use
                 style="stroke:#000000;stroke-width:0.5;"
                 x="518.4"
                 xlink:href="#mba8bab7396"
                 y="226.40400000000005"
                 id="use298" />
            </g>
          </g>
          <g
             id="text_10">
            <!-- 0.4 -->
            <g
               transform="translate(48.34025000000001 229.71525000000003)scale(0.12 -0.12)"
               id="g309">
              <use
                 xlink:href="#BitstreamVeraSans-Roman-30"
                 id="use303" />
              <use
                 x="63.623046875"
                 xlink:href="#BitstreamVeraSans-Roman-2e"
                 id="use305" />
              <use
                 x="95.41015625"
                 xlink:href="#BitstreamVeraSans-Roman-34"
                 id="use307" />
            </g>
          </g>
        </g>
        <g
           id="ytick_4">
          <g
             id="line2d_31">
            <path
               clip-path="url(#p653a8f52af)"
               d="M 71.424 174.06  L 518.4 174.06  "
               style="fill:none;stroke:#000000;stroke-dasharray:1.000000,3.000000;stroke-dashoffset:0.0;stroke-width:0.5;"
               id="path313" />
          </g>
          <g
             id="line2d_32">
            <g
               id="g318">
              <use
                 style="stroke:#000000;stroke-width:0.5;"
                 x="71.424"
                 xlink:href="#mb8b495a2f0"
                 y="174.06000000000003"
                 id="use316" />
            </g>
          </g>
          <g
             id="line2d_33">
            <g
               id="g323">
              <use
                 style="stroke:#000000;stroke-width:0.5;"
                 x="518.4"
                 xlink:href="#mba8bab7396"
                 y="174.06000000000003"
                 id="use321" />
            </g>
          </g>
          <g
             id="text_11">
            <!-- 0.6 -->
            <g
               transform="translate(48.34025000000001 177.37125)scale(0.12 -0.12)"
               id="g332">
              <use
                 xlink:href="#BitstreamVeraSans-Roman-30"
                 id="use326" />
              <use
                 x="63.623046875"
                 xlink:href="#BitstreamVeraSans-Roman-2e"
                 id="use328" />
              <use
                 x="95.41015625"
                 xlink:href="#BitstreamVeraSans-Roman-36"
                 id="use330" />
            </g>
          </g>
        </g>
        <g
           id="ytick_5">
          <g
             id="line2d_34">
            <path
               clip-path="url(#p653a8f52af)"
               d="M 71.424 121.716  L 518.4 121.716  "
               style="fill:none;stroke:#000000;stroke-dasharray:1.000000,3.000000;stroke-dashoffset:0.0;stroke-width:0.5;"
               id="path336" />
          </g>
          <g
             id="line2d_35">
            <g
               id="g341">
              <use
                 style="stroke:#000000;stroke-width:0.5;"
                 x="71.424"
                 xlink:href="#mb8b495a2f0"
                 y="121.71600000000007"
                 id="use339" />
            </g>
          </g>
          <g
             id="line2d_36">
            <g
               id="g346">
              <use
                 style="stroke:#000000;stroke-width:0.5;"
                 x="518.4"
                 xlink:href="#mba8bab7396"
                 y="121.71600000000007"
                 id="use344" />
            </g>
          </g>
          <g
             id="text_12">
            <!-- 0.8 -->
            <g
               transform="translate(48.34025000000001 125.02725000000004)scale(0.12 -0.12)"
               id="g355">
              <use
                 xlink:href="#BitstreamVeraSans-Roman-30"
                 id="use349" />
              <use
                 x="63.623046875"
                 xlink:href="#BitstreamVeraSans-Roman-2e"
                 id="use351" />
              <use
                 x="95.41015625"
                 xlink:href="#BitstreamVeraSans-Roman-38"
                 id="use353" />
            </g>
          </g>
        </g>
        <g
           id="ytick_6">
          <g
             id="line2d_37">
            <path
               clip-path="url(#p653a8f52af)"
               d="M 71.424 69.372  L 518.4 69.372  "
               style="fill:none;stroke:#000000;stroke-dasharray:1.000000,3.000000;stroke-dashoffset:0.0;stroke-width:0.5;"
               id="path359" />
          </g>
          <g
             id="line2d_38">
            <g
               id="g364">
              <use
                 style="stroke:#000000;stroke-width:0.5;"
                 x="71.424"
                 xlink:href="#mb8b495a2f0"
                 y="69.37200000000001"
                 id="use362" />
            </g>
          </g>
          <g
             id="line2d_39">
            <g
               id="g369">
              <use
                 style="stroke:#000000;stroke-width:0.5;"
                 x="518.4"
                 xlink:href="#mba8bab7396"
                 y="69.37200000000001"
                 id="use367" />
            </g>
          </g>
          <g
             id="text_13">
            <!-- 1.0 -->
            <g
               transform="translate(48.34025000000001 72.68324999999999)scale(0.12 -0.12)"
               id="g378">
              <use
                 xlink:href="#BitstreamVeraSans-Roman-31"
                 id="use372" />
              <use
                 x="63.623046875"
                 xlink:href="#BitstreamVeraSans-Roman-2e"
                 id="use374" />
              <use
                 x="95.41015625"
                 xlink:href="#BitstreamVeraSans-Roman-30"
                 id="use376" />
            </g>
          </g>
        </g>
        <g
           id="text_14">
          <!-- Occupation -->
          <defs
             id="defs386">
            <path
               d="M 39.40625 66.21875  Q 28.65625 66.21875 22.328125 58.203125  Q 16.015625 50.203125 16.015625 36.375  Q 16.015625 22.609375 22.328125 14.59375  Q 28.65625 6.59375 39.40625 6.59375  Q 50.140625 6.59375 56.421875 14.59375  Q 62.703125 22.609375 62.703125 36.375  Q 62.703125 50.203125 56.421875 58.203125  Q 50.140625 66.21875 39.40625 66.21875  M 39.40625 74.21875  Q 54.734375 74.21875 63.90625 63.9375  Q 73.09375 53.65625 73.09375 36.375  Q 73.09375 19.140625 63.90625 8.859375  Q 54.734375 -1.421875 39.40625 -1.421875  Q 24.03125 -1.421875 14.8125 8.828125  Q 5.609375 19.09375 5.609375 36.375  Q 5.609375 53.65625 14.8125 63.9375  Q 24.03125 74.21875 39.40625 74.21875  "
               id="BitstreamVeraSans-Roman-4f" />
            <path
               d="M 30.609375 48.390625  Q 23.390625 48.390625 19.1875 42.75  Q 14.984375 37.109375 14.984375 27.296875  Q 14.984375 17.484375 19.15625 11.84375  Q 23.34375 6.203125 30.609375 6.203125  Q 37.796875 6.203125 41.984375 11.859375  Q 46.1875 17.53125 46.1875 27.296875  Q 46.1875 37.015625 41.984375 42.703125  Q 37.796875 48.390625 30.609375 48.390625  M 30.609375 56  Q 42.328125 56 49.015625 48.375  Q 55.71875 40.765625 55.71875 27.296875  Q 55.71875 13.875 49.015625 6.21875  Q 42.328125 -1.421875 30.609375 -1.421875  Q 18.84375 -1.421875 12.171875 6.21875  Q 5.515625 13.875 5.515625 27.296875  Q 5.515625 40.765625 12.171875 48.375  Q 18.84375 56 30.609375 56  "
               id="BitstreamVeraSans-Roman-6f" />
            <path
               d="M 18.109375 8.203125  L 18.109375 -20.796875  L 9.078125 -20.796875  L 9.078125 54.6875  L 18.109375 54.6875  L 18.109375 46.390625  Q 20.953125 51.265625 25.265625 53.625  Q 29.59375 56 35.59375 56  Q 45.5625 56 51.78125 48.09375  Q 58.015625 40.1875 58.015625 27.296875  Q 58.015625 14.40625 51.78125 6.484375  Q 45.5625 -1.421875 35.59375 -1.421875  Q 29.59375 -1.421875 25.265625 0.953125  Q 20.953125 3.328125 18.109375 8.203125  M 48.6875 27.296875  Q 48.6875 37.203125 44.609375 42.84375  Q 40.53125 48.484375 33.40625 48.484375  Q 26.265625 48.484375 22.1875 42.84375  Q 18.109375 37.203125 18.109375 27.296875  Q 18.109375 17.390625 22.1875 11.75  Q 26.265625 6.109375 33.40625 6.109375  Q 40.53125 6.109375 44.609375 11.75  Q 48.6875 17.390625 48.6875 27.296875  "
               id="BitstreamVeraSans-Roman-70" />
            <path
               d="M 48.78125 52.59375  L 48.78125 44.1875  Q 44.96875 46.296875 41.140625 47.34375  Q 37.3125 48.390625 33.40625 48.390625  Q 24.65625 48.390625 19.8125 42.84375  Q 14.984375 37.3125 14.984375 27.296875  Q 14.984375 17.28125 19.8125 11.734375  Q 24.65625 6.203125 33.40625 6.203125  Q 37.3125 6.203125 41.140625 7.25  Q 44.96875 8.296875 48.78125 10.40625  L 48.78125 2.09375  Q 45.015625 0.34375 40.984375 -0.53125  Q 36.96875 -1.421875 32.421875 -1.421875  Q 20.0625 -1.421875 12.78125 6.34375  Q 5.515625 14.109375 5.515625 27.296875  Q 5.515625 40.671875 12.859375 48.328125  Q 20.21875 56 33.015625 56  Q 37.15625 56 41.109375 55.140625  Q 45.0625 54.296875 48.78125 52.59375  "
               id="BitstreamVeraSans-Roman-63" />
          </defs>
          <g
             transform="translate(40.84462500000001 234.33450000000002)rotate(-90.0)scale(0.12 -0.12)"
             id="g408">
            <use
               xlink:href="#BitstreamVeraSans-Roman-4f"
               id="use388" />
            <use
               x="78.7109375"
               xlink:href="#BitstreamVeraSans-Roman-63"
               id="use390" />
            <use
               x="133.69140625"
               xlink:href="#BitstreamVeraSans-Roman-63"
               id="use392" />
            <use
               x="188.671875"
               xlink:href="#BitstreamVeraSans-Roman-75"
               id="use394" />
            <use
               x="252.05078125"
               xlink:href="#BitstreamVeraSans-Roman-70"
               id="use396" />
            <use
               x="315.52734375"
               xlink:href="#BitstreamVeraSans-Roman-61"
               id="use398" />
            <use
               x="376.806640625"
               xlink:href="#BitstreamVeraSans-Roman-74"
               id="use400" />
            <use
               x="416.015625"
               xlink:href="#BitstreamVeraSans-Roman-69"
               id="use402" />
            <use
               x="443.798828125"
               xlink:href="#BitstreamVeraSans-Roman-6f"
               id="use404" />
            <use
               x="504.98046875"
               xlink:href="#BitstreamVeraSans-Roman-6e"
               id="use406" />
          </g>
        </g>
      </g>
      <g
         id="legend_1">
        <g
           id="patch_7">
          <path
             d="M 107.951625 421.3269  L 481.872375 421.3269  L 481.872375 395.8704  L 107.951625 395.8704  z "
             style="fill:#ffffff;stroke:#000000;stroke-linejoin:miter;"
             id="path412" />
        </g>
        <g
           id="line2d_40">
          <path
             d="M 118.031625 407.53215  L 138.191625 407.53215  "
             style="fill:none;stroke:#0000ff;stroke-linecap:square;"
             id="path415" />
        </g>
        <g
           id="line2d_41" />
        <g
           id="text_15">
          <!-- -1520000.0 -->
          <defs
             id="defs421">
            <path
               d="M 4.890625 31.390625  L 31.203125 31.390625  L 31.203125 23.390625  L 4.890625 23.390625  z "
               id="BitstreamVeraSans-Roman-2d" />
            <path
               d="M 10.796875 72.90625  L 49.515625 72.90625  L 49.515625 64.59375  L 19.828125 64.59375  L 19.828125 46.734375  Q 21.96875 47.46875 24.109375 47.828125  Q 26.265625 48.1875 28.421875 48.1875  Q 40.625 48.1875 47.75 41.5  Q 54.890625 34.8125 54.890625 23.390625  Q 54.890625 11.625 47.5625 5.09375  Q 40.234375 -1.421875 26.90625 -1.421875  Q 22.3125 -1.421875 17.546875 -0.640625  Q 12.796875 0.140625 7.71875 1.703125  L 7.71875 11.625  Q 12.109375 9.234375 16.796875 8.0625  Q 21.484375 6.890625 26.703125 6.890625  Q 35.15625 6.890625 40.078125 11.328125  Q 45.015625 15.765625 45.015625 23.390625  Q 45.015625 31 40.078125 35.4375  Q 35.15625 39.890625 26.703125 39.890625  Q 22.75 39.890625 18.8125 39.015625  Q 14.890625 38.140625 10.796875 36.28125  z "
               id="BitstreamVeraSans-Roman-35" />
          </defs>
          <g
             transform="translate(154.03162500000008 412.57215)scale(0.144 -0.144)"
             id="g443">
            <use
               xlink:href="#BitstreamVeraSans-Roman-2d"
               id="use423" />
            <use
               x="36.083984375"
               xlink:href="#BitstreamVeraSans-Roman-31"
               id="use425" />
            <use
               x="99.70703125"
               xlink:href="#BitstreamVeraSans-Roman-35"
               id="use427" />
            <use
               x="163.330078125"
               xlink:href="#BitstreamVeraSans-Roman-32"
               id="use429" />
            <use
               x="226.953125"
               xlink:href="#BitstreamVeraSans-Roman-30"
               id="use431" />
            <use
               x="290.576171875"
               xlink:href="#BitstreamVeraSans-Roman-30"
               id="use433" />
            <use
               x="354.19921875"
               xlink:href="#BitstreamVeraSans-Roman-30"
               id="use435" />
            <use
               x="417.822265625"
               xlink:href="#BitstreamVeraSans-Roman-30"
               id="use437" />
            <use
               x="481.4453125"
               xlink:href="#BitstreamVeraSans-Roman-2e"
               id="use439" />
            <use
               x="513.232421875"
               xlink:href="#BitstreamVeraSans-Roman-30"
               id="use441" />
          </g>
        </g>
        <g
           id="line2d_42">
          <path
             d="M 270.219375 407.53215  L 290.379375 407.53215  "
             style="fill:none;stroke:#008000;stroke-linecap:square;"
             id="path446" />
        </g>
        <g
           id="line2d_43" />
        <g
           id="text_16">
          <!-- 0.0 -->
          <g
             transform="translate(306.219375 412.57215)scale(0.144 -0.144)"
             id="g456">
            <use
               xlink:href="#BitstreamVeraSans-Roman-30"
               id="use450" />
            <use
               x="63.623046875"
               xlink:href="#BitstreamVeraSans-Roman-2e"
               id="use452" />
            <use
               x="95.41015625"
               xlink:href="#BitstreamVeraSans-Roman-30"
               id="use454" />
          </g>
        </g>
        <g
           id="line2d_44">
          <path
             d="M 362.239875 407.53215  L 382.399875 407.53215  "
             style="fill:none;stroke:#ff0000;stroke-linecap:square;"
             id="path459" />
        </g>
        <g
           id="line2d_45" />
        <g
           id="text_17">
          <!-- 1520000.0 -->
          <g
             transform="translate(398.23987500000004 412.57215)scale(0.144 -0.144)"
             id="g481">
            <use
               xlink:href="#BitstreamVeraSans-Roman-31"
               id="use463" />
            <use
               x="63.623046875"
               xlink:href="#BitstreamVeraSans-Roman-35"
               id="use465" />
            <use
               x="127.24609375"
               xlink:href="#BitstreamVeraSans-Roman-32"
               id="use467" />
            <use
               x="190.869140625"
               xlink:href="#BitstreamVeraSans-Roman-30"
               id="use469" />
            <use
               x="254.4921875"
               xlink:href="#BitstreamVeraSans-Roman-30"
               id="use471" />
            <use
               x="318.115234375"
               xlink:href="#BitstreamVeraSans-Roman-30"
               id="use473" />
            <use
               x="381.73828125"
               xlink:href="#BitstreamVeraSans-Roman-30"
               id="use475" />
            <use
               x="445.361328125"
               xlink:href="#BitstreamVeraSans-Roman-2e"
               id="use477" />
            <use
               x="477.1484375"
               xlink:href="#BitstreamVeraSans-Roman-30"
               id="use479" />
          </g>
        </g>
      </g>
    </g>
  </g>
  <defs
     id="defs490">
    <clipPath
       id="p653a8f52af">
      <rect
         height="314.064"
         width="446.976"
         x="71.424"
         y="43.19999999999999"
         id="rect487" />
    </clipPath>
  </defs>
</svg>
