<?xml version="1.0" encoding="utf-8" standalone="no"?>
<!DOCTYPE svg PUBLIC "-//W3C//DTD SVG 1.1//EN"
  "http://www.w3.org/Graphics/SVG/1.1/DTD/svg11.dtd">
<!-- Created with matplotlib (http://matplotlib.org/) -->
<svg height="378pt" version="1.1" viewBox="0 0 504 378" width="504pt" xmlns="http://www.w3.org/2000/svg" xmlns:xlink="http://www.w3.org/1999/xlink">
 <defs>
  <style type="text/css">
*{stroke-linecap:butt;stroke-linejoin:round;stroke-miterlimit:100000;}
  </style>
 </defs>
 <g id="figure_1">
  <g id="patch_1">
   <path d="M 0 378 
L 504 378 
L 504 0 
L 0 0 
z
" style="fill:#ffffff;"/>
  </g>
  <g id="axes_1">
   <g id="patch_2">
    <path d="M 59.085 326.34 
L 491.04 326.34 
L 491.04 12.96 
L 59.085 12.96 
z
" style="fill:#ffffff;"/>
   </g>
   <g id="line2d_1">
    <path clip-path="url(#p4ec400195d)" d="M 544.070206 326.300714 
M 505 325.431016 
L 503.551836 325.341531 
L 498.456343 324.895926 
L 493.441039 324.282342 
L 488.431066 323.432642 
L 483.426414 322.26832 
L 478.41053 320.688319 
L 473.399986 318.567863 
L 468.394773 315.752398 
L 463.37839 312.060497 
L 458.367357 307.282839 
L 453.361664 301.187251 
L 448.435284 293.671949 
L 443.423746 284.244753 
L 438.409356 272.811711 
L 433.490458 259.489289 
L 428.568533 244.062262 
L 423.55366 226.315581 
L 418.625833 207.129454 
L 413.703193 186.683038 
L 408.696074 165.212066 
L 403.767594 144.216446 
L 398.84431 124.128283 
L 393.91809 105.693007 
L 388.997067 89.513728 
L 384.073126 75.970985 
L 379.146283 65.187773 
L 374.313644 57.160081 
L 369.389031 51.290175 
L 364.461551 47.313493 
L 359.628004 44.804335 
L 354.702799 43.254622 
L 349.863292 42.382992 
L 344.940388 41.902883 
L 340.103014 41.661879 
L 335.174406 41.543093 
L 330.339191 41.489499 
L 325.501011 41.465857 
L 320.659884 41.455858 
L 315.823816 41.451771 
L 310.984818 41.450148 
L 306.15088 41.449513 
L 301.31403 41.449266 
L 296.474285 41.449168 
L 291.631661 41.449129 
L 286.881448 41.449112 
L 282.048881 41.449105 
L 277.205531 41.449102 
L 272.454328 41.449102 
L 267.621053 41.449105 
L 262.863933 41.449113 
L 258.032829 41.449131 
L 253.277733 41.449173 
L 248.527553 41.449274 
L 243.774417 41.449528 
L 238.939769 41.450184 
L 234.188701 41.451816 
L 229.434711 41.455856 
L 224.685648 41.465594 
L 219.93368 41.488272 
L 215.264805 41.537692 
L 210.514796 41.644774 
L 205.761916 41.862914 
L 201.013973 42.285237 
L 196.348803 43.04162 
L 191.595079 44.375549 
L 186.931753 46.523558 
L 182.180066 49.927091 
L 177.510849 54.856671 
L 172.761226 61.892496 
L 168.093913 71.096846 
L 163.431382 82.756801 
L 158.765903 96.86741 
L 154.012659 113.533587 
L 149.349129 131.725373 
L 144.682685 151.153866 
L 140.021033 171.15768 
L 135.356485 191.064647 
L 130.773458 209.914095 
L 126.110744 227.920535 
L 121.445167 244.350718 
L 116.776743 258.982974 
L 112.204827 271.508907 
L 107.538288 282.421276 
L 102.960446 291.416678 
L 98.295819 298.988485 
L 93.712106 305.037429 
L 89.049416 309.985913 
L 84.467486 313.837206 
L 79.890206 316.862849 
L 75.309991 319.214861 
L 70.651141 321.055179 
L 66.065179 322.428701 
" style="fill:none;stroke:#0000ff;stroke-linecap:square;stroke-width:1.5;"/>
   </g>
   <g id="line2d_2">
    <path clip-path="url(#p4ec400195d)" d="M 544.070206 326.300723 
M 505 325.431224 
L 503.551836 325.341772 
L 498.456343 324.89631 
L 493.441039 324.282714 
L 488.431066 323.433693 
L 483.426414 322.27019 
L 478.41053 320.6913 
L 473.399986 318.572835 
L 468.394773 315.762122 
L 463.37839 312.078124 
L 458.367357 307.311996 
L 453.361664 301.232587 
L 448.435284 293.74763 
L 443.423746 284.359658 
L 438.409356 272.986081 
L 433.490458 259.741468 
L 428.568533 244.419429 
L 423.55366 226.799305 
L 418.625833 207.766361 
L 413.703193 187.477018 
L 408.696074 166.166128 
L 403.767594 145.309186 
L 398.84431 125.317405 
L 393.91809 106.919227 
L 388.997067 90.710048 
L 384.073126 77.072694 
L 379.146283 66.142566 
L 374.313644 57.941471 
L 369.389031 51.887126 
L 364.461551 47.740365 
L 359.628004 45.091799 
L 354.702799 43.433947 
L 349.863292 42.488104 
L 344.940388 41.959697 
L 340.103014 41.69078 
L 335.174406 41.556551 
L 330.339191 41.495368 
L 325.501011 41.468196 
L 320.659884 41.45671 
L 315.823816 41.45204 
L 310.984818 41.450216 
L 306.15088 41.449518 
L 301.31403 41.449257 
L 296.474285 41.449158 
L 291.631661 41.449121 
L 286.881448 41.449106 
L 282.048881 41.4491 
L 277.205531 41.449098 
L 272.454328 41.449098 
L 267.621053 41.4491 
L 262.863933 41.449107 
L 258.032829 41.449123 
L 253.277733 41.449163 
L 248.527553 41.449266 
L 243.774417 41.449533 
L 238.939769 41.450254 
L 234.188701 41.452092 
L 229.434711 41.456707 
L 224.685648 41.4679 
L 219.93368 41.493949 
L 215.264805 41.550401 
L 210.514796 41.671548 
L 205.761916 41.915361 
L 201.013973 42.381081 
L 196.348803 43.203998 
L 191.595079 44.635272 
L 186.931753 46.910331 
L 182.180066 50.470997 
L 177.510849 55.572651 
L 172.761226 62.784058 
L 168.093913 72.14146 
L 163.431382 83.915471 
L 158.765903 98.085023 
L 154.012659 114.749395 
L 149.349129 132.880853 
L 144.682685 152.203022 
L 140.021033 172.069598 
L 135.356485 191.82461 
L 130.773458 210.526908 
L 126.110744 228.393901 
L 121.445167 244.704798 
L 116.776743 259.239545 
L 112.204827 271.689779 
L 107.538288 282.545422 
L 102.960446 291.499798 
L 98.295819 299.042726 
L 93.712106 305.072362 
L 89.049416 310.007784 
L 84.467486 313.850666 
L 79.890206 316.870815 
L 75.309991 319.219693 
L 70.651141 321.057781 
L 66.065179 322.430245 
" style="fill:none;stroke:#008000;stroke-linecap:square;stroke-width:1.5;"/>
   </g>
   <g id="line2d_3">
    <path clip-path="url(#p4ec400195d)" d="M 544.070206 326.300718 
M 505 325.431242 
L 503.551836 325.341782 
L 498.456343 324.896619 
L 493.441039 324.283518 
L 488.431066 323.434958 
L 483.426414 322.272473 
L 478.41053 320.695843 
L 473.399986 318.581152 
L 468.394773 315.776177 
L 463.37839 312.10338 
L 458.367357 307.354146 
L 453.361664 301.303246 
L 448.435284 293.857055 
L 443.423746 284.531102 
L 438.409356 273.24281 
L 433.490458 260.115089 
L 428.568533 244.943887 
L 423.55366 227.516745 
L 418.625833 208.701054 
L 413.703193 188.643435 
L 408.696074 167.571234 
L 403.767594 146.913425 
L 398.84431 127.065612 
L 393.91809 108.727583 
L 388.997067 92.483914 
L 384.073126 78.718467 
L 379.146283 67.582513 
L 374.313644 59.132313 
L 369.389031 52.809831 
L 364.461551 48.410994 
L 359.628004 45.551497 
L 354.702799 43.726441 
L 349.863292 42.663596 
L 344.940388 42.056905 
L 340.103014 41.741379 
L 335.174406 41.580726 
L 330.339191 41.506229 
L 325.501011 41.472684 
L 320.659884 41.458393 
L 315.823816 41.45261 
L 310.984818 41.450372 
L 306.15088 41.449546 
L 301.31403 41.449251 
L 296.474285 41.449148 
L 291.631661 41.449112 
L 286.881448 41.4491 
L 282.048881 41.449096 
L 277.205531 41.449094 
L 272.454328 41.449094 
L 267.621053 41.449096 
L 262.863933 41.449101 
L 258.032829 41.449114 
L 253.277733 41.449153 
L 248.527553 41.44926 
L 243.774417 41.449564 
L 238.939769 41.45042 
L 234.188701 41.452669 
L 229.434711 41.458396 
L 224.685648 41.472305 
L 219.93368 41.504485 
L 215.264805 41.573315 
L 210.514796 41.718558 
L 205.761916 42.005283 
L 201.013973 42.541676 
L 196.348803 43.469889 
L 191.595079 45.052415 
L 186.931753 47.520051 
L 182.180066 51.315807 
L 177.510849 56.669368 
L 172.761226 64.13463 
L 168.093913 73.70884 
L 163.431382 85.63987 
L 158.765903 99.888105 
L 154.012659 116.542471 
L 149.349129 134.582532 
L 144.682685 153.746639 
L 140.021033 173.409299 
L 135.356485 192.943048 
L 130.773458 211.428325 
L 126.110744 229.092893 
L 121.445167 245.228513 
L 116.776743 259.618766 
L 112.204827 271.958911 
L 107.538288 282.729616 
L 102.960446 291.62314 
L 98.295819 299.12288 
L 93.712106 305.123867 
L 89.049416 310.039711 
L 84.467486 313.870375 
L 79.890206 316.882634 
L 75.309991 319.226658 
L 70.651141 321.061899 
L 66.065179 322.43254 
" style="fill:none;stroke:#ff0000;stroke-linecap:square;stroke-width:1.5;"/>
   </g>
   <g id="line2d_4">
    <path clip-path="url(#p4ec400195d)" d="M 544.070206 326.300729 
M 505 325.431555 
L 503.551836 325.342151 
L 498.456343 324.897245 
L 493.441039 324.284697 
L 488.431066 323.437239 
L 483.426414 322.276746 
L 478.41053 320.703661 
L 473.399986 318.59486 
L 468.394773 315.800714 
L 463.37839 312.144412 
L 458.367357 307.423372 
L 453.361664 301.416655 
L 448.435284 294.037772 
L 443.423746 284.810535 
L 438.409356 273.666445 
L 433.490458 260.726759 
L 428.568533 245.79993 
L 423.55366 228.677811 
L 418.625833 210.211995 
L 413.703193 190.531855 
L 408.696074 169.835876 
L 403.767594 149.509117 
L 398.84431 129.89647 
L 393.91809 111.672237 
L 388.997067 95.392949 
L 384.073126 81.442013 
L 379.146283 69.996539 
L 374.313644 61.160415 
L 369.389031 54.412932 
L 364.461551 49.603829 
L 359.628004 46.390836 
L 354.702799 44.277594 
L 349.863292 43.005457 
L 344.940388 42.25349 
L 340.103014 41.848032 
L 335.174406 41.633994 
L 330.339191 41.531191 
L 325.501011 41.483517 
L 320.659884 41.462701 
L 315.823816 41.454157 
L 310.984818 41.450866 
L 306.15088 41.449675 
L 301.31403 41.449272 
L 296.474285 41.449144 
L 291.631661 41.449105 
L 286.881448 41.449095 
L 282.048881 41.449092 
L 277.205531 41.449091 
L 272.454328 41.449091 
L 267.621053 41.449092 
L 262.863933 41.449095 
L 258.032829 41.449107 
L 253.277733 41.449148 
L 248.527553 41.449283 
L 243.774417 41.449699 
L 238.939769 41.450935 
L 234.188701 41.45425 
L 229.434711 41.462694 
L 224.685648 41.482968 
L 219.93368 41.528752 
L 215.264805 41.623875 
L 210.514796 41.818005 
L 205.761916 42.188112 
L 201.013973 42.85637 
L 196.348803 43.974207 
L 191.595079 45.819257 
L 186.931753 48.611958 
L 182.180066 52.793024 
L 177.510849 58.549731 
L 172.761226 66.410774 
L 168.093913 76.314975 
L 163.431382 88.478049 
L 158.765903 102.832292 
L 154.012659 119.45524 
L 149.349129 137.336211 
L 144.682685 156.239173 
L 140.021033 175.574664 
L 135.356485 194.749784 
L 130.773458 212.887181 
L 126.110744 230.225086 
L 121.445167 246.078134 
L 116.776743 260.2369 
L 112.204827 272.397689 
L 107.538288 283.030613 
L 102.960446 291.825814 
L 98.295819 299.25509 
L 93.712106 305.208371 
L 89.049416 310.092635 
L 84.467486 313.902577 
L 79.890206 316.902218 
L 75.309991 319.238261 
L 70.651141 321.06854 
L 66.065179 322.436362 
" style="fill:none;stroke:#00bfbf;stroke-linecap:square;stroke-width:1.5;"/>
   </g>
   <g id="line2d_5">
    <path clip-path="url(#p4ec400195d)" d="M 544.070206 326.300733 
M 505 325.431748 
L 503.551836 325.342366 
L 498.456343 324.897713 
L 493.441039 324.285764 
L 488.431066 323.439283 
L 483.426414 322.2806 
L 478.41053 320.710858 
L 473.399986 318.608091 
L 468.394773 315.824063 
L 463.37839 312.184408 
L 458.367357 307.491457 
L 453.361664 301.527604 
L 448.435284 294.213936 
L 443.423746 285.083981 
L 438.409356 274.075893 
L 433.490458 261.321274 
L 428.568533 246.628075 
L 423.55366 229.801523 
L 418.625833 211.668346 
L 413.703193 192.348698 
L 408.696074 172.020952 
L 403.767594 152.007508 
L 398.84431 132.632485 
L 393.91809 114.531513 
L 388.997067 98.238313 
L 384.073126 84.136793 
L 379.146283 72.419557 
L 374.313644 63.232624 
L 369.389031 56.086913 
L 364.461551 50.882449 
L 359.628004 47.318409 
L 354.702799 44.908123 
L 349.863292 43.41187 
L 344.940388 42.49755 
L 340.103014 41.986729 
L 335.174406 41.706848 
L 330.339191 41.567235 
L 325.501011 41.50009 
L 320.659884 41.469731 
L 315.823816 41.456883 
L 310.984818 41.45182 
L 306.15088 41.449971 
L 301.31403 41.449349 
L 296.474285 41.449159 
L 291.631661 41.449107 
L 286.881448 41.449094 
L 282.048881 41.449091 
L 277.205531 41.449091 
L 272.454328 41.449091 
L 267.621053 41.449091 
L 262.863933 41.449094 
L 258.032829 41.449109 
L 253.277733 41.449166 
L 248.527553 41.449367 
L 243.774417 41.450009 
L 238.939769 41.451929 
L 234.188701 41.457027 
L 229.434711 41.469729 
L 224.685648 41.499294 
L 219.93368 41.56386 
L 215.264805 41.693337 
L 210.514796 41.948042 
L 205.761916 42.416369 
L 201.013973 43.232966 
L 196.348803 44.555382 
L 191.595079 46.673184 
L 186.931753 49.791781 
L 182.180066 54.347324 
L 177.510849 60.485092 
L 172.761226 68.709745 
L 168.093913 78.908077 
L 163.431382 91.268868 
L 158.765903 105.702458 
L 154.012659 122.277225 
L 149.349129 139.993573 
L 144.682685 158.639899 
L 140.021033 177.659597 
L 135.356485 196.491152 
L 130.773458 214.295858 
L 126.110744 231.321325 
L 121.445167 246.902639 
L 116.776743 260.837187 
L 112.204827 272.82469 
L 107.538288 283.324718 
L 102.960446 292.024144 
L 98.295819 299.384026 
L 93.712106 305.291178 
L 89.049416 310.144032 
L 84.467486 313.934156 
L 79.890206 316.921318 
L 75.309991 319.249525 
L 70.651141 321.075085 
L 66.065179 322.440082 
" style="fill:none;stroke:#bf00bf;stroke-linecap:square;stroke-width:1.5;"/>
   </g>
   <g id="line2d_6">
    <path clip-path="url(#p4ec400195d)" d="M 544.070206 326.300736 
M 505 325.432026 
L 503.551836 325.342701 
L 498.456343 324.898201 
L 493.441039 324.286664 
L 488.431066 323.44113 
L 483.426414 322.284246 
L 478.41053 320.717906 
L 473.399986 318.620763 
L 468.394773 315.846818 
L 463.37839 312.224376 
L 458.367357 307.557583 
L 453.361664 301.636907 
L 448.435284 294.386358 
L 443.423746 285.35212 
L 438.409356 274.476647 
L 433.490458 261.89723 
L 428.568533 247.433285 
L 423.55366 230.888137 
L 418.625833 213.077105 
L 413.703193 194.104734 
L 408.696074 174.123381 
L 403.767594 154.418478 
L 398.84431 135.280485 
L 393.91809 117.310031 
L 388.997067 101.022965 
L 384.073126 86.797872 
L 379.146283 74.843371 
L 374.313644 65.33921 
L 369.389031 57.822199 
L 364.461551 52.238584 
L 359.628004 48.328789 
L 354.702799 45.616664 
L 349.863292 43.884751 
L 344.940388 42.792897 
L 340.103014 42.161904 
L 335.174406 41.80335 
L 330.339191 41.617556 
L 325.501011 41.524533 
L 320.659884 41.480744 
L 315.823816 41.461463 
L 310.984818 41.453561 
L 306.15088 41.450569 
L 301.31403 41.449533 
L 296.474285 41.449207 
L 291.631661 41.449118 
L 286.881448 41.449096 
L 282.048881 41.449092 
L 277.205531 41.449091 
L 272.454328 41.449091 
L 267.621053 41.449092 
L 262.863933 41.449097 
L 258.032829 41.449121 
L 253.277733 41.44922 
L 248.527553 41.449563 
L 243.774417 41.450632 
L 238.939769 41.453735 
L 234.188701 41.461678 
L 229.434711 41.480761 
L 224.685648 41.523412 
L 219.93368 41.612944 
L 215.264805 41.785657 
L 210.514796 42.11303 
L 205.761916 42.6939 
L 201.013973 43.673717 
L 196.348803 45.212841 
L 191.595079 47.609632 
L 186.931753 51.051734 
L 182.180066 55.968139 
L 177.510849 62.464082 
L 172.761226 71.022398 
L 168.093913 81.482072 
L 163.431382 94.011197 
L 158.765903 108.500122 
L 154.012659 125.012391 
L 149.349129 142.560847 
L 144.682685 160.955108 
L 140.021033 179.66914 
L 135.356485 198.172743 
L 130.773458 215.657257 
L 126.110744 232.382487 
L 121.445167 247.703205 
L 116.776743 261.421848 
L 112.204827 273.242295 
L 107.538288 283.611505 
L 102.960446 292.217866 
L 98.295819 299.510539 
L 93.712106 305.372123 
L 89.049416 310.194345 
L 84.467486 313.965071 
L 79.890206 316.939796 
L 75.309991 319.260355 
L 70.651141 321.081245 
L 66.065179 322.443607 
" style="fill:none;stroke:#bfbf00;stroke-linecap:square;stroke-width:1.5;"/>
   </g>
   <g id="line2d_7">
    <path clip-path="url(#p4ec400195d)" d="M 544.070206 326.300735 
M 505 325.432108 
L 503.551836 325.342791 
L 498.456343 324.898568 
L 493.441039 324.287319 
L 488.431066 323.44246 
L 483.426414 322.286798 
L 478.41053 320.722373 
L 473.399986 318.629073 
L 468.394773 315.861792 
L 463.37839 312.249638 
L 458.367357 307.601218 
L 453.361664 301.707991 
L 448.435284 294.499263 
L 443.423746 285.525329 
L 438.409356 274.738659 
L 433.490458 262.274098 
L 428.568533 247.957832 
L 423.55366 231.59594 
L 418.625833 213.992511 
L 413.703193 195.240482 
L 408.696074 175.486328 
L 403.767594 155.981483 
L 398.84431 136.99873 
L 393.91809 119.118446 
L 388.997067 102.846101 
L 384.073126 88.55384 
L 379.146283 76.456596 
L 374.313644 66.757029 
L 369.389031 59.007942 
L 364.461551 53.181611 
L 359.628004 49.045284 
L 354.702799 46.131089 
L 349.863292 44.237141 
L 344.940388 43.019725 
L 340.103014 42.300844 
L 335.174406 41.882756 
L 330.339191 41.660627 
L 325.501011 41.546384 
L 320.659884 41.49109 
L 315.823816 41.465999 
L 310.984818 41.45539 
L 306.15088 41.451239 
L 301.31403 41.449754 
L 296.474285 41.449273 
L 291.631661 41.449135 
L 286.881448 41.4491 
L 282.048881 41.449092 
L 277.205531 41.449091 
L 272.454328 41.449091 
L 267.621053 41.449093 
L 262.863933 41.449101 
L 258.032829 41.44914 
L 253.277733 41.449292 
L 248.527553 41.449801 
L 243.774417 41.451328 
L 238.939769 41.455625 
L 234.188701 41.466283 
L 229.434711 41.491082 
L 224.685648 41.544994 
L 219.93368 41.655043 
L 215.264805 41.861844 
L 210.514796 42.244436 
L 205.761916 42.907949 
L 201.013973 44.003647 
L 196.348803 45.692359 
L 191.595079 48.277096 
L 186.931753 51.932338 
L 182.180066 57.081267 
L 177.510849 63.803209 
L 172.761226 72.567904 
L 168.093913 83.185036 
L 163.431382 95.811333 
L 158.765903 110.326381 
L 154.012659 126.790678 
L 149.349129 144.225247 
L 144.682685 162.455345 
L 140.021033 180.970978 
L 135.356485 199.261607 
L 130.773458 216.541047 
L 126.110744 233.072692 
L 121.445167 248.224482 
L 116.776743 261.803276 
L 112.204827 273.514252 
L 107.538288 283.798858 
L 102.960446 292.344241 
L 98.295819 299.593324 
L 93.712106 305.425494 
L 89.049416 310.227115 
L 84.467486 313.985139 
L 79.890206 316.951728 
L 75.309991 319.267351 
L 70.651141 321.085174 
L 66.065179 322.445843 
" style="fill:none;stroke:#000000;stroke-linecap:square;stroke-width:1.5;"/>
   </g>
   <g id="line2d_8">
    <path clip-path="url(#p4ec400195d)" d="M 544.070206 326.300738 
M 505 325.432264 
L 503.551836 325.343 
L 498.456343 324.898991 
L 493.441039 324.288077 
L 488.431066 323.444002 
L 483.426414 322.289632 
L 478.41053 320.72792 
L 473.399986 318.63927 
L 468.394773 315.879471 
L 463.37839 312.281193 
L 458.367357 307.654668 
L 453.361664 301.795587 
L 448.435284 294.637762 
L 443.423746 285.739791 
L 438.409356 275.05939 
L 433.490458 262.736437 
L 428.568533 248.597933 
L 423.55366 232.458938 
L 418.625833 215.105222 
L 413.703193 196.627557 
L 408.696074 177.145675 
L 403.767594 157.88692 
L 398.84431 139.098238 
L 393.91809 121.333957 
L 388.997067 105.086701 
L 384.073126 90.72383 
L 379.146283 78.466806 
L 374.313644 68.541529 
L 369.389031 60.518226 
L 364.461551 54.400247 
L 359.628004 49.986431 
L 354.702799 46.819844 
L 349.863292 44.719371 
L 344.940388 43.337789 
L 340.103014 42.501144 
L 335.174406 42.000921 
L 330.339191 41.726891 
L 325.501011 41.581314 
L 320.659884 41.508321 
L 315.823816 41.473911 
L 310.984818 41.458752 
L 306.15088 41.452556 
L 301.31403 41.450221 
L 296.474285 41.449423 
L 291.631661 41.449177 
L 286.881448 41.449111 
L 282.048881 41.449095 
L 277.205531 41.449091 
L 272.454328 41.449091 
L 267.621053 41.449095 
L 262.863933 41.449113 
L 258.032829 41.449188 
L 253.277733 41.449454 
L 248.527553 41.450295 
L 243.774417 41.452687 
L 238.939769 41.459096 
L 234.188701 41.474316 
L 229.434711 41.508327 
L 224.685648 41.579507 
L 219.93368 41.719867 
L 215.264805 41.975437 
L 210.514796 42.43442 
L 205.761916 43.209052 
L 201.013973 44.456821 
L 196.348803 46.336919 
L 191.595079 49.157512 
L 186.931753 53.074405 
L 182.180066 58.504917 
L 177.510849 65.49516 
L 172.761226 74.500542 
L 168.093913 85.298816 
L 163.431382 98.030335 
L 158.765903 112.566835 
L 154.012659 128.964266 
L 149.349129 146.256606 
L 144.682685 164.282805 
L 140.021033 182.55765 
L 135.356485 200.58914 
L 130.773458 217.619171 
L 126.110744 233.915519 
L 121.445167 248.861949 
L 116.776743 262.270092 
L 112.204827 273.848193 
L 107.538288 284.029362 
L 102.960446 292.499853 
L 98.295819 299.694528 
L 93.712106 305.49024 
L 89.049416 310.267274 
L 84.467486 314.009632 
L 79.890206 316.966242 
L 75.309991 319.275922 
L 70.651141 321.089849 
L 66.065179 322.448475 
" style="fill:none;stroke:#0000ff;stroke-linecap:square;stroke-width:1.5;"/>
   </g>
   <g id="line2d_9">
    <path clip-path="url(#p4ec400195d)" d="M 544.070206 326.300729 
M 505 325.432413 
L 503.551836 325.34317 
L 498.456343 324.899368 
L 493.441039 324.288914 
L 488.431066 323.445799 
L 483.426414 322.293073 
L 478.41053 320.734448 
L 473.399986 318.651502 
L 468.394773 315.901689 
L 463.37839 312.319937 
L 458.367357 307.720918 
L 453.361664 301.905393 
L 448.435284 294.811608 
L 443.423746 286.009135 
L 438.409356 275.461681 
L 433.490458 263.315061 
L 428.568533 249.401432 
L 423.55366 233.539727 
L 418.625833 216.498421 
L 413.703193 198.353373 
L 408.696074 179.215114 
L 403.767594 160.262194 
L 398.84431 141.71495 
L 393.91809 124.109141 
L 388.997067 107.907391 
L 384.073126 93.475212 
L 379.146283 81.039228 
L 374.313644 70.850267 
L 369.389031 62.497568 
L 364.461551 56.024033 
L 359.628004 51.265135 
L 354.702799 47.776859 
L 349.863292 45.406095 
L 344.940388 43.804262 
L 340.103014 42.804388 
L 335.174406 42.186347 
L 330.339191 41.835147 
L 325.501011 41.640991 
L 320.659884 41.539246 
L 315.823816 41.488918 
L 310.984818 41.465546 
L 306.15088 41.455399 
L 301.31403 41.451317 
L 296.474285 41.449808 
L 291.631661 41.449299 
L 286.881448 41.449147 
L 282.048881 41.449105 
L 277.205531 41.449095 
L 272.454328 41.449095 
L 267.621053 41.449107 
L 262.863933 41.449153 
L 258.032829 41.449324 
L 253.277733 41.44987 
L 248.527553 41.451449 
L 243.774417 41.455626 
L 238.939769 41.466091 
L 234.188701 41.489529 
L 229.434711 41.539248 
L 224.685648 41.638497 
L 219.93368 41.825972 
L 215.264805 42.154219 
L 210.514796 42.723134 
L 205.761916 43.652233 
L 201.013973 45.105118 
L 196.348803 47.237106 
L 191.595079 50.359241 
L 186.931753 54.604401 
L 182.180066 60.379892 
L 177.510849 67.693598 
L 172.761226 76.982524 
L 168.093913 87.987206 
L 163.431382 100.833073 
L 158.765903 115.380725 
L 154.012659 131.683589 
L 149.349129 148.791154 
L 144.682685 166.562008 
L 140.021033 184.53368 
L 135.356485 202.24567 
L 130.773458 218.965376 
L 126.110744 234.970327 
L 121.445167 249.661049 
L 116.776743 262.856905 
L 112.204827 274.267468 
L 107.538288 284.318507 
L 102.960446 292.694765 
L 98.295819 299.821589 
L 93.712106 305.571203 
L 89.049416 310.317313 
L 84.467486 314.040073 
L 79.890206 316.984223 
L 75.309991 319.286071 
L 70.651141 321.095789 
L 66.065179 322.451629 
" style="fill:none;stroke:#008000;stroke-linecap:square;stroke-width:1.5;"/>
   </g>
   <g id="line2d_10">
    <path clip-path="url(#p4ec400195d)" d="M 544.070206 326.300734 
M 505 325.432576 
L 503.551836 325.343361 
L 498.456343 324.899817 
L 493.441039 324.289935 
L 488.431066 323.44784 
L 483.426414 322.297109 
L 478.41053 320.742624 
L 473.399986 318.666821 
L 468.394773 315.929799 
L 463.37839 312.369435 
L 458.367357 307.805685 
L 453.361664 302.045834 
L 448.435284 295.035276 
L 443.423746 286.357124 
L 438.409356 275.983838 
L 433.490458 264.063576 
L 428.568533 250.437728 
L 423.55366 234.930073 
L 418.625833 218.28702 
L 413.703193 200.571312 
L 408.696074 181.869874 
L 403.767594 163.310232 
L 398.84431 145.084315 
L 393.91809 127.689702 
L 388.997067 111.568726 
L 384.073126 97.073226 
L 379.146283 84.438005 
L 374.313644 73.940628 
L 369.389031 65.19149 
L 364.461551 58.276433 
L 359.628004 53.078154 
L 354.702799 49.169494 
L 349.863292 46.435213 
L 344.940388 44.527174 
L 340.103014 43.292373 
L 335.174406 42.497803 
L 330.339191 42.025712 
L 325.501011 41.751674 
L 320.659884 41.600094 
L 315.823816 41.520459 
L 310.984818 41.480901 
L 306.15088 41.462391 
L 301.31403 41.454281 
L 296.474285 41.450972 
L 291.631661 41.449723 
L 286.881448 41.449297 
L 282.048881 41.449159 
L 277.205531 41.449122 
L 272.454328 41.449124 
L 267.621053 41.449165 
L 262.863933 41.449314 
L 258.032829 41.449791 
L 253.277733 41.451118 
L 248.527553 41.45456 
L 243.774417 41.46283 
L 238.939769 41.481868 
L 234.188701 41.521461 
L 229.434711 41.60009 
L 224.685648 41.748091 
L 219.93368 42.01304 
L 215.264805 42.455441 
L 210.514796 43.189646 
L 205.761916 44.342251 
L 201.013973 46.081386 
L 196.348803 48.553786 
L 191.595079 52.073143 
L 186.931753 56.737877 
L 182.180066 62.944777 
L 177.510849 70.652161 
L 172.761226 80.277166 
L 168.093913 91.517393 
L 163.431382 104.482119 
L 158.765903 119.019946 
L 154.012659 135.185028 
L 149.349129 152.045767 
L 144.682685 169.483827 
L 140.021033 187.068689 
L 135.356485 204.371709 
L 130.773458 220.696358 
L 126.110744 236.327554 
L 121.445167 250.691161 
L 116.776743 263.613557 
L 112.204827 274.810189 
L 107.538288 284.693105 
L 102.960446 292.947246 
L 98.295819 299.985452 
L 93.712106 305.67557 
L 89.049416 310.381393 
L 84.467486 314.078368 
L 79.890206 317.00696 
L 75.309991 319.298908 
L 70.651141 321.102719 
L 66.065179 322.455512 
" style="fill:none;stroke:#ff0000;stroke-linecap:square;stroke-width:1.5;"/>
   </g>
   <g id="line2d_11">
    <path clip-path="url(#p4ec400195d)" d="M 544.070206 326.30073 
M 505 325.432647 
L 503.551836 325.343445 
L 498.456343 324.900197 
L 493.441039 324.290884 
L 488.431066 323.450013 
L 483.426414 322.301815 
L 478.41053 320.75207 
L 473.399986 318.685389 
L 468.394773 315.965034 
L 463.37839 312.43341 
L 458.367357 307.917266 
L 453.361664 302.233841 
L 448.435284 295.336511 
L 443.423746 286.825117 
L 438.409356 276.68499 
L 433.490458 265.069296 
L 428.568533 251.828365 
L 423.55366 236.790769 
L 418.625833 220.675162 
L 413.703193 203.525107 
L 408.696074 185.400559 
L 403.767594 167.36658 
L 398.84431 149.576398 
L 393.91809 132.486673 
L 388.997067 116.506788 
L 384.073126 101.973975 
L 379.146283 89.125025 
L 374.313644 78.26807 
L 369.389031 69.035239 
L 364.461551 61.563926 
L 359.628004 55.794002 
L 354.702799 51.320502 
L 349.863292 48.080617 
L 344.940388 45.72984 
L 340.103014 44.140667 
L 335.174406 43.067267 
L 330.339191 42.394046 
L 325.501011 41.97928 
L 320.659884 41.73416 
L 315.823816 41.595571 
L 310.984818 41.5208 
L 306.15088 41.48245 
L 301.31403 41.463788 
L 296.474285 41.455223 
L 291.631661 41.451527 
L 286.881448 41.450057 
L 282.048881 41.449496 
L 277.205531 41.449321 
L 272.454328 41.449329 
L 267.621053 41.449525 
L 262.863933 41.450122 
L 258.032829 41.451742 
L 253.277733 41.455628 
L 248.527553 41.464474 
L 243.774417 41.483401 
L 238.939769 41.522734 
L 234.188701 41.59741 
L 229.434711 41.734162 
L 224.685648 41.973618 
L 219.93368 42.37537 
L 215.264805 43.00824 
L 210.514796 44.004726 
L 205.761916 45.496159 
L 201.013973 47.651527 
L 196.348803 50.600767 
L 191.595079 54.657134 
L 186.931753 59.873242 
L 182.180066 66.628167 
L 177.510849 74.820981 
L 172.761226 84.844923 
L 168.093913 96.348389 
L 163.431382 109.425296 
L 158.765903 123.913907 
L 154.012659 139.86762 
L 149.349129 156.383354 
L 144.682685 173.373436 
L 140.021033 190.442957 
L 135.356485 207.203906 
L 130.773458 223.006133 
L 126.110744 238.144544 
L 121.445167 252.074117 
L 116.776743 264.631803 
L 112.204827 275.5402 
L 107.538288 285.196226 
L 102.960446 293.28624 
L 98.295819 300.204481 
L 93.712106 305.813631 
L 89.049416 310.46461 
L 84.467486 314.127792 
L 79.890206 317.035024 
L 75.309991 319.3148 
L 70.651141 321.111021 
L 66.065179 322.459597 
" style="fill:none;stroke:#00bfbf;stroke-linecap:square;stroke-width:1.5;"/>
   </g>
   <g id="line2d_12">
    <path clip-path="url(#p4ec400195d)" d="M 544.070206 326.300729 
M 505 325.432479 
L 503.551836 325.343267 
L 498.456343 324.899991 
L 493.441039 324.291035 
L 488.431066 323.45114 
L 483.426414 322.305592 
L 478.41053 320.761689 
L 473.399986 318.706958 
L 468.394773 316.008761 
L 463.37839 312.517289 
L 458.367357 308.068967 
L 453.361664 302.494219 
L 448.435284 295.759547 
L 443.423746 287.489128 
L 438.409356 277.6818 
L 433.490458 266.496898 
L 428.568533 253.796876 
L 423.55366 239.417223 
L 418.625833 224.034107 
L 413.703193 207.667157 
L 408.696074 190.346265 
L 403.767594 173.050273 
L 398.84431 155.887395 
L 393.91809 139.261169 
L 388.997067 123.537436 
L 384.073126 109.029752 
L 379.146283 95.973761 
L 374.313644 84.706465 
L 369.389031 74.885122 
L 364.461551 66.703912 
L 359.628004 60.173562 
L 354.702799 54.917308 
L 349.863292 50.946194 
L 344.940388 47.925293 
L 340.103014 45.772275 
L 335.174406 44.229742 
L 330.339191 43.196776 
L 325.501011 42.512908 
L 320.659884 42.075224 
L 315.823816 41.80486 
L 310.984818 41.643916 
L 306.15088 41.551824 
L 301.31403 41.501256 
L 296.474285 41.474679 
L 291.631661 41.46137 
L 286.881448 41.455129 
L 282.048881 41.452302 
L 277.205531 41.451276 
L 272.454328 41.45132 
L 267.621053 41.452462 
L 262.863933 41.455439 
L 258.032829 41.462208 
L 253.277733 41.476043 
L 248.527553 41.503232 
L 243.774417 41.554277 
L 238.939769 41.648292 
L 234.188701 41.808601 
L 229.434711 42.075248 
L 224.685648 42.503164 
L 219.93368 43.167017 
L 215.264805 44.141713 
L 210.514796 45.581949 
L 205.761916 47.615736 
L 201.013973 50.405848 
L 196.348803 54.049917 
L 191.595079 58.857316 
L 186.931753 64.813121 
L 182.180066 72.276609 
L 177.510849 81.070375 
L 172.761226 91.562184 
L 168.093913 103.344346 
L 163.431382 116.496605 
L 158.765903 130.851423 
L 154.012659 146.46305 
L 149.349129 162.470442 
L 144.682685 178.821045 
L 140.021033 195.170281 
L 135.356485 211.179354 
L 130.773458 226.257996 
L 126.110744 240.710141 
L 121.445167 254.032309 
L 116.776743 266.077112 
L 112.204827 276.577574 
L 107.538288 285.910356 
L 102.960446 293.763315 
L 98.295819 300.509197 
L 93.712106 306.002612 
L 89.049416 310.57599 
L 84.467486 314.191075 
L 79.890206 317.069154 
L 75.309991 319.33203 
L 70.651141 321.119212 
L 66.065179 322.463038 
" style="fill:none;stroke:#bf00bf;stroke-linecap:square;stroke-width:1.5;"/>
   </g>
   <g id="line2d_13">
    <path clip-path="url(#p4ec400195d)" d="M 544.070206 326.300729 
M 505 325.430964 
L 503.551836 325.341555 
L 498.456343 324.897177 
L 493.441039 324.286893 
L 488.431066 323.445979 
L 483.426414 322.301046 
L 478.41053 320.761824 
L 473.399986 318.720834 
L 468.394773 316.053445 
L 463.37839 312.621674 
L 458.367357 308.278752 
L 453.361664 302.875931 
L 448.435284 296.400282 
L 443.423746 288.508377 
L 438.409356 279.222064 
L 433.490458 268.702862 
L 428.568533 256.825846 
L 423.55366 243.435011 
L 418.625833 229.14429 
L 413.703193 213.945392 
L 408.696074 197.821358 
L 403.767594 181.63938 
L 398.84431 165.449583 
L 393.91809 149.585339 
L 388.997067 134.354765 
L 384.073126 120.035397 
L 379.146283 106.850911 
L 374.313644 95.161261 
L 369.389031 84.646714 
L 364.461551 75.563156 
L 359.628004 68.007813 
L 354.702799 61.637398 
L 349.863292 56.567154 
L 344.940388 52.479812 
L 340.103014 49.372299 
L 335.174406 46.981742 
L 330.339191 45.249655 
L 325.501011 44.000142 
L 320.659884 43.12134 
L 315.823816 42.519348 
L 310.984818 42.118177 
L 306.15088 41.858391 
L 301.31403 41.695152 
L 296.474285 41.59587 
L 291.631661 41.537595 
L 286.881448 41.505334 
L 282.048881 41.488161 
L 277.205531 41.481051 
L 272.454328 41.481371 
L 267.621053 41.489218 
L 262.863933 41.507076 
L 258.032829 41.541571 
L 253.277733 41.601384 
L 248.527553 41.702045 
L 243.774417 41.86578 
L 238.939769 42.129764 
L 234.188701 42.528165 
L 229.434711 43.12132 
L 224.685648 43.981518 
L 219.93368 45.19742 
L 215.264805 46.839324 
L 210.514796 49.086484 
L 205.761916 52.045043 
L 201.013973 55.853435 
L 196.348803 60.552266 
L 191.595079 66.440773 
L 186.931753 73.408305 
L 182.180066 81.788052 
L 177.510849 91.309838 
L 172.761226 102.313667 
L 168.093913 114.334604 
L 163.431382 127.443212 
L 158.765903 141.471573 
L 154.012659 156.482626 
L 149.349129 171.677216 
L 144.682685 187.049973 
L 140.021033 202.317547 
L 135.356485 217.207886 
L 130.773458 231.209664 
L 126.110744 244.637841 
L 121.445167 257.045462 
L 116.776743 268.308748 
L 112.204827 278.180044 
L 107.538288 287.008843 
L 102.960446 294.489423 
L 98.295819 300.96201 
L 93.712106 306.271074 
L 89.049416 310.722539 
L 84.467486 314.264062 
L 79.890206 317.100079 
L 75.309991 319.340812 
L 70.651141 321.117627 
L 66.065179 322.458195 
" style="fill:none;stroke:#bfbf00;stroke-linecap:square;stroke-width:1.5;"/>
   </g>
   <g id="line2d_14">
    <path clip-path="url(#p4ec400195d)" d="M 544.070206 326.300794 
M 505 325.418334 
L 503.551836 325.32694 
L 498.456343 324.872006 
L 493.441039 324.247561 
L 488.431066 323.389901 
L 483.426414 322.228808 
L 478.41053 320.681251 
L 473.399986 318.651327 
L 468.394773 316.033144 
L 463.37839 312.713268 
L 458.367357 308.576291 
L 453.361664 303.511103 
L 448.435284 297.532512 
L 443.423746 290.352162 
L 438.409356 282.013343 
L 433.490458 272.672948 
L 428.568533 262.218071 
L 423.55366 250.50188 
L 418.625833 238.034454 
L 413.703193 224.766299 
L 408.696074 210.630403 
L 403.767594 196.32378 
L 398.84431 181.833621 
L 393.91809 167.390222 
L 388.997067 153.225562 
L 384.073126 139.554822 
L 379.146283 126.568382 
L 374.313644 114.632828 
L 369.389031 103.446057 
L 364.461551 93.314273 
L 359.628004 84.433466 
L 354.702799 76.496267 
L 349.863292 69.757881 
L 344.940388 63.925547 
L 340.103014 59.132264 
L 335.174406 55.117831 
L 330.339191 51.926705 
L 325.501011 49.382828 
L 320.659884 47.388825 
L 315.823816 45.852695 
L 310.984818 44.690051 
L 306.15088 43.826188 
L 301.31403 43.196872 
L 296.474285 42.748783 
L 291.631661 42.439086 
L 286.881448 42.237756 
L 282.048881 42.114227 
L 277.205531 42.05768 
L 272.454328 42.060251 
L 267.621053 42.122406 
L 262.863933 42.249549 
L 258.032829 42.46201 
L 253.277733 42.775749 
L 248.527553 43.225541 
L 243.774417 43.852643 
L 238.939769 44.726026 
L 234.188701 45.876576 
L 229.434711 47.388812 
L 224.685648 49.34254 
L 219.93368 51.825426 
L 215.264805 54.866411 
L 210.514796 58.670495 
L 205.761916 63.277373 
L 201.013973 68.769575 
L 196.348803 75.091082 
L 191.595079 82.525927 
L 186.931753 90.83032 
L 182.180066 100.310992 
L 177.510849 110.592037 
L 172.761226 121.989394 
L 168.093913 133.992672 
L 163.431382 146.675581 
L 158.765903 159.886358 
L 154.012659 173.703938 
L 149.349129 187.432442 
L 144.682685 201.124227 
L 140.021033 214.582227 
L 135.356485 227.617324 
L 130.773458 239.835747 
L 126.110744 251.552523 
L 121.445167 262.411173 
L 116.776743 272.325021 
L 112.204827 281.083715 
L 107.538288 288.998194 
L 102.960446 295.784454 
L 98.295819 301.734464 
L 93.712106 306.684773 
L 89.049416 310.896208 
L 84.467486 314.295759 
L 79.890206 317.056246 
L 75.309991 319.26548 
L 70.651141 321.037671 
L 66.065179 322.387745 
" style="fill:none;stroke:#000000;stroke-linecap:square;stroke-width:1.5;"/>
   </g>
   <g id="line2d_15">
    <path clip-path="url(#p4ec400195d)" d="M 544.070206 326.299397 
M 505 325.156376 
L 503.551836 325.042397 
L 498.456343 324.497394 
L 493.441039 323.782253 
L 488.431066 322.845949 
L 483.426414 321.64001 
L 478.41053 320.110977 
L 473.399986 318.201983 
L 468.394773 315.853675 
L 463.37839 313.006364 
L 458.367357 309.602496 
L 453.361664 305.588431 
L 448.435284 301.003762 
L 443.423746 295.650794 
L 438.409356 289.578379 
L 433.490458 282.897903 
L 428.568533 275.512793 
L 423.55366 267.293113 
L 418.625833 258.556633 
L 413.703193 249.213716 
L 408.696074 239.14911 
L 403.767594 228.785496 
L 398.84431 218.037001 
L 393.91809 206.997639 
L 388.997067 195.76624 
L 384.073126 184.443089 
L 379.146283 173.130455 
L 374.313644 162.122798 
L 369.389031 151.121253 
L 364.461551 140.412412 
L 359.628004 130.255248 
L 354.702799 120.357797 
L 349.863292 111.126279 
L 344.940388 102.28191 
L 340.103014 94.172922 
L 335.174406 86.538618 
L 330.339191 79.665239 
L 325.501011 73.422721 
L 320.659884 67.812505 
L 315.823816 62.82924 
L 310.984818 58.462529 
L 306.15088 54.698453 
L 301.31403 51.520495 
L 296.474285 48.911532 
L 291.631661 46.854837 
L 286.881448 45.358167 
L 282.048881 44.355215 
L 277.205531 43.869562 
L 272.454328 43.892095 
L 267.621053 44.42361 
L 262.863933 45.449754 
L 258.032829 47.016415 
L 253.277733 49.07934 
L 248.527553 51.676227 
L 243.774417 54.822684 
L 238.939769 58.608018 
L 234.188701 62.912649 
L 229.434711 67.812376 
L 224.685648 73.317027 
L 219.93368 79.43128 
L 215.264805 86.026752 
L 210.514796 93.339502 
L 205.761916 101.236194 
L 201.013973 109.691901 
L 196.348803 118.504204 
L 191.595079 127.956453 
L 186.931753 137.653406 
L 182.180066 147.892758 
L 177.510849 158.234584 
L 172.761226 168.984638 
L 168.093913 179.672459 
L 163.431382 190.407379 
L 158.765903 201.103794 
L 154.012659 211.868966 
L 149.349129 222.225156 
L 144.682685 232.286695 
L 140.021033 241.977609 
L 135.356485 251.228124 
L 130.773458 259.820618 
L 126.110744 268.029311 
L 121.445167 275.648311 
L 116.776743 282.650551 
L 112.204827 288.908618 
L 107.538288 294.655679 
L 102.960446 299.68723 
L 98.295819 304.211018 
L 93.712106 308.086502 
L 89.049416 311.494481 
L 84.467486 314.348203 
L 79.890206 316.758457 
L 75.309991 318.769985 
L 70.651141 320.45666 
L 66.065179 321.801604 
" style="fill:none;stroke:#0000ff;stroke-linecap:square;stroke-width:1.5;"/>
   </g>
   <g id="line2d_16">
    <path clip-path="url(#p4ec400195d)" d="M 544.070206 326.330621 
M 505 326.335011 
L 503.551836 326.335716 
L 498.456343 326.338212 
L 493.441039 326.339853 
L 488.431066 326.33929 
L 483.426414 326.33431 
L 478.41053 326.321574 
L 473.399986 326.296223 
L 468.394773 326.251417 
L 463.37839 326.177756 
L 458.367357 326.062645 
L 453.361664 325.889555 
L 448.435284 325.642392 
L 443.423746 325.286098 
L 438.409356 324.791166 
L 433.490458 324.130678 
L 428.568533 323.251766 
L 423.55366 322.078148 
L 418.625833 320.587912 
L 413.703193 318.694094 
L 408.696074 316.273921 
L 403.767594 313.326745 
L 398.84431 309.728199 
L 393.91809 305.388816 
L 388.997067 300.219844 
L 384.073126 294.136845 
L 379.146283 287.063816 
L 374.313644 279.089417 
L 369.389031 269.883742 
L 364.461551 259.556764 
L 359.628004 248.322822 
L 354.702799 235.815406 
L 349.863292 222.541577 
L 344.940388 208.133171 
L 340.103014 193.236797 
L 335.174406 177.50246 
L 330.339191 161.695224 
L 325.501011 145.783823 
L 320.659884 130.034289 
L 315.823816 114.731023 
L 310.984818 100.169561 
L 306.15088 86.646383 
L 301.31403 74.450135 
L 296.474285 63.850962 
L 291.631661 55.091107 
L 286.881448 48.476627 
L 282.048881 43.925221 
L 277.205531 41.685879 
L 272.454328 41.790005 
L 267.621053 44.238837 
L 262.863933 48.887617 
L 258.032829 55.792849 
L 253.277733 64.54971 
L 248.527553 75.065302 
L 243.774417 87.108144 
L 238.939769 100.673463 
L 234.188701 114.998759 
L 229.434711 130.034185 
L 224.685648 145.500276 
L 219.93368 161.127167 
L 215.264805 176.382114 
L 210.514796 191.604035 
L 205.761916 206.307945 
L 201.013973 220.323378 
L 196.348803 233.282546 
L 191.595079 245.563456 
L 186.931753 256.652425 
L 182.180066 266.921595 
L 177.510849 275.986138 
L 172.761226 284.195284 
L 168.093913 291.28345 
L 163.431382 297.457346 
L 158.765903 302.777197 
L 154.012659 307.38902 
L 149.349129 311.199947 
L 144.682685 314.377124 
L 140.021033 316.996098 
L 135.356485 319.130062 
L 130.773458 320.819722 
L 126.110744 322.191942 
L 121.445167 323.26938 
L 116.776743 324.103824 
L 112.204827 324.730496 
L 107.538288 325.211674 
L 102.960446 325.561579 
L 98.295819 325.82086 
L 93.712106 326.002016 
L 89.049416 326.130232 
L 84.467486 326.215065 
L 79.890206 326.270418 
L 75.309991 326.304827 
L 70.651141 326.325058 
L 66.065179 326.335243 
" style="fill:none;stroke:#008000;stroke-linecap:square;stroke-width:1.5;"/>
   </g>
   <g id="line2d_17">
    <path clip-path="url(#p4ec400195d)" d="M 58.741716 326.18498 
L 73.747664 325.91581 
L 84.466198 325.5071 
L 92.326456 325.005568 
L 99.472145 324.326691 
L 105.188697 323.575144 
L 110.190679 322.721951 
L 115.192662 321.643377 
L 119.480075 320.503784 
L 123.767489 319.130379 
L 127.340334 317.780713 
L 130.913178 316.219969 
L 134.486023 314.423598 
L 138.058868 312.365783 
L 141.631712 310.019672 
L 145.204557 307.357678 
L 148.777402 304.351842 
L 151.635677 301.680846 
L 154.493953 298.757877 
L 157.352229 295.569298 
L 160.210504 292.102086 
L 163.06878 288.344042 
L 165.927056 284.284026 
L 169.499901 278.769502 
L 173.072745 272.752097 
L 176.64559 266.220566 
L 180.218435 259.168963 
L 183.791279 251.597388 
L 187.364124 243.512692 
L 190.936968 234.929123 
L 195.224382 224.002167 
L 199.511796 212.443601 
L 204.513778 198.258007 
L 210.23033 181.304449 
L 218.090588 157.194129 
L 228.809122 124.297331 
L 233.811104 109.581616 
L 238.098518 97.586049 
L 241.671363 88.160994 
L 245.244207 79.362491 
L 248.102483 72.839824 
L 250.960759 66.82688 
L 253.819034 61.367645 
L 255.962741 57.661137 
L 258.106448 54.304678 
L 260.250155 51.312606 
L 262.393861 48.697806 
L 264.537568 46.471615 
L 266.681275 44.643745 
L 268.824982 43.222207 
L 270.25412 42.503418 
L 271.683258 41.969447 
L 273.112395 41.621345 
L 274.541533 41.459795 
L 275.970671 41.485115 
L 277.399809 41.697256 
L 278.828947 42.095799 
L 280.258085 42.679962 
L 281.687223 43.448598 
L 283.11636 44.400199 
L 285.260067 46.166494 
L 287.403774 48.332444 
L 289.547481 50.888593 
L 291.691188 53.823848 
L 293.834894 57.125554 
L 295.978601 60.77959 
L 298.836877 66.172749 
L 301.695153 72.124446 
L 304.553428 78.59106 
L 308.126273 87.327256 
L 311.699118 96.699035 
L 315.986531 108.642982 
L 320.988514 123.315651 
L 328.134203 145.122151 
L 341.711013 186.762526 
L 347.427564 203.48854 
L 352.429547 217.413213 
L 356.71696 228.711987 
L 361.004374 239.353943 
L 364.577218 247.68616 
L 368.150063 255.511301 
L 371.722908 262.818951 
L 375.295752 269.605778 
L 378.868597 275.874847 
L 382.441442 281.634892 
L 386.014286 286.89956 
L 389.587131 291.686636 
L 392.445407 295.186558 
L 395.303682 298.406402 
L 398.161958 301.35911 
L 401.734803 304.695062 
L 405.307647 307.662282 
L 408.880492 310.288695 
L 412.453337 312.602239 
L 416.026181 314.63044 
L 419.599026 316.400048 
L 423.171871 317.936755 
L 427.459284 319.507628 
L 431.746698 320.817555 
L 436.034111 321.902619 
L 441.036094 322.927705 
L 446.038076 323.73699 
L 451.754628 324.448376 
L 458.185748 325.03559 
L 466.046007 325.526634 
L 476.049972 325.906741 
L 488.912212 326.156118 
L 491.055919 326.181416 
L 491.055919 326.181416 
" style="fill:none;stroke:#ff0000;stroke-dasharray:6.000000,6.000000;stroke-dashoffset:0.0;stroke-width:3.0;"/>
   </g>
   <g id="patch_3">
    <path d="M 59.085 12.96 
L 491.04 12.96 
" style="fill:none;stroke:#000000;stroke-linecap:square;stroke-linejoin:miter;stroke-width:1.5;"/>
   </g>
   <g id="patch_4">
    <path d="M 491.04 326.34 
L 491.04 12.96 
" style="fill:none;stroke:#000000;stroke-linecap:square;stroke-linejoin:miter;stroke-width:1.5;"/>
   </g>
   <g id="patch_5">
    <path d="M 59.085 326.34 
L 491.04 326.34 
" style="fill:none;stroke:#000000;stroke-linecap:square;stroke-linejoin:miter;stroke-width:1.5;"/>
   </g>
   <g id="patch_6">
    <path d="M 59.085 326.34 
L 59.085 12.96 
" style="fill:none;stroke:#000000;stroke-linecap:square;stroke-linejoin:miter;stroke-width:1.5;"/>
   </g>
   <g id="matplotlib.axis_1">
    <g id="xtick_1">
     <g id="line2d_18">
      <defs>
       <path d="M 0 0 
L 0 -10 
" id="m27d2ee6fc6" style="stroke:#000000;stroke-width:1.5;"/>
      </defs>
      <g>
       <use style="stroke:#000000;stroke-width:1.5;" x="102.28049999999999" xlink:href="#m27d2ee6fc6" y="326.34000000000003"/>
      </g>
     </g>
     <g id="line2d_19">
      <defs>
       <path d="M 0 0 
L 0 10 
" id="m8f36c49954" style="stroke:#000000;stroke-width:1.5;"/>
      </defs>
      <g>
       <use style="stroke:#000000;stroke-width:1.5;" x="102.28049999999999" xlink:href="#m8f36c49954" y="12.960000000000036"/>
      </g>
     </g>
     <g id="text_1">
      <!-- −20 -->
      <defs>
       <path d="M 10.59375 35.5 
L 73.1875 35.5 
L 73.1875 27.203125 
L 10.59375 27.203125 
z
" id="BitstreamVeraSans-Roman-2212"/>
       <path d="M 19.1875 8.296875 
L 53.609375 8.296875 
L 53.609375 0 
L 7.328125 0 
L 7.328125 8.296875 
Q 12.9375 14.109375 22.625 23.890625 
Q 32.328125 33.6875 34.8125 36.53125 
Q 39.546875 41.84375 41.421875 45.53125 
Q 43.3125 49.21875 43.3125 52.78125 
Q 43.3125 58.59375 39.234375 62.25 
Q 35.15625 65.921875 28.609375 65.921875 
Q 23.96875 65.921875 18.8125 64.3125 
Q 13.671875 62.703125 7.8125 59.421875 
L 7.8125 69.390625 
Q 13.765625 71.78125 18.9375 73 
Q 24.125 74.21875 28.421875 74.21875 
Q 39.75 74.21875 46.484375 68.546875 
Q 53.21875 62.890625 53.21875 53.421875 
Q 53.21875 48.921875 51.53125 44.890625 
Q 49.859375 40.875 45.40625 35.40625 
Q 44.1875 33.984375 37.640625 27.21875 
Q 31.109375 20.453125 19.1875 8.296875 
" id="BitstreamVeraSans-Roman-32"/>
       <path d="M 31.78125 66.40625 
Q 24.171875 66.40625 20.328125 58.90625 
Q 16.5 51.421875 16.5 36.375 
Q 16.5 21.390625 20.328125 13.890625 
Q 24.171875 6.390625 31.78125 6.390625 
Q 39.453125 6.390625 43.28125 13.890625 
Q 47.125 21.390625 47.125 36.375 
Q 47.125 51.421875 43.28125 58.90625 
Q 39.453125 66.40625 31.78125 66.40625 
M 31.78125 74.21875 
Q 44.046875 74.21875 50.515625 64.515625 
Q 56.984375 54.828125 56.984375 36.375 
Q 56.984375 17.96875 50.515625 8.265625 
Q 44.046875 -1.421875 31.78125 -1.421875 
Q 19.53125 -1.421875 13.0625 8.265625 
Q 6.59375 17.96875 6.59375 36.375 
Q 6.59375 54.828125 13.0625 64.515625 
Q 19.53125 74.21875 31.78125 74.21875 
" id="BitstreamVeraSans-Roman-30"/>
      </defs>
      <g transform="translate(89.61768749999999 339.458125)scale(0.12 -0.12)">
       <use xlink:href="#BitstreamVeraSans-Roman-2212"/>
       <use x="83.7890625" xlink:href="#BitstreamVeraSans-Roman-32"/>
       <use x="147.412109375" xlink:href="#BitstreamVeraSans-Roman-30"/>
      </g>
     </g>
    </g>
    <g id="xtick_2">
     <g id="line2d_20">
      <g>
       <use style="stroke:#000000;stroke-width:1.5;" x="188.67149999999998" xlink:href="#m27d2ee6fc6" y="326.34000000000003"/>
      </g>
     </g>
     <g id="line2d_21">
      <g>
       <use style="stroke:#000000;stroke-width:1.5;" x="188.67149999999998" xlink:href="#m8f36c49954" y="12.960000000000036"/>
      </g>
     </g>
     <g id="text_2">
      <!-- −10 -->
      <defs>
       <path d="M 12.40625 8.296875 
L 28.515625 8.296875 
L 28.515625 63.921875 
L 10.984375 60.40625 
L 10.984375 69.390625 
L 28.421875 72.90625 
L 38.28125 72.90625 
L 38.28125 8.296875 
L 54.390625 8.296875 
L 54.390625 0 
L 12.40625 0 
z
" id="BitstreamVeraSans-Roman-31"/>
      </defs>
      <g transform="translate(176.00868749999998 339.458125)scale(0.12 -0.12)">
       <use xlink:href="#BitstreamVeraSans-Roman-2212"/>
       <use x="83.7890625" xlink:href="#BitstreamVeraSans-Roman-31"/>
       <use x="147.412109375" xlink:href="#BitstreamVeraSans-Roman-30"/>
      </g>
     </g>
    </g>
    <g id="xtick_3">
     <g id="line2d_22">
      <g>
       <use style="stroke:#000000;stroke-width:1.5;" x="275.0625" xlink:href="#m27d2ee6fc6" y="326.34000000000003"/>
      </g>
     </g>
     <g id="line2d_23">
      <g>
       <use style="stroke:#000000;stroke-width:1.5;" x="275.0625" xlink:href="#m8f36c49954" y="12.960000000000036"/>
      </g>
     </g>
     <g id="text_3">
      <!-- 0 -->
      <g transform="translate(271.245 339.458125)scale(0.12 -0.12)">
       <use xlink:href="#BitstreamVeraSans-Roman-30"/>
      </g>
     </g>
    </g>
    <g id="xtick_4">
     <g id="line2d_24">
      <g>
       <use style="stroke:#000000;stroke-width:1.5;" x="361.4535" xlink:href="#m27d2ee6fc6" y="326.34000000000003"/>
      </g>
     </g>
     <g id="line2d_25">
      <g>
       <use style="stroke:#000000;stroke-width:1.5;" x="361.4535" xlink:href="#m8f36c49954" y="12.960000000000036"/>
      </g>
     </g>
     <g id="text_4">
      <!-- 10 -->
      <g transform="translate(353.81850000000003 339.458125)scale(0.12 -0.12)">
       <use xlink:href="#BitstreamVeraSans-Roman-31"/>
       <use x="63.623046875" xlink:href="#BitstreamVeraSans-Roman-30"/>
      </g>
     </g>
    </g>
    <g id="xtick_5">
     <g id="line2d_26">
      <g>
       <use style="stroke:#000000;stroke-width:1.5;" x="447.84450000000004" xlink:href="#m27d2ee6fc6" y="326.34000000000003"/>
      </g>
     </g>
     <g id="line2d_27">
      <g>
       <use style="stroke:#000000;stroke-width:1.5;" x="447.84450000000004" xlink:href="#m8f36c49954" y="12.960000000000036"/>
      </g>
     </g>
     <g id="text_5">
      <!-- 20 -->
      <g transform="translate(440.20950000000005 339.458125)scale(0.12 -0.12)">
       <use xlink:href="#BitstreamVeraSans-Roman-32"/>
       <use x="63.623046875" xlink:href="#BitstreamVeraSans-Roman-30"/>
      </g>
     </g>
    </g>
    <g id="text_6">
     <!-- Detuning (meV) -->
     <defs>
      <path id="BitstreamVeraSans-Roman-20"/>
      <path d="M 54.890625 33.015625 
L 54.890625 0 
L 45.90625 0 
L 45.90625 32.71875 
Q 45.90625 40.484375 42.875 44.328125 
Q 39.84375 48.1875 33.796875 48.1875 
Q 26.515625 48.1875 22.3125 43.546875 
Q 18.109375 38.921875 18.109375 30.90625 
L 18.109375 0 
L 9.078125 0 
L 9.078125 54.6875 
L 18.109375 54.6875 
L 18.109375 46.1875 
Q 21.34375 51.125 25.703125 53.5625 
Q 30.078125 56 35.796875 56 
Q 45.21875 56 50.046875 50.171875 
Q 54.890625 44.34375 54.890625 33.015625 
" id="BitstreamVeraSans-Roman-6e"/>
      <path d="M 31 75.875 
Q 24.46875 64.65625 21.28125 53.65625 
Q 18.109375 42.671875 18.109375 31.390625 
Q 18.109375 20.125 21.3125 9.0625 
Q 24.515625 -2 31 -13.1875 
L 23.1875 -13.1875 
Q 15.875 -1.703125 12.234375 9.375 
Q 8.59375 20.453125 8.59375 31.390625 
Q 8.59375 42.28125 12.203125 53.3125 
Q 15.828125 64.359375 23.1875 75.875 
z
" id="BitstreamVeraSans-Roman-28"/>
      <path d="M 8.015625 75.875 
L 15.828125 75.875 
Q 23.140625 64.359375 26.78125 53.3125 
Q 30.421875 42.28125 30.421875 31.390625 
Q 30.421875 20.453125 26.78125 9.375 
Q 23.140625 -1.703125 15.828125 -13.1875 
L 8.015625 -13.1875 
Q 14.5 -2 17.703125 9.0625 
Q 20.90625 20.125 20.90625 31.390625 
Q 20.90625 42.671875 17.703125 53.65625 
Q 14.5 64.65625 8.015625 75.875 
" id="BitstreamVeraSans-Roman-29"/>
      <path d="M 19.671875 64.796875 
L 19.671875 8.109375 
L 31.59375 8.109375 
Q 46.6875 8.109375 53.6875 14.9375 
Q 60.6875 21.78125 60.6875 36.53125 
Q 60.6875 51.171875 53.6875 57.984375 
Q 46.6875 64.796875 31.59375 64.796875 
z
M 9.8125 72.90625 
L 30.078125 72.90625 
Q 51.265625 72.90625 61.171875 64.09375 
Q 71.09375 55.28125 71.09375 36.53125 
Q 71.09375 17.671875 61.125 8.828125 
Q 51.171875 0 30.078125 0 
L 9.8125 0 
z
" id="BitstreamVeraSans-Roman-44"/>
      <path d="M 9.421875 54.6875 
L 18.40625 54.6875 
L 18.40625 0 
L 9.421875 0 
z
M 9.421875 75.984375 
L 18.40625 75.984375 
L 18.40625 64.59375 
L 9.421875 64.59375 
z
" id="BitstreamVeraSans-Roman-69"/>
      <path d="M 28.609375 0 
L 0.78125 72.90625 
L 11.078125 72.90625 
L 34.1875 11.53125 
L 57.328125 72.90625 
L 67.578125 72.90625 
L 39.796875 0 
z
" id="BitstreamVeraSans-Roman-56"/>
      <path d="M 52 44.1875 
Q 55.375 50.25 60.0625 53.125 
Q 64.75 56 71.09375 56 
Q 79.640625 56 84.28125 50.015625 
Q 88.921875 44.046875 88.921875 33.015625 
L 88.921875 0 
L 79.890625 0 
L 79.890625 32.71875 
Q 79.890625 40.578125 77.09375 44.375 
Q 74.3125 48.1875 68.609375 48.1875 
Q 61.625 48.1875 57.5625 43.546875 
Q 53.515625 38.921875 53.515625 30.90625 
L 53.515625 0 
L 44.484375 0 
L 44.484375 32.71875 
Q 44.484375 40.625 41.703125 44.40625 
Q 38.921875 48.1875 33.109375 48.1875 
Q 26.21875 48.1875 22.15625 43.53125 
Q 18.109375 38.875 18.109375 30.90625 
L 18.109375 0 
L 9.078125 0 
L 9.078125 54.6875 
L 18.109375 54.6875 
L 18.109375 46.1875 
Q 21.1875 51.21875 25.484375 53.609375 
Q 29.78125 56 35.6875 56 
Q 41.65625 56 45.828125 52.96875 
Q 50 49.953125 52 44.1875 
" id="BitstreamVeraSans-Roman-6d"/>
      <path d="M 56.203125 29.59375 
L 56.203125 25.203125 
L 14.890625 25.203125 
Q 15.484375 15.921875 20.484375 11.0625 
Q 25.484375 6.203125 34.421875 6.203125 
Q 39.59375 6.203125 44.453125 7.46875 
Q 49.3125 8.734375 54.109375 11.28125 
L 54.109375 2.78125 
Q 49.265625 0.734375 44.1875 -0.34375 
Q 39.109375 -1.421875 33.890625 -1.421875 
Q 20.796875 -1.421875 13.15625 6.1875 
Q 5.515625 13.8125 5.515625 26.8125 
Q 5.515625 40.234375 12.765625 48.109375 
Q 20.015625 56 32.328125 56 
Q 43.359375 56 49.78125 48.890625 
Q 56.203125 41.796875 56.203125 29.59375 
M 47.21875 32.234375 
Q 47.125 39.59375 43.09375 43.984375 
Q 39.0625 48.390625 32.421875 48.390625 
Q 24.90625 48.390625 20.390625 44.140625 
Q 15.875 39.890625 15.1875 32.171875 
z
" id="BitstreamVeraSans-Roman-65"/>
      <path d="M 18.3125 70.21875 
L 18.3125 54.6875 
L 36.8125 54.6875 
L 36.8125 47.703125 
L 18.3125 47.703125 
L 18.3125 18.015625 
Q 18.3125 11.328125 20.140625 9.421875 
Q 21.96875 7.515625 27.59375 7.515625 
L 36.8125 7.515625 
L 36.8125 0 
L 27.59375 0 
Q 17.1875 0 13.234375 3.875 
Q 9.28125 7.765625 9.28125 18.015625 
L 9.28125 47.703125 
L 2.6875 47.703125 
L 2.6875 54.6875 
L 9.28125 54.6875 
L 9.28125 70.21875 
z
" id="BitstreamVeraSans-Roman-74"/>
      <path d="M 8.5 21.578125 
L 8.5 54.6875 
L 17.484375 54.6875 
L 17.484375 21.921875 
Q 17.484375 14.15625 20.5 10.265625 
Q 23.53125 6.390625 29.59375 6.390625 
Q 36.859375 6.390625 41.078125 11.03125 
Q 45.3125 15.671875 45.3125 23.6875 
L 45.3125 54.6875 
L 54.296875 54.6875 
L 54.296875 0 
L 45.3125 0 
L 45.3125 8.40625 
Q 42.046875 3.421875 37.71875 1 
Q 33.40625 -1.421875 27.6875 -1.421875 
Q 18.265625 -1.421875 13.375 4.4375 
Q 8.5 10.296875 8.5 21.578125 
" id="BitstreamVeraSans-Roman-75"/>
      <path d="M 45.40625 27.984375 
Q 45.40625 37.75 41.375 43.109375 
Q 37.359375 48.484375 30.078125 48.484375 
Q 22.859375 48.484375 18.828125 43.109375 
Q 14.796875 37.75 14.796875 27.984375 
Q 14.796875 18.265625 18.828125 12.890625 
Q 22.859375 7.515625 30.078125 7.515625 
Q 37.359375 7.515625 41.375 12.890625 
Q 45.40625 18.265625 45.40625 27.984375 
M 54.390625 6.78125 
Q 54.390625 -7.171875 48.1875 -13.984375 
Q 42 -20.796875 29.203125 -20.796875 
Q 24.46875 -20.796875 20.265625 -20.09375 
Q 16.0625 -19.390625 12.109375 -17.921875 
L 12.109375 -9.1875 
Q 16.0625 -11.328125 19.921875 -12.34375 
Q 23.78125 -13.375 27.78125 -13.375 
Q 36.625 -13.375 41.015625 -8.765625 
Q 45.40625 -4.15625 45.40625 5.171875 
L 45.40625 9.625 
Q 42.625 4.78125 38.28125 2.390625 
Q 33.9375 0 27.875 0 
Q 17.828125 0 11.671875 7.65625 
Q 5.515625 15.328125 5.515625 27.984375 
Q 5.515625 40.671875 11.671875 48.328125 
Q 17.828125 56 27.875 56 
Q 33.9375 56 38.28125 53.609375 
Q 42.625 51.21875 45.40625 46.390625 
L 45.40625 54.6875 
L 54.390625 54.6875 
z
" id="BitstreamVeraSans-Roman-67"/>
     </defs>
     <g transform="translate(195.434375 362.15062500000005)scale(0.2 -0.2)">
      <use xlink:href="#BitstreamVeraSans-Roman-44"/>
      <use x="77.001953125" xlink:href="#BitstreamVeraSans-Roman-65"/>
      <use x="138.525390625" xlink:href="#BitstreamVeraSans-Roman-74"/>
      <use x="177.734375" xlink:href="#BitstreamVeraSans-Roman-75"/>
      <use x="241.11328125" xlink:href="#BitstreamVeraSans-Roman-6e"/>
      <use x="304.4921875" xlink:href="#BitstreamVeraSans-Roman-69"/>
      <use x="332.275390625" xlink:href="#BitstreamVeraSans-Roman-6e"/>
      <use x="395.654296875" xlink:href="#BitstreamVeraSans-Roman-67"/>
      <use x="459.130859375" xlink:href="#BitstreamVeraSans-Roman-20"/>
      <use x="490.91796875" xlink:href="#BitstreamVeraSans-Roman-28"/>
      <use x="529.931640625" xlink:href="#BitstreamVeraSans-Roman-6d"/>
      <use x="627.34375" xlink:href="#BitstreamVeraSans-Roman-65"/>
      <use x="688.8671875" xlink:href="#BitstreamVeraSans-Roman-56"/>
      <use x="757.275390625" xlink:href="#BitstreamVeraSans-Roman-29"/>
     </g>
    </g>
   </g>
   <g id="matplotlib.axis_2">
    <g id="ytick_1">
     <g id="line2d_28">
      <defs>
       <path d="M 0 0 
L 10 0 
" id="mc0aeb28be4" style="stroke:#000000;stroke-width:1.5;"/>
      </defs>
      <g>
       <use style="stroke:#000000;stroke-width:1.5;" x="59.085" xlink:href="#mc0aeb28be4" y="326.34000000000003"/>
      </g>
     </g>
     <g id="line2d_29">
      <defs>
       <path d="M 0 0 
L -10 0 
" id="mc61ff5874a" style="stroke:#000000;stroke-width:1.5;"/>
      </defs>
      <g>
       <use style="stroke:#000000;stroke-width:1.5;" x="491.04" xlink:href="#mc61ff5874a" y="326.34000000000003"/>
      </g>
     </g>
     <g id="text_7">
      <!-- 0.0 -->
      <defs>
       <path d="M 10.6875 12.40625 
L 21 12.40625 
L 21 0 
L 10.6875 0 
z
" id="BitstreamVeraSans-Roman-2e"/>
      </defs>
      <g transform="translate(36.00125 329.65125)scale(0.12 -0.12)">
       <use xlink:href="#BitstreamVeraSans-Roman-30"/>
       <use x="63.623046875" xlink:href="#BitstreamVeraSans-Roman-2e"/>
       <use x="95.41015625" xlink:href="#BitstreamVeraSans-Roman-30"/>
      </g>
     </g>
    </g>
    <g id="ytick_2">
     <g id="line2d_30">
      <g>
       <use style="stroke:#000000;stroke-width:1.5;" x="59.085" xlink:href="#mc0aeb28be4" y="269.3618181818182"/>
      </g>
     </g>
     <g id="line2d_31">
      <g>
       <use style="stroke:#000000;stroke-width:1.5;" x="491.04" xlink:href="#mc61ff5874a" y="269.3618181818182"/>
      </g>
     </g>
     <g id="text_8">
      <!-- 0.2 -->
      <g transform="translate(36.00125 272.6730681818182)scale(0.12 -0.12)">
       <use xlink:href="#BitstreamVeraSans-Roman-30"/>
       <use x="63.623046875" xlink:href="#BitstreamVeraSans-Roman-2e"/>
       <use x="95.41015625" xlink:href="#BitstreamVeraSans-Roman-32"/>
      </g>
     </g>
    </g>
    <g id="ytick_3">
     <g id="line2d_32">
      <g>
       <use style="stroke:#000000;stroke-width:1.5;" x="59.085" xlink:href="#mc0aeb28be4" y="212.3836363636364"/>
      </g>
     </g>
     <g id="line2d_33">
      <g>
       <use style="stroke:#000000;stroke-width:1.5;" x="491.04" xlink:href="#mc61ff5874a" y="212.3836363636364"/>
      </g>
     </g>
     <g id="text_9">
      <!-- 0.4 -->
      <defs>
       <path d="M 37.796875 64.3125 
L 12.890625 25.390625 
L 37.796875 25.390625 
z
M 35.203125 72.90625 
L 47.609375 72.90625 
L 47.609375 25.390625 
L 58.015625 25.390625 
L 58.015625 17.1875 
L 47.609375 17.1875 
L 47.609375 0 
L 37.796875 0 
L 37.796875 17.1875 
L 4.890625 17.1875 
L 4.890625 26.703125 
z
" id="BitstreamVeraSans-Roman-34"/>
      </defs>
      <g transform="translate(36.00125 215.69488636363639)scale(0.12 -0.12)">
       <use xlink:href="#BitstreamVeraSans-Roman-30"/>
       <use x="63.623046875" xlink:href="#BitstreamVeraSans-Roman-2e"/>
       <use x="95.41015625" xlink:href="#BitstreamVeraSans-Roman-34"/>
      </g>
     </g>
    </g>
    <g id="ytick_4">
     <g id="line2d_34">
      <g>
       <use style="stroke:#000000;stroke-width:1.5;" x="59.085" xlink:href="#mc0aeb28be4" y="155.40545454545457"/>
      </g>
     </g>
     <g id="line2d_35">
      <g>
       <use style="stroke:#000000;stroke-width:1.5;" x="491.04" xlink:href="#mc61ff5874a" y="155.40545454545457"/>
      </g>
     </g>
     <g id="text_10">
      <!-- 0.6 -->
      <defs>
       <path d="M 33.015625 40.375 
Q 26.375 40.375 22.484375 35.828125 
Q 18.609375 31.296875 18.609375 23.390625 
Q 18.609375 15.53125 22.484375 10.953125 
Q 26.375 6.390625 33.015625 6.390625 
Q 39.65625 6.390625 43.53125 10.953125 
Q 47.40625 15.53125 47.40625 23.390625 
Q 47.40625 31.296875 43.53125 35.828125 
Q 39.65625 40.375 33.015625 40.375 
M 52.59375 71.296875 
L 52.59375 62.3125 
Q 48.875 64.0625 45.09375 64.984375 
Q 41.3125 65.921875 37.59375 65.921875 
Q 27.828125 65.921875 22.671875 59.328125 
Q 17.53125 52.734375 16.796875 39.40625 
Q 19.671875 43.65625 24.015625 45.921875 
Q 28.375 48.1875 33.59375 48.1875 
Q 44.578125 48.1875 50.953125 41.515625 
Q 57.328125 34.859375 57.328125 23.390625 
Q 57.328125 12.15625 50.6875 5.359375 
Q 44.046875 -1.421875 33.015625 -1.421875 
Q 20.359375 -1.421875 13.671875 8.265625 
Q 6.984375 17.96875 6.984375 36.375 
Q 6.984375 53.65625 15.1875 63.9375 
Q 23.390625 74.21875 37.203125 74.21875 
Q 40.921875 74.21875 44.703125 73.484375 
Q 48.484375 72.75 52.59375 71.296875 
" id="BitstreamVeraSans-Roman-36"/>
      </defs>
      <g transform="translate(36.00125 158.71670454545458)scale(0.12 -0.12)">
       <use xlink:href="#BitstreamVeraSans-Roman-30"/>
       <use x="63.623046875" xlink:href="#BitstreamVeraSans-Roman-2e"/>
       <use x="95.41015625" xlink:href="#BitstreamVeraSans-Roman-36"/>
      </g>
     </g>
    </g>
    <g id="ytick_5">
     <g id="line2d_36">
      <g>
       <use style="stroke:#000000;stroke-width:1.5;" x="59.085" xlink:href="#mc0aeb28be4" y="98.42727272727276"/>
      </g>
     </g>
     <g id="line2d_37">
      <g>
       <use style="stroke:#000000;stroke-width:1.5;" x="491.04" xlink:href="#mc61ff5874a" y="98.42727272727276"/>
      </g>
     </g>
     <g id="text_11">
      <!-- 0.8 -->
      <defs>
       <path d="M 31.78125 34.625 
Q 24.75 34.625 20.71875 30.859375 
Q 16.703125 27.09375 16.703125 20.515625 
Q 16.703125 13.921875 20.71875 10.15625 
Q 24.75 6.390625 31.78125 6.390625 
Q 38.8125 6.390625 42.859375 10.171875 
Q 46.921875 13.96875 46.921875 20.515625 
Q 46.921875 27.09375 42.890625 30.859375 
Q 38.875 34.625 31.78125 34.625 
M 21.921875 38.8125 
Q 15.578125 40.375 12.03125 44.71875 
Q 8.5 49.078125 8.5 55.328125 
Q 8.5 64.0625 14.71875 69.140625 
Q 20.953125 74.21875 31.78125 74.21875 
Q 42.671875 74.21875 48.875 69.140625 
Q 55.078125 64.0625 55.078125 55.328125 
Q 55.078125 49.078125 51.53125 44.71875 
Q 48 40.375 41.703125 38.8125 
Q 48.828125 37.15625 52.796875 32.3125 
Q 56.78125 27.484375 56.78125 20.515625 
Q 56.78125 9.90625 50.3125 4.234375 
Q 43.84375 -1.421875 31.78125 -1.421875 
Q 19.734375 -1.421875 13.25 4.234375 
Q 6.78125 9.90625 6.78125 20.515625 
Q 6.78125 27.484375 10.78125 32.3125 
Q 14.796875 37.15625 21.921875 38.8125 
M 18.3125 54.390625 
Q 18.3125 48.734375 21.84375 45.5625 
Q 25.390625 42.390625 31.78125 42.390625 
Q 38.140625 42.390625 41.71875 45.5625 
Q 45.3125 48.734375 45.3125 54.390625 
Q 45.3125 60.0625 41.71875 63.234375 
Q 38.140625 66.40625 31.78125 66.40625 
Q 25.390625 66.40625 21.84375 63.234375 
Q 18.3125 60.0625 18.3125 54.390625 
" id="BitstreamVeraSans-Roman-38"/>
      </defs>
      <g transform="translate(36.00125 101.73852272727271)scale(0.12 -0.12)">
       <use xlink:href="#BitstreamVeraSans-Roman-30"/>
       <use x="63.623046875" xlink:href="#BitstreamVeraSans-Roman-2e"/>
       <use x="95.41015625" xlink:href="#BitstreamVeraSans-Roman-38"/>
      </g>
     </g>
    </g>
    <g id="ytick_6">
     <g id="line2d_38">
      <g>
       <use style="stroke:#000000;stroke-width:1.5;" x="59.085" xlink:href="#mc0aeb28be4" y="41.449090909090955"/>
      </g>
     </g>
     <g id="line2d_39">
      <g>
       <use style="stroke:#000000;stroke-width:1.5;" x="491.04" xlink:href="#mc61ff5874a" y="41.449090909090955"/>
      </g>
     </g>
     <g id="text_12">
      <!-- 1.0 -->
      <g transform="translate(36.00125 44.76034090909093)scale(0.12 -0.12)">
       <use xlink:href="#BitstreamVeraSans-Roman-31"/>
       <use x="63.623046875" xlink:href="#BitstreamVeraSans-Roman-2e"/>
       <use x="95.41015625" xlink:href="#BitstreamVeraSans-Roman-30"/>
      </g>
     </g>
    </g>
    <g id="text_13">
     <!-- Occupation -->
     <defs>
      <path d="M 39.40625 66.21875 
Q 28.65625 66.21875 22.328125 58.203125 
Q 16.015625 50.203125 16.015625 36.375 
Q 16.015625 22.609375 22.328125 14.59375 
Q 28.65625 6.59375 39.40625 6.59375 
Q 50.140625 6.59375 56.421875 14.59375 
Q 62.703125 22.609375 62.703125 36.375 
Q 62.703125 50.203125 56.421875 58.203125 
Q 50.140625 66.21875 39.40625 66.21875 
M 39.40625 74.21875 
Q 54.734375 74.21875 63.90625 63.9375 
Q 73.09375 53.65625 73.09375 36.375 
Q 73.09375 19.140625 63.90625 8.859375 
Q 54.734375 -1.421875 39.40625 -1.421875 
Q 24.03125 -1.421875 14.8125 8.828125 
Q 5.609375 19.09375 5.609375 36.375 
Q 5.609375 53.65625 14.8125 63.9375 
Q 24.03125 74.21875 39.40625 74.21875 
" id="BitstreamVeraSans-Roman-4f"/>
      <path d="M 30.609375 48.390625 
Q 23.390625 48.390625 19.1875 42.75 
Q 14.984375 37.109375 14.984375 27.296875 
Q 14.984375 17.484375 19.15625 11.84375 
Q 23.34375 6.203125 30.609375 6.203125 
Q 37.796875 6.203125 41.984375 11.859375 
Q 46.1875 17.53125 46.1875 27.296875 
Q 46.1875 37.015625 41.984375 42.703125 
Q 37.796875 48.390625 30.609375 48.390625 
M 30.609375 56 
Q 42.328125 56 49.015625 48.375 
Q 55.71875 40.765625 55.71875 27.296875 
Q 55.71875 13.875 49.015625 6.21875 
Q 42.328125 -1.421875 30.609375 -1.421875 
Q 18.84375 -1.421875 12.171875 6.21875 
Q 5.515625 13.875 5.515625 27.296875 
Q 5.515625 40.765625 12.171875 48.375 
Q 18.84375 56 30.609375 56 
" id="BitstreamVeraSans-Roman-6f"/>
      <path d="M 34.28125 27.484375 
Q 23.390625 27.484375 19.1875 25 
Q 14.984375 22.515625 14.984375 16.5 
Q 14.984375 11.71875 18.140625 8.90625 
Q 21.296875 6.109375 26.703125 6.109375 
Q 34.1875 6.109375 38.703125 11.40625 
Q 43.21875 16.703125 43.21875 25.484375 
L 43.21875 27.484375 
z
M 52.203125 31.203125 
L 52.203125 0 
L 43.21875 0 
L 43.21875 8.296875 
Q 40.140625 3.328125 35.546875 0.953125 
Q 30.953125 -1.421875 24.3125 -1.421875 
Q 15.921875 -1.421875 10.953125 3.296875 
Q 6 8.015625 6 15.921875 
Q 6 25.140625 12.171875 29.828125 
Q 18.359375 34.515625 30.609375 34.515625 
L 43.21875 34.515625 
L 43.21875 35.40625 
Q 43.21875 41.609375 39.140625 45 
Q 35.0625 48.390625 27.6875 48.390625 
Q 23 48.390625 18.546875 47.265625 
Q 14.109375 46.140625 10.015625 43.890625 
L 10.015625 52.203125 
Q 14.9375 54.109375 19.578125 55.046875 
Q 24.21875 56 28.609375 56 
Q 40.484375 56 46.34375 49.84375 
Q 52.203125 43.703125 52.203125 31.203125 
" id="BitstreamVeraSans-Roman-61"/>
      <path d="M 18.109375 8.203125 
L 18.109375 -20.796875 
L 9.078125 -20.796875 
L 9.078125 54.6875 
L 18.109375 54.6875 
L 18.109375 46.390625 
Q 20.953125 51.265625 25.265625 53.625 
Q 29.59375 56 35.59375 56 
Q 45.5625 56 51.78125 48.09375 
Q 58.015625 40.1875 58.015625 27.296875 
Q 58.015625 14.40625 51.78125 6.484375 
Q 45.5625 -1.421875 35.59375 -1.421875 
Q 29.59375 -1.421875 25.265625 0.953125 
Q 20.953125 3.328125 18.109375 8.203125 
M 48.6875 27.296875 
Q 48.6875 37.203125 44.609375 42.84375 
Q 40.53125 48.484375 33.40625 48.484375 
Q 26.265625 48.484375 22.1875 42.84375 
Q 18.109375 37.203125 18.109375 27.296875 
Q 18.109375 17.390625 22.1875 11.75 
Q 26.265625 6.109375 33.40625 6.109375 
Q 40.53125 6.109375 44.609375 11.75 
Q 48.6875 17.390625 48.6875 27.296875 
" id="BitstreamVeraSans-Roman-70"/>
      <path d="M 48.78125 52.59375 
L 48.78125 44.1875 
Q 44.96875 46.296875 41.140625 47.34375 
Q 37.3125 48.390625 33.40625 48.390625 
Q 24.65625 48.390625 19.8125 42.84375 
Q 14.984375 37.3125 14.984375 27.296875 
Q 14.984375 17.28125 19.8125 11.734375 
Q 24.65625 6.203125 33.40625 6.203125 
Q 37.3125 6.203125 41.140625 7.25 
Q 44.96875 8.296875 48.78125 10.40625 
L 48.78125 2.09375 
Q 45.015625 0.34375 40.984375 -0.53125 
Q 36.96875 -1.421875 32.421875 -1.421875 
Q 20.0625 -1.421875 12.78125 6.34375 
Q 5.515625 14.109375 5.515625 27.296875 
Q 5.515625 40.671875 12.859375 48.328125 
Q 20.21875 56 33.015625 56 
Q 37.15625 56 41.109375 55.140625 
Q 45.0625 54.296875 48.78125 52.59375 
" id="BitstreamVeraSans-Roman-63"/>
     </defs>
     <g transform="translate(26.841874999999995 226.48750000000004)rotate(-90.0)scale(0.2 -0.2)">
      <use xlink:href="#BitstreamVeraSans-Roman-4f"/>
      <use x="78.7109375" xlink:href="#BitstreamVeraSans-Roman-63"/>
      <use x="133.69140625" xlink:href="#BitstreamVeraSans-Roman-63"/>
      <use x="188.671875" xlink:href="#BitstreamVeraSans-Roman-75"/>
      <use x="252.05078125" xlink:href="#BitstreamVeraSans-Roman-70"/>
      <use x="315.52734375" xlink:href="#BitstreamVeraSans-Roman-61"/>
      <use x="376.806640625" xlink:href="#BitstreamVeraSans-Roman-74"/>
      <use x="416.015625" xlink:href="#BitstreamVeraSans-Roman-69"/>
      <use x="443.798828125" xlink:href="#BitstreamVeraSans-Roman-6f"/>
      <use x="504.98046875" xlink:href="#BitstreamVeraSans-Roman-6e"/>
     </g>
    </g>
   </g>
   <g id="legend_1">
    <g id="line2d_40">
     <path d="M 225.6825 75.024375 
L 242.4825 75.024375 
" style="fill:none;stroke:#0000ff;stroke-linecap:square;stroke-width:1.5;"/>
    </g>
    <g id="line2d_41"/>
    <g id="text_14">
     <!-- 300000.0fs$^2$ -->
     <defs>
      <path d="M 40.578125 39.3125 
Q 47.65625 37.796875 51.625 33 
Q 55.609375 28.21875 55.609375 21.1875 
Q 55.609375 10.40625 48.1875 4.484375 
Q 40.765625 -1.421875 27.09375 -1.421875 
Q 22.515625 -1.421875 17.65625 -0.515625 
Q 12.796875 0.390625 7.625 2.203125 
L 7.625 11.71875 
Q 11.71875 9.328125 16.59375 8.109375 
Q 21.484375 6.890625 26.8125 6.890625 
Q 36.078125 6.890625 40.9375 10.546875 
Q 45.796875 14.203125 45.796875 21.1875 
Q 45.796875 27.640625 41.28125 31.265625 
Q 36.765625 34.90625 28.71875 34.90625 
L 20.21875 34.90625 
L 20.21875 43.015625 
L 29.109375 43.015625 
Q 36.375 43.015625 40.234375 45.921875 
Q 44.09375 48.828125 44.09375 54.296875 
Q 44.09375 59.90625 40.109375 62.90625 
Q 36.140625 65.921875 28.71875 65.921875 
Q 24.65625 65.921875 20.015625 65.03125 
Q 15.375 64.15625 9.8125 62.3125 
L 9.8125 71.09375 
Q 15.4375 72.65625 20.34375 73.4375 
Q 25.25 74.21875 29.59375 74.21875 
Q 40.828125 74.21875 47.359375 69.109375 
Q 53.90625 64.015625 53.90625 55.328125 
Q 53.90625 49.265625 50.4375 45.09375 
Q 46.96875 40.921875 40.578125 39.3125 
" id="BitstreamVeraSans-Roman-33"/>
      <path d="M 46.90625 7.09375 
L 44 0 
L 3.5 0 
L 3.5 2.09375 
L 21 23.5 
L 21 23.40625 
L 26.59375 30.203125 
Q 30.5 34.90625 32.09375 36.953125 
Q 33.703125 39 35.203125 41.953125 
Q 36.703125 44.90625 36.703125 47.5 
Q 36.703125 53.703125 33.34375 57.09375 
Q 30 60.5 24.203125 60.5 
Q 19.59375 60.5 15.75 56.703125 
Q 11.90625 52.90625 10.90625 45.90625 
L 3.703125 47.59375 
Q 5.296875 56.5 11.1875 62.046875 
Q 17.09375 67.59375 24.90625 67.59375 
Q 33.59375 67.59375 39.09375 62.1875 
Q 44.59375 56.796875 44.59375 49.09375 
Q 44.59375 43.5 42.5 39.453125 
Q 40.40625 35.40625 33.703125 27 
L 17.703125 7.09375 
z
" id="STIXGeneral-Regular-1d7e4"/>
      <path d="M 37.109375 75.984375 
L 37.109375 68.5 
L 28.515625 68.5 
Q 23.6875 68.5 21.796875 66.546875 
Q 19.921875 64.59375 19.921875 59.515625 
L 19.921875 54.6875 
L 34.71875 54.6875 
L 34.71875 47.703125 
L 19.921875 47.703125 
L 19.921875 0 
L 10.890625 0 
L 10.890625 47.703125 
L 2.296875 47.703125 
L 2.296875 54.6875 
L 10.890625 54.6875 
L 10.890625 58.5 
Q 10.890625 67.625 15.140625 71.796875 
Q 19.390625 75.984375 28.609375 75.984375 
z
" id="BitstreamVeraSans-Roman-66"/>
      <path d="M 44.28125 53.078125 
L 44.28125 44.578125 
Q 40.484375 46.53125 36.375 47.5 
Q 32.28125 48.484375 27.875 48.484375 
Q 21.1875 48.484375 17.84375 46.4375 
Q 14.5 44.390625 14.5 40.28125 
Q 14.5 37.15625 16.890625 35.375 
Q 19.28125 33.59375 26.515625 31.984375 
L 29.59375 31.296875 
Q 39.15625 29.25 43.1875 25.515625 
Q 47.21875 21.78125 47.21875 15.09375 
Q 47.21875 7.46875 41.1875 3.015625 
Q 35.15625 -1.421875 24.609375 -1.421875 
Q 20.21875 -1.421875 15.453125 -0.5625 
Q 10.6875 0.296875 5.421875 2 
L 5.421875 11.28125 
Q 10.40625 8.6875 15.234375 7.390625 
Q 20.0625 6.109375 24.8125 6.109375 
Q 31.15625 6.109375 34.5625 8.28125 
Q 37.984375 10.453125 37.984375 14.40625 
Q 37.984375 18.0625 35.515625 20.015625 
Q 33.0625 21.96875 24.703125 23.78125 
L 21.578125 24.515625 
Q 13.234375 26.265625 9.515625 29.90625 
Q 5.8125 33.546875 5.8125 39.890625 
Q 5.8125 47.609375 11.28125 51.796875 
Q 16.75 56 26.8125 56 
Q 31.78125 56 36.171875 55.265625 
Q 40.578125 54.546875 44.28125 53.078125 
" id="BitstreamVeraSans-Roman-73"/>
     </defs>
     <g transform="translate(255.68250000000003 79.22437499999995)scale(0.12 -0.12)">
      <use transform="translate(0.0 0.446875)" xlink:href="#BitstreamVeraSans-Roman-33"/>
      <use transform="translate(63.623046875 0.446875)" xlink:href="#BitstreamVeraSans-Roman-30"/>
      <use transform="translate(127.24609375 0.446875)" xlink:href="#BitstreamVeraSans-Roman-30"/>
      <use transform="translate(190.869140625 0.446875)" xlink:href="#BitstreamVeraSans-Roman-30"/>
      <use transform="translate(254.4921875 0.446875)" xlink:href="#BitstreamVeraSans-Roman-30"/>
      <use transform="translate(318.115234375 0.446875)" xlink:href="#BitstreamVeraSans-Roman-30"/>
      <use transform="translate(381.73828125 0.446875)" xlink:href="#BitstreamVeraSans-Roman-2e"/>
      <use transform="translate(413.525390625 0.446875)" xlink:href="#BitstreamVeraSans-Roman-30"/>
      <use transform="translate(477.1484375 0.446875)" xlink:href="#BitstreamVeraSans-Roman-66"/>
      <use transform="translate(512.353515625 0.446875)" xlink:href="#BitstreamVeraSans-Roman-73"/>
      <use transform="translate(565.245820312 36.684375)scale(0.7)" xlink:href="#STIXGeneral-Regular-1d7e4"/>
     </g>
    </g>
    <g id="line2d_42">
     <path d="M 225.6825 89.638125 
L 242.4825 89.638125 
" style="fill:none;stroke:#008000;stroke-linecap:square;stroke-width:1.5;"/>
    </g>
    <g id="line2d_43"/>
    <g id="text_15">
     <!-- 250000.0fs$^2$ -->
     <defs>
      <path d="M 10.796875 72.90625 
L 49.515625 72.90625 
L 49.515625 64.59375 
L 19.828125 64.59375 
L 19.828125 46.734375 
Q 21.96875 47.46875 24.109375 47.828125 
Q 26.265625 48.1875 28.421875 48.1875 
Q 40.625 48.1875 47.75 41.5 
Q 54.890625 34.8125 54.890625 23.390625 
Q 54.890625 11.625 47.5625 5.09375 
Q 40.234375 -1.421875 26.90625 -1.421875 
Q 22.3125 -1.421875 17.546875 -0.640625 
Q 12.796875 0.140625 7.71875 1.703125 
L 7.71875 11.625 
Q 12.109375 9.234375 16.796875 8.0625 
Q 21.484375 6.890625 26.703125 6.890625 
Q 35.15625 6.890625 40.078125 11.328125 
Q 45.015625 15.765625 45.015625 23.390625 
Q 45.015625 31 40.078125 35.4375 
Q 35.15625 39.890625 26.703125 39.890625 
Q 22.75 39.890625 18.8125 39.015625 
Q 14.890625 38.140625 10.796875 36.28125 
z
" id="BitstreamVeraSans-Roman-35"/>
     </defs>
     <g transform="translate(255.68250000000003 93.83812499999999)scale(0.12 -0.12)">
      <use transform="translate(0.0 0.446875)" xlink:href="#BitstreamVeraSans-Roman-32"/>
      <use transform="translate(63.623046875 0.446875)" xlink:href="#BitstreamVeraSans-Roman-35"/>
      <use transform="translate(127.24609375 0.446875)" xlink:href="#BitstreamVeraSans-Roman-30"/>
      <use transform="translate(190.869140625 0.446875)" xlink:href="#BitstreamVeraSans-Roman-30"/>
      <use transform="translate(254.4921875 0.446875)" xlink:href="#BitstreamVeraSans-Roman-30"/>
      <use transform="translate(318.115234375 0.446875)" xlink:href="#BitstreamVeraSans-Roman-30"/>
      <use transform="translate(381.73828125 0.446875)" xlink:href="#BitstreamVeraSans-Roman-2e"/>
      <use transform="translate(413.525390625 0.446875)" xlink:href="#BitstreamVeraSans-Roman-30"/>
      <use transform="translate(477.1484375 0.446875)" xlink:href="#BitstreamVeraSans-Roman-66"/>
      <use transform="translate(512.353515625 0.446875)" xlink:href="#BitstreamVeraSans-Roman-73"/>
      <use transform="translate(565.245820312 36.684375)scale(0.7)" xlink:href="#STIXGeneral-Regular-1d7e4"/>
     </g>
    </g>
    <g id="line2d_44">
     <path d="M 225.6825 104.251875 
L 242.4825 104.251875 
" style="fill:none;stroke:#ff0000;stroke-linecap:square;stroke-width:1.5;"/>
    </g>
    <g id="line2d_45"/>
    <g id="text_16">
     <!-- 200000.0fs$^2$ -->
     <g transform="translate(255.68250000000003 108.45187499999997)scale(0.12 -0.12)">
      <use transform="translate(0.0 0.446875)" xlink:href="#BitstreamVeraSans-Roman-32"/>
      <use transform="translate(63.623046875 0.446875)" xlink:href="#BitstreamVeraSans-Roman-30"/>
      <use transform="translate(127.24609375 0.446875)" xlink:href="#BitstreamVeraSans-Roman-30"/>
      <use transform="translate(190.869140625 0.446875)" xlink:href="#BitstreamVeraSans-Roman-30"/>
      <use transform="translate(254.4921875 0.446875)" xlink:href="#BitstreamVeraSans-Roman-30"/>
      <use transform="translate(318.115234375 0.446875)" xlink:href="#BitstreamVeraSans-Roman-30"/>
      <use transform="translate(381.73828125 0.446875)" xlink:href="#BitstreamVeraSans-Roman-2e"/>
      <use transform="translate(413.525390625 0.446875)" xlink:href="#BitstreamVeraSans-Roman-30"/>
      <use transform="translate(477.1484375 0.446875)" xlink:href="#BitstreamVeraSans-Roman-66"/>
      <use transform="translate(512.353515625 0.446875)" xlink:href="#BitstreamVeraSans-Roman-73"/>
      <use transform="translate(565.245820312 36.684375)scale(0.7)" xlink:href="#STIXGeneral-Regular-1d7e4"/>
     </g>
    </g>
    <g id="line2d_46">
     <path d="M 225.6825 118.865625 
L 242.4825 118.865625 
" style="fill:none;stroke:#00bfbf;stroke-linecap:square;stroke-width:1.5;"/>
    </g>
    <g id="line2d_47"/>
    <g id="text_17">
     <!-- 150000.0fs$^2$ -->
     <g transform="translate(255.68250000000003 123.06562499999995)scale(0.12 -0.12)">
      <use transform="translate(0.0 0.446875)" xlink:href="#BitstreamVeraSans-Roman-31"/>
      <use transform="translate(63.623046875 0.446875)" xlink:href="#BitstreamVeraSans-Roman-35"/>
      <use transform="translate(127.24609375 0.446875)" xlink:href="#BitstreamVeraSans-Roman-30"/>
      <use transform="translate(190.869140625 0.446875)" xlink:href="#BitstreamVeraSans-Roman-30"/>
      <use transform="translate(254.4921875 0.446875)" xlink:href="#BitstreamVeraSans-Roman-30"/>
      <use transform="translate(318.115234375 0.446875)" xlink:href="#BitstreamVeraSans-Roman-30"/>
      <use transform="translate(381.73828125 0.446875)" xlink:href="#BitstreamVeraSans-Roman-2e"/>
      <use transform="translate(413.525390625 0.446875)" xlink:href="#BitstreamVeraSans-Roman-30"/>
      <use transform="translate(477.1484375 0.446875)" xlink:href="#BitstreamVeraSans-Roman-66"/>
      <use transform="translate(512.353515625 0.446875)" xlink:href="#BitstreamVeraSans-Roman-73"/>
      <use transform="translate(565.245820312 36.684375)scale(0.7)" xlink:href="#STIXGeneral-Regular-1d7e4"/>
     </g>
    </g>
    <g id="line2d_48">
     <path d="M 225.6825 133.479375 
L 242.4825 133.479375 
" style="fill:none;stroke:#bf00bf;stroke-linecap:square;stroke-width:1.5;"/>
    </g>
    <g id="line2d_49"/>
    <g id="text_18">
     <!-- 120000.0fs$^2$ -->
     <g transform="translate(255.68250000000003 137.67937499999996)scale(0.12 -0.12)">
      <use transform="translate(0.0 0.446875)" xlink:href="#BitstreamVeraSans-Roman-31"/>
      <use transform="translate(63.623046875 0.446875)" xlink:href="#BitstreamVeraSans-Roman-32"/>
      <use transform="translate(127.24609375 0.446875)" xlink:href="#BitstreamVeraSans-Roman-30"/>
      <use transform="translate(190.869140625 0.446875)" xlink:href="#BitstreamVeraSans-Roman-30"/>
      <use transform="translate(254.4921875 0.446875)" xlink:href="#BitstreamVeraSans-Roman-30"/>
      <use transform="translate(318.115234375 0.446875)" xlink:href="#BitstreamVeraSans-Roman-30"/>
      <use transform="translate(381.73828125 0.446875)" xlink:href="#BitstreamVeraSans-Roman-2e"/>
      <use transform="translate(413.525390625 0.446875)" xlink:href="#BitstreamVeraSans-Roman-30"/>
      <use transform="translate(477.1484375 0.446875)" xlink:href="#BitstreamVeraSans-Roman-66"/>
      <use transform="translate(512.353515625 0.446875)" xlink:href="#BitstreamVeraSans-Roman-73"/>
      <use transform="translate(565.245820312 36.684375)scale(0.7)" xlink:href="#STIXGeneral-Regular-1d7e4"/>
     </g>
    </g>
    <g id="line2d_50">
     <path d="M 225.6825 148.093125 
L 242.4825 148.093125 
" style="fill:none;stroke:#bfbf00;stroke-linecap:square;stroke-width:1.5;"/>
    </g>
    <g id="line2d_51"/>
    <g id="text_19">
     <!-- 100000.0fs$^2$ -->
     <g transform="translate(255.68250000000003 152.29312499999995)scale(0.12 -0.12)">
      <use transform="translate(0.0 0.446875)" xlink:href="#BitstreamVeraSans-Roman-31"/>
      <use transform="translate(63.623046875 0.446875)" xlink:href="#BitstreamVeraSans-Roman-30"/>
      <use transform="translate(127.24609375 0.446875)" xlink:href="#BitstreamVeraSans-Roman-30"/>
      <use transform="translate(190.869140625 0.446875)" xlink:href="#BitstreamVeraSans-Roman-30"/>
      <use transform="translate(254.4921875 0.446875)" xlink:href="#BitstreamVeraSans-Roman-30"/>
      <use transform="translate(318.115234375 0.446875)" xlink:href="#BitstreamVeraSans-Roman-30"/>
      <use transform="translate(381.73828125 0.446875)" xlink:href="#BitstreamVeraSans-Roman-2e"/>
      <use transform="translate(413.525390625 0.446875)" xlink:href="#BitstreamVeraSans-Roman-30"/>
      <use transform="translate(477.1484375 0.446875)" xlink:href="#BitstreamVeraSans-Roman-66"/>
      <use transform="translate(512.353515625 0.446875)" xlink:href="#BitstreamVeraSans-Roman-73"/>
      <use transform="translate(565.245820312 36.684375)scale(0.7)" xlink:href="#STIXGeneral-Regular-1d7e4"/>
     </g>
    </g>
    <g id="line2d_52">
     <path d="M 225.6825 162.706875 
L 242.4825 162.706875 
" style="fill:none;stroke:#000000;stroke-linecap:square;stroke-width:1.5;"/>
    </g>
    <g id="line2d_53"/>
    <g id="text_20">
     <!-- 90000.0fs$^2$ -->
     <defs>
      <path d="M 10.984375 1.515625 
L 10.984375 10.5 
Q 14.703125 8.734375 18.5 7.8125 
Q 22.3125 6.890625 25.984375 6.890625 
Q 35.75 6.890625 40.890625 13.453125 
Q 46.046875 20.015625 46.78125 33.40625 
Q 43.953125 29.203125 39.59375 26.953125 
Q 35.25 24.703125 29.984375 24.703125 
Q 19.046875 24.703125 12.671875 31.3125 
Q 6.296875 37.9375 6.296875 49.421875 
Q 6.296875 60.640625 12.9375 67.421875 
Q 19.578125 74.21875 30.609375 74.21875 
Q 43.265625 74.21875 49.921875 64.515625 
Q 56.59375 54.828125 56.59375 36.375 
Q 56.59375 19.140625 48.40625 8.859375 
Q 40.234375 -1.421875 26.421875 -1.421875 
Q 22.703125 -1.421875 18.890625 -0.6875 
Q 15.09375 0.046875 10.984375 1.515625 
M 30.609375 32.421875 
Q 37.25 32.421875 41.125 36.953125 
Q 45.015625 41.5 45.015625 49.421875 
Q 45.015625 57.28125 41.125 61.84375 
Q 37.25 66.40625 30.609375 66.40625 
Q 23.96875 66.40625 20.09375 61.84375 
Q 16.21875 57.28125 16.21875 49.421875 
Q 16.21875 41.5 20.09375 36.953125 
Q 23.96875 32.421875 30.609375 32.421875 
" id="BitstreamVeraSans-Roman-39"/>
     </defs>
     <g transform="translate(255.68250000000003 166.90687499999996)scale(0.12 -0.12)">
      <use transform="translate(0.0 0.446875)" xlink:href="#BitstreamVeraSans-Roman-39"/>
      <use transform="translate(63.623046875 0.446875)" xlink:href="#BitstreamVeraSans-Roman-30"/>
      <use transform="translate(127.24609375 0.446875)" xlink:href="#BitstreamVeraSans-Roman-30"/>
      <use transform="translate(190.869140625 0.446875)" xlink:href="#BitstreamVeraSans-Roman-30"/>
      <use transform="translate(254.4921875 0.446875)" xlink:href="#BitstreamVeraSans-Roman-30"/>
      <use transform="translate(318.115234375 0.446875)" xlink:href="#BitstreamVeraSans-Roman-2e"/>
      <use transform="translate(349.90234375 0.446875)" xlink:href="#BitstreamVeraSans-Roman-30"/>
      <use transform="translate(413.525390625 0.446875)" xlink:href="#BitstreamVeraSans-Roman-66"/>
      <use transform="translate(448.73046875 0.446875)" xlink:href="#BitstreamVeraSans-Roman-73"/>
      <use transform="translate(501.622773437 36.684375)scale(0.7)" xlink:href="#STIXGeneral-Regular-1d7e4"/>
     </g>
    </g>
    <g id="line2d_54">
     <path d="M 225.6825 177.320625 
L 242.4825 177.320625 
" style="fill:none;stroke:#0000ff;stroke-linecap:square;stroke-width:1.5;"/>
    </g>
    <g id="line2d_55"/>
    <g id="text_21">
     <!-- 80000.0fs$^2$ -->
     <g transform="translate(255.68250000000003 181.52062499999994)scale(0.12 -0.12)">
      <use transform="translate(0.0 0.446875)" xlink:href="#BitstreamVeraSans-Roman-38"/>
      <use transform="translate(63.623046875 0.446875)" xlink:href="#BitstreamVeraSans-Roman-30"/>
      <use transform="translate(127.24609375 0.446875)" xlink:href="#BitstreamVeraSans-Roman-30"/>
      <use transform="translate(190.869140625 0.446875)" xlink:href="#BitstreamVeraSans-Roman-30"/>
      <use transform="translate(254.4921875 0.446875)" xlink:href="#BitstreamVeraSans-Roman-30"/>
      <use transform="translate(318.115234375 0.446875)" xlink:href="#BitstreamVeraSans-Roman-2e"/>
      <use transform="translate(349.90234375 0.446875)" xlink:href="#BitstreamVeraSans-Roman-30"/>
      <use transform="translate(413.525390625 0.446875)" xlink:href="#BitstreamVeraSans-Roman-66"/>
      <use transform="translate(448.73046875 0.446875)" xlink:href="#BitstreamVeraSans-Roman-73"/>
      <use transform="translate(501.622773437 36.684375)scale(0.7)" xlink:href="#STIXGeneral-Regular-1d7e4"/>
     </g>
    </g>
    <g id="line2d_56">
     <path d="M 225.6825 191.934375 
L 242.4825 191.934375 
" style="fill:none;stroke:#008000;stroke-linecap:square;stroke-width:1.5;"/>
    </g>
    <g id="line2d_57"/>
    <g id="text_22">
     <!-- 70000.0fs$^2$ -->
     <defs>
      <path d="M 8.203125 72.90625 
L 55.078125 72.90625 
L 55.078125 68.703125 
L 28.609375 0 
L 18.3125 0 
L 43.21875 64.59375 
L 8.203125 64.59375 
z
" id="BitstreamVeraSans-Roman-37"/>
     </defs>
     <g transform="translate(255.68250000000003 196.13437499999995)scale(0.12 -0.12)">
      <use transform="translate(0.0 0.446875)" xlink:href="#BitstreamVeraSans-Roman-37"/>
      <use transform="translate(63.623046875 0.446875)" xlink:href="#BitstreamVeraSans-Roman-30"/>
      <use transform="translate(127.24609375 0.446875)" xlink:href="#BitstreamVeraSans-Roman-30"/>
      <use transform="translate(190.869140625 0.446875)" xlink:href="#BitstreamVeraSans-Roman-30"/>
      <use transform="translate(254.4921875 0.446875)" xlink:href="#BitstreamVeraSans-Roman-30"/>
      <use transform="translate(318.115234375 0.446875)" xlink:href="#BitstreamVeraSans-Roman-2e"/>
      <use transform="translate(349.90234375 0.446875)" xlink:href="#BitstreamVeraSans-Roman-30"/>
      <use transform="translate(413.525390625 0.446875)" xlink:href="#BitstreamVeraSans-Roman-66"/>
      <use transform="translate(448.73046875 0.446875)" xlink:href="#BitstreamVeraSans-Roman-73"/>
      <use transform="translate(501.622773437 36.684375)scale(0.7)" xlink:href="#STIXGeneral-Regular-1d7e4"/>
     </g>
    </g>
    <g id="line2d_58">
     <path d="M 225.6825 206.548125 
L 242.4825 206.548125 
" style="fill:none;stroke:#ff0000;stroke-linecap:square;stroke-width:1.5;"/>
    </g>
    <g id="line2d_59"/>
    <g id="text_23">
     <!-- 60000.0fs$^2$ -->
     <g transform="translate(255.68250000000003 210.74812499999993)scale(0.12 -0.12)">
      <use transform="translate(0.0 0.446875)" xlink:href="#BitstreamVeraSans-Roman-36"/>
      <use transform="translate(63.623046875 0.446875)" xlink:href="#BitstreamVeraSans-Roman-30"/>
      <use transform="translate(127.24609375 0.446875)" xlink:href="#BitstreamVeraSans-Roman-30"/>
      <use transform="translate(190.869140625 0.446875)" xlink:href="#BitstreamVeraSans-Roman-30"/>
      <use transform="translate(254.4921875 0.446875)" xlink:href="#BitstreamVeraSans-Roman-30"/>
      <use transform="translate(318.115234375 0.446875)" xlink:href="#BitstreamVeraSans-Roman-2e"/>
      <use transform="translate(349.90234375 0.446875)" xlink:href="#BitstreamVeraSans-Roman-30"/>
      <use transform="translate(413.525390625 0.446875)" xlink:href="#BitstreamVeraSans-Roman-66"/>
      <use transform="translate(448.73046875 0.446875)" xlink:href="#BitstreamVeraSans-Roman-73"/>
      <use transform="translate(501.622773437 36.684375)scale(0.7)" xlink:href="#STIXGeneral-Regular-1d7e4"/>
     </g>
    </g>
    <g id="line2d_60">
     <path d="M 225.6825 221.161875 
L 242.4825 221.161875 
" style="fill:none;stroke:#00bfbf;stroke-linecap:square;stroke-width:1.5;"/>
    </g>
    <g id="line2d_61"/>
    <g id="text_24">
     <!-- 50000.0fs$^2$ -->
     <g transform="translate(255.68250000000003 225.36187499999994)scale(0.12 -0.12)">
      <use transform="translate(0.0 0.446875)" xlink:href="#BitstreamVeraSans-Roman-35"/>
      <use transform="translate(63.623046875 0.446875)" xlink:href="#BitstreamVeraSans-Roman-30"/>
      <use transform="translate(127.24609375 0.446875)" xlink:href="#BitstreamVeraSans-Roman-30"/>
      <use transform="translate(190.869140625 0.446875)" xlink:href="#BitstreamVeraSans-Roman-30"/>
      <use transform="translate(254.4921875 0.446875)" xlink:href="#BitstreamVeraSans-Roman-30"/>
      <use transform="translate(318.115234375 0.446875)" xlink:href="#BitstreamVeraSans-Roman-2e"/>
      <use transform="translate(349.90234375 0.446875)" xlink:href="#BitstreamVeraSans-Roman-30"/>
      <use transform="translate(413.525390625 0.446875)" xlink:href="#BitstreamVeraSans-Roman-66"/>
      <use transform="translate(448.73046875 0.446875)" xlink:href="#BitstreamVeraSans-Roman-73"/>
      <use transform="translate(501.622773437 36.684375)scale(0.7)" xlink:href="#STIXGeneral-Regular-1d7e4"/>
     </g>
    </g>
    <g id="line2d_62">
     <path d="M 225.6825 235.775625 
L 242.4825 235.775625 
" style="fill:none;stroke:#bf00bf;stroke-linecap:square;stroke-width:1.5;"/>
    </g>
    <g id="line2d_63"/>
    <g id="text_25">
     <!-- 40000.0fs$^2$ -->
     <g transform="translate(255.68250000000003 239.97562499999995)scale(0.12 -0.12)">
      <use transform="translate(0.0 0.446875)" xlink:href="#BitstreamVeraSans-Roman-34"/>
      <use transform="translate(63.623046875 0.446875)" xlink:href="#BitstreamVeraSans-Roman-30"/>
      <use transform="translate(127.24609375 0.446875)" xlink:href="#BitstreamVeraSans-Roman-30"/>
      <use transform="translate(190.869140625 0.446875)" xlink:href="#BitstreamVeraSans-Roman-30"/>
      <use transform="translate(254.4921875 0.446875)" xlink:href="#BitstreamVeraSans-Roman-30"/>
      <use transform="translate(318.115234375 0.446875)" xlink:href="#BitstreamVeraSans-Roman-2e"/>
      <use transform="translate(349.90234375 0.446875)" xlink:href="#BitstreamVeraSans-Roman-30"/>
      <use transform="translate(413.525390625 0.446875)" xlink:href="#BitstreamVeraSans-Roman-66"/>
      <use transform="translate(448.73046875 0.446875)" xlink:href="#BitstreamVeraSans-Roman-73"/>
      <use transform="translate(501.622773437 36.684375)scale(0.7)" xlink:href="#STIXGeneral-Regular-1d7e4"/>
     </g>
    </g>
    <g id="line2d_64">
     <path d="M 225.6825 250.389375 
L 242.4825 250.389375 
" style="fill:none;stroke:#bfbf00;stroke-linecap:square;stroke-width:1.5;"/>
    </g>
    <g id="line2d_65"/>
    <g id="text_26">
     <!-- 30000.0fs$^2$ -->
     <g transform="translate(255.68250000000003 254.58937499999996)scale(0.12 -0.12)">
      <use transform="translate(0.0 0.446875)" xlink:href="#BitstreamVeraSans-Roman-33"/>
      <use transform="translate(63.623046875 0.446875)" xlink:href="#BitstreamVeraSans-Roman-30"/>
      <use transform="translate(127.24609375 0.446875)" xlink:href="#BitstreamVeraSans-Roman-30"/>
      <use transform="translate(190.869140625 0.446875)" xlink:href="#BitstreamVeraSans-Roman-30"/>
      <use transform="translate(254.4921875 0.446875)" xlink:href="#BitstreamVeraSans-Roman-30"/>
      <use transform="translate(318.115234375 0.446875)" xlink:href="#BitstreamVeraSans-Roman-2e"/>
      <use transform="translate(349.90234375 0.446875)" xlink:href="#BitstreamVeraSans-Roman-30"/>
      <use transform="translate(413.525390625 0.446875)" xlink:href="#BitstreamVeraSans-Roman-66"/>
      <use transform="translate(448.73046875 0.446875)" xlink:href="#BitstreamVeraSans-Roman-73"/>
      <use transform="translate(501.622773437 36.684375)scale(0.7)" xlink:href="#STIXGeneral-Regular-1d7e4"/>
     </g>
    </g>
    <g id="line2d_66">
     <path d="M 225.6825 265.003125 
L 242.4825 265.003125 
" style="fill:none;stroke:#000000;stroke-linecap:square;stroke-width:1.5;"/>
    </g>
    <g id="line2d_67"/>
    <g id="text_27">
     <!-- 20000.0fs$^2$ -->
     <g transform="translate(255.68250000000003 269.203125)scale(0.12 -0.12)">
      <use transform="translate(0.0 0.446875)" xlink:href="#BitstreamVeraSans-Roman-32"/>
      <use transform="translate(63.623046875 0.446875)" xlink:href="#BitstreamVeraSans-Roman-30"/>
      <use transform="translate(127.24609375 0.446875)" xlink:href="#BitstreamVeraSans-Roman-30"/>
      <use transform="translate(190.869140625 0.446875)" xlink:href="#BitstreamVeraSans-Roman-30"/>
      <use transform="translate(254.4921875 0.446875)" xlink:href="#BitstreamVeraSans-Roman-30"/>
      <use transform="translate(318.115234375 0.446875)" xlink:href="#BitstreamVeraSans-Roman-2e"/>
      <use transform="translate(349.90234375 0.446875)" xlink:href="#BitstreamVeraSans-Roman-30"/>
      <use transform="translate(413.525390625 0.446875)" xlink:href="#BitstreamVeraSans-Roman-66"/>
      <use transform="translate(448.73046875 0.446875)" xlink:href="#BitstreamVeraSans-Roman-73"/>
      <use transform="translate(501.622773437 36.684375)scale(0.7)" xlink:href="#STIXGeneral-Regular-1d7e4"/>
     </g>
    </g>
    <g id="line2d_68">
     <path d="M 225.6825 279.616875 
L 242.4825 279.616875 
" style="fill:none;stroke:#0000ff;stroke-linecap:square;stroke-width:1.5;"/>
    </g>
    <g id="line2d_69"/>
    <g id="text_28">
     <!-- 10000.0fs$^2$ -->
     <g transform="translate(255.68250000000003 283.816875)scale(0.12 -0.12)">
      <use transform="translate(0.0 0.446875)" xlink:href="#BitstreamVeraSans-Roman-31"/>
      <use transform="translate(63.623046875 0.446875)" xlink:href="#BitstreamVeraSans-Roman-30"/>
      <use transform="translate(127.24609375 0.446875)" xlink:href="#BitstreamVeraSans-Roman-30"/>
      <use transform="translate(190.869140625 0.446875)" xlink:href="#BitstreamVeraSans-Roman-30"/>
      <use transform="translate(254.4921875 0.446875)" xlink:href="#BitstreamVeraSans-Roman-30"/>
      <use transform="translate(318.115234375 0.446875)" xlink:href="#BitstreamVeraSans-Roman-2e"/>
      <use transform="translate(349.90234375 0.446875)" xlink:href="#BitstreamVeraSans-Roman-30"/>
      <use transform="translate(413.525390625 0.446875)" xlink:href="#BitstreamVeraSans-Roman-66"/>
      <use transform="translate(448.73046875 0.446875)" xlink:href="#BitstreamVeraSans-Roman-73"/>
      <use transform="translate(501.622773437 36.684375)scale(0.7)" xlink:href="#STIXGeneral-Regular-1d7e4"/>
     </g>
    </g>
    <g id="line2d_70">
     <path d="M 225.6825 294.230625 
L 242.4825 294.230625 
" style="fill:none;stroke:#008000;stroke-linecap:square;stroke-width:1.5;"/>
    </g>
    <g id="line2d_71"/>
    <g id="text_29">
     <!-- 0.0fs$^2$ -->
     <g transform="translate(255.68250000000003 298.43062499999996)scale(0.12 -0.12)">
      <use transform="translate(0.0 0.446875)" xlink:href="#BitstreamVeraSans-Roman-30"/>
      <use transform="translate(63.623046875 0.446875)" xlink:href="#BitstreamVeraSans-Roman-2e"/>
      <use transform="translate(95.41015625 0.446875)" xlink:href="#BitstreamVeraSans-Roman-30"/>
      <use transform="translate(159.033203125 0.446875)" xlink:href="#BitstreamVeraSans-Roman-66"/>
      <use transform="translate(194.23828125 0.446875)" xlink:href="#BitstreamVeraSans-Roman-73"/>
      <use transform="translate(247.130585938 36.684375)scale(0.7)" xlink:href="#STIXGeneral-Regular-1d7e4"/>
     </g>
    </g>
    <g id="line2d_72">
     <path d="M 225.6825 308.844375 
L 242.4825 308.844375 
" style="fill:none;stroke:#ff0000;stroke-dasharray:6.000000,6.000000;stroke-dashoffset:0.0;stroke-width:3.0;"/>
    </g>
    <g id="line2d_73"/>
    <g id="text_30">
     <!-- laser -->
     <defs>
      <path d="M 41.109375 46.296875 
Q 39.59375 47.171875 37.8125 47.578125 
Q 36.03125 48 33.890625 48 
Q 26.265625 48 22.1875 43.046875 
Q 18.109375 38.09375 18.109375 28.8125 
L 18.109375 0 
L 9.078125 0 
L 9.078125 54.6875 
L 18.109375 54.6875 
L 18.109375 46.1875 
Q 20.953125 51.171875 25.484375 53.578125 
Q 30.03125 56 36.53125 56 
Q 37.453125 56 38.578125 55.875 
Q 39.703125 55.765625 41.0625 55.515625 
z
" id="BitstreamVeraSans-Roman-72"/>
      <path d="M 9.421875 75.984375 
L 18.40625 75.984375 
L 18.40625 0 
L 9.421875 0 
z
" id="BitstreamVeraSans-Roman-6c"/>
     </defs>
     <g transform="translate(255.68250000000003 313.044375)scale(0.12 -0.12)">
      <use xlink:href="#BitstreamVeraSans-Roman-6c"/>
      <use x="27.783203125" xlink:href="#BitstreamVeraSans-Roman-61"/>
      <use x="89.0625" xlink:href="#BitstreamVeraSans-Roman-73"/>
      <use x="141.162109375" xlink:href="#BitstreamVeraSans-Roman-65"/>
      <use x="202.685546875" xlink:href="#BitstreamVeraSans-Roman-72"/>
     </g>
    </g>
   </g>
  </g>
 </g>
 <defs>
  <clipPath id="p4ec400195d">
   <rect height="313.38" width="431.95500000000004" x="59.085" y="12.960000000000036"/>
  </clipPath>
 </defs>
</svg>
