<?xml version="1.0" encoding="utf-8" standalone="no"?>
<!DOCTYPE svg PUBLIC "-//W3C//DTD SVG 1.1//EN"
  "http://www.w3.org/Graphics/SVG/1.1/DTD/svg11.dtd">
<!-- Created with matplotlib (http://matplotlib.org/) -->
<svg height="378pt" version="1.1" viewBox="0 0 504 378" width="504pt" xmlns="http://www.w3.org/2000/svg" xmlns:xlink="http://www.w3.org/1999/xlink">
 <defs>
  <style type="text/css">
*{stroke-linecap:butt;stroke-linejoin:round;stroke-miterlimit:100000;}
  </style>
 </defs>
 <g id="figure_1">
  <g id="patch_1">
   <path d="M 0 378 
L 504 378 
L 504 0 
L 0 0 
z
" style="fill:#ffffff;"/>
  </g>
  <g id="axes_1">
   <g id="patch_2">
    <path d="M 59.085 326.34 
L 491.04 326.34 
L 491.04 12.96 
L 59.085 12.96 
z
" style="fill:#ffffff;"/>
   </g>
   <g id="line2d_1">
    <path clip-path="url(#p35be8efa67)" d="M 544.070206 326.205644 
M 505 324.810337 
L 493.963909 324.094935 
L 469.17081 319.81842 
L 444.458477 310.569764 
L 419.843005 294.22293 
L 395.388908 270.792494 
L 371.11084 243.573329 
L 346.926618 217.943137 
L 322.819761 198.613832 
L 298.893523 187.440122 
L 275.051045 183.895065 
L 251.378647 187.388164 
L 227.796277 198.285776 
L 204.381463 216.796339 
L 180.969644 241.33399 
L 157.816401 267.423195 
L 134.66528 290.48395 
L 111.685236 307.269875 
L 88.874564 317.509945 
L 66.065179 322.819487 
" style="fill:none;stroke:#0000ff;stroke-linecap:square;stroke-width:1.5;"/>
   </g>
   <g id="line2d_2">
    <path clip-path="url(#p35be8efa67)" d="M 544.070206 326.2994 
M 505 324.781242 
L 493.963909 323.865675 
L 469.17081 316.249289 
L 444.458477 296.816918 
L 419.843005 260.760327 
L 395.388908 210.315347 
L 371.11084 154.952279 
L 346.926618 105.781116 
L 322.819761 70.23928 
L 298.893523 50.14592 
L 275.051045 43.818531 
L 251.378647 50.053135 
L 227.796277 69.645242 
L 204.381463 103.639516 
L 180.969644 150.549435 
L 157.816401 203.270286 
L 134.66528 252.55706 
L 111.685236 289.578348 
L 88.874564 311.610747 
L 66.065179 321.801566 
" style="fill:none;stroke:#008000;stroke-linecap:square;stroke-width:1.5;"/>
   </g>
   <g id="line2d_3">
    <path clip-path="url(#p35be8efa67)" d="M 544.070206 326.300794 
M 505 325.075664 
L 493.963909 324.32187 
L 469.17081 316.482687 
L 444.458477 291.931755 
L 419.843005 241.176453 
L 395.388908 171.679492 
L 371.11084 107.254682 
L 346.926618 66.158777 
L 322.819761 48.217097 
L 298.893523 42.953119 
L 275.051045 42.051873 
L 251.378647 42.937265 
L 227.796277 48.009499 
L 204.381463 64.780344 
L 180.969644 102.885697 
L 157.816401 162.626447 
L 134.66528 229.502253 
L 111.685236 282.013235 
L 88.874564 311.037 
L 66.065179 322.387692 
" style="fill:none;stroke:#ff0000;stroke-linecap:square;stroke-width:1.5;"/>
   </g>
   <g id="line2d_4">
    <path clip-path="url(#p35be8efa67)" d="M 544.070206 326.300726 
M 505 325.097312 
L 493.963909 324.359604 
L 469.17081 316.513814 
L 444.458477 290.253687 
L 419.843005 232.748054 
L 395.388908 154.263807 
L 371.11084 88.173644 
L 346.926618 54.008199 
L 322.819761 43.474263 
L 298.893523 41.639144 
L 275.051045 41.480354 
L 251.378647 41.635688 
L 227.796277 43.384132 
L 204.381463 53.059135 
L 180.969644 84.133126 
L 157.816401 144.422998 
L 134.66528 219.365727 
L 111.685236 279.222229 
L 88.874564 310.870331 
L 66.065179 322.458179 
" style="fill:none;stroke:#00bfbf;stroke-linecap:square;stroke-width:1.5;"/>
   </g>
   <g id="line2d_5">
    <path clip-path="url(#p35be8efa67)" d="M 544.070206 326.30073 
M 505 325.099678 
L 493.963909 324.363637 
L 469.17081 316.475487 
L 444.458477 289.323333 
L 419.843005 227.913589 
L 395.388908 144.139924 
L 371.11084 78.142021 
L 346.926618 49.033052 
L 322.819761 42.245794 
L 298.893523 41.48577 
L 275.051045 41.451181 
L 251.378647 41.484846 
L 227.796277 42.201499 
L 204.381463 48.341792 
L 180.969644 74.414089 
L 157.816401 133.902341 
L 134.66528 213.502408 
L 111.685236 277.682367 
L 88.874564 310.727378 
L 66.065179 322.463058 
" style="fill:none;stroke:#bf00bf;stroke-linecap:square;stroke-width:1.5;"/>
   </g>
   <g id="line2d_6">
    <path clip-path="url(#p35be8efa67)" d="M 544.070206 326.300726 
M 505 325.099637 
L 493.963909 324.363501 
L 469.17081 316.436102 
L 444.458477 288.716787 
L 419.843005 224.741136 
L 395.388908 137.48397 
L 371.11084 72.068868 
L 346.926618 46.577663 
L 322.819761 41.82721 
L 298.893523 41.45865 
L 275.051045 41.449307 
L 251.378647 41.458357 
L 227.796277 41.802688 
L 204.381463 46.046454 
L 180.969644 68.598971 
L 157.816401 127.017726 
L 134.66528 209.638156 
L 111.685236 276.685612 
L 88.874564 310.618429 
L 66.065179 322.459599 
" style="fill:none;stroke:#bfbf00;stroke-linecap:square;stroke-width:1.5;"/>
   </g>
   <g id="line2d_7">
    <path clip-path="url(#p35be8efa67)" d="M 544.070206 326.300727 
M 505 325.099167 
L 493.963909 324.362645 
L 469.17081 316.404039 
L 444.458477 288.288213 
L 419.843005 222.488899 
L 395.388908 132.761679 
L 371.11084 68.044692 
L 346.926618 45.206044 
L 322.819761 41.656358 
L 298.893523 41.452244 
L 275.051045 41.44912 
L 251.378647 41.452132 
L 227.796277 41.641382 
L 204.381463 44.779332 
L 180.969644 64.782907 
L 157.816401 122.153729 
L 134.66528 206.886209 
L 111.685236 275.983992 
L 88.874564 310.536439 
L 66.065179 322.455471 
" style="fill:none;stroke:#000000;stroke-linecap:square;stroke-width:1.5;"/>
   </g>
   <g id="line2d_8">
    <path clip-path="url(#p35be8efa67)" d="M 544.070206 326.300723 
M 505 325.098644 
L 493.963909 324.361726 
L 469.17081 316.378489 
L 444.458477 287.969657 
L 419.843005 220.800383 
L 395.388908 129.233038 
L 371.11084 65.204467 
L 346.926618 44.367692 
L 322.819761 41.576318 
L 298.893523 41.450369 
L 275.051045 41.449094 
L 251.378647 41.450318 
L 227.796277 41.566361 
L 204.381463 44.012624 
L 180.969644 62.112067 
L 157.816401 118.531454 
L 134.66528 204.820501 
L 111.685236 275.462312 
L 88.874564 310.473713 
L 66.065179 322.451649 
" style="fill:none;stroke:#0000ff;stroke-linecap:square;stroke-width:1.5;"/>
   </g>
   <g id="line2d_9">
    <path clip-path="url(#p35be8efa67)" d="M 544.070206 326.300732 
M 505 325.098179 
L 493.963909 324.360906 
L 469.17081 316.358235 
L 444.458477 287.722511 
L 419.843005 219.488576 
L 395.388908 126.493207 
L 371.11084 63.104372 
L 346.926618 43.819112 
L 322.819761 41.534519 
L 298.893523 41.449711 
L 275.051045 41.449091 
L 251.378647 41.449685 
L 227.796277 41.527441 
L 204.381463 43.515126 
L 180.969644 60.150416 
L 157.816401 115.728641 
L 134.66528 203.212002 
L 111.685236 275.059119 
L 88.874564 310.424651 
L 66.065179 322.448432 
" style="fill:none;stroke:#008000;stroke-linecap:square;stroke-width:1.5;"/>
   </g>
   <g id="line2d_10">
    <path clip-path="url(#p35be8efa67)" d="M 544.070206 326.30073 
M 505 325.097785 
L 493.963909 324.360212 
L 469.17081 316.341822 
L 444.458477 287.526145 
L 419.843005 218.437108 
L 395.388908 124.303697 
L 371.11084 61.494858 
L 346.926618 43.440378 
L 322.819761 41.510705 
L 298.893523 41.449444 
L 275.051045 41.449091 
L 251.378647 41.449428 
L 227.796277 41.505364 
L 204.381463 43.174212 
L 180.969644 58.655844 
L 157.816401 113.494303 
L 134.66528 201.922955 
L 111.685236 274.73851 
L 88.874564 310.385154 
L 66.065179 322.445776 
" style="fill:none;stroke:#ff0000;stroke-linecap:square;stroke-width:1.5;"/>
   </g>
   <g id="line2d_11">
    <path clip-path="url(#p35be8efa67)" d="M 544.070206 326.300732 
M 505 325.097464 
L 493.963909 324.359643 
L 469.17081 316.328577 
L 444.458477 287.366472 
L 419.843005 217.577063 
L 395.388908 122.514703 
L 371.11084 60.225079 
L 346.926618 43.167665 
L 322.819761 41.496128 
L 298.893523 41.449321 
L 275.051045 41.449091 
L 251.378647 41.44931 
L 227.796277 41.491924 
L 204.381463 42.930207 
L 180.969644 57.482569 
L 157.816401 111.67176 
L 134.66528 200.865011 
L 111.685236 274.476951 
L 88.874564 310.35285 
L 66.065179 322.443551 
" style="fill:none;stroke:#00bfbf;stroke-linecap:square;stroke-width:1.5;"/>
   </g>
   <g id="patch_3">
    <path d="M 59.085 12.96 
L 491.04 12.96 
" style="fill:none;stroke:#000000;stroke-linecap:square;stroke-linejoin:miter;stroke-width:1.5;"/>
   </g>
   <g id="patch_4">
    <path d="M 491.04 326.34 
L 491.04 12.96 
" style="fill:none;stroke:#000000;stroke-linecap:square;stroke-linejoin:miter;stroke-width:1.5;"/>
   </g>
   <g id="patch_5">
    <path d="M 59.085 326.34 
L 491.04 326.34 
" style="fill:none;stroke:#000000;stroke-linecap:square;stroke-linejoin:miter;stroke-width:1.5;"/>
   </g>
   <g id="patch_6">
    <path d="M 59.085 326.34 
L 59.085 12.96 
" style="fill:none;stroke:#000000;stroke-linecap:square;stroke-linejoin:miter;stroke-width:1.5;"/>
   </g>
   <g id="matplotlib.axis_1">
    <g id="xtick_1">
     <g id="line2d_12">
      <defs>
       <path d="M 0 0 
L 0 -10 
" id="mb9db4e0593" style="stroke:#000000;stroke-width:1.5;"/>
      </defs>
      <g>
       <use style="stroke:#000000;stroke-width:1.5;" x="102.28049999999999" xlink:href="#mb9db4e0593" y="326.34000000000003"/>
      </g>
     </g>
     <g id="line2d_13">
      <defs>
       <path d="M 0 0 
L 0 10 
" id="m5187aab1e1" style="stroke:#000000;stroke-width:1.5;"/>
      </defs>
      <g>
       <use style="stroke:#000000;stroke-width:1.5;" x="102.28049999999999" xlink:href="#m5187aab1e1" y="12.960000000000036"/>
      </g>
     </g>
     <g id="text_1">
      <!-- −20 -->
      <defs>
       <path d="M 10.59375 35.5 
L 73.1875 35.5 
L 73.1875 27.203125 
L 10.59375 27.203125 
z
" id="BitstreamVeraSans-Roman-2212"/>
       <path d="M 19.1875 8.296875 
L 53.609375 8.296875 
L 53.609375 0 
L 7.328125 0 
L 7.328125 8.296875 
Q 12.9375 14.109375 22.625 23.890625 
Q 32.328125 33.6875 34.8125 36.53125 
Q 39.546875 41.84375 41.421875 45.53125 
Q 43.3125 49.21875 43.3125 52.78125 
Q 43.3125 58.59375 39.234375 62.25 
Q 35.15625 65.921875 28.609375 65.921875 
Q 23.96875 65.921875 18.8125 64.3125 
Q 13.671875 62.703125 7.8125 59.421875 
L 7.8125 69.390625 
Q 13.765625 71.78125 18.9375 73 
Q 24.125 74.21875 28.421875 74.21875 
Q 39.75 74.21875 46.484375 68.546875 
Q 53.21875 62.890625 53.21875 53.421875 
Q 53.21875 48.921875 51.53125 44.890625 
Q 49.859375 40.875 45.40625 35.40625 
Q 44.1875 33.984375 37.640625 27.21875 
Q 31.109375 20.453125 19.1875 8.296875 
" id="BitstreamVeraSans-Roman-32"/>
       <path d="M 31.78125 66.40625 
Q 24.171875 66.40625 20.328125 58.90625 
Q 16.5 51.421875 16.5 36.375 
Q 16.5 21.390625 20.328125 13.890625 
Q 24.171875 6.390625 31.78125 6.390625 
Q 39.453125 6.390625 43.28125 13.890625 
Q 47.125 21.390625 47.125 36.375 
Q 47.125 51.421875 43.28125 58.90625 
Q 39.453125 66.40625 31.78125 66.40625 
M 31.78125 74.21875 
Q 44.046875 74.21875 50.515625 64.515625 
Q 56.984375 54.828125 56.984375 36.375 
Q 56.984375 17.96875 50.515625 8.265625 
Q 44.046875 -1.421875 31.78125 -1.421875 
Q 19.53125 -1.421875 13.0625 8.265625 
Q 6.59375 17.96875 6.59375 36.375 
Q 6.59375 54.828125 13.0625 64.515625 
Q 19.53125 74.21875 31.78125 74.21875 
" id="BitstreamVeraSans-Roman-30"/>
      </defs>
      <g transform="translate(89.61768749999999 339.458125)scale(0.12 -0.12)">
       <use xlink:href="#BitstreamVeraSans-Roman-2212"/>
       <use x="83.7890625" xlink:href="#BitstreamVeraSans-Roman-32"/>
       <use x="147.412109375" xlink:href="#BitstreamVeraSans-Roman-30"/>
      </g>
     </g>
    </g>
    <g id="xtick_2">
     <g id="line2d_14">
      <g>
       <use style="stroke:#000000;stroke-width:1.5;" x="188.67149999999998" xlink:href="#mb9db4e0593" y="326.34000000000003"/>
      </g>
     </g>
     <g id="line2d_15">
      <g>
       <use style="stroke:#000000;stroke-width:1.5;" x="188.67149999999998" xlink:href="#m5187aab1e1" y="12.960000000000036"/>
      </g>
     </g>
     <g id="text_2">
      <!-- −10 -->
      <defs>
       <path d="M 12.40625 8.296875 
L 28.515625 8.296875 
L 28.515625 63.921875 
L 10.984375 60.40625 
L 10.984375 69.390625 
L 28.421875 72.90625 
L 38.28125 72.90625 
L 38.28125 8.296875 
L 54.390625 8.296875 
L 54.390625 0 
L 12.40625 0 
z
" id="BitstreamVeraSans-Roman-31"/>
      </defs>
      <g transform="translate(176.00868749999998 339.458125)scale(0.12 -0.12)">
       <use xlink:href="#BitstreamVeraSans-Roman-2212"/>
       <use x="83.7890625" xlink:href="#BitstreamVeraSans-Roman-31"/>
       <use x="147.412109375" xlink:href="#BitstreamVeraSans-Roman-30"/>
      </g>
     </g>
    </g>
    <g id="xtick_3">
     <g id="line2d_16">
      <g>
       <use style="stroke:#000000;stroke-width:1.5;" x="275.0625" xlink:href="#mb9db4e0593" y="326.34000000000003"/>
      </g>
     </g>
     <g id="line2d_17">
      <g>
       <use style="stroke:#000000;stroke-width:1.5;" x="275.0625" xlink:href="#m5187aab1e1" y="12.960000000000036"/>
      </g>
     </g>
     <g id="text_3">
      <!-- 0 -->
      <g transform="translate(271.245 339.458125)scale(0.12 -0.12)">
       <use xlink:href="#BitstreamVeraSans-Roman-30"/>
      </g>
     </g>
    </g>
    <g id="xtick_4">
     <g id="line2d_18">
      <g>
       <use style="stroke:#000000;stroke-width:1.5;" x="361.4535" xlink:href="#mb9db4e0593" y="326.34000000000003"/>
      </g>
     </g>
     <g id="line2d_19">
      <g>
       <use style="stroke:#000000;stroke-width:1.5;" x="361.4535" xlink:href="#m5187aab1e1" y="12.960000000000036"/>
      </g>
     </g>
     <g id="text_4">
      <!-- 10 -->
      <g transform="translate(353.81850000000003 339.458125)scale(0.12 -0.12)">
       <use xlink:href="#BitstreamVeraSans-Roman-31"/>
       <use x="63.623046875" xlink:href="#BitstreamVeraSans-Roman-30"/>
      </g>
     </g>
    </g>
    <g id="xtick_5">
     <g id="line2d_20">
      <g>
       <use style="stroke:#000000;stroke-width:1.5;" x="447.84450000000004" xlink:href="#mb9db4e0593" y="326.34000000000003"/>
      </g>
     </g>
     <g id="line2d_21">
      <g>
       <use style="stroke:#000000;stroke-width:1.5;" x="447.84450000000004" xlink:href="#m5187aab1e1" y="12.960000000000036"/>
      </g>
     </g>
     <g id="text_5">
      <!-- 20 -->
      <g transform="translate(440.20950000000005 339.458125)scale(0.12 -0.12)">
       <use xlink:href="#BitstreamVeraSans-Roman-32"/>
       <use x="63.623046875" xlink:href="#BitstreamVeraSans-Roman-30"/>
      </g>
     </g>
    </g>
    <g id="text_6">
     <!-- Detuning (meV) -->
     <defs>
      <path id="BitstreamVeraSans-Roman-20"/>
      <path d="M 54.890625 33.015625 
L 54.890625 0 
L 45.90625 0 
L 45.90625 32.71875 
Q 45.90625 40.484375 42.875 44.328125 
Q 39.84375 48.1875 33.796875 48.1875 
Q 26.515625 48.1875 22.3125 43.546875 
Q 18.109375 38.921875 18.109375 30.90625 
L 18.109375 0 
L 9.078125 0 
L 9.078125 54.6875 
L 18.109375 54.6875 
L 18.109375 46.1875 
Q 21.34375 51.125 25.703125 53.5625 
Q 30.078125 56 35.796875 56 
Q 45.21875 56 50.046875 50.171875 
Q 54.890625 44.34375 54.890625 33.015625 
" id="BitstreamVeraSans-Roman-6e"/>
      <path d="M 31 75.875 
Q 24.46875 64.65625 21.28125 53.65625 
Q 18.109375 42.671875 18.109375 31.390625 
Q 18.109375 20.125 21.3125 9.0625 
Q 24.515625 -2 31 -13.1875 
L 23.1875 -13.1875 
Q 15.875 -1.703125 12.234375 9.375 
Q 8.59375 20.453125 8.59375 31.390625 
Q 8.59375 42.28125 12.203125 53.3125 
Q 15.828125 64.359375 23.1875 75.875 
z
" id="BitstreamVeraSans-Roman-28"/>
      <path d="M 8.015625 75.875 
L 15.828125 75.875 
Q 23.140625 64.359375 26.78125 53.3125 
Q 30.421875 42.28125 30.421875 31.390625 
Q 30.421875 20.453125 26.78125 9.375 
Q 23.140625 -1.703125 15.828125 -13.1875 
L 8.015625 -13.1875 
Q 14.5 -2 17.703125 9.0625 
Q 20.90625 20.125 20.90625 31.390625 
Q 20.90625 42.671875 17.703125 53.65625 
Q 14.5 64.65625 8.015625 75.875 
" id="BitstreamVeraSans-Roman-29"/>
      <path d="M 19.671875 64.796875 
L 19.671875 8.109375 
L 31.59375 8.109375 
Q 46.6875 8.109375 53.6875 14.9375 
Q 60.6875 21.78125 60.6875 36.53125 
Q 60.6875 51.171875 53.6875 57.984375 
Q 46.6875 64.796875 31.59375 64.796875 
z
M 9.8125 72.90625 
L 30.078125 72.90625 
Q 51.265625 72.90625 61.171875 64.09375 
Q 71.09375 55.28125 71.09375 36.53125 
Q 71.09375 17.671875 61.125 8.828125 
Q 51.171875 0 30.078125 0 
L 9.8125 0 
z
" id="BitstreamVeraSans-Roman-44"/>
      <path d="M 9.421875 54.6875 
L 18.40625 54.6875 
L 18.40625 0 
L 9.421875 0 
z
M 9.421875 75.984375 
L 18.40625 75.984375 
L 18.40625 64.59375 
L 9.421875 64.59375 
z
" id="BitstreamVeraSans-Roman-69"/>
      <path d="M 28.609375 0 
L 0.78125 72.90625 
L 11.078125 72.90625 
L 34.1875 11.53125 
L 57.328125 72.90625 
L 67.578125 72.90625 
L 39.796875 0 
z
" id="BitstreamVeraSans-Roman-56"/>
      <path d="M 52 44.1875 
Q 55.375 50.25 60.0625 53.125 
Q 64.75 56 71.09375 56 
Q 79.640625 56 84.28125 50.015625 
Q 88.921875 44.046875 88.921875 33.015625 
L 88.921875 0 
L 79.890625 0 
L 79.890625 32.71875 
Q 79.890625 40.578125 77.09375 44.375 
Q 74.3125 48.1875 68.609375 48.1875 
Q 61.625 48.1875 57.5625 43.546875 
Q 53.515625 38.921875 53.515625 30.90625 
L 53.515625 0 
L 44.484375 0 
L 44.484375 32.71875 
Q 44.484375 40.625 41.703125 44.40625 
Q 38.921875 48.1875 33.109375 48.1875 
Q 26.21875 48.1875 22.15625 43.53125 
Q 18.109375 38.875 18.109375 30.90625 
L 18.109375 0 
L 9.078125 0 
L 9.078125 54.6875 
L 18.109375 54.6875 
L 18.109375 46.1875 
Q 21.1875 51.21875 25.484375 53.609375 
Q 29.78125 56 35.6875 56 
Q 41.65625 56 45.828125 52.96875 
Q 50 49.953125 52 44.1875 
" id="BitstreamVeraSans-Roman-6d"/>
      <path d="M 56.203125 29.59375 
L 56.203125 25.203125 
L 14.890625 25.203125 
Q 15.484375 15.921875 20.484375 11.0625 
Q 25.484375 6.203125 34.421875 6.203125 
Q 39.59375 6.203125 44.453125 7.46875 
Q 49.3125 8.734375 54.109375 11.28125 
L 54.109375 2.78125 
Q 49.265625 0.734375 44.1875 -0.34375 
Q 39.109375 -1.421875 33.890625 -1.421875 
Q 20.796875 -1.421875 13.15625 6.1875 
Q 5.515625 13.8125 5.515625 26.8125 
Q 5.515625 40.234375 12.765625 48.109375 
Q 20.015625 56 32.328125 56 
Q 43.359375 56 49.78125 48.890625 
Q 56.203125 41.796875 56.203125 29.59375 
M 47.21875 32.234375 
Q 47.125 39.59375 43.09375 43.984375 
Q 39.0625 48.390625 32.421875 48.390625 
Q 24.90625 48.390625 20.390625 44.140625 
Q 15.875 39.890625 15.1875 32.171875 
z
" id="BitstreamVeraSans-Roman-65"/>
      <path d="M 18.3125 70.21875 
L 18.3125 54.6875 
L 36.8125 54.6875 
L 36.8125 47.703125 
L 18.3125 47.703125 
L 18.3125 18.015625 
Q 18.3125 11.328125 20.140625 9.421875 
Q 21.96875 7.515625 27.59375 7.515625 
L 36.8125 7.515625 
L 36.8125 0 
L 27.59375 0 
Q 17.1875 0 13.234375 3.875 
Q 9.28125 7.765625 9.28125 18.015625 
L 9.28125 47.703125 
L 2.6875 47.703125 
L 2.6875 54.6875 
L 9.28125 54.6875 
L 9.28125 70.21875 
z
" id="BitstreamVeraSans-Roman-74"/>
      <path d="M 8.5 21.578125 
L 8.5 54.6875 
L 17.484375 54.6875 
L 17.484375 21.921875 
Q 17.484375 14.15625 20.5 10.265625 
Q 23.53125 6.390625 29.59375 6.390625 
Q 36.859375 6.390625 41.078125 11.03125 
Q 45.3125 15.671875 45.3125 23.6875 
L 45.3125 54.6875 
L 54.296875 54.6875 
L 54.296875 0 
L 45.3125 0 
L 45.3125 8.40625 
Q 42.046875 3.421875 37.71875 1 
Q 33.40625 -1.421875 27.6875 -1.421875 
Q 18.265625 -1.421875 13.375 4.4375 
Q 8.5 10.296875 8.5 21.578125 
" id="BitstreamVeraSans-Roman-75"/>
      <path d="M 45.40625 27.984375 
Q 45.40625 37.75 41.375 43.109375 
Q 37.359375 48.484375 30.078125 48.484375 
Q 22.859375 48.484375 18.828125 43.109375 
Q 14.796875 37.75 14.796875 27.984375 
Q 14.796875 18.265625 18.828125 12.890625 
Q 22.859375 7.515625 30.078125 7.515625 
Q 37.359375 7.515625 41.375 12.890625 
Q 45.40625 18.265625 45.40625 27.984375 
M 54.390625 6.78125 
Q 54.390625 -7.171875 48.1875 -13.984375 
Q 42 -20.796875 29.203125 -20.796875 
Q 24.46875 -20.796875 20.265625 -20.09375 
Q 16.0625 -19.390625 12.109375 -17.921875 
L 12.109375 -9.1875 
Q 16.0625 -11.328125 19.921875 -12.34375 
Q 23.78125 -13.375 27.78125 -13.375 
Q 36.625 -13.375 41.015625 -8.765625 
Q 45.40625 -4.15625 45.40625 5.171875 
L 45.40625 9.625 
Q 42.625 4.78125 38.28125 2.390625 
Q 33.9375 0 27.875 0 
Q 17.828125 0 11.671875 7.65625 
Q 5.515625 15.328125 5.515625 27.984375 
Q 5.515625 40.671875 11.671875 48.328125 
Q 17.828125 56 27.875 56 
Q 33.9375 56 38.28125 53.609375 
Q 42.625 51.21875 45.40625 46.390625 
L 45.40625 54.6875 
L 54.390625 54.6875 
z
" id="BitstreamVeraSans-Roman-67"/>
     </defs>
     <g transform="translate(195.434375 362.15062500000005)scale(0.2 -0.2)">
      <use xlink:href="#BitstreamVeraSans-Roman-44"/>
      <use x="77.001953125" xlink:href="#BitstreamVeraSans-Roman-65"/>
      <use x="138.525390625" xlink:href="#BitstreamVeraSans-Roman-74"/>
      <use x="177.734375" xlink:href="#BitstreamVeraSans-Roman-75"/>
      <use x="241.11328125" xlink:href="#BitstreamVeraSans-Roman-6e"/>
      <use x="304.4921875" xlink:href="#BitstreamVeraSans-Roman-69"/>
      <use x="332.275390625" xlink:href="#BitstreamVeraSans-Roman-6e"/>
      <use x="395.654296875" xlink:href="#BitstreamVeraSans-Roman-67"/>
      <use x="459.130859375" xlink:href="#BitstreamVeraSans-Roman-20"/>
      <use x="490.91796875" xlink:href="#BitstreamVeraSans-Roman-28"/>
      <use x="529.931640625" xlink:href="#BitstreamVeraSans-Roman-6d"/>
      <use x="627.34375" xlink:href="#BitstreamVeraSans-Roman-65"/>
      <use x="688.8671875" xlink:href="#BitstreamVeraSans-Roman-56"/>
      <use x="757.275390625" xlink:href="#BitstreamVeraSans-Roman-29"/>
     </g>
    </g>
   </g>
   <g id="matplotlib.axis_2">
    <g id="ytick_1">
     <g id="line2d_22">
      <defs>
       <path d="M 0 0 
L 10 0 
" id="m6ade71e345" style="stroke:#000000;stroke-width:1.5;"/>
      </defs>
      <g>
       <use style="stroke:#000000;stroke-width:1.5;" x="59.085" xlink:href="#m6ade71e345" y="326.34000000000003"/>
      </g>
     </g>
     <g id="line2d_23">
      <defs>
       <path d="M 0 0 
L -10 0 
" id="m8cc390c075" style="stroke:#000000;stroke-width:1.5;"/>
      </defs>
      <g>
       <use style="stroke:#000000;stroke-width:1.5;" x="491.04" xlink:href="#m8cc390c075" y="326.34000000000003"/>
      </g>
     </g>
     <g id="text_7">
      <!-- 0.0 -->
      <defs>
       <path d="M 10.6875 12.40625 
L 21 12.40625 
L 21 0 
L 10.6875 0 
z
" id="BitstreamVeraSans-Roman-2e"/>
      </defs>
      <g transform="translate(36.00125 329.65125)scale(0.12 -0.12)">
       <use xlink:href="#BitstreamVeraSans-Roman-30"/>
       <use x="63.623046875" xlink:href="#BitstreamVeraSans-Roman-2e"/>
       <use x="95.41015625" xlink:href="#BitstreamVeraSans-Roman-30"/>
      </g>
     </g>
    </g>
    <g id="ytick_2">
     <g id="line2d_24">
      <g>
       <use style="stroke:#000000;stroke-width:1.5;" x="59.085" xlink:href="#m6ade71e345" y="269.3618181818182"/>
      </g>
     </g>
     <g id="line2d_25">
      <g>
       <use style="stroke:#000000;stroke-width:1.5;" x="491.04" xlink:href="#m8cc390c075" y="269.3618181818182"/>
      </g>
     </g>
     <g id="text_8">
      <!-- 0.2 -->
      <g transform="translate(36.00125 272.6730681818182)scale(0.12 -0.12)">
       <use xlink:href="#BitstreamVeraSans-Roman-30"/>
       <use x="63.623046875" xlink:href="#BitstreamVeraSans-Roman-2e"/>
       <use x="95.41015625" xlink:href="#BitstreamVeraSans-Roman-32"/>
      </g>
     </g>
    </g>
    <g id="ytick_3">
     <g id="line2d_26">
      <g>
       <use style="stroke:#000000;stroke-width:1.5;" x="59.085" xlink:href="#m6ade71e345" y="212.3836363636364"/>
      </g>
     </g>
     <g id="line2d_27">
      <g>
       <use style="stroke:#000000;stroke-width:1.5;" x="491.04" xlink:href="#m8cc390c075" y="212.3836363636364"/>
      </g>
     </g>
     <g id="text_9">
      <!-- 0.4 -->
      <defs>
       <path d="M 37.796875 64.3125 
L 12.890625 25.390625 
L 37.796875 25.390625 
z
M 35.203125 72.90625 
L 47.609375 72.90625 
L 47.609375 25.390625 
L 58.015625 25.390625 
L 58.015625 17.1875 
L 47.609375 17.1875 
L 47.609375 0 
L 37.796875 0 
L 37.796875 17.1875 
L 4.890625 17.1875 
L 4.890625 26.703125 
z
" id="BitstreamVeraSans-Roman-34"/>
      </defs>
      <g transform="translate(36.00125 215.69488636363639)scale(0.12 -0.12)">
       <use xlink:href="#BitstreamVeraSans-Roman-30"/>
       <use x="63.623046875" xlink:href="#BitstreamVeraSans-Roman-2e"/>
       <use x="95.41015625" xlink:href="#BitstreamVeraSans-Roman-34"/>
      </g>
     </g>
    </g>
    <g id="ytick_4">
     <g id="line2d_28">
      <g>
       <use style="stroke:#000000;stroke-width:1.5;" x="59.085" xlink:href="#m6ade71e345" y="155.40545454545457"/>
      </g>
     </g>
     <g id="line2d_29">
      <g>
       <use style="stroke:#000000;stroke-width:1.5;" x="491.04" xlink:href="#m8cc390c075" y="155.40545454545457"/>
      </g>
     </g>
     <g id="text_10">
      <!-- 0.6 -->
      <defs>
       <path d="M 33.015625 40.375 
Q 26.375 40.375 22.484375 35.828125 
Q 18.609375 31.296875 18.609375 23.390625 
Q 18.609375 15.53125 22.484375 10.953125 
Q 26.375 6.390625 33.015625 6.390625 
Q 39.65625 6.390625 43.53125 10.953125 
Q 47.40625 15.53125 47.40625 23.390625 
Q 47.40625 31.296875 43.53125 35.828125 
Q 39.65625 40.375 33.015625 40.375 
M 52.59375 71.296875 
L 52.59375 62.3125 
Q 48.875 64.0625 45.09375 64.984375 
Q 41.3125 65.921875 37.59375 65.921875 
Q 27.828125 65.921875 22.671875 59.328125 
Q 17.53125 52.734375 16.796875 39.40625 
Q 19.671875 43.65625 24.015625 45.921875 
Q 28.375 48.1875 33.59375 48.1875 
Q 44.578125 48.1875 50.953125 41.515625 
Q 57.328125 34.859375 57.328125 23.390625 
Q 57.328125 12.15625 50.6875 5.359375 
Q 44.046875 -1.421875 33.015625 -1.421875 
Q 20.359375 -1.421875 13.671875 8.265625 
Q 6.984375 17.96875 6.984375 36.375 
Q 6.984375 53.65625 15.1875 63.9375 
Q 23.390625 74.21875 37.203125 74.21875 
Q 40.921875 74.21875 44.703125 73.484375 
Q 48.484375 72.75 52.59375 71.296875 
" id="BitstreamVeraSans-Roman-36"/>
      </defs>
      <g transform="translate(36.00125 158.71670454545458)scale(0.12 -0.12)">
       <use xlink:href="#BitstreamVeraSans-Roman-30"/>
       <use x="63.623046875" xlink:href="#BitstreamVeraSans-Roman-2e"/>
       <use x="95.41015625" xlink:href="#BitstreamVeraSans-Roman-36"/>
      </g>
     </g>
    </g>
    <g id="ytick_5">
     <g id="line2d_30">
      <g>
       <use style="stroke:#000000;stroke-width:1.5;" x="59.085" xlink:href="#m6ade71e345" y="98.42727272727276"/>
      </g>
     </g>
     <g id="line2d_31">
      <g>
       <use style="stroke:#000000;stroke-width:1.5;" x="491.04" xlink:href="#m8cc390c075" y="98.42727272727276"/>
      </g>
     </g>
     <g id="text_11">
      <!-- 0.8 -->
      <defs>
       <path d="M 31.78125 34.625 
Q 24.75 34.625 20.71875 30.859375 
Q 16.703125 27.09375 16.703125 20.515625 
Q 16.703125 13.921875 20.71875 10.15625 
Q 24.75 6.390625 31.78125 6.390625 
Q 38.8125 6.390625 42.859375 10.171875 
Q 46.921875 13.96875 46.921875 20.515625 
Q 46.921875 27.09375 42.890625 30.859375 
Q 38.875 34.625 31.78125 34.625 
M 21.921875 38.8125 
Q 15.578125 40.375 12.03125 44.71875 
Q 8.5 49.078125 8.5 55.328125 
Q 8.5 64.0625 14.71875 69.140625 
Q 20.953125 74.21875 31.78125 74.21875 
Q 42.671875 74.21875 48.875 69.140625 
Q 55.078125 64.0625 55.078125 55.328125 
Q 55.078125 49.078125 51.53125 44.71875 
Q 48 40.375 41.703125 38.8125 
Q 48.828125 37.15625 52.796875 32.3125 
Q 56.78125 27.484375 56.78125 20.515625 
Q 56.78125 9.90625 50.3125 4.234375 
Q 43.84375 -1.421875 31.78125 -1.421875 
Q 19.734375 -1.421875 13.25 4.234375 
Q 6.78125 9.90625 6.78125 20.515625 
Q 6.78125 27.484375 10.78125 32.3125 
Q 14.796875 37.15625 21.921875 38.8125 
M 18.3125 54.390625 
Q 18.3125 48.734375 21.84375 45.5625 
Q 25.390625 42.390625 31.78125 42.390625 
Q 38.140625 42.390625 41.71875 45.5625 
Q 45.3125 48.734375 45.3125 54.390625 
Q 45.3125 60.0625 41.71875 63.234375 
Q 38.140625 66.40625 31.78125 66.40625 
Q 25.390625 66.40625 21.84375 63.234375 
Q 18.3125 60.0625 18.3125 54.390625 
" id="BitstreamVeraSans-Roman-38"/>
      </defs>
      <g transform="translate(36.00125 101.73852272727271)scale(0.12 -0.12)">
       <use xlink:href="#BitstreamVeraSans-Roman-30"/>
       <use x="63.623046875" xlink:href="#BitstreamVeraSans-Roman-2e"/>
       <use x="95.41015625" xlink:href="#BitstreamVeraSans-Roman-38"/>
      </g>
     </g>
    </g>
    <g id="ytick_6">
     <g id="line2d_32">
      <g>
       <use style="stroke:#000000;stroke-width:1.5;" x="59.085" xlink:href="#m6ade71e345" y="41.449090909090955"/>
      </g>
     </g>
     <g id="line2d_33">
      <g>
       <use style="stroke:#000000;stroke-width:1.5;" x="491.04" xlink:href="#m8cc390c075" y="41.449090909090955"/>
      </g>
     </g>
     <g id="text_12">
      <!-- 1.0 -->
      <g transform="translate(36.00125 44.76034090909093)scale(0.12 -0.12)">
       <use xlink:href="#BitstreamVeraSans-Roman-31"/>
       <use x="63.623046875" xlink:href="#BitstreamVeraSans-Roman-2e"/>
       <use x="95.41015625" xlink:href="#BitstreamVeraSans-Roman-30"/>
      </g>
     </g>
    </g>
    <g id="text_13">
     <!-- Occupation -->
     <defs>
      <path d="M 39.40625 66.21875 
Q 28.65625 66.21875 22.328125 58.203125 
Q 16.015625 50.203125 16.015625 36.375 
Q 16.015625 22.609375 22.328125 14.59375 
Q 28.65625 6.59375 39.40625 6.59375 
Q 50.140625 6.59375 56.421875 14.59375 
Q 62.703125 22.609375 62.703125 36.375 
Q 62.703125 50.203125 56.421875 58.203125 
Q 50.140625 66.21875 39.40625 66.21875 
M 39.40625 74.21875 
Q 54.734375 74.21875 63.90625 63.9375 
Q 73.09375 53.65625 73.09375 36.375 
Q 73.09375 19.140625 63.90625 8.859375 
Q 54.734375 -1.421875 39.40625 -1.421875 
Q 24.03125 -1.421875 14.8125 8.828125 
Q 5.609375 19.09375 5.609375 36.375 
Q 5.609375 53.65625 14.8125 63.9375 
Q 24.03125 74.21875 39.40625 74.21875 
" id="BitstreamVeraSans-Roman-4f"/>
      <path d="M 30.609375 48.390625 
Q 23.390625 48.390625 19.1875 42.75 
Q 14.984375 37.109375 14.984375 27.296875 
Q 14.984375 17.484375 19.15625 11.84375 
Q 23.34375 6.203125 30.609375 6.203125 
Q 37.796875 6.203125 41.984375 11.859375 
Q 46.1875 17.53125 46.1875 27.296875 
Q 46.1875 37.015625 41.984375 42.703125 
Q 37.796875 48.390625 30.609375 48.390625 
M 30.609375 56 
Q 42.328125 56 49.015625 48.375 
Q 55.71875 40.765625 55.71875 27.296875 
Q 55.71875 13.875 49.015625 6.21875 
Q 42.328125 -1.421875 30.609375 -1.421875 
Q 18.84375 -1.421875 12.171875 6.21875 
Q 5.515625 13.875 5.515625 27.296875 
Q 5.515625 40.765625 12.171875 48.375 
Q 18.84375 56 30.609375 56 
" id="BitstreamVeraSans-Roman-6f"/>
      <path d="M 34.28125 27.484375 
Q 23.390625 27.484375 19.1875 25 
Q 14.984375 22.515625 14.984375 16.5 
Q 14.984375 11.71875 18.140625 8.90625 
Q 21.296875 6.109375 26.703125 6.109375 
Q 34.1875 6.109375 38.703125 11.40625 
Q 43.21875 16.703125 43.21875 25.484375 
L 43.21875 27.484375 
z
M 52.203125 31.203125 
L 52.203125 0 
L 43.21875 0 
L 43.21875 8.296875 
Q 40.140625 3.328125 35.546875 0.953125 
Q 30.953125 -1.421875 24.3125 -1.421875 
Q 15.921875 -1.421875 10.953125 3.296875 
Q 6 8.015625 6 15.921875 
Q 6 25.140625 12.171875 29.828125 
Q 18.359375 34.515625 30.609375 34.515625 
L 43.21875 34.515625 
L 43.21875 35.40625 
Q 43.21875 41.609375 39.140625 45 
Q 35.0625 48.390625 27.6875 48.390625 
Q 23 48.390625 18.546875 47.265625 
Q 14.109375 46.140625 10.015625 43.890625 
L 10.015625 52.203125 
Q 14.9375 54.109375 19.578125 55.046875 
Q 24.21875 56 28.609375 56 
Q 40.484375 56 46.34375 49.84375 
Q 52.203125 43.703125 52.203125 31.203125 
" id="BitstreamVeraSans-Roman-61"/>
      <path d="M 18.109375 8.203125 
L 18.109375 -20.796875 
L 9.078125 -20.796875 
L 9.078125 54.6875 
L 18.109375 54.6875 
L 18.109375 46.390625 
Q 20.953125 51.265625 25.265625 53.625 
Q 29.59375 56 35.59375 56 
Q 45.5625 56 51.78125 48.09375 
Q 58.015625 40.1875 58.015625 27.296875 
Q 58.015625 14.40625 51.78125 6.484375 
Q 45.5625 -1.421875 35.59375 -1.421875 
Q 29.59375 -1.421875 25.265625 0.953125 
Q 20.953125 3.328125 18.109375 8.203125 
M 48.6875 27.296875 
Q 48.6875 37.203125 44.609375 42.84375 
Q 40.53125 48.484375 33.40625 48.484375 
Q 26.265625 48.484375 22.1875 42.84375 
Q 18.109375 37.203125 18.109375 27.296875 
Q 18.109375 17.390625 22.1875 11.75 
Q 26.265625 6.109375 33.40625 6.109375 
Q 40.53125 6.109375 44.609375 11.75 
Q 48.6875 17.390625 48.6875 27.296875 
" id="BitstreamVeraSans-Roman-70"/>
      <path d="M 48.78125 52.59375 
L 48.78125 44.1875 
Q 44.96875 46.296875 41.140625 47.34375 
Q 37.3125 48.390625 33.40625 48.390625 
Q 24.65625 48.390625 19.8125 42.84375 
Q 14.984375 37.3125 14.984375 27.296875 
Q 14.984375 17.28125 19.8125 11.734375 
Q 24.65625 6.203125 33.40625 6.203125 
Q 37.3125 6.203125 41.140625 7.25 
Q 44.96875 8.296875 48.78125 10.40625 
L 48.78125 2.09375 
Q 45.015625 0.34375 40.984375 -0.53125 
Q 36.96875 -1.421875 32.421875 -1.421875 
Q 20.0625 -1.421875 12.78125 6.34375 
Q 5.515625 14.109375 5.515625 27.296875 
Q 5.515625 40.671875 12.859375 48.328125 
Q 20.21875 56 33.015625 56 
Q 37.15625 56 41.109375 55.140625 
Q 45.0625 54.296875 48.78125 52.59375 
" id="BitstreamVeraSans-Roman-63"/>
     </defs>
     <g transform="translate(26.841874999999995 226.48750000000004)rotate(-90.0)scale(0.2 -0.2)">
      <use xlink:href="#BitstreamVeraSans-Roman-4f"/>
      <use x="78.7109375" xlink:href="#BitstreamVeraSans-Roman-63"/>
      <use x="133.69140625" xlink:href="#BitstreamVeraSans-Roman-63"/>
      <use x="188.671875" xlink:href="#BitstreamVeraSans-Roman-75"/>
      <use x="252.05078125" xlink:href="#BitstreamVeraSans-Roman-70"/>
      <use x="315.52734375" xlink:href="#BitstreamVeraSans-Roman-61"/>
      <use x="376.806640625" xlink:href="#BitstreamVeraSans-Roman-74"/>
      <use x="416.015625" xlink:href="#BitstreamVeraSans-Roman-69"/>
      <use x="443.798828125" xlink:href="#BitstreamVeraSans-Roman-6f"/>
      <use x="504.98046875" xlink:href="#BitstreamVeraSans-Roman-6e"/>
     </g>
    </g>
   </g>
   <g id="legend_1">
    <g id="line2d_34">
     <path d="M 233.9125 189.979063 
L 247.9125 189.979063 
" style="fill:none;stroke:#0000ff;stroke-linecap:square;stroke-width:1.5;"/>
    </g>
    <g id="line2d_35"/>
    <g id="text_14">
     <!-- 0.0fs$^2$ -->
     <defs>
      <path d="M 46.90625 7.09375 
L 44 0 
L 3.5 0 
L 3.5 2.09375 
L 21 23.5 
L 21 23.40625 
L 26.59375 30.203125 
Q 30.5 34.90625 32.09375 36.953125 
Q 33.703125 39 35.203125 41.953125 
Q 36.703125 44.90625 36.703125 47.5 
Q 36.703125 53.703125 33.34375 57.09375 
Q 30 60.5 24.203125 60.5 
Q 19.59375 60.5 15.75 56.703125 
Q 11.90625 52.90625 10.90625 45.90625 
L 3.703125 47.59375 
Q 5.296875 56.5 11.1875 62.046875 
Q 17.09375 67.59375 24.90625 67.59375 
Q 33.59375 67.59375 39.09375 62.1875 
Q 44.59375 56.796875 44.59375 49.09375 
Q 44.59375 43.5 42.5 39.453125 
Q 40.40625 35.40625 33.703125 27 
L 17.703125 7.09375 
z
" id="STIXGeneral-Regular-1d7e4"/>
      <path d="M 37.109375 75.984375 
L 37.109375 68.5 
L 28.515625 68.5 
Q 23.6875 68.5 21.796875 66.546875 
Q 19.921875 64.59375 19.921875 59.515625 
L 19.921875 54.6875 
L 34.71875 54.6875 
L 34.71875 47.703125 
L 19.921875 47.703125 
L 19.921875 0 
L 10.890625 0 
L 10.890625 47.703125 
L 2.296875 47.703125 
L 2.296875 54.6875 
L 10.890625 54.6875 
L 10.890625 58.5 
Q 10.890625 67.625 15.140625 71.796875 
Q 19.390625 75.984375 28.609375 75.984375 
z
" id="BitstreamVeraSans-Roman-66"/>
      <path d="M 44.28125 53.078125 
L 44.28125 44.578125 
Q 40.484375 46.53125 36.375 47.5 
Q 32.28125 48.484375 27.875 48.484375 
Q 21.1875 48.484375 17.84375 46.4375 
Q 14.5 44.390625 14.5 40.28125 
Q 14.5 37.15625 16.890625 35.375 
Q 19.28125 33.59375 26.515625 31.984375 
L 29.59375 31.296875 
Q 39.15625 29.25 43.1875 25.515625 
Q 47.21875 21.78125 47.21875 15.09375 
Q 47.21875 7.46875 41.1875 3.015625 
Q 35.15625 -1.421875 24.609375 -1.421875 
Q 20.21875 -1.421875 15.453125 -0.5625 
Q 10.6875 0.296875 5.421875 2 
L 5.421875 11.28125 
Q 10.40625 8.6875 15.234375 7.390625 
Q 20.0625 6.109375 24.8125 6.109375 
Q 31.15625 6.109375 34.5625 8.28125 
Q 37.984375 10.453125 37.984375 14.40625 
Q 37.984375 18.0625 35.515625 20.015625 
Q 33.0625 21.96875 24.703125 23.78125 
L 21.578125 24.515625 
Q 13.234375 26.265625 9.515625 29.90625 
Q 5.8125 33.546875 5.8125 39.890625 
Q 5.8125 47.609375 11.28125 51.796875 
Q 16.75 56 26.8125 56 
Q 31.78125 56 36.171875 55.265625 
Q 40.578125 54.546875 44.28125 53.078125 
" id="BitstreamVeraSans-Roman-73"/>
     </defs>
     <g transform="translate(258.9125 193.47906250000003)scale(0.1 -0.1)">
      <use transform="translate(0.0 0.446875)" xlink:href="#BitstreamVeraSans-Roman-30"/>
      <use transform="translate(63.623046875 0.446875)" xlink:href="#BitstreamVeraSans-Roman-2e"/>
      <use transform="translate(95.41015625 0.446875)" xlink:href="#BitstreamVeraSans-Roman-30"/>
      <use transform="translate(159.033203125 0.446875)" xlink:href="#BitstreamVeraSans-Roman-66"/>
      <use transform="translate(194.23828125 0.446875)" xlink:href="#BitstreamVeraSans-Roman-73"/>
      <use transform="translate(247.130585938 36.684375)scale(0.7)" xlink:href="#STIXGeneral-Regular-1d7e4"/>
     </g>
    </g>
    <g id="line2d_36">
     <path d="M 233.9125 202.157188 
L 247.9125 202.157188 
" style="fill:none;stroke:#008000;stroke-linecap:square;stroke-width:1.5;"/>
    </g>
    <g id="line2d_37"/>
    <g id="text_15">
     <!-- 10000.0fs$^2$ -->
     <g transform="translate(258.9125 205.65718750000002)scale(0.1 -0.1)">
      <use transform="translate(0.0 0.446875)" xlink:href="#BitstreamVeraSans-Roman-31"/>
      <use transform="translate(63.623046875 0.446875)" xlink:href="#BitstreamVeraSans-Roman-30"/>
      <use transform="translate(127.24609375 0.446875)" xlink:href="#BitstreamVeraSans-Roman-30"/>
      <use transform="translate(190.869140625 0.446875)" xlink:href="#BitstreamVeraSans-Roman-30"/>
      <use transform="translate(254.4921875 0.446875)" xlink:href="#BitstreamVeraSans-Roman-30"/>
      <use transform="translate(318.115234375 0.446875)" xlink:href="#BitstreamVeraSans-Roman-2e"/>
      <use transform="translate(349.90234375 0.446875)" xlink:href="#BitstreamVeraSans-Roman-30"/>
      <use transform="translate(413.525390625 0.446875)" xlink:href="#BitstreamVeraSans-Roman-66"/>
      <use transform="translate(448.73046875 0.446875)" xlink:href="#BitstreamVeraSans-Roman-73"/>
      <use transform="translate(501.622773437 36.684375)scale(0.7)" xlink:href="#STIXGeneral-Regular-1d7e4"/>
     </g>
    </g>
    <g id="line2d_38">
     <path d="M 233.9125 214.335313 
L 247.9125 214.335313 
" style="fill:none;stroke:#ff0000;stroke-linecap:square;stroke-width:1.5;"/>
    </g>
    <g id="line2d_39"/>
    <g id="text_16">
     <!-- 20000.0fs$^2$ -->
     <g transform="translate(258.9125 217.83531250000004)scale(0.1 -0.1)">
      <use transform="translate(0.0 0.446875)" xlink:href="#BitstreamVeraSans-Roman-32"/>
      <use transform="translate(63.623046875 0.446875)" xlink:href="#BitstreamVeraSans-Roman-30"/>
      <use transform="translate(127.24609375 0.446875)" xlink:href="#BitstreamVeraSans-Roman-30"/>
      <use transform="translate(190.869140625 0.446875)" xlink:href="#BitstreamVeraSans-Roman-30"/>
      <use transform="translate(254.4921875 0.446875)" xlink:href="#BitstreamVeraSans-Roman-30"/>
      <use transform="translate(318.115234375 0.446875)" xlink:href="#BitstreamVeraSans-Roman-2e"/>
      <use transform="translate(349.90234375 0.446875)" xlink:href="#BitstreamVeraSans-Roman-30"/>
      <use transform="translate(413.525390625 0.446875)" xlink:href="#BitstreamVeraSans-Roman-66"/>
      <use transform="translate(448.73046875 0.446875)" xlink:href="#BitstreamVeraSans-Roman-73"/>
      <use transform="translate(501.622773437 36.684375)scale(0.7)" xlink:href="#STIXGeneral-Regular-1d7e4"/>
     </g>
    </g>
    <g id="line2d_40">
     <path d="M 233.9125 226.513438 
L 247.9125 226.513438 
" style="fill:none;stroke:#00bfbf;stroke-linecap:square;stroke-width:1.5;"/>
    </g>
    <g id="line2d_41"/>
    <g id="text_17">
     <!-- 30000.0fs$^2$ -->
     <defs>
      <path d="M 40.578125 39.3125 
Q 47.65625 37.796875 51.625 33 
Q 55.609375 28.21875 55.609375 21.1875 
Q 55.609375 10.40625 48.1875 4.484375 
Q 40.765625 -1.421875 27.09375 -1.421875 
Q 22.515625 -1.421875 17.65625 -0.515625 
Q 12.796875 0.390625 7.625 2.203125 
L 7.625 11.71875 
Q 11.71875 9.328125 16.59375 8.109375 
Q 21.484375 6.890625 26.8125 6.890625 
Q 36.078125 6.890625 40.9375 10.546875 
Q 45.796875 14.203125 45.796875 21.1875 
Q 45.796875 27.640625 41.28125 31.265625 
Q 36.765625 34.90625 28.71875 34.90625 
L 20.21875 34.90625 
L 20.21875 43.015625 
L 29.109375 43.015625 
Q 36.375 43.015625 40.234375 45.921875 
Q 44.09375 48.828125 44.09375 54.296875 
Q 44.09375 59.90625 40.109375 62.90625 
Q 36.140625 65.921875 28.71875 65.921875 
Q 24.65625 65.921875 20.015625 65.03125 
Q 15.375 64.15625 9.8125 62.3125 
L 9.8125 71.09375 
Q 15.4375 72.65625 20.34375 73.4375 
Q 25.25 74.21875 29.59375 74.21875 
Q 40.828125 74.21875 47.359375 69.109375 
Q 53.90625 64.015625 53.90625 55.328125 
Q 53.90625 49.265625 50.4375 45.09375 
Q 46.96875 40.921875 40.578125 39.3125 
" id="BitstreamVeraSans-Roman-33"/>
     </defs>
     <g transform="translate(258.9125 230.0134375)scale(0.1 -0.1)">
      <use transform="translate(0.0 0.446875)" xlink:href="#BitstreamVeraSans-Roman-33"/>
      <use transform="translate(63.623046875 0.446875)" xlink:href="#BitstreamVeraSans-Roman-30"/>
      <use transform="translate(127.24609375 0.446875)" xlink:href="#BitstreamVeraSans-Roman-30"/>
      <use transform="translate(190.869140625 0.446875)" xlink:href="#BitstreamVeraSans-Roman-30"/>
      <use transform="translate(254.4921875 0.446875)" xlink:href="#BitstreamVeraSans-Roman-30"/>
      <use transform="translate(318.115234375 0.446875)" xlink:href="#BitstreamVeraSans-Roman-2e"/>
      <use transform="translate(349.90234375 0.446875)" xlink:href="#BitstreamVeraSans-Roman-30"/>
      <use transform="translate(413.525390625 0.446875)" xlink:href="#BitstreamVeraSans-Roman-66"/>
      <use transform="translate(448.73046875 0.446875)" xlink:href="#BitstreamVeraSans-Roman-73"/>
      <use transform="translate(501.622773437 36.684375)scale(0.7)" xlink:href="#STIXGeneral-Regular-1d7e4"/>
     </g>
    </g>
    <g id="line2d_42">
     <path d="M 233.9125 238.691563 
L 247.9125 238.691563 
" style="fill:none;stroke:#bf00bf;stroke-linecap:square;stroke-width:1.5;"/>
    </g>
    <g id="line2d_43"/>
    <g id="text_18">
     <!-- 40000.0fs$^2$ -->
     <g transform="translate(258.9125 242.19156250000003)scale(0.1 -0.1)">
      <use transform="translate(0.0 0.446875)" xlink:href="#BitstreamVeraSans-Roman-34"/>
      <use transform="translate(63.623046875 0.446875)" xlink:href="#BitstreamVeraSans-Roman-30"/>
      <use transform="translate(127.24609375 0.446875)" xlink:href="#BitstreamVeraSans-Roman-30"/>
      <use transform="translate(190.869140625 0.446875)" xlink:href="#BitstreamVeraSans-Roman-30"/>
      <use transform="translate(254.4921875 0.446875)" xlink:href="#BitstreamVeraSans-Roman-30"/>
      <use transform="translate(318.115234375 0.446875)" xlink:href="#BitstreamVeraSans-Roman-2e"/>
      <use transform="translate(349.90234375 0.446875)" xlink:href="#BitstreamVeraSans-Roman-30"/>
      <use transform="translate(413.525390625 0.446875)" xlink:href="#BitstreamVeraSans-Roman-66"/>
      <use transform="translate(448.73046875 0.446875)" xlink:href="#BitstreamVeraSans-Roman-73"/>
      <use transform="translate(501.622773437 36.684375)scale(0.7)" xlink:href="#STIXGeneral-Regular-1d7e4"/>
     </g>
    </g>
    <g id="line2d_44">
     <path d="M 233.9125 250.869688 
L 247.9125 250.869688 
" style="fill:none;stroke:#bfbf00;stroke-linecap:square;stroke-width:1.5;"/>
    </g>
    <g id="line2d_45"/>
    <g id="text_19">
     <!-- 50000.0fs$^2$ -->
     <defs>
      <path d="M 10.796875 72.90625 
L 49.515625 72.90625 
L 49.515625 64.59375 
L 19.828125 64.59375 
L 19.828125 46.734375 
Q 21.96875 47.46875 24.109375 47.828125 
Q 26.265625 48.1875 28.421875 48.1875 
Q 40.625 48.1875 47.75 41.5 
Q 54.890625 34.8125 54.890625 23.390625 
Q 54.890625 11.625 47.5625 5.09375 
Q 40.234375 -1.421875 26.90625 -1.421875 
Q 22.3125 -1.421875 17.546875 -0.640625 
Q 12.796875 0.140625 7.71875 1.703125 
L 7.71875 11.625 
Q 12.109375 9.234375 16.796875 8.0625 
Q 21.484375 6.890625 26.703125 6.890625 
Q 35.15625 6.890625 40.078125 11.328125 
Q 45.015625 15.765625 45.015625 23.390625 
Q 45.015625 31 40.078125 35.4375 
Q 35.15625 39.890625 26.703125 39.890625 
Q 22.75 39.890625 18.8125 39.015625 
Q 14.890625 38.140625 10.796875 36.28125 
z
" id="BitstreamVeraSans-Roman-35"/>
     </defs>
     <g transform="translate(258.9125 254.36968750000003)scale(0.1 -0.1)">
      <use transform="translate(0.0 0.446875)" xlink:href="#BitstreamVeraSans-Roman-35"/>
      <use transform="translate(63.623046875 0.446875)" xlink:href="#BitstreamVeraSans-Roman-30"/>
      <use transform="translate(127.24609375 0.446875)" xlink:href="#BitstreamVeraSans-Roman-30"/>
      <use transform="translate(190.869140625 0.446875)" xlink:href="#BitstreamVeraSans-Roman-30"/>
      <use transform="translate(254.4921875 0.446875)" xlink:href="#BitstreamVeraSans-Roman-30"/>
      <use transform="translate(318.115234375 0.446875)" xlink:href="#BitstreamVeraSans-Roman-2e"/>
      <use transform="translate(349.90234375 0.446875)" xlink:href="#BitstreamVeraSans-Roman-30"/>
      <use transform="translate(413.525390625 0.446875)" xlink:href="#BitstreamVeraSans-Roman-66"/>
      <use transform="translate(448.73046875 0.446875)" xlink:href="#BitstreamVeraSans-Roman-73"/>
      <use transform="translate(501.622773437 36.684375)scale(0.7)" xlink:href="#STIXGeneral-Regular-1d7e4"/>
     </g>
    </g>
    <g id="line2d_46">
     <path d="M 233.9125 263.047813 
L 247.9125 263.047813 
" style="fill:none;stroke:#000000;stroke-linecap:square;stroke-width:1.5;"/>
    </g>
    <g id="line2d_47"/>
    <g id="text_20">
     <!-- 60000.0fs$^2$ -->
     <g transform="translate(258.9125 266.5478125)scale(0.1 -0.1)">
      <use transform="translate(0.0 0.446875)" xlink:href="#BitstreamVeraSans-Roman-36"/>
      <use transform="translate(63.623046875 0.446875)" xlink:href="#BitstreamVeraSans-Roman-30"/>
      <use transform="translate(127.24609375 0.446875)" xlink:href="#BitstreamVeraSans-Roman-30"/>
      <use transform="translate(190.869140625 0.446875)" xlink:href="#BitstreamVeraSans-Roman-30"/>
      <use transform="translate(254.4921875 0.446875)" xlink:href="#BitstreamVeraSans-Roman-30"/>
      <use transform="translate(318.115234375 0.446875)" xlink:href="#BitstreamVeraSans-Roman-2e"/>
      <use transform="translate(349.90234375 0.446875)" xlink:href="#BitstreamVeraSans-Roman-30"/>
      <use transform="translate(413.525390625 0.446875)" xlink:href="#BitstreamVeraSans-Roman-66"/>
      <use transform="translate(448.73046875 0.446875)" xlink:href="#BitstreamVeraSans-Roman-73"/>
      <use transform="translate(501.622773437 36.684375)scale(0.7)" xlink:href="#STIXGeneral-Regular-1d7e4"/>
     </g>
    </g>
    <g id="line2d_48">
     <path d="M 233.9125 275.225938 
L 247.9125 275.225938 
" style="fill:none;stroke:#0000ff;stroke-linecap:square;stroke-width:1.5;"/>
    </g>
    <g id="line2d_49"/>
    <g id="text_21">
     <!-- 70000.0fs$^2$ -->
     <defs>
      <path d="M 8.203125 72.90625 
L 55.078125 72.90625 
L 55.078125 68.703125 
L 28.609375 0 
L 18.3125 0 
L 43.21875 64.59375 
L 8.203125 64.59375 
z
" id="BitstreamVeraSans-Roman-37"/>
     </defs>
     <g transform="translate(258.9125 278.72593750000004)scale(0.1 -0.1)">
      <use transform="translate(0.0 0.446875)" xlink:href="#BitstreamVeraSans-Roman-37"/>
      <use transform="translate(63.623046875 0.446875)" xlink:href="#BitstreamVeraSans-Roman-30"/>
      <use transform="translate(127.24609375 0.446875)" xlink:href="#BitstreamVeraSans-Roman-30"/>
      <use transform="translate(190.869140625 0.446875)" xlink:href="#BitstreamVeraSans-Roman-30"/>
      <use transform="translate(254.4921875 0.446875)" xlink:href="#BitstreamVeraSans-Roman-30"/>
      <use transform="translate(318.115234375 0.446875)" xlink:href="#BitstreamVeraSans-Roman-2e"/>
      <use transform="translate(349.90234375 0.446875)" xlink:href="#BitstreamVeraSans-Roman-30"/>
      <use transform="translate(413.525390625 0.446875)" xlink:href="#BitstreamVeraSans-Roman-66"/>
      <use transform="translate(448.73046875 0.446875)" xlink:href="#BitstreamVeraSans-Roman-73"/>
      <use transform="translate(501.622773437 36.684375)scale(0.7)" xlink:href="#STIXGeneral-Regular-1d7e4"/>
     </g>
    </g>
    <g id="line2d_50">
     <path d="M 233.9125 287.404063 
L 247.9125 287.404063 
" style="fill:none;stroke:#008000;stroke-linecap:square;stroke-width:1.5;"/>
    </g>
    <g id="line2d_51"/>
    <g id="text_22">
     <!-- 80000.0fs$^2$ -->
     <g transform="translate(258.9125 290.9040625)scale(0.1 -0.1)">
      <use transform="translate(0.0 0.446875)" xlink:href="#BitstreamVeraSans-Roman-38"/>
      <use transform="translate(63.623046875 0.446875)" xlink:href="#BitstreamVeraSans-Roman-30"/>
      <use transform="translate(127.24609375 0.446875)" xlink:href="#BitstreamVeraSans-Roman-30"/>
      <use transform="translate(190.869140625 0.446875)" xlink:href="#BitstreamVeraSans-Roman-30"/>
      <use transform="translate(254.4921875 0.446875)" xlink:href="#BitstreamVeraSans-Roman-30"/>
      <use transform="translate(318.115234375 0.446875)" xlink:href="#BitstreamVeraSans-Roman-2e"/>
      <use transform="translate(349.90234375 0.446875)" xlink:href="#BitstreamVeraSans-Roman-30"/>
      <use transform="translate(413.525390625 0.446875)" xlink:href="#BitstreamVeraSans-Roman-66"/>
      <use transform="translate(448.73046875 0.446875)" xlink:href="#BitstreamVeraSans-Roman-73"/>
      <use transform="translate(501.622773437 36.684375)scale(0.7)" xlink:href="#STIXGeneral-Regular-1d7e4"/>
     </g>
    </g>
    <g id="line2d_52">
     <path d="M 233.9125 299.582188 
L 247.9125 299.582188 
" style="fill:none;stroke:#ff0000;stroke-linecap:square;stroke-width:1.5;"/>
    </g>
    <g id="line2d_53"/>
    <g id="text_23">
     <!-- 90000.0fs$^2$ -->
     <defs>
      <path d="M 10.984375 1.515625 
L 10.984375 10.5 
Q 14.703125 8.734375 18.5 7.8125 
Q 22.3125 6.890625 25.984375 6.890625 
Q 35.75 6.890625 40.890625 13.453125 
Q 46.046875 20.015625 46.78125 33.40625 
Q 43.953125 29.203125 39.59375 26.953125 
Q 35.25 24.703125 29.984375 24.703125 
Q 19.046875 24.703125 12.671875 31.3125 
Q 6.296875 37.9375 6.296875 49.421875 
Q 6.296875 60.640625 12.9375 67.421875 
Q 19.578125 74.21875 30.609375 74.21875 
Q 43.265625 74.21875 49.921875 64.515625 
Q 56.59375 54.828125 56.59375 36.375 
Q 56.59375 19.140625 48.40625 8.859375 
Q 40.234375 -1.421875 26.421875 -1.421875 
Q 22.703125 -1.421875 18.890625 -0.6875 
Q 15.09375 0.046875 10.984375 1.515625 
M 30.609375 32.421875 
Q 37.25 32.421875 41.125 36.953125 
Q 45.015625 41.5 45.015625 49.421875 
Q 45.015625 57.28125 41.125 61.84375 
Q 37.25 66.40625 30.609375 66.40625 
Q 23.96875 66.40625 20.09375 61.84375 
Q 16.21875 57.28125 16.21875 49.421875 
Q 16.21875 41.5 20.09375 36.953125 
Q 23.96875 32.421875 30.609375 32.421875 
" id="BitstreamVeraSans-Roman-39"/>
     </defs>
     <g transform="translate(258.9125 303.08218750000003)scale(0.1 -0.1)">
      <use transform="translate(0.0 0.446875)" xlink:href="#BitstreamVeraSans-Roman-39"/>
      <use transform="translate(63.623046875 0.446875)" xlink:href="#BitstreamVeraSans-Roman-30"/>
      <use transform="translate(127.24609375 0.446875)" xlink:href="#BitstreamVeraSans-Roman-30"/>
      <use transform="translate(190.869140625 0.446875)" xlink:href="#BitstreamVeraSans-Roman-30"/>
      <use transform="translate(254.4921875 0.446875)" xlink:href="#BitstreamVeraSans-Roman-30"/>
      <use transform="translate(318.115234375 0.446875)" xlink:href="#BitstreamVeraSans-Roman-2e"/>
      <use transform="translate(349.90234375 0.446875)" xlink:href="#BitstreamVeraSans-Roman-30"/>
      <use transform="translate(413.525390625 0.446875)" xlink:href="#BitstreamVeraSans-Roman-66"/>
      <use transform="translate(448.73046875 0.446875)" xlink:href="#BitstreamVeraSans-Roman-73"/>
      <use transform="translate(501.622773437 36.684375)scale(0.7)" xlink:href="#STIXGeneral-Regular-1d7e4"/>
     </g>
    </g>
    <g id="line2d_54">
     <path d="M 233.9125 311.760312 
L 247.9125 311.760312 
" style="fill:none;stroke:#00bfbf;stroke-linecap:square;stroke-width:1.5;"/>
    </g>
    <g id="line2d_55"/>
    <g id="text_24">
     <!-- 100000.0fs$^2$ -->
     <g transform="translate(258.9125 315.2603125)scale(0.1 -0.1)">
      <use transform="translate(0.0 0.446875)" xlink:href="#BitstreamVeraSans-Roman-31"/>
      <use transform="translate(63.623046875 0.446875)" xlink:href="#BitstreamVeraSans-Roman-30"/>
      <use transform="translate(127.24609375 0.446875)" xlink:href="#BitstreamVeraSans-Roman-30"/>
      <use transform="translate(190.869140625 0.446875)" xlink:href="#BitstreamVeraSans-Roman-30"/>
      <use transform="translate(254.4921875 0.446875)" xlink:href="#BitstreamVeraSans-Roman-30"/>
      <use transform="translate(318.115234375 0.446875)" xlink:href="#BitstreamVeraSans-Roman-30"/>
      <use transform="translate(381.73828125 0.446875)" xlink:href="#BitstreamVeraSans-Roman-2e"/>
      <use transform="translate(413.525390625 0.446875)" xlink:href="#BitstreamVeraSans-Roman-30"/>
      <use transform="translate(477.1484375 0.446875)" xlink:href="#BitstreamVeraSans-Roman-66"/>
      <use transform="translate(512.353515625 0.446875)" xlink:href="#BitstreamVeraSans-Roman-73"/>
      <use transform="translate(565.245820312 36.684375)scale(0.7)" xlink:href="#STIXGeneral-Regular-1d7e4"/>
     </g>
    </g>
   </g>
  </g>
 </g>
 <defs>
  <clipPath id="p35be8efa67">
   <rect height="313.38" width="431.95500000000004" x="59.085" y="12.960000000000036"/>
  </clipPath>
 </defs>
</svg>
