<?xml version="1.0" encoding="utf-8" standalone="no"?>
<!DOCTYPE svg PUBLIC "-//W3C//DTD SVG 1.1//EN"
  "http://www.w3.org/Graphics/SVG/1.1/DTD/svg11.dtd">
<!-- Created with matplotlib (http://matplotlib.org/) -->
<svg height="862pt" version="1.1" viewBox="0 0 643 862" width="643pt" xmlns="http://www.w3.org/2000/svg" xmlns:xlink="http://www.w3.org/1999/xlink">
 <defs>
  <style type="text/css">
*{stroke-linecap:butt;stroke-linejoin:round;stroke-miterlimit:100000;}
  </style>
 </defs>
 <g id="figure_1">
  <g id="patch_1">
   <path d="M 0 862.2 
L 643.5 862.2 
L 643.5 0 
L 0 0 
z
" style="fill:#ffffff;"/>
  </g>
  <g id="axes_1">
   <g id="patch_2">
    <path d="M 32.250969 196.61 
L 312.539906 196.61 
L 312.539906 12.96 
L 32.250969 12.96 
z
" style="fill:#ffffff;"/>
   </g>
   <g id="line2d_1">
    <path clip-path="url(#p942dada650)" d="M 32.250969 196.61 
L 39.437865 192.259607 
L 46.62476 179.97278 
L 53.811656 161.7231 
L 60.998552 140.028097 
L 68.185448 117.388493 
L 75.372344 95.943893 
L 82.55924 77.239383 
L 89.746135 62.107016 
L 96.933031 50.692191 
L 104.119927 42.631288 
L 111.306823 37.284108 
L 118.493719 33.943444 
L 125.680615 31.971754 
L 132.86751 30.867848 
L 140.054406 30.27782 
L 147.241302 29.973797 
L 154.428198 29.820542 
L 161.615094 29.74344 
L 168.80199 29.703893 
L 175.988885 29.682865 
L 183.175781 29.671219 
L 190.362677 29.66456 
L 197.549573 29.660684 
L 204.736469 29.658424 
L 211.923365 29.657114 
L 219.11026 29.656366 
L 226.297156 29.655946 
L 233.484052 29.655715 
L 240.670948 29.65559 
L 247.857844 29.655524 
L 255.04474 29.655489 
L 262.231635 29.655472 
L 269.418531 29.655463 
L 276.605427 29.655458 
L 283.792323 29.655456 
L 290.979219 29.655455 
L 298.166115 29.655455 
L 305.35301 29.655455 
L 312.539906 29.655455 
" style="fill:none;stroke:#0000ff;stroke-linecap:square;stroke-width:2.0;"/>
   </g>
   <g id="line2d_2">
    <path clip-path="url(#p942dada650)" d="M 32.250969 196.61 
L 39.437865 192.332257 
L 46.62476 180.235562 
L 53.811656 162.237547 
L 60.998552 140.813494 
L 68.185448 118.445571 
L 75.372344 97.262453 
L 82.55924 78.802637 
L 89.746135 63.883798 
L 96.933031 52.63167 
L 104.119927 44.661592 
L 111.306823 39.320624 
L 118.493719 35.901127 
L 125.680615 33.778559 
L 132.86751 32.473088 
L 140.054406 31.654864 
L 147.241302 31.117651 
L 154.428198 30.74294 
L 161.615094 30.467097 
L 168.80199 30.257186 
L 175.988885 30.095705 
L 183.175781 29.972159 
L 190.362677 29.879048 
L 197.549573 29.810253 
L 204.736469 29.760519 
L 211.923365 29.725361 
L 219.11026 29.701058 
L 226.297156 29.684624 
L 233.484052 29.673752 
L 240.670948 29.666711 
L 247.857844 29.662248 
L 255.04474 29.659476 
L 262.231635 29.65779 
L 269.418531 29.656785 
L 276.605427 29.656199 
L 283.792323 29.655863 
L 290.979219 29.655674 
L 298.166115 29.655571 
L 305.35301 29.655515 
L 312.539906 29.655485 
" style="fill:none;stroke:#008000;stroke-linecap:square;stroke-width:2.0;"/>
   </g>
   <g id="patch_3">
    <path d="M 32.250969 12.96 
L 312.539906 12.96 
" style="fill:none;stroke:#000000;stroke-linecap:square;stroke-linejoin:miter;"/>
   </g>
   <g id="patch_4">
    <path d="M 312.539906 196.61 
L 312.539906 12.96 
" style="fill:none;stroke:#000000;stroke-linecap:square;stroke-linejoin:miter;"/>
   </g>
   <g id="patch_5">
    <path d="M 32.250969 196.61 
L 312.539906 196.61 
" style="fill:none;stroke:#000000;stroke-linecap:square;stroke-linejoin:miter;"/>
   </g>
   <g id="patch_6">
    <path d="M 32.250969 196.61 
L 32.250969 12.96 
" style="fill:none;stroke:#000000;stroke-linecap:square;stroke-linejoin:miter;"/>
   </g>
   <g id="matplotlib.axis_1">
    <g id="xtick_1">
     <g id="line2d_3">
      <defs>
       <path d="M 0 0 
L 0 -4 
" id="m30888564b7" style="stroke:#000000;stroke-width:0.5;"/>
      </defs>
      <g>
       <use style="stroke:#000000;stroke-width:0.5;" x="32.25096875" xlink:href="#m30888564b7" y="196.6099999999999"/>
      </g>
     </g>
     <g id="line2d_4">
      <defs>
       <path d="M 0 0 
L 0 4 
" id="m54c6431b98" style="stroke:#000000;stroke-width:0.5;"/>
      </defs>
      <g>
       <use style="stroke:#000000;stroke-width:0.5;" x="32.25096875" xlink:href="#m54c6431b98" y="12.960000000000036"/>
      </g>
     </g>
     <g id="text_1">
      <!-- 0 -->
      <defs>
       <path d="M 31.78125 66.40625 
Q 24.171875 66.40625 20.328125 58.90625 
Q 16.5 51.421875 16.5 36.375 
Q 16.5 21.390625 20.328125 13.890625 
Q 24.171875 6.390625 31.78125 6.390625 
Q 39.453125 6.390625 43.28125 13.890625 
Q 47.125 21.390625 47.125 36.375 
Q 47.125 51.421875 43.28125 58.90625 
Q 39.453125 66.40625 31.78125 66.40625 
M 31.78125 74.21875 
Q 44.046875 74.21875 50.515625 64.515625 
Q 56.984375 54.828125 56.984375 36.375 
Q 56.984375 17.96875 50.515625 8.265625 
Q 44.046875 -1.421875 31.78125 -1.421875 
Q 19.53125 -1.421875 13.0625 8.265625 
Q 6.59375 17.96875 6.59375 36.375 
Q 6.59375 54.828125 13.0625 64.515625 
Q 19.53125 74.21875 31.78125 74.21875 
" id="BitstreamVeraSans-Roman-30"/>
      </defs>
      <g transform="translate(28.43346875 209.72812499999986)scale(0.12 -0.12)">
       <use xlink:href="#BitstreamVeraSans-Roman-30"/>
      </g>
     </g>
    </g>
    <g id="xtick_2">
     <g id="line2d_5">
      <g>
       <use style="stroke:#000000;stroke-width:0.5;" x="102.32320312499999" xlink:href="#m30888564b7" y="196.6099999999999"/>
      </g>
     </g>
     <g id="line2d_6">
      <g>
       <use style="stroke:#000000;stroke-width:0.5;" x="102.32320312499999" xlink:href="#m54c6431b98" y="12.960000000000036"/>
      </g>
     </g>
     <g id="text_2">
      <!-- 1 -->
      <defs>
       <path d="M 12.40625 8.296875 
L 28.515625 8.296875 
L 28.515625 63.921875 
L 10.984375 60.40625 
L 10.984375 69.390625 
L 28.421875 72.90625 
L 38.28125 72.90625 
L 38.28125 8.296875 
L 54.390625 8.296875 
L 54.390625 0 
L 12.40625 0 
z
" id="BitstreamVeraSans-Roman-31"/>
      </defs>
      <g transform="translate(98.505703125 209.72812499999986)scale(0.12 -0.12)">
       <use xlink:href="#BitstreamVeraSans-Roman-31"/>
      </g>
     </g>
    </g>
    <g id="xtick_3">
     <g id="line2d_7">
      <g>
       <use style="stroke:#000000;stroke-width:0.5;" x="172.39543749999999" xlink:href="#m30888564b7" y="196.6099999999999"/>
      </g>
     </g>
     <g id="line2d_8">
      <g>
       <use style="stroke:#000000;stroke-width:0.5;" x="172.39543749999999" xlink:href="#m54c6431b98" y="12.960000000000036"/>
      </g>
     </g>
     <g id="text_3">
      <!-- 2 -->
      <defs>
       <path d="M 19.1875 8.296875 
L 53.609375 8.296875 
L 53.609375 0 
L 7.328125 0 
L 7.328125 8.296875 
Q 12.9375 14.109375 22.625 23.890625 
Q 32.328125 33.6875 34.8125 36.53125 
Q 39.546875 41.84375 41.421875 45.53125 
Q 43.3125 49.21875 43.3125 52.78125 
Q 43.3125 58.59375 39.234375 62.25 
Q 35.15625 65.921875 28.609375 65.921875 
Q 23.96875 65.921875 18.8125 64.3125 
Q 13.671875 62.703125 7.8125 59.421875 
L 7.8125 69.390625 
Q 13.765625 71.78125 18.9375 73 
Q 24.125 74.21875 28.421875 74.21875 
Q 39.75 74.21875 46.484375 68.546875 
Q 53.21875 62.890625 53.21875 53.421875 
Q 53.21875 48.921875 51.53125 44.890625 
Q 49.859375 40.875 45.40625 35.40625 
Q 44.1875 33.984375 37.640625 27.21875 
Q 31.109375 20.453125 19.1875 8.296875 
" id="BitstreamVeraSans-Roman-32"/>
      </defs>
      <g transform="translate(168.5779375 209.72812499999986)scale(0.12 -0.12)">
       <use xlink:href="#BitstreamVeraSans-Roman-32"/>
      </g>
     </g>
    </g>
    <g id="xtick_4">
     <g id="line2d_9">
      <g>
       <use style="stroke:#000000;stroke-width:0.5;" x="242.46767187499998" xlink:href="#m30888564b7" y="196.6099999999999"/>
      </g>
     </g>
     <g id="line2d_10">
      <g>
       <use style="stroke:#000000;stroke-width:0.5;" x="242.46767187499998" xlink:href="#m54c6431b98" y="12.960000000000036"/>
      </g>
     </g>
     <g id="text_4">
      <!-- 3 -->
      <defs>
       <path d="M 40.578125 39.3125 
Q 47.65625 37.796875 51.625 33 
Q 55.609375 28.21875 55.609375 21.1875 
Q 55.609375 10.40625 48.1875 4.484375 
Q 40.765625 -1.421875 27.09375 -1.421875 
Q 22.515625 -1.421875 17.65625 -0.515625 
Q 12.796875 0.390625 7.625 2.203125 
L 7.625 11.71875 
Q 11.71875 9.328125 16.59375 8.109375 
Q 21.484375 6.890625 26.8125 6.890625 
Q 36.078125 6.890625 40.9375 10.546875 
Q 45.796875 14.203125 45.796875 21.1875 
Q 45.796875 27.640625 41.28125 31.265625 
Q 36.765625 34.90625 28.71875 34.90625 
L 20.21875 34.90625 
L 20.21875 43.015625 
L 29.109375 43.015625 
Q 36.375 43.015625 40.234375 45.921875 
Q 44.09375 48.828125 44.09375 54.296875 
Q 44.09375 59.90625 40.109375 62.90625 
Q 36.140625 65.921875 28.71875 65.921875 
Q 24.65625 65.921875 20.015625 65.03125 
Q 15.375 64.15625 9.8125 62.3125 
L 9.8125 71.09375 
Q 15.4375 72.65625 20.34375 73.4375 
Q 25.25 74.21875 29.59375 74.21875 
Q 40.828125 74.21875 47.359375 69.109375 
Q 53.90625 64.015625 53.90625 55.328125 
Q 53.90625 49.265625 50.4375 45.09375 
Q 46.96875 40.921875 40.578125 39.3125 
" id="BitstreamVeraSans-Roman-33"/>
      </defs>
      <g transform="translate(238.65017187499998 209.72812499999986)scale(0.12 -0.12)">
       <use xlink:href="#BitstreamVeraSans-Roman-33"/>
      </g>
     </g>
    </g>
    <g id="xtick_5">
     <g id="line2d_11">
      <g>
       <use style="stroke:#000000;stroke-width:0.5;" x="312.53990624999994" xlink:href="#m30888564b7" y="196.6099999999999"/>
      </g>
     </g>
     <g id="line2d_12">
      <g>
       <use style="stroke:#000000;stroke-width:0.5;" x="312.53990624999994" xlink:href="#m54c6431b98" y="12.960000000000036"/>
      </g>
     </g>
     <g id="text_5">
      <!-- 4 -->
      <defs>
       <path d="M 37.796875 64.3125 
L 12.890625 25.390625 
L 37.796875 25.390625 
z
M 35.203125 72.90625 
L 47.609375 72.90625 
L 47.609375 25.390625 
L 58.015625 25.390625 
L 58.015625 17.1875 
L 47.609375 17.1875 
L 47.609375 0 
L 37.796875 0 
L 37.796875 17.1875 
L 4.890625 17.1875 
L 4.890625 26.703125 
z
" id="BitstreamVeraSans-Roman-34"/>
      </defs>
      <g transform="translate(308.72240624999995 209.72812499999986)scale(0.12 -0.12)">
       <use xlink:href="#BitstreamVeraSans-Roman-34"/>
      </g>
     </g>
    </g>
   </g>
   <g id="matplotlib.axis_2">
    <g id="ytick_1">
     <g id="line2d_13">
      <defs>
       <path d="M 0 0 
L 4 0 
" id="m9a7562d73e" style="stroke:#000000;stroke-width:0.5;"/>
      </defs>
      <g>
       <use style="stroke:#000000;stroke-width:0.5;" x="32.25096875" xlink:href="#m9a7562d73e" y="196.6099999999999"/>
      </g>
     </g>
     <g id="line2d_14">
      <defs>
       <path d="M 0 0 
L -4 0 
" id="m9f78122fdd" style="stroke:#000000;stroke-width:0.5;"/>
      </defs>
      <g>
       <use style="stroke:#000000;stroke-width:0.5;" x="312.53990624999994" xlink:href="#m9f78122fdd" y="196.6099999999999"/>
      </g>
     </g>
     <g id="text_6">
      <!-- 0.0 -->
      <defs>
       <path d="M 10.6875 12.40625 
L 21 12.40625 
L 21 0 
L 10.6875 0 
z
" id="BitstreamVeraSans-Roman-2e"/>
      </defs>
      <g transform="translate(9.16721875 199.92124999999987)scale(0.12 -0.12)">
       <use xlink:href="#BitstreamVeraSans-Roman-30"/>
       <use x="63.623046875" xlink:href="#BitstreamVeraSans-Roman-2e"/>
       <use x="95.41015625" xlink:href="#BitstreamVeraSans-Roman-30"/>
      </g>
     </g>
    </g>
    <g id="ytick_2">
     <g id="line2d_15">
      <g>
       <use style="stroke:#000000;stroke-width:0.5;" x="32.25096875" xlink:href="#m9a7562d73e" y="113.13272727272724"/>
      </g>
     </g>
     <g id="line2d_16">
      <g>
       <use style="stroke:#000000;stroke-width:0.5;" x="312.53990624999994" xlink:href="#m9f78122fdd" y="113.13272727272724"/>
      </g>
     </g>
     <g id="text_7">
      <!-- 0.5 -->
      <defs>
       <path d="M 10.796875 72.90625 
L 49.515625 72.90625 
L 49.515625 64.59375 
L 19.828125 64.59375 
L 19.828125 46.734375 
Q 21.96875 47.46875 24.109375 47.828125 
Q 26.265625 48.1875 28.421875 48.1875 
Q 40.625 48.1875 47.75 41.5 
Q 54.890625 34.8125 54.890625 23.390625 
Q 54.890625 11.625 47.5625 5.09375 
Q 40.234375 -1.421875 26.90625 -1.421875 
Q 22.3125 -1.421875 17.546875 -0.640625 
Q 12.796875 0.140625 7.71875 1.703125 
L 7.71875 11.625 
Q 12.109375 9.234375 16.796875 8.0625 
Q 21.484375 6.890625 26.703125 6.890625 
Q 35.15625 6.890625 40.078125 11.328125 
Q 45.015625 15.765625 45.015625 23.390625 
Q 45.015625 31 40.078125 35.4375 
Q 35.15625 39.890625 26.703125 39.890625 
Q 22.75 39.890625 18.8125 39.015625 
Q 14.890625 38.140625 10.796875 36.28125 
z
" id="BitstreamVeraSans-Roman-35"/>
      </defs>
      <g transform="translate(9.16721875 116.44397727272724)scale(0.12 -0.12)">
       <use xlink:href="#BitstreamVeraSans-Roman-30"/>
       <use x="63.623046875" xlink:href="#BitstreamVeraSans-Roman-2e"/>
       <use x="95.41015625" xlink:href="#BitstreamVeraSans-Roman-35"/>
      </g>
     </g>
    </g>
    <g id="ytick_3">
     <g id="line2d_17">
      <g>
       <use style="stroke:#000000;stroke-width:0.5;" x="32.25096875" xlink:href="#m9a7562d73e" y="29.655454545454575"/>
      </g>
     </g>
     <g id="line2d_18">
      <g>
       <use style="stroke:#000000;stroke-width:0.5;" x="312.53990624999994" xlink:href="#m9f78122fdd" y="29.655454545454575"/>
      </g>
     </g>
     <g id="text_8">
      <!-- 1.0 -->
      <g transform="translate(9.16721875 32.96670454545449)scale(0.12 -0.12)">
       <use xlink:href="#BitstreamVeraSans-Roman-31"/>
       <use x="63.623046875" xlink:href="#BitstreamVeraSans-Roman-2e"/>
       <use x="95.41015625" xlink:href="#BitstreamVeraSans-Roman-30"/>
      </g>
     </g>
    </g>
   </g>
   <g id="text_9">
    <!-- 0.56 meV -->
    <defs>
     <path d="M 56.203125 29.59375 
L 56.203125 25.203125 
L 14.890625 25.203125 
Q 15.484375 15.921875 20.484375 11.0625 
Q 25.484375 6.203125 34.421875 6.203125 
Q 39.59375 6.203125 44.453125 7.46875 
Q 49.3125 8.734375 54.109375 11.28125 
L 54.109375 2.78125 
Q 49.265625 0.734375 44.1875 -0.34375 
Q 39.109375 -1.421875 33.890625 -1.421875 
Q 20.796875 -1.421875 13.15625 6.1875 
Q 5.515625 13.8125 5.515625 26.8125 
Q 5.515625 40.234375 12.765625 48.109375 
Q 20.015625 56 32.328125 56 
Q 43.359375 56 49.78125 48.890625 
Q 56.203125 41.796875 56.203125 29.59375 
M 47.21875 32.234375 
Q 47.125 39.59375 43.09375 43.984375 
Q 39.0625 48.390625 32.421875 48.390625 
Q 24.90625 48.390625 20.390625 44.140625 
Q 15.875 39.890625 15.1875 32.171875 
z
" id="BitstreamVeraSans-Roman-65"/>
     <path id="BitstreamVeraSans-Roman-20"/>
     <path d="M 33.015625 40.375 
Q 26.375 40.375 22.484375 35.828125 
Q 18.609375 31.296875 18.609375 23.390625 
Q 18.609375 15.53125 22.484375 10.953125 
Q 26.375 6.390625 33.015625 6.390625 
Q 39.65625 6.390625 43.53125 10.953125 
Q 47.40625 15.53125 47.40625 23.390625 
Q 47.40625 31.296875 43.53125 35.828125 
Q 39.65625 40.375 33.015625 40.375 
M 52.59375 71.296875 
L 52.59375 62.3125 
Q 48.875 64.0625 45.09375 64.984375 
Q 41.3125 65.921875 37.59375 65.921875 
Q 27.828125 65.921875 22.671875 59.328125 
Q 17.53125 52.734375 16.796875 39.40625 
Q 19.671875 43.65625 24.015625 45.921875 
Q 28.375 48.1875 33.59375 48.1875 
Q 44.578125 48.1875 50.953125 41.515625 
Q 57.328125 34.859375 57.328125 23.390625 
Q 57.328125 12.15625 50.6875 5.359375 
Q 44.046875 -1.421875 33.015625 -1.421875 
Q 20.359375 -1.421875 13.671875 8.265625 
Q 6.984375 17.96875 6.984375 36.375 
Q 6.984375 53.65625 15.1875 63.9375 
Q 23.390625 74.21875 37.203125 74.21875 
Q 40.921875 74.21875 44.703125 73.484375 
Q 48.484375 72.75 52.59375 71.296875 
" id="BitstreamVeraSans-Roman-36"/>
     <path d="M 28.609375 0 
L 0.78125 72.90625 
L 11.078125 72.90625 
L 34.1875 11.53125 
L 57.328125 72.90625 
L 67.578125 72.90625 
L 39.796875 0 
z
" id="BitstreamVeraSans-Roman-56"/>
     <path d="M 52 44.1875 
Q 55.375 50.25 60.0625 53.125 
Q 64.75 56 71.09375 56 
Q 79.640625 56 84.28125 50.015625 
Q 88.921875 44.046875 88.921875 33.015625 
L 88.921875 0 
L 79.890625 0 
L 79.890625 32.71875 
Q 79.890625 40.578125 77.09375 44.375 
Q 74.3125 48.1875 68.609375 48.1875 
Q 61.625 48.1875 57.5625 43.546875 
Q 53.515625 38.921875 53.515625 30.90625 
L 53.515625 0 
L 44.484375 0 
L 44.484375 32.71875 
Q 44.484375 40.625 41.703125 44.40625 
Q 38.921875 48.1875 33.109375 48.1875 
Q 26.21875 48.1875 22.15625 43.53125 
Q 18.109375 38.875 18.109375 30.90625 
L 18.109375 0 
L 9.078125 0 
L 9.078125 54.6875 
L 18.109375 54.6875 
L 18.109375 46.1875 
Q 21.1875 51.21875 25.484375 53.609375 
Q 29.78125 56 35.6875 56 
Q 41.65625 56 45.828125 52.96875 
Q 50 49.953125 52 44.1875 
" id="BitstreamVeraSans-Roman-6d"/>
    </defs>
    <g transform="translate(172.39543749999999 163.21909090909082)scale(0.08 -0.08)">
     <use xlink:href="#BitstreamVeraSans-Roman-30"/>
     <use x="63.623046875" xlink:href="#BitstreamVeraSans-Roman-2e"/>
     <use x="95.41015625" xlink:href="#BitstreamVeraSans-Roman-35"/>
     <use x="159.033203125" xlink:href="#BitstreamVeraSans-Roman-36"/>
     <use x="222.65625" xlink:href="#BitstreamVeraSans-Roman-20"/>
     <use x="254.443359375" xlink:href="#BitstreamVeraSans-Roman-6d"/>
     <use x="351.85546875" xlink:href="#BitstreamVeraSans-Roman-65"/>
     <use x="413.37890625" xlink:href="#BitstreamVeraSans-Roman-56"/>
    </g>
   </g>
   <g id="legend_1">
    <g id="line2d_19">
     <path d="M 41.850969 23.43875 
L 53.050969 23.43875 
" style="fill:none;stroke:#0000ff;stroke-linecap:square;stroke-width:2.0;"/>
    </g>
    <g id="line2d_20"/>
    <g id="text_10">
     <!-- P300 -->
     <defs>
      <path d="M 19.671875 64.796875 
L 19.671875 37.40625 
L 32.078125 37.40625 
Q 38.96875 37.40625 42.71875 40.96875 
Q 46.484375 44.53125 46.484375 51.125 
Q 46.484375 57.671875 42.71875 61.234375 
Q 38.96875 64.796875 32.078125 64.796875 
z
M 9.8125 72.90625 
L 32.078125 72.90625 
Q 44.34375 72.90625 50.609375 67.359375 
Q 56.890625 61.8125 56.890625 51.125 
Q 56.890625 40.328125 50.609375 34.8125 
Q 44.34375 29.296875 32.078125 29.296875 
L 19.671875 29.296875 
L 19.671875 0 
L 9.8125 0 
z
" id="BitstreamVeraSans-Roman-50"/>
     </defs>
     <g transform="translate(61.85096875 26.238749999999982)scale(0.08 -0.08)">
      <use xlink:href="#BitstreamVeraSans-Roman-50"/>
      <use x="60.302734375" xlink:href="#BitstreamVeraSans-Roman-33"/>
      <use x="123.92578125" xlink:href="#BitstreamVeraSans-Roman-30"/>
      <use x="187.548828125" xlink:href="#BitstreamVeraSans-Roman-30"/>
     </g>
    </g>
    <g id="line2d_21">
     <path d="M 41.850969 35.18125 
L 53.050969 35.18125 
" style="fill:none;stroke:#008000;stroke-linecap:square;stroke-width:2.0;"/>
    </g>
    <g id="line2d_22"/>
    <g id="text_11">
     <!-- N300 -->
     <defs>
      <path d="M 9.8125 72.90625 
L 23.09375 72.90625 
L 55.421875 11.921875 
L 55.421875 72.90625 
L 64.984375 72.90625 
L 64.984375 0 
L 51.703125 0 
L 19.390625 60.984375 
L 19.390625 0 
L 9.8125 0 
z
" id="BitstreamVeraSans-Roman-4e"/>
     </defs>
     <g transform="translate(61.85096875 37.98124999999993)scale(0.08 -0.08)">
      <use xlink:href="#BitstreamVeraSans-Roman-4e"/>
      <use x="74.8046875" xlink:href="#BitstreamVeraSans-Roman-33"/>
      <use x="138.427734375" xlink:href="#BitstreamVeraSans-Roman-30"/>
      <use x="202.05078125" xlink:href="#BitstreamVeraSans-Roman-30"/>
     </g>
    </g>
   </g>
  </g>
  <g id="axes_2">
   <g id="patch_7">
    <path d="M 348.209469 196.61 
L 628.498406 196.61 
L 628.498406 12.96 
L 348.209469 12.96 
z
" style="fill:#ffffff;"/>
   </g>
   <g id="line2d_23">
    <path clip-path="url(#p22b1375e69)" d="M 348.209469 196.61 
L 355.396365 192.212237 
L 362.58326 179.824061 
L 369.770156 161.53171 
L 376.957052 139.970669 
L 384.143948 117.651879 
L 391.330844 96.593849 
L 398.51774 78.182432 
L 405.704635 63.164333 
L 412.891531 51.700912 
L 420.078427 43.494855 
L 427.265323 37.970273 
L 434.452219 34.46083 
L 441.639115 32.346699 
L 448.82601 31.131108 
L 456.012906 30.457764 
L 463.199802 30.093889 
L 470.386698 29.898942 
L 477.573594 29.79358 
L 484.76049 29.73534 
L 491.947385 29.702207 
L 499.134281 29.682891 
L 506.321177 29.67147 
L 513.508073 29.664699 
L 520.694969 29.660712 
L 527.881865 29.658394 
L 535.06876 29.657069 
L 542.255656 29.656325 
L 549.442552 29.655916 
L 556.629448 29.655694 
L 563.816344 29.655577 
L 571.00324 29.655516 
L 578.190135 29.655485 
L 585.377031 29.655469 
L 592.563927 29.655461 
L 599.750823 29.655458 
L 606.937719 29.655456 
L 614.124615 29.655455 
L 621.31151 29.655455 
L 628.498406 29.655455 
" style="fill:none;stroke:#0000ff;stroke-linecap:square;stroke-width:2.0;"/>
   </g>
   <g id="line2d_24">
    <path clip-path="url(#p22b1375e69)" d="M 348.209469 196.61 
L 355.396365 192.318741 
L 362.58326 180.218984 
L 369.770156 162.334991 
L 376.957052 141.256892 
L 384.143948 119.477104 
L 391.330844 98.983788 
L 398.51774 81.113579 
L 405.704635 66.548263 
L 412.891531 55.394441 
L 420.078427 47.325498 
L 427.265323 41.764966 
L 434.452219 38.065621 
L 441.639115 35.642137 
L 448.82601 34.038213 
L 456.012906 32.938854 
L 463.199802 32.147246 
L 470.386698 31.550259 
L 477.573594 31.086373 
L 484.76049 30.722117 
L 491.947385 30.437463 
L 499.134281 30.218218 
L 506.321177 30.052618 
L 513.508073 29.93024 
L 520.694969 29.841823 
L 527.881865 29.779373 
L 535.06876 29.73624 
L 542.255656 29.707098 
L 549.442552 29.687832 
L 556.629448 29.675364 
L 563.816344 29.667464 
L 571.00324 29.662561 
L 578.190135 29.65958 
L 585.377031 29.657805 
L 592.563927 29.656768 
L 599.750823 29.656175 
L 606.937719 29.655843 
L 614.124615 29.65566 
L 621.31151 29.655561 
L 628.498406 29.655509 
" style="fill:none;stroke:#008000;stroke-linecap:square;stroke-width:2.0;"/>
   </g>
   <g id="patch_8">
    <path d="M 348.209469 12.96 
L 628.498406 12.96 
" style="fill:none;stroke:#000000;stroke-linecap:square;stroke-linejoin:miter;"/>
   </g>
   <g id="patch_9">
    <path d="M 628.498406 196.61 
L 628.498406 12.96 
" style="fill:none;stroke:#000000;stroke-linecap:square;stroke-linejoin:miter;"/>
   </g>
   <g id="patch_10">
    <path d="M 348.209469 196.61 
L 628.498406 196.61 
" style="fill:none;stroke:#000000;stroke-linecap:square;stroke-linejoin:miter;"/>
   </g>
   <g id="patch_11">
    <path d="M 348.209469 196.61 
L 348.209469 12.96 
" style="fill:none;stroke:#000000;stroke-linecap:square;stroke-linejoin:miter;"/>
   </g>
   <g id="matplotlib.axis_3">
    <g id="xtick_6">
     <g id="line2d_25">
      <g>
       <use style="stroke:#000000;stroke-width:0.5;" x="348.20946875000004" xlink:href="#m30888564b7" y="196.6099999999999"/>
      </g>
     </g>
     <g id="line2d_26">
      <g>
       <use style="stroke:#000000;stroke-width:0.5;" x="348.20946875000004" xlink:href="#m54c6431b98" y="12.960000000000036"/>
      </g>
     </g>
     <g id="text_12">
      <!-- 0 -->
      <g transform="translate(344.39196875000005 209.72812499999986)scale(0.12 -0.12)">
       <use xlink:href="#BitstreamVeraSans-Roman-30"/>
      </g>
     </g>
    </g>
    <g id="xtick_7">
     <g id="line2d_27">
      <g>
       <use style="stroke:#000000;stroke-width:0.5;" x="418.28170312500004" xlink:href="#m30888564b7" y="196.6099999999999"/>
      </g>
     </g>
     <g id="line2d_28">
      <g>
       <use style="stroke:#000000;stroke-width:0.5;" x="418.28170312500004" xlink:href="#m54c6431b98" y="12.960000000000036"/>
      </g>
     </g>
     <g id="text_13">
      <!-- 1 -->
      <g transform="translate(414.46420312500004 209.72812499999986)scale(0.12 -0.12)">
       <use xlink:href="#BitstreamVeraSans-Roman-31"/>
      </g>
     </g>
    </g>
    <g id="xtick_8">
     <g id="line2d_29">
      <g>
       <use style="stroke:#000000;stroke-width:0.5;" x="488.3539375" xlink:href="#m30888564b7" y="196.6099999999999"/>
      </g>
     </g>
     <g id="line2d_30">
      <g>
       <use style="stroke:#000000;stroke-width:0.5;" x="488.3539375" xlink:href="#m54c6431b98" y="12.960000000000036"/>
      </g>
     </g>
     <g id="text_14">
      <!-- 2 -->
      <g transform="translate(484.5364375 209.72812499999986)scale(0.12 -0.12)">
       <use xlink:href="#BitstreamVeraSans-Roman-32"/>
      </g>
     </g>
    </g>
    <g id="xtick_9">
     <g id="line2d_31">
      <g>
       <use style="stroke:#000000;stroke-width:0.5;" x="558.4261718749999" xlink:href="#m30888564b7" y="196.6099999999999"/>
      </g>
     </g>
     <g id="line2d_32">
      <g>
       <use style="stroke:#000000;stroke-width:0.5;" x="558.4261718749999" xlink:href="#m54c6431b98" y="12.960000000000036"/>
      </g>
     </g>
     <g id="text_15">
      <!-- 3 -->
      <g transform="translate(554.6086718749999 209.72812499999986)scale(0.12 -0.12)">
       <use xlink:href="#BitstreamVeraSans-Roman-33"/>
      </g>
     </g>
    </g>
    <g id="xtick_10">
     <g id="line2d_33">
      <g>
       <use style="stroke:#000000;stroke-width:0.5;" x="628.4984062499999" xlink:href="#m30888564b7" y="196.6099999999999"/>
      </g>
     </g>
     <g id="line2d_34">
      <g>
       <use style="stroke:#000000;stroke-width:0.5;" x="628.4984062499999" xlink:href="#m54c6431b98" y="12.960000000000036"/>
      </g>
     </g>
     <g id="text_16">
      <!-- 4 -->
      <g transform="translate(624.6809062499999 209.72812499999986)scale(0.12 -0.12)">
       <use xlink:href="#BitstreamVeraSans-Roman-34"/>
      </g>
     </g>
    </g>
   </g>
   <g id="matplotlib.axis_4">
    <g id="ytick_4">
     <g id="line2d_35">
      <g>
       <use style="stroke:#000000;stroke-width:0.5;" x="348.20946875000004" xlink:href="#m9a7562d73e" y="196.6099999999999"/>
      </g>
     </g>
     <g id="line2d_36">
      <g>
       <use style="stroke:#000000;stroke-width:0.5;" x="628.4984062499999" xlink:href="#m9f78122fdd" y="196.6099999999999"/>
      </g>
     </g>
     <g id="text_17">
      <!-- 0.0 -->
      <g transform="translate(325.12571875000003 199.92124999999987)scale(0.12 -0.12)">
       <use xlink:href="#BitstreamVeraSans-Roman-30"/>
       <use x="63.623046875" xlink:href="#BitstreamVeraSans-Roman-2e"/>
       <use x="95.41015625" xlink:href="#BitstreamVeraSans-Roman-30"/>
      </g>
     </g>
    </g>
    <g id="ytick_5">
     <g id="line2d_37">
      <g>
       <use style="stroke:#000000;stroke-width:0.5;" x="348.20946875000004" xlink:href="#m9a7562d73e" y="113.13272727272724"/>
      </g>
     </g>
     <g id="line2d_38">
      <g>
       <use style="stroke:#000000;stroke-width:0.5;" x="628.4984062499999" xlink:href="#m9f78122fdd" y="113.13272727272724"/>
      </g>
     </g>
     <g id="text_18">
      <!-- 0.5 -->
      <g transform="translate(325.12571875000003 116.44397727272724)scale(0.12 -0.12)">
       <use xlink:href="#BitstreamVeraSans-Roman-30"/>
       <use x="63.623046875" xlink:href="#BitstreamVeraSans-Roman-2e"/>
       <use x="95.41015625" xlink:href="#BitstreamVeraSans-Roman-35"/>
      </g>
     </g>
    </g>
    <g id="ytick_6">
     <g id="line2d_39">
      <g>
       <use style="stroke:#000000;stroke-width:0.5;" x="348.20946875000004" xlink:href="#m9a7562d73e" y="29.655454545454575"/>
      </g>
     </g>
     <g id="line2d_40">
      <g>
       <use style="stroke:#000000;stroke-width:0.5;" x="628.4984062499999" xlink:href="#m9f78122fdd" y="29.655454545454575"/>
      </g>
     </g>
     <g id="text_19">
      <!-- 1.0 -->
      <g transform="translate(325.12571875000003 32.96670454545449)scale(0.12 -0.12)">
       <use xlink:href="#BitstreamVeraSans-Roman-31"/>
       <use x="63.623046875" xlink:href="#BitstreamVeraSans-Roman-2e"/>
       <use x="95.41015625" xlink:href="#BitstreamVeraSans-Roman-30"/>
      </g>
     </g>
    </g>
   </g>
   <g id="text_20">
    <!-- 0.71 meV -->
    <defs>
     <path d="M 8.203125 72.90625 
L 55.078125 72.90625 
L 55.078125 68.703125 
L 28.609375 0 
L 18.3125 0 
L 43.21875 64.59375 
L 8.203125 64.59375 
z
" id="BitstreamVeraSans-Roman-37"/>
    </defs>
    <g transform="translate(488.3539375 163.21909090909082)scale(0.08 -0.08)">
     <use xlink:href="#BitstreamVeraSans-Roman-30"/>
     <use x="63.623046875" xlink:href="#BitstreamVeraSans-Roman-2e"/>
     <use x="95.41015625" xlink:href="#BitstreamVeraSans-Roman-37"/>
     <use x="159.033203125" xlink:href="#BitstreamVeraSans-Roman-31"/>
     <use x="222.65625" xlink:href="#BitstreamVeraSans-Roman-20"/>
     <use x="254.443359375" xlink:href="#BitstreamVeraSans-Roman-6d"/>
     <use x="351.85546875" xlink:href="#BitstreamVeraSans-Roman-65"/>
     <use x="413.37890625" xlink:href="#BitstreamVeraSans-Roman-56"/>
    </g>
   </g>
   <g id="legend_2">
    <g id="line2d_41">
     <path d="M 357.809469 23.43875 
L 369.009469 23.43875 
" style="fill:none;stroke:#0000ff;stroke-linecap:square;stroke-width:2.0;"/>
    </g>
    <g id="line2d_42"/>
    <g id="text_21">
     <!-- P300 -->
     <g transform="translate(377.80946875 26.238749999999982)scale(0.08 -0.08)">
      <use xlink:href="#BitstreamVeraSans-Roman-50"/>
      <use x="60.302734375" xlink:href="#BitstreamVeraSans-Roman-33"/>
      <use x="123.92578125" xlink:href="#BitstreamVeraSans-Roman-30"/>
      <use x="187.548828125" xlink:href="#BitstreamVeraSans-Roman-30"/>
     </g>
    </g>
    <g id="line2d_43">
     <path d="M 357.809469 35.18125 
L 369.009469 35.18125 
" style="fill:none;stroke:#008000;stroke-linecap:square;stroke-width:2.0;"/>
    </g>
    <g id="line2d_44"/>
    <g id="text_22">
     <!-- N300 -->
     <g transform="translate(377.80946875 37.98124999999993)scale(0.08 -0.08)">
      <use xlink:href="#BitstreamVeraSans-Roman-4e"/>
      <use x="74.8046875" xlink:href="#BitstreamVeraSans-Roman-33"/>
      <use x="138.427734375" xlink:href="#BitstreamVeraSans-Roman-30"/>
      <use x="202.05078125" xlink:href="#BitstreamVeraSans-Roman-30"/>
     </g>
    </g>
   </g>
  </g>
  <g id="axes_3">
   <g id="patch_12">
    <path d="M 32.250969 408.92 
L 312.539906 408.92 
L 312.539906 225.27 
L 32.250969 225.27 
z
" style="fill:#ffffff;"/>
   </g>
   <g id="line2d_45">
    <path clip-path="url(#p530758ce4a)" d="M 32.250969 408.92 
L 39.437865 404.446994 
L 46.62476 391.882569 
L 53.811656 373.449523 
L 60.998552 351.946591 
L 68.185448 329.973559 
L 75.372344 309.482772 
L 82.55924 291.676124 
L 89.746135 277.102863 
L 96.933031 265.81712 
L 104.119927 257.531552 
L 111.306823 251.758419 
L 118.493719 247.934046 
L 125.680615 245.515559 
L 132.86751 244.045488 
L 140.054406 243.177927 
L 147.241302 242.674642 
L 154.428198 242.383702 
L 161.615094 242.214206 
L 168.80199 242.114112 
L 175.988885 242.054206 
L 183.175781 242.018088 
L 190.362677 241.996317 
L 197.549573 241.983291 
L 204.736469 241.975594 
L 211.923365 241.971118 
L 219.11026 241.968561 
L 226.297156 241.967128 
L 233.484052 241.966339 
L 240.670948 241.965914 
L 247.857844 241.965689 
L 255.04474 241.965572 
L 262.231635 241.965512 
L 269.418531 241.965482 
L 276.605427 241.965468 
L 283.792323 241.965461 
L 290.979219 241.965457 
L 298.166115 241.965456 
L 305.35301 241.965455 
L 312.539906 241.965455 
" style="fill:none;stroke:#0000ff;stroke-linecap:square;stroke-width:2.0;"/>
   </g>
   <g id="line2d_46">
    <path clip-path="url(#p530758ce4a)" d="M 32.250969 408.92 
L 39.437865 404.59059 
L 46.62476 392.426866 
L 53.811656 374.596209 
L 60.998552 353.873583 
L 68.185448 332.864834 
L 75.372344 313.507712 
L 82.55924 296.91545 
L 89.746135 283.476614 
L 96.933031 273.066392 
L 104.119927 265.265735 
L 111.306823 259.539697 
L 118.493719 255.3625 
L 125.680615 252.288531 
L 132.86751 249.978531 
L 140.054406 248.196681 
L 147.241302 246.790744 
L 154.428198 245.666778 
L 161.615094 244.766497 
L 168.80199 244.051 
L 175.988885 243.490623 
L 183.175781 243.059918 
L 190.362677 242.735758 
L 197.549573 242.497096 
L 204.736469 242.325252 
L 211.923365 242.204235 
L 219.11026 242.120863 
L 226.297156 242.064657 
L 233.484052 242.027568 
L 240.670948 242.003605 
L 247.857844 241.988443 
L 255.04474 241.979045 
L 262.231635 241.973338 
L 269.418531 241.969942 
L 276.605427 241.967961 
L 283.792323 241.966829 
L 290.979219 241.966194 
L 298.166115 241.965845 
L 305.35301 241.965657 
L 312.539906 241.965558 
" style="fill:none;stroke:#008000;stroke-linecap:square;stroke-width:2.0;"/>
   </g>
   <g id="patch_13">
    <path d="M 32.250969 225.27 
L 312.539906 225.27 
" style="fill:none;stroke:#000000;stroke-linecap:square;stroke-linejoin:miter;"/>
   </g>
   <g id="patch_14">
    <path d="M 312.539906 408.92 
L 312.539906 225.27 
" style="fill:none;stroke:#000000;stroke-linecap:square;stroke-linejoin:miter;"/>
   </g>
   <g id="patch_15">
    <path d="M 32.250969 408.92 
L 312.539906 408.92 
" style="fill:none;stroke:#000000;stroke-linecap:square;stroke-linejoin:miter;"/>
   </g>
   <g id="patch_16">
    <path d="M 32.250969 408.92 
L 32.250969 225.27 
" style="fill:none;stroke:#000000;stroke-linecap:square;stroke-linejoin:miter;"/>
   </g>
   <g id="matplotlib.axis_5">
    <g id="xtick_11">
     <g id="line2d_47">
      <g>
       <use style="stroke:#000000;stroke-width:0.5;" x="32.25096875" xlink:href="#m30888564b7" y="408.9199999999999"/>
      </g>
     </g>
     <g id="line2d_48">
      <g>
       <use style="stroke:#000000;stroke-width:0.5;" x="32.25096875" xlink:href="#m54c6431b98" y="225.26999999999998"/>
      </g>
     </g>
     <g id="text_23">
      <!-- 0 -->
      <g transform="translate(28.43346875 422.0381249999999)scale(0.12 -0.12)">
       <use xlink:href="#BitstreamVeraSans-Roman-30"/>
      </g>
     </g>
    </g>
    <g id="xtick_12">
     <g id="line2d_49">
      <g>
       <use style="stroke:#000000;stroke-width:0.5;" x="102.32320312499999" xlink:href="#m30888564b7" y="408.9199999999999"/>
      </g>
     </g>
     <g id="line2d_50">
      <g>
       <use style="stroke:#000000;stroke-width:0.5;" x="102.32320312499999" xlink:href="#m54c6431b98" y="225.26999999999998"/>
      </g>
     </g>
     <g id="text_24">
      <!-- 1 -->
      <g transform="translate(98.505703125 422.0381249999999)scale(0.12 -0.12)">
       <use xlink:href="#BitstreamVeraSans-Roman-31"/>
      </g>
     </g>
    </g>
    <g id="xtick_13">
     <g id="line2d_51">
      <g>
       <use style="stroke:#000000;stroke-width:0.5;" x="172.39543749999999" xlink:href="#m30888564b7" y="408.9199999999999"/>
      </g>
     </g>
     <g id="line2d_52">
      <g>
       <use style="stroke:#000000;stroke-width:0.5;" x="172.39543749999999" xlink:href="#m54c6431b98" y="225.26999999999998"/>
      </g>
     </g>
     <g id="text_25">
      <!-- 2 -->
      <g transform="translate(168.5779375 422.0381249999999)scale(0.12 -0.12)">
       <use xlink:href="#BitstreamVeraSans-Roman-32"/>
      </g>
     </g>
    </g>
    <g id="xtick_14">
     <g id="line2d_53">
      <g>
       <use style="stroke:#000000;stroke-width:0.5;" x="242.46767187499998" xlink:href="#m30888564b7" y="408.9199999999999"/>
      </g>
     </g>
     <g id="line2d_54">
      <g>
       <use style="stroke:#000000;stroke-width:0.5;" x="242.46767187499998" xlink:href="#m54c6431b98" y="225.26999999999998"/>
      </g>
     </g>
     <g id="text_26">
      <!-- 3 -->
      <g transform="translate(238.65017187499998 422.0381249999999)scale(0.12 -0.12)">
       <use xlink:href="#BitstreamVeraSans-Roman-33"/>
      </g>
     </g>
    </g>
    <g id="xtick_15">
     <g id="line2d_55">
      <g>
       <use style="stroke:#000000;stroke-width:0.5;" x="312.53990624999994" xlink:href="#m30888564b7" y="408.9199999999999"/>
      </g>
     </g>
     <g id="line2d_56">
      <g>
       <use style="stroke:#000000;stroke-width:0.5;" x="312.53990624999994" xlink:href="#m54c6431b98" y="225.26999999999998"/>
      </g>
     </g>
     <g id="text_27">
      <!-- 4 -->
      <g transform="translate(308.72240624999995 422.0381249999999)scale(0.12 -0.12)">
       <use xlink:href="#BitstreamVeraSans-Roman-34"/>
      </g>
     </g>
    </g>
   </g>
   <g id="matplotlib.axis_6">
    <g id="ytick_7">
     <g id="line2d_57">
      <g>
       <use style="stroke:#000000;stroke-width:0.5;" x="32.25096875" xlink:href="#m9a7562d73e" y="408.9199999999999"/>
      </g>
     </g>
     <g id="line2d_58">
      <g>
       <use style="stroke:#000000;stroke-width:0.5;" x="312.53990624999994" xlink:href="#m9f78122fdd" y="408.9199999999999"/>
      </g>
     </g>
     <g id="text_28">
      <!-- 0.0 -->
      <g transform="translate(9.16721875 412.2312499999999)scale(0.12 -0.12)">
       <use xlink:href="#BitstreamVeraSans-Roman-30"/>
       <use x="63.623046875" xlink:href="#BitstreamVeraSans-Roman-2e"/>
       <use x="95.41015625" xlink:href="#BitstreamVeraSans-Roman-30"/>
      </g>
     </g>
    </g>
    <g id="ytick_8">
     <g id="line2d_59">
      <g>
       <use style="stroke:#000000;stroke-width:0.5;" x="32.25096875" xlink:href="#m9a7562d73e" y="325.4427272727272"/>
      </g>
     </g>
     <g id="line2d_60">
      <g>
       <use style="stroke:#000000;stroke-width:0.5;" x="312.53990624999994" xlink:href="#m9f78122fdd" y="325.4427272727272"/>
      </g>
     </g>
     <g id="text_29">
      <!-- 0.5 -->
      <g transform="translate(9.16721875 328.7539772727272)scale(0.12 -0.12)">
       <use xlink:href="#BitstreamVeraSans-Roman-30"/>
       <use x="63.623046875" xlink:href="#BitstreamVeraSans-Roman-2e"/>
       <use x="95.41015625" xlink:href="#BitstreamVeraSans-Roman-35"/>
      </g>
     </g>
    </g>
    <g id="ytick_9">
     <g id="line2d_61">
      <g>
       <use style="stroke:#000000;stroke-width:0.5;" x="32.25096875" xlink:href="#m9a7562d73e" y="241.96545454545452"/>
      </g>
     </g>
     <g id="line2d_62">
      <g>
       <use style="stroke:#000000;stroke-width:0.5;" x="312.53990624999994" xlink:href="#m9f78122fdd" y="241.96545454545452"/>
      </g>
     </g>
     <g id="text_30">
      <!-- 1.0 -->
      <g transform="translate(9.16721875 245.27670454545444)scale(0.12 -0.12)">
       <use xlink:href="#BitstreamVeraSans-Roman-31"/>
       <use x="63.623046875" xlink:href="#BitstreamVeraSans-Roman-2e"/>
       <use x="95.41015625" xlink:href="#BitstreamVeraSans-Roman-30"/>
      </g>
     </g>
    </g>
   </g>
   <g id="text_31">
    <!-- 0.9 meV -->
    <defs>
     <path d="M 10.984375 1.515625 
L 10.984375 10.5 
Q 14.703125 8.734375 18.5 7.8125 
Q 22.3125 6.890625 25.984375 6.890625 
Q 35.75 6.890625 40.890625 13.453125 
Q 46.046875 20.015625 46.78125 33.40625 
Q 43.953125 29.203125 39.59375 26.953125 
Q 35.25 24.703125 29.984375 24.703125 
Q 19.046875 24.703125 12.671875 31.3125 
Q 6.296875 37.9375 6.296875 49.421875 
Q 6.296875 60.640625 12.9375 67.421875 
Q 19.578125 74.21875 30.609375 74.21875 
Q 43.265625 74.21875 49.921875 64.515625 
Q 56.59375 54.828125 56.59375 36.375 
Q 56.59375 19.140625 48.40625 8.859375 
Q 40.234375 -1.421875 26.421875 -1.421875 
Q 22.703125 -1.421875 18.890625 -0.6875 
Q 15.09375 0.046875 10.984375 1.515625 
M 30.609375 32.421875 
Q 37.25 32.421875 41.125 36.953125 
Q 45.015625 41.5 45.015625 49.421875 
Q 45.015625 57.28125 41.125 61.84375 
Q 37.25 66.40625 30.609375 66.40625 
Q 23.96875 66.40625 20.09375 61.84375 
Q 16.21875 57.28125 16.21875 49.421875 
Q 16.21875 41.5 20.09375 36.953125 
Q 23.96875 32.421875 30.609375 32.421875 
" id="BitstreamVeraSans-Roman-39"/>
    </defs>
    <g transform="translate(172.39543749999999 375.5290909090908)scale(0.08 -0.08)">
     <use xlink:href="#BitstreamVeraSans-Roman-30"/>
     <use x="63.623046875" xlink:href="#BitstreamVeraSans-Roman-2e"/>
     <use x="95.41015625" xlink:href="#BitstreamVeraSans-Roman-39"/>
     <use x="159.033203125" xlink:href="#BitstreamVeraSans-Roman-20"/>
     <use x="190.8203125" xlink:href="#BitstreamVeraSans-Roman-6d"/>
     <use x="288.232421875" xlink:href="#BitstreamVeraSans-Roman-65"/>
     <use x="349.755859375" xlink:href="#BitstreamVeraSans-Roman-56"/>
    </g>
   </g>
   <g id="legend_3">
    <g id="line2d_63">
     <path d="M 41.850969 235.74875 
L 53.050969 235.74875 
" style="fill:none;stroke:#0000ff;stroke-linecap:square;stroke-width:2.0;"/>
    </g>
    <g id="line2d_64"/>
    <g id="text_32">
     <!-- P300 -->
     <g transform="translate(61.85096875 238.54874999999993)scale(0.08 -0.08)">
      <use xlink:href="#BitstreamVeraSans-Roman-50"/>
      <use x="60.302734375" xlink:href="#BitstreamVeraSans-Roman-33"/>
      <use x="123.92578125" xlink:href="#BitstreamVeraSans-Roman-30"/>
      <use x="187.548828125" xlink:href="#BitstreamVeraSans-Roman-30"/>
     </g>
    </g>
    <g id="line2d_65">
     <path d="M 41.850969 247.49125 
L 53.050969 247.49125 
" style="fill:none;stroke:#008000;stroke-linecap:square;stroke-width:2.0;"/>
    </g>
    <g id="line2d_66"/>
    <g id="text_33">
     <!-- N300 -->
     <g transform="translate(61.85096875 250.29124999999988)scale(0.08 -0.08)">
      <use xlink:href="#BitstreamVeraSans-Roman-4e"/>
      <use x="74.8046875" xlink:href="#BitstreamVeraSans-Roman-33"/>
      <use x="138.427734375" xlink:href="#BitstreamVeraSans-Roman-30"/>
      <use x="202.05078125" xlink:href="#BitstreamVeraSans-Roman-30"/>
     </g>
    </g>
   </g>
  </g>
  <g id="axes_4">
   <g id="patch_17">
    <path d="M 348.209469 408.92 
L 628.498406 408.92 
L 628.498406 225.27 
L 348.209469 225.27 
z
" style="fill:#ffffff;"/>
   </g>
   <g id="line2d_67">
    <path clip-path="url(#pa8f2a27f03)" d="M 348.209469 408.92 
L 355.396365 404.401342 
L 362.58326 391.725576 
L 369.770156 373.184659 
L 376.957052 351.663373 
L 384.143948 329.819816 
L 391.330844 309.601942 
L 398.51774 292.143462 
L 405.704635 277.894758 
L 412.891531 266.82593 
L 420.078427 258.612975 
L 427.265323 252.78084 
L 434.452219 248.809354 
L 441.639115 246.207185 
L 448.82601 244.557512 
L 456.012906 243.537568 
L 463.199802 242.916789 
L 470.386698 242.541265 
L 477.573594 242.313928 
L 484.76049 242.175766 
L 491.947385 242.091562 
L 499.134281 242.040303 
L 506.321177 242.009297 
L 513.508073 241.990745 
L 520.694969 241.979801 
L 527.881865 241.973451 
L 535.06876 241.969833 
L 542.255656 241.967809 
L 549.442552 241.966698 
L 556.629448 241.966099 
L 563.816344 241.965783 
L 571.00324 241.965619 
L 578.190135 241.965535 
L 585.377031 241.965494 
L 592.563927 241.965473 
L 599.750823 241.965463 
L 606.937719 241.965459 
L 614.124615 241.965456 
L 621.31151 241.965455 
L 628.498406 241.965455 
" style="fill:none;stroke:#0000ff;stroke-linecap:square;stroke-width:2.0;"/>
   </g>
   <g id="line2d_68">
    <path clip-path="url(#pa8f2a27f03)" d="M 348.209469 408.92 
L 355.396365 404.558167 
L 362.58326 392.326407 
L 369.770156 374.473007 
L 376.957052 353.878743 
L 384.143948 333.237338 
L 391.330844 314.502368 
L 398.51774 298.714305 
L 405.704635 286.121925 
L 412.891531 276.443362 
L 420.078427 269.134084 
L 427.265323 263.600392 
L 434.452219 259.325063 
L 441.639115 255.924034 
L 448.82601 253.143561 
L 456.012906 250.832216 
L 463.199802 248.904151 
L 470.386698 247.308293 
L 477.573594 246.007235 
L 484.76049 244.966868 
L 491.947385 244.152514 
L 499.134281 243.528988 
L 506.321177 243.062024 
L 513.508073 242.719921 
L 520.694969 242.47469 
L 527.881865 242.302646 
L 535.06876 242.184493 
L 542.255656 242.105048 
L 549.442552 242.052737 
L 556.629448 242.019 
L 563.816344 241.997686 
L 571.00324 241.984492 
L 578.190135 241.976489 
L 585.377031 241.971731 
L 592.563927 241.968959 
L 599.750823 241.967375 
L 606.937719 241.966487 
L 614.124615 241.966 
L 621.31151 241.965737 
L 628.498406 241.965598 
" style="fill:none;stroke:#008000;stroke-linecap:square;stroke-width:2.0;"/>
   </g>
   <g id="patch_18">
    <path d="M 348.209469 225.27 
L 628.498406 225.27 
" style="fill:none;stroke:#000000;stroke-linecap:square;stroke-linejoin:miter;"/>
   </g>
   <g id="patch_19">
    <path d="M 628.498406 408.92 
L 628.498406 225.27 
" style="fill:none;stroke:#000000;stroke-linecap:square;stroke-linejoin:miter;"/>
   </g>
   <g id="patch_20">
    <path d="M 348.209469 408.92 
L 628.498406 408.92 
" style="fill:none;stroke:#000000;stroke-linecap:square;stroke-linejoin:miter;"/>
   </g>
   <g id="patch_21">
    <path d="M 348.209469 408.92 
L 348.209469 225.27 
" style="fill:none;stroke:#000000;stroke-linecap:square;stroke-linejoin:miter;"/>
   </g>
   <g id="matplotlib.axis_7">
    <g id="xtick_16">
     <g id="line2d_69">
      <g>
       <use style="stroke:#000000;stroke-width:0.5;" x="348.20946875000004" xlink:href="#m30888564b7" y="408.9199999999999"/>
      </g>
     </g>
     <g id="line2d_70">
      <g>
       <use style="stroke:#000000;stroke-width:0.5;" x="348.20946875000004" xlink:href="#m54c6431b98" y="225.26999999999998"/>
      </g>
     </g>
     <g id="text_34">
      <!-- 0 -->
      <g transform="translate(344.39196875000005 422.0381249999999)scale(0.12 -0.12)">
       <use xlink:href="#BitstreamVeraSans-Roman-30"/>
      </g>
     </g>
    </g>
    <g id="xtick_17">
     <g id="line2d_71">
      <g>
       <use style="stroke:#000000;stroke-width:0.5;" x="418.28170312500004" xlink:href="#m30888564b7" y="408.9199999999999"/>
      </g>
     </g>
     <g id="line2d_72">
      <g>
       <use style="stroke:#000000;stroke-width:0.5;" x="418.28170312500004" xlink:href="#m54c6431b98" y="225.26999999999998"/>
      </g>
     </g>
     <g id="text_35">
      <!-- 1 -->
      <g transform="translate(414.46420312500004 422.0381249999999)scale(0.12 -0.12)">
       <use xlink:href="#BitstreamVeraSans-Roman-31"/>
      </g>
     </g>
    </g>
    <g id="xtick_18">
     <g id="line2d_73">
      <g>
       <use style="stroke:#000000;stroke-width:0.5;" x="488.3539375" xlink:href="#m30888564b7" y="408.9199999999999"/>
      </g>
     </g>
     <g id="line2d_74">
      <g>
       <use style="stroke:#000000;stroke-width:0.5;" x="488.3539375" xlink:href="#m54c6431b98" y="225.26999999999998"/>
      </g>
     </g>
     <g id="text_36">
      <!-- 2 -->
      <g transform="translate(484.5364375 422.0381249999999)scale(0.12 -0.12)">
       <use xlink:href="#BitstreamVeraSans-Roman-32"/>
      </g>
     </g>
    </g>
    <g id="xtick_19">
     <g id="line2d_75">
      <g>
       <use style="stroke:#000000;stroke-width:0.5;" x="558.4261718749999" xlink:href="#m30888564b7" y="408.9199999999999"/>
      </g>
     </g>
     <g id="line2d_76">
      <g>
       <use style="stroke:#000000;stroke-width:0.5;" x="558.4261718749999" xlink:href="#m54c6431b98" y="225.26999999999998"/>
      </g>
     </g>
     <g id="text_37">
      <!-- 3 -->
      <g transform="translate(554.6086718749999 422.0381249999999)scale(0.12 -0.12)">
       <use xlink:href="#BitstreamVeraSans-Roman-33"/>
      </g>
     </g>
    </g>
    <g id="xtick_20">
     <g id="line2d_77">
      <g>
       <use style="stroke:#000000;stroke-width:0.5;" x="628.4984062499999" xlink:href="#m30888564b7" y="408.9199999999999"/>
      </g>
     </g>
     <g id="line2d_78">
      <g>
       <use style="stroke:#000000;stroke-width:0.5;" x="628.4984062499999" xlink:href="#m54c6431b98" y="225.26999999999998"/>
      </g>
     </g>
     <g id="text_38">
      <!-- 4 -->
      <g transform="translate(624.6809062499999 422.0381249999999)scale(0.12 -0.12)">
       <use xlink:href="#BitstreamVeraSans-Roman-34"/>
      </g>
     </g>
    </g>
   </g>
   <g id="matplotlib.axis_8">
    <g id="ytick_10">
     <g id="line2d_79">
      <g>
       <use style="stroke:#000000;stroke-width:0.5;" x="348.20946875000004" xlink:href="#m9a7562d73e" y="408.9199999999999"/>
      </g>
     </g>
     <g id="line2d_80">
      <g>
       <use style="stroke:#000000;stroke-width:0.5;" x="628.4984062499999" xlink:href="#m9f78122fdd" y="408.9199999999999"/>
      </g>
     </g>
     <g id="text_39">
      <!-- 0.0 -->
      <g transform="translate(325.12571875000003 412.2312499999999)scale(0.12 -0.12)">
       <use xlink:href="#BitstreamVeraSans-Roman-30"/>
       <use x="63.623046875" xlink:href="#BitstreamVeraSans-Roman-2e"/>
       <use x="95.41015625" xlink:href="#BitstreamVeraSans-Roman-30"/>
      </g>
     </g>
    </g>
    <g id="ytick_11">
     <g id="line2d_81">
      <g>
       <use style="stroke:#000000;stroke-width:0.5;" x="348.20946875000004" xlink:href="#m9a7562d73e" y="325.4427272727272"/>
      </g>
     </g>
     <g id="line2d_82">
      <g>
       <use style="stroke:#000000;stroke-width:0.5;" x="628.4984062499999" xlink:href="#m9f78122fdd" y="325.4427272727272"/>
      </g>
     </g>
     <g id="text_40">
      <!-- 0.5 -->
      <g transform="translate(325.12571875000003 328.7539772727272)scale(0.12 -0.12)">
       <use xlink:href="#BitstreamVeraSans-Roman-30"/>
       <use x="63.623046875" xlink:href="#BitstreamVeraSans-Roman-2e"/>
       <use x="95.41015625" xlink:href="#BitstreamVeraSans-Roman-35"/>
      </g>
     </g>
    </g>
    <g id="ytick_12">
     <g id="line2d_83">
      <g>
       <use style="stroke:#000000;stroke-width:0.5;" x="348.20946875000004" xlink:href="#m9a7562d73e" y="241.96545454545452"/>
      </g>
     </g>
     <g id="line2d_84">
      <g>
       <use style="stroke:#000000;stroke-width:0.5;" x="628.4984062499999" xlink:href="#m9f78122fdd" y="241.96545454545452"/>
      </g>
     </g>
     <g id="text_41">
      <!-- 1.0 -->
      <g transform="translate(325.12571875000003 245.27670454545444)scale(0.12 -0.12)">
       <use xlink:href="#BitstreamVeraSans-Roman-31"/>
       <use x="63.623046875" xlink:href="#BitstreamVeraSans-Roman-2e"/>
       <use x="95.41015625" xlink:href="#BitstreamVeraSans-Roman-30"/>
      </g>
     </g>
    </g>
   </g>
   <g id="text_42">
    <!-- 1.0 meV -->
    <g transform="translate(488.3539375 375.5290909090908)scale(0.08 -0.08)">
     <use xlink:href="#BitstreamVeraSans-Roman-31"/>
     <use x="63.623046875" xlink:href="#BitstreamVeraSans-Roman-2e"/>
     <use x="95.41015625" xlink:href="#BitstreamVeraSans-Roman-30"/>
     <use x="159.033203125" xlink:href="#BitstreamVeraSans-Roman-20"/>
     <use x="190.8203125" xlink:href="#BitstreamVeraSans-Roman-6d"/>
     <use x="288.232421875" xlink:href="#BitstreamVeraSans-Roman-65"/>
     <use x="349.755859375" xlink:href="#BitstreamVeraSans-Roman-56"/>
    </g>
   </g>
   <g id="legend_4">
    <g id="line2d_85">
     <path d="M 357.809469 235.74875 
L 369.009469 235.74875 
" style="fill:none;stroke:#0000ff;stroke-linecap:square;stroke-width:2.0;"/>
    </g>
    <g id="line2d_86"/>
    <g id="text_43">
     <!-- P300 -->
     <g transform="translate(377.80946875 238.54874999999993)scale(0.08 -0.08)">
      <use xlink:href="#BitstreamVeraSans-Roman-50"/>
      <use x="60.302734375" xlink:href="#BitstreamVeraSans-Roman-33"/>
      <use x="123.92578125" xlink:href="#BitstreamVeraSans-Roman-30"/>
      <use x="187.548828125" xlink:href="#BitstreamVeraSans-Roman-30"/>
     </g>
    </g>
    <g id="line2d_87">
     <path d="M 357.809469 247.49125 
L 369.009469 247.49125 
" style="fill:none;stroke:#008000;stroke-linecap:square;stroke-width:2.0;"/>
    </g>
    <g id="line2d_88"/>
    <g id="text_44">
     <!-- N300 -->
     <g transform="translate(377.80946875 250.29124999999988)scale(0.08 -0.08)">
      <use xlink:href="#BitstreamVeraSans-Roman-4e"/>
      <use x="74.8046875" xlink:href="#BitstreamVeraSans-Roman-33"/>
      <use x="138.427734375" xlink:href="#BitstreamVeraSans-Roman-30"/>
      <use x="202.05078125" xlink:href="#BitstreamVeraSans-Roman-30"/>
     </g>
    </g>
   </g>
  </g>
  <g id="axes_5">
   <g id="patch_22">
    <path d="M 32.250969 621.23 
L 312.539906 621.23 
L 312.539906 437.58 
L 32.250969 437.58 
z
" style="fill:#ffffff;"/>
   </g>
   <g id="line2d_89">
    <path clip-path="url(#p630e94ab26)" d="M 32.250969 621.23 
L 39.437865 616.636305 
L 46.62476 603.773543 
L 53.811656 585.035442 
L 60.998552 563.432211 
L 68.185448 541.71417 
L 75.372344 521.841248 
L 82.55924 504.874333 
L 89.746135 491.141446 
L 96.933031 480.490957 
L 104.119927 472.520719 
L 111.306823 466.736637 
L 118.493719 462.64963 
L 125.680615 459.826958 
L 132.86751 457.913254 
L 140.054406 456.634327 
L 147.241302 455.789105 
L 154.428198 455.23563 
L 161.615094 454.876581 
L 168.80199 454.646233 
L 175.988885 454.500429 
L 183.175781 454.409592 
L 190.362677 454.354 
L 197.549573 454.320614 
L 204.736469 454.300949 
L 211.923365 454.289589 
L 219.11026 454.283151 
L 226.297156 454.279572 
L 233.484052 454.277619 
L 240.670948 454.276573 
L 247.857844 454.276022 
L 255.04474 454.275738 
L 262.231635 454.275593 
L 269.418531 454.275521 
L 276.605427 454.275486 
L 283.792323 454.275469 
L 290.979219 454.275461 
L 298.166115 454.275458 
L 305.35301 454.275456 
L 312.539906 454.275455 
" style="fill:none;stroke:#0000ff;stroke-linecap:square;stroke-width:2.0;"/>
   </g>
   <g id="line2d_90">
    <path clip-path="url(#p630e94ab26)" d="M 32.250969 621.23 
L 39.437865 616.801472 
L 46.62476 604.417506 
L 53.811656 586.457638 
L 60.998552 565.975368 
L 68.185448 545.810322 
L 75.372344 527.973518 
L 82.55924 513.443228 
L 89.746135 502.301404 
L 96.933031 494.045172 
L 104.119927 487.918049 
L 111.306823 483.167316 
L 118.493719 479.200577 
L 125.680615 475.640735 
L 132.86751 472.311965 
L 140.054406 469.182783 
L 147.241302 466.299294 
L 154.428198 463.727787 
L 161.615094 461.518296 
L 168.80199 459.6892 
L 175.988885 458.227287 
L 183.175781 457.095985 
L 190.362677 456.245931 
L 197.549573 455.624168 
L 204.736469 455.180534 
L 211.923365 454.871249 
L 219.11026 454.660313 
L 226.297156 454.519458 
L 233.484052 454.427312 
L 240.670948 454.368233 
L 247.857844 454.331101 
L 255.04474 454.30822 
L 262.231635 454.294395 
L 269.418531 454.286203 
L 276.605427 454.281443 
L 283.792323 454.27873 
L 290.979219 454.277213 
L 298.166115 454.276382 
L 305.35301 454.275935 
L 312.539906 454.275699 
" style="fill:none;stroke:#008000;stroke-linecap:square;stroke-width:2.0;"/>
   </g>
   <g id="patch_23">
    <path d="M 32.250969 437.58 
L 312.539906 437.58 
" style="fill:none;stroke:#000000;stroke-linecap:square;stroke-linejoin:miter;"/>
   </g>
   <g id="patch_24">
    <path d="M 312.539906 621.23 
L 312.539906 437.58 
" style="fill:none;stroke:#000000;stroke-linecap:square;stroke-linejoin:miter;"/>
   </g>
   <g id="patch_25">
    <path d="M 32.250969 621.23 
L 312.539906 621.23 
" style="fill:none;stroke:#000000;stroke-linecap:square;stroke-linejoin:miter;"/>
   </g>
   <g id="patch_26">
    <path d="M 32.250969 621.23 
L 32.250969 437.58 
" style="fill:none;stroke:#000000;stroke-linecap:square;stroke-linejoin:miter;"/>
   </g>
   <g id="matplotlib.axis_9">
    <g id="xtick_21">
     <g id="line2d_91">
      <g>
       <use style="stroke:#000000;stroke-width:0.5;" x="32.25096875" xlink:href="#m30888564b7" y="621.23"/>
      </g>
     </g>
     <g id="line2d_92">
      <g>
       <use style="stroke:#000000;stroke-width:0.5;" x="32.25096875" xlink:href="#m54c6431b98" y="437.58"/>
      </g>
     </g>
     <g id="text_45">
      <!-- 0 -->
      <g transform="translate(28.43346875 634.348125)scale(0.12 -0.12)">
       <use xlink:href="#BitstreamVeraSans-Roman-30"/>
      </g>
     </g>
    </g>
    <g id="xtick_22">
     <g id="line2d_93">
      <g>
       <use style="stroke:#000000;stroke-width:0.5;" x="102.32320312499999" xlink:href="#m30888564b7" y="621.23"/>
      </g>
     </g>
     <g id="line2d_94">
      <g>
       <use style="stroke:#000000;stroke-width:0.5;" x="102.32320312499999" xlink:href="#m54c6431b98" y="437.58"/>
      </g>
     </g>
     <g id="text_46">
      <!-- 1 -->
      <g transform="translate(98.505703125 634.348125)scale(0.12 -0.12)">
       <use xlink:href="#BitstreamVeraSans-Roman-31"/>
      </g>
     </g>
    </g>
    <g id="xtick_23">
     <g id="line2d_95">
      <g>
       <use style="stroke:#000000;stroke-width:0.5;" x="172.39543749999999" xlink:href="#m30888564b7" y="621.23"/>
      </g>
     </g>
     <g id="line2d_96">
      <g>
       <use style="stroke:#000000;stroke-width:0.5;" x="172.39543749999999" xlink:href="#m54c6431b98" y="437.58"/>
      </g>
     </g>
     <g id="text_47">
      <!-- 2 -->
      <g transform="translate(168.5779375 634.348125)scale(0.12 -0.12)">
       <use xlink:href="#BitstreamVeraSans-Roman-32"/>
      </g>
     </g>
    </g>
    <g id="xtick_24">
     <g id="line2d_97">
      <g>
       <use style="stroke:#000000;stroke-width:0.5;" x="242.46767187499998" xlink:href="#m30888564b7" y="621.23"/>
      </g>
     </g>
     <g id="line2d_98">
      <g>
       <use style="stroke:#000000;stroke-width:0.5;" x="242.46767187499998" xlink:href="#m54c6431b98" y="437.58"/>
      </g>
     </g>
     <g id="text_48">
      <!-- 3 -->
      <g transform="translate(238.65017187499998 634.348125)scale(0.12 -0.12)">
       <use xlink:href="#BitstreamVeraSans-Roman-33"/>
      </g>
     </g>
    </g>
    <g id="xtick_25">
     <g id="line2d_99">
      <g>
       <use style="stroke:#000000;stroke-width:0.5;" x="312.53990624999994" xlink:href="#m30888564b7" y="621.23"/>
      </g>
     </g>
     <g id="line2d_100">
      <g>
       <use style="stroke:#000000;stroke-width:0.5;" x="312.53990624999994" xlink:href="#m54c6431b98" y="437.58"/>
      </g>
     </g>
     <g id="text_49">
      <!-- 4 -->
      <g transform="translate(308.72240624999995 634.348125)scale(0.12 -0.12)">
       <use xlink:href="#BitstreamVeraSans-Roman-34"/>
      </g>
     </g>
    </g>
   </g>
   <g id="matplotlib.axis_10">
    <g id="ytick_13">
     <g id="line2d_101">
      <g>
       <use style="stroke:#000000;stroke-width:0.5;" x="32.25096875" xlink:href="#m9a7562d73e" y="621.23"/>
      </g>
     </g>
     <g id="line2d_102">
      <g>
       <use style="stroke:#000000;stroke-width:0.5;" x="312.53990624999994" xlink:href="#m9f78122fdd" y="621.23"/>
      </g>
     </g>
     <g id="text_50">
      <!-- 0.0 -->
      <g transform="translate(9.16721875 624.54125)scale(0.12 -0.12)">
       <use xlink:href="#BitstreamVeraSans-Roman-30"/>
       <use x="63.623046875" xlink:href="#BitstreamVeraSans-Roman-2e"/>
       <use x="95.41015625" xlink:href="#BitstreamVeraSans-Roman-30"/>
      </g>
     </g>
    </g>
    <g id="ytick_14">
     <g id="line2d_103">
      <g>
       <use style="stroke:#000000;stroke-width:0.5;" x="32.25096875" xlink:href="#m9a7562d73e" y="537.7527272727273"/>
      </g>
     </g>
     <g id="line2d_104">
      <g>
       <use style="stroke:#000000;stroke-width:0.5;" x="312.53990624999994" xlink:href="#m9f78122fdd" y="537.7527272727273"/>
      </g>
     </g>
     <g id="text_51">
      <!-- 0.5 -->
      <g transform="translate(9.16721875 541.0639772727272)scale(0.12 -0.12)">
       <use xlink:href="#BitstreamVeraSans-Roman-30"/>
       <use x="63.623046875" xlink:href="#BitstreamVeraSans-Roman-2e"/>
       <use x="95.41015625" xlink:href="#BitstreamVeraSans-Roman-35"/>
      </g>
     </g>
    </g>
    <g id="ytick_15">
     <g id="line2d_105">
      <g>
       <use style="stroke:#000000;stroke-width:0.5;" x="32.25096875" xlink:href="#m9a7562d73e" y="454.2754545454545"/>
      </g>
     </g>
     <g id="line2d_106">
      <g>
       <use style="stroke:#000000;stroke-width:0.5;" x="312.53990624999994" xlink:href="#m9f78122fdd" y="454.2754545454545"/>
      </g>
     </g>
     <g id="text_52">
      <!-- 1.0 -->
      <g transform="translate(9.16721875 457.5867045454545)scale(0.12 -0.12)">
       <use xlink:href="#BitstreamVeraSans-Roman-31"/>
       <use x="63.623046875" xlink:href="#BitstreamVeraSans-Roman-2e"/>
       <use x="95.41015625" xlink:href="#BitstreamVeraSans-Roman-30"/>
      </g>
     </g>
    </g>
   </g>
   <g id="text_53">
    <!-- 1.15 meV -->
    <g transform="translate(172.39543749999999 587.8390909090909)scale(0.08 -0.08)">
     <use xlink:href="#BitstreamVeraSans-Roman-31"/>
     <use x="63.623046875" xlink:href="#BitstreamVeraSans-Roman-2e"/>
     <use x="95.41015625" xlink:href="#BitstreamVeraSans-Roman-31"/>
     <use x="159.033203125" xlink:href="#BitstreamVeraSans-Roman-35"/>
     <use x="222.65625" xlink:href="#BitstreamVeraSans-Roman-20"/>
     <use x="254.443359375" xlink:href="#BitstreamVeraSans-Roman-6d"/>
     <use x="351.85546875" xlink:href="#BitstreamVeraSans-Roman-65"/>
     <use x="413.37890625" xlink:href="#BitstreamVeraSans-Roman-56"/>
    </g>
   </g>
   <g id="legend_5">
    <g id="line2d_107">
     <path d="M 41.850969 448.05875 
L 53.050969 448.05875 
" style="fill:none;stroke:#0000ff;stroke-linecap:square;stroke-width:2.0;"/>
    </g>
    <g id="line2d_108"/>
    <g id="text_54">
     <!-- P300 -->
     <g transform="translate(61.85096875 450.85875)scale(0.08 -0.08)">
      <use xlink:href="#BitstreamVeraSans-Roman-50"/>
      <use x="60.302734375" xlink:href="#BitstreamVeraSans-Roman-33"/>
      <use x="123.92578125" xlink:href="#BitstreamVeraSans-Roman-30"/>
      <use x="187.548828125" xlink:href="#BitstreamVeraSans-Roman-30"/>
     </g>
    </g>
    <g id="line2d_109">
     <path d="M 41.850969 459.80125 
L 53.050969 459.80125 
" style="fill:none;stroke:#008000;stroke-linecap:square;stroke-width:2.0;"/>
    </g>
    <g id="line2d_110"/>
    <g id="text_55">
     <!-- N300 -->
     <g transform="translate(61.85096875 462.60125)scale(0.08 -0.08)">
      <use xlink:href="#BitstreamVeraSans-Roman-4e"/>
      <use x="74.8046875" xlink:href="#BitstreamVeraSans-Roman-33"/>
      <use x="138.427734375" xlink:href="#BitstreamVeraSans-Roman-30"/>
      <use x="202.05078125" xlink:href="#BitstreamVeraSans-Roman-30"/>
     </g>
    </g>
   </g>
  </g>
  <g id="axes_6">
   <g id="patch_27">
    <path d="M 348.209469 621.23 
L 628.498406 621.23 
L 628.498406 437.58 
L 348.209469 437.58 
z
" style="fill:#ffffff;"/>
   </g>
   <g id="line2d_111">
    <path clip-path="url(#pc9b6f5be73)" d="M 348.209469 621.23 
L 355.396365 616.554907 
L 362.58326 603.486026 
L 369.770156 584.516977 
L 376.957052 562.78028 
L 384.143948 541.115608 
L 391.330844 521.506721 
L 398.51774 504.964732 
L 405.704635 491.72045 
L 412.891531 481.519445 
L 420.078427 473.881458 
L 427.265323 468.274167 
L 434.452219 464.209904 
L 441.639115 461.284613 
L 448.82601 459.185161 
L 456.012906 457.680415 
L 463.199802 456.605084 
L 470.386698 455.842061 
L 477.573594 455.307488 
L 484.76049 454.939887 
L 491.947385 454.692897 
L 499.134281 454.53125 
L 506.321177 454.428355 
L 513.508073 454.364666 
L 520.694969 454.326308 
L 527.881865 454.303803 
L 535.06876 454.290924 
L 542.255656 454.283726 
L 549.442552 454.279791 
L 556.629448 454.277686 
L 563.816344 454.276582 
L 571.00324 454.276014 
L 578.190135 454.275727 
L 585.377031 454.275585 
L 592.563927 454.275516 
L 599.750823 454.275483 
L 606.937719 454.275468 
L 614.124615 454.27546 
L 621.31151 454.275457 
L 628.498406 454.275456 
" style="fill:none;stroke:#0000ff;stroke-linecap:square;stroke-width:2.0;"/>
   </g>
   <g id="line2d_112">
    <path clip-path="url(#pc9b6f5be73)" d="M 348.209469 621.23 
L 355.396365 616.713616 
L 362.58326 604.119972 
L 369.770156 585.972116 
L 376.957052 565.509986 
L 384.143948 545.733632 
L 391.330844 528.732665 
L 398.51774 515.452887 
L 405.704635 505.849613 
L 412.891531 499.237578 
L 420.078427 494.66375 
L 427.265323 491.202306 
L 434.452219 488.129877 
L 441.639115 484.994944 
L 448.82601 481.608022 
L 456.012906 477.982534 
L 463.199802 474.257207 
L 470.386698 470.619729 
L 477.573594 467.247367 
L 484.76049 464.270699 
L 491.947385 461.759903 
L 499.134281 459.728248 
L 506.321177 458.145539 
L 513.508073 456.954642 
L 520.694969 456.086683 
L 527.881865 455.472443 
L 535.06876 455.049485 
L 542.255656 454.765602 
L 549.442552 454.579606 
L 556.629448 454.460504 
L 563.816344 454.385894 
L 571.00324 454.340132 
L 578.190135 454.312633 
L 585.377031 454.296436 
L 592.563927 454.287082 
L 599.750823 454.281782 
L 606.937719 454.278837 
L 614.124615 454.27723 
L 621.31151 454.27637 
L 628.498406 454.275918 
" style="fill:none;stroke:#008000;stroke-linecap:square;stroke-width:2.0;"/>
   </g>
   <g id="patch_28">
    <path d="M 348.209469 437.58 
L 628.498406 437.58 
" style="fill:none;stroke:#000000;stroke-linecap:square;stroke-linejoin:miter;"/>
   </g>
   <g id="patch_29">
    <path d="M 628.498406 621.23 
L 628.498406 437.58 
" style="fill:none;stroke:#000000;stroke-linecap:square;stroke-linejoin:miter;"/>
   </g>
   <g id="patch_30">
    <path d="M 348.209469 621.23 
L 628.498406 621.23 
" style="fill:none;stroke:#000000;stroke-linecap:square;stroke-linejoin:miter;"/>
   </g>
   <g id="patch_31">
    <path d="M 348.209469 621.23 
L 348.209469 437.58 
" style="fill:none;stroke:#000000;stroke-linecap:square;stroke-linejoin:miter;"/>
   </g>
   <g id="matplotlib.axis_11">
    <g id="xtick_26">
     <g id="line2d_113">
      <g>
       <use style="stroke:#000000;stroke-width:0.5;" x="348.20946875000004" xlink:href="#m30888564b7" y="621.23"/>
      </g>
     </g>
     <g id="line2d_114">
      <g>
       <use style="stroke:#000000;stroke-width:0.5;" x="348.20946875000004" xlink:href="#m54c6431b98" y="437.58"/>
      </g>
     </g>
     <g id="text_56">
      <!-- 0 -->
      <g transform="translate(344.39196875000005 634.348125)scale(0.12 -0.12)">
       <use xlink:href="#BitstreamVeraSans-Roman-30"/>
      </g>
     </g>
    </g>
    <g id="xtick_27">
     <g id="line2d_115">
      <g>
       <use style="stroke:#000000;stroke-width:0.5;" x="418.28170312500004" xlink:href="#m30888564b7" y="621.23"/>
      </g>
     </g>
     <g id="line2d_116">
      <g>
       <use style="stroke:#000000;stroke-width:0.5;" x="418.28170312500004" xlink:href="#m54c6431b98" y="437.58"/>
      </g>
     </g>
     <g id="text_57">
      <!-- 1 -->
      <g transform="translate(414.46420312500004 634.348125)scale(0.12 -0.12)">
       <use xlink:href="#BitstreamVeraSans-Roman-31"/>
      </g>
     </g>
    </g>
    <g id="xtick_28">
     <g id="line2d_117">
      <g>
       <use style="stroke:#000000;stroke-width:0.5;" x="488.3539375" xlink:href="#m30888564b7" y="621.23"/>
      </g>
     </g>
     <g id="line2d_118">
      <g>
       <use style="stroke:#000000;stroke-width:0.5;" x="488.3539375" xlink:href="#m54c6431b98" y="437.58"/>
      </g>
     </g>
     <g id="text_58">
      <!-- 2 -->
      <g transform="translate(484.5364375 634.348125)scale(0.12 -0.12)">
       <use xlink:href="#BitstreamVeraSans-Roman-32"/>
      </g>
     </g>
    </g>
    <g id="xtick_29">
     <g id="line2d_119">
      <g>
       <use style="stroke:#000000;stroke-width:0.5;" x="558.4261718749999" xlink:href="#m30888564b7" y="621.23"/>
      </g>
     </g>
     <g id="line2d_120">
      <g>
       <use style="stroke:#000000;stroke-width:0.5;" x="558.4261718749999" xlink:href="#m54c6431b98" y="437.58"/>
      </g>
     </g>
     <g id="text_59">
      <!-- 3 -->
      <g transform="translate(554.6086718749999 634.348125)scale(0.12 -0.12)">
       <use xlink:href="#BitstreamVeraSans-Roman-33"/>
      </g>
     </g>
    </g>
    <g id="xtick_30">
     <g id="line2d_121">
      <g>
       <use style="stroke:#000000;stroke-width:0.5;" x="628.4984062499999" xlink:href="#m30888564b7" y="621.23"/>
      </g>
     </g>
     <g id="line2d_122">
      <g>
       <use style="stroke:#000000;stroke-width:0.5;" x="628.4984062499999" xlink:href="#m54c6431b98" y="437.58"/>
      </g>
     </g>
     <g id="text_60">
      <!-- 4 -->
      <g transform="translate(624.6809062499999 634.348125)scale(0.12 -0.12)">
       <use xlink:href="#BitstreamVeraSans-Roman-34"/>
      </g>
     </g>
    </g>
   </g>
   <g id="matplotlib.axis_12">
    <g id="ytick_16">
     <g id="line2d_123">
      <g>
       <use style="stroke:#000000;stroke-width:0.5;" x="348.20946875000004" xlink:href="#m9a7562d73e" y="621.23"/>
      </g>
     </g>
     <g id="line2d_124">
      <g>
       <use style="stroke:#000000;stroke-width:0.5;" x="628.4984062499999" xlink:href="#m9f78122fdd" y="621.23"/>
      </g>
     </g>
     <g id="text_61">
      <!-- 0.0 -->
      <g transform="translate(325.12571875000003 624.54125)scale(0.12 -0.12)">
       <use xlink:href="#BitstreamVeraSans-Roman-30"/>
       <use x="63.623046875" xlink:href="#BitstreamVeraSans-Roman-2e"/>
       <use x="95.41015625" xlink:href="#BitstreamVeraSans-Roman-30"/>
      </g>
     </g>
    </g>
    <g id="ytick_17">
     <g id="line2d_125">
      <g>
       <use style="stroke:#000000;stroke-width:0.5;" x="348.20946875000004" xlink:href="#m9a7562d73e" y="537.7527272727273"/>
      </g>
     </g>
     <g id="line2d_126">
      <g>
       <use style="stroke:#000000;stroke-width:0.5;" x="628.4984062499999" xlink:href="#m9f78122fdd" y="537.7527272727273"/>
      </g>
     </g>
     <g id="text_62">
      <!-- 0.5 -->
      <g transform="translate(325.12571875000003 541.0639772727272)scale(0.12 -0.12)">
       <use xlink:href="#BitstreamVeraSans-Roman-30"/>
       <use x="63.623046875" xlink:href="#BitstreamVeraSans-Roman-2e"/>
       <use x="95.41015625" xlink:href="#BitstreamVeraSans-Roman-35"/>
      </g>
     </g>
    </g>
    <g id="ytick_18">
     <g id="line2d_127">
      <g>
       <use style="stroke:#000000;stroke-width:0.5;" x="348.20946875000004" xlink:href="#m9a7562d73e" y="454.2754545454545"/>
      </g>
     </g>
     <g id="line2d_128">
      <g>
       <use style="stroke:#000000;stroke-width:0.5;" x="628.4984062499999" xlink:href="#m9f78122fdd" y="454.2754545454545"/>
      </g>
     </g>
     <g id="text_63">
      <!-- 1.0 -->
      <g transform="translate(325.12571875000003 457.5867045454545)scale(0.12 -0.12)">
       <use xlink:href="#BitstreamVeraSans-Roman-31"/>
       <use x="63.623046875" xlink:href="#BitstreamVeraSans-Roman-2e"/>
       <use x="95.41015625" xlink:href="#BitstreamVeraSans-Roman-30"/>
      </g>
     </g>
    </g>
   </g>
   <g id="text_64">
    <!-- 1.3 meV -->
    <g transform="translate(488.3539375 587.8390909090909)scale(0.08 -0.08)">
     <use xlink:href="#BitstreamVeraSans-Roman-31"/>
     <use x="63.623046875" xlink:href="#BitstreamVeraSans-Roman-2e"/>
     <use x="95.41015625" xlink:href="#BitstreamVeraSans-Roman-33"/>
     <use x="159.033203125" xlink:href="#BitstreamVeraSans-Roman-20"/>
     <use x="190.8203125" xlink:href="#BitstreamVeraSans-Roman-6d"/>
     <use x="288.232421875" xlink:href="#BitstreamVeraSans-Roman-65"/>
     <use x="349.755859375" xlink:href="#BitstreamVeraSans-Roman-56"/>
    </g>
   </g>
   <g id="legend_6">
    <g id="line2d_129">
     <path d="M 357.809469 448.05875 
L 369.009469 448.05875 
" style="fill:none;stroke:#0000ff;stroke-linecap:square;stroke-width:2.0;"/>
    </g>
    <g id="line2d_130"/>
    <g id="text_65">
     <!-- P300 -->
     <g transform="translate(377.80946875 450.85875)scale(0.08 -0.08)">
      <use xlink:href="#BitstreamVeraSans-Roman-50"/>
      <use x="60.302734375" xlink:href="#BitstreamVeraSans-Roman-33"/>
      <use x="123.92578125" xlink:href="#BitstreamVeraSans-Roman-30"/>
      <use x="187.548828125" xlink:href="#BitstreamVeraSans-Roman-30"/>
     </g>
    </g>
    <g id="line2d_131">
     <path d="M 357.809469 459.80125 
L 369.009469 459.80125 
" style="fill:none;stroke:#008000;stroke-linecap:square;stroke-width:2.0;"/>
    </g>
    <g id="line2d_132"/>
    <g id="text_66">
     <!-- N300 -->
     <g transform="translate(377.80946875 462.60125)scale(0.08 -0.08)">
      <use xlink:href="#BitstreamVeraSans-Roman-4e"/>
      <use x="74.8046875" xlink:href="#BitstreamVeraSans-Roman-33"/>
      <use x="138.427734375" xlink:href="#BitstreamVeraSans-Roman-30"/>
      <use x="202.05078125" xlink:href="#BitstreamVeraSans-Roman-30"/>
     </g>
    </g>
   </g>
  </g>
  <g id="axes_7">
   <g id="patch_32">
    <path d="M 32.250969 833.54 
L 312.539906 833.54 
L 312.539906 649.89 
L 32.250969 649.89 
z
" style="fill:#ffffff;"/>
   </g>
   <g id="line2d_133">
    <path clip-path="url(#p39545d6857)" d="M 32.250969 833.54 
L 39.437865 828.778861 
L 46.62476 815.490025 
L 53.811656 796.265629 
L 60.998552 774.355844 
L 68.185448 752.688606 
L 75.372344 733.273133 
L 82.55924 717.081847 
L 89.746135 704.267924 
L 96.933031 694.491099 
L 104.119927 687.20341 
L 111.306823 681.835541 
L 118.493719 677.889564 
L 125.680615 674.972393 
L 132.86751 672.793426 
L 140.054406 671.148372 
L 147.241302 669.898349 
L 154.428198 668.949466 
L 161.615094 668.23632 
L 168.80199 667.710106 
L 175.988885 667.33136 
L 183.175781 667.066592 
L 190.362677 666.887234 
L 197.549573 666.769579 
L 204.736469 666.694815 
L 211.923365 666.648744 
L 219.11026 666.621179 
L 226.297156 666.60514 
L 233.484052 666.596054 
L 240.670948 666.591036 
L 247.857844 666.588331 
L 255.04474 666.586906 
L 262.231635 666.586172 
L 269.418531 666.585802 
L 276.605427 666.58562 
L 283.792323 666.585532 
L 290.979219 666.58549 
L 298.166115 666.58547 
L 305.35301 666.585462 
L 312.539906 666.585458 
" style="fill:none;stroke:#0000ff;stroke-linecap:square;stroke-width:2.0;"/>
   </g>
   <g id="line2d_134">
    <path clip-path="url(#p39545d6857)" d="M 32.250969 833.54 
L 39.437865 828.918544 
L 46.62476 816.068681 
L 53.811656 797.669607 
L 60.998552 777.157415 
L 68.185448 757.701872 
L 75.372344 741.475349 
L 82.55924 729.405892 
L 89.746135 721.343018 
L 96.933031 716.446869 
L 104.119927 713.601372 
L 111.306823 711.730753 
L 118.493719 709.987399 
L 125.680615 707.82213 
L 132.86751 704.976795 
L 140.054406 701.432768 
L 147.241302 697.339176 
L 154.428198 692.938729 
L 161.615094 688.501974 
L 168.80199 684.275519 
L 175.988885 680.449243 
L 183.175781 677.141501 
L 190.362677 674.400277 
L 197.549573 672.215351 
L 204.736469 670.535641 
L 211.923365 669.287141 
L 219.11026 668.388034 
L 226.297156 667.759568 
L 233.484052 667.332535 
L 240.670948 667.050096 
L 247.857844 666.868065 
L 255.04474 666.753638 
L 262.231635 666.683423 
L 269.418531 666.641335 
L 276.605427 666.616677 
L 283.792323 666.602548 
L 290.979219 666.594628 
L 298.166115 666.590281 
L 305.35301 666.587945 
L 312.539906 666.586715 
" style="fill:none;stroke:#008000;stroke-linecap:square;stroke-width:2.0;"/>
   </g>
   <g id="patch_33">
    <path d="M 32.250969 649.89 
L 312.539906 649.89 
" style="fill:none;stroke:#000000;stroke-linecap:square;stroke-linejoin:miter;"/>
   </g>
   <g id="patch_34">
    <path d="M 312.539906 833.54 
L 312.539906 649.89 
" style="fill:none;stroke:#000000;stroke-linecap:square;stroke-linejoin:miter;"/>
   </g>
   <g id="patch_35">
    <path d="M 32.250969 833.54 
L 312.539906 833.54 
" style="fill:none;stroke:#000000;stroke-linecap:square;stroke-linejoin:miter;"/>
   </g>
   <g id="patch_36">
    <path d="M 32.250969 833.54 
L 32.250969 649.89 
" style="fill:none;stroke:#000000;stroke-linecap:square;stroke-linejoin:miter;"/>
   </g>
   <g id="matplotlib.axis_13">
    <g id="xtick_31">
     <g id="line2d_135">
      <g>
       <use style="stroke:#000000;stroke-width:0.5;" x="32.25096875" xlink:href="#m30888564b7" y="833.5400000000001"/>
      </g>
     </g>
     <g id="line2d_136">
      <g>
       <use style="stroke:#000000;stroke-width:0.5;" x="32.25096875" xlink:href="#m54c6431b98" y="649.8900000000001"/>
      </g>
     </g>
     <g id="text_67">
      <!-- 0 -->
      <g transform="translate(28.43346875 846.658125)scale(0.12 -0.12)">
       <use xlink:href="#BitstreamVeraSans-Roman-30"/>
      </g>
     </g>
    </g>
    <g id="xtick_32">
     <g id="line2d_137">
      <g>
       <use style="stroke:#000000;stroke-width:0.5;" x="102.32320312499999" xlink:href="#m30888564b7" y="833.5400000000001"/>
      </g>
     </g>
     <g id="line2d_138">
      <g>
       <use style="stroke:#000000;stroke-width:0.5;" x="102.32320312499999" xlink:href="#m54c6431b98" y="649.8900000000001"/>
      </g>
     </g>
     <g id="text_68">
      <!-- 1 -->
      <g transform="translate(98.505703125 846.658125)scale(0.12 -0.12)">
       <use xlink:href="#BitstreamVeraSans-Roman-31"/>
      </g>
     </g>
    </g>
    <g id="xtick_33">
     <g id="line2d_139">
      <g>
       <use style="stroke:#000000;stroke-width:0.5;" x="172.39543749999999" xlink:href="#m30888564b7" y="833.5400000000001"/>
      </g>
     </g>
     <g id="line2d_140">
      <g>
       <use style="stroke:#000000;stroke-width:0.5;" x="172.39543749999999" xlink:href="#m54c6431b98" y="649.8900000000001"/>
      </g>
     </g>
     <g id="text_69">
      <!-- 2 -->
      <g transform="translate(168.5779375 846.658125)scale(0.12 -0.12)">
       <use xlink:href="#BitstreamVeraSans-Roman-32"/>
      </g>
     </g>
    </g>
    <g id="xtick_34">
     <g id="line2d_141">
      <g>
       <use style="stroke:#000000;stroke-width:0.5;" x="242.46767187499998" xlink:href="#m30888564b7" y="833.5400000000001"/>
      </g>
     </g>
     <g id="line2d_142">
      <g>
       <use style="stroke:#000000;stroke-width:0.5;" x="242.46767187499998" xlink:href="#m54c6431b98" y="649.8900000000001"/>
      </g>
     </g>
     <g id="text_70">
      <!-- 3 -->
      <g transform="translate(238.65017187499998 846.658125)scale(0.12 -0.12)">
       <use xlink:href="#BitstreamVeraSans-Roman-33"/>
      </g>
     </g>
    </g>
    <g id="xtick_35">
     <g id="line2d_143">
      <g>
       <use style="stroke:#000000;stroke-width:0.5;" x="312.53990624999994" xlink:href="#m30888564b7" y="833.5400000000001"/>
      </g>
     </g>
     <g id="line2d_144">
      <g>
       <use style="stroke:#000000;stroke-width:0.5;" x="312.53990624999994" xlink:href="#m54c6431b98" y="649.8900000000001"/>
      </g>
     </g>
     <g id="text_71">
      <!-- 4 -->
      <g transform="translate(308.72240624999995 846.658125)scale(0.12 -0.12)">
       <use xlink:href="#BitstreamVeraSans-Roman-34"/>
      </g>
     </g>
    </g>
   </g>
   <g id="matplotlib.axis_14">
    <g id="ytick_19">
     <g id="line2d_145">
      <g>
       <use style="stroke:#000000;stroke-width:0.5;" x="32.25096875" xlink:href="#m9a7562d73e" y="833.5400000000001"/>
      </g>
     </g>
     <g id="line2d_146">
      <g>
       <use style="stroke:#000000;stroke-width:0.5;" x="312.53990624999994" xlink:href="#m9f78122fdd" y="833.5400000000001"/>
      </g>
     </g>
     <g id="text_72">
      <!-- 0.0 -->
      <g transform="translate(9.16721875 836.85125)scale(0.12 -0.12)">
       <use xlink:href="#BitstreamVeraSans-Roman-30"/>
       <use x="63.623046875" xlink:href="#BitstreamVeraSans-Roman-2e"/>
       <use x="95.41015625" xlink:href="#BitstreamVeraSans-Roman-30"/>
      </g>
     </g>
    </g>
    <g id="ytick_20">
     <g id="line2d_147">
      <g>
       <use style="stroke:#000000;stroke-width:0.5;" x="32.25096875" xlink:href="#m9a7562d73e" y="750.0627272727273"/>
      </g>
     </g>
     <g id="line2d_148">
      <g>
       <use style="stroke:#000000;stroke-width:0.5;" x="312.53990624999994" xlink:href="#m9f78122fdd" y="750.0627272727273"/>
      </g>
     </g>
     <g id="text_73">
      <!-- 0.5 -->
      <g transform="translate(9.16721875 753.3739772727273)scale(0.12 -0.12)">
       <use xlink:href="#BitstreamVeraSans-Roman-30"/>
       <use x="63.623046875" xlink:href="#BitstreamVeraSans-Roman-2e"/>
       <use x="95.41015625" xlink:href="#BitstreamVeraSans-Roman-35"/>
      </g>
     </g>
    </g>
    <g id="ytick_21">
     <g id="line2d_149">
      <g>
       <use style="stroke:#000000;stroke-width:0.5;" x="32.25096875" xlink:href="#m9a7562d73e" y="666.5854545454546"/>
      </g>
     </g>
     <g id="line2d_150">
      <g>
       <use style="stroke:#000000;stroke-width:0.5;" x="312.53990624999994" xlink:href="#m9f78122fdd" y="666.5854545454546"/>
      </g>
     </g>
     <g id="text_74">
      <!-- 1.0 -->
      <g transform="translate(9.16721875 669.8967045454546)scale(0.12 -0.12)">
       <use xlink:href="#BitstreamVeraSans-Roman-31"/>
       <use x="63.623046875" xlink:href="#BitstreamVeraSans-Roman-2e"/>
       <use x="95.41015625" xlink:href="#BitstreamVeraSans-Roman-30"/>
      </g>
     </g>
    </g>
   </g>
   <g id="text_75">
    <!-- 1.45 meV -->
    <g transform="translate(172.39543749999999 800.1490909090909)scale(0.08 -0.08)">
     <use xlink:href="#BitstreamVeraSans-Roman-31"/>
     <use x="63.623046875" xlink:href="#BitstreamVeraSans-Roman-2e"/>
     <use x="95.41015625" xlink:href="#BitstreamVeraSans-Roman-34"/>
     <use x="159.033203125" xlink:href="#BitstreamVeraSans-Roman-35"/>
     <use x="222.65625" xlink:href="#BitstreamVeraSans-Roman-20"/>
     <use x="254.443359375" xlink:href="#BitstreamVeraSans-Roman-6d"/>
     <use x="351.85546875" xlink:href="#BitstreamVeraSans-Roman-65"/>
     <use x="413.37890625" xlink:href="#BitstreamVeraSans-Roman-56"/>
    </g>
   </g>
   <g id="legend_7">
    <g id="line2d_151">
     <path d="M 41.850969 660.36875 
L 53.050969 660.36875 
" style="fill:none;stroke:#0000ff;stroke-linecap:square;stroke-width:2.0;"/>
    </g>
    <g id="line2d_152"/>
    <g id="text_76">
     <!-- P300 -->
     <g transform="translate(61.85096875 663.16875)scale(0.08 -0.08)">
      <use xlink:href="#BitstreamVeraSans-Roman-50"/>
      <use x="60.302734375" xlink:href="#BitstreamVeraSans-Roman-33"/>
      <use x="123.92578125" xlink:href="#BitstreamVeraSans-Roman-30"/>
      <use x="187.548828125" xlink:href="#BitstreamVeraSans-Roman-30"/>
     </g>
    </g>
    <g id="line2d_153">
     <path d="M 41.850969 672.11125 
L 53.050969 672.11125 
" style="fill:none;stroke:#008000;stroke-linecap:square;stroke-width:2.0;"/>
    </g>
    <g id="line2d_154"/>
    <g id="text_77">
     <!-- N300 -->
     <g transform="translate(61.85096875 674.91125)scale(0.08 -0.08)">
      <use xlink:href="#BitstreamVeraSans-Roman-4e"/>
      <use x="74.8046875" xlink:href="#BitstreamVeraSans-Roman-33"/>
      <use x="138.427734375" xlink:href="#BitstreamVeraSans-Roman-30"/>
      <use x="202.05078125" xlink:href="#BitstreamVeraSans-Roman-30"/>
     </g>
    </g>
   </g>
  </g>
  <g id="axes_8">
   <g id="patch_37">
    <path d="M 348.209469 833.54 
L 628.498406 833.54 
L 628.498406 649.89 
L 348.209469 649.89 
z
" style="fill:#ffffff;"/>
   </g>
   <g id="line2d_155">
    <path clip-path="url(#p1a4ca8bfcd)" d="M 348.209469 833.54 
L 355.396365 828.689807 
L 362.58326 815.171655 
L 369.770156 795.675431 
L 376.957052 773.564637 
L 384.143948 751.85245 
L 391.330844 732.573216 
L 398.51774 716.665991 
L 405.704635 704.217453 
L 412.891531 694.814784 
L 420.078427 687.854565 
L 427.265323 682.73536 
L 434.452219 678.949936 
L 441.639115 676.10952 
L 448.82601 673.935878 
L 456.012906 672.239225 
L 463.199802 670.895243 
L 470.386698 669.824052 
L 477.573594 668.973656 
L 484.76049 668.30753 
L 491.947385 667.796628 
L 499.134281 667.415037 
L 506.321177 667.138426 
L 513.508073 666.944135 
L 520.694969 666.811948 
L 527.881865 666.724788 
L 535.06876 666.669033 
L 542.255656 666.634385 
L 549.442552 666.613438 
L 556.629448 666.601102 
L 563.816344 666.594016 
L 571.00324 666.590041 
L 578.190135 666.587861 
L 585.377031 666.586693 
L 592.563927 666.586079 
L 599.750823 666.585764 
L 606.937719 666.585605 
L 614.124615 666.585526 
L 621.31151 666.585488 
L 628.498406 666.58547 
" style="fill:none;stroke:#0000ff;stroke-linecap:square;stroke-width:2.0;"/>
   </g>
   <g id="line2d_156">
    <path clip-path="url(#p1a4ca8bfcd)" d="M 348.209469 833.54 
L 355.396365 828.802635 
L 362.58326 815.667953 
L 369.770156 796.979525 
L 376.957052 776.377881 
L 384.143948 757.200912 
L 391.330844 741.705111 
L 398.51774 730.797285 
L 405.704635 724.22965 
L 412.891531 721.024756 
L 420.078427 719.930795 
L 427.265323 719.755565 
L 434.452219 719.558299 
L 441.639115 718.711651 
L 448.82601 716.887808 
L 456.012906 714.005235 
L 463.199802 710.164733 
L 470.386698 705.587474 
L 477.573594 700.559624 
L 484.76049 695.383717 
L 491.947385 690.339664 
L 499.134281 685.65563 
L 506.321177 681.491609 
L 513.508073 677.935266 
L 520.694969 675.008756 
L 527.881865 672.682637 
L 535.06876 670.892878 
L 542.255656 669.557312 
L 549.442552 668.589094 
L 556.629448 667.906227 
L 563.816344 667.437101 
L 571.00324 667.122847 
L 578.190135 666.91741 
L 585.377031 666.78625 
L 592.563927 666.704423 
L 599.750823 666.654512 
L 606.937719 666.624736 
L 614.124615 666.607354 
L 621.31151 666.597423 
L 628.498406 666.591868 
" style="fill:none;stroke:#008000;stroke-linecap:square;stroke-width:2.0;"/>
   </g>
   <g id="patch_38">
    <path d="M 348.209469 649.89 
L 628.498406 649.89 
" style="fill:none;stroke:#000000;stroke-linecap:square;stroke-linejoin:miter;"/>
   </g>
   <g id="patch_39">
    <path d="M 628.498406 833.54 
L 628.498406 649.89 
" style="fill:none;stroke:#000000;stroke-linecap:square;stroke-linejoin:miter;"/>
   </g>
   <g id="patch_40">
    <path d="M 348.209469 833.54 
L 628.498406 833.54 
" style="fill:none;stroke:#000000;stroke-linecap:square;stroke-linejoin:miter;"/>
   </g>
   <g id="patch_41">
    <path d="M 348.209469 833.54 
L 348.209469 649.89 
" style="fill:none;stroke:#000000;stroke-linecap:square;stroke-linejoin:miter;"/>
   </g>
   <g id="matplotlib.axis_15">
    <g id="xtick_36">
     <g id="line2d_157">
      <g>
       <use style="stroke:#000000;stroke-width:0.5;" x="348.20946875000004" xlink:href="#m30888564b7" y="833.5400000000001"/>
      </g>
     </g>
     <g id="line2d_158">
      <g>
       <use style="stroke:#000000;stroke-width:0.5;" x="348.20946875000004" xlink:href="#m54c6431b98" y="649.8900000000001"/>
      </g>
     </g>
     <g id="text_78">
      <!-- 0 -->
      <g transform="translate(344.39196875000005 846.658125)scale(0.12 -0.12)">
       <use xlink:href="#BitstreamVeraSans-Roman-30"/>
      </g>
     </g>
    </g>
    <g id="xtick_37">
     <g id="line2d_159">
      <g>
       <use style="stroke:#000000;stroke-width:0.5;" x="418.28170312500004" xlink:href="#m30888564b7" y="833.5400000000001"/>
      </g>
     </g>
     <g id="line2d_160">
      <g>
       <use style="stroke:#000000;stroke-width:0.5;" x="418.28170312500004" xlink:href="#m54c6431b98" y="649.8900000000001"/>
      </g>
     </g>
     <g id="text_79">
      <!-- 1 -->
      <g transform="translate(414.46420312500004 846.658125)scale(0.12 -0.12)">
       <use xlink:href="#BitstreamVeraSans-Roman-31"/>
      </g>
     </g>
    </g>
    <g id="xtick_38">
     <g id="line2d_161">
      <g>
       <use style="stroke:#000000;stroke-width:0.5;" x="488.3539375" xlink:href="#m30888564b7" y="833.5400000000001"/>
      </g>
     </g>
     <g id="line2d_162">
      <g>
       <use style="stroke:#000000;stroke-width:0.5;" x="488.3539375" xlink:href="#m54c6431b98" y="649.8900000000001"/>
      </g>
     </g>
     <g id="text_80">
      <!-- 2 -->
      <g transform="translate(484.5364375 846.658125)scale(0.12 -0.12)">
       <use xlink:href="#BitstreamVeraSans-Roman-32"/>
      </g>
     </g>
    </g>
    <g id="xtick_39">
     <g id="line2d_163">
      <g>
       <use style="stroke:#000000;stroke-width:0.5;" x="558.4261718749999" xlink:href="#m30888564b7" y="833.5400000000001"/>
      </g>
     </g>
     <g id="line2d_164">
      <g>
       <use style="stroke:#000000;stroke-width:0.5;" x="558.4261718749999" xlink:href="#m54c6431b98" y="649.8900000000001"/>
      </g>
     </g>
     <g id="text_81">
      <!-- 3 -->
      <g transform="translate(554.6086718749999 846.658125)scale(0.12 -0.12)">
       <use xlink:href="#BitstreamVeraSans-Roman-33"/>
      </g>
     </g>
    </g>
    <g id="xtick_40">
     <g id="line2d_165">
      <g>
       <use style="stroke:#000000;stroke-width:0.5;" x="628.4984062499999" xlink:href="#m30888564b7" y="833.5400000000001"/>
      </g>
     </g>
     <g id="line2d_166">
      <g>
       <use style="stroke:#000000;stroke-width:0.5;" x="628.4984062499999" xlink:href="#m54c6431b98" y="649.8900000000001"/>
      </g>
     </g>
     <g id="text_82">
      <!-- 4 -->
      <g transform="translate(624.6809062499999 846.658125)scale(0.12 -0.12)">
       <use xlink:href="#BitstreamVeraSans-Roman-34"/>
      </g>
     </g>
    </g>
   </g>
   <g id="matplotlib.axis_16">
    <g id="ytick_22">
     <g id="line2d_167">
      <g>
       <use style="stroke:#000000;stroke-width:0.5;" x="348.20946875000004" xlink:href="#m9a7562d73e" y="833.5400000000001"/>
      </g>
     </g>
     <g id="line2d_168">
      <g>
       <use style="stroke:#000000;stroke-width:0.5;" x="628.4984062499999" xlink:href="#m9f78122fdd" y="833.5400000000001"/>
      </g>
     </g>
     <g id="text_83">
      <!-- 0.0 -->
      <g transform="translate(325.12571875000003 836.85125)scale(0.12 -0.12)">
       <use xlink:href="#BitstreamVeraSans-Roman-30"/>
       <use x="63.623046875" xlink:href="#BitstreamVeraSans-Roman-2e"/>
       <use x="95.41015625" xlink:href="#BitstreamVeraSans-Roman-30"/>
      </g>
     </g>
    </g>
    <g id="ytick_23">
     <g id="line2d_169">
      <g>
       <use style="stroke:#000000;stroke-width:0.5;" x="348.20946875000004" xlink:href="#m9a7562d73e" y="750.0627272727273"/>
      </g>
     </g>
     <g id="line2d_170">
      <g>
       <use style="stroke:#000000;stroke-width:0.5;" x="628.4984062499999" xlink:href="#m9f78122fdd" y="750.0627272727273"/>
      </g>
     </g>
     <g id="text_84">
      <!-- 0.5 -->
      <g transform="translate(325.12571875000003 753.3739772727273)scale(0.12 -0.12)">
       <use xlink:href="#BitstreamVeraSans-Roman-30"/>
       <use x="63.623046875" xlink:href="#BitstreamVeraSans-Roman-2e"/>
       <use x="95.41015625" xlink:href="#BitstreamVeraSans-Roman-35"/>
      </g>
     </g>
    </g>
    <g id="ytick_24">
     <g id="line2d_171">
      <g>
       <use style="stroke:#000000;stroke-width:0.5;" x="348.20946875000004" xlink:href="#m9a7562d73e" y="666.5854545454546"/>
      </g>
     </g>
     <g id="line2d_172">
      <g>
       <use style="stroke:#000000;stroke-width:0.5;" x="628.4984062499999" xlink:href="#m9f78122fdd" y="666.5854545454546"/>
      </g>
     </g>
     <g id="text_85">
      <!-- 1.0 -->
      <g transform="translate(325.12571875000003 669.8967045454546)scale(0.12 -0.12)">
       <use xlink:href="#BitstreamVeraSans-Roman-31"/>
       <use x="63.623046875" xlink:href="#BitstreamVeraSans-Roman-2e"/>
       <use x="95.41015625" xlink:href="#BitstreamVeraSans-Roman-30"/>
      </g>
     </g>
    </g>
   </g>
   <g id="text_86">
    <!-- 1.6 meV -->
    <g transform="translate(488.3539375 800.1490909090909)scale(0.08 -0.08)">
     <use xlink:href="#BitstreamVeraSans-Roman-31"/>
     <use x="63.623046875" xlink:href="#BitstreamVeraSans-Roman-2e"/>
     <use x="95.41015625" xlink:href="#BitstreamVeraSans-Roman-36"/>
     <use x="159.033203125" xlink:href="#BitstreamVeraSans-Roman-20"/>
     <use x="190.8203125" xlink:href="#BitstreamVeraSans-Roman-6d"/>
     <use x="288.232421875" xlink:href="#BitstreamVeraSans-Roman-65"/>
     <use x="349.755859375" xlink:href="#BitstreamVeraSans-Roman-56"/>
    </g>
   </g>
   <g id="legend_8">
    <g id="line2d_173">
     <path d="M 357.809469 660.36875 
L 369.009469 660.36875 
" style="fill:none;stroke:#0000ff;stroke-linecap:square;stroke-width:2.0;"/>
    </g>
    <g id="line2d_174"/>
    <g id="text_87">
     <!-- P300 -->
     <g transform="translate(377.80946875 663.16875)scale(0.08 -0.08)">
      <use xlink:href="#BitstreamVeraSans-Roman-50"/>
      <use x="60.302734375" xlink:href="#BitstreamVeraSans-Roman-33"/>
      <use x="123.92578125" xlink:href="#BitstreamVeraSans-Roman-30"/>
      <use x="187.548828125" xlink:href="#BitstreamVeraSans-Roman-30"/>
     </g>
    </g>
    <g id="line2d_175">
     <path d="M 357.809469 672.11125 
L 369.009469 672.11125 
" style="fill:none;stroke:#008000;stroke-linecap:square;stroke-width:2.0;"/>
    </g>
    <g id="line2d_176"/>
    <g id="text_88">
     <!-- N300 -->
     <g transform="translate(377.80946875 674.91125)scale(0.08 -0.08)">
      <use xlink:href="#BitstreamVeraSans-Roman-4e"/>
      <use x="74.8046875" xlink:href="#BitstreamVeraSans-Roman-33"/>
      <use x="138.427734375" xlink:href="#BitstreamVeraSans-Roman-30"/>
      <use x="202.05078125" xlink:href="#BitstreamVeraSans-Roman-30"/>
     </g>
    </g>
   </g>
  </g>
 </g>
 <defs>
  <clipPath id="p942dada650">
   <rect height="183.64999999999986" width="280.2889375" x="32.25096875" y="12.960000000000036"/>
  </clipPath>
  <clipPath id="p630e94ab26">
   <rect height="183.65000000000003" width="280.2889375" x="32.25096875" y="437.58"/>
  </clipPath>
  <clipPath id="pa8f2a27f03">
   <rect height="183.64999999999992" width="280.28893749999986" x="348.20946875000004" y="225.26999999999998"/>
  </clipPath>
  <clipPath id="pc9b6f5be73">
   <rect height="183.65000000000003" width="280.28893749999986" x="348.20946875000004" y="437.58"/>
  </clipPath>
  <clipPath id="p39545d6857">
   <rect height="183.65" width="280.2889375" x="32.25096875" y="649.89"/>
  </clipPath>
  <clipPath id="p1a4ca8bfcd">
   <rect height="183.65" width="280.28893749999986" x="348.20946875000004" y="649.89"/>
  </clipPath>
  <clipPath id="p530758ce4a">
   <rect height="183.64999999999992" width="280.2889375" x="32.25096875" y="225.26999999999998"/>
  </clipPath>
  <clipPath id="p22b1375e69">
   <rect height="183.64999999999986" width="280.28893749999986" x="348.20946875000004" y="12.960000000000036"/>
  </clipPath>
 </defs>
</svg>
