<?xml version="1.0" encoding="utf-8" standalone="no"?>
<!DOCTYPE svg PUBLIC "-//W3C//DTD SVG 1.1//EN"
  "http://www.w3.org/Graphics/SVG/1.1/DTD/svg11.dtd">
<!-- Created with matplotlib (http://matplotlib.org/) -->
<svg height="862pt" version="1.1" viewBox="0 0 604 862" width="604pt" xmlns="http://www.w3.org/2000/svg" xmlns:xlink="http://www.w3.org/1999/xlink">
 <defs>
  <style type="text/css">
*{stroke-linecap:butt;stroke-linejoin:round;stroke-miterlimit:100000;}
  </style>
 </defs>
 <g id="figure_1">
  <g id="patch_1">
   <path d="M 0 862.2 
L 604.8 862.2 
L 604.8 0 
L 0 0 
z
" style="fill:#ffffff;"/>
  </g>
  <g id="axes_1">
   <g id="patch_2">
    <path d="M 30.3114 196.61 
L 293.7438 196.61 
L 293.7438 12.96 
L 30.3114 12.96 
z
" style="fill:#ffffff;"/>
   </g>
   <g id="line2d_1">
    <path clip-path="url(#pfe681e2a59)" d="M 30.3114 196.61 
L 37.066077 192.323837 
L 43.820754 180.132877 
L 50.575431 161.817677 
L 57.330108 139.827843 
L 64.084785 116.80626 
L 70.839462 95.065334 
L 77.594138 76.2001 
L 84.348815 61.0141 
L 91.103492 49.633112 
L 97.858169 41.682475 
L 104.612846 36.494557 
L 111.367523 33.326539 
L 118.1222 31.513555 
L 124.876877 30.540845 
L 131.631554 30.051977 
L 138.386231 29.821984 
L 145.140908 29.720935 
L 151.895585 29.67948 
L 158.650262 29.663668 
L 165.404938 29.658061 
L 172.159615 29.656219 
L 178.914292 29.655661 
L 185.668969 29.655506 
L 192.423646 29.655466 
L 199.178323 29.655457 
L 205.933 29.655455 
L 212.687677 29.655455 
L 219.442354 29.655455 
L 226.197031 29.655455 
L 232.951708 29.655455 
L 239.706385 29.655455 
L 246.461062 29.655455 
L 253.215738 29.655455 
L 259.970415 29.655455 
L 266.725092 29.655455 
L 273.479769 29.655455 
L 280.234446 29.655455 
L 286.989123 29.655455 
L 293.7438 29.655455 
" style="fill:none;stroke:#0000ff;stroke-linecap:square;stroke-width:2.0;"/>
   </g>
   <g id="line2d_2">
    <path clip-path="url(#pfe681e2a59)" d="M 30.3114 196.61 
L 37.066077 192.342195 
L 43.820754 180.215189 
L 50.575431 161.992707 
L 57.330108 140.084708 
L 64.084785 117.142541 
L 70.839462 95.49303 
L 77.594138 76.678366 
L 84.348815 61.441452 
L 91.103492 49.929264 
L 97.858169 41.842654 
L 104.612846 36.562648 
L 111.367523 33.349781 
L 118.1222 31.519935 
L 124.876877 30.542299 
L 131.631554 30.052213 
L 138.386231 29.822017 
L 145.140908 29.720926 
L 151.895585 29.679479 
L 158.650262 29.663665 
L 165.404938 29.65806 
L 172.159615 29.65622 
L 178.914292 29.655661 
L 185.668969 29.655506 
L 192.423646 29.655466 
L 199.178323 29.655457 
L 205.933 29.655455 
L 212.687677 29.655455 
L 219.442354 29.655455 
L 226.197031 29.655455 
L 232.951708 29.655455 
L 239.706385 29.655455 
L 246.461062 29.655455 
L 253.215738 29.655455 
L 259.970415 29.655455 
L 266.725092 29.655455 
L 273.479769 29.655455 
L 280.234446 29.655455 
L 286.989123 29.655455 
L 293.7438 29.655455 
" style="fill:none;stroke:#008000;stroke-linecap:square;stroke-width:2.0;"/>
   </g>
   <g id="patch_3">
    <path d="M 30.3114 12.96 
L 293.7438 12.96 
" style="fill:none;stroke:#000000;stroke-linecap:square;stroke-linejoin:miter;"/>
   </g>
   <g id="patch_4">
    <path d="M 293.7438 196.61 
L 293.7438 12.96 
" style="fill:none;stroke:#000000;stroke-linecap:square;stroke-linejoin:miter;"/>
   </g>
   <g id="patch_5">
    <path d="M 30.3114 196.61 
L 293.7438 196.61 
" style="fill:none;stroke:#000000;stroke-linecap:square;stroke-linejoin:miter;"/>
   </g>
   <g id="patch_6">
    <path d="M 30.3114 196.61 
L 30.3114 12.96 
" style="fill:none;stroke:#000000;stroke-linecap:square;stroke-linejoin:miter;"/>
   </g>
   <g id="matplotlib.axis_1">
    <g id="xtick_1">
     <g id="line2d_3">
      <defs>
       <path d="M 0 0 
L 0 -4 
" id="mc21a41308e" style="stroke:#000000;stroke-width:0.5;"/>
      </defs>
      <g>
       <use style="stroke:#000000;stroke-width:0.5;" x="30.311400000000003" xlink:href="#mc21a41308e" y="196.6099999999999"/>
      </g>
     </g>
     <g id="line2d_4">
      <defs>
       <path d="M 0 0 
L 0 4 
" id="m65a0c4c9a8" style="stroke:#000000;stroke-width:0.5;"/>
      </defs>
      <g>
       <use style="stroke:#000000;stroke-width:0.5;" x="30.311400000000003" xlink:href="#m65a0c4c9a8" y="12.960000000000036"/>
      </g>
     </g>
     <g id="text_1">
      <!-- 0 -->
      <defs>
       <path d="M 31.78125 66.40625 
Q 24.171875 66.40625 20.328125 58.90625 
Q 16.5 51.421875 16.5 36.375 
Q 16.5 21.390625 20.328125 13.890625 
Q 24.171875 6.390625 31.78125 6.390625 
Q 39.453125 6.390625 43.28125 13.890625 
Q 47.125 21.390625 47.125 36.375 
Q 47.125 51.421875 43.28125 58.90625 
Q 39.453125 66.40625 31.78125 66.40625 
M 31.78125 74.21875 
Q 44.046875 74.21875 50.515625 64.515625 
Q 56.984375 54.828125 56.984375 36.375 
Q 56.984375 17.96875 50.515625 8.265625 
Q 44.046875 -1.421875 31.78125 -1.421875 
Q 19.53125 -1.421875 13.0625 8.265625 
Q 6.59375 17.96875 6.59375 36.375 
Q 6.59375 54.828125 13.0625 64.515625 
Q 19.53125 74.21875 31.78125 74.21875 
" id="BitstreamVeraSans-Roman-30"/>
      </defs>
      <g transform="translate(26.493900000000004 209.72812499999986)scale(0.12 -0.12)">
       <use xlink:href="#BitstreamVeraSans-Roman-30"/>
      </g>
     </g>
    </g>
    <g id="xtick_2">
     <g id="line2d_5">
      <g>
       <use style="stroke:#000000;stroke-width:0.5;" x="96.16950000000001" xlink:href="#mc21a41308e" y="196.6099999999999"/>
      </g>
     </g>
     <g id="line2d_6">
      <g>
       <use style="stroke:#000000;stroke-width:0.5;" x="96.16950000000001" xlink:href="#m65a0c4c9a8" y="12.960000000000036"/>
      </g>
     </g>
     <g id="text_2">
      <!-- 1 -->
      <defs>
       <path d="M 12.40625 8.296875 
L 28.515625 8.296875 
L 28.515625 63.921875 
L 10.984375 60.40625 
L 10.984375 69.390625 
L 28.421875 72.90625 
L 38.28125 72.90625 
L 38.28125 8.296875 
L 54.390625 8.296875 
L 54.390625 0 
L 12.40625 0 
z
" id="BitstreamVeraSans-Roman-31"/>
      </defs>
      <g transform="translate(92.35200000000002 209.72812499999986)scale(0.12 -0.12)">
       <use xlink:href="#BitstreamVeraSans-Roman-31"/>
      </g>
     </g>
    </g>
    <g id="xtick_3">
     <g id="line2d_7">
      <g>
       <use style="stroke:#000000;stroke-width:0.5;" x="162.0276" xlink:href="#mc21a41308e" y="196.6099999999999"/>
      </g>
     </g>
     <g id="line2d_8">
      <g>
       <use style="stroke:#000000;stroke-width:0.5;" x="162.0276" xlink:href="#m65a0c4c9a8" y="12.960000000000036"/>
      </g>
     </g>
     <g id="text_3">
      <!-- 2 -->
      <defs>
       <path d="M 19.1875 8.296875 
L 53.609375 8.296875 
L 53.609375 0 
L 7.328125 0 
L 7.328125 8.296875 
Q 12.9375 14.109375 22.625 23.890625 
Q 32.328125 33.6875 34.8125 36.53125 
Q 39.546875 41.84375 41.421875 45.53125 
Q 43.3125 49.21875 43.3125 52.78125 
Q 43.3125 58.59375 39.234375 62.25 
Q 35.15625 65.921875 28.609375 65.921875 
Q 23.96875 65.921875 18.8125 64.3125 
Q 13.671875 62.703125 7.8125 59.421875 
L 7.8125 69.390625 
Q 13.765625 71.78125 18.9375 73 
Q 24.125 74.21875 28.421875 74.21875 
Q 39.75 74.21875 46.484375 68.546875 
Q 53.21875 62.890625 53.21875 53.421875 
Q 53.21875 48.921875 51.53125 44.890625 
Q 49.859375 40.875 45.40625 35.40625 
Q 44.1875 33.984375 37.640625 27.21875 
Q 31.109375 20.453125 19.1875 8.296875 
" id="BitstreamVeraSans-Roman-32"/>
      </defs>
      <g transform="translate(158.2101 209.72812499999986)scale(0.12 -0.12)">
       <use xlink:href="#BitstreamVeraSans-Roman-32"/>
      </g>
     </g>
    </g>
    <g id="xtick_4">
     <g id="line2d_9">
      <g>
       <use style="stroke:#000000;stroke-width:0.5;" x="227.8857" xlink:href="#mc21a41308e" y="196.6099999999999"/>
      </g>
     </g>
     <g id="line2d_10">
      <g>
       <use style="stroke:#000000;stroke-width:0.5;" x="227.8857" xlink:href="#m65a0c4c9a8" y="12.960000000000036"/>
      </g>
     </g>
     <g id="text_4">
      <!-- 3 -->
      <defs>
       <path d="M 40.578125 39.3125 
Q 47.65625 37.796875 51.625 33 
Q 55.609375 28.21875 55.609375 21.1875 
Q 55.609375 10.40625 48.1875 4.484375 
Q 40.765625 -1.421875 27.09375 -1.421875 
Q 22.515625 -1.421875 17.65625 -0.515625 
Q 12.796875 0.390625 7.625 2.203125 
L 7.625 11.71875 
Q 11.71875 9.328125 16.59375 8.109375 
Q 21.484375 6.890625 26.8125 6.890625 
Q 36.078125 6.890625 40.9375 10.546875 
Q 45.796875 14.203125 45.796875 21.1875 
Q 45.796875 27.640625 41.28125 31.265625 
Q 36.765625 34.90625 28.71875 34.90625 
L 20.21875 34.90625 
L 20.21875 43.015625 
L 29.109375 43.015625 
Q 36.375 43.015625 40.234375 45.921875 
Q 44.09375 48.828125 44.09375 54.296875 
Q 44.09375 59.90625 40.109375 62.90625 
Q 36.140625 65.921875 28.71875 65.921875 
Q 24.65625 65.921875 20.015625 65.03125 
Q 15.375 64.15625 9.8125 62.3125 
L 9.8125 71.09375 
Q 15.4375 72.65625 20.34375 73.4375 
Q 25.25 74.21875 29.59375 74.21875 
Q 40.828125 74.21875 47.359375 69.109375 
Q 53.90625 64.015625 53.90625 55.328125 
Q 53.90625 49.265625 50.4375 45.09375 
Q 46.96875 40.921875 40.578125 39.3125 
" id="BitstreamVeraSans-Roman-33"/>
      </defs>
      <g transform="translate(224.06820000000002 209.72812499999986)scale(0.12 -0.12)">
       <use xlink:href="#BitstreamVeraSans-Roman-33"/>
      </g>
     </g>
    </g>
    <g id="xtick_5">
     <g id="line2d_11">
      <g>
       <use style="stroke:#000000;stroke-width:0.5;" x="293.7438" xlink:href="#mc21a41308e" y="196.6099999999999"/>
      </g>
     </g>
     <g id="line2d_12">
      <g>
       <use style="stroke:#000000;stroke-width:0.5;" x="293.7438" xlink:href="#m65a0c4c9a8" y="12.960000000000036"/>
      </g>
     </g>
     <g id="text_5">
      <!-- 4 -->
      <defs>
       <path d="M 37.796875 64.3125 
L 12.890625 25.390625 
L 37.796875 25.390625 
z
M 35.203125 72.90625 
L 47.609375 72.90625 
L 47.609375 25.390625 
L 58.015625 25.390625 
L 58.015625 17.1875 
L 47.609375 17.1875 
L 47.609375 0 
L 37.796875 0 
L 37.796875 17.1875 
L 4.890625 17.1875 
L 4.890625 26.703125 
z
" id="BitstreamVeraSans-Roman-34"/>
      </defs>
      <g transform="translate(289.9263 209.72812499999986)scale(0.12 -0.12)">
       <use xlink:href="#BitstreamVeraSans-Roman-34"/>
      </g>
     </g>
    </g>
   </g>
   <g id="matplotlib.axis_2">
    <g id="ytick_1">
     <g id="line2d_13">
      <defs>
       <path d="M 0 0 
L 4 0 
" id="m73974ca3c6" style="stroke:#000000;stroke-width:0.5;"/>
      </defs>
      <g>
       <use style="stroke:#000000;stroke-width:0.5;" x="30.311400000000003" xlink:href="#m73974ca3c6" y="196.6099999999999"/>
      </g>
     </g>
     <g id="line2d_14">
      <defs>
       <path d="M 0 0 
L -4 0 
" id="m4492c7ac21" style="stroke:#000000;stroke-width:0.5;"/>
      </defs>
      <g>
       <use style="stroke:#000000;stroke-width:0.5;" x="293.7438" xlink:href="#m4492c7ac21" y="196.6099999999999"/>
      </g>
     </g>
     <g id="text_6">
      <!-- 0.0 -->
      <defs>
       <path d="M 10.6875 12.40625 
L 21 12.40625 
L 21 0 
L 10.6875 0 
z
" id="BitstreamVeraSans-Roman-2e"/>
      </defs>
      <g transform="translate(7.227650000000004 199.92124999999987)scale(0.12 -0.12)">
       <use xlink:href="#BitstreamVeraSans-Roman-30"/>
       <use x="63.623046875" xlink:href="#BitstreamVeraSans-Roman-2e"/>
       <use x="95.41015625" xlink:href="#BitstreamVeraSans-Roman-30"/>
      </g>
     </g>
    </g>
    <g id="ytick_2">
     <g id="line2d_15">
      <g>
       <use style="stroke:#000000;stroke-width:0.5;" x="30.311400000000003" xlink:href="#m73974ca3c6" y="113.13272727272724"/>
      </g>
     </g>
     <g id="line2d_16">
      <g>
       <use style="stroke:#000000;stroke-width:0.5;" x="293.7438" xlink:href="#m4492c7ac21" y="113.13272727272724"/>
      </g>
     </g>
     <g id="text_7">
      <!-- 0.5 -->
      <defs>
       <path d="M 10.796875 72.90625 
L 49.515625 72.90625 
L 49.515625 64.59375 
L 19.828125 64.59375 
L 19.828125 46.734375 
Q 21.96875 47.46875 24.109375 47.828125 
Q 26.265625 48.1875 28.421875 48.1875 
Q 40.625 48.1875 47.75 41.5 
Q 54.890625 34.8125 54.890625 23.390625 
Q 54.890625 11.625 47.5625 5.09375 
Q 40.234375 -1.421875 26.90625 -1.421875 
Q 22.3125 -1.421875 17.546875 -0.640625 
Q 12.796875 0.140625 7.71875 1.703125 
L 7.71875 11.625 
Q 12.109375 9.234375 16.796875 8.0625 
Q 21.484375 6.890625 26.703125 6.890625 
Q 35.15625 6.890625 40.078125 11.328125 
Q 45.015625 15.765625 45.015625 23.390625 
Q 45.015625 31 40.078125 35.4375 
Q 35.15625 39.890625 26.703125 39.890625 
Q 22.75 39.890625 18.8125 39.015625 
Q 14.890625 38.140625 10.796875 36.28125 
z
" id="BitstreamVeraSans-Roman-35"/>
      </defs>
      <g transform="translate(7.227650000000004 116.44397727272724)scale(0.12 -0.12)">
       <use xlink:href="#BitstreamVeraSans-Roman-30"/>
       <use x="63.623046875" xlink:href="#BitstreamVeraSans-Roman-2e"/>
       <use x="95.41015625" xlink:href="#BitstreamVeraSans-Roman-35"/>
      </g>
     </g>
    </g>
    <g id="ytick_3">
     <g id="line2d_17">
      <g>
       <use style="stroke:#000000;stroke-width:0.5;" x="30.311400000000003" xlink:href="#m73974ca3c6" y="29.655454545454575"/>
      </g>
     </g>
     <g id="line2d_18">
      <g>
       <use style="stroke:#000000;stroke-width:0.5;" x="293.7438" xlink:href="#m4492c7ac21" y="29.655454545454575"/>
      </g>
     </g>
     <g id="text_8">
      <!-- 1.0 -->
      <g transform="translate(7.227650000000004 32.96670454545449)scale(0.12 -0.12)">
       <use xlink:href="#BitstreamVeraSans-Roman-31"/>
       <use x="63.623046875" xlink:href="#BitstreamVeraSans-Roman-2e"/>
       <use x="95.41015625" xlink:href="#BitstreamVeraSans-Roman-30"/>
      </g>
     </g>
    </g>
   </g>
   <g id="text_9">
    <!-- 0.56 meV -->
    <defs>
     <path d="M 56.203125 29.59375 
L 56.203125 25.203125 
L 14.890625 25.203125 
Q 15.484375 15.921875 20.484375 11.0625 
Q 25.484375 6.203125 34.421875 6.203125 
Q 39.59375 6.203125 44.453125 7.46875 
Q 49.3125 8.734375 54.109375 11.28125 
L 54.109375 2.78125 
Q 49.265625 0.734375 44.1875 -0.34375 
Q 39.109375 -1.421875 33.890625 -1.421875 
Q 20.796875 -1.421875 13.15625 6.1875 
Q 5.515625 13.8125 5.515625 26.8125 
Q 5.515625 40.234375 12.765625 48.109375 
Q 20.015625 56 32.328125 56 
Q 43.359375 56 49.78125 48.890625 
Q 56.203125 41.796875 56.203125 29.59375 
M 47.21875 32.234375 
Q 47.125 39.59375 43.09375 43.984375 
Q 39.0625 48.390625 32.421875 48.390625 
Q 24.90625 48.390625 20.390625 44.140625 
Q 15.875 39.890625 15.1875 32.171875 
z
" id="BitstreamVeraSans-Roman-65"/>
     <path id="BitstreamVeraSans-Roman-20"/>
     <path d="M 33.015625 40.375 
Q 26.375 40.375 22.484375 35.828125 
Q 18.609375 31.296875 18.609375 23.390625 
Q 18.609375 15.53125 22.484375 10.953125 
Q 26.375 6.390625 33.015625 6.390625 
Q 39.65625 6.390625 43.53125 10.953125 
Q 47.40625 15.53125 47.40625 23.390625 
Q 47.40625 31.296875 43.53125 35.828125 
Q 39.65625 40.375 33.015625 40.375 
M 52.59375 71.296875 
L 52.59375 62.3125 
Q 48.875 64.0625 45.09375 64.984375 
Q 41.3125 65.921875 37.59375 65.921875 
Q 27.828125 65.921875 22.671875 59.328125 
Q 17.53125 52.734375 16.796875 39.40625 
Q 19.671875 43.65625 24.015625 45.921875 
Q 28.375 48.1875 33.59375 48.1875 
Q 44.578125 48.1875 50.953125 41.515625 
Q 57.328125 34.859375 57.328125 23.390625 
Q 57.328125 12.15625 50.6875 5.359375 
Q 44.046875 -1.421875 33.015625 -1.421875 
Q 20.359375 -1.421875 13.671875 8.265625 
Q 6.984375 17.96875 6.984375 36.375 
Q 6.984375 53.65625 15.1875 63.9375 
Q 23.390625 74.21875 37.203125 74.21875 
Q 40.921875 74.21875 44.703125 73.484375 
Q 48.484375 72.75 52.59375 71.296875 
" id="BitstreamVeraSans-Roman-36"/>
     <path d="M 28.609375 0 
L 0.78125 72.90625 
L 11.078125 72.90625 
L 34.1875 11.53125 
L 57.328125 72.90625 
L 67.578125 72.90625 
L 39.796875 0 
z
" id="BitstreamVeraSans-Roman-56"/>
     <path d="M 52 44.1875 
Q 55.375 50.25 60.0625 53.125 
Q 64.75 56 71.09375 56 
Q 79.640625 56 84.28125 50.015625 
Q 88.921875 44.046875 88.921875 33.015625 
L 88.921875 0 
L 79.890625 0 
L 79.890625 32.71875 
Q 79.890625 40.578125 77.09375 44.375 
Q 74.3125 48.1875 68.609375 48.1875 
Q 61.625 48.1875 57.5625 43.546875 
Q 53.515625 38.921875 53.515625 30.90625 
L 53.515625 0 
L 44.484375 0 
L 44.484375 32.71875 
Q 44.484375 40.625 41.703125 44.40625 
Q 38.921875 48.1875 33.109375 48.1875 
Q 26.21875 48.1875 22.15625 43.53125 
Q 18.109375 38.875 18.109375 30.90625 
L 18.109375 0 
L 9.078125 0 
L 9.078125 54.6875 
L 18.109375 54.6875 
L 18.109375 46.1875 
Q 21.1875 51.21875 25.484375 53.609375 
Q 29.78125 56 35.6875 56 
Q 41.65625 56 45.828125 52.96875 
Q 50 49.953125 52 44.1875 
" id="BitstreamVeraSans-Roman-6d"/>
    </defs>
    <g transform="translate(162.0276 163.21909090909082)scale(0.08 -0.08)">
     <use xlink:href="#BitstreamVeraSans-Roman-30"/>
     <use x="63.623046875" xlink:href="#BitstreamVeraSans-Roman-2e"/>
     <use x="95.41015625" xlink:href="#BitstreamVeraSans-Roman-35"/>
     <use x="159.033203125" xlink:href="#BitstreamVeraSans-Roman-36"/>
     <use x="222.65625" xlink:href="#BitstreamVeraSans-Roman-20"/>
     <use x="254.443359375" xlink:href="#BitstreamVeraSans-Roman-6d"/>
     <use x="351.85546875" xlink:href="#BitstreamVeraSans-Roman-65"/>
     <use x="413.37890625" xlink:href="#BitstreamVeraSans-Roman-56"/>
    </g>
   </g>
   <g id="legend_1">
    <g id="line2d_19">
     <path d="M 39.9114 23.43875 
L 51.1114 23.43875 
" style="fill:none;stroke:#0000ff;stroke-linecap:square;stroke-width:2.0;"/>
    </g>
    <g id="line2d_20"/>
    <g id="text_10">
     <!-- P300 -->
     <defs>
      <path d="M 19.671875 64.796875 
L 19.671875 37.40625 
L 32.078125 37.40625 
Q 38.96875 37.40625 42.71875 40.96875 
Q 46.484375 44.53125 46.484375 51.125 
Q 46.484375 57.671875 42.71875 61.234375 
Q 38.96875 64.796875 32.078125 64.796875 
z
M 9.8125 72.90625 
L 32.078125 72.90625 
Q 44.34375 72.90625 50.609375 67.359375 
Q 56.890625 61.8125 56.890625 51.125 
Q 56.890625 40.328125 50.609375 34.8125 
Q 44.34375 29.296875 32.078125 29.296875 
L 19.671875 29.296875 
L 19.671875 0 
L 9.8125 0 
z
" id="BitstreamVeraSans-Roman-50"/>
     </defs>
     <g transform="translate(59.91140000000001 26.238749999999982)scale(0.08 -0.08)">
      <use xlink:href="#BitstreamVeraSans-Roman-50"/>
      <use x="60.302734375" xlink:href="#BitstreamVeraSans-Roman-33"/>
      <use x="123.92578125" xlink:href="#BitstreamVeraSans-Roman-30"/>
      <use x="187.548828125" xlink:href="#BitstreamVeraSans-Roman-30"/>
     </g>
    </g>
    <g id="line2d_21">
     <path d="M 39.9114 35.18125 
L 51.1114 35.18125 
" style="fill:none;stroke:#008000;stroke-linecap:square;stroke-width:2.0;"/>
    </g>
    <g id="line2d_22"/>
    <g id="text_11">
     <!-- N300 -->
     <defs>
      <path d="M 9.8125 72.90625 
L 23.09375 72.90625 
L 55.421875 11.921875 
L 55.421875 72.90625 
L 64.984375 72.90625 
L 64.984375 0 
L 51.703125 0 
L 19.390625 60.984375 
L 19.390625 0 
L 9.8125 0 
z
" id="BitstreamVeraSans-Roman-4e"/>
     </defs>
     <g transform="translate(59.91140000000001 37.98124999999993)scale(0.08 -0.08)">
      <use xlink:href="#BitstreamVeraSans-Roman-4e"/>
      <use x="74.8046875" xlink:href="#BitstreamVeraSans-Roman-33"/>
      <use x="138.427734375" xlink:href="#BitstreamVeraSans-Roman-30"/>
      <use x="202.05078125" xlink:href="#BitstreamVeraSans-Roman-30"/>
     </g>
    </g>
   </g>
  </g>
  <g id="axes_2">
   <g id="patch_7">
    <path d="M 327.2682 196.61 
L 590.7006 196.61 
L 590.7006 12.96 
L 327.2682 12.96 
z
" style="fill:#ffffff;"/>
   </g>
   <g id="line2d_23">
    <path clip-path="url(#p8f553a28a0)" d="M 327.2682 196.61 
L 334.022877 192.313356 
L 340.777554 180.10692 
L 347.532231 161.807916 
L 354.286908 139.867334 
L 361.041585 116.881808 
L 367.796262 95.159218 
L 374.550938 76.344374 
L 381.305615 61.237717 
L 388.060292 49.90412 
L 394.814969 41.930902 
L 401.569646 36.671811 
L 408.324323 33.428824 
L 415.079 31.562662 
L 421.833677 30.560819 
L 428.588354 30.059013 
L 435.343031 29.824139 
L 442.097708 29.72151 
L 448.852385 29.679626 
L 455.607062 29.663699 
L 462.361738 29.658066 
L 469.116415 29.656219 
L 475.871092 29.655661 
L 482.625769 29.655506 
L 489.380446 29.655466 
L 496.135123 29.655457 
L 502.8898 29.655455 
L 509.644477 29.655455 
L 516.399154 29.655455 
L 523.153831 29.655455 
L 529.908508 29.655455 
L 536.663185 29.655455 
L 543.417862 29.655455 
L 550.172538 29.655455 
L 556.927215 29.655455 
L 563.681892 29.655455 
L 570.436569 29.655455 
L 577.191246 29.655455 
L 583.945923 29.655455 
L 590.7006 29.655455 
" style="fill:none;stroke:#0000ff;stroke-linecap:square;stroke-width:2.0;"/>
   </g>
   <g id="line2d_24">
    <path clip-path="url(#p8f553a28a0)" d="M 327.2682 196.61 
L 334.022877 192.341026 
L 340.777554 180.236935 
L 347.532231 162.120176 
L 354.286908 140.386001 
L 361.041585 117.580695 
L 367.796262 96.037536 
L 374.550938 77.439351 
L 381.305615 62.541565 
L 388.060292 51.290473 
L 394.814969 43.198807 
L 401.569646 37.658892 
L 408.324323 34.0841 
L 415.079 31.935934 
L 421.833677 30.744669 
L 428.588354 30.137779 
L 435.343031 29.853739 
L 442.097708 29.731285 
L 448.852385 29.682482 
L 455.607062 29.66444 
L 462.361738 29.658235 
L 469.116415 29.656256 
L 475.871092 29.655668 
L 482.625769 29.655507 
L 489.380446 29.655466 
L 496.135123 29.655457 
L 502.8898 29.655455 
L 509.644477 29.655455 
L 516.399154 29.655455 
L 523.153831 29.655455 
L 529.908508 29.655455 
L 536.663185 29.655455 
L 543.417862 29.655455 
L 550.172538 29.655455 
L 556.927215 29.655455 
L 563.681892 29.655455 
L 570.436569 29.655455 
L 577.191246 29.655455 
L 583.945923 29.655455 
L 590.7006 29.655455 
" style="fill:none;stroke:#008000;stroke-linecap:square;stroke-width:2.0;"/>
   </g>
   <g id="patch_8">
    <path d="M 327.2682 12.96 
L 590.7006 12.96 
" style="fill:none;stroke:#000000;stroke-linecap:square;stroke-linejoin:miter;"/>
   </g>
   <g id="patch_9">
    <path d="M 590.7006 196.61 
L 590.7006 12.96 
" style="fill:none;stroke:#000000;stroke-linecap:square;stroke-linejoin:miter;"/>
   </g>
   <g id="patch_10">
    <path d="M 327.2682 196.61 
L 590.7006 196.61 
" style="fill:none;stroke:#000000;stroke-linecap:square;stroke-linejoin:miter;"/>
   </g>
   <g id="patch_11">
    <path d="M 327.2682 196.61 
L 327.2682 12.96 
" style="fill:none;stroke:#000000;stroke-linecap:square;stroke-linejoin:miter;"/>
   </g>
   <g id="matplotlib.axis_3">
    <g id="xtick_6">
     <g id="line2d_25">
      <g>
       <use style="stroke:#000000;stroke-width:0.5;" x="327.26820000000004" xlink:href="#mc21a41308e" y="196.6099999999999"/>
      </g>
     </g>
     <g id="line2d_26">
      <g>
       <use style="stroke:#000000;stroke-width:0.5;" x="327.26820000000004" xlink:href="#m65a0c4c9a8" y="12.960000000000036"/>
      </g>
     </g>
     <g id="text_12">
      <!-- 0 -->
      <g transform="translate(323.45070000000004 209.72812499999986)scale(0.12 -0.12)">
       <use xlink:href="#BitstreamVeraSans-Roman-30"/>
      </g>
     </g>
    </g>
    <g id="xtick_7">
     <g id="line2d_27">
      <g>
       <use style="stroke:#000000;stroke-width:0.5;" x="393.1263" xlink:href="#mc21a41308e" y="196.6099999999999"/>
      </g>
     </g>
     <g id="line2d_28">
      <g>
       <use style="stroke:#000000;stroke-width:0.5;" x="393.1263" xlink:href="#m65a0c4c9a8" y="12.960000000000036"/>
      </g>
     </g>
     <g id="text_13">
      <!-- 1 -->
      <g transform="translate(389.3088 209.72812499999986)scale(0.12 -0.12)">
       <use xlink:href="#BitstreamVeraSans-Roman-31"/>
      </g>
     </g>
    </g>
    <g id="xtick_8">
     <g id="line2d_29">
      <g>
       <use style="stroke:#000000;stroke-width:0.5;" x="458.98440000000005" xlink:href="#mc21a41308e" y="196.6099999999999"/>
      </g>
     </g>
     <g id="line2d_30">
      <g>
       <use style="stroke:#000000;stroke-width:0.5;" x="458.98440000000005" xlink:href="#m65a0c4c9a8" y="12.960000000000036"/>
      </g>
     </g>
     <g id="text_14">
      <!-- 2 -->
      <g transform="translate(455.16690000000006 209.72812499999986)scale(0.12 -0.12)">
       <use xlink:href="#BitstreamVeraSans-Roman-32"/>
      </g>
     </g>
    </g>
    <g id="xtick_9">
     <g id="line2d_31">
      <g>
       <use style="stroke:#000000;stroke-width:0.5;" x="524.8425" xlink:href="#mc21a41308e" y="196.6099999999999"/>
      </g>
     </g>
     <g id="line2d_32">
      <g>
       <use style="stroke:#000000;stroke-width:0.5;" x="524.8425" xlink:href="#m65a0c4c9a8" y="12.960000000000036"/>
      </g>
     </g>
     <g id="text_15">
      <!-- 3 -->
      <g transform="translate(521.025 209.72812499999986)scale(0.12 -0.12)">
       <use xlink:href="#BitstreamVeraSans-Roman-33"/>
      </g>
     </g>
    </g>
    <g id="xtick_10">
     <g id="line2d_33">
      <g>
       <use style="stroke:#000000;stroke-width:0.5;" x="590.7006" xlink:href="#mc21a41308e" y="196.6099999999999"/>
      </g>
     </g>
     <g id="line2d_34">
      <g>
       <use style="stroke:#000000;stroke-width:0.5;" x="590.7006" xlink:href="#m65a0c4c9a8" y="12.960000000000036"/>
      </g>
     </g>
     <g id="text_16">
      <!-- 4 -->
      <g transform="translate(586.8831 209.72812499999986)scale(0.12 -0.12)">
       <use xlink:href="#BitstreamVeraSans-Roman-34"/>
      </g>
     </g>
    </g>
   </g>
   <g id="matplotlib.axis_4">
    <g id="ytick_4">
     <g id="line2d_35">
      <g>
       <use style="stroke:#000000;stroke-width:0.5;" x="327.26820000000004" xlink:href="#m73974ca3c6" y="196.6099999999999"/>
      </g>
     </g>
     <g id="line2d_36">
      <g>
       <use style="stroke:#000000;stroke-width:0.5;" x="590.7006" xlink:href="#m4492c7ac21" y="196.6099999999999"/>
      </g>
     </g>
     <g id="text_17">
      <!-- 0.0 -->
      <g transform="translate(304.18445 199.92124999999987)scale(0.12 -0.12)">
       <use xlink:href="#BitstreamVeraSans-Roman-30"/>
       <use x="63.623046875" xlink:href="#BitstreamVeraSans-Roman-2e"/>
       <use x="95.41015625" xlink:href="#BitstreamVeraSans-Roman-30"/>
      </g>
     </g>
    </g>
    <g id="ytick_5">
     <g id="line2d_37">
      <g>
       <use style="stroke:#000000;stroke-width:0.5;" x="327.26820000000004" xlink:href="#m73974ca3c6" y="113.13272727272724"/>
      </g>
     </g>
     <g id="line2d_38">
      <g>
       <use style="stroke:#000000;stroke-width:0.5;" x="590.7006" xlink:href="#m4492c7ac21" y="113.13272727272724"/>
      </g>
     </g>
     <g id="text_18">
      <!-- 0.5 -->
      <g transform="translate(304.18445 116.44397727272724)scale(0.12 -0.12)">
       <use xlink:href="#BitstreamVeraSans-Roman-30"/>
       <use x="63.623046875" xlink:href="#BitstreamVeraSans-Roman-2e"/>
       <use x="95.41015625" xlink:href="#BitstreamVeraSans-Roman-35"/>
      </g>
     </g>
    </g>
    <g id="ytick_6">
     <g id="line2d_39">
      <g>
       <use style="stroke:#000000;stroke-width:0.5;" x="327.26820000000004" xlink:href="#m73974ca3c6" y="29.655454545454575"/>
      </g>
     </g>
     <g id="line2d_40">
      <g>
       <use style="stroke:#000000;stroke-width:0.5;" x="590.7006" xlink:href="#m4492c7ac21" y="29.655454545454575"/>
      </g>
     </g>
     <g id="text_19">
      <!-- 1.0 -->
      <g transform="translate(304.18445 32.96670454545449)scale(0.12 -0.12)">
       <use xlink:href="#BitstreamVeraSans-Roman-31"/>
       <use x="63.623046875" xlink:href="#BitstreamVeraSans-Roman-2e"/>
       <use x="95.41015625" xlink:href="#BitstreamVeraSans-Roman-30"/>
      </g>
     </g>
    </g>
   </g>
   <g id="text_20">
    <!-- 0.71 meV -->
    <defs>
     <path d="M 8.203125 72.90625 
L 55.078125 72.90625 
L 55.078125 68.703125 
L 28.609375 0 
L 18.3125 0 
L 43.21875 64.59375 
L 8.203125 64.59375 
z
" id="BitstreamVeraSans-Roman-37"/>
    </defs>
    <g transform="translate(458.98440000000005 163.21909090909082)scale(0.08 -0.08)">
     <use xlink:href="#BitstreamVeraSans-Roman-30"/>
     <use x="63.623046875" xlink:href="#BitstreamVeraSans-Roman-2e"/>
     <use x="95.41015625" xlink:href="#BitstreamVeraSans-Roman-37"/>
     <use x="159.033203125" xlink:href="#BitstreamVeraSans-Roman-31"/>
     <use x="222.65625" xlink:href="#BitstreamVeraSans-Roman-20"/>
     <use x="254.443359375" xlink:href="#BitstreamVeraSans-Roman-6d"/>
     <use x="351.85546875" xlink:href="#BitstreamVeraSans-Roman-65"/>
     <use x="413.37890625" xlink:href="#BitstreamVeraSans-Roman-56"/>
    </g>
   </g>
   <g id="legend_2">
    <g id="line2d_41">
     <path d="M 336.8682 23.43875 
L 348.0682 23.43875 
" style="fill:none;stroke:#0000ff;stroke-linecap:square;stroke-width:2.0;"/>
    </g>
    <g id="line2d_42"/>
    <g id="text_21">
     <!-- P300 -->
     <g transform="translate(356.8682 26.238749999999982)scale(0.08 -0.08)">
      <use xlink:href="#BitstreamVeraSans-Roman-50"/>
      <use x="60.302734375" xlink:href="#BitstreamVeraSans-Roman-33"/>
      <use x="123.92578125" xlink:href="#BitstreamVeraSans-Roman-30"/>
      <use x="187.548828125" xlink:href="#BitstreamVeraSans-Roman-30"/>
     </g>
    </g>
    <g id="line2d_43">
     <path d="M 336.8682 35.18125 
L 348.0682 35.18125 
" style="fill:none;stroke:#008000;stroke-linecap:square;stroke-width:2.0;"/>
    </g>
    <g id="line2d_44"/>
    <g id="text_22">
     <!-- N300 -->
     <g transform="translate(356.8682 37.98124999999993)scale(0.08 -0.08)">
      <use xlink:href="#BitstreamVeraSans-Roman-4e"/>
      <use x="74.8046875" xlink:href="#BitstreamVeraSans-Roman-33"/>
      <use x="138.427734375" xlink:href="#BitstreamVeraSans-Roman-30"/>
      <use x="202.05078125" xlink:href="#BitstreamVeraSans-Roman-30"/>
     </g>
    </g>
   </g>
  </g>
  <g id="axes_3">
   <g id="patch_12">
    <path d="M 30.3114 408.92 
L 293.7438 408.92 
L 293.7438 225.27 
L 30.3114 225.27 
z
" style="fill:#ffffff;"/>
   </g>
   <g id="line2d_45">
    <path clip-path="url(#pc3a6b3eab7)" d="M 30.3114 408.92 
L 37.066077 404.602362 
L 43.820754 392.353684 
L 50.575431 374.047528 
L 57.330108 352.177076 
L 64.084785 329.306584 
L 70.839462 307.665138 
L 77.594138 288.87432 
L 84.348815 273.795876 
L 91.103492 262.539198 
L 97.858169 254.663269 
L 104.612846 249.458431 
L 111.367523 246.190985 
L 118.1222 244.237436 
L 124.876877 243.12593 
L 131.631554 242.526378 
L 138.386231 242.22111 
L 145.140908 242.075006 
L 151.895585 242.009487 
L 158.650262 241.982026 
L 165.404938 241.971292 
L 172.159615 241.967375 
L 178.914292 241.966045 
L 185.668969 241.965624 
L 192.423646 241.9655 
L 199.178323 241.965466 
L 205.933 241.965457 
L 212.687677 241.965455 
L 219.442354 241.965455 
L 226.197031 241.965455 
L 232.951708 241.965455 
L 239.706385 241.965455 
L 246.461062 241.965455 
L 253.215738 241.965455 
L 259.970415 241.965455 
L 266.725092 241.965455 
L 273.479769 241.965455 
L 280.234446 241.965455 
L 286.989123 241.965455 
L 293.7438 241.965455 
" style="fill:none;stroke:#0000ff;stroke-linecap:square;stroke-width:2.0;"/>
   </g>
   <g id="line2d_46">
    <path clip-path="url(#pc3a6b3eab7)" d="M 30.3114 408.92 
L 37.066077 404.631649 
L 43.820754 392.5082 
L 50.575431 374.478035 
L 57.330108 353.01836 
L 64.084785 330.600268 
L 70.839462 309.383513 
L 77.594138 291.009775 
L 84.348815 276.40829 
L 91.103492 265.696822 
L 97.858169 258.320976 
L 104.612846 253.389572 
L 111.367523 250.038591 
L 118.1222 247.64212 
L 124.876877 245.848175 
L 131.631554 244.497428 
L 138.386231 243.518089 
L 145.140908 242.853601 
L 151.895585 242.437527 
L 158.650262 242.198275 
L 165.404938 242.071992 
L 172.159615 242.010713 
L 178.914292 241.983319 
L 185.668969 241.972013 
L 192.423646 241.967696 
L 199.178323 241.966169 
L 205.933 241.965667 
L 212.687677 241.965513 
L 219.442354 241.96547 
L 226.197031 241.965458 
L 232.951708 241.965455 
L 239.706385 241.965455 
L 246.461062 241.965455 
L 253.215738 241.965455 
L 259.970415 241.965455 
L 266.725092 241.965455 
L 273.479769 241.965455 
L 280.234446 241.965455 
L 286.989123 241.965455 
L 293.7438 241.965455 
" style="fill:none;stroke:#008000;stroke-linecap:square;stroke-width:2.0;"/>
   </g>
   <g id="patch_13">
    <path d="M 30.3114 225.27 
L 293.7438 225.27 
" style="fill:none;stroke:#000000;stroke-linecap:square;stroke-linejoin:miter;"/>
   </g>
   <g id="patch_14">
    <path d="M 293.7438 408.92 
L 293.7438 225.27 
" style="fill:none;stroke:#000000;stroke-linecap:square;stroke-linejoin:miter;"/>
   </g>
   <g id="patch_15">
    <path d="M 30.3114 408.92 
L 293.7438 408.92 
" style="fill:none;stroke:#000000;stroke-linecap:square;stroke-linejoin:miter;"/>
   </g>
   <g id="patch_16">
    <path d="M 30.3114 408.92 
L 30.3114 225.27 
" style="fill:none;stroke:#000000;stroke-linecap:square;stroke-linejoin:miter;"/>
   </g>
   <g id="matplotlib.axis_5">
    <g id="xtick_11">
     <g id="line2d_47">
      <g>
       <use style="stroke:#000000;stroke-width:0.5;" x="30.311400000000003" xlink:href="#mc21a41308e" y="408.9199999999999"/>
      </g>
     </g>
     <g id="line2d_48">
      <g>
       <use style="stroke:#000000;stroke-width:0.5;" x="30.311400000000003" xlink:href="#m65a0c4c9a8" y="225.26999999999998"/>
      </g>
     </g>
     <g id="text_23">
      <!-- 0 -->
      <g transform="translate(26.493900000000004 422.0381249999999)scale(0.12 -0.12)">
       <use xlink:href="#BitstreamVeraSans-Roman-30"/>
      </g>
     </g>
    </g>
    <g id="xtick_12">
     <g id="line2d_49">
      <g>
       <use style="stroke:#000000;stroke-width:0.5;" x="96.16950000000001" xlink:href="#mc21a41308e" y="408.9199999999999"/>
      </g>
     </g>
     <g id="line2d_50">
      <g>
       <use style="stroke:#000000;stroke-width:0.5;" x="96.16950000000001" xlink:href="#m65a0c4c9a8" y="225.26999999999998"/>
      </g>
     </g>
     <g id="text_24">
      <!-- 1 -->
      <g transform="translate(92.35200000000002 422.0381249999999)scale(0.12 -0.12)">
       <use xlink:href="#BitstreamVeraSans-Roman-31"/>
      </g>
     </g>
    </g>
    <g id="xtick_13">
     <g id="line2d_51">
      <g>
       <use style="stroke:#000000;stroke-width:0.5;" x="162.0276" xlink:href="#mc21a41308e" y="408.9199999999999"/>
      </g>
     </g>
     <g id="line2d_52">
      <g>
       <use style="stroke:#000000;stroke-width:0.5;" x="162.0276" xlink:href="#m65a0c4c9a8" y="225.26999999999998"/>
      </g>
     </g>
     <g id="text_25">
      <!-- 2 -->
      <g transform="translate(158.2101 422.0381249999999)scale(0.12 -0.12)">
       <use xlink:href="#BitstreamVeraSans-Roman-32"/>
      </g>
     </g>
    </g>
    <g id="xtick_14">
     <g id="line2d_53">
      <g>
       <use style="stroke:#000000;stroke-width:0.5;" x="227.8857" xlink:href="#mc21a41308e" y="408.9199999999999"/>
      </g>
     </g>
     <g id="line2d_54">
      <g>
       <use style="stroke:#000000;stroke-width:0.5;" x="227.8857" xlink:href="#m65a0c4c9a8" y="225.26999999999998"/>
      </g>
     </g>
     <g id="text_26">
      <!-- 3 -->
      <g transform="translate(224.06820000000002 422.0381249999999)scale(0.12 -0.12)">
       <use xlink:href="#BitstreamVeraSans-Roman-33"/>
      </g>
     </g>
    </g>
    <g id="xtick_15">
     <g id="line2d_55">
      <g>
       <use style="stroke:#000000;stroke-width:0.5;" x="293.7438" xlink:href="#mc21a41308e" y="408.9199999999999"/>
      </g>
     </g>
     <g id="line2d_56">
      <g>
       <use style="stroke:#000000;stroke-width:0.5;" x="293.7438" xlink:href="#m65a0c4c9a8" y="225.26999999999998"/>
      </g>
     </g>
     <g id="text_27">
      <!-- 4 -->
      <g transform="translate(289.9263 422.0381249999999)scale(0.12 -0.12)">
       <use xlink:href="#BitstreamVeraSans-Roman-34"/>
      </g>
     </g>
    </g>
   </g>
   <g id="matplotlib.axis_6">
    <g id="ytick_7">
     <g id="line2d_57">
      <g>
       <use style="stroke:#000000;stroke-width:0.5;" x="30.311400000000003" xlink:href="#m73974ca3c6" y="408.9199999999999"/>
      </g>
     </g>
     <g id="line2d_58">
      <g>
       <use style="stroke:#000000;stroke-width:0.5;" x="293.7438" xlink:href="#m4492c7ac21" y="408.9199999999999"/>
      </g>
     </g>
     <g id="text_28">
      <!-- 0.0 -->
      <g transform="translate(7.227650000000004 412.2312499999999)scale(0.12 -0.12)">
       <use xlink:href="#BitstreamVeraSans-Roman-30"/>
       <use x="63.623046875" xlink:href="#BitstreamVeraSans-Roman-2e"/>
       <use x="95.41015625" xlink:href="#BitstreamVeraSans-Roman-30"/>
      </g>
     </g>
    </g>
    <g id="ytick_8">
     <g id="line2d_59">
      <g>
       <use style="stroke:#000000;stroke-width:0.5;" x="30.311400000000003" xlink:href="#m73974ca3c6" y="325.4427272727272"/>
      </g>
     </g>
     <g id="line2d_60">
      <g>
       <use style="stroke:#000000;stroke-width:0.5;" x="293.7438" xlink:href="#m4492c7ac21" y="325.4427272727272"/>
      </g>
     </g>
     <g id="text_29">
      <!-- 0.5 -->
      <g transform="translate(7.227650000000004 328.7539772727272)scale(0.12 -0.12)">
       <use xlink:href="#BitstreamVeraSans-Roman-30"/>
       <use x="63.623046875" xlink:href="#BitstreamVeraSans-Roman-2e"/>
       <use x="95.41015625" xlink:href="#BitstreamVeraSans-Roman-35"/>
      </g>
     </g>
    </g>
    <g id="ytick_9">
     <g id="line2d_61">
      <g>
       <use style="stroke:#000000;stroke-width:0.5;" x="30.311400000000003" xlink:href="#m73974ca3c6" y="241.96545454545452"/>
      </g>
     </g>
     <g id="line2d_62">
      <g>
       <use style="stroke:#000000;stroke-width:0.5;" x="293.7438" xlink:href="#m4492c7ac21" y="241.96545454545452"/>
      </g>
     </g>
     <g id="text_30">
      <!-- 1.0 -->
      <g transform="translate(7.227650000000004 245.27670454545444)scale(0.12 -0.12)">
       <use xlink:href="#BitstreamVeraSans-Roman-31"/>
       <use x="63.623046875" xlink:href="#BitstreamVeraSans-Roman-2e"/>
       <use x="95.41015625" xlink:href="#BitstreamVeraSans-Roman-30"/>
      </g>
     </g>
    </g>
   </g>
   <g id="text_31">
    <!-- 0.9 meV -->
    <defs>
     <path d="M 10.984375 1.515625 
L 10.984375 10.5 
Q 14.703125 8.734375 18.5 7.8125 
Q 22.3125 6.890625 25.984375 6.890625 
Q 35.75 6.890625 40.890625 13.453125 
Q 46.046875 20.015625 46.78125 33.40625 
Q 43.953125 29.203125 39.59375 26.953125 
Q 35.25 24.703125 29.984375 24.703125 
Q 19.046875 24.703125 12.671875 31.3125 
Q 6.296875 37.9375 6.296875 49.421875 
Q 6.296875 60.640625 12.9375 67.421875 
Q 19.578125 74.21875 30.609375 74.21875 
Q 43.265625 74.21875 49.921875 64.515625 
Q 56.59375 54.828125 56.59375 36.375 
Q 56.59375 19.140625 48.40625 8.859375 
Q 40.234375 -1.421875 26.421875 -1.421875 
Q 22.703125 -1.421875 18.890625 -0.6875 
Q 15.09375 0.046875 10.984375 1.515625 
M 30.609375 32.421875 
Q 37.25 32.421875 41.125 36.953125 
Q 45.015625 41.5 45.015625 49.421875 
Q 45.015625 57.28125 41.125 61.84375 
Q 37.25 66.40625 30.609375 66.40625 
Q 23.96875 66.40625 20.09375 61.84375 
Q 16.21875 57.28125 16.21875 49.421875 
Q 16.21875 41.5 20.09375 36.953125 
Q 23.96875 32.421875 30.609375 32.421875 
" id="BitstreamVeraSans-Roman-39"/>
    </defs>
    <g transform="translate(162.0276 375.5290909090908)scale(0.08 -0.08)">
     <use xlink:href="#BitstreamVeraSans-Roman-30"/>
     <use x="63.623046875" xlink:href="#BitstreamVeraSans-Roman-2e"/>
     <use x="95.41015625" xlink:href="#BitstreamVeraSans-Roman-39"/>
     <use x="159.033203125" xlink:href="#BitstreamVeraSans-Roman-20"/>
     <use x="190.8203125" xlink:href="#BitstreamVeraSans-Roman-6d"/>
     <use x="288.232421875" xlink:href="#BitstreamVeraSans-Roman-65"/>
     <use x="349.755859375" xlink:href="#BitstreamVeraSans-Roman-56"/>
    </g>
   </g>
   <g id="legend_3">
    <g id="line2d_63">
     <path d="M 39.9114 235.74875 
L 51.1114 235.74875 
" style="fill:none;stroke:#0000ff;stroke-linecap:square;stroke-width:2.0;"/>
    </g>
    <g id="line2d_64"/>
    <g id="text_32">
     <!-- P300 -->
     <g transform="translate(59.91140000000001 238.54874999999993)scale(0.08 -0.08)">
      <use xlink:href="#BitstreamVeraSans-Roman-50"/>
      <use x="60.302734375" xlink:href="#BitstreamVeraSans-Roman-33"/>
      <use x="123.92578125" xlink:href="#BitstreamVeraSans-Roman-30"/>
      <use x="187.548828125" xlink:href="#BitstreamVeraSans-Roman-30"/>
     </g>
    </g>
    <g id="line2d_65">
     <path d="M 39.9114 247.49125 
L 51.1114 247.49125 
" style="fill:none;stroke:#008000;stroke-linecap:square;stroke-width:2.0;"/>
    </g>
    <g id="line2d_66"/>
    <g id="text_33">
     <!-- N300 -->
     <g transform="translate(59.91140000000001 250.29124999999988)scale(0.08 -0.08)">
      <use xlink:href="#BitstreamVeraSans-Roman-4e"/>
      <use x="74.8046875" xlink:href="#BitstreamVeraSans-Roman-33"/>
      <use x="138.427734375" xlink:href="#BitstreamVeraSans-Roman-30"/>
      <use x="202.05078125" xlink:href="#BitstreamVeraSans-Roman-30"/>
     </g>
    </g>
   </g>
  </g>
  <g id="axes_4">
   <g id="patch_17">
    <path d="M 327.2682 408.92 
L 590.7006 408.92 
L 590.7006 225.27 
L 327.2682 225.27 
z
" style="fill:#ffffff;"/>
   </g>
   <g id="line2d_67">
    <path clip-path="url(#p81bafa84f3)" d="M 327.2682 408.92 
L 334.022877 404.587701 
L 340.777554 392.306255 
L 347.532231 373.980627 
L 354.286908 352.138206 
L 361.041585 329.345273 
L 367.796262 307.790265 
L 374.550938 289.050631 
L 381.305615 273.976834 
L 388.060292 262.713423 
L 394.814969 254.854417 
L 401.569646 249.692195 
L 408.324323 246.466872 
L 415.079 244.52799 
L 421.833677 243.394583 
L 428.588354 242.745765 
L 435.343031 242.381028 
L 442.097708 242.180202 
L 448.852385 242.072488 
L 455.607062 242.016642 
L 462.361738 241.988839 
L 469.116415 241.975622 
L 475.871092 241.969654 
L 482.625769 241.967099 
L 489.380446 241.966064 
L 496.135123 241.965669 
L 502.8898 241.965526 
L 509.644477 241.965477 
L 516.399154 241.965461 
L 523.153831 241.965456 
L 529.908508 241.965455 
L 536.663185 241.965455 
L 543.417862 241.965455 
L 550.172538 241.965455 
L 556.927215 241.965455 
L 563.681892 241.965455 
L 570.436569 241.965455 
L 577.191246 241.965455 
L 583.945923 241.965455 
L 590.7006 241.965455 
" style="fill:none;stroke:#0000ff;stroke-linecap:square;stroke-width:2.0;"/>
   </g>
   <g id="line2d_68">
    <path clip-path="url(#p81bafa84f3)" d="M 327.2682 408.92 
L 334.022877 404.610238 
L 340.777554 392.446375 
L 347.532231 374.423978 
L 354.286908 353.094871 
L 361.041585 330.944742 
L 367.796262 310.050318 
L 374.550938 291.940671 
L 381.305615 277.514332 
L 388.060292 266.981705 
L 394.814969 259.916932 
L 401.569646 255.467764 
L 408.324323 252.669025 
L 415.079 250.712756 
L 421.833677 249.087455 
L 428.588354 247.575449 
L 435.343031 246.161314 
L 442.097708 244.915769 
L 448.852385 243.907378 
L 455.607062 243.160564 
L 462.361738 242.653446 
L 469.116415 242.336364 
L 475.871092 242.152985 
L 482.625769 242.0545 
L 489.380446 242.005215 
L 496.135123 241.982171 
L 502.8898 241.972078 
L 509.644477 241.967931 
L 516.399154 241.966328 
L 523.153831 241.965746 
L 529.908508 241.965546 
L 536.663185 241.965482 
L 543.417862 241.965462 
L 550.172538 241.965457 
L 556.927215 241.965455 
L 563.681892 241.965455 
L 570.436569 241.965455 
L 577.191246 241.965455 
L 583.945923 241.965455 
L 590.7006 241.965455 
" style="fill:none;stroke:#008000;stroke-linecap:square;stroke-width:2.0;"/>
   </g>
   <g id="patch_18">
    <path d="M 327.2682 225.27 
L 590.7006 225.27 
" style="fill:none;stroke:#000000;stroke-linecap:square;stroke-linejoin:miter;"/>
   </g>
   <g id="patch_19">
    <path d="M 590.7006 408.92 
L 590.7006 225.27 
" style="fill:none;stroke:#000000;stroke-linecap:square;stroke-linejoin:miter;"/>
   </g>
   <g id="patch_20">
    <path d="M 327.2682 408.92 
L 590.7006 408.92 
" style="fill:none;stroke:#000000;stroke-linecap:square;stroke-linejoin:miter;"/>
   </g>
   <g id="patch_21">
    <path d="M 327.2682 408.92 
L 327.2682 225.27 
" style="fill:none;stroke:#000000;stroke-linecap:square;stroke-linejoin:miter;"/>
   </g>
   <g id="matplotlib.axis_7">
    <g id="xtick_16">
     <g id="line2d_69">
      <g>
       <use style="stroke:#000000;stroke-width:0.5;" x="327.26820000000004" xlink:href="#mc21a41308e" y="408.9199999999999"/>
      </g>
     </g>
     <g id="line2d_70">
      <g>
       <use style="stroke:#000000;stroke-width:0.5;" x="327.26820000000004" xlink:href="#m65a0c4c9a8" y="225.26999999999998"/>
      </g>
     </g>
     <g id="text_34">
      <!-- 0 -->
      <g transform="translate(323.45070000000004 422.0381249999999)scale(0.12 -0.12)">
       <use xlink:href="#BitstreamVeraSans-Roman-30"/>
      </g>
     </g>
    </g>
    <g id="xtick_17">
     <g id="line2d_71">
      <g>
       <use style="stroke:#000000;stroke-width:0.5;" x="393.1263" xlink:href="#mc21a41308e" y="408.9199999999999"/>
      </g>
     </g>
     <g id="line2d_72">
      <g>
       <use style="stroke:#000000;stroke-width:0.5;" x="393.1263" xlink:href="#m65a0c4c9a8" y="225.26999999999998"/>
      </g>
     </g>
     <g id="text_35">
      <!-- 1 -->
      <g transform="translate(389.3088 422.0381249999999)scale(0.12 -0.12)">
       <use xlink:href="#BitstreamVeraSans-Roman-31"/>
      </g>
     </g>
    </g>
    <g id="xtick_18">
     <g id="line2d_73">
      <g>
       <use style="stroke:#000000;stroke-width:0.5;" x="458.98440000000005" xlink:href="#mc21a41308e" y="408.9199999999999"/>
      </g>
     </g>
     <g id="line2d_74">
      <g>
       <use style="stroke:#000000;stroke-width:0.5;" x="458.98440000000005" xlink:href="#m65a0c4c9a8" y="225.26999999999998"/>
      </g>
     </g>
     <g id="text_36">
      <!-- 2 -->
      <g transform="translate(455.16690000000006 422.0381249999999)scale(0.12 -0.12)">
       <use xlink:href="#BitstreamVeraSans-Roman-32"/>
      </g>
     </g>
    </g>
    <g id="xtick_19">
     <g id="line2d_75">
      <g>
       <use style="stroke:#000000;stroke-width:0.5;" x="524.8425" xlink:href="#mc21a41308e" y="408.9199999999999"/>
      </g>
     </g>
     <g id="line2d_76">
      <g>
       <use style="stroke:#000000;stroke-width:0.5;" x="524.8425" xlink:href="#m65a0c4c9a8" y="225.26999999999998"/>
      </g>
     </g>
     <g id="text_37">
      <!-- 3 -->
      <g transform="translate(521.025 422.0381249999999)scale(0.12 -0.12)">
       <use xlink:href="#BitstreamVeraSans-Roman-33"/>
      </g>
     </g>
    </g>
    <g id="xtick_20">
     <g id="line2d_77">
      <g>
       <use style="stroke:#000000;stroke-width:0.5;" x="590.7006" xlink:href="#mc21a41308e" y="408.9199999999999"/>
      </g>
     </g>
     <g id="line2d_78">
      <g>
       <use style="stroke:#000000;stroke-width:0.5;" x="590.7006" xlink:href="#m65a0c4c9a8" y="225.26999999999998"/>
      </g>
     </g>
     <g id="text_38">
      <!-- 4 -->
      <g transform="translate(586.8831 422.0381249999999)scale(0.12 -0.12)">
       <use xlink:href="#BitstreamVeraSans-Roman-34"/>
      </g>
     </g>
    </g>
   </g>
   <g id="matplotlib.axis_8">
    <g id="ytick_10">
     <g id="line2d_79">
      <g>
       <use style="stroke:#000000;stroke-width:0.5;" x="327.26820000000004" xlink:href="#m73974ca3c6" y="408.9199999999999"/>
      </g>
     </g>
     <g id="line2d_80">
      <g>
       <use style="stroke:#000000;stroke-width:0.5;" x="590.7006" xlink:href="#m4492c7ac21" y="408.9199999999999"/>
      </g>
     </g>
     <g id="text_39">
      <!-- 0.0 -->
      <g transform="translate(304.18445 412.2312499999999)scale(0.12 -0.12)">
       <use xlink:href="#BitstreamVeraSans-Roman-30"/>
       <use x="63.623046875" xlink:href="#BitstreamVeraSans-Roman-2e"/>
       <use x="95.41015625" xlink:href="#BitstreamVeraSans-Roman-30"/>
      </g>
     </g>
    </g>
    <g id="ytick_11">
     <g id="line2d_81">
      <g>
       <use style="stroke:#000000;stroke-width:0.5;" x="327.26820000000004" xlink:href="#m73974ca3c6" y="325.4427272727272"/>
      </g>
     </g>
     <g id="line2d_82">
      <g>
       <use style="stroke:#000000;stroke-width:0.5;" x="590.7006" xlink:href="#m4492c7ac21" y="325.4427272727272"/>
      </g>
     </g>
     <g id="text_40">
      <!-- 0.5 -->
      <g transform="translate(304.18445 328.7539772727272)scale(0.12 -0.12)">
       <use xlink:href="#BitstreamVeraSans-Roman-30"/>
       <use x="63.623046875" xlink:href="#BitstreamVeraSans-Roman-2e"/>
       <use x="95.41015625" xlink:href="#BitstreamVeraSans-Roman-35"/>
      </g>
     </g>
    </g>
    <g id="ytick_12">
     <g id="line2d_83">
      <g>
       <use style="stroke:#000000;stroke-width:0.5;" x="327.26820000000004" xlink:href="#m73974ca3c6" y="241.96545454545452"/>
      </g>
     </g>
     <g id="line2d_84">
      <g>
       <use style="stroke:#000000;stroke-width:0.5;" x="590.7006" xlink:href="#m4492c7ac21" y="241.96545454545452"/>
      </g>
     </g>
     <g id="text_41">
      <!-- 1.0 -->
      <g transform="translate(304.18445 245.27670454545444)scale(0.12 -0.12)">
       <use xlink:href="#BitstreamVeraSans-Roman-31"/>
       <use x="63.623046875" xlink:href="#BitstreamVeraSans-Roman-2e"/>
       <use x="95.41015625" xlink:href="#BitstreamVeraSans-Roman-30"/>
      </g>
     </g>
    </g>
   </g>
   <g id="text_42">
    <!-- 1.0 meV -->
    <g transform="translate(458.98440000000005 375.5290909090908)scale(0.08 -0.08)">
     <use xlink:href="#BitstreamVeraSans-Roman-31"/>
     <use x="63.623046875" xlink:href="#BitstreamVeraSans-Roman-2e"/>
     <use x="95.41015625" xlink:href="#BitstreamVeraSans-Roman-30"/>
     <use x="159.033203125" xlink:href="#BitstreamVeraSans-Roman-20"/>
     <use x="190.8203125" xlink:href="#BitstreamVeraSans-Roman-6d"/>
     <use x="288.232421875" xlink:href="#BitstreamVeraSans-Roman-65"/>
     <use x="349.755859375" xlink:href="#BitstreamVeraSans-Roman-56"/>
    </g>
   </g>
   <g id="legend_4">
    <g id="line2d_85">
     <path d="M 336.8682 235.74875 
L 348.0682 235.74875 
" style="fill:none;stroke:#0000ff;stroke-linecap:square;stroke-width:2.0;"/>
    </g>
    <g id="line2d_86"/>
    <g id="text_43">
     <!-- P300 -->
     <g transform="translate(356.8682 238.54874999999993)scale(0.08 -0.08)">
      <use xlink:href="#BitstreamVeraSans-Roman-50"/>
      <use x="60.302734375" xlink:href="#BitstreamVeraSans-Roman-33"/>
      <use x="123.92578125" xlink:href="#BitstreamVeraSans-Roman-30"/>
      <use x="187.548828125" xlink:href="#BitstreamVeraSans-Roman-30"/>
     </g>
    </g>
    <g id="line2d_87">
     <path d="M 336.8682 247.49125 
L 348.0682 247.49125 
" style="fill:none;stroke:#008000;stroke-linecap:square;stroke-width:2.0;"/>
    </g>
    <g id="line2d_88"/>
    <g id="text_44">
     <!-- N300 -->
     <g transform="translate(356.8682 250.29124999999988)scale(0.08 -0.08)">
      <use xlink:href="#BitstreamVeraSans-Roman-4e"/>
      <use x="74.8046875" xlink:href="#BitstreamVeraSans-Roman-33"/>
      <use x="138.427734375" xlink:href="#BitstreamVeraSans-Roman-30"/>
      <use x="202.05078125" xlink:href="#BitstreamVeraSans-Roman-30"/>
     </g>
    </g>
   </g>
  </g>
  <g id="axes_5">
   <g id="patch_22">
    <path d="M 30.3114 621.23 
L 293.7438 621.23 
L 293.7438 437.58 
L 30.3114 437.58 
z
" style="fill:#ffffff;"/>
   </g>
   <g id="line2d_89">
    <path clip-path="url(#p2d4a929a82)" d="M 30.3114 621.23 
L 37.066077 616.87129 
L 43.820754 604.527758 
L 50.575431 586.152793 
L 57.330108 564.332254 
L 64.084785 541.654965 
L 70.839462 520.271706 
L 77.594138 501.678342 
L 84.348815 486.668174 
L 91.103492 475.39308 
L 97.858169 467.500981 
L 104.612846 462.332922 
L 111.367523 459.139978 
L 118.1222 457.247414 
L 124.876877 456.141881 
L 131.631554 455.48375 
L 138.386231 455.072623 
L 145.140908 454.801359 
L 151.895585 454.616011 
L 158.650262 454.488915 
L 165.404938 454.403824 
L 172.159615 454.349157 
L 178.914292 454.315768 
L 185.668969 454.296448 
L 192.423646 454.285866 
L 199.178323 454.280376 
L 205.933 454.277674 
L 212.687677 454.27641 
L 219.442354 454.275848 
L 226.197031 454.275609 
L 232.951708 454.275513 
L 239.706385 454.275476 
L 246.461062 454.275462 
L 253.215738 454.275457 
L 259.970415 454.275455 
L 266.725092 454.275455 
L 273.479769 454.275455 
L 280.234446 454.275455 
L 286.989123 454.275455 
L 293.7438 454.275455 
" style="fill:none;stroke:#0000ff;stroke-linecap:square;stroke-width:2.0;"/>
   </g>
   <g id="line2d_90">
    <path clip-path="url(#p2d4a929a82)" d="M 30.3114 621.23 
L 37.066077 616.875813 
L 43.820754 604.618375 
L 50.575431 586.565861 
L 57.330108 565.408855 
L 64.084785 543.708408 
L 70.839462 523.472172 
L 77.594138 506.043836 
L 84.348815 492.149178 
L 91.103492 481.974032 
L 97.858169 475.234149 
L 104.612846 471.2749 
L 111.367523 469.231207 
L 118.1222 468.220585 
L 124.876877 467.516161 
L 131.631554 466.646027 
L 138.386231 465.408395 
L 145.140908 463.820265 
L 151.895585 462.032357 
L 158.650262 460.240268 
L 165.404938 458.614976 
L 172.159615 457.26464 
L 178.914292 456.227332 
L 185.668969 455.485341 
L 192.423646 454.988378 
L 199.178323 454.675331 
L 205.933 454.489213 
L 212.687677 454.384474 
L 219.442354 454.328553 
L 226.197031 454.300172 
L 232.951708 454.28646 
L 239.706385 454.280145 
L 246.461062 454.277369 
L 253.215738 454.276203 
L 259.970415 454.275735 
L 266.725092 454.275555 
L 273.479769 454.275489 
L 280.234446 454.275466 
L 286.989123 454.275458 
L 293.7438 454.275456 
" style="fill:none;stroke:#008000;stroke-linecap:square;stroke-width:2.0;"/>
   </g>
   <g id="patch_23">
    <path d="M 30.3114 437.58 
L 293.7438 437.58 
" style="fill:none;stroke:#000000;stroke-linecap:square;stroke-linejoin:miter;"/>
   </g>
   <g id="patch_24">
    <path d="M 293.7438 621.23 
L 293.7438 437.58 
" style="fill:none;stroke:#000000;stroke-linecap:square;stroke-linejoin:miter;"/>
   </g>
   <g id="patch_25">
    <path d="M 30.3114 621.23 
L 293.7438 621.23 
" style="fill:none;stroke:#000000;stroke-linecap:square;stroke-linejoin:miter;"/>
   </g>
   <g id="patch_26">
    <path d="M 30.3114 621.23 
L 30.3114 437.58 
" style="fill:none;stroke:#000000;stroke-linecap:square;stroke-linejoin:miter;"/>
   </g>
   <g id="matplotlib.axis_9">
    <g id="xtick_21">
     <g id="line2d_91">
      <g>
       <use style="stroke:#000000;stroke-width:0.5;" x="30.311400000000003" xlink:href="#mc21a41308e" y="621.23"/>
      </g>
     </g>
     <g id="line2d_92">
      <g>
       <use style="stroke:#000000;stroke-width:0.5;" x="30.311400000000003" xlink:href="#m65a0c4c9a8" y="437.58"/>
      </g>
     </g>
     <g id="text_45">
      <!-- 0 -->
      <g transform="translate(26.493900000000004 634.348125)scale(0.12 -0.12)">
       <use xlink:href="#BitstreamVeraSans-Roman-30"/>
      </g>
     </g>
    </g>
    <g id="xtick_22">
     <g id="line2d_93">
      <g>
       <use style="stroke:#000000;stroke-width:0.5;" x="96.16950000000001" xlink:href="#mc21a41308e" y="621.23"/>
      </g>
     </g>
     <g id="line2d_94">
      <g>
       <use style="stroke:#000000;stroke-width:0.5;" x="96.16950000000001" xlink:href="#m65a0c4c9a8" y="437.58"/>
      </g>
     </g>
     <g id="text_46">
      <!-- 1 -->
      <g transform="translate(92.35200000000002 634.348125)scale(0.12 -0.12)">
       <use xlink:href="#BitstreamVeraSans-Roman-31"/>
      </g>
     </g>
    </g>
    <g id="xtick_23">
     <g id="line2d_95">
      <g>
       <use style="stroke:#000000;stroke-width:0.5;" x="162.0276" xlink:href="#mc21a41308e" y="621.23"/>
      </g>
     </g>
     <g id="line2d_96">
      <g>
       <use style="stroke:#000000;stroke-width:0.5;" x="162.0276" xlink:href="#m65a0c4c9a8" y="437.58"/>
      </g>
     </g>
     <g id="text_47">
      <!-- 2 -->
      <g transform="translate(158.2101 634.348125)scale(0.12 -0.12)">
       <use xlink:href="#BitstreamVeraSans-Roman-32"/>
      </g>
     </g>
    </g>
    <g id="xtick_24">
     <g id="line2d_97">
      <g>
       <use style="stroke:#000000;stroke-width:0.5;" x="227.8857" xlink:href="#mc21a41308e" y="621.23"/>
      </g>
     </g>
     <g id="line2d_98">
      <g>
       <use style="stroke:#000000;stroke-width:0.5;" x="227.8857" xlink:href="#m65a0c4c9a8" y="437.58"/>
      </g>
     </g>
     <g id="text_48">
      <!-- 3 -->
      <g transform="translate(224.06820000000002 634.348125)scale(0.12 -0.12)">
       <use xlink:href="#BitstreamVeraSans-Roman-33"/>
      </g>
     </g>
    </g>
    <g id="xtick_25">
     <g id="line2d_99">
      <g>
       <use style="stroke:#000000;stroke-width:0.5;" x="293.7438" xlink:href="#mc21a41308e" y="621.23"/>
      </g>
     </g>
     <g id="line2d_100">
      <g>
       <use style="stroke:#000000;stroke-width:0.5;" x="293.7438" xlink:href="#m65a0c4c9a8" y="437.58"/>
      </g>
     </g>
     <g id="text_49">
      <!-- 4 -->
      <g transform="translate(289.9263 634.348125)scale(0.12 -0.12)">
       <use xlink:href="#BitstreamVeraSans-Roman-34"/>
      </g>
     </g>
    </g>
   </g>
   <g id="matplotlib.axis_10">
    <g id="ytick_13">
     <g id="line2d_101">
      <g>
       <use style="stroke:#000000;stroke-width:0.5;" x="30.311400000000003" xlink:href="#m73974ca3c6" y="621.23"/>
      </g>
     </g>
     <g id="line2d_102">
      <g>
       <use style="stroke:#000000;stroke-width:0.5;" x="293.7438" xlink:href="#m4492c7ac21" y="621.23"/>
      </g>
     </g>
     <g id="text_50">
      <!-- 0.0 -->
      <g transform="translate(7.227650000000004 624.54125)scale(0.12 -0.12)">
       <use xlink:href="#BitstreamVeraSans-Roman-30"/>
       <use x="63.623046875" xlink:href="#BitstreamVeraSans-Roman-2e"/>
       <use x="95.41015625" xlink:href="#BitstreamVeraSans-Roman-30"/>
      </g>
     </g>
    </g>
    <g id="ytick_14">
     <g id="line2d_103">
      <g>
       <use style="stroke:#000000;stroke-width:0.5;" x="30.311400000000003" xlink:href="#m73974ca3c6" y="537.7527272727273"/>
      </g>
     </g>
     <g id="line2d_104">
      <g>
       <use style="stroke:#000000;stroke-width:0.5;" x="293.7438" xlink:href="#m4492c7ac21" y="537.7527272727273"/>
      </g>
     </g>
     <g id="text_51">
      <!-- 0.5 -->
      <g transform="translate(7.227650000000004 541.0639772727272)scale(0.12 -0.12)">
       <use xlink:href="#BitstreamVeraSans-Roman-30"/>
       <use x="63.623046875" xlink:href="#BitstreamVeraSans-Roman-2e"/>
       <use x="95.41015625" xlink:href="#BitstreamVeraSans-Roman-35"/>
      </g>
     </g>
    </g>
    <g id="ytick_15">
     <g id="line2d_105">
      <g>
       <use style="stroke:#000000;stroke-width:0.5;" x="30.311400000000003" xlink:href="#m73974ca3c6" y="454.2754545454545"/>
      </g>
     </g>
     <g id="line2d_106">
      <g>
       <use style="stroke:#000000;stroke-width:0.5;" x="293.7438" xlink:href="#m4492c7ac21" y="454.2754545454545"/>
      </g>
     </g>
     <g id="text_52">
      <!-- 1.0 -->
      <g transform="translate(7.227650000000004 457.5867045454545)scale(0.12 -0.12)">
       <use xlink:href="#BitstreamVeraSans-Roman-31"/>
       <use x="63.623046875" xlink:href="#BitstreamVeraSans-Roman-2e"/>
       <use x="95.41015625" xlink:href="#BitstreamVeraSans-Roman-30"/>
      </g>
     </g>
    </g>
   </g>
   <g id="text_53">
    <!-- 1.15 meV -->
    <g transform="translate(162.0276 587.8390909090909)scale(0.08 -0.08)">
     <use xlink:href="#BitstreamVeraSans-Roman-31"/>
     <use x="63.623046875" xlink:href="#BitstreamVeraSans-Roman-2e"/>
     <use x="95.41015625" xlink:href="#BitstreamVeraSans-Roman-31"/>
     <use x="159.033203125" xlink:href="#BitstreamVeraSans-Roman-35"/>
     <use x="222.65625" xlink:href="#BitstreamVeraSans-Roman-20"/>
     <use x="254.443359375" xlink:href="#BitstreamVeraSans-Roman-6d"/>
     <use x="351.85546875" xlink:href="#BitstreamVeraSans-Roman-65"/>
     <use x="413.37890625" xlink:href="#BitstreamVeraSans-Roman-56"/>
    </g>
   </g>
   <g id="legend_5">
    <g id="line2d_107">
     <path d="M 39.9114 448.05875 
L 51.1114 448.05875 
" style="fill:none;stroke:#0000ff;stroke-linecap:square;stroke-width:2.0;"/>
    </g>
    <g id="line2d_108"/>
    <g id="text_54">
     <!-- P300 -->
     <g transform="translate(59.91140000000001 450.85875)scale(0.08 -0.08)">
      <use xlink:href="#BitstreamVeraSans-Roman-50"/>
      <use x="60.302734375" xlink:href="#BitstreamVeraSans-Roman-33"/>
      <use x="123.92578125" xlink:href="#BitstreamVeraSans-Roman-30"/>
      <use x="187.548828125" xlink:href="#BitstreamVeraSans-Roman-30"/>
     </g>
    </g>
    <g id="line2d_109">
     <path d="M 39.9114 459.80125 
L 51.1114 459.80125 
" style="fill:none;stroke:#008000;stroke-linecap:square;stroke-width:2.0;"/>
    </g>
    <g id="line2d_110"/>
    <g id="text_55">
     <!-- N300 -->
     <g transform="translate(59.91140000000001 462.60125)scale(0.08 -0.08)">
      <use xlink:href="#BitstreamVeraSans-Roman-4e"/>
      <use x="74.8046875" xlink:href="#BitstreamVeraSans-Roman-33"/>
      <use x="138.427734375" xlink:href="#BitstreamVeraSans-Roman-30"/>
      <use x="202.05078125" xlink:href="#BitstreamVeraSans-Roman-30"/>
     </g>
    </g>
   </g>
  </g>
  <g id="axes_6">
   <g id="patch_27">
    <path d="M 327.2682 621.23 
L 590.7006 621.23 
L 590.7006 437.58 
L 327.2682 437.58 
z
" style="fill:#ffffff;"/>
   </g>
   <g id="line2d_111">
    <path clip-path="url(#p663db107be)" d="M 327.2682 621.23 
L 334.022877 616.839661 
L 340.777554 604.419332 
L 347.532231 585.971579 
L 354.286908 564.14596 
L 361.041585 541.57115 
L 367.796262 520.3811 
L 374.550938 502.000543 
L 381.305615 487.144384 
L 388.060292 475.920752 
L 394.814969 467.993956 
L 401.569646 462.759034 
L 408.324323 459.516774 
L 415.079 457.613127 
L 421.833677 456.525794 
L 428.588354 455.892108 
L 435.343031 455.490874 
L 442.097708 455.204474 
L 448.852385 454.979238 
L 455.607062 454.794984 
L 462.361738 454.645595 
L 469.116415 454.528739 
L 475.871092 454.441583 
L 482.625769 454.379843 
L 489.380446 454.338318 
L 496.135123 454.311766 
L 502.8898 454.295593 
L 509.644477 454.286191 
L 516.399154 454.280963 
L 523.153831 454.278177 
L 529.908508 454.276752 
L 536.663185 454.276052 
L 543.417862 454.27572 
L 550.172538 454.275568 
L 556.927215 454.275502 
L 563.681892 454.275474 
L 570.436569 454.275462 
L 577.191246 454.275457 
L 583.945923 454.275456 
L 590.7006 454.275455 
" style="fill:none;stroke:#0000ff;stroke-linecap:square;stroke-width:2.0;"/>
   </g>
   <g id="line2d_112">
    <path clip-path="url(#p663db107be)" d="M 327.2682 621.23 
L 334.022877 616.82518 
L 340.777554 604.459557 
L 347.532231 586.361896 
L 354.286908 565.379499 
L 361.041585 544.185395 
L 367.796262 524.776811 
L 374.550938 508.34509 
L 381.305615 495.390268 
L 388.060292 485.920807 
L 394.814969 479.624424 
L 401.569646 475.980834 
L 408.324323 474.337506 
L 415.079 473.980794 
L 421.833677 474.219683 
L 428.588354 474.469034 
L 435.343031 474.311194 
L 442.097708 473.522043 
L 448.852385 472.061461 
L 455.607062 470.036356 
L 462.361738 467.647605 
L 469.116415 465.131903 
L 475.871092 462.709671 
L 482.625769 460.548199 
L 489.380446 458.744771 
L 496.135123 457.328952 
L 502.8898 456.277965 
L 509.644477 455.537377 
L 516.399154 455.040368 
L 523.153831 454.721855 
L 529.908508 454.526492 
L 536.663185 454.411593 
L 543.417862 454.346697 
L 550.172538 454.311452 
L 556.927215 454.293026 
L 563.681892 454.283745 
L 570.436569 454.279237 
L 577.191246 454.277124 
L 583.945923 454.276167 
L 590.7006 454.275749 
" style="fill:none;stroke:#008000;stroke-linecap:square;stroke-width:2.0;"/>
   </g>
   <g id="patch_28">
    <path d="M 327.2682 437.58 
L 590.7006 437.58 
" style="fill:none;stroke:#000000;stroke-linecap:square;stroke-linejoin:miter;"/>
   </g>
   <g id="patch_29">
    <path d="M 590.7006 621.23 
L 590.7006 437.58 
" style="fill:none;stroke:#000000;stroke-linecap:square;stroke-linejoin:miter;"/>
   </g>
   <g id="patch_30">
    <path d="M 327.2682 621.23 
L 590.7006 621.23 
" style="fill:none;stroke:#000000;stroke-linecap:square;stroke-linejoin:miter;"/>
   </g>
   <g id="patch_31">
    <path d="M 327.2682 621.23 
L 327.2682 437.58 
" style="fill:none;stroke:#000000;stroke-linecap:square;stroke-linejoin:miter;"/>
   </g>
   <g id="matplotlib.axis_11">
    <g id="xtick_26">
     <g id="line2d_113">
      <g>
       <use style="stroke:#000000;stroke-width:0.5;" x="327.26820000000004" xlink:href="#mc21a41308e" y="621.23"/>
      </g>
     </g>
     <g id="line2d_114">
      <g>
       <use style="stroke:#000000;stroke-width:0.5;" x="327.26820000000004" xlink:href="#m65a0c4c9a8" y="437.58"/>
      </g>
     </g>
     <g id="text_56">
      <!-- 0 -->
      <g transform="translate(323.45070000000004 634.348125)scale(0.12 -0.12)">
       <use xlink:href="#BitstreamVeraSans-Roman-30"/>
      </g>
     </g>
    </g>
    <g id="xtick_27">
     <g id="line2d_115">
      <g>
       <use style="stroke:#000000;stroke-width:0.5;" x="393.1263" xlink:href="#mc21a41308e" y="621.23"/>
      </g>
     </g>
     <g id="line2d_116">
      <g>
       <use style="stroke:#000000;stroke-width:0.5;" x="393.1263" xlink:href="#m65a0c4c9a8" y="437.58"/>
      </g>
     </g>
     <g id="text_57">
      <!-- 1 -->
      <g transform="translate(389.3088 634.348125)scale(0.12 -0.12)">
       <use xlink:href="#BitstreamVeraSans-Roman-31"/>
      </g>
     </g>
    </g>
    <g id="xtick_28">
     <g id="line2d_117">
      <g>
       <use style="stroke:#000000;stroke-width:0.5;" x="458.98440000000005" xlink:href="#mc21a41308e" y="621.23"/>
      </g>
     </g>
     <g id="line2d_118">
      <g>
       <use style="stroke:#000000;stroke-width:0.5;" x="458.98440000000005" xlink:href="#m65a0c4c9a8" y="437.58"/>
      </g>
     </g>
     <g id="text_58">
      <!-- 2 -->
      <g transform="translate(455.16690000000006 634.348125)scale(0.12 -0.12)">
       <use xlink:href="#BitstreamVeraSans-Roman-32"/>
      </g>
     </g>
    </g>
    <g id="xtick_29">
     <g id="line2d_119">
      <g>
       <use style="stroke:#000000;stroke-width:0.5;" x="524.8425" xlink:href="#mc21a41308e" y="621.23"/>
      </g>
     </g>
     <g id="line2d_120">
      <g>
       <use style="stroke:#000000;stroke-width:0.5;" x="524.8425" xlink:href="#m65a0c4c9a8" y="437.58"/>
      </g>
     </g>
     <g id="text_59">
      <!-- 3 -->
      <g transform="translate(521.025 634.348125)scale(0.12 -0.12)">
       <use xlink:href="#BitstreamVeraSans-Roman-33"/>
      </g>
     </g>
    </g>
    <g id="xtick_30">
     <g id="line2d_121">
      <g>
       <use style="stroke:#000000;stroke-width:0.5;" x="590.7006" xlink:href="#mc21a41308e" y="621.23"/>
      </g>
     </g>
     <g id="line2d_122">
      <g>
       <use style="stroke:#000000;stroke-width:0.5;" x="590.7006" xlink:href="#m65a0c4c9a8" y="437.58"/>
      </g>
     </g>
     <g id="text_60">
      <!-- 4 -->
      <g transform="translate(586.8831 634.348125)scale(0.12 -0.12)">
       <use xlink:href="#BitstreamVeraSans-Roman-34"/>
      </g>
     </g>
    </g>
   </g>
   <g id="matplotlib.axis_12">
    <g id="ytick_16">
     <g id="line2d_123">
      <g>
       <use style="stroke:#000000;stroke-width:0.5;" x="327.26820000000004" xlink:href="#m73974ca3c6" y="621.23"/>
      </g>
     </g>
     <g id="line2d_124">
      <g>
       <use style="stroke:#000000;stroke-width:0.5;" x="590.7006" xlink:href="#m4492c7ac21" y="621.23"/>
      </g>
     </g>
     <g id="text_61">
      <!-- 0.0 -->
      <g transform="translate(304.18445 624.54125)scale(0.12 -0.12)">
       <use xlink:href="#BitstreamVeraSans-Roman-30"/>
       <use x="63.623046875" xlink:href="#BitstreamVeraSans-Roman-2e"/>
       <use x="95.41015625" xlink:href="#BitstreamVeraSans-Roman-30"/>
      </g>
     </g>
    </g>
    <g id="ytick_17">
     <g id="line2d_125">
      <g>
       <use style="stroke:#000000;stroke-width:0.5;" x="327.26820000000004" xlink:href="#m73974ca3c6" y="537.7527272727273"/>
      </g>
     </g>
     <g id="line2d_126">
      <g>
       <use style="stroke:#000000;stroke-width:0.5;" x="590.7006" xlink:href="#m4492c7ac21" y="537.7527272727273"/>
      </g>
     </g>
     <g id="text_62">
      <!-- 0.5 -->
      <g transform="translate(304.18445 541.0639772727272)scale(0.12 -0.12)">
       <use xlink:href="#BitstreamVeraSans-Roman-30"/>
       <use x="63.623046875" xlink:href="#BitstreamVeraSans-Roman-2e"/>
       <use x="95.41015625" xlink:href="#BitstreamVeraSans-Roman-35"/>
      </g>
     </g>
    </g>
    <g id="ytick_18">
     <g id="line2d_127">
      <g>
       <use style="stroke:#000000;stroke-width:0.5;" x="327.26820000000004" xlink:href="#m73974ca3c6" y="454.2754545454545"/>
      </g>
     </g>
     <g id="line2d_128">
      <g>
       <use style="stroke:#000000;stroke-width:0.5;" x="590.7006" xlink:href="#m4492c7ac21" y="454.2754545454545"/>
      </g>
     </g>
     <g id="text_63">
      <!-- 1.0 -->
      <g transform="translate(304.18445 457.5867045454545)scale(0.12 -0.12)">
       <use xlink:href="#BitstreamVeraSans-Roman-31"/>
       <use x="63.623046875" xlink:href="#BitstreamVeraSans-Roman-2e"/>
       <use x="95.41015625" xlink:href="#BitstreamVeraSans-Roman-30"/>
      </g>
     </g>
    </g>
   </g>
   <g id="text_64">
    <!-- 1.3 meV -->
    <g transform="translate(458.98440000000005 587.8390909090909)scale(0.08 -0.08)">
     <use xlink:href="#BitstreamVeraSans-Roman-31"/>
     <use x="63.623046875" xlink:href="#BitstreamVeraSans-Roman-2e"/>
     <use x="95.41015625" xlink:href="#BitstreamVeraSans-Roman-33"/>
     <use x="159.033203125" xlink:href="#BitstreamVeraSans-Roman-20"/>
     <use x="190.8203125" xlink:href="#BitstreamVeraSans-Roman-6d"/>
     <use x="288.232421875" xlink:href="#BitstreamVeraSans-Roman-65"/>
     <use x="349.755859375" xlink:href="#BitstreamVeraSans-Roman-56"/>
    </g>
   </g>
   <g id="legend_6">
    <g id="line2d_129">
     <path d="M 336.8682 448.05875 
L 348.0682 448.05875 
" style="fill:none;stroke:#0000ff;stroke-linecap:square;stroke-width:2.0;"/>
    </g>
    <g id="line2d_130"/>
    <g id="text_65">
     <!-- P300 -->
     <g transform="translate(356.8682 450.85875)scale(0.08 -0.08)">
      <use xlink:href="#BitstreamVeraSans-Roman-50"/>
      <use x="60.302734375" xlink:href="#BitstreamVeraSans-Roman-33"/>
      <use x="123.92578125" xlink:href="#BitstreamVeraSans-Roman-30"/>
      <use x="187.548828125" xlink:href="#BitstreamVeraSans-Roman-30"/>
     </g>
    </g>
    <g id="line2d_131">
     <path d="M 336.8682 459.80125 
L 348.0682 459.80125 
" style="fill:none;stroke:#008000;stroke-linecap:square;stroke-width:2.0;"/>
    </g>
    <g id="line2d_132"/>
    <g id="text_66">
     <!-- N300 -->
     <g transform="translate(356.8682 462.60125)scale(0.08 -0.08)">
      <use xlink:href="#BitstreamVeraSans-Roman-4e"/>
      <use x="74.8046875" xlink:href="#BitstreamVeraSans-Roman-33"/>
      <use x="138.427734375" xlink:href="#BitstreamVeraSans-Roman-30"/>
      <use x="202.05078125" xlink:href="#BitstreamVeraSans-Roman-30"/>
     </g>
    </g>
   </g>
  </g>
  <g id="axes_7">
   <g id="patch_32">
    <path d="M 30.3114 833.54 
L 293.7438 833.54 
L 293.7438 649.89 
L 30.3114 649.89 
z
" style="fill:#ffffff;"/>
   </g>
   <g id="line2d_133">
    <path clip-path="url(#p7bf3ac3684)" d="M 30.3114 833.54 
L 37.066077 829.113105 
L 43.820754 816.601397 
L 50.575431 798.059039 
L 57.330108 776.200845 
L 64.084785 753.705374 
L 70.839462 732.706869 
L 77.594138 714.576843 
L 84.348815 699.94841 
L 91.103492 688.862267 
L 97.858169 680.960785 
L 104.612846 675.665008 
L 111.367523 672.327169 
L 118.1222 670.339697 
L 124.876877 669.204136 
L 131.631554 668.557328 
L 138.386231 668.163636 
L 145.140908 667.88806 
L 151.895585 667.663774 
L 158.650262 667.46424 
L 165.404938 667.28316 
L 172.159615 667.122195 
L 178.914292 666.984491 
L 185.668969 666.871799 
L 192.423646 666.783703 
L 199.178323 666.717891 
L 205.933 666.670856 
L 212.687677 666.63865 
L 219.442354 666.617488 
L 226.197031 666.604122 
L 232.951708 666.595991 
L 239.706385 666.591221 
L 246.461062 666.588518 
L 253.215738 666.587035 
L 259.970415 666.586247 
L 266.725092 666.585841 
L 273.479769 666.585638 
L 280.234446 666.585539 
L 286.989123 666.585493 
L 293.7438 666.585471 
" style="fill:none;stroke:#0000ff;stroke-linecap:square;stroke-width:2.0;"/>
   </g>
   <g id="line2d_134">
    <path clip-path="url(#p7bf3ac3684)" d="M 30.3114 833.54 
L 37.066077 829.086826 
L 43.820754 816.621058 
L 50.575431 798.494681 
L 57.330108 777.715381 
L 64.084785 757.083014 
L 70.839462 738.622707 
L 77.594138 723.41471 
L 84.348815 711.750232 
L 91.103492 703.403184 
L 97.858169 697.906348 
L 104.612846 694.725931 
L 111.367523 693.341658 
L 118.1222 693.256882 
L 124.876877 693.986121 
L 131.631554 695.055556 
L 138.386231 696.029127 
L 145.140908 696.54682 
L 151.895585 696.358667 
L 158.650262 695.343422 
L 165.404938 693.507879 
L 172.159615 690.969688 
L 178.914292 687.927445 
L 185.668969 684.622836 
L 192.423646 681.300525 
L 199.178323 678.17268 
L 205.933 675.394576 
L 212.687677 673.054437 
L 219.442354 671.177266 
L 226.197031 669.738425 
L 232.951708 668.681524 
L 239.706385 667.935666 
L 246.461062 667.428882 
L 253.215738 667.096731 
L 259.970415 666.886412 
L 266.725092 666.75758 
L 273.479769 666.681151 
L 280.234446 666.637199 
L 286.989123 666.612677 
L 293.7438 666.599394 
" style="fill:none;stroke:#008000;stroke-linecap:square;stroke-width:2.0;"/>
   </g>
   <g id="patch_33">
    <path d="M 30.3114 649.89 
L 293.7438 649.89 
" style="fill:none;stroke:#000000;stroke-linecap:square;stroke-linejoin:miter;"/>
   </g>
   <g id="patch_34">
    <path d="M 293.7438 833.54 
L 293.7438 649.89 
" style="fill:none;stroke:#000000;stroke-linecap:square;stroke-linejoin:miter;"/>
   </g>
   <g id="patch_35">
    <path d="M 30.3114 833.54 
L 293.7438 833.54 
" style="fill:none;stroke:#000000;stroke-linecap:square;stroke-linejoin:miter;"/>
   </g>
   <g id="patch_36">
    <path d="M 30.3114 833.54 
L 30.3114 649.89 
" style="fill:none;stroke:#000000;stroke-linecap:square;stroke-linejoin:miter;"/>
   </g>
   <g id="matplotlib.axis_13">
    <g id="xtick_31">
     <g id="line2d_135">
      <g>
       <use style="stroke:#000000;stroke-width:0.5;" x="30.311400000000003" xlink:href="#mc21a41308e" y="833.5400000000001"/>
      </g>
     </g>
     <g id="line2d_136">
      <g>
       <use style="stroke:#000000;stroke-width:0.5;" x="30.311400000000003" xlink:href="#m65a0c4c9a8" y="649.8900000000001"/>
      </g>
     </g>
     <g id="text_67">
      <!-- 0 -->
      <g transform="translate(26.493900000000004 846.658125)scale(0.12 -0.12)">
       <use xlink:href="#BitstreamVeraSans-Roman-30"/>
      </g>
     </g>
    </g>
    <g id="xtick_32">
     <g id="line2d_137">
      <g>
       <use style="stroke:#000000;stroke-width:0.5;" x="96.16950000000001" xlink:href="#mc21a41308e" y="833.5400000000001"/>
      </g>
     </g>
     <g id="line2d_138">
      <g>
       <use style="stroke:#000000;stroke-width:0.5;" x="96.16950000000001" xlink:href="#m65a0c4c9a8" y="649.8900000000001"/>
      </g>
     </g>
     <g id="text_68">
      <!-- 1 -->
      <g transform="translate(92.35200000000002 846.658125)scale(0.12 -0.12)">
       <use xlink:href="#BitstreamVeraSans-Roman-31"/>
      </g>
     </g>
    </g>
    <g id="xtick_33">
     <g id="line2d_139">
      <g>
       <use style="stroke:#000000;stroke-width:0.5;" x="162.0276" xlink:href="#mc21a41308e" y="833.5400000000001"/>
      </g>
     </g>
     <g id="line2d_140">
      <g>
       <use style="stroke:#000000;stroke-width:0.5;" x="162.0276" xlink:href="#m65a0c4c9a8" y="649.8900000000001"/>
      </g>
     </g>
     <g id="text_69">
      <!-- 2 -->
      <g transform="translate(158.2101 846.658125)scale(0.12 -0.12)">
       <use xlink:href="#BitstreamVeraSans-Roman-32"/>
      </g>
     </g>
    </g>
    <g id="xtick_34">
     <g id="line2d_141">
      <g>
       <use style="stroke:#000000;stroke-width:0.5;" x="227.8857" xlink:href="#mc21a41308e" y="833.5400000000001"/>
      </g>
     </g>
     <g id="line2d_142">
      <g>
       <use style="stroke:#000000;stroke-width:0.5;" x="227.8857" xlink:href="#m65a0c4c9a8" y="649.8900000000001"/>
      </g>
     </g>
     <g id="text_70">
      <!-- 3 -->
      <g transform="translate(224.06820000000002 846.658125)scale(0.12 -0.12)">
       <use xlink:href="#BitstreamVeraSans-Roman-33"/>
      </g>
     </g>
    </g>
    <g id="xtick_35">
     <g id="line2d_143">
      <g>
       <use style="stroke:#000000;stroke-width:0.5;" x="293.7438" xlink:href="#mc21a41308e" y="833.5400000000001"/>
      </g>
     </g>
     <g id="line2d_144">
      <g>
       <use style="stroke:#000000;stroke-width:0.5;" x="293.7438" xlink:href="#m65a0c4c9a8" y="649.8900000000001"/>
      </g>
     </g>
     <g id="text_71">
      <!-- 4 -->
      <g transform="translate(289.9263 846.658125)scale(0.12 -0.12)">
       <use xlink:href="#BitstreamVeraSans-Roman-34"/>
      </g>
     </g>
    </g>
   </g>
   <g id="matplotlib.axis_14">
    <g id="ytick_19">
     <g id="line2d_145">
      <g>
       <use style="stroke:#000000;stroke-width:0.5;" x="30.311400000000003" xlink:href="#m73974ca3c6" y="833.5400000000001"/>
      </g>
     </g>
     <g id="line2d_146">
      <g>
       <use style="stroke:#000000;stroke-width:0.5;" x="293.7438" xlink:href="#m4492c7ac21" y="833.5400000000001"/>
      </g>
     </g>
     <g id="text_72">
      <!-- 0.0 -->
      <g transform="translate(7.227650000000004 836.85125)scale(0.12 -0.12)">
       <use xlink:href="#BitstreamVeraSans-Roman-30"/>
       <use x="63.623046875" xlink:href="#BitstreamVeraSans-Roman-2e"/>
       <use x="95.41015625" xlink:href="#BitstreamVeraSans-Roman-30"/>
      </g>
     </g>
    </g>
    <g id="ytick_20">
     <g id="line2d_147">
      <g>
       <use style="stroke:#000000;stroke-width:0.5;" x="30.311400000000003" xlink:href="#m73974ca3c6" y="750.0627272727273"/>
      </g>
     </g>
     <g id="line2d_148">
      <g>
       <use style="stroke:#000000;stroke-width:0.5;" x="293.7438" xlink:href="#m4492c7ac21" y="750.0627272727273"/>
      </g>
     </g>
     <g id="text_73">
      <!-- 0.5 -->
      <g transform="translate(7.227650000000004 753.3739772727273)scale(0.12 -0.12)">
       <use xlink:href="#BitstreamVeraSans-Roman-30"/>
       <use x="63.623046875" xlink:href="#BitstreamVeraSans-Roman-2e"/>
       <use x="95.41015625" xlink:href="#BitstreamVeraSans-Roman-35"/>
      </g>
     </g>
    </g>
    <g id="ytick_21">
     <g id="line2d_149">
      <g>
       <use style="stroke:#000000;stroke-width:0.5;" x="30.311400000000003" xlink:href="#m73974ca3c6" y="666.5854545454546"/>
      </g>
     </g>
     <g id="line2d_150">
      <g>
       <use style="stroke:#000000;stroke-width:0.5;" x="293.7438" xlink:href="#m4492c7ac21" y="666.5854545454546"/>
      </g>
     </g>
     <g id="text_74">
      <!-- 1.0 -->
      <g transform="translate(7.227650000000004 669.8967045454546)scale(0.12 -0.12)">
       <use xlink:href="#BitstreamVeraSans-Roman-31"/>
       <use x="63.623046875" xlink:href="#BitstreamVeraSans-Roman-2e"/>
       <use x="95.41015625" xlink:href="#BitstreamVeraSans-Roman-30"/>
      </g>
     </g>
    </g>
   </g>
   <g id="text_75">
    <!-- 1.45 meV -->
    <g transform="translate(162.0276 800.1490909090909)scale(0.08 -0.08)">
     <use xlink:href="#BitstreamVeraSans-Roman-31"/>
     <use x="63.623046875" xlink:href="#BitstreamVeraSans-Roman-2e"/>
     <use x="95.41015625" xlink:href="#BitstreamVeraSans-Roman-34"/>
     <use x="159.033203125" xlink:href="#BitstreamVeraSans-Roman-35"/>
     <use x="222.65625" xlink:href="#BitstreamVeraSans-Roman-20"/>
     <use x="254.443359375" xlink:href="#BitstreamVeraSans-Roman-6d"/>
     <use x="351.85546875" xlink:href="#BitstreamVeraSans-Roman-65"/>
     <use x="413.37890625" xlink:href="#BitstreamVeraSans-Roman-56"/>
    </g>
   </g>
   <g id="legend_7">
    <g id="line2d_151">
     <path d="M 39.9114 660.36875 
L 51.1114 660.36875 
" style="fill:none;stroke:#0000ff;stroke-linecap:square;stroke-width:2.0;"/>
    </g>
    <g id="line2d_152"/>
    <g id="text_76">
     <!-- P300 -->
     <g transform="translate(59.91140000000001 663.16875)scale(0.08 -0.08)">
      <use xlink:href="#BitstreamVeraSans-Roman-50"/>
      <use x="60.302734375" xlink:href="#BitstreamVeraSans-Roman-33"/>
      <use x="123.92578125" xlink:href="#BitstreamVeraSans-Roman-30"/>
      <use x="187.548828125" xlink:href="#BitstreamVeraSans-Roman-30"/>
     </g>
    </g>
    <g id="line2d_153">
     <path d="M 39.9114 672.11125 
L 51.1114 672.11125 
" style="fill:none;stroke:#008000;stroke-linecap:square;stroke-width:2.0;"/>
    </g>
    <g id="line2d_154"/>
    <g id="text_77">
     <!-- N300 -->
     <g transform="translate(59.91140000000001 674.91125)scale(0.08 -0.08)">
      <use xlink:href="#BitstreamVeraSans-Roman-4e"/>
      <use x="74.8046875" xlink:href="#BitstreamVeraSans-Roman-33"/>
      <use x="138.427734375" xlink:href="#BitstreamVeraSans-Roman-30"/>
      <use x="202.05078125" xlink:href="#BitstreamVeraSans-Roman-30"/>
     </g>
    </g>
   </g>
  </g>
  <g id="axes_8">
   <g id="patch_37">
    <path d="M 327.2682 833.54 
L 590.7006 833.54 
L 590.7006 649.89 
L 327.2682 649.89 
z
" style="fill:#ffffff;"/>
   </g>
   <g id="line2d_155">
    <path clip-path="url(#pa5df8da182)" d="M 327.2682 833.54 
L 334.022877 829.071492 
L 340.777554 816.454324 
L 347.532231 797.795371 
L 354.286908 775.8776 
L 361.041585 753.434055 
L 367.796262 732.610582 
L 374.550938 714.741482 
L 381.305615 700.385232 
L 388.060292 689.509514 
L 394.814969 681.71056 
L 401.569646 676.407469 
L 408.324323 672.984829 
L 415.079 670.881992 
L 421.833677 669.640718 
L 428.588354 668.920155 
L 435.343031 668.488156 
L 442.097708 668.201089 
L 448.852385 667.979127 
L 455.607062 667.783737 
L 462.361738 667.600395 
L 469.116415 667.426773 
L 475.871092 667.26557 
L 482.625769 667.120578 
L 489.380446 666.994774 
L 496.135123 666.889607 
L 502.8898 666.804914 
L 509.644477 666.739194 
L 516.399154 666.690029 
L 523.153831 666.654547 
L 529.908508 666.62982 
L 536.663185 666.613161 
L 543.417862 666.602296 
L 550.172538 666.595428 
L 556.927215 666.591213 
L 563.681892 666.588699 
L 570.436569 666.58724 
L 577.191246 666.586415 
L 583.945923 666.58596 
L 590.7006 666.585715 
" style="fill:none;stroke:#0000ff;stroke-linecap:square;stroke-width:2.0;"/>
   </g>
   <g id="line2d_156">
    <path clip-path="url(#pa5df8da182)" d="M 327.2682 833.54 
L 334.022877 829.038206 
L 340.777554 816.473377 
L 347.532231 798.322682 
L 354.286908 777.75654 
L 361.041585 757.710159 
L 367.796262 740.25401 
L 374.550938 726.395246 
L 381.305615 716.248927 
L 388.060292 709.365243 
L 394.814969 705.07297 
L 401.569646 702.718186 
L 408.324323 701.786355 
L 415.079 701.906977 
L 421.833677 702.798723 
L 428.588354 704.19977 
L 435.343031 705.825151 
L 442.097708 707.364891 
L 448.852385 708.513074 
L 455.607062 709.00753 
L 462.361738 708.662725 
L 469.116415 707.3883 
L 475.871092 705.193204 
L 482.625769 702.178195 
L 489.380446 698.519184 
L 496.135123 694.443229 
L 502.8898 690.199213 
L 509.644477 686.027061 
L 516.399154 682.130483 
L 523.153831 678.658029 
L 529.908508 675.695314 
L 536.663185 673.268234 
L 543.417862 671.354325 
L 550.172538 669.898233 
L 556.927215 668.827258 
L 563.681892 668.064318 
L 570.436569 667.537072 
L 577.191246 667.183115 
L 583.945923 666.952004 
L 590.7006 666.805089 
" style="fill:none;stroke:#008000;stroke-linecap:square;stroke-width:2.0;"/>
   </g>
   <g id="patch_38">
    <path d="M 327.2682 649.89 
L 590.7006 649.89 
" style="fill:none;stroke:#000000;stroke-linecap:square;stroke-linejoin:miter;"/>
   </g>
   <g id="patch_39">
    <path d="M 590.7006 833.54 
L 590.7006 649.89 
" style="fill:none;stroke:#000000;stroke-linecap:square;stroke-linejoin:miter;"/>
   </g>
   <g id="patch_40">
    <path d="M 327.2682 833.54 
L 590.7006 833.54 
" style="fill:none;stroke:#000000;stroke-linecap:square;stroke-linejoin:miter;"/>
   </g>
   <g id="patch_41">
    <path d="M 327.2682 833.54 
L 327.2682 649.89 
" style="fill:none;stroke:#000000;stroke-linecap:square;stroke-linejoin:miter;"/>
   </g>
   <g id="matplotlib.axis_15">
    <g id="xtick_36">
     <g id="line2d_157">
      <g>
       <use style="stroke:#000000;stroke-width:0.5;" x="327.26820000000004" xlink:href="#mc21a41308e" y="833.5400000000001"/>
      </g>
     </g>
     <g id="line2d_158">
      <g>
       <use style="stroke:#000000;stroke-width:0.5;" x="327.26820000000004" xlink:href="#m65a0c4c9a8" y="649.8900000000001"/>
      </g>
     </g>
     <g id="text_78">
      <!-- 0 -->
      <g transform="translate(323.45070000000004 846.658125)scale(0.12 -0.12)">
       <use xlink:href="#BitstreamVeraSans-Roman-30"/>
      </g>
     </g>
    </g>
    <g id="xtick_37">
     <g id="line2d_159">
      <g>
       <use style="stroke:#000000;stroke-width:0.5;" x="393.1263" xlink:href="#mc21a41308e" y="833.5400000000001"/>
      </g>
     </g>
     <g id="line2d_160">
      <g>
       <use style="stroke:#000000;stroke-width:0.5;" x="393.1263" xlink:href="#m65a0c4c9a8" y="649.8900000000001"/>
      </g>
     </g>
     <g id="text_79">
      <!-- 1 -->
      <g transform="translate(389.3088 846.658125)scale(0.12 -0.12)">
       <use xlink:href="#BitstreamVeraSans-Roman-31"/>
      </g>
     </g>
    </g>
    <g id="xtick_38">
     <g id="line2d_161">
      <g>
       <use style="stroke:#000000;stroke-width:0.5;" x="458.98440000000005" xlink:href="#mc21a41308e" y="833.5400000000001"/>
      </g>
     </g>
     <g id="line2d_162">
      <g>
       <use style="stroke:#000000;stroke-width:0.5;" x="458.98440000000005" xlink:href="#m65a0c4c9a8" y="649.8900000000001"/>
      </g>
     </g>
     <g id="text_80">
      <!-- 2 -->
      <g transform="translate(455.16690000000006 846.658125)scale(0.12 -0.12)">
       <use xlink:href="#BitstreamVeraSans-Roman-32"/>
      </g>
     </g>
    </g>
    <g id="xtick_39">
     <g id="line2d_163">
      <g>
       <use style="stroke:#000000;stroke-width:0.5;" x="524.8425" xlink:href="#mc21a41308e" y="833.5400000000001"/>
      </g>
     </g>
     <g id="line2d_164">
      <g>
       <use style="stroke:#000000;stroke-width:0.5;" x="524.8425" xlink:href="#m65a0c4c9a8" y="649.8900000000001"/>
      </g>
     </g>
     <g id="text_81">
      <!-- 3 -->
      <g transform="translate(521.025 846.658125)scale(0.12 -0.12)">
       <use xlink:href="#BitstreamVeraSans-Roman-33"/>
      </g>
     </g>
    </g>
    <g id="xtick_40">
     <g id="line2d_165">
      <g>
       <use style="stroke:#000000;stroke-width:0.5;" x="590.7006" xlink:href="#mc21a41308e" y="833.5400000000001"/>
      </g>
     </g>
     <g id="line2d_166">
      <g>
       <use style="stroke:#000000;stroke-width:0.5;" x="590.7006" xlink:href="#m65a0c4c9a8" y="649.8900000000001"/>
      </g>
     </g>
     <g id="text_82">
      <!-- 4 -->
      <g transform="translate(586.8831 846.658125)scale(0.12 -0.12)">
       <use xlink:href="#BitstreamVeraSans-Roman-34"/>
      </g>
     </g>
    </g>
   </g>
   <g id="matplotlib.axis_16">
    <g id="ytick_22">
     <g id="line2d_167">
      <g>
       <use style="stroke:#000000;stroke-width:0.5;" x="327.26820000000004" xlink:href="#m73974ca3c6" y="833.5400000000001"/>
      </g>
     </g>
     <g id="line2d_168">
      <g>
       <use style="stroke:#000000;stroke-width:0.5;" x="590.7006" xlink:href="#m4492c7ac21" y="833.5400000000001"/>
      </g>
     </g>
     <g id="text_83">
      <!-- 0.0 -->
      <g transform="translate(304.18445 836.85125)scale(0.12 -0.12)">
       <use xlink:href="#BitstreamVeraSans-Roman-30"/>
       <use x="63.623046875" xlink:href="#BitstreamVeraSans-Roman-2e"/>
       <use x="95.41015625" xlink:href="#BitstreamVeraSans-Roman-30"/>
      </g>
     </g>
    </g>
    <g id="ytick_23">
     <g id="line2d_169">
      <g>
       <use style="stroke:#000000;stroke-width:0.5;" x="327.26820000000004" xlink:href="#m73974ca3c6" y="750.0627272727273"/>
      </g>
     </g>
     <g id="line2d_170">
      <g>
       <use style="stroke:#000000;stroke-width:0.5;" x="590.7006" xlink:href="#m4492c7ac21" y="750.0627272727273"/>
      </g>
     </g>
     <g id="text_84">
      <!-- 0.5 -->
      <g transform="translate(304.18445 753.3739772727273)scale(0.12 -0.12)">
       <use xlink:href="#BitstreamVeraSans-Roman-30"/>
       <use x="63.623046875" xlink:href="#BitstreamVeraSans-Roman-2e"/>
       <use x="95.41015625" xlink:href="#BitstreamVeraSans-Roman-35"/>
      </g>
     </g>
    </g>
    <g id="ytick_24">
     <g id="line2d_171">
      <g>
       <use style="stroke:#000000;stroke-width:0.5;" x="327.26820000000004" xlink:href="#m73974ca3c6" y="666.5854545454546"/>
      </g>
     </g>
     <g id="line2d_172">
      <g>
       <use style="stroke:#000000;stroke-width:0.5;" x="590.7006" xlink:href="#m4492c7ac21" y="666.5854545454546"/>
      </g>
     </g>
     <g id="text_85">
      <!-- 1.0 -->
      <g transform="translate(304.18445 669.8967045454546)scale(0.12 -0.12)">
       <use xlink:href="#BitstreamVeraSans-Roman-31"/>
       <use x="63.623046875" xlink:href="#BitstreamVeraSans-Roman-2e"/>
       <use x="95.41015625" xlink:href="#BitstreamVeraSans-Roman-30"/>
      </g>
     </g>
    </g>
   </g>
   <g id="text_86">
    <!-- 1.6 meV -->
    <g transform="translate(458.98440000000005 800.1490909090909)scale(0.08 -0.08)">
     <use xlink:href="#BitstreamVeraSans-Roman-31"/>
     <use x="63.623046875" xlink:href="#BitstreamVeraSans-Roman-2e"/>
     <use x="95.41015625" xlink:href="#BitstreamVeraSans-Roman-36"/>
     <use x="159.033203125" xlink:href="#BitstreamVeraSans-Roman-20"/>
     <use x="190.8203125" xlink:href="#BitstreamVeraSans-Roman-6d"/>
     <use x="288.232421875" xlink:href="#BitstreamVeraSans-Roman-65"/>
     <use x="349.755859375" xlink:href="#BitstreamVeraSans-Roman-56"/>
    </g>
   </g>
   <g id="legend_8">
    <g id="line2d_173">
     <path d="M 336.8682 660.36875 
L 348.0682 660.36875 
" style="fill:none;stroke:#0000ff;stroke-linecap:square;stroke-width:2.0;"/>
    </g>
    <g id="line2d_174"/>
    <g id="text_87">
     <!-- P300 -->
     <g transform="translate(356.8682 663.16875)scale(0.08 -0.08)">
      <use xlink:href="#BitstreamVeraSans-Roman-50"/>
      <use x="60.302734375" xlink:href="#BitstreamVeraSans-Roman-33"/>
      <use x="123.92578125" xlink:href="#BitstreamVeraSans-Roman-30"/>
      <use x="187.548828125" xlink:href="#BitstreamVeraSans-Roman-30"/>
     </g>
    </g>
    <g id="line2d_175">
     <path d="M 336.8682 672.11125 
L 348.0682 672.11125 
" style="fill:none;stroke:#008000;stroke-linecap:square;stroke-width:2.0;"/>
    </g>
    <g id="line2d_176"/>
    <g id="text_88">
     <!-- N300 -->
     <g transform="translate(356.8682 674.91125)scale(0.08 -0.08)">
      <use xlink:href="#BitstreamVeraSans-Roman-4e"/>
      <use x="74.8046875" xlink:href="#BitstreamVeraSans-Roman-33"/>
      <use x="138.427734375" xlink:href="#BitstreamVeraSans-Roman-30"/>
      <use x="202.05078125" xlink:href="#BitstreamVeraSans-Roman-30"/>
     </g>
    </g>
   </g>
  </g>
 </g>
 <defs>
  <clipPath id="pc3a6b3eab7">
   <rect height="183.64999999999992" width="263.43240000000003" x="30.311400000000003" y="225.26999999999998"/>
  </clipPath>
  <clipPath id="p8f553a28a0">
   <rect height="183.64999999999986" width="263.4324" x="327.26820000000004" y="12.960000000000036"/>
  </clipPath>
  <clipPath id="pa5df8da182">
   <rect height="183.65" width="263.4324" x="327.26820000000004" y="649.89"/>
  </clipPath>
  <clipPath id="pfe681e2a59">
   <rect height="183.64999999999986" width="263.43240000000003" x="30.311400000000003" y="12.960000000000036"/>
  </clipPath>
  <clipPath id="p663db107be">
   <rect height="183.65000000000003" width="263.4324" x="327.26820000000004" y="437.58"/>
  </clipPath>
  <clipPath id="p2d4a929a82">
   <rect height="183.65000000000003" width="263.43240000000003" x="30.311400000000003" y="437.58"/>
  </clipPath>
  <clipPath id="p81bafa84f3">
   <rect height="183.64999999999992" width="263.4324" x="327.26820000000004" y="225.26999999999998"/>
  </clipPath>
  <clipPath id="p7bf3ac3684">
   <rect height="183.65" width="263.43240000000003" x="30.311400000000003" y="649.89"/>
  </clipPath>
 </defs>
</svg>
