<?xml version="1.0" encoding="utf-8" standalone="no"?>
<!DOCTYPE svg PUBLIC "-//W3C//DTD SVG 1.1//EN"
  "http://www.w3.org/Graphics/SVG/1.1/DTD/svg11.dtd">
<!-- Created with matplotlib (http://matplotlib.org/) -->
<svg height="353pt" version="1.1" viewBox="0 0 424 353" width="424pt" xmlns="http://www.w3.org/2000/svg" xmlns:xlink="http://www.w3.org/1999/xlink">
 <defs>
  <style type="text/css">
*{stroke-linecap:butt;stroke-linejoin:round;stroke-miterlimit:100000;}
  </style>
 </defs>
 <g id="figure_1">
  <g id="patch_1">
   <path d="M 0 353.46375 
L 424.79775 353.46375 
L 424.79775 0 
L 0 0 
z
" style="fill:#ffffff;"/>
  </g>
  <g id="axes_1">
   <g id="patch_2">
    <path d="M 49.22025 290.7 
L 402.02025 290.7 
L 402.02025 7.2 
L 49.22025 7.2 
z
" style="fill:#ffffff;"/>
   </g>
   <g id="line2d_1">
    <path clip-path="url(#pf270d8868b)" d="M 49.22025 267.075 
L 53.63025 249.507188 
L 58.04025 202.029155 
L 62.45025 138.763102 
L 66.86025 78.527081 
L 71.27025 39.237959 
L 75.68025 32.581975 
L 80.09025 60.538974 
L 84.50025 114.793253 
L 88.91025 179.207354 
L 93.32025 234.62158 
L 97.73025 264.553233 
L 102.14025 260.099385 
L 106.55025 222.584818 
L 110.96025 163.167928 
L 115.37025 99.522 
L 119.78025 50.578482 
L 124.19025 30.894535 
L 128.60025 46.325706 
L 133.01025 92.281949 
L 137.42025 155.093555 
L 141.83025 216.078028 
L 146.24025 257.095571 
L 150.65025 265.945809 
L 155.06025 239.99641 
L 159.47025 186.965695 
L 163.88025 122.627253 
L 168.29025 66.118672 
L 172.70025 34.247632 
L 177.11025 36.494097 
L 181.52025 72.190176 
L 185.93025 130.717163 
L 190.34025 194.66861 
L 194.75025 245.02024 
L 199.16025 266.796984 
L 203.57025 253.520511 
L 207.98025 209.140078 
L 212.39025 146.856276 
L 216.80025 85.195377 
L 221.21025 42.498063 
L 225.62025 31.464104 
L 230.03025 55.375661 
L 234.44025 107.12023 
L 238.85025 171.306752 
L 243.26025 228.843711 
L 247.67025 262.61636 
L 252.08025 262.579927 
L 256.49025 228.744698 
L 260.90025 171.175247 
L 265.31025 106.994791 
L 269.72025 55.293869 
L 274.13025 31.45024 
L 278.54025 42.556216 
L 282.95025 85.308647 
L 287.36025 146.990653 
L 291.77025 209.25557 
L 296.18025 253.583098 
L 300.59025 266.78772 
L 305.00025 244.942808 
L 309.41025 194.543318 
L 313.82025 130.585159 
L 318.23025 72.088547 
L 322.64025 36.452901 
L 327.05025 34.279751 
L 331.46025 66.214418 
L 335.87025 122.758525 
L 340.28025 187.092655 
L 344.69025 240.081691 
L 349.10025 265.964182 
L 353.51025 257.04151 
L 357.92025 215.967769 
L 362.33025 154.959665 
L 366.74025 92.164338 
L 371.15025 46.25964 
L 375.56025 30.899217 
L 379.97025 50.65269 
L 384.38025 99.644154 
L 388.79025 163.301088 
L 393.20025 222.689413 
L 397.61025 260.14486 
L 402.02025 264.525589 
" style="fill:none;stroke:#0000ff;stroke-linecap:square;stroke-width:1.5;"/>
   </g>
   <g id="line2d_2">
    <path clip-path="url(#pf270d8868b)" d="M 49.22025 267.075 
L 53.63025 262.689142 
L 58.04025 249.861763 
L 62.45025 229.557787 
L 66.86025 203.301659 
L 71.27025 173.059386 
L 75.68025 141.086046 
L 80.09025 109.750631 
L 84.50025 81.355014 
L 88.91025 57.955795 
L 93.32025 41.208278 
L 97.73025 32.242481 
L 102.14025 31.579532 
L 106.55025 39.097074 
L 110.96025 54.044855 
L 115.37025 75.10868 
L 119.78025 100.518206 
L 124.19025 128.19021 
L 128.60025 155.891363 
L 133.01025 181.416392 
L 137.42025 202.757706 
L 141.83025 218.259468 
L 146.24025 226.74244 
L 150.65025 227.589779 
L 155.06025 220.787682 
L 159.47025 206.918306 
L 163.88025 187.106069 
L 168.29025 162.922578 
L 172.70025 136.257212 
L 177.11025 109.163571 
L 181.52025 83.698676 
L 185.93025 61.760366 
L 190.34025 44.941453 
L 194.75025 34.410188 
L 199.16025 30.825078 
L 203.57025 34.291894 
L 207.98025 44.364325 
L 212.39025 60.087182 
L 216.80025 80.081664 
L 221.21025 102.658071 
L 225.62025 125.954964 
L 230.03025 148.088115 
L 234.44025 167.29614 
L 238.85025 182.079177 
L 243.26025 191.308798 
L 247.67025 194.310844 
L 252.08025 190.908917 
L 256.49025 181.429585 
L 260.90025 166.665831 
L 265.31025 147.80728 
L 269.72025 126.33878 
L 274.13025 103.919721 
L 278.54025 82.248364 
L 282.95025 62.931653 
L 287.36025 47.359557 
L 291.77025 36.602462 
L 296.18025 31.333774 
L 300.59025 31.786077 
L 305.00025 37.742502 
L 309.41025 48.563652 
L 313.82025 63.246384 
L 318.23025 80.509508 
L 322.64025 98.901314 
L 327.05025 116.91444 
L 331.46025 133.104748 
L 335.87025 146.203323 
L 340.28025 155.209847 
L 344.69025 159.464072 
L 349.10025 158.689485 
L 353.51025 153.00528 
L 357.92025 142.908169 
L 362.33025 129.224371 
L 366.74025 113.038106 
L 371.15025 95.601294 
L 375.56025 78.23134 
L 379.97025 62.211266 
L 384.38025 48.686159 
L 388.79025 38.58249 
L 393.20025 32.540759 
L 397.61025 30.87184 
L 402.02025 33.543605 
" style="fill:none;stroke:#008000;stroke-linecap:square;stroke-width:1.5;"/>
   </g>
   <g id="line2d_3">
    <path clip-path="url(#pf270d8868b)" d="M 49.22025 267.075 
L 53.63025 263.288973 
L 58.04025 252.25649 
L 62.45025 234.911335 
L 66.86025 212.674726 
L 71.27025 187.274695 
L 75.68025 160.541212 
L 80.09025 134.201529 
L 84.50025 109.712562 
L 88.91025 88.148362 
L 93.32025 70.152027 
L 97.73025 55.951338 
L 102.14025 45.423413 
L 106.55025 38.191103 
L 110.96025 33.728685 
L 115.37025 31.461306 
L 119.78025 30.841602 
L 124.19025 31.400449 
L 128.60025 32.770242 
L 133.01025 34.684879 
L 137.42025 36.963507 
L 141.83025 39.483584 
L 146.24025 42.150104 
L 150.65025 44.86593 
L 155.06025 47.505066 
L 159.47025 49.897845 
L 163.88025 51.825364 
L 168.29025 53.036851 
L 172.70025 53.281278 
L 177.11025 52.360845 
L 181.52025 50.194571 
L 185.93025 46.878411 
L 190.34025 42.729657 
L 194.75025 38.29429 
L 199.16025 34.304202 
L 203.57025 31.579735 
L 207.98025 30.887391 
L 212.39025 32.771866 
L 216.80025 37.398763 
L 221.21025 44.445962 
L 225.62025 53.080023 
L 230.03025 62.039248 
L 234.44025 69.826007 
L 238.85025 74.980976 
L 243.26025 76.391121 
L 247.67025 73.569863 
L 252.08025 66.835209 
L 256.49025 57.338901 
L 260.90025 46.913242 
L 265.31025 37.756166 
L 269.72025 31.99637 
L 274.13025 31.232229 
L 278.54025 36.139076 
L 282.95025 46.2439 
L 287.36025 59.932169 
L 291.77025 74.708129 
L 296.18025 87.670965 
L 300.59025 96.118658 
L 305.00025 98.153574 
L 309.41025 93.152343 
L 313.82025 81.984526 
L 318.23025 66.914418 
L 322.64025 51.180376 
L 327.05025 38.33549 
L 331.46025 31.473378 
L 335.87025 32.515887 
L 340.28025 41.72322 
L 344.69025 57.553142 
L 349.10025 76.919517 
L 353.51025 95.813603 
L 357.92025 110.16414 
L 362.33025 116.750406 
L 366.74025 113.969676 
L 371.15025 102.262957 
L 375.56025 84.099049 
L 379.97025 63.49429 
L 384.38025 45.160631 
L 388.79025 33.45687 
L 393.20025 31.383765 
L 397.61025 39.851578 
L 402.02025 57.399425 
" style="fill:none;stroke:#ff0000;stroke-linecap:square;stroke-width:1.5;"/>
   </g>
   <g id="line2d_4">
    <path clip-path="url(#pf270d8868b)" d="M 49.22025 267.075 
L 53.63025 265.848064 
L 58.04025 262.260702 
L 62.45025 256.571129 
L 66.86025 249.141752 
L 71.27025 240.355925 
L 75.68025 230.527006 
L 80.09025 219.831349 
L 84.50025 208.274162 
L 88.91025 195.708331 
L 93.32025 181.905607 
L 97.73025 166.687764 
L 102.14025 150.059462 
L 106.55025 132.314936 
L 110.96025 114.092835 
L 115.37025 96.291113 
L 119.78025 79.905255 
L 124.19025 65.794135 
L 128.60025 54.480058 
L 133.01025 46.049924 
L 137.42025 40.204705 
L 141.83025 36.412858 
L 146.24025 34.106801 
L 150.65025 32.819523 
L 155.06025 32.220928 
L 159.47025 32.067799 
L 163.88025 32.136603 
L 168.29025 32.203282 
L 172.70025 32.090459 
L 177.11025 31.745008 
L 181.52025 31.279506 
L 185.93025 30.933667 
L 190.34025 30.9656 
L 194.75025 31.528865 
L 199.16025 32.599338 
L 203.57025 33.983769 
L 207.98025 35.397272 
L 212.39025 36.563057 
L 216.80025 37.291951 
L 221.21025 37.512038 
L 225.62025 37.260503 
L 230.03025 36.645343 
L 234.44025 35.804759 
L 238.85025 34.877031 
L 243.26025 33.978078 
L 247.67025 33.19064 
L 252.08025 32.560194 
L 256.49025 32.098452 
L 260.90025 31.790862 
L 265.31025 31.610032 
L 269.72025 31.528023 
L 274.13025 31.521367 
L 278.54025 31.568518 
L 282.95025 31.643304 
L 287.36025 31.711399 
L 291.77025 31.734883 
L 296.18025 31.684026 
L 300.59025 31.551065 
L 305.00025 31.356549 
L 309.41025 31.143844 
L 313.82025 30.963769 
L 318.23025 30.854398 
L 322.64025 30.826756 
L 327.05025 30.862954 
L 331.46025 30.926599 
L 335.87025 30.980271 
L 340.28025 31.001018 
L 344.69025 30.986221 
L 349.10025 30.949128 
L 353.51025 30.907952 
L 357.92025 30.875692 
L 362.33025 30.856527 
L 366.74025 30.848397 
L 371.15025 30.848433 
L 375.56025 30.856441 
L 379.97025 30.874238 
L 384.38025 30.902232 
L 388.79025 30.93645 
L 393.20025 30.968662 
L 397.61025 30.98964 
L 402.02025 30.993437 
" style="fill:none;stroke:#00bfbf;stroke-linecap:square;stroke-width:1.5;"/>
   </g>
   <g id="patch_3">
    <path d="M 49.22025 7.2 
L 402.02025 7.2 
" style="fill:none;stroke:#000000;stroke-linecap:square;stroke-linejoin:miter;stroke-width:1.5;"/>
   </g>
   <g id="patch_4">
    <path d="M 402.02025 290.7 
L 402.02025 7.2 
" style="fill:none;stroke:#000000;stroke-linecap:square;stroke-linejoin:miter;stroke-width:1.5;"/>
   </g>
   <g id="patch_5">
    <path d="M 49.22025 290.7 
L 402.02025 290.7 
" style="fill:none;stroke:#000000;stroke-linecap:square;stroke-linejoin:miter;stroke-width:1.5;"/>
   </g>
   <g id="patch_6">
    <path d="M 49.22025 290.7 
L 49.22025 7.2 
" style="fill:none;stroke:#000000;stroke-linecap:square;stroke-linejoin:miter;stroke-width:1.5;"/>
   </g>
   <g id="matplotlib.axis_1">
    <g id="xtick_1">
     <g id="line2d_5">
      <defs>
       <path d="M 0 0 
L 0 -10 
" id="ma16c797b60" style="stroke:#000000;stroke-width:1.5;"/>
      </defs>
      <g>
       <use style="stroke:#000000;stroke-width:1.5;" x="49.22024999999999" xlink:href="#ma16c797b60" y="290.7"/>
      </g>
     </g>
     <g id="line2d_6">
      <defs>
       <path d="M 0 0 
L 0 10 
" id="m25bd4dc91c" style="stroke:#000000;stroke-width:1.5;"/>
      </defs>
      <g>
       <use style="stroke:#000000;stroke-width:1.5;" x="49.22024999999999" xlink:href="#m25bd4dc91c" y="7.2000000000000455"/>
      </g>
     </g>
     <g id="text_1">
      <!-- 0 -->
      <defs>
       <path d="M 31.78125 66.40625 
Q 24.171875 66.40625 20.328125 58.90625 
Q 16.5 51.421875 16.5 36.375 
Q 16.5 21.390625 20.328125 13.890625 
Q 24.171875 6.390625 31.78125 6.390625 
Q 39.453125 6.390625 43.28125 13.890625 
Q 47.125 21.390625 47.125 36.375 
Q 47.125 51.421875 43.28125 58.90625 
Q 39.453125 66.40625 31.78125 66.40625 
M 31.78125 74.21875 
Q 44.046875 74.21875 50.515625 64.515625 
Q 56.984375 54.828125 56.984375 36.375 
Q 56.984375 17.96875 50.515625 8.265625 
Q 44.046875 -1.421875 31.78125 -1.421875 
Q 19.53125 -1.421875 13.0625 8.265625 
Q 6.59375 17.96875 6.59375 36.375 
Q 6.59375 54.828125 13.0625 64.515625 
Q 19.53125 74.21875 31.78125 74.21875 
" id="BitstreamVeraSans-Roman-30"/>
      </defs>
      <g transform="translate(45.40274999999999 303.818125)scale(0.12 -0.12)">
       <use xlink:href="#BitstreamVeraSans-Roman-30"/>
      </g>
     </g>
    </g>
    <g id="xtick_2">
     <g id="line2d_7">
      <g>
       <use style="stroke:#000000;stroke-width:1.5;" x="93.32024999999999" xlink:href="#ma16c797b60" y="290.7"/>
      </g>
     </g>
     <g id="line2d_8">
      <g>
       <use style="stroke:#000000;stroke-width:1.5;" x="93.32024999999999" xlink:href="#m25bd4dc91c" y="7.2000000000000455"/>
      </g>
     </g>
     <g id="text_2">
      <!-- 1 -->
      <defs>
       <path d="M 12.40625 8.296875 
L 28.515625 8.296875 
L 28.515625 63.921875 
L 10.984375 60.40625 
L 10.984375 69.390625 
L 28.421875 72.90625 
L 38.28125 72.90625 
L 38.28125 8.296875 
L 54.390625 8.296875 
L 54.390625 0 
L 12.40625 0 
z
" id="BitstreamVeraSans-Roman-31"/>
      </defs>
      <g transform="translate(89.50274999999999 303.818125)scale(0.12 -0.12)">
       <use xlink:href="#BitstreamVeraSans-Roman-31"/>
      </g>
     </g>
    </g>
    <g id="xtick_3">
     <g id="line2d_9">
      <g>
       <use style="stroke:#000000;stroke-width:1.5;" x="137.42024999999998" xlink:href="#ma16c797b60" y="290.7"/>
      </g>
     </g>
     <g id="line2d_10">
      <g>
       <use style="stroke:#000000;stroke-width:1.5;" x="137.42024999999998" xlink:href="#m25bd4dc91c" y="7.2000000000000455"/>
      </g>
     </g>
     <g id="text_3">
      <!-- 2 -->
      <defs>
       <path d="M 19.1875 8.296875 
L 53.609375 8.296875 
L 53.609375 0 
L 7.328125 0 
L 7.328125 8.296875 
Q 12.9375 14.109375 22.625 23.890625 
Q 32.328125 33.6875 34.8125 36.53125 
Q 39.546875 41.84375 41.421875 45.53125 
Q 43.3125 49.21875 43.3125 52.78125 
Q 43.3125 58.59375 39.234375 62.25 
Q 35.15625 65.921875 28.609375 65.921875 
Q 23.96875 65.921875 18.8125 64.3125 
Q 13.671875 62.703125 7.8125 59.421875 
L 7.8125 69.390625 
Q 13.765625 71.78125 18.9375 73 
Q 24.125 74.21875 28.421875 74.21875 
Q 39.75 74.21875 46.484375 68.546875 
Q 53.21875 62.890625 53.21875 53.421875 
Q 53.21875 48.921875 51.53125 44.890625 
Q 49.859375 40.875 45.40625 35.40625 
Q 44.1875 33.984375 37.640625 27.21875 
Q 31.109375 20.453125 19.1875 8.296875 
" id="BitstreamVeraSans-Roman-32"/>
      </defs>
      <g transform="translate(133.60275 303.818125)scale(0.12 -0.12)">
       <use xlink:href="#BitstreamVeraSans-Roman-32"/>
      </g>
     </g>
    </g>
    <g id="xtick_4">
     <g id="line2d_11">
      <g>
       <use style="stroke:#000000;stroke-width:1.5;" x="181.52024999999998" xlink:href="#ma16c797b60" y="290.7"/>
      </g>
     </g>
     <g id="line2d_12">
      <g>
       <use style="stroke:#000000;stroke-width:1.5;" x="181.52024999999998" xlink:href="#m25bd4dc91c" y="7.2000000000000455"/>
      </g>
     </g>
     <g id="text_4">
      <!-- 3 -->
      <defs>
       <path d="M 40.578125 39.3125 
Q 47.65625 37.796875 51.625 33 
Q 55.609375 28.21875 55.609375 21.1875 
Q 55.609375 10.40625 48.1875 4.484375 
Q 40.765625 -1.421875 27.09375 -1.421875 
Q 22.515625 -1.421875 17.65625 -0.515625 
Q 12.796875 0.390625 7.625 2.203125 
L 7.625 11.71875 
Q 11.71875 9.328125 16.59375 8.109375 
Q 21.484375 6.890625 26.8125 6.890625 
Q 36.078125 6.890625 40.9375 10.546875 
Q 45.796875 14.203125 45.796875 21.1875 
Q 45.796875 27.640625 41.28125 31.265625 
Q 36.765625 34.90625 28.71875 34.90625 
L 20.21875 34.90625 
L 20.21875 43.015625 
L 29.109375 43.015625 
Q 36.375 43.015625 40.234375 45.921875 
Q 44.09375 48.828125 44.09375 54.296875 
Q 44.09375 59.90625 40.109375 62.90625 
Q 36.140625 65.921875 28.71875 65.921875 
Q 24.65625 65.921875 20.015625 65.03125 
Q 15.375 64.15625 9.8125 62.3125 
L 9.8125 71.09375 
Q 15.4375 72.65625 20.34375 73.4375 
Q 25.25 74.21875 29.59375 74.21875 
Q 40.828125 74.21875 47.359375 69.109375 
Q 53.90625 64.015625 53.90625 55.328125 
Q 53.90625 49.265625 50.4375 45.09375 
Q 46.96875 40.921875 40.578125 39.3125 
" id="BitstreamVeraSans-Roman-33"/>
      </defs>
      <g transform="translate(177.70274999999998 303.818125)scale(0.12 -0.12)">
       <use xlink:href="#BitstreamVeraSans-Roman-33"/>
      </g>
     </g>
    </g>
    <g id="xtick_5">
     <g id="line2d_13">
      <g>
       <use style="stroke:#000000;stroke-width:1.5;" x="225.62024999999997" xlink:href="#ma16c797b60" y="290.7"/>
      </g>
     </g>
     <g id="line2d_14">
      <g>
       <use style="stroke:#000000;stroke-width:1.5;" x="225.62024999999997" xlink:href="#m25bd4dc91c" y="7.2000000000000455"/>
      </g>
     </g>
     <g id="text_5">
      <!-- 4 -->
      <defs>
       <path d="M 37.796875 64.3125 
L 12.890625 25.390625 
L 37.796875 25.390625 
z
M 35.203125 72.90625 
L 47.609375 72.90625 
L 47.609375 25.390625 
L 58.015625 25.390625 
L 58.015625 17.1875 
L 47.609375 17.1875 
L 47.609375 0 
L 37.796875 0 
L 37.796875 17.1875 
L 4.890625 17.1875 
L 4.890625 26.703125 
z
" id="BitstreamVeraSans-Roman-34"/>
      </defs>
      <g transform="translate(221.80274999999997 303.818125)scale(0.12 -0.12)">
       <use xlink:href="#BitstreamVeraSans-Roman-34"/>
      </g>
     </g>
    </g>
    <g id="xtick_6">
     <g id="line2d_15">
      <g>
       <use style="stroke:#000000;stroke-width:1.5;" x="269.72024999999996" xlink:href="#ma16c797b60" y="290.7"/>
      </g>
     </g>
     <g id="line2d_16">
      <g>
       <use style="stroke:#000000;stroke-width:1.5;" x="269.72024999999996" xlink:href="#m25bd4dc91c" y="7.2000000000000455"/>
      </g>
     </g>
     <g id="text_6">
      <!-- 5 -->
      <defs>
       <path d="M 10.796875 72.90625 
L 49.515625 72.90625 
L 49.515625 64.59375 
L 19.828125 64.59375 
L 19.828125 46.734375 
Q 21.96875 47.46875 24.109375 47.828125 
Q 26.265625 48.1875 28.421875 48.1875 
Q 40.625 48.1875 47.75 41.5 
Q 54.890625 34.8125 54.890625 23.390625 
Q 54.890625 11.625 47.5625 5.09375 
Q 40.234375 -1.421875 26.90625 -1.421875 
Q 22.3125 -1.421875 17.546875 -0.640625 
Q 12.796875 0.140625 7.71875 1.703125 
L 7.71875 11.625 
Q 12.109375 9.234375 16.796875 8.0625 
Q 21.484375 6.890625 26.703125 6.890625 
Q 35.15625 6.890625 40.078125 11.328125 
Q 45.015625 15.765625 45.015625 23.390625 
Q 45.015625 31 40.078125 35.4375 
Q 35.15625 39.890625 26.703125 39.890625 
Q 22.75 39.890625 18.8125 39.015625 
Q 14.890625 38.140625 10.796875 36.28125 
z
" id="BitstreamVeraSans-Roman-35"/>
      </defs>
      <g transform="translate(265.90274999999997 303.818125)scale(0.12 -0.12)">
       <use xlink:href="#BitstreamVeraSans-Roman-35"/>
      </g>
     </g>
    </g>
    <g id="xtick_7">
     <g id="line2d_17">
      <g>
       <use style="stroke:#000000;stroke-width:1.5;" x="313.82025" xlink:href="#ma16c797b60" y="290.7"/>
      </g>
     </g>
     <g id="line2d_18">
      <g>
       <use style="stroke:#000000;stroke-width:1.5;" x="313.82025" xlink:href="#m25bd4dc91c" y="7.2000000000000455"/>
      </g>
     </g>
     <g id="text_7">
      <!-- 6 -->
      <defs>
       <path d="M 33.015625 40.375 
Q 26.375 40.375 22.484375 35.828125 
Q 18.609375 31.296875 18.609375 23.390625 
Q 18.609375 15.53125 22.484375 10.953125 
Q 26.375 6.390625 33.015625 6.390625 
Q 39.65625 6.390625 43.53125 10.953125 
Q 47.40625 15.53125 47.40625 23.390625 
Q 47.40625 31.296875 43.53125 35.828125 
Q 39.65625 40.375 33.015625 40.375 
M 52.59375 71.296875 
L 52.59375 62.3125 
Q 48.875 64.0625 45.09375 64.984375 
Q 41.3125 65.921875 37.59375 65.921875 
Q 27.828125 65.921875 22.671875 59.328125 
Q 17.53125 52.734375 16.796875 39.40625 
Q 19.671875 43.65625 24.015625 45.921875 
Q 28.375 48.1875 33.59375 48.1875 
Q 44.578125 48.1875 50.953125 41.515625 
Q 57.328125 34.859375 57.328125 23.390625 
Q 57.328125 12.15625 50.6875 5.359375 
Q 44.046875 -1.421875 33.015625 -1.421875 
Q 20.359375 -1.421875 13.671875 8.265625 
Q 6.984375 17.96875 6.984375 36.375 
Q 6.984375 53.65625 15.1875 63.9375 
Q 23.390625 74.21875 37.203125 74.21875 
Q 40.921875 74.21875 44.703125 73.484375 
Q 48.484375 72.75 52.59375 71.296875 
" id="BitstreamVeraSans-Roman-36"/>
      </defs>
      <g transform="translate(310.00275 303.818125)scale(0.12 -0.12)">
       <use xlink:href="#BitstreamVeraSans-Roman-36"/>
      </g>
     </g>
    </g>
    <g id="xtick_8">
     <g id="line2d_19">
      <g>
       <use style="stroke:#000000;stroke-width:1.5;" x="357.9202499999999" xlink:href="#ma16c797b60" y="290.7"/>
      </g>
     </g>
     <g id="line2d_20">
      <g>
       <use style="stroke:#000000;stroke-width:1.5;" x="357.9202499999999" xlink:href="#m25bd4dc91c" y="7.2000000000000455"/>
      </g>
     </g>
     <g id="text_8">
      <!-- 7 -->
      <defs>
       <path d="M 8.203125 72.90625 
L 55.078125 72.90625 
L 55.078125 68.703125 
L 28.609375 0 
L 18.3125 0 
L 43.21875 64.59375 
L 8.203125 64.59375 
z
" id="BitstreamVeraSans-Roman-37"/>
      </defs>
      <g transform="translate(354.1027499999999 303.818125)scale(0.12 -0.12)">
       <use xlink:href="#BitstreamVeraSans-Roman-37"/>
      </g>
     </g>
    </g>
    <g id="xtick_9">
     <g id="line2d_21">
      <g>
       <use style="stroke:#000000;stroke-width:1.5;" x="402.0202499999999" xlink:href="#ma16c797b60" y="290.7"/>
      </g>
     </g>
     <g id="line2d_22">
      <g>
       <use style="stroke:#000000;stroke-width:1.5;" x="402.0202499999999" xlink:href="#m25bd4dc91c" y="7.2000000000000455"/>
      </g>
     </g>
     <g id="text_9">
      <!-- 8 -->
      <defs>
       <path d="M 31.78125 34.625 
Q 24.75 34.625 20.71875 30.859375 
Q 16.703125 27.09375 16.703125 20.515625 
Q 16.703125 13.921875 20.71875 10.15625 
Q 24.75 6.390625 31.78125 6.390625 
Q 38.8125 6.390625 42.859375 10.171875 
Q 46.921875 13.96875 46.921875 20.515625 
Q 46.921875 27.09375 42.890625 30.859375 
Q 38.875 34.625 31.78125 34.625 
M 21.921875 38.8125 
Q 15.578125 40.375 12.03125 44.71875 
Q 8.5 49.078125 8.5 55.328125 
Q 8.5 64.0625 14.71875 69.140625 
Q 20.953125 74.21875 31.78125 74.21875 
Q 42.671875 74.21875 48.875 69.140625 
Q 55.078125 64.0625 55.078125 55.328125 
Q 55.078125 49.078125 51.53125 44.71875 
Q 48 40.375 41.703125 38.8125 
Q 48.828125 37.15625 52.796875 32.3125 
Q 56.78125 27.484375 56.78125 20.515625 
Q 56.78125 9.90625 50.3125 4.234375 
Q 43.84375 -1.421875 31.78125 -1.421875 
Q 19.734375 -1.421875 13.25 4.234375 
Q 6.78125 9.90625 6.78125 20.515625 
Q 6.78125 27.484375 10.78125 32.3125 
Q 14.796875 37.15625 21.921875 38.8125 
M 18.3125 54.390625 
Q 18.3125 48.734375 21.84375 45.5625 
Q 25.390625 42.390625 31.78125 42.390625 
Q 38.140625 42.390625 41.71875 45.5625 
Q 45.3125 48.734375 45.3125 54.390625 
Q 45.3125 60.0625 41.71875 63.234375 
Q 38.140625 66.40625 31.78125 66.40625 
Q 25.390625 66.40625 21.84375 63.234375 
Q 18.3125 60.0625 18.3125 54.390625 
" id="BitstreamVeraSans-Roman-38"/>
      </defs>
      <g transform="translate(398.2027499999999 303.818125)scale(0.12 -0.12)">
       <use xlink:href="#BitstreamVeraSans-Roman-38"/>
      </g>
     </g>
    </g>
    <g id="text_10">
     <!-- Pulse Area ($\pi$ Units) -->
     <defs>
      <path id="BitstreamVeraSans-Roman-20"/>
      <path d="M 58.90625 45.296875 
L 57.203125 38.203125 
L 47 38.203125 
Q 45.703125 34.90625 41.203125 17.59375 
Q 40.09375 13 40.09375 11 
Q 40.09375 7.703125 42.046875 6.890625 
Q 44 6.09375 49.09375 6.09375 
L 48.59375 4.40625 
L 43.40625 -1 
Q 37.90625 -0.90625 34.75 1.09375 
Q 31.59375 3.09375 31.59375 8.203125 
Q 31.59375 10.703125 32.296875 13.5 
Q 33.296875 17.703125 35.890625 26.953125 
Q 38.5 36.203125 39.203125 38.203125 
L 30.59375 38.203125 
Q 28.296875 29.203125 26.09375 22.640625 
Q 23.90625 16.09375 20.953125 10.4375 
Q 18 4.796875 14.203125 1.890625 
Q 10.40625 -1 5.90625 -1 
L 4.5 6.09375 
Q 10.203125 6.40625 14.09375 12.953125 
Q 18 19.5 22.703125 38.203125 
Q 17.5 37.796875 13.5 30.296875 
L 8.09375 33.703125 
Q 12.09375 40.703125 16.59375 43 
Q 21.09375 45.296875 28.40625 45.296875 
z
" id="STIXNonUnicode-Italic-e1e7"/>
      <path d="M 54.890625 33.015625 
L 54.890625 0 
L 45.90625 0 
L 45.90625 32.71875 
Q 45.90625 40.484375 42.875 44.328125 
Q 39.84375 48.1875 33.796875 48.1875 
Q 26.515625 48.1875 22.3125 43.546875 
Q 18.109375 38.921875 18.109375 30.90625 
L 18.109375 0 
L 9.078125 0 
L 9.078125 54.6875 
L 18.109375 54.6875 
L 18.109375 46.1875 
Q 21.34375 51.125 25.703125 53.5625 
Q 30.078125 56 35.796875 56 
Q 45.21875 56 50.046875 50.171875 
Q 54.890625 44.34375 54.890625 33.015625 
" id="BitstreamVeraSans-Roman-6e"/>
      <path d="M 34.28125 27.484375 
Q 23.390625 27.484375 19.1875 25 
Q 14.984375 22.515625 14.984375 16.5 
Q 14.984375 11.71875 18.140625 8.90625 
Q 21.296875 6.109375 26.703125 6.109375 
Q 34.1875 6.109375 38.703125 11.40625 
Q 43.21875 16.703125 43.21875 25.484375 
L 43.21875 27.484375 
z
M 52.203125 31.203125 
L 52.203125 0 
L 43.21875 0 
L 43.21875 8.296875 
Q 40.140625 3.328125 35.546875 0.953125 
Q 30.953125 -1.421875 24.3125 -1.421875 
Q 15.921875 -1.421875 10.953125 3.296875 
Q 6 8.015625 6 15.921875 
Q 6 25.140625 12.171875 29.828125 
Q 18.359375 34.515625 30.609375 34.515625 
L 43.21875 34.515625 
L 43.21875 35.40625 
Q 43.21875 41.609375 39.140625 45 
Q 35.0625 48.390625 27.6875 48.390625 
Q 23 48.390625 18.546875 47.265625 
Q 14.109375 46.140625 10.015625 43.890625 
L 10.015625 52.203125 
Q 14.9375 54.109375 19.578125 55.046875 
Q 24.21875 56 28.609375 56 
Q 40.484375 56 46.34375 49.84375 
Q 52.203125 43.703125 52.203125 31.203125 
" id="BitstreamVeraSans-Roman-61"/>
      <path d="M 9.421875 75.984375 
L 18.40625 75.984375 
L 18.40625 0 
L 9.421875 0 
z
" id="BitstreamVeraSans-Roman-6c"/>
      <path d="M 19.671875 64.796875 
L 19.671875 37.40625 
L 32.078125 37.40625 
Q 38.96875 37.40625 42.71875 40.96875 
Q 46.484375 44.53125 46.484375 51.125 
Q 46.484375 57.671875 42.71875 61.234375 
Q 38.96875 64.796875 32.078125 64.796875 
z
M 9.8125 72.90625 
L 32.078125 72.90625 
Q 44.34375 72.90625 50.609375 67.359375 
Q 56.890625 61.8125 56.890625 51.125 
Q 56.890625 40.328125 50.609375 34.8125 
Q 44.34375 29.296875 32.078125 29.296875 
L 19.671875 29.296875 
L 19.671875 0 
L 9.8125 0 
z
" id="BitstreamVeraSans-Roman-50"/>
      <path d="M 8.015625 75.875 
L 15.828125 75.875 
Q 23.140625 64.359375 26.78125 53.3125 
Q 30.421875 42.28125 30.421875 31.390625 
Q 30.421875 20.453125 26.78125 9.375 
Q 23.140625 -1.703125 15.828125 -13.1875 
L 8.015625 -13.1875 
Q 14.5 -2 17.703125 9.0625 
Q 20.90625 20.125 20.90625 31.390625 
Q 20.90625 42.671875 17.703125 53.65625 
Q 14.5 64.65625 8.015625 75.875 
" id="BitstreamVeraSans-Roman-29"/>
      <path d="M 9.421875 54.6875 
L 18.40625 54.6875 
L 18.40625 0 
L 9.421875 0 
z
M 9.421875 75.984375 
L 18.40625 75.984375 
L 18.40625 64.59375 
L 9.421875 64.59375 
z
" id="BitstreamVeraSans-Roman-69"/>
      <path d="M 8.6875 72.90625 
L 18.609375 72.90625 
L 18.609375 28.609375 
Q 18.609375 16.890625 22.84375 11.734375 
Q 27.09375 6.59375 36.625 6.59375 
Q 46.09375 6.59375 50.34375 11.734375 
Q 54.59375 16.890625 54.59375 28.609375 
L 54.59375 72.90625 
L 64.5 72.90625 
L 64.5 27.390625 
Q 64.5 13.140625 57.4375 5.859375 
Q 50.390625 -1.421875 36.625 -1.421875 
Q 22.796875 -1.421875 15.734375 5.859375 
Q 8.6875 13.140625 8.6875 27.390625 
z
" id="BitstreamVeraSans-Roman-55"/>
      <path d="M 34.1875 63.1875 
L 20.796875 26.90625 
L 47.609375 26.90625 
z
M 28.609375 72.90625 
L 39.796875 72.90625 
L 67.578125 0 
L 57.328125 0 
L 50.6875 18.703125 
L 17.828125 18.703125 
L 11.1875 0 
L 0.78125 0 
z
" id="BitstreamVeraSans-Roman-41"/>
      <path d="M 31 75.875 
Q 24.46875 64.65625 21.28125 53.65625 
Q 18.109375 42.671875 18.109375 31.390625 
Q 18.109375 20.125 21.3125 9.0625 
Q 24.515625 -2 31 -13.1875 
L 23.1875 -13.1875 
Q 15.875 -1.703125 12.234375 9.375 
Q 8.59375 20.453125 8.59375 31.390625 
Q 8.59375 42.28125 12.203125 53.3125 
Q 15.828125 64.359375 23.1875 75.875 
z
" id="BitstreamVeraSans-Roman-28"/>
      <path d="M 56.203125 29.59375 
L 56.203125 25.203125 
L 14.890625 25.203125 
Q 15.484375 15.921875 20.484375 11.0625 
Q 25.484375 6.203125 34.421875 6.203125 
Q 39.59375 6.203125 44.453125 7.46875 
Q 49.3125 8.734375 54.109375 11.28125 
L 54.109375 2.78125 
Q 49.265625 0.734375 44.1875 -0.34375 
Q 39.109375 -1.421875 33.890625 -1.421875 
Q 20.796875 -1.421875 13.15625 6.1875 
Q 5.515625 13.8125 5.515625 26.8125 
Q 5.515625 40.234375 12.765625 48.109375 
Q 20.015625 56 32.328125 56 
Q 43.359375 56 49.78125 48.890625 
Q 56.203125 41.796875 56.203125 29.59375 
M 47.21875 32.234375 
Q 47.125 39.59375 43.09375 43.984375 
Q 39.0625 48.390625 32.421875 48.390625 
Q 24.90625 48.390625 20.390625 44.140625 
Q 15.875 39.890625 15.1875 32.171875 
z
" id="BitstreamVeraSans-Roman-65"/>
      <path d="M 18.3125 70.21875 
L 18.3125 54.6875 
L 36.8125 54.6875 
L 36.8125 47.703125 
L 18.3125 47.703125 
L 18.3125 18.015625 
Q 18.3125 11.328125 20.140625 9.421875 
Q 21.96875 7.515625 27.59375 7.515625 
L 36.8125 7.515625 
L 36.8125 0 
L 27.59375 0 
Q 17.1875 0 13.234375 3.875 
Q 9.28125 7.765625 9.28125 18.015625 
L 9.28125 47.703125 
L 2.6875 47.703125 
L 2.6875 54.6875 
L 9.28125 54.6875 
L 9.28125 70.21875 
z
" id="BitstreamVeraSans-Roman-74"/>
      <path d="M 8.5 21.578125 
L 8.5 54.6875 
L 17.484375 54.6875 
L 17.484375 21.921875 
Q 17.484375 14.15625 20.5 10.265625 
Q 23.53125 6.390625 29.59375 6.390625 
Q 36.859375 6.390625 41.078125 11.03125 
Q 45.3125 15.671875 45.3125 23.6875 
L 45.3125 54.6875 
L 54.296875 54.6875 
L 54.296875 0 
L 45.3125 0 
L 45.3125 8.40625 
Q 42.046875 3.421875 37.71875 1 
Q 33.40625 -1.421875 27.6875 -1.421875 
Q 18.265625 -1.421875 13.375 4.4375 
Q 8.5 10.296875 8.5 21.578125 
" id="BitstreamVeraSans-Roman-75"/>
      <path d="M 41.109375 46.296875 
Q 39.59375 47.171875 37.8125 47.578125 
Q 36.03125 48 33.890625 48 
Q 26.265625 48 22.1875 43.046875 
Q 18.109375 38.09375 18.109375 28.8125 
L 18.109375 0 
L 9.078125 0 
L 9.078125 54.6875 
L 18.109375 54.6875 
L 18.109375 46.1875 
Q 20.953125 51.171875 25.484375 53.578125 
Q 30.03125 56 36.53125 56 
Q 37.453125 56 38.578125 55.875 
Q 39.703125 55.765625 41.0625 55.515625 
z
" id="BitstreamVeraSans-Roman-72"/>
      <path d="M 44.28125 53.078125 
L 44.28125 44.578125 
Q 40.484375 46.53125 36.375 47.5 
Q 32.28125 48.484375 27.875 48.484375 
Q 21.1875 48.484375 17.84375 46.4375 
Q 14.5 44.390625 14.5 40.28125 
Q 14.5 37.15625 16.890625 35.375 
Q 19.28125 33.59375 26.515625 31.984375 
L 29.59375 31.296875 
Q 39.15625 29.25 43.1875 25.515625 
Q 47.21875 21.78125 47.21875 15.09375 
Q 47.21875 7.46875 41.1875 3.015625 
Q 35.15625 -1.421875 24.609375 -1.421875 
Q 20.21875 -1.421875 15.453125 -0.5625 
Q 10.6875 0.296875 5.421875 2 
L 5.421875 11.28125 
Q 10.40625 8.6875 15.234375 7.390625 
Q 20.0625 6.109375 24.8125 6.109375 
Q 31.15625 6.109375 34.5625 8.28125 
Q 37.984375 10.453125 37.984375 14.40625 
Q 37.984375 18.0625 35.515625 20.015625 
Q 33.0625 21.96875 24.703125 23.78125 
L 21.578125 24.515625 
Q 13.234375 26.265625 9.515625 29.90625 
Q 5.8125 33.546875 5.8125 39.890625 
Q 5.8125 47.609375 11.28125 51.796875 
Q 16.75 56 26.8125 56 
Q 31.78125 56 36.171875 55.265625 
Q 40.578125 54.546875 44.28125 53.078125 
" id="BitstreamVeraSans-Roman-73"/>
     </defs>
     <g transform="translate(154.84425 322.2555)scale(0.144 -0.144)">
      <use transform="translate(0.0 0.015625)" xlink:href="#BitstreamVeraSans-Roman-50"/>
      <use transform="translate(60.302734375 0.015625)" xlink:href="#BitstreamVeraSans-Roman-75"/>
      <use transform="translate(123.681640625 0.015625)" xlink:href="#BitstreamVeraSans-Roman-6c"/>
      <use transform="translate(151.46484375 0.015625)" xlink:href="#BitstreamVeraSans-Roman-73"/>
      <use transform="translate(203.564453125 0.015625)" xlink:href="#BitstreamVeraSans-Roman-65"/>
      <use transform="translate(265.087890625 0.015625)" xlink:href="#BitstreamVeraSans-Roman-20"/>
      <use transform="translate(296.875 0.015625)" xlink:href="#BitstreamVeraSans-Roman-41"/>
      <use transform="translate(365.283203125 0.015625)" xlink:href="#BitstreamVeraSans-Roman-72"/>
      <use transform="translate(406.396484375 0.015625)" xlink:href="#BitstreamVeraSans-Roman-65"/>
      <use transform="translate(467.919921875 0.015625)" xlink:href="#BitstreamVeraSans-Roman-61"/>
      <use transform="translate(529.19921875 0.015625)" xlink:href="#BitstreamVeraSans-Roman-20"/>
      <use transform="translate(560.986328125 0.015625)" xlink:href="#BitstreamVeraSans-Roman-28"/>
      <use transform="translate(600.0 0.015625)" xlink:href="#STIXNonUnicode-Italic-e1e7"/>
      <use transform="translate(656.499984741 0.015625)" xlink:href="#BitstreamVeraSans-Roman-20"/>
      <use transform="translate(688.287094116 0.015625)" xlink:href="#BitstreamVeraSans-Roman-55"/>
      <use transform="translate(761.480453491 0.015625)" xlink:href="#BitstreamVeraSans-Roman-6e"/>
      <use transform="translate(824.859359741 0.015625)" xlink:href="#BitstreamVeraSans-Roman-69"/>
      <use transform="translate(852.642562866 0.015625)" xlink:href="#BitstreamVeraSans-Roman-74"/>
      <use transform="translate(891.851547241 0.015625)" xlink:href="#BitstreamVeraSans-Roman-73"/>
      <use transform="translate(943.951156616 0.015625)" xlink:href="#BitstreamVeraSans-Roman-29"/>
     </g>
    </g>
   </g>
   <g id="matplotlib.axis_2">
    <g id="ytick_1">
     <g id="line2d_23">
      <defs>
       <path d="M 0 0 
L 10 0 
" id="m1256ee440b" style="stroke:#000000;stroke-width:1.5;"/>
      </defs>
      <g>
       <use style="stroke:#000000;stroke-width:1.5;" x="49.22024999999999" xlink:href="#m1256ee440b" y="267.075"/>
      </g>
     </g>
     <g id="line2d_24">
      <defs>
       <path d="M 0 0 
L -10 0 
" id="m95ee488dc7" style="stroke:#000000;stroke-width:1.5;"/>
      </defs>
      <g>
       <use style="stroke:#000000;stroke-width:1.5;" x="402.0202499999999" xlink:href="#m95ee488dc7" y="267.075"/>
      </g>
     </g>
     <g id="text_11">
      <!-- 0.0 -->
      <defs>
       <path d="M 10.6875 12.40625 
L 21 12.40625 
L 21 0 
L 10.6875 0 
z
" id="BitstreamVeraSans-Roman-2e"/>
      </defs>
      <g transform="translate(26.136499999999995 270.38625)scale(0.12 -0.12)">
       <use xlink:href="#BitstreamVeraSans-Roman-30"/>
       <use x="63.623046875" xlink:href="#BitstreamVeraSans-Roman-2e"/>
       <use x="95.41015625" xlink:href="#BitstreamVeraSans-Roman-30"/>
      </g>
     </g>
    </g>
    <g id="ytick_2">
     <g id="line2d_25">
      <g>
       <use style="stroke:#000000;stroke-width:1.5;" x="49.22024999999999" xlink:href="#m1256ee440b" y="219.825"/>
      </g>
     </g>
     <g id="line2d_26">
      <g>
       <use style="stroke:#000000;stroke-width:1.5;" x="402.0202499999999" xlink:href="#m95ee488dc7" y="219.825"/>
      </g>
     </g>
     <g id="text_12">
      <!-- 0.2 -->
      <g transform="translate(26.136499999999995 223.13625000000002)scale(0.12 -0.12)">
       <use xlink:href="#BitstreamVeraSans-Roman-30"/>
       <use x="63.623046875" xlink:href="#BitstreamVeraSans-Roman-2e"/>
       <use x="95.41015625" xlink:href="#BitstreamVeraSans-Roman-32"/>
      </g>
     </g>
    </g>
    <g id="ytick_3">
     <g id="line2d_27">
      <g>
       <use style="stroke:#000000;stroke-width:1.5;" x="49.22024999999999" xlink:href="#m1256ee440b" y="172.575"/>
      </g>
     </g>
     <g id="line2d_28">
      <g>
       <use style="stroke:#000000;stroke-width:1.5;" x="402.0202499999999" xlink:href="#m95ee488dc7" y="172.575"/>
      </g>
     </g>
     <g id="text_13">
      <!-- 0.4 -->
      <g transform="translate(26.136499999999995 175.88625)scale(0.12 -0.12)">
       <use xlink:href="#BitstreamVeraSans-Roman-30"/>
       <use x="63.623046875" xlink:href="#BitstreamVeraSans-Roman-2e"/>
       <use x="95.41015625" xlink:href="#BitstreamVeraSans-Roman-34"/>
      </g>
     </g>
    </g>
    <g id="ytick_4">
     <g id="line2d_29">
      <g>
       <use style="stroke:#000000;stroke-width:1.5;" x="49.22024999999999" xlink:href="#m1256ee440b" y="125.32499999999999"/>
      </g>
     </g>
     <g id="line2d_30">
      <g>
       <use style="stroke:#000000;stroke-width:1.5;" x="402.0202499999999" xlink:href="#m95ee488dc7" y="125.32499999999999"/>
      </g>
     </g>
     <g id="text_14">
      <!-- 0.6 -->
      <g transform="translate(26.136499999999995 128.63625)scale(0.12 -0.12)">
       <use xlink:href="#BitstreamVeraSans-Roman-30"/>
       <use x="63.623046875" xlink:href="#BitstreamVeraSans-Roman-2e"/>
       <use x="95.41015625" xlink:href="#BitstreamVeraSans-Roman-36"/>
      </g>
     </g>
    </g>
    <g id="ytick_5">
     <g id="line2d_31">
      <g>
       <use style="stroke:#000000;stroke-width:1.5;" x="49.22024999999999" xlink:href="#m1256ee440b" y="78.07500000000002"/>
      </g>
     </g>
     <g id="line2d_32">
      <g>
       <use style="stroke:#000000;stroke-width:1.5;" x="402.0202499999999" xlink:href="#m95ee488dc7" y="78.07500000000002"/>
      </g>
     </g>
     <g id="text_15">
      <!-- 0.8 -->
      <g transform="translate(26.136499999999995 81.38625000000002)scale(0.12 -0.12)">
       <use xlink:href="#BitstreamVeraSans-Roman-30"/>
       <use x="63.623046875" xlink:href="#BitstreamVeraSans-Roman-2e"/>
       <use x="95.41015625" xlink:href="#BitstreamVeraSans-Roman-38"/>
      </g>
     </g>
    </g>
    <g id="ytick_6">
     <g id="line2d_33">
      <g>
       <use style="stroke:#000000;stroke-width:1.5;" x="49.22024999999999" xlink:href="#m1256ee440b" y="30.82499999999999"/>
      </g>
     </g>
     <g id="line2d_34">
      <g>
       <use style="stroke:#000000;stroke-width:1.5;" x="402.0202499999999" xlink:href="#m95ee488dc7" y="30.82499999999999"/>
      </g>
     </g>
     <g id="text_16">
      <!-- 1.0 -->
      <g transform="translate(26.136499999999995 34.13624999999996)scale(0.12 -0.12)">
       <use xlink:href="#BitstreamVeraSans-Roman-31"/>
       <use x="63.623046875" xlink:href="#BitstreamVeraSans-Roman-2e"/>
       <use x="95.41015625" xlink:href="#BitstreamVeraSans-Roman-30"/>
      </g>
     </g>
    </g>
    <g id="text_17">
     <!-- Occupation -->
     <defs>
      <path d="M 39.40625 66.21875 
Q 28.65625 66.21875 22.328125 58.203125 
Q 16.015625 50.203125 16.015625 36.375 
Q 16.015625 22.609375 22.328125 14.59375 
Q 28.65625 6.59375 39.40625 6.59375 
Q 50.140625 6.59375 56.421875 14.59375 
Q 62.703125 22.609375 62.703125 36.375 
Q 62.703125 50.203125 56.421875 58.203125 
Q 50.140625 66.21875 39.40625 66.21875 
M 39.40625 74.21875 
Q 54.734375 74.21875 63.90625 63.9375 
Q 73.09375 53.65625 73.09375 36.375 
Q 73.09375 19.140625 63.90625 8.859375 
Q 54.734375 -1.421875 39.40625 -1.421875 
Q 24.03125 -1.421875 14.8125 8.828125 
Q 5.609375 19.09375 5.609375 36.375 
Q 5.609375 53.65625 14.8125 63.9375 
Q 24.03125 74.21875 39.40625 74.21875 
" id="BitstreamVeraSans-Roman-4f"/>
      <path d="M 30.609375 48.390625 
Q 23.390625 48.390625 19.1875 42.75 
Q 14.984375 37.109375 14.984375 27.296875 
Q 14.984375 17.484375 19.15625 11.84375 
Q 23.34375 6.203125 30.609375 6.203125 
Q 37.796875 6.203125 41.984375 11.859375 
Q 46.1875 17.53125 46.1875 27.296875 
Q 46.1875 37.015625 41.984375 42.703125 
Q 37.796875 48.390625 30.609375 48.390625 
M 30.609375 56 
Q 42.328125 56 49.015625 48.375 
Q 55.71875 40.765625 55.71875 27.296875 
Q 55.71875 13.875 49.015625 6.21875 
Q 42.328125 -1.421875 30.609375 -1.421875 
Q 18.84375 -1.421875 12.171875 6.21875 
Q 5.515625 13.875 5.515625 27.296875 
Q 5.515625 40.765625 12.171875 48.375 
Q 18.84375 56 30.609375 56 
" id="BitstreamVeraSans-Roman-6f"/>
      <path d="M 18.109375 8.203125 
L 18.109375 -20.796875 
L 9.078125 -20.796875 
L 9.078125 54.6875 
L 18.109375 54.6875 
L 18.109375 46.390625 
Q 20.953125 51.265625 25.265625 53.625 
Q 29.59375 56 35.59375 56 
Q 45.5625 56 51.78125 48.09375 
Q 58.015625 40.1875 58.015625 27.296875 
Q 58.015625 14.40625 51.78125 6.484375 
Q 45.5625 -1.421875 35.59375 -1.421875 
Q 29.59375 -1.421875 25.265625 0.953125 
Q 20.953125 3.328125 18.109375 8.203125 
M 48.6875 27.296875 
Q 48.6875 37.203125 44.609375 42.84375 
Q 40.53125 48.484375 33.40625 48.484375 
Q 26.265625 48.484375 22.1875 42.84375 
Q 18.109375 37.203125 18.109375 27.296875 
Q 18.109375 17.390625 22.1875 11.75 
Q 26.265625 6.109375 33.40625 6.109375 
Q 40.53125 6.109375 44.609375 11.75 
Q 48.6875 17.390625 48.6875 27.296875 
" id="BitstreamVeraSans-Roman-70"/>
      <path d="M 48.78125 52.59375 
L 48.78125 44.1875 
Q 44.96875 46.296875 41.140625 47.34375 
Q 37.3125 48.390625 33.40625 48.390625 
Q 24.65625 48.390625 19.8125 42.84375 
Q 14.984375 37.3125 14.984375 27.296875 
Q 14.984375 17.28125 19.8125 11.734375 
Q 24.65625 6.203125 33.40625 6.203125 
Q 37.3125 6.203125 41.140625 7.25 
Q 44.96875 8.296875 48.78125 10.40625 
L 48.78125 2.09375 
Q 45.015625 0.34375 40.984375 -0.53125 
Q 36.96875 -1.421875 32.421875 -1.421875 
Q 20.0625 -1.421875 12.78125 6.34375 
Q 5.515625 14.109375 5.515625 27.296875 
Q 5.515625 40.671875 12.859375 48.328125 
Q 20.21875 56 33.015625 56 
Q 37.15625 56 41.109375 55.140625 
Q 45.0625 54.296875 48.78125 52.59375 
" id="BitstreamVeraSans-Roman-63"/>
     </defs>
     <g transform="translate(18.14174999999999 189.87300000000002)rotate(-90.0)scale(0.144 -0.144)">
      <use xlink:href="#BitstreamVeraSans-Roman-4f"/>
      <use x="78.7109375" xlink:href="#BitstreamVeraSans-Roman-63"/>
      <use x="133.69140625" xlink:href="#BitstreamVeraSans-Roman-63"/>
      <use x="188.671875" xlink:href="#BitstreamVeraSans-Roman-75"/>
      <use x="252.05078125" xlink:href="#BitstreamVeraSans-Roman-70"/>
      <use x="315.52734375" xlink:href="#BitstreamVeraSans-Roman-61"/>
      <use x="376.806640625" xlink:href="#BitstreamVeraSans-Roman-74"/>
      <use x="416.015625" xlink:href="#BitstreamVeraSans-Roman-69"/>
      <use x="443.798828125" xlink:href="#BitstreamVeraSans-Roman-6f"/>
      <use x="504.98046875" xlink:href="#BitstreamVeraSans-Roman-6e"/>
     </g>
    </g>
   </g>
   <g id="legend_1">
    <g id="line2d_35">
     <path d="M 42.04275 334.768125 
L 58.84275 334.768125 
" style="fill:none;stroke:#0000ff;stroke-linecap:square;stroke-width:1.5;"/>
    </g>
    <g id="line2d_36"/>
    <g id="text_18">
     <!-- 0.0 -->
     <g transform="translate(72.04274999999996 338.968125)scale(0.12 -0.12)">
      <use xlink:href="#BitstreamVeraSans-Roman-30"/>
      <use x="63.623046875" xlink:href="#BitstreamVeraSans-Roman-2e"/>
      <use x="95.41015625" xlink:href="#BitstreamVeraSans-Roman-30"/>
     </g>
    </g>
    <g id="line2d_37">
     <path d="M 118.7265 334.768125 
L 135.5265 334.768125 
" style="fill:none;stroke:#008000;stroke-linecap:square;stroke-width:1.5;"/>
    </g>
    <g id="line2d_38"/>
    <g id="text_19">
     <!-- 1000.0 -->
     <g transform="translate(148.72649999999996 338.968125)scale(0.12 -0.12)">
      <use xlink:href="#BitstreamVeraSans-Roman-31"/>
      <use x="63.623046875" xlink:href="#BitstreamVeraSans-Roman-30"/>
      <use x="127.24609375" xlink:href="#BitstreamVeraSans-Roman-30"/>
      <use x="190.869140625" xlink:href="#BitstreamVeraSans-Roman-30"/>
      <use x="254.4921875" xlink:href="#BitstreamVeraSans-Roman-2e"/>
      <use x="286.279296875" xlink:href="#BitstreamVeraSans-Roman-30"/>
     </g>
    </g>
    <g id="line2d_39">
     <path d="M 218.31525 334.768125 
L 235.11525 334.768125 
" style="fill:none;stroke:#ff0000;stroke-linecap:square;stroke-width:1.5;"/>
    </g>
    <g id="line2d_40"/>
    <g id="text_20">
     <!-- 10000.0 -->
     <g transform="translate(248.31524999999996 338.968125)scale(0.12 -0.12)">
      <use xlink:href="#BitstreamVeraSans-Roman-31"/>
      <use x="63.623046875" xlink:href="#BitstreamVeraSans-Roman-30"/>
      <use x="127.24609375" xlink:href="#BitstreamVeraSans-Roman-30"/>
      <use x="190.869140625" xlink:href="#BitstreamVeraSans-Roman-30"/>
      <use x="254.4921875" xlink:href="#BitstreamVeraSans-Roman-30"/>
      <use x="318.115234375" xlink:href="#BitstreamVeraSans-Roman-2e"/>
      <use x="349.90234375" xlink:href="#BitstreamVeraSans-Roman-30"/>
     </g>
    </g>
    <g id="line2d_41">
     <path d="M 325.539 334.768125 
L 342.339 334.768125 
" style="fill:none;stroke:#00bfbf;stroke-linecap:square;stroke-width:1.5;"/>
    </g>
    <g id="line2d_42"/>
    <g id="text_21">
     <!-- 300000.0 -->
     <g transform="translate(355.539 338.968125)scale(0.12 -0.12)">
      <use xlink:href="#BitstreamVeraSans-Roman-33"/>
      <use x="63.623046875" xlink:href="#BitstreamVeraSans-Roman-30"/>
      <use x="127.24609375" xlink:href="#BitstreamVeraSans-Roman-30"/>
      <use x="190.869140625" xlink:href="#BitstreamVeraSans-Roman-30"/>
      <use x="254.4921875" xlink:href="#BitstreamVeraSans-Roman-30"/>
      <use x="318.115234375" xlink:href="#BitstreamVeraSans-Roman-30"/>
      <use x="381.73828125" xlink:href="#BitstreamVeraSans-Roman-2e"/>
      <use x="413.525390625" xlink:href="#BitstreamVeraSans-Roman-30"/>
     </g>
    </g>
   </g>
  </g>
 </g>
 <defs>
  <clipPath id="pf270d8868b">
   <rect height="283.49999999999994" width="352.79999999999995" x="49.22024999999999" y="7.2000000000000455"/>
  </clipPath>
 </defs>
</svg>
