<?xml version="1.0" encoding="utf-8" standalone="no"?>
<!DOCTYPE svg PUBLIC "-//W3C//DTD SVG 1.1//EN"
  "http://www.w3.org/Graphics/SVG/1.1/DTD/svg11.dtd">
<!-- Created with matplotlib (http://matplotlib.org/) -->
<svg height="862pt" version="1.1" viewBox="0 0 600 862" width="600pt" xmlns="http://www.w3.org/2000/svg" xmlns:xlink="http://www.w3.org/1999/xlink">
 <defs>
  <style type="text/css">
*{stroke-linecap:butt;stroke-linejoin:round;stroke-miterlimit:100000;}
  </style>
 </defs>
 <g id="figure_1">
  <g id="patch_1">
   <path d="M 0 862.2 
L 600.3 862.2 
L 600.3 0 
L 0 0 
z
" style="fill:#ffffff;"/>
  </g>
  <g id="axes_1">
   <g id="patch_2">
    <path d="M 30.085869 196.61 
L 291.558206 196.61 
L 291.558206 12.96 
L 30.085869 12.96 
z
" style="fill:#ffffff;"/>
   </g>
   <g id="line2d_1">
    <path clip-path="url(#p0e430eb842)" d="M 30.085869 196.61 
L 36.790288 192.309095 
L 43.494707 180.098431 
L 50.199125 161.817899 
L 56.903544 139.926572 
L 63.607963 116.975451 
L 70.312382 95.204236 
L 77.016801 76.248841 
L 83.72122 60.992868 
L 90.425639 49.593592 
L 97.130058 41.663393 
L 103.834477 36.518079 
L 110.538896 33.401465 
L 117.243315 31.637318 
L 123.947733 30.701561 
L 130.652152 30.232844 
L 137.356571 30.006157 
L 144.06099 29.894744 
L 150.765409 29.833824 
L 157.469828 29.793891 
L 164.174247 29.763163 
L 170.878666 29.737737 
L 177.583085 29.716626 
L 184.287504 29.699579 
L 190.991923 29.686328 
L 197.696342 29.676422 
L 204.40076 29.669291 
L 211.105179 29.664336 
L 217.809598 29.661005 
L 224.514017 29.658835 
L 231.218436 29.657462 
L 237.922855 29.656619 
L 244.627274 29.656114 
L 251.331693 29.655819 
L 258.036112 29.655652 
L 264.740531 29.655559 
L 271.44495 29.655509 
L 278.149368 29.655482 
L 284.853787 29.655468 
L 291.558206 29.655461 
" style="fill:none;stroke:#0000ff;stroke-linecap:square;stroke-width:2.0;"/>
   </g>
   <g id="line2d_2">
    <path clip-path="url(#p0e430eb842)" d="M 30.085869 196.61 
L 36.790288 192.336583 
L 43.494707 180.234783 
L 50.199125 162.169 
L 56.903544 140.544157 
L 63.607963 117.802063 
L 70.312382 96.104632 
L 77.016801 77.102149 
L 83.72122 61.76122 
L 90.425639 50.337768 
L 97.130058 42.522156 
L 103.834477 37.663764 
L 110.538896 34.997744 
L 117.243315 33.800584 
L 123.947733 33.477329 
L 130.652152 33.587514 
L 137.356571 33.834885 
L 144.06099 34.040852 
L 150.765409 34.114028 
L 157.469828 34.023715 
L 164.174247 33.778398 
L 170.878666 33.409308 
L 177.583085 32.958103 
L 184.287504 32.467828 
L 190.991923 31.976793 
L 197.696342 31.514998 
L 204.40076 31.102741 
L 211.105179 30.750927 
L 217.809598 30.46254 
L 224.514017 30.234672 
L 231.218436 30.06065 
L 237.922855 29.931931 
L 244.627274 29.839557 
L 251.331693 29.775153 
L 258.036112 29.731477 
L 264.740531 29.702639 
L 271.44495 29.684085 
L 278.149368 29.672443 
L 284.853787 29.665317 
L 291.558206 29.661057 
" style="fill:none;stroke:#008000;stroke-linecap:square;stroke-width:2.0;"/>
   </g>
   <g id="patch_3">
    <path d="M 30.085869 12.96 
L 291.558206 12.96 
" style="fill:none;stroke:#000000;stroke-linecap:square;stroke-linejoin:miter;"/>
   </g>
   <g id="patch_4">
    <path d="M 291.558206 196.61 
L 291.558206 12.96 
" style="fill:none;stroke:#000000;stroke-linecap:square;stroke-linejoin:miter;"/>
   </g>
   <g id="patch_5">
    <path d="M 30.085869 196.61 
L 291.558206 196.61 
" style="fill:none;stroke:#000000;stroke-linecap:square;stroke-linejoin:miter;"/>
   </g>
   <g id="patch_6">
    <path d="M 30.085869 196.61 
L 30.085869 12.96 
" style="fill:none;stroke:#000000;stroke-linecap:square;stroke-linejoin:miter;"/>
   </g>
   <g id="matplotlib.axis_1">
    <g id="xtick_1">
     <g id="line2d_3">
      <defs>
       <path d="M 0 0 
L 0 -4 
" id="mb6e5dc57f1" style="stroke:#000000;stroke-width:0.5;"/>
      </defs>
      <g>
       <use style="stroke:#000000;stroke-width:0.5;" x="30.085868750000003" xlink:href="#mb6e5dc57f1" y="196.6099999999999"/>
      </g>
     </g>
     <g id="line2d_4">
      <defs>
       <path d="M 0 0 
L 0 4 
" id="m9199a4e7be" style="stroke:#000000;stroke-width:0.5;"/>
      </defs>
      <g>
       <use style="stroke:#000000;stroke-width:0.5;" x="30.085868750000003" xlink:href="#m9199a4e7be" y="12.960000000000036"/>
      </g>
     </g>
     <g id="text_1">
      <!-- 0 -->
      <defs>
       <path d="M 31.78125 66.40625 
Q 24.171875 66.40625 20.328125 58.90625 
Q 16.5 51.421875 16.5 36.375 
Q 16.5 21.390625 20.328125 13.890625 
Q 24.171875 6.390625 31.78125 6.390625 
Q 39.453125 6.390625 43.28125 13.890625 
Q 47.125 21.390625 47.125 36.375 
Q 47.125 51.421875 43.28125 58.90625 
Q 39.453125 66.40625 31.78125 66.40625 
M 31.78125 74.21875 
Q 44.046875 74.21875 50.515625 64.515625 
Q 56.984375 54.828125 56.984375 36.375 
Q 56.984375 17.96875 50.515625 8.265625 
Q 44.046875 -1.421875 31.78125 -1.421875 
Q 19.53125 -1.421875 13.0625 8.265625 
Q 6.59375 17.96875 6.59375 36.375 
Q 6.59375 54.828125 13.0625 64.515625 
Q 19.53125 74.21875 31.78125 74.21875 
" id="BitstreamVeraSans-Roman-30"/>
      </defs>
      <g transform="translate(26.268368750000004 209.72812499999986)scale(0.12 -0.12)">
       <use xlink:href="#BitstreamVeraSans-Roman-30"/>
      </g>
     </g>
    </g>
    <g id="xtick_2">
     <g id="line2d_5">
      <g>
       <use style="stroke:#000000;stroke-width:0.5;" x="95.453953125" xlink:href="#mb6e5dc57f1" y="196.6099999999999"/>
      </g>
     </g>
     <g id="line2d_6">
      <g>
       <use style="stroke:#000000;stroke-width:0.5;" x="95.453953125" xlink:href="#m9199a4e7be" y="12.960000000000036"/>
      </g>
     </g>
     <g id="text_2">
      <!-- 1 -->
      <defs>
       <path d="M 12.40625 8.296875 
L 28.515625 8.296875 
L 28.515625 63.921875 
L 10.984375 60.40625 
L 10.984375 69.390625 
L 28.421875 72.90625 
L 38.28125 72.90625 
L 38.28125 8.296875 
L 54.390625 8.296875 
L 54.390625 0 
L 12.40625 0 
z
" id="BitstreamVeraSans-Roman-31"/>
      </defs>
      <g transform="translate(91.636453125 209.72812499999986)scale(0.12 -0.12)">
       <use xlink:href="#BitstreamVeraSans-Roman-31"/>
      </g>
     </g>
    </g>
    <g id="xtick_3">
     <g id="line2d_7">
      <g>
       <use style="stroke:#000000;stroke-width:0.5;" x="160.8220375" xlink:href="#mb6e5dc57f1" y="196.6099999999999"/>
      </g>
     </g>
     <g id="line2d_8">
      <g>
       <use style="stroke:#000000;stroke-width:0.5;" x="160.8220375" xlink:href="#m9199a4e7be" y="12.960000000000036"/>
      </g>
     </g>
     <g id="text_3">
      <!-- 2 -->
      <defs>
       <path d="M 19.1875 8.296875 
L 53.609375 8.296875 
L 53.609375 0 
L 7.328125 0 
L 7.328125 8.296875 
Q 12.9375 14.109375 22.625 23.890625 
Q 32.328125 33.6875 34.8125 36.53125 
Q 39.546875 41.84375 41.421875 45.53125 
Q 43.3125 49.21875 43.3125 52.78125 
Q 43.3125 58.59375 39.234375 62.25 
Q 35.15625 65.921875 28.609375 65.921875 
Q 23.96875 65.921875 18.8125 64.3125 
Q 13.671875 62.703125 7.8125 59.421875 
L 7.8125 69.390625 
Q 13.765625 71.78125 18.9375 73 
Q 24.125 74.21875 28.421875 74.21875 
Q 39.75 74.21875 46.484375 68.546875 
Q 53.21875 62.890625 53.21875 53.421875 
Q 53.21875 48.921875 51.53125 44.890625 
Q 49.859375 40.875 45.40625 35.40625 
Q 44.1875 33.984375 37.640625 27.21875 
Q 31.109375 20.453125 19.1875 8.296875 
" id="BitstreamVeraSans-Roman-32"/>
      </defs>
      <g transform="translate(157.0045375 209.72812499999986)scale(0.12 -0.12)">
       <use xlink:href="#BitstreamVeraSans-Roman-32"/>
      </g>
     </g>
    </g>
    <g id="xtick_4">
     <g id="line2d_9">
      <g>
       <use style="stroke:#000000;stroke-width:0.5;" x="226.190121875" xlink:href="#mb6e5dc57f1" y="196.6099999999999"/>
      </g>
     </g>
     <g id="line2d_10">
      <g>
       <use style="stroke:#000000;stroke-width:0.5;" x="226.190121875" xlink:href="#m9199a4e7be" y="12.960000000000036"/>
      </g>
     </g>
     <g id="text_4">
      <!-- 3 -->
      <defs>
       <path d="M 40.578125 39.3125 
Q 47.65625 37.796875 51.625 33 
Q 55.609375 28.21875 55.609375 21.1875 
Q 55.609375 10.40625 48.1875 4.484375 
Q 40.765625 -1.421875 27.09375 -1.421875 
Q 22.515625 -1.421875 17.65625 -0.515625 
Q 12.796875 0.390625 7.625 2.203125 
L 7.625 11.71875 
Q 11.71875 9.328125 16.59375 8.109375 
Q 21.484375 6.890625 26.8125 6.890625 
Q 36.078125 6.890625 40.9375 10.546875 
Q 45.796875 14.203125 45.796875 21.1875 
Q 45.796875 27.640625 41.28125 31.265625 
Q 36.765625 34.90625 28.71875 34.90625 
L 20.21875 34.90625 
L 20.21875 43.015625 
L 29.109375 43.015625 
Q 36.375 43.015625 40.234375 45.921875 
Q 44.09375 48.828125 44.09375 54.296875 
Q 44.09375 59.90625 40.109375 62.90625 
Q 36.140625 65.921875 28.71875 65.921875 
Q 24.65625 65.921875 20.015625 65.03125 
Q 15.375 64.15625 9.8125 62.3125 
L 9.8125 71.09375 
Q 15.4375 72.65625 20.34375 73.4375 
Q 25.25 74.21875 29.59375 74.21875 
Q 40.828125 74.21875 47.359375 69.109375 
Q 53.90625 64.015625 53.90625 55.328125 
Q 53.90625 49.265625 50.4375 45.09375 
Q 46.96875 40.921875 40.578125 39.3125 
" id="BitstreamVeraSans-Roman-33"/>
      </defs>
      <g transform="translate(222.372621875 209.72812499999986)scale(0.12 -0.12)">
       <use xlink:href="#BitstreamVeraSans-Roman-33"/>
      </g>
     </g>
    </g>
    <g id="xtick_5">
     <g id="line2d_11">
      <g>
       <use style="stroke:#000000;stroke-width:0.5;" x="291.55820625" xlink:href="#mb6e5dc57f1" y="196.6099999999999"/>
      </g>
     </g>
     <g id="line2d_12">
      <g>
       <use style="stroke:#000000;stroke-width:0.5;" x="291.55820625" xlink:href="#m9199a4e7be" y="12.960000000000036"/>
      </g>
     </g>
     <g id="text_5">
      <!-- 4 -->
      <defs>
       <path d="M 37.796875 64.3125 
L 12.890625 25.390625 
L 37.796875 25.390625 
z
M 35.203125 72.90625 
L 47.609375 72.90625 
L 47.609375 25.390625 
L 58.015625 25.390625 
L 58.015625 17.1875 
L 47.609375 17.1875 
L 47.609375 0 
L 37.796875 0 
L 37.796875 17.1875 
L 4.890625 17.1875 
L 4.890625 26.703125 
z
" id="BitstreamVeraSans-Roman-34"/>
      </defs>
      <g transform="translate(287.74070625 209.72812499999986)scale(0.12 -0.12)">
       <use xlink:href="#BitstreamVeraSans-Roman-34"/>
      </g>
     </g>
    </g>
   </g>
   <g id="matplotlib.axis_2">
    <g id="ytick_1">
     <g id="line2d_13">
      <defs>
       <path d="M 0 0 
L 4 0 
" id="m1a7a6993e8" style="stroke:#000000;stroke-width:0.5;"/>
      </defs>
      <g>
       <use style="stroke:#000000;stroke-width:0.5;" x="30.085868750000003" xlink:href="#m1a7a6993e8" y="196.6099999999999"/>
      </g>
     </g>
     <g id="line2d_14">
      <defs>
       <path d="M 0 0 
L -4 0 
" id="md71fb406af" style="stroke:#000000;stroke-width:0.5;"/>
      </defs>
      <g>
       <use style="stroke:#000000;stroke-width:0.5;" x="291.55820625" xlink:href="#md71fb406af" y="196.6099999999999"/>
      </g>
     </g>
     <g id="text_6">
      <!-- 0.0 -->
      <defs>
       <path d="M 10.6875 12.40625 
L 21 12.40625 
L 21 0 
L 10.6875 0 
z
" id="BitstreamVeraSans-Roman-2e"/>
      </defs>
      <g transform="translate(7.002118750000005 199.92124999999987)scale(0.12 -0.12)">
       <use xlink:href="#BitstreamVeraSans-Roman-30"/>
       <use x="63.623046875" xlink:href="#BitstreamVeraSans-Roman-2e"/>
       <use x="95.41015625" xlink:href="#BitstreamVeraSans-Roman-30"/>
      </g>
     </g>
    </g>
    <g id="ytick_2">
     <g id="line2d_15">
      <g>
       <use style="stroke:#000000;stroke-width:0.5;" x="30.085868750000003" xlink:href="#m1a7a6993e8" y="113.13272727272724"/>
      </g>
     </g>
     <g id="line2d_16">
      <g>
       <use style="stroke:#000000;stroke-width:0.5;" x="291.55820625" xlink:href="#md71fb406af" y="113.13272727272724"/>
      </g>
     </g>
     <g id="text_7">
      <!-- 0.5 -->
      <defs>
       <path d="M 10.796875 72.90625 
L 49.515625 72.90625 
L 49.515625 64.59375 
L 19.828125 64.59375 
L 19.828125 46.734375 
Q 21.96875 47.46875 24.109375 47.828125 
Q 26.265625 48.1875 28.421875 48.1875 
Q 40.625 48.1875 47.75 41.5 
Q 54.890625 34.8125 54.890625 23.390625 
Q 54.890625 11.625 47.5625 5.09375 
Q 40.234375 -1.421875 26.90625 -1.421875 
Q 22.3125 -1.421875 17.546875 -0.640625 
Q 12.796875 0.140625 7.71875 1.703125 
L 7.71875 11.625 
Q 12.109375 9.234375 16.796875 8.0625 
Q 21.484375 6.890625 26.703125 6.890625 
Q 35.15625 6.890625 40.078125 11.328125 
Q 45.015625 15.765625 45.015625 23.390625 
Q 45.015625 31 40.078125 35.4375 
Q 35.15625 39.890625 26.703125 39.890625 
Q 22.75 39.890625 18.8125 39.015625 
Q 14.890625 38.140625 10.796875 36.28125 
z
" id="BitstreamVeraSans-Roman-35"/>
      </defs>
      <g transform="translate(7.002118750000005 116.44397727272724)scale(0.12 -0.12)">
       <use xlink:href="#BitstreamVeraSans-Roman-30"/>
       <use x="63.623046875" xlink:href="#BitstreamVeraSans-Roman-2e"/>
       <use x="95.41015625" xlink:href="#BitstreamVeraSans-Roman-35"/>
      </g>
     </g>
    </g>
    <g id="ytick_3">
     <g id="line2d_17">
      <g>
       <use style="stroke:#000000;stroke-width:0.5;" x="30.085868750000003" xlink:href="#m1a7a6993e8" y="29.655454545454575"/>
      </g>
     </g>
     <g id="line2d_18">
      <g>
       <use style="stroke:#000000;stroke-width:0.5;" x="291.55820625" xlink:href="#md71fb406af" y="29.655454545454575"/>
      </g>
     </g>
     <g id="text_8">
      <!-- 1.0 -->
      <g transform="translate(7.002118750000005 32.96670454545449)scale(0.12 -0.12)">
       <use xlink:href="#BitstreamVeraSans-Roman-31"/>
       <use x="63.623046875" xlink:href="#BitstreamVeraSans-Roman-2e"/>
       <use x="95.41015625" xlink:href="#BitstreamVeraSans-Roman-30"/>
      </g>
     </g>
    </g>
   </g>
   <g id="text_9">
    <!-- 0.56 meV -->
    <defs>
     <path d="M 56.203125 29.59375 
L 56.203125 25.203125 
L 14.890625 25.203125 
Q 15.484375 15.921875 20.484375 11.0625 
Q 25.484375 6.203125 34.421875 6.203125 
Q 39.59375 6.203125 44.453125 7.46875 
Q 49.3125 8.734375 54.109375 11.28125 
L 54.109375 2.78125 
Q 49.265625 0.734375 44.1875 -0.34375 
Q 39.109375 -1.421875 33.890625 -1.421875 
Q 20.796875 -1.421875 13.15625 6.1875 
Q 5.515625 13.8125 5.515625 26.8125 
Q 5.515625 40.234375 12.765625 48.109375 
Q 20.015625 56 32.328125 56 
Q 43.359375 56 49.78125 48.890625 
Q 56.203125 41.796875 56.203125 29.59375 
M 47.21875 32.234375 
Q 47.125 39.59375 43.09375 43.984375 
Q 39.0625 48.390625 32.421875 48.390625 
Q 24.90625 48.390625 20.390625 44.140625 
Q 15.875 39.890625 15.1875 32.171875 
z
" id="BitstreamVeraSans-Roman-65"/>
     <path id="BitstreamVeraSans-Roman-20"/>
     <path d="M 33.015625 40.375 
Q 26.375 40.375 22.484375 35.828125 
Q 18.609375 31.296875 18.609375 23.390625 
Q 18.609375 15.53125 22.484375 10.953125 
Q 26.375 6.390625 33.015625 6.390625 
Q 39.65625 6.390625 43.53125 10.953125 
Q 47.40625 15.53125 47.40625 23.390625 
Q 47.40625 31.296875 43.53125 35.828125 
Q 39.65625 40.375 33.015625 40.375 
M 52.59375 71.296875 
L 52.59375 62.3125 
Q 48.875 64.0625 45.09375 64.984375 
Q 41.3125 65.921875 37.59375 65.921875 
Q 27.828125 65.921875 22.671875 59.328125 
Q 17.53125 52.734375 16.796875 39.40625 
Q 19.671875 43.65625 24.015625 45.921875 
Q 28.375 48.1875 33.59375 48.1875 
Q 44.578125 48.1875 50.953125 41.515625 
Q 57.328125 34.859375 57.328125 23.390625 
Q 57.328125 12.15625 50.6875 5.359375 
Q 44.046875 -1.421875 33.015625 -1.421875 
Q 20.359375 -1.421875 13.671875 8.265625 
Q 6.984375 17.96875 6.984375 36.375 
Q 6.984375 53.65625 15.1875 63.9375 
Q 23.390625 74.21875 37.203125 74.21875 
Q 40.921875 74.21875 44.703125 73.484375 
Q 48.484375 72.75 52.59375 71.296875 
" id="BitstreamVeraSans-Roman-36"/>
     <path d="M 28.609375 0 
L 0.78125 72.90625 
L 11.078125 72.90625 
L 34.1875 11.53125 
L 57.328125 72.90625 
L 67.578125 72.90625 
L 39.796875 0 
z
" id="BitstreamVeraSans-Roman-56"/>
     <path d="M 52 44.1875 
Q 55.375 50.25 60.0625 53.125 
Q 64.75 56 71.09375 56 
Q 79.640625 56 84.28125 50.015625 
Q 88.921875 44.046875 88.921875 33.015625 
L 88.921875 0 
L 79.890625 0 
L 79.890625 32.71875 
Q 79.890625 40.578125 77.09375 44.375 
Q 74.3125 48.1875 68.609375 48.1875 
Q 61.625 48.1875 57.5625 43.546875 
Q 53.515625 38.921875 53.515625 30.90625 
L 53.515625 0 
L 44.484375 0 
L 44.484375 32.71875 
Q 44.484375 40.625 41.703125 44.40625 
Q 38.921875 48.1875 33.109375 48.1875 
Q 26.21875 48.1875 22.15625 43.53125 
Q 18.109375 38.875 18.109375 30.90625 
L 18.109375 0 
L 9.078125 0 
L 9.078125 54.6875 
L 18.109375 54.6875 
L 18.109375 46.1875 
Q 21.1875 51.21875 25.484375 53.609375 
Q 29.78125 56 35.6875 56 
Q 41.65625 56 45.828125 52.96875 
Q 50 49.953125 52 44.1875 
" id="BitstreamVeraSans-Roman-6d"/>
    </defs>
    <g transform="translate(160.8220375 163.21909090909082)scale(0.08 -0.08)">
     <use xlink:href="#BitstreamVeraSans-Roman-30"/>
     <use x="63.623046875" xlink:href="#BitstreamVeraSans-Roman-2e"/>
     <use x="95.41015625" xlink:href="#BitstreamVeraSans-Roman-35"/>
     <use x="159.033203125" xlink:href="#BitstreamVeraSans-Roman-36"/>
     <use x="222.65625" xlink:href="#BitstreamVeraSans-Roman-20"/>
     <use x="254.443359375" xlink:href="#BitstreamVeraSans-Roman-6d"/>
     <use x="351.85546875" xlink:href="#BitstreamVeraSans-Roman-65"/>
     <use x="413.37890625" xlink:href="#BitstreamVeraSans-Roman-56"/>
    </g>
   </g>
   <g id="legend_1">
    <g id="line2d_19">
     <path d="M 39.685869 23.43875 
L 50.885869 23.43875 
" style="fill:none;stroke:#0000ff;stroke-linecap:square;stroke-width:2.0;"/>
    </g>
    <g id="line2d_20"/>
    <g id="text_10">
     <!-- P300 -->
     <defs>
      <path d="M 19.671875 64.796875 
L 19.671875 37.40625 
L 32.078125 37.40625 
Q 38.96875 37.40625 42.71875 40.96875 
Q 46.484375 44.53125 46.484375 51.125 
Q 46.484375 57.671875 42.71875 61.234375 
Q 38.96875 64.796875 32.078125 64.796875 
z
M 9.8125 72.90625 
L 32.078125 72.90625 
Q 44.34375 72.90625 50.609375 67.359375 
Q 56.890625 61.8125 56.890625 51.125 
Q 56.890625 40.328125 50.609375 34.8125 
Q 44.34375 29.296875 32.078125 29.296875 
L 19.671875 29.296875 
L 19.671875 0 
L 9.8125 0 
z
" id="BitstreamVeraSans-Roman-50"/>
     </defs>
     <g transform="translate(59.685868750000004 26.238749999999982)scale(0.08 -0.08)">
      <use xlink:href="#BitstreamVeraSans-Roman-50"/>
      <use x="60.302734375" xlink:href="#BitstreamVeraSans-Roman-33"/>
      <use x="123.92578125" xlink:href="#BitstreamVeraSans-Roman-30"/>
      <use x="187.548828125" xlink:href="#BitstreamVeraSans-Roman-30"/>
     </g>
    </g>
    <g id="line2d_21">
     <path d="M 39.685869 35.18125 
L 50.885869 35.18125 
" style="fill:none;stroke:#008000;stroke-linecap:square;stroke-width:2.0;"/>
    </g>
    <g id="line2d_22"/>
    <g id="text_11">
     <!-- N300 -->
     <defs>
      <path d="M 9.8125 72.90625 
L 23.09375 72.90625 
L 55.421875 11.921875 
L 55.421875 72.90625 
L 64.984375 72.90625 
L 64.984375 0 
L 51.703125 0 
L 19.390625 60.984375 
L 19.390625 0 
L 9.8125 0 
z
" id="BitstreamVeraSans-Roman-4e"/>
     </defs>
     <g transform="translate(59.685868750000004 37.98124999999993)scale(0.08 -0.08)">
      <use xlink:href="#BitstreamVeraSans-Roman-4e"/>
      <use x="74.8046875" xlink:href="#BitstreamVeraSans-Roman-33"/>
      <use x="138.427734375" xlink:href="#BitstreamVeraSans-Roman-30"/>
      <use x="202.05078125" xlink:href="#BitstreamVeraSans-Roman-30"/>
     </g>
    </g>
   </g>
  </g>
  <g id="axes_2">
   <g id="patch_7">
    <path d="M 324.833169 196.61 
L 586.305506 196.61 
L 586.305506 12.96 
L 324.833169 12.96 
z
" style="fill:#ffffff;"/>
   </g>
   <g id="line2d_23">
    <path clip-path="url(#pa0245fe511)" d="M 324.833169 196.61 
L 331.537588 192.293499 
L 338.242007 180.052047 
L 344.946425 161.770939 
L 351.650844 139.951288 
L 358.355263 117.13141 
L 365.059682 95.480579 
L 371.764101 76.567296 
L 378.46852 61.265246 
L 385.172939 49.775965 
L 391.877358 41.765534 
L 398.581777 36.575833 
L 405.286196 33.451325 
L 411.990615 31.700868 
L 418.695033 30.784805 
L 425.399452 30.33151 
L 432.103871 30.111699 
L 438.80829 29.998391 
L 445.512709 29.928843 
L 452.217128 29.876184 
L 458.921547 29.831042 
L 465.625966 29.791371 
L 472.330385 29.757384 
L 479.034804 29.72946 
L 485.739223 29.707507 
L 492.443642 29.690963 
L 499.14806 29.678976 
L 505.852479 29.670601 
L 512.556898 29.664947 
L 519.261317 29.66125 
L 525.965736 29.658904 
L 532.670155 29.657458 
L 539.374574 29.656591 
L 546.078993 29.656084 
L 552.783412 29.655796 
L 559.487831 29.655635 
L 566.19225 29.655548 
L 572.896668 29.655502 
L 579.601087 29.655478 
L 586.305506 29.655466 
" style="fill:none;stroke:#0000ff;stroke-linecap:square;stroke-width:2.0;"/>
   </g>
   <g id="line2d_24">
    <path clip-path="url(#pa0245fe511)" d="M 324.833169 196.61 
L 331.537588 192.331344 
L 338.242007 180.242364 
L 344.946425 162.28835 
L 351.650844 140.950184 
L 358.355263 118.634398 
L 365.059682 97.341543 
L 371.764101 78.543359 
L 378.46852 63.154297 
L 385.172939 51.528559 
L 391.877358 43.513784 
L 398.581777 38.586912 
L 405.286196 36.031412 
L 411.990615 35.102029 
L 418.695033 35.141861 
L 425.399452 35.637576 
L 432.103871 36.227605 
L 438.80829 36.685699 
L 445.512709 36.893688 
L 452.217128 36.813774 
L 458.921547 36.463548 
L 465.625966 35.894975 
L 472.330385 35.176966 
L 479.034804 34.381669 
L 485.739223 33.574456 
L 492.443642 32.80762 
L 499.14806 32.117564 
L 505.852479 31.524877 
L 512.556898 31.036475 
L 519.261317 30.648887 
L 525.965736 30.351826 
L 532.670155 30.131441 
L 539.374574 29.972894 
L 546.078993 29.862121 
L 552.783412 29.786867 
L 559.487831 29.737103 
L 566.19225 29.705043 
L 572.896668 29.684905 
L 579.601087 29.672563 
L 586.305506 29.66518 
" style="fill:none;stroke:#008000;stroke-linecap:square;stroke-width:2.0;"/>
   </g>
   <g id="patch_8">
    <path d="M 324.833169 12.96 
L 586.305506 12.96 
" style="fill:none;stroke:#000000;stroke-linecap:square;stroke-linejoin:miter;"/>
   </g>
   <g id="patch_9">
    <path d="M 586.305506 196.61 
L 586.305506 12.96 
" style="fill:none;stroke:#000000;stroke-linecap:square;stroke-linejoin:miter;"/>
   </g>
   <g id="patch_10">
    <path d="M 324.833169 196.61 
L 586.305506 196.61 
" style="fill:none;stroke:#000000;stroke-linecap:square;stroke-linejoin:miter;"/>
   </g>
   <g id="patch_11">
    <path d="M 324.833169 196.61 
L 324.833169 12.96 
" style="fill:none;stroke:#000000;stroke-linecap:square;stroke-linejoin:miter;"/>
   </g>
   <g id="matplotlib.axis_3">
    <g id="xtick_6">
     <g id="line2d_25">
      <g>
       <use style="stroke:#000000;stroke-width:0.5;" x="324.8331687500001" xlink:href="#mb6e5dc57f1" y="196.6099999999999"/>
      </g>
     </g>
     <g id="line2d_26">
      <g>
       <use style="stroke:#000000;stroke-width:0.5;" x="324.8331687500001" xlink:href="#m9199a4e7be" y="12.960000000000036"/>
      </g>
     </g>
     <g id="text_12">
      <!-- 0 -->
      <g transform="translate(321.0156687500001 209.72812499999986)scale(0.12 -0.12)">
       <use xlink:href="#BitstreamVeraSans-Roman-30"/>
      </g>
     </g>
    </g>
    <g id="xtick_7">
     <g id="line2d_27">
      <g>
       <use style="stroke:#000000;stroke-width:0.5;" x="390.20125312500005" xlink:href="#mb6e5dc57f1" y="196.6099999999999"/>
      </g>
     </g>
     <g id="line2d_28">
      <g>
       <use style="stroke:#000000;stroke-width:0.5;" x="390.20125312500005" xlink:href="#m9199a4e7be" y="12.960000000000036"/>
      </g>
     </g>
     <g id="text_13">
      <!-- 1 -->
      <g transform="translate(386.38375312500006 209.72812499999986)scale(0.12 -0.12)">
       <use xlink:href="#BitstreamVeraSans-Roman-31"/>
      </g>
     </g>
    </g>
    <g id="xtick_8">
     <g id="line2d_29">
      <g>
       <use style="stroke:#000000;stroke-width:0.5;" x="455.5693375000001" xlink:href="#mb6e5dc57f1" y="196.6099999999999"/>
      </g>
     </g>
     <g id="line2d_30">
      <g>
       <use style="stroke:#000000;stroke-width:0.5;" x="455.5693375000001" xlink:href="#m9199a4e7be" y="12.960000000000036"/>
      </g>
     </g>
     <g id="text_14">
      <!-- 2 -->
      <g transform="translate(451.7518375000001 209.72812499999986)scale(0.12 -0.12)">
       <use xlink:href="#BitstreamVeraSans-Roman-32"/>
      </g>
     </g>
    </g>
    <g id="xtick_9">
     <g id="line2d_31">
      <g>
       <use style="stroke:#000000;stroke-width:0.5;" x="520.937421875" xlink:href="#mb6e5dc57f1" y="196.6099999999999"/>
      </g>
     </g>
     <g id="line2d_32">
      <g>
       <use style="stroke:#000000;stroke-width:0.5;" x="520.937421875" xlink:href="#m9199a4e7be" y="12.960000000000036"/>
      </g>
     </g>
     <g id="text_15">
      <!-- 3 -->
      <g transform="translate(517.119921875 209.72812499999986)scale(0.12 -0.12)">
       <use xlink:href="#BitstreamVeraSans-Roman-33"/>
      </g>
     </g>
    </g>
    <g id="xtick_10">
     <g id="line2d_33">
      <g>
       <use style="stroke:#000000;stroke-width:0.5;" x="586.30550625" xlink:href="#mb6e5dc57f1" y="196.6099999999999"/>
      </g>
     </g>
     <g id="line2d_34">
      <g>
       <use style="stroke:#000000;stroke-width:0.5;" x="586.30550625" xlink:href="#m9199a4e7be" y="12.960000000000036"/>
      </g>
     </g>
     <g id="text_16">
      <!-- 4 -->
      <g transform="translate(582.48800625 209.72812499999986)scale(0.12 -0.12)">
       <use xlink:href="#BitstreamVeraSans-Roman-34"/>
      </g>
     </g>
    </g>
   </g>
   <g id="matplotlib.axis_4">
    <g id="ytick_4">
     <g id="line2d_35">
      <g>
       <use style="stroke:#000000;stroke-width:0.5;" x="324.8331687500001" xlink:href="#m1a7a6993e8" y="196.6099999999999"/>
      </g>
     </g>
     <g id="line2d_36">
      <g>
       <use style="stroke:#000000;stroke-width:0.5;" x="586.30550625" xlink:href="#md71fb406af" y="196.6099999999999"/>
      </g>
     </g>
     <g id="text_17">
      <!-- 0.0 -->
      <g transform="translate(301.7494187500001 199.92124999999987)scale(0.12 -0.12)">
       <use xlink:href="#BitstreamVeraSans-Roman-30"/>
       <use x="63.623046875" xlink:href="#BitstreamVeraSans-Roman-2e"/>
       <use x="95.41015625" xlink:href="#BitstreamVeraSans-Roman-30"/>
      </g>
     </g>
    </g>
    <g id="ytick_5">
     <g id="line2d_37">
      <g>
       <use style="stroke:#000000;stroke-width:0.5;" x="324.8331687500001" xlink:href="#m1a7a6993e8" y="113.13272727272724"/>
      </g>
     </g>
     <g id="line2d_38">
      <g>
       <use style="stroke:#000000;stroke-width:0.5;" x="586.30550625" xlink:href="#md71fb406af" y="113.13272727272724"/>
      </g>
     </g>
     <g id="text_18">
      <!-- 0.5 -->
      <g transform="translate(301.7494187500001 116.44397727272724)scale(0.12 -0.12)">
       <use xlink:href="#BitstreamVeraSans-Roman-30"/>
       <use x="63.623046875" xlink:href="#BitstreamVeraSans-Roman-2e"/>
       <use x="95.41015625" xlink:href="#BitstreamVeraSans-Roman-35"/>
      </g>
     </g>
    </g>
    <g id="ytick_6">
     <g id="line2d_39">
      <g>
       <use style="stroke:#000000;stroke-width:0.5;" x="324.8331687500001" xlink:href="#m1a7a6993e8" y="29.655454545454575"/>
      </g>
     </g>
     <g id="line2d_40">
      <g>
       <use style="stroke:#000000;stroke-width:0.5;" x="586.30550625" xlink:href="#md71fb406af" y="29.655454545454575"/>
      </g>
     </g>
     <g id="text_19">
      <!-- 1.0 -->
      <g transform="translate(301.7494187500001 32.96670454545449)scale(0.12 -0.12)">
       <use xlink:href="#BitstreamVeraSans-Roman-31"/>
       <use x="63.623046875" xlink:href="#BitstreamVeraSans-Roman-2e"/>
       <use x="95.41015625" xlink:href="#BitstreamVeraSans-Roman-30"/>
      </g>
     </g>
    </g>
   </g>
   <g id="text_20">
    <!-- 0.71 meV -->
    <defs>
     <path d="M 8.203125 72.90625 
L 55.078125 72.90625 
L 55.078125 68.703125 
L 28.609375 0 
L 18.3125 0 
L 43.21875 64.59375 
L 8.203125 64.59375 
z
" id="BitstreamVeraSans-Roman-37"/>
    </defs>
    <g transform="translate(455.5693375000001 163.21909090909082)scale(0.08 -0.08)">
     <use xlink:href="#BitstreamVeraSans-Roman-30"/>
     <use x="63.623046875" xlink:href="#BitstreamVeraSans-Roman-2e"/>
     <use x="95.41015625" xlink:href="#BitstreamVeraSans-Roman-37"/>
     <use x="159.033203125" xlink:href="#BitstreamVeraSans-Roman-31"/>
     <use x="222.65625" xlink:href="#BitstreamVeraSans-Roman-20"/>
     <use x="254.443359375" xlink:href="#BitstreamVeraSans-Roman-6d"/>
     <use x="351.85546875" xlink:href="#BitstreamVeraSans-Roman-65"/>
     <use x="413.37890625" xlink:href="#BitstreamVeraSans-Roman-56"/>
    </g>
   </g>
   <g id="legend_2">
    <g id="line2d_41">
     <path d="M 334.433169 23.43875 
L 345.633169 23.43875 
" style="fill:none;stroke:#0000ff;stroke-linecap:square;stroke-width:2.0;"/>
    </g>
    <g id="line2d_42"/>
    <g id="text_21">
     <!-- P300 -->
     <g transform="translate(354.43316875000005 26.238749999999982)scale(0.08 -0.08)">
      <use xlink:href="#BitstreamVeraSans-Roman-50"/>
      <use x="60.302734375" xlink:href="#BitstreamVeraSans-Roman-33"/>
      <use x="123.92578125" xlink:href="#BitstreamVeraSans-Roman-30"/>
      <use x="187.548828125" xlink:href="#BitstreamVeraSans-Roman-30"/>
     </g>
    </g>
    <g id="line2d_43">
     <path d="M 334.433169 35.18125 
L 345.633169 35.18125 
" style="fill:none;stroke:#008000;stroke-linecap:square;stroke-width:2.0;"/>
    </g>
    <g id="line2d_44"/>
    <g id="text_22">
     <!-- N300 -->
     <g transform="translate(354.43316875000005 37.98124999999993)scale(0.08 -0.08)">
      <use xlink:href="#BitstreamVeraSans-Roman-4e"/>
      <use x="74.8046875" xlink:href="#BitstreamVeraSans-Roman-33"/>
      <use x="138.427734375" xlink:href="#BitstreamVeraSans-Roman-30"/>
      <use x="202.05078125" xlink:href="#BitstreamVeraSans-Roman-30"/>
     </g>
    </g>
   </g>
  </g>
  <g id="axes_3">
   <g id="patch_12">
    <path d="M 30.085869 408.92 
L 291.558206 408.92 
L 291.558206 225.27 
L 30.085869 225.27 
z
" style="fill:#ffffff;"/>
   </g>
   <g id="line2d_45">
    <path clip-path="url(#p6b5ff55334)" d="M 30.085869 408.92 
L 36.790288 404.578528 
L 43.494707 392.281094 
L 50.199125 373.965926 
L 56.903544 352.19752 
L 63.607963 329.538144 
L 70.312382 308.107382 
L 77.016801 289.377359 
L 83.72122 274.146555 
L 90.425639 262.605865 
L 97.130058 254.47265 
L 103.834477 249.15658 
L 110.538896 245.944978 
L 117.243315 244.155455 
L 123.947733 243.234627 
L 130.652152 242.790832 
L 137.356571 242.579804 
L 144.06099 242.467164 
L 150.765409 242.388861 
L 157.469828 242.32 
L 164.174247 242.25443 
L 170.878666 242.193123 
L 177.583085 242.138589 
L 184.287504 242.092627 
L 190.991923 242.055803 
L 197.696342 242.027626 
L 204.40076 242.006952 
L 211.105179 241.992355 
L 217.809598 241.98241 
L 224.514017 241.975857 
L 231.218436 241.971673 
L 237.922855 241.96908 
L 244.627274 241.967517 
L 251.331693 241.966601 
L 258.036112 241.966077 
L 264.740531 241.965785 
L 271.44495 241.965627 
L 278.149368 241.965542 
L 284.853787 241.965498 
L 291.558206 241.965476 
" style="fill:none;stroke:#0000ff;stroke-linecap:square;stroke-width:2.0;"/>
   </g>
   <g id="line2d_46">
    <path clip-path="url(#p6b5ff55334)" d="M 30.085869 408.92 
L 36.790288 404.624329 
L 43.494707 392.520301 
L 50.199125 374.65573 
L 56.903544 353.639722 
L 63.607963 331.933854 
L 70.312382 311.437176 
L 77.016801 293.39109 
L 83.72122 278.473406 
L 90.425639 266.937108 
L 97.130058 258.715627 
L 103.834477 253.489205 
L 110.538896 250.749382 
L 117.243315 249.872456 
L 123.947733 250.20947 
L 130.652152 251.168506 
L 137.356571 252.272149 
L 144.06099 253.182711 
L 150.765409 253.699892 
L 157.469828 253.741729 
L 164.174247 253.317294 
L 170.878666 252.498057 
L 177.583085 251.391027 
L 184.287504 250.115622 
L 190.991923 248.785452 
L 197.696342 247.495676 
L 204.40076 246.316122 
L 211.105179 245.28966 
L 217.809598 244.434697 
L 224.514017 243.750185 
L 231.218436 243.221692 
L 237.922855 242.827218 
L 244.627274 242.541977 
L 251.331693 242.341829 
L 258.036112 242.20536 
L 264.740531 242.114834 
L 271.44495 242.056354 
L 278.149368 242.019533 
L 284.853787 241.996921 
L 291.558206 241.983368 
" style="fill:none;stroke:#008000;stroke-linecap:square;stroke-width:2.0;"/>
   </g>
   <g id="patch_13">
    <path d="M 30.085869 225.27 
L 291.558206 225.27 
" style="fill:none;stroke:#000000;stroke-linecap:square;stroke-linejoin:miter;"/>
   </g>
   <g id="patch_14">
    <path d="M 291.558206 408.92 
L 291.558206 225.27 
" style="fill:none;stroke:#000000;stroke-linecap:square;stroke-linejoin:miter;"/>
   </g>
   <g id="patch_15">
    <path d="M 30.085869 408.92 
L 291.558206 408.92 
" style="fill:none;stroke:#000000;stroke-linecap:square;stroke-linejoin:miter;"/>
   </g>
   <g id="patch_16">
    <path d="M 30.085869 408.92 
L 30.085869 225.27 
" style="fill:none;stroke:#000000;stroke-linecap:square;stroke-linejoin:miter;"/>
   </g>
   <g id="matplotlib.axis_5">
    <g id="xtick_11">
     <g id="line2d_47">
      <g>
       <use style="stroke:#000000;stroke-width:0.5;" x="30.085868750000003" xlink:href="#mb6e5dc57f1" y="408.9199999999999"/>
      </g>
     </g>
     <g id="line2d_48">
      <g>
       <use style="stroke:#000000;stroke-width:0.5;" x="30.085868750000003" xlink:href="#m9199a4e7be" y="225.26999999999998"/>
      </g>
     </g>
     <g id="text_23">
      <!-- 0 -->
      <g transform="translate(26.268368750000004 422.0381249999999)scale(0.12 -0.12)">
       <use xlink:href="#BitstreamVeraSans-Roman-30"/>
      </g>
     </g>
    </g>
    <g id="xtick_12">
     <g id="line2d_49">
      <g>
       <use style="stroke:#000000;stroke-width:0.5;" x="95.453953125" xlink:href="#mb6e5dc57f1" y="408.9199999999999"/>
      </g>
     </g>
     <g id="line2d_50">
      <g>
       <use style="stroke:#000000;stroke-width:0.5;" x="95.453953125" xlink:href="#m9199a4e7be" y="225.26999999999998"/>
      </g>
     </g>
     <g id="text_24">
      <!-- 1 -->
      <g transform="translate(91.636453125 422.0381249999999)scale(0.12 -0.12)">
       <use xlink:href="#BitstreamVeraSans-Roman-31"/>
      </g>
     </g>
    </g>
    <g id="xtick_13">
     <g id="line2d_51">
      <g>
       <use style="stroke:#000000;stroke-width:0.5;" x="160.8220375" xlink:href="#mb6e5dc57f1" y="408.9199999999999"/>
      </g>
     </g>
     <g id="line2d_52">
      <g>
       <use style="stroke:#000000;stroke-width:0.5;" x="160.8220375" xlink:href="#m9199a4e7be" y="225.26999999999998"/>
      </g>
     </g>
     <g id="text_25">
      <!-- 2 -->
      <g transform="translate(157.0045375 422.0381249999999)scale(0.12 -0.12)">
       <use xlink:href="#BitstreamVeraSans-Roman-32"/>
      </g>
     </g>
    </g>
    <g id="xtick_14">
     <g id="line2d_53">
      <g>
       <use style="stroke:#000000;stroke-width:0.5;" x="226.190121875" xlink:href="#mb6e5dc57f1" y="408.9199999999999"/>
      </g>
     </g>
     <g id="line2d_54">
      <g>
       <use style="stroke:#000000;stroke-width:0.5;" x="226.190121875" xlink:href="#m9199a4e7be" y="225.26999999999998"/>
      </g>
     </g>
     <g id="text_26">
      <!-- 3 -->
      <g transform="translate(222.372621875 422.0381249999999)scale(0.12 -0.12)">
       <use xlink:href="#BitstreamVeraSans-Roman-33"/>
      </g>
     </g>
    </g>
    <g id="xtick_15">
     <g id="line2d_55">
      <g>
       <use style="stroke:#000000;stroke-width:0.5;" x="291.55820625" xlink:href="#mb6e5dc57f1" y="408.9199999999999"/>
      </g>
     </g>
     <g id="line2d_56">
      <g>
       <use style="stroke:#000000;stroke-width:0.5;" x="291.55820625" xlink:href="#m9199a4e7be" y="225.26999999999998"/>
      </g>
     </g>
     <g id="text_27">
      <!-- 4 -->
      <g transform="translate(287.74070625 422.0381249999999)scale(0.12 -0.12)">
       <use xlink:href="#BitstreamVeraSans-Roman-34"/>
      </g>
     </g>
    </g>
   </g>
   <g id="matplotlib.axis_6">
    <g id="ytick_7">
     <g id="line2d_57">
      <g>
       <use style="stroke:#000000;stroke-width:0.5;" x="30.085868750000003" xlink:href="#m1a7a6993e8" y="408.9199999999999"/>
      </g>
     </g>
     <g id="line2d_58">
      <g>
       <use style="stroke:#000000;stroke-width:0.5;" x="291.55820625" xlink:href="#md71fb406af" y="408.9199999999999"/>
      </g>
     </g>
     <g id="text_28">
      <!-- 0.0 -->
      <g transform="translate(7.002118750000005 412.2312499999999)scale(0.12 -0.12)">
       <use xlink:href="#BitstreamVeraSans-Roman-30"/>
       <use x="63.623046875" xlink:href="#BitstreamVeraSans-Roman-2e"/>
       <use x="95.41015625" xlink:href="#BitstreamVeraSans-Roman-30"/>
      </g>
     </g>
    </g>
    <g id="ytick_8">
     <g id="line2d_59">
      <g>
       <use style="stroke:#000000;stroke-width:0.5;" x="30.085868750000003" xlink:href="#m1a7a6993e8" y="325.4427272727272"/>
      </g>
     </g>
     <g id="line2d_60">
      <g>
       <use style="stroke:#000000;stroke-width:0.5;" x="291.55820625" xlink:href="#md71fb406af" y="325.4427272727272"/>
      </g>
     </g>
     <g id="text_29">
      <!-- 0.5 -->
      <g transform="translate(7.002118750000005 328.7539772727272)scale(0.12 -0.12)">
       <use xlink:href="#BitstreamVeraSans-Roman-30"/>
       <use x="63.623046875" xlink:href="#BitstreamVeraSans-Roman-2e"/>
       <use x="95.41015625" xlink:href="#BitstreamVeraSans-Roman-35"/>
      </g>
     </g>
    </g>
    <g id="ytick_9">
     <g id="line2d_61">
      <g>
       <use style="stroke:#000000;stroke-width:0.5;" x="30.085868750000003" xlink:href="#m1a7a6993e8" y="241.96545454545452"/>
      </g>
     </g>
     <g id="line2d_62">
      <g>
       <use style="stroke:#000000;stroke-width:0.5;" x="291.55820625" xlink:href="#md71fb406af" y="241.96545454545452"/>
      </g>
     </g>
     <g id="text_30">
      <!-- 1.0 -->
      <g transform="translate(7.002118750000005 245.27670454545444)scale(0.12 -0.12)">
       <use xlink:href="#BitstreamVeraSans-Roman-31"/>
       <use x="63.623046875" xlink:href="#BitstreamVeraSans-Roman-2e"/>
       <use x="95.41015625" xlink:href="#BitstreamVeraSans-Roman-30"/>
      </g>
     </g>
    </g>
   </g>
   <g id="text_31">
    <!-- 0.9 meV -->
    <defs>
     <path d="M 10.984375 1.515625 
L 10.984375 10.5 
Q 14.703125 8.734375 18.5 7.8125 
Q 22.3125 6.890625 25.984375 6.890625 
Q 35.75 6.890625 40.890625 13.453125 
Q 46.046875 20.015625 46.78125 33.40625 
Q 43.953125 29.203125 39.59375 26.953125 
Q 35.25 24.703125 29.984375 24.703125 
Q 19.046875 24.703125 12.671875 31.3125 
Q 6.296875 37.9375 6.296875 49.421875 
Q 6.296875 60.640625 12.9375 67.421875 
Q 19.578125 74.21875 30.609375 74.21875 
Q 43.265625 74.21875 49.921875 64.515625 
Q 56.59375 54.828125 56.59375 36.375 
Q 56.59375 19.140625 48.40625 8.859375 
Q 40.234375 -1.421875 26.421875 -1.421875 
Q 22.703125 -1.421875 18.890625 -0.6875 
Q 15.09375 0.046875 10.984375 1.515625 
M 30.609375 32.421875 
Q 37.25 32.421875 41.125 36.953125 
Q 45.015625 41.5 45.015625 49.421875 
Q 45.015625 57.28125 41.125 61.84375 
Q 37.25 66.40625 30.609375 66.40625 
Q 23.96875 66.40625 20.09375 61.84375 
Q 16.21875 57.28125 16.21875 49.421875 
Q 16.21875 41.5 20.09375 36.953125 
Q 23.96875 32.421875 30.609375 32.421875 
" id="BitstreamVeraSans-Roman-39"/>
    </defs>
    <g transform="translate(160.8220375 375.5290909090908)scale(0.08 -0.08)">
     <use xlink:href="#BitstreamVeraSans-Roman-30"/>
     <use x="63.623046875" xlink:href="#BitstreamVeraSans-Roman-2e"/>
     <use x="95.41015625" xlink:href="#BitstreamVeraSans-Roman-39"/>
     <use x="159.033203125" xlink:href="#BitstreamVeraSans-Roman-20"/>
     <use x="190.8203125" xlink:href="#BitstreamVeraSans-Roman-6d"/>
     <use x="288.232421875" xlink:href="#BitstreamVeraSans-Roman-65"/>
     <use x="349.755859375" xlink:href="#BitstreamVeraSans-Roman-56"/>
    </g>
   </g>
   <g id="legend_3">
    <g id="line2d_63">
     <path d="M 39.685869 235.74875 
L 50.885869 235.74875 
" style="fill:none;stroke:#0000ff;stroke-linecap:square;stroke-width:2.0;"/>
    </g>
    <g id="line2d_64"/>
    <g id="text_32">
     <!-- P300 -->
     <g transform="translate(59.685868750000004 238.54874999999993)scale(0.08 -0.08)">
      <use xlink:href="#BitstreamVeraSans-Roman-50"/>
      <use x="60.302734375" xlink:href="#BitstreamVeraSans-Roman-33"/>
      <use x="123.92578125" xlink:href="#BitstreamVeraSans-Roman-30"/>
      <use x="187.548828125" xlink:href="#BitstreamVeraSans-Roman-30"/>
     </g>
    </g>
    <g id="line2d_65">
     <path d="M 39.685869 247.49125 
L 50.885869 247.49125 
" style="fill:none;stroke:#008000;stroke-linecap:square;stroke-width:2.0;"/>
    </g>
    <g id="line2d_66"/>
    <g id="text_33">
     <!-- N300 -->
     <g transform="translate(59.685868750000004 250.29124999999988)scale(0.08 -0.08)">
      <use xlink:href="#BitstreamVeraSans-Roman-4e"/>
      <use x="74.8046875" xlink:href="#BitstreamVeraSans-Roman-33"/>
      <use x="138.427734375" xlink:href="#BitstreamVeraSans-Roman-30"/>
      <use x="202.05078125" xlink:href="#BitstreamVeraSans-Roman-30"/>
     </g>
    </g>
   </g>
  </g>
  <g id="axes_4">
   <g id="patch_17">
    <path d="M 324.833169 408.92 
L 586.305506 408.92 
L 586.305506 225.27 
L 324.833169 225.27 
z
" style="fill:#ffffff;"/>
   </g>
   <g id="line2d_67">
    <path clip-path="url(#p0999531d50)" d="M 324.833169 408.92 
L 331.537588 404.5633 
L 338.242007 392.229501 
L 344.946425 373.883407 
L 351.650844 352.122934 
L 358.355263 329.531051 
L 365.059682 308.218045 
L 371.764101 289.618525 
L 378.46852 274.480833 
L 385.172939 262.969777 
L 391.877358 254.804871 
L 398.581777 249.422849 
L 405.286196 246.14228 
L 411.990615 244.301053 
L 418.695033 243.350604 
L 425.399452 242.894155 
L 432.103871 242.678819 
L 438.80829 242.563364 
L 445.512709 242.479982 
L 452.217128 242.402797 
L 458.921547 242.326295 
L 465.625966 242.252746 
L 472.330385 242.185976 
L 479.034804 242.128795 
L 485.739223 242.082372 
L 492.443642 242.04645 
L 499.14806 242.019838 
L 505.852479 242.000893 
L 512.556898 241.987894 
L 519.261317 241.979277 
L 525.965736 241.973746 
L 532.670155 241.970303 
L 539.374574 241.968221 
L 546.078993 241.966996 
L 552.783412 241.966293 
L 559.487831 241.965901 
L 566.19225 241.965687 
L 572.896668 241.965573 
L 579.601087 241.965514 
L 586.305506 241.965484 
" style="fill:none;stroke:#0000ff;stroke-linecap:square;stroke-width:2.0;"/>
   </g>
   <g id="line2d_68">
    <path clip-path="url(#p0999531d50)" d="M 324.833169 408.92 
L 331.537588 404.609165 
L 338.242007 392.4789 
L 344.946425 374.633198 
L 351.650844 353.753553 
L 358.355263 332.353935 
L 365.059682 312.32408 
L 371.764101 294.820536 
L 378.46852 280.391859 
L 385.172939 269.176472 
L 391.877358 261.061128 
L 398.581777 255.766522 
L 405.286196 252.88484 
L 411.990615 251.902044 
L 418.695033 252.240358 
L 425.399452 253.321961 
L 432.103871 254.634492 
L 438.80829 255.780359 
L 445.512709 256.497816 
L 452.217128 256.657871 
L 458.921547 256.243815 
L 465.625966 255.322585 
L 472.330385 254.013971 
L 479.034804 252.461771 
L 485.739223 250.809422 
L 492.443642 249.181889 
L 499.14806 247.6746 
L 505.852479 246.349383 
L 512.556898 245.236152 
L 519.261317 244.338542 
L 525.965736 243.641427 
L 532.670155 243.118518 
L 539.374574 242.738836 
L 546.078993 242.471485 
L 552.783412 242.288648 
L 559.487831 242.167051 
L 566.19225 242.088324 
L 572.896668 242.038658 
L 579.601087 242.008105 
L 586.305506 241.989763 
" style="fill:none;stroke:#008000;stroke-linecap:square;stroke-width:2.0;"/>
   </g>
   <g id="patch_18">
    <path d="M 324.833169 225.27 
L 586.305506 225.27 
" style="fill:none;stroke:#000000;stroke-linecap:square;stroke-linejoin:miter;"/>
   </g>
   <g id="patch_19">
    <path d="M 586.305506 408.92 
L 586.305506 225.27 
" style="fill:none;stroke:#000000;stroke-linecap:square;stroke-linejoin:miter;"/>
   </g>
   <g id="patch_20">
    <path d="M 324.833169 408.92 
L 586.305506 408.92 
" style="fill:none;stroke:#000000;stroke-linecap:square;stroke-linejoin:miter;"/>
   </g>
   <g id="patch_21">
    <path d="M 324.833169 408.92 
L 324.833169 225.27 
" style="fill:none;stroke:#000000;stroke-linecap:square;stroke-linejoin:miter;"/>
   </g>
   <g id="matplotlib.axis_7">
    <g id="xtick_16">
     <g id="line2d_69">
      <g>
       <use style="stroke:#000000;stroke-width:0.5;" x="324.8331687500001" xlink:href="#mb6e5dc57f1" y="408.9199999999999"/>
      </g>
     </g>
     <g id="line2d_70">
      <g>
       <use style="stroke:#000000;stroke-width:0.5;" x="324.8331687500001" xlink:href="#m9199a4e7be" y="225.26999999999998"/>
      </g>
     </g>
     <g id="text_34">
      <!-- 0 -->
      <g transform="translate(321.0156687500001 422.0381249999999)scale(0.12 -0.12)">
       <use xlink:href="#BitstreamVeraSans-Roman-30"/>
      </g>
     </g>
    </g>
    <g id="xtick_17">
     <g id="line2d_71">
      <g>
       <use style="stroke:#000000;stroke-width:0.5;" x="390.20125312500005" xlink:href="#mb6e5dc57f1" y="408.9199999999999"/>
      </g>
     </g>
     <g id="line2d_72">
      <g>
       <use style="stroke:#000000;stroke-width:0.5;" x="390.20125312500005" xlink:href="#m9199a4e7be" y="225.26999999999998"/>
      </g>
     </g>
     <g id="text_35">
      <!-- 1 -->
      <g transform="translate(386.38375312500006 422.0381249999999)scale(0.12 -0.12)">
       <use xlink:href="#BitstreamVeraSans-Roman-31"/>
      </g>
     </g>
    </g>
    <g id="xtick_18">
     <g id="line2d_73">
      <g>
       <use style="stroke:#000000;stroke-width:0.5;" x="455.5693375000001" xlink:href="#mb6e5dc57f1" y="408.9199999999999"/>
      </g>
     </g>
     <g id="line2d_74">
      <g>
       <use style="stroke:#000000;stroke-width:0.5;" x="455.5693375000001" xlink:href="#m9199a4e7be" y="225.26999999999998"/>
      </g>
     </g>
     <g id="text_36">
      <!-- 2 -->
      <g transform="translate(451.7518375000001 422.0381249999999)scale(0.12 -0.12)">
       <use xlink:href="#BitstreamVeraSans-Roman-32"/>
      </g>
     </g>
    </g>
    <g id="xtick_19">
     <g id="line2d_75">
      <g>
       <use style="stroke:#000000;stroke-width:0.5;" x="520.937421875" xlink:href="#mb6e5dc57f1" y="408.9199999999999"/>
      </g>
     </g>
     <g id="line2d_76">
      <g>
       <use style="stroke:#000000;stroke-width:0.5;" x="520.937421875" xlink:href="#m9199a4e7be" y="225.26999999999998"/>
      </g>
     </g>
     <g id="text_37">
      <!-- 3 -->
      <g transform="translate(517.119921875 422.0381249999999)scale(0.12 -0.12)">
       <use xlink:href="#BitstreamVeraSans-Roman-33"/>
      </g>
     </g>
    </g>
    <g id="xtick_20">
     <g id="line2d_77">
      <g>
       <use style="stroke:#000000;stroke-width:0.5;" x="586.30550625" xlink:href="#mb6e5dc57f1" y="408.9199999999999"/>
      </g>
     </g>
     <g id="line2d_78">
      <g>
       <use style="stroke:#000000;stroke-width:0.5;" x="586.30550625" xlink:href="#m9199a4e7be" y="225.26999999999998"/>
      </g>
     </g>
     <g id="text_38">
      <!-- 4 -->
      <g transform="translate(582.48800625 422.0381249999999)scale(0.12 -0.12)">
       <use xlink:href="#BitstreamVeraSans-Roman-34"/>
      </g>
     </g>
    </g>
   </g>
   <g id="matplotlib.axis_8">
    <g id="ytick_10">
     <g id="line2d_79">
      <g>
       <use style="stroke:#000000;stroke-width:0.5;" x="324.8331687500001" xlink:href="#m1a7a6993e8" y="408.9199999999999"/>
      </g>
     </g>
     <g id="line2d_80">
      <g>
       <use style="stroke:#000000;stroke-width:0.5;" x="586.30550625" xlink:href="#md71fb406af" y="408.9199999999999"/>
      </g>
     </g>
     <g id="text_39">
      <!-- 0.0 -->
      <g transform="translate(301.7494187500001 412.2312499999999)scale(0.12 -0.12)">
       <use xlink:href="#BitstreamVeraSans-Roman-30"/>
       <use x="63.623046875" xlink:href="#BitstreamVeraSans-Roman-2e"/>
       <use x="95.41015625" xlink:href="#BitstreamVeraSans-Roman-30"/>
      </g>
     </g>
    </g>
    <g id="ytick_11">
     <g id="line2d_81">
      <g>
       <use style="stroke:#000000;stroke-width:0.5;" x="324.8331687500001" xlink:href="#m1a7a6993e8" y="325.4427272727272"/>
      </g>
     </g>
     <g id="line2d_82">
      <g>
       <use style="stroke:#000000;stroke-width:0.5;" x="586.30550625" xlink:href="#md71fb406af" y="325.4427272727272"/>
      </g>
     </g>
     <g id="text_40">
      <!-- 0.5 -->
      <g transform="translate(301.7494187500001 328.7539772727272)scale(0.12 -0.12)">
       <use xlink:href="#BitstreamVeraSans-Roman-30"/>
       <use x="63.623046875" xlink:href="#BitstreamVeraSans-Roman-2e"/>
       <use x="95.41015625" xlink:href="#BitstreamVeraSans-Roman-35"/>
      </g>
     </g>
    </g>
    <g id="ytick_12">
     <g id="line2d_83">
      <g>
       <use style="stroke:#000000;stroke-width:0.5;" x="324.8331687500001" xlink:href="#m1a7a6993e8" y="241.96545454545452"/>
      </g>
     </g>
     <g id="line2d_84">
      <g>
       <use style="stroke:#000000;stroke-width:0.5;" x="586.30550625" xlink:href="#md71fb406af" y="241.96545454545452"/>
      </g>
     </g>
     <g id="text_41">
      <!-- 1.0 -->
      <g transform="translate(301.7494187500001 245.27670454545444)scale(0.12 -0.12)">
       <use xlink:href="#BitstreamVeraSans-Roman-31"/>
       <use x="63.623046875" xlink:href="#BitstreamVeraSans-Roman-2e"/>
       <use x="95.41015625" xlink:href="#BitstreamVeraSans-Roman-30"/>
      </g>
     </g>
    </g>
   </g>
   <g id="text_42">
    <!-- 1.0 meV -->
    <g transform="translate(455.5693375000001 375.5290909090908)scale(0.08 -0.08)">
     <use xlink:href="#BitstreamVeraSans-Roman-31"/>
     <use x="63.623046875" xlink:href="#BitstreamVeraSans-Roman-2e"/>
     <use x="95.41015625" xlink:href="#BitstreamVeraSans-Roman-30"/>
     <use x="159.033203125" xlink:href="#BitstreamVeraSans-Roman-20"/>
     <use x="190.8203125" xlink:href="#BitstreamVeraSans-Roman-6d"/>
     <use x="288.232421875" xlink:href="#BitstreamVeraSans-Roman-65"/>
     <use x="349.755859375" xlink:href="#BitstreamVeraSans-Roman-56"/>
    </g>
   </g>
   <g id="legend_4">
    <g id="line2d_85">
     <path d="M 334.433169 235.74875 
L 345.633169 235.74875 
" style="fill:none;stroke:#0000ff;stroke-linecap:square;stroke-width:2.0;"/>
    </g>
    <g id="line2d_86"/>
    <g id="text_43">
     <!-- P300 -->
     <g transform="translate(354.43316875000005 238.54874999999993)scale(0.08 -0.08)">
      <use xlink:href="#BitstreamVeraSans-Roman-50"/>
      <use x="60.302734375" xlink:href="#BitstreamVeraSans-Roman-33"/>
      <use x="123.92578125" xlink:href="#BitstreamVeraSans-Roman-30"/>
      <use x="187.548828125" xlink:href="#BitstreamVeraSans-Roman-30"/>
     </g>
    </g>
    <g id="line2d_87">
     <path d="M 334.433169 247.49125 
L 345.633169 247.49125 
" style="fill:none;stroke:#008000;stroke-linecap:square;stroke-width:2.0;"/>
    </g>
    <g id="line2d_88"/>
    <g id="text_44">
     <!-- N300 -->
     <g transform="translate(354.43316875000005 250.29124999999988)scale(0.08 -0.08)">
      <use xlink:href="#BitstreamVeraSans-Roman-4e"/>
      <use x="74.8046875" xlink:href="#BitstreamVeraSans-Roman-33"/>
      <use x="138.427734375" xlink:href="#BitstreamVeraSans-Roman-30"/>
      <use x="202.05078125" xlink:href="#BitstreamVeraSans-Roman-30"/>
     </g>
    </g>
   </g>
  </g>
  <g id="axes_5">
   <g id="patch_22">
    <path d="M 30.085869 621.23 
L 291.558206 621.23 
L 291.558206 437.58 
L 30.085869 437.58 
z
" style="fill:#ffffff;"/>
   </g>
   <g id="line2d_89">
    <path clip-path="url(#p0706800235)" d="M 30.085869 621.23 
L 36.790288 616.848192 
L 43.494707 604.45265 
L 50.199125 586.045821 
L 56.903544 564.275098 
L 63.607963 541.759068 
L 70.312382 520.608162 
L 77.016801 502.211707 
L 83.72122 487.257596 
L 90.425639 475.854872 
L 97.130058 467.70606 
L 103.834477 462.265219 
L 110.538896 458.88932 
L 117.243315 456.952746 
L 123.947733 455.928107 
L 130.652152 455.422984 
L 137.356571 455.178754 
L 144.06099 455.045106 
L 150.765409 454.946923 
L 157.469828 454.854182 
L 164.174247 454.760025 
L 170.878666 454.667214 
L 177.583085 454.580853 
L 184.287504 454.505121 
L 190.991923 454.442249 
L 197.696342 454.392584 
L 204.40076 454.355088 
L 211.105179 454.327938 
L 217.809598 454.309026 
L 224.514017 454.296322 
L 231.218436 454.288073 
L 237.922855 454.282885 
L 244.627274 454.27972 
L 251.331693 454.277844 
L 258.036112 454.276762 
L 264.740531 454.276153 
L 271.44495 454.27582 
L 278.149368 454.275641 
L 284.853787 454.275548 
L 291.558206 454.275501 
" style="fill:none;stroke:#0000ff;stroke-linecap:square;stroke-width:2.0;"/>
   </g>
   <g id="line2d_90">
    <path clip-path="url(#p0706800235)" d="M 30.085869 621.23 
L 36.790288 616.886843 
L 43.494707 604.690837 
L 50.199125 586.832043 
L 56.903544 566.106845 
L 63.607963 545.123893 
L 70.312382 525.791706 
L 77.016801 509.188026 
L 83.72122 495.700339 
L 90.425639 485.284775 
L 97.130058 477.693378 
L 103.834477 472.610842 
L 110.538896 469.697961 
L 117.243315 468.575569 
L 123.947733 468.803642 
L 130.652152 469.892 
L 137.356571 471.345368 
L 144.06099 472.72313 
L 150.765409 473.688236 
L 157.469828 474.032688 
L 164.174247 473.677645 
L 170.878666 472.655372 
L 177.583085 471.080653 
L 184.287504 469.118124 
L 190.991923 466.95032 
L 197.696342 464.75014 
L 204.40076 462.660707 
L 211.105179 460.784061 
L 217.809598 459.178672 
L 224.514017 457.864003 
L 231.218436 456.829409 
L 237.922855 456.044572 
L 244.627274 455.469208 
L 251.331693 455.060728 
L 258.036112 454.77939 
L 264.740531 454.591134 
L 271.44495 454.468595 
L 278.149368 454.390924 
L 284.853787 454.342942 
L 291.558206 454.31403 
" style="fill:none;stroke:#008000;stroke-linecap:square;stroke-width:2.0;"/>
   </g>
   <g id="patch_23">
    <path d="M 30.085869 437.58 
L 291.558206 437.58 
" style="fill:none;stroke:#000000;stroke-linecap:square;stroke-linejoin:miter;"/>
   </g>
   <g id="patch_24">
    <path d="M 291.558206 621.23 
L 291.558206 437.58 
" style="fill:none;stroke:#000000;stroke-linecap:square;stroke-linejoin:miter;"/>
   </g>
   <g id="patch_25">
    <path d="M 30.085869 621.23 
L 291.558206 621.23 
" style="fill:none;stroke:#000000;stroke-linecap:square;stroke-linejoin:miter;"/>
   </g>
   <g id="patch_26">
    <path d="M 30.085869 621.23 
L 30.085869 437.58 
" style="fill:none;stroke:#000000;stroke-linecap:square;stroke-linejoin:miter;"/>
   </g>
   <g id="matplotlib.axis_9">
    <g id="xtick_21">
     <g id="line2d_91">
      <g>
       <use style="stroke:#000000;stroke-width:0.5;" x="30.085868750000003" xlink:href="#mb6e5dc57f1" y="621.23"/>
      </g>
     </g>
     <g id="line2d_92">
      <g>
       <use style="stroke:#000000;stroke-width:0.5;" x="30.085868750000003" xlink:href="#m9199a4e7be" y="437.58"/>
      </g>
     </g>
     <g id="text_45">
      <!-- 0 -->
      <g transform="translate(26.268368750000004 634.348125)scale(0.12 -0.12)">
       <use xlink:href="#BitstreamVeraSans-Roman-30"/>
      </g>
     </g>
    </g>
    <g id="xtick_22">
     <g id="line2d_93">
      <g>
       <use style="stroke:#000000;stroke-width:0.5;" x="95.453953125" xlink:href="#mb6e5dc57f1" y="621.23"/>
      </g>
     </g>
     <g id="line2d_94">
      <g>
       <use style="stroke:#000000;stroke-width:0.5;" x="95.453953125" xlink:href="#m9199a4e7be" y="437.58"/>
      </g>
     </g>
     <g id="text_46">
      <!-- 1 -->
      <g transform="translate(91.636453125 634.348125)scale(0.12 -0.12)">
       <use xlink:href="#BitstreamVeraSans-Roman-31"/>
      </g>
     </g>
    </g>
    <g id="xtick_23">
     <g id="line2d_95">
      <g>
       <use style="stroke:#000000;stroke-width:0.5;" x="160.8220375" xlink:href="#mb6e5dc57f1" y="621.23"/>
      </g>
     </g>
     <g id="line2d_96">
      <g>
       <use style="stroke:#000000;stroke-width:0.5;" x="160.8220375" xlink:href="#m9199a4e7be" y="437.58"/>
      </g>
     </g>
     <g id="text_47">
      <!-- 2 -->
      <g transform="translate(157.0045375 634.348125)scale(0.12 -0.12)">
       <use xlink:href="#BitstreamVeraSans-Roman-32"/>
      </g>
     </g>
    </g>
    <g id="xtick_24">
     <g id="line2d_97">
      <g>
       <use style="stroke:#000000;stroke-width:0.5;" x="226.190121875" xlink:href="#mb6e5dc57f1" y="621.23"/>
      </g>
     </g>
     <g id="line2d_98">
      <g>
       <use style="stroke:#000000;stroke-width:0.5;" x="226.190121875" xlink:href="#m9199a4e7be" y="437.58"/>
      </g>
     </g>
     <g id="text_48">
      <!-- 3 -->
      <g transform="translate(222.372621875 634.348125)scale(0.12 -0.12)">
       <use xlink:href="#BitstreamVeraSans-Roman-33"/>
      </g>
     </g>
    </g>
    <g id="xtick_25">
     <g id="line2d_99">
      <g>
       <use style="stroke:#000000;stroke-width:0.5;" x="291.55820625" xlink:href="#mb6e5dc57f1" y="621.23"/>
      </g>
     </g>
     <g id="line2d_100">
      <g>
       <use style="stroke:#000000;stroke-width:0.5;" x="291.55820625" xlink:href="#m9199a4e7be" y="437.58"/>
      </g>
     </g>
     <g id="text_49">
      <!-- 4 -->
      <g transform="translate(287.74070625 634.348125)scale(0.12 -0.12)">
       <use xlink:href="#BitstreamVeraSans-Roman-34"/>
      </g>
     </g>
    </g>
   </g>
   <g id="matplotlib.axis_10">
    <g id="ytick_13">
     <g id="line2d_101">
      <g>
       <use style="stroke:#000000;stroke-width:0.5;" x="30.085868750000003" xlink:href="#m1a7a6993e8" y="621.23"/>
      </g>
     </g>
     <g id="line2d_102">
      <g>
       <use style="stroke:#000000;stroke-width:0.5;" x="291.55820625" xlink:href="#md71fb406af" y="621.23"/>
      </g>
     </g>
     <g id="text_50">
      <!-- 0.0 -->
      <g transform="translate(7.002118750000005 624.54125)scale(0.12 -0.12)">
       <use xlink:href="#BitstreamVeraSans-Roman-30"/>
       <use x="63.623046875" xlink:href="#BitstreamVeraSans-Roman-2e"/>
       <use x="95.41015625" xlink:href="#BitstreamVeraSans-Roman-30"/>
      </g>
     </g>
    </g>
    <g id="ytick_14">
     <g id="line2d_103">
      <g>
       <use style="stroke:#000000;stroke-width:0.5;" x="30.085868750000003" xlink:href="#m1a7a6993e8" y="537.7527272727273"/>
      </g>
     </g>
     <g id="line2d_104">
      <g>
       <use style="stroke:#000000;stroke-width:0.5;" x="291.55820625" xlink:href="#md71fb406af" y="537.7527272727273"/>
      </g>
     </g>
     <g id="text_51">
      <!-- 0.5 -->
      <g transform="translate(7.002118750000005 541.0639772727272)scale(0.12 -0.12)">
       <use xlink:href="#BitstreamVeraSans-Roman-30"/>
       <use x="63.623046875" xlink:href="#BitstreamVeraSans-Roman-2e"/>
       <use x="95.41015625" xlink:href="#BitstreamVeraSans-Roman-35"/>
      </g>
     </g>
    </g>
    <g id="ytick_15">
     <g id="line2d_105">
      <g>
       <use style="stroke:#000000;stroke-width:0.5;" x="30.085868750000003" xlink:href="#m1a7a6993e8" y="454.2754545454545"/>
      </g>
     </g>
     <g id="line2d_106">
      <g>
       <use style="stroke:#000000;stroke-width:0.5;" x="291.55820625" xlink:href="#md71fb406af" y="454.2754545454545"/>
      </g>
     </g>
     <g id="text_52">
      <!-- 1.0 -->
      <g transform="translate(7.002118750000005 457.5867045454545)scale(0.12 -0.12)">
       <use xlink:href="#BitstreamVeraSans-Roman-31"/>
       <use x="63.623046875" xlink:href="#BitstreamVeraSans-Roman-2e"/>
       <use x="95.41015625" xlink:href="#BitstreamVeraSans-Roman-30"/>
      </g>
     </g>
    </g>
   </g>
   <g id="text_53">
    <!-- 1.15 meV -->
    <g transform="translate(160.8220375 587.8390909090909)scale(0.08 -0.08)">
     <use xlink:href="#BitstreamVeraSans-Roman-31"/>
     <use x="63.623046875" xlink:href="#BitstreamVeraSans-Roman-2e"/>
     <use x="95.41015625" xlink:href="#BitstreamVeraSans-Roman-31"/>
     <use x="159.033203125" xlink:href="#BitstreamVeraSans-Roman-35"/>
     <use x="222.65625" xlink:href="#BitstreamVeraSans-Roman-20"/>
     <use x="254.443359375" xlink:href="#BitstreamVeraSans-Roman-6d"/>
     <use x="351.85546875" xlink:href="#BitstreamVeraSans-Roman-65"/>
     <use x="413.37890625" xlink:href="#BitstreamVeraSans-Roman-56"/>
    </g>
   </g>
   <g id="legend_5">
    <g id="line2d_107">
     <path d="M 39.685869 448.05875 
L 50.885869 448.05875 
" style="fill:none;stroke:#0000ff;stroke-linecap:square;stroke-width:2.0;"/>
    </g>
    <g id="line2d_108"/>
    <g id="text_54">
     <!-- P300 -->
     <g transform="translate(59.685868750000004 450.85875)scale(0.08 -0.08)">
      <use xlink:href="#BitstreamVeraSans-Roman-50"/>
      <use x="60.302734375" xlink:href="#BitstreamVeraSans-Roman-33"/>
      <use x="123.92578125" xlink:href="#BitstreamVeraSans-Roman-30"/>
      <use x="187.548828125" xlink:href="#BitstreamVeraSans-Roman-30"/>
     </g>
    </g>
    <g id="line2d_109">
     <path d="M 39.685869 459.80125 
L 50.885869 459.80125 
" style="fill:none;stroke:#008000;stroke-linecap:square;stroke-width:2.0;"/>
    </g>
    <g id="line2d_110"/>
    <g id="text_55">
     <!-- N300 -->
     <g transform="translate(59.685868750000004 462.60125)scale(0.08 -0.08)">
      <use xlink:href="#BitstreamVeraSans-Roman-4e"/>
      <use x="74.8046875" xlink:href="#BitstreamVeraSans-Roman-33"/>
      <use x="138.427734375" xlink:href="#BitstreamVeraSans-Roman-30"/>
      <use x="202.05078125" xlink:href="#BitstreamVeraSans-Roman-30"/>
     </g>
    </g>
   </g>
  </g>
  <g id="axes_6">
   <g id="patch_27">
    <path d="M 324.833169 621.23 
L 586.305506 621.23 
L 586.305506 437.58 
L 324.833169 437.58 
z
" style="fill:#ffffff;"/>
   </g>
   <g id="line2d_111">
    <path clip-path="url(#pd0831a53aa)" d="M 324.833169 621.23 
L 331.537588 616.820803 
L 338.242007 604.356325 
L 344.946425 585.875156 
L 351.650844 564.07134 
L 358.355263 541.602273 
L 365.059682 520.586397 
L 371.764101 502.386821 
L 378.46852 487.636198 
L 385.172939 476.392703 
L 391.877358 468.324769 
L 398.581777 462.884715 
L 405.286196 459.450827 
L 411.990615 457.428438 
L 418.695033 456.31705 
L 425.399452 455.739441 
L 432.103871 455.44089 
L 438.80829 455.268084 
L 445.512709 455.140499 
L 452.217128 455.023297 
L 458.921547 454.906543 
L 465.625966 454.791678 
L 472.330385 454.683744 
L 479.034804 454.587512 
L 485.739223 454.505993 
L 492.443642 454.440175 
L 499.14806 454.389368 
L 505.852479 454.351769 
L 512.556898 454.32503 
L 519.261317 454.306715 
L 525.965736 454.294609 
L 532.670155 454.286872 
L 539.374574 454.282082 
L 546.078993 454.279205 
L 552.783412 454.277525 
L 559.487831 454.276571 
L 566.19225 454.276043 
L 572.896668 454.275757 
L 579.601087 454.275607 
L 586.305506 454.27553 
" style="fill:none;stroke:#0000ff;stroke-linecap:square;stroke-width:2.0;"/>
   </g>
   <g id="line2d_112">
    <path clip-path="url(#pd0831a53aa)" d="M 324.833169 621.23 
L 331.537588 616.843013 
L 338.242007 604.549011 
L 344.946425 586.629198 
L 351.650844 566.000457 
L 358.355263 545.376511 
L 365.059682 526.710406 
L 371.764101 511.037265 
L 378.46852 498.628478 
L 385.172939 489.278168 
L 391.877358 482.582612 
L 398.581777 478.124118 
L 405.286196 475.541842 
L 411.990615 474.514085 
L 418.695033 474.706935 
L 425.399452 475.738334 
L 432.103871 477.185882 
L 438.80829 478.630019 
L 445.512709 479.708741 
L 452.217128 480.160991 
L 458.921547 479.847209 
L 465.625966 478.747985 
L 472.330385 476.946498 
L 479.034804 474.600929 
L 485.739223 471.912144 
L 492.443642 469.090913 
L 499.14806 466.329138 
L 505.852479 463.77894 
L 512.556898 461.541755 
L 519.261317 459.667651 
L 525.965736 458.162503 
L 532.670155 456.999836 
L 539.374574 456.133645 
L 546.078993 455.509843 
L 552.783412 455.074714 
L 559.487831 454.780235 
L 566.19225 454.586605 
L 572.896668 454.462754 
L 579.601087 454.385614 
L 586.305506 454.338786 
" style="fill:none;stroke:#008000;stroke-linecap:square;stroke-width:2.0;"/>
   </g>
   <g id="patch_28">
    <path d="M 324.833169 437.58 
L 586.305506 437.58 
" style="fill:none;stroke:#000000;stroke-linecap:square;stroke-linejoin:miter;"/>
   </g>
   <g id="patch_29">
    <path d="M 586.305506 621.23 
L 586.305506 437.58 
" style="fill:none;stroke:#000000;stroke-linecap:square;stroke-linejoin:miter;"/>
   </g>
   <g id="patch_30">
    <path d="M 324.833169 621.23 
L 586.305506 621.23 
" style="fill:none;stroke:#000000;stroke-linecap:square;stroke-linejoin:miter;"/>
   </g>
   <g id="patch_31">
    <path d="M 324.833169 621.23 
L 324.833169 437.58 
" style="fill:none;stroke:#000000;stroke-linecap:square;stroke-linejoin:miter;"/>
   </g>
   <g id="matplotlib.axis_11">
    <g id="xtick_26">
     <g id="line2d_113">
      <g>
       <use style="stroke:#000000;stroke-width:0.5;" x="324.8331687500001" xlink:href="#mb6e5dc57f1" y="621.23"/>
      </g>
     </g>
     <g id="line2d_114">
      <g>
       <use style="stroke:#000000;stroke-width:0.5;" x="324.8331687500001" xlink:href="#m9199a4e7be" y="437.58"/>
      </g>
     </g>
     <g id="text_56">
      <!-- 0 -->
      <g transform="translate(321.0156687500001 634.348125)scale(0.12 -0.12)">
       <use xlink:href="#BitstreamVeraSans-Roman-30"/>
      </g>
     </g>
    </g>
    <g id="xtick_27">
     <g id="line2d_115">
      <g>
       <use style="stroke:#000000;stroke-width:0.5;" x="390.20125312500005" xlink:href="#mb6e5dc57f1" y="621.23"/>
      </g>
     </g>
     <g id="line2d_116">
      <g>
       <use style="stroke:#000000;stroke-width:0.5;" x="390.20125312500005" xlink:href="#m9199a4e7be" y="437.58"/>
      </g>
     </g>
     <g id="text_57">
      <!-- 1 -->
      <g transform="translate(386.38375312500006 634.348125)scale(0.12 -0.12)">
       <use xlink:href="#BitstreamVeraSans-Roman-31"/>
      </g>
     </g>
    </g>
    <g id="xtick_28">
     <g id="line2d_117">
      <g>
       <use style="stroke:#000000;stroke-width:0.5;" x="455.5693375000001" xlink:href="#mb6e5dc57f1" y="621.23"/>
      </g>
     </g>
     <g id="line2d_118">
      <g>
       <use style="stroke:#000000;stroke-width:0.5;" x="455.5693375000001" xlink:href="#m9199a4e7be" y="437.58"/>
      </g>
     </g>
     <g id="text_58">
      <!-- 2 -->
      <g transform="translate(451.7518375000001 634.348125)scale(0.12 -0.12)">
       <use xlink:href="#BitstreamVeraSans-Roman-32"/>
      </g>
     </g>
    </g>
    <g id="xtick_29">
     <g id="line2d_119">
      <g>
       <use style="stroke:#000000;stroke-width:0.5;" x="520.937421875" xlink:href="#mb6e5dc57f1" y="621.23"/>
      </g>
     </g>
     <g id="line2d_120">
      <g>
       <use style="stroke:#000000;stroke-width:0.5;" x="520.937421875" xlink:href="#m9199a4e7be" y="437.58"/>
      </g>
     </g>
     <g id="text_59">
      <!-- 3 -->
      <g transform="translate(517.119921875 634.348125)scale(0.12 -0.12)">
       <use xlink:href="#BitstreamVeraSans-Roman-33"/>
      </g>
     </g>
    </g>
    <g id="xtick_30">
     <g id="line2d_121">
      <g>
       <use style="stroke:#000000;stroke-width:0.5;" x="586.30550625" xlink:href="#mb6e5dc57f1" y="621.23"/>
      </g>
     </g>
     <g id="line2d_122">
      <g>
       <use style="stroke:#000000;stroke-width:0.5;" x="586.30550625" xlink:href="#m9199a4e7be" y="437.58"/>
      </g>
     </g>
     <g id="text_60">
      <!-- 4 -->
      <g transform="translate(582.48800625 634.348125)scale(0.12 -0.12)">
       <use xlink:href="#BitstreamVeraSans-Roman-34"/>
      </g>
     </g>
    </g>
   </g>
   <g id="matplotlib.axis_12">
    <g id="ytick_16">
     <g id="line2d_123">
      <g>
       <use style="stroke:#000000;stroke-width:0.5;" x="324.8331687500001" xlink:href="#m1a7a6993e8" y="621.23"/>
      </g>
     </g>
     <g id="line2d_124">
      <g>
       <use style="stroke:#000000;stroke-width:0.5;" x="586.30550625" xlink:href="#md71fb406af" y="621.23"/>
      </g>
     </g>
     <g id="text_61">
      <!-- 0.0 -->
      <g transform="translate(301.7494187500001 624.54125)scale(0.12 -0.12)">
       <use xlink:href="#BitstreamVeraSans-Roman-30"/>
       <use x="63.623046875" xlink:href="#BitstreamVeraSans-Roman-2e"/>
       <use x="95.41015625" xlink:href="#BitstreamVeraSans-Roman-30"/>
      </g>
     </g>
    </g>
    <g id="ytick_17">
     <g id="line2d_125">
      <g>
       <use style="stroke:#000000;stroke-width:0.5;" x="324.8331687500001" xlink:href="#m1a7a6993e8" y="537.7527272727273"/>
      </g>
     </g>
     <g id="line2d_126">
      <g>
       <use style="stroke:#000000;stroke-width:0.5;" x="586.30550625" xlink:href="#md71fb406af" y="537.7527272727273"/>
      </g>
     </g>
     <g id="text_62">
      <!-- 0.5 -->
      <g transform="translate(301.7494187500001 541.0639772727272)scale(0.12 -0.12)">
       <use xlink:href="#BitstreamVeraSans-Roman-30"/>
       <use x="63.623046875" xlink:href="#BitstreamVeraSans-Roman-2e"/>
       <use x="95.41015625" xlink:href="#BitstreamVeraSans-Roman-35"/>
      </g>
     </g>
    </g>
    <g id="ytick_18">
     <g id="line2d_127">
      <g>
       <use style="stroke:#000000;stroke-width:0.5;" x="324.8331687500001" xlink:href="#m1a7a6993e8" y="454.2754545454545"/>
      </g>
     </g>
     <g id="line2d_128">
      <g>
       <use style="stroke:#000000;stroke-width:0.5;" x="586.30550625" xlink:href="#md71fb406af" y="454.2754545454545"/>
      </g>
     </g>
     <g id="text_63">
      <!-- 1.0 -->
      <g transform="translate(301.7494187500001 457.5867045454545)scale(0.12 -0.12)">
       <use xlink:href="#BitstreamVeraSans-Roman-31"/>
       <use x="63.623046875" xlink:href="#BitstreamVeraSans-Roman-2e"/>
       <use x="95.41015625" xlink:href="#BitstreamVeraSans-Roman-30"/>
      </g>
     </g>
    </g>
   </g>
   <g id="text_64">
    <!-- 1.3 meV -->
    <g transform="translate(455.5693375000001 587.8390909090909)scale(0.08 -0.08)">
     <use xlink:href="#BitstreamVeraSans-Roman-31"/>
     <use x="63.623046875" xlink:href="#BitstreamVeraSans-Roman-2e"/>
     <use x="95.41015625" xlink:href="#BitstreamVeraSans-Roman-33"/>
     <use x="159.033203125" xlink:href="#BitstreamVeraSans-Roman-20"/>
     <use x="190.8203125" xlink:href="#BitstreamVeraSans-Roman-6d"/>
     <use x="288.232421875" xlink:href="#BitstreamVeraSans-Roman-65"/>
     <use x="349.755859375" xlink:href="#BitstreamVeraSans-Roman-56"/>
    </g>
   </g>
   <g id="legend_6">
    <g id="line2d_129">
     <path d="M 334.433169 448.05875 
L 345.633169 448.05875 
" style="fill:none;stroke:#0000ff;stroke-linecap:square;stroke-width:2.0;"/>
    </g>
    <g id="line2d_130"/>
    <g id="text_65">
     <!-- P300 -->
     <g transform="translate(354.43316875000005 450.85875)scale(0.08 -0.08)">
      <use xlink:href="#BitstreamVeraSans-Roman-50"/>
      <use x="60.302734375" xlink:href="#BitstreamVeraSans-Roman-33"/>
      <use x="123.92578125" xlink:href="#BitstreamVeraSans-Roman-30"/>
      <use x="187.548828125" xlink:href="#BitstreamVeraSans-Roman-30"/>
     </g>
    </g>
    <g id="line2d_131">
     <path d="M 334.433169 459.80125 
L 345.633169 459.80125 
" style="fill:none;stroke:#008000;stroke-linecap:square;stroke-width:2.0;"/>
    </g>
    <g id="line2d_132"/>
    <g id="text_66">
     <!-- N300 -->
     <g transform="translate(354.43316875000005 462.60125)scale(0.08 -0.08)">
      <use xlink:href="#BitstreamVeraSans-Roman-4e"/>
      <use x="74.8046875" xlink:href="#BitstreamVeraSans-Roman-33"/>
      <use x="138.427734375" xlink:href="#BitstreamVeraSans-Roman-30"/>
      <use x="202.05078125" xlink:href="#BitstreamVeraSans-Roman-30"/>
     </g>
    </g>
   </g>
  </g>
  <g id="axes_7">
   <g id="patch_32">
    <path d="M 30.085869 833.54 
L 291.558206 833.54 
L 291.558206 649.89 
L 30.085869 649.89 
z
" style="fill:#ffffff;"/>
   </g>
   <g id="line2d_133">
    <path clip-path="url(#p5787bf2815)" d="M 30.085869 833.54 
L 36.790288 829.101741 
L 43.494707 816.562897 
L 50.199125 797.996585 
L 56.903544 776.142529 
L 63.607963 753.696352 
L 70.312382 732.788471 
L 77.016801 714.764974 
L 83.72122 700.218132 
L 90.425639 689.156076 
L 97.130058 681.212215 
L 103.834477 675.823661 
L 110.538896 672.376601 
L 117.243315 670.297703 
L 123.947733 669.11039 
L 130.652152 668.456053 
L 137.356571 668.090301 
L 144.06099 667.862847 
L 150.765409 667.691801 
L 157.469828 667.539247 
L 164.174247 667.392349 
L 170.878666 667.250508 
L 177.583085 667.117709 
L 184.287504 666.998463 
L 190.991923 666.895987 
L 197.696342 666.811652 
L 204.40076 666.745097 
L 211.105179 666.694656 
L 217.809598 666.657892 
L 224.514017 666.632084 
L 231.218436 666.614608 
L 237.922855 666.603173 
L 244.627274 666.595934 
L 251.331693 666.591491 
L 258.036112 666.588845 
L 264.740531 666.587312 
L 271.44495 666.586449 
L 278.149368 666.585974 
L 284.853787 666.58572 
L 291.558206 666.585588 
" style="fill:none;stroke:#0000ff;stroke-linecap:square;stroke-width:2.0;"/>
   </g>
   <g id="line2d_134">
    <path clip-path="url(#p5787bf2815)" d="M 30.085869 833.54 
L 36.790288 829.099169 
L 43.494707 816.679361 
L 50.199125 798.658176 
L 56.903544 778.077604 
L 63.607963 757.76137 
L 70.312382 739.718802 
L 77.016801 724.966605 
L 83.72122 713.688475 
L 90.425639 705.545368 
L 97.130058 699.98937 
L 103.834477 696.482169 
L 110.538896 694.592686 
L 117.243315 693.991594 
L 123.947733 694.393464 
L 130.652152 695.495786 
L 137.356571 696.955317 
L 144.06099 698.406859 
L 150.765409 699.50722 
L 157.469828 699.981488 
L 164.174247 699.654416 
L 170.878666 698.46254 
L 177.583085 696.449163 
L 184.287504 693.746954 
L 190.991923 690.552072 
L 197.696342 687.093182 
L 204.40076 683.599444 
L 211.105179 680.272069 
L 217.809598 677.263928 
L 224.514017 674.669965 
L 231.218436 672.528456 
L 237.922855 670.830534 
L 244.627274 669.53419 
L 251.331693 668.578879 
L 258.036112 667.897983 
L 264.740531 667.427765 
L 271.44495 667.112651 
L 278.149368 666.907462 
L 284.853787 666.777491 
L 291.558206 666.697329 
" style="fill:none;stroke:#008000;stroke-linecap:square;stroke-width:2.0;"/>
   </g>
   <g id="patch_33">
    <path d="M 30.085869 649.89 
L 291.558206 649.89 
" style="fill:none;stroke:#000000;stroke-linecap:square;stroke-linejoin:miter;"/>
   </g>
   <g id="patch_34">
    <path d="M 291.558206 833.54 
L 291.558206 649.89 
" style="fill:none;stroke:#000000;stroke-linecap:square;stroke-linejoin:miter;"/>
   </g>
   <g id="patch_35">
    <path d="M 30.085869 833.54 
L 291.558206 833.54 
" style="fill:none;stroke:#000000;stroke-linecap:square;stroke-linejoin:miter;"/>
   </g>
   <g id="patch_36">
    <path d="M 30.085869 833.54 
L 30.085869 649.89 
" style="fill:none;stroke:#000000;stroke-linecap:square;stroke-linejoin:miter;"/>
   </g>
   <g id="matplotlib.axis_13">
    <g id="xtick_31">
     <g id="line2d_135">
      <g>
       <use style="stroke:#000000;stroke-width:0.5;" x="30.085868750000003" xlink:href="#mb6e5dc57f1" y="833.5400000000001"/>
      </g>
     </g>
     <g id="line2d_136">
      <g>
       <use style="stroke:#000000;stroke-width:0.5;" x="30.085868750000003" xlink:href="#m9199a4e7be" y="649.8900000000001"/>
      </g>
     </g>
     <g id="text_67">
      <!-- 0 -->
      <g transform="translate(26.268368750000004 846.658125)scale(0.12 -0.12)">
       <use xlink:href="#BitstreamVeraSans-Roman-30"/>
      </g>
     </g>
    </g>
    <g id="xtick_32">
     <g id="line2d_137">
      <g>
       <use style="stroke:#000000;stroke-width:0.5;" x="95.453953125" xlink:href="#mb6e5dc57f1" y="833.5400000000001"/>
      </g>
     </g>
     <g id="line2d_138">
      <g>
       <use style="stroke:#000000;stroke-width:0.5;" x="95.453953125" xlink:href="#m9199a4e7be" y="649.8900000000001"/>
      </g>
     </g>
     <g id="text_68">
      <!-- 1 -->
      <g transform="translate(91.636453125 846.658125)scale(0.12 -0.12)">
       <use xlink:href="#BitstreamVeraSans-Roman-31"/>
      </g>
     </g>
    </g>
    <g id="xtick_33">
     <g id="line2d_139">
      <g>
       <use style="stroke:#000000;stroke-width:0.5;" x="160.8220375" xlink:href="#mb6e5dc57f1" y="833.5400000000001"/>
      </g>
     </g>
     <g id="line2d_140">
      <g>
       <use style="stroke:#000000;stroke-width:0.5;" x="160.8220375" xlink:href="#m9199a4e7be" y="649.8900000000001"/>
      </g>
     </g>
     <g id="text_69">
      <!-- 2 -->
      <g transform="translate(157.0045375 846.658125)scale(0.12 -0.12)">
       <use xlink:href="#BitstreamVeraSans-Roman-32"/>
      </g>
     </g>
    </g>
    <g id="xtick_34">
     <g id="line2d_141">
      <g>
       <use style="stroke:#000000;stroke-width:0.5;" x="226.190121875" xlink:href="#mb6e5dc57f1" y="833.5400000000001"/>
      </g>
     </g>
     <g id="line2d_142">
      <g>
       <use style="stroke:#000000;stroke-width:0.5;" x="226.190121875" xlink:href="#m9199a4e7be" y="649.8900000000001"/>
      </g>
     </g>
     <g id="text_70">
      <!-- 3 -->
      <g transform="translate(222.372621875 846.658125)scale(0.12 -0.12)">
       <use xlink:href="#BitstreamVeraSans-Roman-33"/>
      </g>
     </g>
    </g>
    <g id="xtick_35">
     <g id="line2d_143">
      <g>
       <use style="stroke:#000000;stroke-width:0.5;" x="291.55820625" xlink:href="#mb6e5dc57f1" y="833.5400000000001"/>
      </g>
     </g>
     <g id="line2d_144">
      <g>
       <use style="stroke:#000000;stroke-width:0.5;" x="291.55820625" xlink:href="#m9199a4e7be" y="649.8900000000001"/>
      </g>
     </g>
     <g id="text_71">
      <!-- 4 -->
      <g transform="translate(287.74070625 846.658125)scale(0.12 -0.12)">
       <use xlink:href="#BitstreamVeraSans-Roman-34"/>
      </g>
     </g>
    </g>
   </g>
   <g id="matplotlib.axis_14">
    <g id="ytick_19">
     <g id="line2d_145">
      <g>
       <use style="stroke:#000000;stroke-width:0.5;" x="30.085868750000003" xlink:href="#m1a7a6993e8" y="833.5400000000001"/>
      </g>
     </g>
     <g id="line2d_146">
      <g>
       <use style="stroke:#000000;stroke-width:0.5;" x="291.55820625" xlink:href="#md71fb406af" y="833.5400000000001"/>
      </g>
     </g>
     <g id="text_72">
      <!-- 0.0 -->
      <g transform="translate(7.002118750000005 836.85125)scale(0.12 -0.12)">
       <use xlink:href="#BitstreamVeraSans-Roman-30"/>
       <use x="63.623046875" xlink:href="#BitstreamVeraSans-Roman-2e"/>
       <use x="95.41015625" xlink:href="#BitstreamVeraSans-Roman-30"/>
      </g>
     </g>
    </g>
    <g id="ytick_20">
     <g id="line2d_147">
      <g>
       <use style="stroke:#000000;stroke-width:0.5;" x="30.085868750000003" xlink:href="#m1a7a6993e8" y="750.0627272727273"/>
      </g>
     </g>
     <g id="line2d_148">
      <g>
       <use style="stroke:#000000;stroke-width:0.5;" x="291.55820625" xlink:href="#md71fb406af" y="750.0627272727273"/>
      </g>
     </g>
     <g id="text_73">
      <!-- 0.5 -->
      <g transform="translate(7.002118750000005 753.3739772727273)scale(0.12 -0.12)">
       <use xlink:href="#BitstreamVeraSans-Roman-30"/>
       <use x="63.623046875" xlink:href="#BitstreamVeraSans-Roman-2e"/>
       <use x="95.41015625" xlink:href="#BitstreamVeraSans-Roman-35"/>
      </g>
     </g>
    </g>
    <g id="ytick_21">
     <g id="line2d_149">
      <g>
       <use style="stroke:#000000;stroke-width:0.5;" x="30.085868750000003" xlink:href="#m1a7a6993e8" y="666.5854545454546"/>
      </g>
     </g>
     <g id="line2d_150">
      <g>
       <use style="stroke:#000000;stroke-width:0.5;" x="291.55820625" xlink:href="#md71fb406af" y="666.5854545454546"/>
      </g>
     </g>
     <g id="text_74">
      <!-- 1.0 -->
      <g transform="translate(7.002118750000005 669.8967045454546)scale(0.12 -0.12)">
       <use xlink:href="#BitstreamVeraSans-Roman-31"/>
       <use x="63.623046875" xlink:href="#BitstreamVeraSans-Roman-2e"/>
       <use x="95.41015625" xlink:href="#BitstreamVeraSans-Roman-30"/>
      </g>
     </g>
    </g>
   </g>
   <g id="text_75">
    <!-- 1.45 meV -->
    <g transform="translate(160.8220375 800.1490909090909)scale(0.08 -0.08)">
     <use xlink:href="#BitstreamVeraSans-Roman-31"/>
     <use x="63.623046875" xlink:href="#BitstreamVeraSans-Roman-2e"/>
     <use x="95.41015625" xlink:href="#BitstreamVeraSans-Roman-34"/>
     <use x="159.033203125" xlink:href="#BitstreamVeraSans-Roman-35"/>
     <use x="222.65625" xlink:href="#BitstreamVeraSans-Roman-20"/>
     <use x="254.443359375" xlink:href="#BitstreamVeraSans-Roman-6d"/>
     <use x="351.85546875" xlink:href="#BitstreamVeraSans-Roman-65"/>
     <use x="413.37890625" xlink:href="#BitstreamVeraSans-Roman-56"/>
    </g>
   </g>
   <g id="legend_7">
    <g id="line2d_151">
     <path d="M 39.685869 660.36875 
L 50.885869 660.36875 
" style="fill:none;stroke:#0000ff;stroke-linecap:square;stroke-width:2.0;"/>
    </g>
    <g id="line2d_152"/>
    <g id="text_76">
     <!-- P300 -->
     <g transform="translate(59.685868750000004 663.16875)scale(0.08 -0.08)">
      <use xlink:href="#BitstreamVeraSans-Roman-50"/>
      <use x="60.302734375" xlink:href="#BitstreamVeraSans-Roman-33"/>
      <use x="123.92578125" xlink:href="#BitstreamVeraSans-Roman-30"/>
      <use x="187.548828125" xlink:href="#BitstreamVeraSans-Roman-30"/>
     </g>
    </g>
    <g id="line2d_153">
     <path d="M 39.685869 672.11125 
L 50.885869 672.11125 
" style="fill:none;stroke:#008000;stroke-linecap:square;stroke-width:2.0;"/>
    </g>
    <g id="line2d_154"/>
    <g id="text_77">
     <!-- N300 -->
     <g transform="translate(59.685868750000004 674.91125)scale(0.08 -0.08)">
      <use xlink:href="#BitstreamVeraSans-Roman-4e"/>
      <use x="74.8046875" xlink:href="#BitstreamVeraSans-Roman-33"/>
      <use x="138.427734375" xlink:href="#BitstreamVeraSans-Roman-30"/>
      <use x="202.05078125" xlink:href="#BitstreamVeraSans-Roman-30"/>
     </g>
    </g>
   </g>
  </g>
  <g id="axes_8">
   <g id="patch_37">
    <path d="M 324.833169 833.54 
L 586.305506 833.54 
L 586.305506 649.89 
L 324.833169 649.89 
z
" style="fill:#ffffff;"/>
   </g>
   <g id="line2d_155">
    <path clip-path="url(#p643944cf2f)" d="M 324.833169 833.54 
L 331.537588 829.071468 
L 338.242007 816.454353 
L 344.946425 797.795612 
L 351.650844 775.877989 
L 358.355263 753.434313 
L 365.059682 732.610715 
L 371.764101 714.74173 
L 378.46852 700.385672 
L 385.172939 689.509456 
L 391.877358 681.710606 
L 398.581777 676.407375 
L 405.286196 672.984834 
L 411.990615 670.881951 
L 418.695033 669.64073 
L 425.399452 668.920107 
L 432.103871 668.488107 
L 438.80829 668.201068 
L 445.512709 667.979108 
L 452.217128 667.783721 
L 458.921547 667.600378 
L 465.625966 667.426758 
L 472.330385 667.265558 
L 479.034804 667.120568 
L 485.739223 666.994767 
L 492.443642 666.889602 
L 499.14806 666.80491 
L 505.852479 666.739191 
L 512.556898 666.690027 
L 519.261317 666.654546 
L 525.965736 666.629819 
L 532.670155 666.61316 
L 539.374574 666.602296 
L 546.078993 666.595428 
L 552.783412 666.591213 
L 559.487831 666.588699 
L 566.19225 666.58724 
L 572.896668 666.586415 
L 579.601087 666.58596 
L 586.305506 666.585715 
" style="fill:none;stroke:#0000ff;stroke-linecap:square;stroke-width:2.0;"/>
   </g>
   <g id="line2d_156">
    <path clip-path="url(#p643944cf2f)" d="M 324.833169 833.54 
L 331.537588 829.038192 
L 338.242007 816.473225 
L 344.946425 798.322797 
L 351.650844 777.75642 
L 358.355263 757.710726 
L 365.059682 740.253832 
L 371.764101 726.395433 
L 378.46852 716.24888 
L 385.172939 709.365581 
L 391.877358 705.072918 
L 398.581777 702.718051 
L 405.286196 701.786213 
L 411.990615 701.906757 
L 418.695033 702.798339 
L 425.399452 704.199316 
L 432.103871 705.824622 
L 438.80829 707.364277 
L 445.512709 708.512414 
L 452.217128 709.006841 
L 458.921547 708.662029 
L 465.625966 707.38761 
L 472.330385 705.192545 
L 479.034804 702.177575 
L 485.739223 698.518622 
L 492.443642 694.442736 
L 499.14806 690.198791 
L 505.852479 686.026706 
L 512.556898 682.130196 
L 519.261317 678.657812 
L 525.965736 675.695151 
L 532.670155 673.26811 
L 539.374574 671.354239 
L 546.078993 669.898174 
L 552.783412 668.827214 
L 559.487831 668.064289 
L 566.19225 667.537055 
L 572.896668 667.183104 
L 579.601087 666.951997 
L 586.305506 666.805085 
" style="fill:none;stroke:#008000;stroke-linecap:square;stroke-width:2.0;"/>
   </g>
   <g id="patch_38">
    <path d="M 324.833169 649.89 
L 586.305506 649.89 
" style="fill:none;stroke:#000000;stroke-linecap:square;stroke-linejoin:miter;"/>
   </g>
   <g id="patch_39">
    <path d="M 586.305506 833.54 
L 586.305506 649.89 
" style="fill:none;stroke:#000000;stroke-linecap:square;stroke-linejoin:miter;"/>
   </g>
   <g id="patch_40">
    <path d="M 324.833169 833.54 
L 586.305506 833.54 
" style="fill:none;stroke:#000000;stroke-linecap:square;stroke-linejoin:miter;"/>
   </g>
   <g id="patch_41">
    <path d="M 324.833169 833.54 
L 324.833169 649.89 
" style="fill:none;stroke:#000000;stroke-linecap:square;stroke-linejoin:miter;"/>
   </g>
   <g id="matplotlib.axis_15">
    <g id="xtick_36">
     <g id="line2d_157">
      <g>
       <use style="stroke:#000000;stroke-width:0.5;" x="324.8331687500001" xlink:href="#mb6e5dc57f1" y="833.5400000000001"/>
      </g>
     </g>
     <g id="line2d_158">
      <g>
       <use style="stroke:#000000;stroke-width:0.5;" x="324.8331687500001" xlink:href="#m9199a4e7be" y="649.8900000000001"/>
      </g>
     </g>
     <g id="text_78">
      <!-- 0 -->
      <g transform="translate(321.0156687500001 846.658125)scale(0.12 -0.12)">
       <use xlink:href="#BitstreamVeraSans-Roman-30"/>
      </g>
     </g>
    </g>
    <g id="xtick_37">
     <g id="line2d_159">
      <g>
       <use style="stroke:#000000;stroke-width:0.5;" x="390.20125312500005" xlink:href="#mb6e5dc57f1" y="833.5400000000001"/>
      </g>
     </g>
     <g id="line2d_160">
      <g>
       <use style="stroke:#000000;stroke-width:0.5;" x="390.20125312500005" xlink:href="#m9199a4e7be" y="649.8900000000001"/>
      </g>
     </g>
     <g id="text_79">
      <!-- 1 -->
      <g transform="translate(386.38375312500006 846.658125)scale(0.12 -0.12)">
       <use xlink:href="#BitstreamVeraSans-Roman-31"/>
      </g>
     </g>
    </g>
    <g id="xtick_38">
     <g id="line2d_161">
      <g>
       <use style="stroke:#000000;stroke-width:0.5;" x="455.5693375000001" xlink:href="#mb6e5dc57f1" y="833.5400000000001"/>
      </g>
     </g>
     <g id="line2d_162">
      <g>
       <use style="stroke:#000000;stroke-width:0.5;" x="455.5693375000001" xlink:href="#m9199a4e7be" y="649.8900000000001"/>
      </g>
     </g>
     <g id="text_80">
      <!-- 2 -->
      <g transform="translate(451.7518375000001 846.658125)scale(0.12 -0.12)">
       <use xlink:href="#BitstreamVeraSans-Roman-32"/>
      </g>
     </g>
    </g>
    <g id="xtick_39">
     <g id="line2d_163">
      <g>
       <use style="stroke:#000000;stroke-width:0.5;" x="520.937421875" xlink:href="#mb6e5dc57f1" y="833.5400000000001"/>
      </g>
     </g>
     <g id="line2d_164">
      <g>
       <use style="stroke:#000000;stroke-width:0.5;" x="520.937421875" xlink:href="#m9199a4e7be" y="649.8900000000001"/>
      </g>
     </g>
     <g id="text_81">
      <!-- 3 -->
      <g transform="translate(517.119921875 846.658125)scale(0.12 -0.12)">
       <use xlink:href="#BitstreamVeraSans-Roman-33"/>
      </g>
     </g>
    </g>
    <g id="xtick_40">
     <g id="line2d_165">
      <g>
       <use style="stroke:#000000;stroke-width:0.5;" x="586.30550625" xlink:href="#mb6e5dc57f1" y="833.5400000000001"/>
      </g>
     </g>
     <g id="line2d_166">
      <g>
       <use style="stroke:#000000;stroke-width:0.5;" x="586.30550625" xlink:href="#m9199a4e7be" y="649.8900000000001"/>
      </g>
     </g>
     <g id="text_82">
      <!-- 4 -->
      <g transform="translate(582.48800625 846.658125)scale(0.12 -0.12)">
       <use xlink:href="#BitstreamVeraSans-Roman-34"/>
      </g>
     </g>
    </g>
   </g>
   <g id="matplotlib.axis_16">
    <g id="ytick_22">
     <g id="line2d_167">
      <g>
       <use style="stroke:#000000;stroke-width:0.5;" x="324.8331687500001" xlink:href="#m1a7a6993e8" y="833.5400000000001"/>
      </g>
     </g>
     <g id="line2d_168">
      <g>
       <use style="stroke:#000000;stroke-width:0.5;" x="586.30550625" xlink:href="#md71fb406af" y="833.5400000000001"/>
      </g>
     </g>
     <g id="text_83">
      <!-- 0.0 -->
      <g transform="translate(301.7494187500001 836.85125)scale(0.12 -0.12)">
       <use xlink:href="#BitstreamVeraSans-Roman-30"/>
       <use x="63.623046875" xlink:href="#BitstreamVeraSans-Roman-2e"/>
       <use x="95.41015625" xlink:href="#BitstreamVeraSans-Roman-30"/>
      </g>
     </g>
    </g>
    <g id="ytick_23">
     <g id="line2d_169">
      <g>
       <use style="stroke:#000000;stroke-width:0.5;" x="324.8331687500001" xlink:href="#m1a7a6993e8" y="750.0627272727273"/>
      </g>
     </g>
     <g id="line2d_170">
      <g>
       <use style="stroke:#000000;stroke-width:0.5;" x="586.30550625" xlink:href="#md71fb406af" y="750.0627272727273"/>
      </g>
     </g>
     <g id="text_84">
      <!-- 0.5 -->
      <g transform="translate(301.7494187500001 753.3739772727273)scale(0.12 -0.12)">
       <use xlink:href="#BitstreamVeraSans-Roman-30"/>
       <use x="63.623046875" xlink:href="#BitstreamVeraSans-Roman-2e"/>
       <use x="95.41015625" xlink:href="#BitstreamVeraSans-Roman-35"/>
      </g>
     </g>
    </g>
    <g id="ytick_24">
     <g id="line2d_171">
      <g>
       <use style="stroke:#000000;stroke-width:0.5;" x="324.8331687500001" xlink:href="#m1a7a6993e8" y="666.5854545454546"/>
      </g>
     </g>
     <g id="line2d_172">
      <g>
       <use style="stroke:#000000;stroke-width:0.5;" x="586.30550625" xlink:href="#md71fb406af" y="666.5854545454546"/>
      </g>
     </g>
     <g id="text_85">
      <!-- 1.0 -->
      <g transform="translate(301.7494187500001 669.8967045454546)scale(0.12 -0.12)">
       <use xlink:href="#BitstreamVeraSans-Roman-31"/>
       <use x="63.623046875" xlink:href="#BitstreamVeraSans-Roman-2e"/>
       <use x="95.41015625" xlink:href="#BitstreamVeraSans-Roman-30"/>
      </g>
     </g>
    </g>
   </g>
   <g id="text_86">
    <!-- 1.6 meV -->
    <g transform="translate(455.5693375000001 800.1490909090909)scale(0.08 -0.08)">
     <use xlink:href="#BitstreamVeraSans-Roman-31"/>
     <use x="63.623046875" xlink:href="#BitstreamVeraSans-Roman-2e"/>
     <use x="95.41015625" xlink:href="#BitstreamVeraSans-Roman-36"/>
     <use x="159.033203125" xlink:href="#BitstreamVeraSans-Roman-20"/>
     <use x="190.8203125" xlink:href="#BitstreamVeraSans-Roman-6d"/>
     <use x="288.232421875" xlink:href="#BitstreamVeraSans-Roman-65"/>
     <use x="349.755859375" xlink:href="#BitstreamVeraSans-Roman-56"/>
    </g>
   </g>
   <g id="legend_8">
    <g id="line2d_173">
     <path d="M 334.433169 660.36875 
L 345.633169 660.36875 
" style="fill:none;stroke:#0000ff;stroke-linecap:square;stroke-width:2.0;"/>
    </g>
    <g id="line2d_174"/>
    <g id="text_87">
     <!-- P300 -->
     <g transform="translate(354.43316875000005 663.16875)scale(0.08 -0.08)">
      <use xlink:href="#BitstreamVeraSans-Roman-50"/>
      <use x="60.302734375" xlink:href="#BitstreamVeraSans-Roman-33"/>
      <use x="123.92578125" xlink:href="#BitstreamVeraSans-Roman-30"/>
      <use x="187.548828125" xlink:href="#BitstreamVeraSans-Roman-30"/>
     </g>
    </g>
    <g id="line2d_175">
     <path d="M 334.433169 672.11125 
L 345.633169 672.11125 
" style="fill:none;stroke:#008000;stroke-linecap:square;stroke-width:2.0;"/>
    </g>
    <g id="line2d_176"/>
    <g id="text_88">
     <!-- N300 -->
     <g transform="translate(354.43316875000005 674.91125)scale(0.08 -0.08)">
      <use xlink:href="#BitstreamVeraSans-Roman-4e"/>
      <use x="74.8046875" xlink:href="#BitstreamVeraSans-Roman-33"/>
      <use x="138.427734375" xlink:href="#BitstreamVeraSans-Roman-30"/>
      <use x="202.05078125" xlink:href="#BitstreamVeraSans-Roman-30"/>
     </g>
    </g>
   </g>
  </g>
 </g>
 <defs>
  <clipPath id="p0999531d50">
   <rect height="183.64999999999992" width="261.4723374999999" x="324.8331687500001" y="225.26999999999998"/>
  </clipPath>
  <clipPath id="p0706800235">
   <rect height="183.65000000000003" width="261.4723375" x="30.085868750000003" y="437.58"/>
  </clipPath>
  <clipPath id="pd0831a53aa">
   <rect height="183.65000000000003" width="261.4723374999999" x="324.8331687500001" y="437.58"/>
  </clipPath>
  <clipPath id="p5787bf2815">
   <rect height="183.65" width="261.4723375" x="30.085868750000003" y="649.89"/>
  </clipPath>
  <clipPath id="p6b5ff55334">
   <rect height="183.64999999999992" width="261.4723375" x="30.085868750000003" y="225.26999999999998"/>
  </clipPath>
  <clipPath id="p643944cf2f">
   <rect height="183.65" width="261.4723374999999" x="324.8331687500001" y="649.89"/>
  </clipPath>
  <clipPath id="pa0245fe511">
   <rect height="183.64999999999986" width="261.4723374999999" x="324.8331687500001" y="12.960000000000036"/>
  </clipPath>
  <clipPath id="p0e430eb842">
   <rect height="183.64999999999986" width="261.4723375" x="30.085868750000003" y="12.960000000000036"/>
  </clipPath>
 </defs>
</svg>
