<?xml version="1.0" encoding="utf-8" standalone="no"?>
<!DOCTYPE svg PUBLIC "-//W3C//DTD SVG 1.1//EN"
  "http://www.w3.org/Graphics/SVG/1.1/DTD/svg11.dtd">
<!-- Created with matplotlib (http://matplotlib.org/) -->
<svg height="274pt" version="1.1" viewBox="0 0 732 274" width="732pt" xmlns="http://www.w3.org/2000/svg" xmlns:xlink="http://www.w3.org/1999/xlink">
 <defs>
  <style type="text/css">
*{stroke-linecap:butt;stroke-linejoin:round;stroke-miterlimit:100000;}
  </style>
 </defs>
 <g id="figure_1">
  <g id="patch_1">
   <path d="M 0 274.5 
L 732.6 274.5 
L 732.6 0 
L 0 0 
z
" style="fill:#ffffff;"/>
  </g>
  <g id="axes_1">
   <g id="patch_2">
    <path d="M 36.085 245.84 
L 355.995 245.84 
L 355.995 12.96 
L 36.085 12.96 
z
" style="fill:#ffffff;"/>
   </g>
   <g id="line2d_1">
    <path clip-path="url(#p8c7af189c6)" d="M 36.085 245.84 
L 44.287821 240.327945 
L 52.490641 224.703172 
L 60.693462 201.377013 
L 68.896282 173.521925 
L 77.099103 144.356047 
L 85.301923 116.668753 
L 93.504744 92.54479 
L 101.707564 73.176109 
L 109.910385 58.818853 
L 118.113205 48.953566 
L 126.316026 42.626853 
L 134.518846 38.806687 
L 142.721667 36.61601 
L 150.924487 35.413585 
L 159.127308 34.777766 
L 167.330128 34.451646 
L 175.532949 34.288132 
L 183.735769 34.207278 
L 191.93859 34.167601 
L 200.14141 34.148242 
L 208.344231 34.138897 
L 216.547051 34.134473 
L 224.749872 34.13244 
L 232.952692 34.13154 
L 241.155513 34.131159 
L 249.358333 34.131004 
L 257.561154 34.130944 
L 265.763974 34.130921 
L 273.966795 34.130913 
L 282.169615 34.13091 
L 290.372436 34.13091 
L 298.575256 34.130909 
L 306.778077 34.130909 
L 314.980897 34.130909 
L 323.183718 34.130909 
L 331.386538 34.130909 
L 339.589359 34.130909 
L 347.792179 34.130909 
L 355.995 34.130909 
" style="fill:none;stroke:#0000ff;stroke-linecap:square;stroke-width:2.0;"/>
   </g>
   <g id="line2d_2">
    <path clip-path="url(#p8c7af189c6)" d="M 36.085 245.84 
L 44.287821 240.396889 
L 52.490641 225.077234 
L 60.693462 202.425446 
L 68.896282 175.516214 
L 77.099103 147.229345 
L 85.301923 120.066267 
L 93.504744 96.170286 
L 101.707564 77.14644 
L 109.910385 63.686125 
L 118.113205 55.365236 
L 126.316026 50.884322 
L 134.518846 48.635505 
L 142.721667 47.249757 
L 150.924487 45.879272 
L 159.127308 44.204258 
L 167.330128 42.273279 
L 175.532949 40.302739 
L 183.735769 38.515806 
L 191.93859 37.05563 
L 200.14141 35.966726 
L 208.344231 35.218102 
L 216.547051 34.739836 
L 224.749872 34.454167 
L 232.952692 34.293869 
L 241.155513 34.209049 
L 249.358333 34.166598 
L 257.561154 34.146455 
L 265.763974 34.137375 
L 273.966795 34.133479 
L 282.169615 34.131887 
L 290.372436 34.131265 
L 298.575256 34.131033 
L 306.778077 34.130951 
L 314.980897 34.130923 
L 323.183718 34.130913 
L 331.386538 34.13091 
L 339.589359 34.130909 
L 347.792179 34.130909 
L 355.995 34.130909 
" style="fill:none;stroke:#008000;stroke-linecap:square;stroke-width:2.0;"/>
   </g>
   <g id="patch_3">
    <path d="M 36.085 12.96 
L 355.995 12.96 
" style="fill:none;stroke:#000000;stroke-linecap:square;stroke-linejoin:miter;"/>
   </g>
   <g id="patch_4">
    <path d="M 355.995 245.84 
L 355.995 12.96 
" style="fill:none;stroke:#000000;stroke-linecap:square;stroke-linejoin:miter;"/>
   </g>
   <g id="patch_5">
    <path d="M 36.085 245.84 
L 355.995 245.84 
" style="fill:none;stroke:#000000;stroke-linecap:square;stroke-linejoin:miter;"/>
   </g>
   <g id="patch_6">
    <path d="M 36.085 245.84 
L 36.085 12.96 
" style="fill:none;stroke:#000000;stroke-linecap:square;stroke-linejoin:miter;"/>
   </g>
   <g id="matplotlib.axis_1">
    <g id="xtick_1">
     <g id="line2d_3">
      <defs>
       <path d="M 0 0 
L 0 -4 
" id="me61e770b0d" style="stroke:#000000;stroke-width:0.5;"/>
      </defs>
      <g>
       <use style="stroke:#000000;stroke-width:0.5;" x="36.085" xlink:href="#me61e770b0d" y="245.83999999999997"/>
      </g>
     </g>
     <g id="line2d_4">
      <defs>
       <path d="M 0 0 
L 0 4 
" id="m60f00f3238" style="stroke:#000000;stroke-width:0.5;"/>
      </defs>
      <g>
       <use style="stroke:#000000;stroke-width:0.5;" x="36.085" xlink:href="#m60f00f3238" y="12.960000000000036"/>
      </g>
     </g>
     <g id="text_1">
      <!-- 0 -->
      <defs>
       <path d="M 31.78125 66.40625 
Q 24.171875 66.40625 20.328125 58.90625 
Q 16.5 51.421875 16.5 36.375 
Q 16.5 21.390625 20.328125 13.890625 
Q 24.171875 6.390625 31.78125 6.390625 
Q 39.453125 6.390625 43.28125 13.890625 
Q 47.125 21.390625 47.125 36.375 
Q 47.125 51.421875 43.28125 58.90625 
Q 39.453125 66.40625 31.78125 66.40625 
M 31.78125 74.21875 
Q 44.046875 74.21875 50.515625 64.515625 
Q 56.984375 54.828125 56.984375 36.375 
Q 56.984375 17.96875 50.515625 8.265625 
Q 44.046875 -1.421875 31.78125 -1.421875 
Q 19.53125 -1.421875 13.0625 8.265625 
Q 6.59375 17.96875 6.59375 36.375 
Q 6.59375 54.828125 13.0625 64.515625 
Q 19.53125 74.21875 31.78125 74.21875 
" id="BitstreamVeraSans-Roman-30"/>
      </defs>
      <g transform="translate(32.2675 258.958125)scale(0.12 -0.12)">
       <use xlink:href="#BitstreamVeraSans-Roman-30"/>
      </g>
     </g>
    </g>
    <g id="xtick_2">
     <g id="line2d_5">
      <g>
       <use style="stroke:#000000;stroke-width:0.5;" x="116.0625" xlink:href="#me61e770b0d" y="245.83999999999997"/>
      </g>
     </g>
     <g id="line2d_6">
      <g>
       <use style="stroke:#000000;stroke-width:0.5;" x="116.0625" xlink:href="#m60f00f3238" y="12.960000000000036"/>
      </g>
     </g>
     <g id="text_2">
      <!-- 1 -->
      <defs>
       <path d="M 12.40625 8.296875 
L 28.515625 8.296875 
L 28.515625 63.921875 
L 10.984375 60.40625 
L 10.984375 69.390625 
L 28.421875 72.90625 
L 38.28125 72.90625 
L 38.28125 8.296875 
L 54.390625 8.296875 
L 54.390625 0 
L 12.40625 0 
z
" id="BitstreamVeraSans-Roman-31"/>
      </defs>
      <g transform="translate(112.245 258.958125)scale(0.12 -0.12)">
       <use xlink:href="#BitstreamVeraSans-Roman-31"/>
      </g>
     </g>
    </g>
    <g id="xtick_3">
     <g id="line2d_7">
      <g>
       <use style="stroke:#000000;stroke-width:0.5;" x="196.04000000000002" xlink:href="#me61e770b0d" y="245.83999999999997"/>
      </g>
     </g>
     <g id="line2d_8">
      <g>
       <use style="stroke:#000000;stroke-width:0.5;" x="196.04000000000002" xlink:href="#m60f00f3238" y="12.960000000000036"/>
      </g>
     </g>
     <g id="text_3">
      <!-- 2 -->
      <defs>
       <path d="M 19.1875 8.296875 
L 53.609375 8.296875 
L 53.609375 0 
L 7.328125 0 
L 7.328125 8.296875 
Q 12.9375 14.109375 22.625 23.890625 
Q 32.328125 33.6875 34.8125 36.53125 
Q 39.546875 41.84375 41.421875 45.53125 
Q 43.3125 49.21875 43.3125 52.78125 
Q 43.3125 58.59375 39.234375 62.25 
Q 35.15625 65.921875 28.609375 65.921875 
Q 23.96875 65.921875 18.8125 64.3125 
Q 13.671875 62.703125 7.8125 59.421875 
L 7.8125 69.390625 
Q 13.765625 71.78125 18.9375 73 
Q 24.125 74.21875 28.421875 74.21875 
Q 39.75 74.21875 46.484375 68.546875 
Q 53.21875 62.890625 53.21875 53.421875 
Q 53.21875 48.921875 51.53125 44.890625 
Q 49.859375 40.875 45.40625 35.40625 
Q 44.1875 33.984375 37.640625 27.21875 
Q 31.109375 20.453125 19.1875 8.296875 
" id="BitstreamVeraSans-Roman-32"/>
      </defs>
      <g transform="translate(192.22250000000003 258.958125)scale(0.12 -0.12)">
       <use xlink:href="#BitstreamVeraSans-Roman-32"/>
      </g>
     </g>
    </g>
    <g id="xtick_4">
     <g id="line2d_9">
      <g>
       <use style="stroke:#000000;stroke-width:0.5;" x="276.0175" xlink:href="#me61e770b0d" y="245.83999999999997"/>
      </g>
     </g>
     <g id="line2d_10">
      <g>
       <use style="stroke:#000000;stroke-width:0.5;" x="276.0175" xlink:href="#m60f00f3238" y="12.960000000000036"/>
      </g>
     </g>
     <g id="text_4">
      <!-- 3 -->
      <defs>
       <path d="M 40.578125 39.3125 
Q 47.65625 37.796875 51.625 33 
Q 55.609375 28.21875 55.609375 21.1875 
Q 55.609375 10.40625 48.1875 4.484375 
Q 40.765625 -1.421875 27.09375 -1.421875 
Q 22.515625 -1.421875 17.65625 -0.515625 
Q 12.796875 0.390625 7.625 2.203125 
L 7.625 11.71875 
Q 11.71875 9.328125 16.59375 8.109375 
Q 21.484375 6.890625 26.8125 6.890625 
Q 36.078125 6.890625 40.9375 10.546875 
Q 45.796875 14.203125 45.796875 21.1875 
Q 45.796875 27.640625 41.28125 31.265625 
Q 36.765625 34.90625 28.71875 34.90625 
L 20.21875 34.90625 
L 20.21875 43.015625 
L 29.109375 43.015625 
Q 36.375 43.015625 40.234375 45.921875 
Q 44.09375 48.828125 44.09375 54.296875 
Q 44.09375 59.90625 40.109375 62.90625 
Q 36.140625 65.921875 28.71875 65.921875 
Q 24.65625 65.921875 20.015625 65.03125 
Q 15.375 64.15625 9.8125 62.3125 
L 9.8125 71.09375 
Q 15.4375 72.65625 20.34375 73.4375 
Q 25.25 74.21875 29.59375 74.21875 
Q 40.828125 74.21875 47.359375 69.109375 
Q 53.90625 64.015625 53.90625 55.328125 
Q 53.90625 49.265625 50.4375 45.09375 
Q 46.96875 40.921875 40.578125 39.3125 
" id="BitstreamVeraSans-Roman-33"/>
      </defs>
      <g transform="translate(272.2 258.958125)scale(0.12 -0.12)">
       <use xlink:href="#BitstreamVeraSans-Roman-33"/>
      </g>
     </g>
    </g>
    <g id="xtick_5">
     <g id="line2d_11">
      <g>
       <use style="stroke:#000000;stroke-width:0.5;" x="355.995" xlink:href="#me61e770b0d" y="245.83999999999997"/>
      </g>
     </g>
     <g id="line2d_12">
      <g>
       <use style="stroke:#000000;stroke-width:0.5;" x="355.995" xlink:href="#m60f00f3238" y="12.960000000000036"/>
      </g>
     </g>
     <g id="text_5">
      <!-- 4 -->
      <defs>
       <path d="M 37.796875 64.3125 
L 12.890625 25.390625 
L 37.796875 25.390625 
z
M 35.203125 72.90625 
L 47.609375 72.90625 
L 47.609375 25.390625 
L 58.015625 25.390625 
L 58.015625 17.1875 
L 47.609375 17.1875 
L 47.609375 0 
L 37.796875 0 
L 37.796875 17.1875 
L 4.890625 17.1875 
L 4.890625 26.703125 
z
" id="BitstreamVeraSans-Roman-34"/>
      </defs>
      <g transform="translate(352.1775 258.958125)scale(0.12 -0.12)">
       <use xlink:href="#BitstreamVeraSans-Roman-34"/>
      </g>
     </g>
    </g>
   </g>
   <g id="matplotlib.axis_2">
    <g id="ytick_1">
     <g id="line2d_13">
      <defs>
       <path d="M 0 0 
L 4 0 
" id="m60b949c5a0" style="stroke:#000000;stroke-width:0.5;"/>
      </defs>
      <g>
       <use style="stroke:#000000;stroke-width:0.5;" x="36.085" xlink:href="#m60b949c5a0" y="245.83999999999997"/>
      </g>
     </g>
     <g id="line2d_14">
      <defs>
       <path d="M 0 0 
L -4 0 
" id="mb56b72705e" style="stroke:#000000;stroke-width:0.5;"/>
      </defs>
      <g>
       <use style="stroke:#000000;stroke-width:0.5;" x="355.995" xlink:href="#mb56b72705e" y="245.83999999999997"/>
      </g>
     </g>
     <g id="text_6">
      <!-- 0.0 -->
      <defs>
       <path d="M 10.6875 12.40625 
L 21 12.40625 
L 21 0 
L 10.6875 0 
z
" id="BitstreamVeraSans-Roman-2e"/>
      </defs>
      <g transform="translate(13.001250000000002 249.15125)scale(0.12 -0.12)">
       <use xlink:href="#BitstreamVeraSans-Roman-30"/>
       <use x="63.623046875" xlink:href="#BitstreamVeraSans-Roman-2e"/>
       <use x="95.41015625" xlink:href="#BitstreamVeraSans-Roman-30"/>
      </g>
     </g>
    </g>
    <g id="ytick_2">
     <g id="line2d_15">
      <g>
       <use style="stroke:#000000;stroke-width:0.5;" x="36.085" xlink:href="#m60b949c5a0" y="139.98545454545456"/>
      </g>
     </g>
     <g id="line2d_16">
      <g>
       <use style="stroke:#000000;stroke-width:0.5;" x="355.995" xlink:href="#mb56b72705e" y="139.98545454545456"/>
      </g>
     </g>
     <g id="text_7">
      <!-- 0.5 -->
      <defs>
       <path d="M 10.796875 72.90625 
L 49.515625 72.90625 
L 49.515625 64.59375 
L 19.828125 64.59375 
L 19.828125 46.734375 
Q 21.96875 47.46875 24.109375 47.828125 
Q 26.265625 48.1875 28.421875 48.1875 
Q 40.625 48.1875 47.75 41.5 
Q 54.890625 34.8125 54.890625 23.390625 
Q 54.890625 11.625 47.5625 5.09375 
Q 40.234375 -1.421875 26.90625 -1.421875 
Q 22.3125 -1.421875 17.546875 -0.640625 
Q 12.796875 0.140625 7.71875 1.703125 
L 7.71875 11.625 
Q 12.109375 9.234375 16.796875 8.0625 
Q 21.484375 6.890625 26.703125 6.890625 
Q 35.15625 6.890625 40.078125 11.328125 
Q 45.015625 15.765625 45.015625 23.390625 
Q 45.015625 31 40.078125 35.4375 
Q 35.15625 39.890625 26.703125 39.890625 
Q 22.75 39.890625 18.8125 39.015625 
Q 14.890625 38.140625 10.796875 36.28125 
z
" id="BitstreamVeraSans-Roman-35"/>
      </defs>
      <g transform="translate(13.001250000000002 143.29670454545456)scale(0.12 -0.12)">
       <use xlink:href="#BitstreamVeraSans-Roman-30"/>
       <use x="63.623046875" xlink:href="#BitstreamVeraSans-Roman-2e"/>
       <use x="95.41015625" xlink:href="#BitstreamVeraSans-Roman-35"/>
      </g>
     </g>
    </g>
    <g id="ytick_3">
     <g id="line2d_17">
      <g>
       <use style="stroke:#000000;stroke-width:0.5;" x="36.085" xlink:href="#m60b949c5a0" y="34.13090909090914"/>
      </g>
     </g>
     <g id="line2d_18">
      <g>
       <use style="stroke:#000000;stroke-width:0.5;" x="355.995" xlink:href="#mb56b72705e" y="34.13090909090914"/>
      </g>
     </g>
     <g id="text_8">
      <!-- 1.0 -->
      <g transform="translate(13.001250000000002 37.44215909090914)scale(0.12 -0.12)">
       <use xlink:href="#BitstreamVeraSans-Roman-31"/>
       <use x="63.623046875" xlink:href="#BitstreamVeraSans-Roman-2e"/>
       <use x="95.41015625" xlink:href="#BitstreamVeraSans-Roman-30"/>
      </g>
     </g>
    </g>
   </g>
   <g id="text_9">
    <!-- 1.15 meV -->
    <defs>
     <path d="M 56.203125 29.59375 
L 56.203125 25.203125 
L 14.890625 25.203125 
Q 15.484375 15.921875 20.484375 11.0625 
Q 25.484375 6.203125 34.421875 6.203125 
Q 39.59375 6.203125 44.453125 7.46875 
Q 49.3125 8.734375 54.109375 11.28125 
L 54.109375 2.78125 
Q 49.265625 0.734375 44.1875 -0.34375 
Q 39.109375 -1.421875 33.890625 -1.421875 
Q 20.796875 -1.421875 13.15625 6.1875 
Q 5.515625 13.8125 5.515625 26.8125 
Q 5.515625 40.234375 12.765625 48.109375 
Q 20.015625 56 32.328125 56 
Q 43.359375 56 49.78125 48.890625 
Q 56.203125 41.796875 56.203125 29.59375 
M 47.21875 32.234375 
Q 47.125 39.59375 43.09375 43.984375 
Q 39.0625 48.390625 32.421875 48.390625 
Q 24.90625 48.390625 20.390625 44.140625 
Q 15.875 39.890625 15.1875 32.171875 
z
" id="BitstreamVeraSans-Roman-65"/>
     <path id="BitstreamVeraSans-Roman-20"/>
     <path d="M 28.609375 0 
L 0.78125 72.90625 
L 11.078125 72.90625 
L 34.1875 11.53125 
L 57.328125 72.90625 
L 67.578125 72.90625 
L 39.796875 0 
z
" id="BitstreamVeraSans-Roman-56"/>
     <path d="M 52 44.1875 
Q 55.375 50.25 60.0625 53.125 
Q 64.75 56 71.09375 56 
Q 79.640625 56 84.28125 50.015625 
Q 88.921875 44.046875 88.921875 33.015625 
L 88.921875 0 
L 79.890625 0 
L 79.890625 32.71875 
Q 79.890625 40.578125 77.09375 44.375 
Q 74.3125 48.1875 68.609375 48.1875 
Q 61.625 48.1875 57.5625 43.546875 
Q 53.515625 38.921875 53.515625 30.90625 
L 53.515625 0 
L 44.484375 0 
L 44.484375 32.71875 
Q 44.484375 40.625 41.703125 44.40625 
Q 38.921875 48.1875 33.109375 48.1875 
Q 26.21875 48.1875 22.15625 43.53125 
Q 18.109375 38.875 18.109375 30.90625 
L 18.109375 0 
L 9.078125 0 
L 9.078125 54.6875 
L 18.109375 54.6875 
L 18.109375 46.1875 
Q 21.1875 51.21875 25.484375 53.609375 
Q 29.78125 56 35.6875 56 
Q 41.65625 56 45.828125 52.96875 
Q 50 49.953125 52 44.1875 
" id="BitstreamVeraSans-Roman-6d"/>
    </defs>
    <g transform="translate(196.04000000000002 203.49818181818182)scale(0.08 -0.08)">
     <use xlink:href="#BitstreamVeraSans-Roman-31"/>
     <use x="63.623046875" xlink:href="#BitstreamVeraSans-Roman-2e"/>
     <use x="95.41015625" xlink:href="#BitstreamVeraSans-Roman-31"/>
     <use x="159.033203125" xlink:href="#BitstreamVeraSans-Roman-35"/>
     <use x="222.65625" xlink:href="#BitstreamVeraSans-Roman-20"/>
     <use x="254.443359375" xlink:href="#BitstreamVeraSans-Roman-6d"/>
     <use x="351.85546875" xlink:href="#BitstreamVeraSans-Roman-65"/>
     <use x="413.37890625" xlink:href="#BitstreamVeraSans-Roman-56"/>
    </g>
   </g>
   <g id="legend_1">
    <g id="line2d_19">
     <path d="M 45.685 23.43875 
L 56.885 23.43875 
" style="fill:none;stroke:#0000ff;stroke-linecap:square;stroke-width:2.0;"/>
    </g>
    <g id="line2d_20"/>
    <g id="text_10">
     <!-- P131 -->
     <defs>
      <path d="M 19.671875 64.796875 
L 19.671875 37.40625 
L 32.078125 37.40625 
Q 38.96875 37.40625 42.71875 40.96875 
Q 46.484375 44.53125 46.484375 51.125 
Q 46.484375 57.671875 42.71875 61.234375 
Q 38.96875 64.796875 32.078125 64.796875 
z
M 9.8125 72.90625 
L 32.078125 72.90625 
Q 44.34375 72.90625 50.609375 67.359375 
Q 56.890625 61.8125 56.890625 51.125 
Q 56.890625 40.328125 50.609375 34.8125 
Q 44.34375 29.296875 32.078125 29.296875 
L 19.671875 29.296875 
L 19.671875 0 
L 9.8125 0 
z
" id="BitstreamVeraSans-Roman-50"/>
     </defs>
     <g transform="translate(65.685 26.23875000000004)scale(0.08 -0.08)">
      <use xlink:href="#BitstreamVeraSans-Roman-50"/>
      <use x="60.302734375" xlink:href="#BitstreamVeraSans-Roman-31"/>
      <use x="123.92578125" xlink:href="#BitstreamVeraSans-Roman-33"/>
      <use x="187.548828125" xlink:href="#BitstreamVeraSans-Roman-31"/>
     </g>
    </g>
    <g id="line2d_21">
     <path d="M 45.685 35.18125 
L 56.885 35.18125 
" style="fill:none;stroke:#008000;stroke-linecap:square;stroke-width:2.0;"/>
    </g>
    <g id="line2d_22"/>
    <g id="text_11">
     <!-- N131 -->
     <defs>
      <path d="M 9.8125 72.90625 
L 23.09375 72.90625 
L 55.421875 11.921875 
L 55.421875 72.90625 
L 64.984375 72.90625 
L 64.984375 0 
L 51.703125 0 
L 19.390625 60.984375 
L 19.390625 0 
L 9.8125 0 
z
" id="BitstreamVeraSans-Roman-4e"/>
     </defs>
     <g transform="translate(65.685 37.981250000000045)scale(0.08 -0.08)">
      <use xlink:href="#BitstreamVeraSans-Roman-4e"/>
      <use x="74.8046875" xlink:href="#BitstreamVeraSans-Roman-31"/>
      <use x="138.427734375" xlink:href="#BitstreamVeraSans-Roman-33"/>
      <use x="202.05078125" xlink:href="#BitstreamVeraSans-Roman-31"/>
     </g>
    </g>
   </g>
  </g>
  <g id="axes_2">
   <g id="patch_7">
    <path d="M 395.905 245.84 
L 715.815 245.84 
L 715.815 12.96 
L 395.905 12.96 
z
" style="fill:#ffffff;"/>
   </g>
   <g id="line2d_23">
    <path clip-path="url(#pbe99c691e6)" d="M 395.905 245.84 
L 404.107821 240.304386 
L 412.310641 224.623225 
L 420.513462 201.247862 
L 428.716282 173.399386 
L 436.919103 144.313904 
L 445.121923 116.748391 
L 453.324744 92.72635 
L 461.527564 73.401483 
L 469.730385 59.038187 
L 477.933205 49.148501 
L 486.136026 42.802374 
L 494.338846 38.969163 
L 502.541667 36.763099 
L 510.744487 35.538167 
L 518.947308 34.874599 
L 527.150128 34.520506 
L 535.352949 34.333119 
L 543.555769 34.234474 
L 551.75859 34.182919 
L 559.96141 34.156326 
L 568.164231 34.142914 
L 576.367051 34.136361 
L 584.569872 34.133282 
L 592.772692 34.131898 
L 600.975513 34.131303 
L 609.178333 34.13106 
L 617.381154 34.130964 
L 625.583974 34.130929 
L 633.786795 34.130916 
L 641.989615 34.130911 
L 650.192436 34.13091 
L 658.395256 34.130909 
L 666.598077 34.130909 
L 674.800897 34.130909 
L 683.003718 34.130909 
L 691.206538 34.130909 
L 699.409359 34.130909 
L 707.612179 34.130909 
L 715.815 34.130909 
" style="fill:none;stroke:#0000ff;stroke-linecap:square;stroke-width:2.0;"/>
   </g>
   <g id="line2d_24">
    <path clip-path="url(#pbe99c691e6)" d="M 395.905 245.84 
L 404.107821 240.373465 
L 412.310641 225.019162 
L 420.513462 202.422268 
L 428.716282 175.779997 
L 436.919103 148.01654 
L 445.121923 121.529363 
L 453.324744 98.252704 
L 461.527564 79.632326 
L 469.730385 66.368876 
L 477.933205 58.181172 
L 486.136026 53.899854 
L 494.338846 51.926205 
L 502.541667 50.788452 
L 510.744487 49.507509 
L 518.947308 47.682627 
L 527.150128 45.365457 
L 535.352949 42.846513 
L 543.555769 40.45473 
L 551.75859 38.42895 
L 559.96141 36.873883 
L 568.164231 35.779082 
L 576.367051 35.065792 
L 584.569872 34.632706 
L 592.772692 34.386321 
L 600.975513 34.254417 
L 609.178333 34.18774 
L 617.381154 34.155828 
L 625.583974 34.141334 
L 633.786795 34.135075 
L 641.989615 34.132501 
L 650.192436 34.131491 
L 658.395256 34.131113 
L 666.598077 34.130978 
L 674.800897 34.130931 
L 683.003718 34.130916 
L 691.206538 34.130911 
L 699.409359 34.13091 
L 707.612179 34.130909 
L 715.815 34.130909 
" style="fill:none;stroke:#008000;stroke-linecap:square;stroke-width:2.0;"/>
   </g>
   <g id="patch_8">
    <path d="M 395.905 12.96 
L 715.815 12.96 
" style="fill:none;stroke:#000000;stroke-linecap:square;stroke-linejoin:miter;"/>
   </g>
   <g id="patch_9">
    <path d="M 715.815 245.84 
L 715.815 12.96 
" style="fill:none;stroke:#000000;stroke-linecap:square;stroke-linejoin:miter;"/>
   </g>
   <g id="patch_10">
    <path d="M 395.905 245.84 
L 715.815 245.84 
" style="fill:none;stroke:#000000;stroke-linecap:square;stroke-linejoin:miter;"/>
   </g>
   <g id="patch_11">
    <path d="M 395.905 245.84 
L 395.905 12.96 
" style="fill:none;stroke:#000000;stroke-linecap:square;stroke-linejoin:miter;"/>
   </g>
   <g id="matplotlib.axis_3">
    <g id="xtick_6">
     <g id="line2d_25">
      <g>
       <use style="stroke:#000000;stroke-width:0.5;" x="395.90500000000003" xlink:href="#me61e770b0d" y="245.83999999999997"/>
      </g>
     </g>
     <g id="line2d_26">
      <g>
       <use style="stroke:#000000;stroke-width:0.5;" x="395.90500000000003" xlink:href="#m60f00f3238" y="12.960000000000036"/>
      </g>
     </g>
     <g id="text_12">
      <!-- 0 -->
      <g transform="translate(392.08750000000003 258.958125)scale(0.12 -0.12)">
       <use xlink:href="#BitstreamVeraSans-Roman-30"/>
      </g>
     </g>
    </g>
    <g id="xtick_7">
     <g id="line2d_27">
      <g>
       <use style="stroke:#000000;stroke-width:0.5;" x="475.88250000000005" xlink:href="#me61e770b0d" y="245.83999999999997"/>
      </g>
     </g>
     <g id="line2d_28">
      <g>
       <use style="stroke:#000000;stroke-width:0.5;" x="475.88250000000005" xlink:href="#m60f00f3238" y="12.960000000000036"/>
      </g>
     </g>
     <g id="text_13">
      <!-- 1 -->
      <g transform="translate(472.06500000000005 258.958125)scale(0.12 -0.12)">
       <use xlink:href="#BitstreamVeraSans-Roman-31"/>
      </g>
     </g>
    </g>
    <g id="xtick_8">
     <g id="line2d_29">
      <g>
       <use style="stroke:#000000;stroke-width:0.5;" x="555.86" xlink:href="#me61e770b0d" y="245.83999999999997"/>
      </g>
     </g>
     <g id="line2d_30">
      <g>
       <use style="stroke:#000000;stroke-width:0.5;" x="555.86" xlink:href="#m60f00f3238" y="12.960000000000036"/>
      </g>
     </g>
     <g id="text_14">
      <!-- 2 -->
      <g transform="translate(552.0425 258.958125)scale(0.12 -0.12)">
       <use xlink:href="#BitstreamVeraSans-Roman-32"/>
      </g>
     </g>
    </g>
    <g id="xtick_9">
     <g id="line2d_31">
      <g>
       <use style="stroke:#000000;stroke-width:0.5;" x="635.8375000000001" xlink:href="#me61e770b0d" y="245.83999999999997"/>
      </g>
     </g>
     <g id="line2d_32">
      <g>
       <use style="stroke:#000000;stroke-width:0.5;" x="635.8375000000001" xlink:href="#m60f00f3238" y="12.960000000000036"/>
      </g>
     </g>
     <g id="text_15">
      <!-- 3 -->
      <g transform="translate(632.0200000000001 258.958125)scale(0.12 -0.12)">
       <use xlink:href="#BitstreamVeraSans-Roman-33"/>
      </g>
     </g>
    </g>
    <g id="xtick_10">
     <g id="line2d_33">
      <g>
       <use style="stroke:#000000;stroke-width:0.5;" x="715.815" xlink:href="#me61e770b0d" y="245.83999999999997"/>
      </g>
     </g>
     <g id="line2d_34">
      <g>
       <use style="stroke:#000000;stroke-width:0.5;" x="715.815" xlink:href="#m60f00f3238" y="12.960000000000036"/>
      </g>
     </g>
     <g id="text_16">
      <!-- 4 -->
      <g transform="translate(711.9975000000001 258.958125)scale(0.12 -0.12)">
       <use xlink:href="#BitstreamVeraSans-Roman-34"/>
      </g>
     </g>
    </g>
   </g>
   <g id="matplotlib.axis_4">
    <g id="ytick_4">
     <g id="line2d_35">
      <g>
       <use style="stroke:#000000;stroke-width:0.5;" x="395.90500000000003" xlink:href="#m60b949c5a0" y="245.83999999999997"/>
      </g>
     </g>
     <g id="line2d_36">
      <g>
       <use style="stroke:#000000;stroke-width:0.5;" x="715.815" xlink:href="#mb56b72705e" y="245.83999999999997"/>
      </g>
     </g>
     <g id="text_17">
      <!-- 0.0 -->
      <g transform="translate(372.82125 249.15125)scale(0.12 -0.12)">
       <use xlink:href="#BitstreamVeraSans-Roman-30"/>
       <use x="63.623046875" xlink:href="#BitstreamVeraSans-Roman-2e"/>
       <use x="95.41015625" xlink:href="#BitstreamVeraSans-Roman-30"/>
      </g>
     </g>
    </g>
    <g id="ytick_5">
     <g id="line2d_37">
      <g>
       <use style="stroke:#000000;stroke-width:0.5;" x="395.90500000000003" xlink:href="#m60b949c5a0" y="139.98545454545456"/>
      </g>
     </g>
     <g id="line2d_38">
      <g>
       <use style="stroke:#000000;stroke-width:0.5;" x="715.815" xlink:href="#mb56b72705e" y="139.98545454545456"/>
      </g>
     </g>
     <g id="text_18">
      <!-- 0.5 -->
      <g transform="translate(372.82125 143.29670454545456)scale(0.12 -0.12)">
       <use xlink:href="#BitstreamVeraSans-Roman-30"/>
       <use x="63.623046875" xlink:href="#BitstreamVeraSans-Roman-2e"/>
       <use x="95.41015625" xlink:href="#BitstreamVeraSans-Roman-35"/>
      </g>
     </g>
    </g>
    <g id="ytick_6">
     <g id="line2d_39">
      <g>
       <use style="stroke:#000000;stroke-width:0.5;" x="395.90500000000003" xlink:href="#m60b949c5a0" y="34.13090909090914"/>
      </g>
     </g>
     <g id="line2d_40">
      <g>
       <use style="stroke:#000000;stroke-width:0.5;" x="715.815" xlink:href="#mb56b72705e" y="34.13090909090914"/>
      </g>
     </g>
     <g id="text_19">
      <!-- 1.0 -->
      <g transform="translate(372.82125 37.44215909090914)scale(0.12 -0.12)">
       <use xlink:href="#BitstreamVeraSans-Roman-31"/>
       <use x="63.623046875" xlink:href="#BitstreamVeraSans-Roman-2e"/>
       <use x="95.41015625" xlink:href="#BitstreamVeraSans-Roman-30"/>
      </g>
     </g>
    </g>
   </g>
   <g id="text_20">
    <!-- 1.3 meV -->
    <g transform="translate(555.86 203.49818181818182)scale(0.08 -0.08)">
     <use xlink:href="#BitstreamVeraSans-Roman-31"/>
     <use x="63.623046875" xlink:href="#BitstreamVeraSans-Roman-2e"/>
     <use x="95.41015625" xlink:href="#BitstreamVeraSans-Roman-33"/>
     <use x="159.033203125" xlink:href="#BitstreamVeraSans-Roman-20"/>
     <use x="190.8203125" xlink:href="#BitstreamVeraSans-Roman-6d"/>
     <use x="288.232421875" xlink:href="#BitstreamVeraSans-Roman-65"/>
     <use x="349.755859375" xlink:href="#BitstreamVeraSans-Roman-56"/>
    </g>
   </g>
   <g id="legend_2">
    <g id="line2d_41">
     <path d="M 405.505 23.43875 
L 416.705 23.43875 
" style="fill:none;stroke:#0000ff;stroke-linecap:square;stroke-width:2.0;"/>
    </g>
    <g id="line2d_42"/>
    <g id="text_21">
     <!-- P131 -->
     <g transform="translate(425.505 26.23875000000004)scale(0.08 -0.08)">
      <use xlink:href="#BitstreamVeraSans-Roman-50"/>
      <use x="60.302734375" xlink:href="#BitstreamVeraSans-Roman-31"/>
      <use x="123.92578125" xlink:href="#BitstreamVeraSans-Roman-33"/>
      <use x="187.548828125" xlink:href="#BitstreamVeraSans-Roman-31"/>
     </g>
    </g>
    <g id="line2d_43">
     <path d="M 405.505 35.18125 
L 416.705 35.18125 
" style="fill:none;stroke:#008000;stroke-linecap:square;stroke-width:2.0;"/>
    </g>
    <g id="line2d_44"/>
    <g id="text_22">
     <!-- N131 -->
     <g transform="translate(425.505 37.981250000000045)scale(0.08 -0.08)">
      <use xlink:href="#BitstreamVeraSans-Roman-4e"/>
      <use x="74.8046875" xlink:href="#BitstreamVeraSans-Roman-31"/>
      <use x="138.427734375" xlink:href="#BitstreamVeraSans-Roman-33"/>
      <use x="202.05078125" xlink:href="#BitstreamVeraSans-Roman-31"/>
     </g>
    </g>
   </g>
  </g>
 </g>
 <defs>
  <clipPath id="p8c7af189c6">
   <rect height="232.87999999999994" width="319.91" x="36.085" y="12.960000000000036"/>
  </clipPath>
  <clipPath id="pbe99c691e6">
   <rect height="232.87999999999994" width="319.91" x="395.90500000000003" y="12.960000000000036"/>
  </clipPath>
 </defs>
</svg>
